<svg xmlns="http://www.w3.org/2000/svg" xmlns:xlink="http://www.w3.org/1999/xlink" viewBox="0 0 286.4 100"><defs><style>.a{fill:#fff;}.b{fill:url(#a);}.c{fill:url(#b);}.d{fill:url(#c);}</style><linearGradient id="a" x1="125.4" y1="-8427.09" x2="120.23" y2="-8442.63" gradientTransform="translate(180.13 -8346.39) rotate(180)" gradientUnits="userSpaceOnUse"><stop offset="0" stop-color="#275e84"/><stop offset="0.09" stop-color="#2e6b90"/><stop offset="0.28" stop-color="#3a83a4"/><stop offset="0.49" stop-color="#4294b3"/><stop offset="0.72" stop-color="#479ebc"/><stop offset="1" stop-color="#49a1bf"/></linearGradient><radialGradient id="b" cx="50.5" cy="37.68" fx="70.22772746322869" r="64.6" gradientUnits="userSpaceOnUse"><stop offset="0" stop-color="#8989b5"/><stop offset="0.3" stop-color="#6e6e99"/><stop offset="0.48" stop-color="#4e4f78"/><stop offset="0.7" stop-color="#2f3058"/><stop offset="0.88" stop-color="#1c1e44"/><stop offset="1" stop-color="#15173d"/></radialGradient><linearGradient id="c" x1="124.46" y1="-8346.39" x2="124.46" y2="-8435.07" gradientTransform="translate(180.13 -8346.39) rotate(180)" gradientUnits="userSpaceOnUse"><stop offset="0" stop-color="#5db3cc"/><stop offset="1" stop-color="#49a1bf"/></linearGradient></defs><path class="a" d="M134.32,27.6h-9.75l-2.1,4.68h-1.92l8-17.5h1.82l8,17.5h-2Zm-.67-1.49-4.2-9.4-4.2,9.4Z"/><path class="a" d="M162.59,24.66v7.62h-1.77V24.83c0-2.77-1.4-4.2-3.77-4.2-2.7,0-4.4,1.75-4.4,4.75v6.9h-1.78V24.83c0-2.77-1.4-4.2-3.8-4.2-2.67,0-4.4,1.75-4.4,4.75v6.9H140.9V19.13h1.7v2.4a5.31,5.31,0,0,1,4.82-2.5,4.73,4.73,0,0,1,4.68,2.78A5.72,5.72,0,0,1,157.3,19C160.49,19,162.59,20.88,162.59,24.66Z"/><path class="a" d="M179.47,13.73V32.28h-1.7v-2.6a5.69,5.69,0,0,1-5.07,2.72,6.38,6.38,0,0,1-6.55-6.69A6.36,6.36,0,0,1,172.7,19a5.74,5.74,0,0,1,5,2.6v-7.9Zm-1.75,12a4.89,4.89,0,1,0-9.77,0,4.89,4.89,0,1,0,9.77,0Z"/><path class="a" d="M183.1,25.71a6.69,6.69,0,0,1,13.37,0,6.69,6.69,0,1,1-13.37,0Zm11.57,0a4.89,4.89,0,1,0-9.77,0,4.89,4.89,0,1,0,9.77,0Z"/><path class="a" d="M198.77,25.71A6.48,6.48,0,0,1,205.55,19a5.76,5.76,0,0,1,5.15,2.6l-1.33.9a4.48,4.48,0,0,0-3.82-2,4.83,4.83,0,0,0-5,5.13,4.82,4.82,0,0,0,5,5.12,4.44,4.44,0,0,0,3.82-1.93l1.33.9a5.8,5.8,0,0,1-5.15,2.6A6.49,6.49,0,0,1,198.77,25.71Z"/><path class="a" d="M212.35,30.78l.8-1.4a8,8,0,0,0,4.67,1.47c2.5,0,3.53-.85,3.53-2.15,0-3.42-8.53-.72-8.53-5.92,0-2.15,1.85-3.75,5.2-3.75a8.91,8.91,0,0,1,4.65,1.23l-.77,1.42A6.75,6.75,0,0,0,218,20.56c-2.37,0-3.42.92-3.42,2.17,0,3.55,8.52.88,8.52,5.92,0,2.28-2,3.75-5.42,3.75A8.8,8.8,0,0,1,212.35,30.78Z"/><path class="a" d="M121.8,48.53a8.79,8.79,0,0,1,9.17-8.9,8.47,8.47,0,0,1,6.4,2.55l-1.17,1.18A7,7,0,0,0,131,41.28a7.25,7.25,0,1,0,0,14.5,6.86,6.86,0,0,0,5.18-2.1l1.17,1.17A8.51,8.51,0,0,1,131,57.43,8.78,8.78,0,0,1,121.8,48.53Z"/><path class="a" d="M152.35,44.13V57.28h-1.7v-2.4a5.24,5.24,0,0,1-4.73,2.52c-3.35,0-5.54-1.87-5.54-5.64V44.13h1.77v7.45c0,2.8,1.45,4.22,3.95,4.22,2.75,0,4.47-1.77,4.47-4.77v-6.9Z"/><path class="a" d="M155.5,55.78l.8-1.4A8,8,0,0,0,161,55.85c2.5,0,3.53-.85,3.53-2.15,0-3.42-8.53-.72-8.53-5.92,0-2.15,1.85-3.75,5.2-3.75a8.91,8.91,0,0,1,4.65,1.23l-.77,1.42a6.75,6.75,0,0,0-3.88-1.12c-2.37,0-3.42.92-3.42,2.17,0,3.55,8.52.88,8.52,5.93,0,2.27-2,3.74-5.42,3.74A8.8,8.8,0,0,1,155.5,55.78Z"/><path class="a" d="M176.47,56.48a4.25,4.25,0,0,1-2.77.92,3.48,3.48,0,0,1-3.85-3.82V45.63H167.5v-1.5h2.35V41.26h1.77v2.87h4v1.5h-4v7.85a2.11,2.11,0,0,0,2.28,2.4,3,3,0,0,0,1.95-.68Z"/><path class="a" d="M177.9,50.71a6.69,6.69,0,1,1,6.7,6.69A6.47,6.47,0,0,1,177.9,50.71Zm11.57,0a4.89,4.89,0,1,0-9.77,0,4.89,4.89,0,1,0,9.77,0Z"/><path class="a" d="M216.59,49.66v7.62h-1.77V49.83c0-2.77-1.4-4.2-3.77-4.2-2.7,0-4.4,1.75-4.4,4.75v6.9h-1.78V49.83c0-2.77-1.4-4.2-3.8-4.2-2.67,0-4.4,1.75-4.4,4.75v6.9H194.9V44.13h1.7v2.4a5.31,5.31,0,0,1,4.82-2.5,4.73,4.73,0,0,1,4.68,2.78A5.72,5.72,0,0,1,211.3,44C214.49,44,216.59,45.88,216.59,49.66Z"/><path class="a" d="M232.92,51.26h-11a4.87,4.87,0,0,0,5.18,4.57,5.18,5.18,0,0,0,4-1.73l1,1.15a6.95,6.95,0,0,1-12-4.54A6.33,6.33,0,0,1,226.57,44c3.7,0,6.38,2.73,6.38,6.68C233,50.86,232.92,51.06,232.92,51.26Zm-11-1.33h9.33a4.67,4.67,0,0,0-9.33,0Z"/><path class="a" d="M243.2,44v1.73c-.15,0-.3,0-.43,0-2.75,0-4.42,1.75-4.42,4.85v6.7h-1.78V44.13h1.7v2.58C239.1,45,240.77,44,243.2,44Z"/><path class="a" d="M135.72,80.68v1.6H123.35V64.78h12v1.6H125.2v6.23h9v1.57h-9v6.5Z"/><path class="a" d="M151.8,74.66v7.62H150V74.83c0-2.77-1.45-4.2-4-4.2-2.82,0-4.6,1.75-4.6,4.75v6.9H139.7V69.13h1.7v2.43a5.52,5.52,0,0,1,5-2.53C149.6,69,151.8,70.88,151.8,74.66Z"/><path class="a" d="M168.85,69.13V80.68c0,4.52-2.23,6.57-6.58,6.57a9.15,9.15,0,0,1-6.12-2l.9-1.35a7.85,7.85,0,0,0,5.17,1.8c3.33,0,4.85-1.53,4.85-4.78V79.23A5.92,5.92,0,0,1,162,81.78,6.38,6.38,0,1,1,162,69a5.93,5.93,0,0,1,5.2,2.63V69.13Zm-1.73,6.25a5,5,0,1,0-5,4.82A4.7,4.7,0,0,0,167.12,75.38Z"/><path class="a" d="M183.75,74.13v8.15h-1.7v-2a4.94,4.94,0,0,1-4.53,2.17c-3,0-4.8-1.55-4.8-3.82,0-2,1.3-3.72,5.08-3.72H182v-.8c0-2.25-1.27-3.48-3.72-3.48a6.72,6.72,0,0,0-4.38,1.55l-.8-1.32A8.34,8.34,0,0,1,178.42,69C181.82,69,183.75,70.73,183.75,74.13ZM182,78.33V76.18h-4.12c-2.55,0-3.38,1-3.38,2.35,0,1.52,1.23,2.47,3.33,2.47A4.2,4.2,0,0,0,182,78.33Z"/><path class="a" d="M200.8,69.13V80.68c0,4.52-2.23,6.57-6.58,6.57a9.15,9.15,0,0,1-6.12-2l.9-1.35a7.85,7.85,0,0,0,5.17,1.8c3.33,0,4.85-1.53,4.85-4.78V79.23a5.92,5.92,0,0,1-5.12,2.55,6.38,6.38,0,1,1,0-12.75,5.93,5.93,0,0,1,5.2,2.63V69.13Zm-1.73,6.25a5,5,0,1,0-5,4.82A4.7,4.7,0,0,0,199.07,75.38Z"/><path class="a" d="M217.22,76.26h-11a4.87,4.87,0,0,0,5.18,4.57,5.2,5.2,0,0,0,4-1.72l1,1.14a6.95,6.95,0,0,1-12-4.54A6.33,6.33,0,0,1,210.87,69c3.7,0,6.38,2.73,6.38,6.68C217.25,75.86,217.22,76.06,217.22,76.26Zm-11-1.33h9.33a4.67,4.67,0,0,0-9.33,0Z"/><path class="a" d="M242.57,74.66v7.62h-1.78V74.83c0-2.77-1.4-4.2-3.77-4.2-2.7,0-4.4,1.75-4.4,4.75v6.9h-1.77V74.83c0-2.77-1.4-4.2-3.8-4.2-2.68,0-4.4,1.75-4.4,4.75v6.9h-1.78V69.13h1.7v2.4A5.34,5.34,0,0,1,227.4,69a4.72,4.72,0,0,1,4.67,2.78,5.72,5.72,0,0,1,5.2-2.78C240.47,69,242.57,70.88,242.57,74.66Z"/><path class="a" d="M258.9,76.26h-11a4.87,4.87,0,0,0,5.17,4.57,5.22,5.22,0,0,0,4-1.72l1,1.14a7,7,0,0,1-12-4.54A6.34,6.34,0,0,1,252.55,69c3.7,0,6.37,2.73,6.37,6.68C258.92,75.86,258.9,76.06,258.9,76.26Zm-11-1.33h9.32a4.67,4.67,0,0,0-9.32,0Z"/><path class="a" d="M274.64,74.66v7.62h-1.77V74.83c0-2.77-1.45-4.2-3.95-4.2-2.82,0-4.6,1.75-4.6,4.75v6.9h-1.77V69.13h1.7v2.43a5.52,5.52,0,0,1,5-2.53C272.45,69,274.64,70.88,274.64,74.66Z"/><path class="a" d="M286.4,81.48a4.25,4.25,0,0,1-2.78.92,3.48,3.48,0,0,1-3.85-3.82v-8h-2.35v-1.5h2.35V66.26h1.78v2.87h4v1.5h-4v7.85a2.1,2.1,0,0,0,2.27,2.4,2.93,2.93,0,0,0,1.95-.68Z"/><path class="b" d="M35.77,87.63a19,19,0,0,1-4.72,1l8.28,8.29a10.63,10.63,0,0,0,15.05,0l24-24Z"/><path class="c" d="M30.91,88.48,3.12,60.68a10.63,10.63,0,0,1,0-15l36.2-36.2a10.63,10.63,0,0,1,15,0l36.21,36.2a10.63,10.63,0,0,1,0,15L78.8,72.46Z"/><path class="d" d="M39.32,9.43h0A10.76,10.76,0,0,1,41,8.06a10.28,10.28,0,0,1,.91-.53,9.67,9.67,0,0,1,1.92-.78c.32-.1.66-.18,1-.25a10.65,10.65,0,0,1,3.94,0,10.43,10.43,0,0,1,3,1,10.28,10.28,0,0,1,.91.53,10.76,10.76,0,0,1,1.67,1.37l36.21,36.2a10.65,10.65,0,0,1,0,15A12.06,12.06,0,0,1,86,63.53L33.69,81.68a12.15,12.15,0,0,1-4,.68,11.89,11.89,0,0,1-8-3.09h0c-.33-.3-.65-.62-1-1L11.39,69a18,18,0,0,0,3.34,11.93,18.3,18.3,0,0,0,21,6.75L88.11,69.49A18.4,18.4,0,0,0,95,65.15a17,17,0,0,0,0-24L58.83,5a16.94,16.94,0,0,0-24,0,18.4,18.4,0,0,0-4.38,7l-3.35,9.65Z"/><path class="a" d="M30.08,48.58c0-5.17,4-8.87,9.31-8.87a8.85,8.85,0,0,1,7.06,3L43.9,45.1a5.5,5.5,0,0,0-4.31-2,5.49,5.49,0,1,0,0,11,5.47,5.47,0,0,0,4.31-2l2.55,2.35a8.8,8.8,0,0,1-7.08,3.07C34.05,57.45,30.08,53.75,30.08,48.58Z"/><path class="a" d="M62.15,54v3.18H48.87V40h13v3.19h-9v3.72h8V50h-8v4Z"/></svg>