<svg xmlns="http://www.w3.org/2000/svg" xmlns:xlink="http://www.w3.org/1999/xlink" viewBox="0 0 286.4 100"><defs><style>.a{fill:#fff;}.b{fill:url(#a);}.c{fill:url(#b);}.d{fill:url(#c);}</style><linearGradient id="a" x1="125.4" y1="-8427.09" x2="120.23" y2="-8442.63" gradientTransform="translate(180.13 -8346.39) rotate(180)" gradientUnits="userSpaceOnUse"><stop offset="0" stop-color="#275e84"/><stop offset="0.09" stop-color="#2e6b90"/><stop offset="0.28" stop-color="#3a83a4"/><stop offset="0.49" stop-color="#4294b3"/><stop offset="0.72" stop-color="#479ebc"/><stop offset="1" stop-color="#49a1bf"/></linearGradient><radialGradient id="b" cx="50.5" cy="37.68" fx="70.22772746322869" r="64.6" gradientUnits="userSpaceOnUse"><stop offset="0" stop-color="#8989b5"/><stop offset="0.3" stop-color="#6e6e99"/><stop offset="0.48" stop-color="#4e4f78"/><stop offset="0.7" stop-color="#2f3058"/><stop offset="0.88" stop-color="#1c1e44"/><stop offset="1" stop-color="#15173d"/></radialGradient><linearGradient id="c" x1="124.46" y1="-8346.39" x2="124.46" y2="-8435.07" gradientTransform="translate(180.13 -8346.39) rotate(180)" gradientUnits="userSpaceOnUse"><stop offset="0" stop-color="#5db3cc"/><stop offset="1" stop-color="#49a1bf"/></linearGradient></defs><path class="a" d="M121.8,36.1A8.79,8.79,0,0,1,131,27.2a8.47,8.47,0,0,1,6.4,2.55l-1.17,1.18A7,7,0,0,0,131,28.85a7.25,7.25,0,1,0,0,14.5,6.86,6.86,0,0,0,5.18-2.1l1.17,1.18A8.5,8.5,0,0,1,131,45,8.78,8.78,0,0,1,121.8,36.1Z"/><path class="a" d="M152.35,31.7V44.85h-1.7v-2.4A5.24,5.24,0,0,1,145.92,45c-3.35,0-5.54-1.87-5.54-5.64V31.7h1.77v7.45c0,2.8,1.45,4.23,3.95,4.23,2.75,0,4.47-1.78,4.47-4.78V31.7Z"/><path class="a" d="M155.5,43.35l.8-1.4A7.89,7.89,0,0,0,161,43.43c2.5,0,3.53-.85,3.53-2.15,0-3.43-8.53-.73-8.53-5.93,0-2.15,1.85-3.75,5.2-3.75a8.91,8.91,0,0,1,4.65,1.23l-.77,1.42a6.75,6.75,0,0,0-3.88-1.12c-2.37,0-3.42.92-3.42,2.17,0,3.55,8.52.88,8.52,5.93,0,2.27-2,3.74-5.42,3.74A8.73,8.73,0,0,1,155.5,43.35Z"/><path class="a" d="M176.47,44.05a4.19,4.19,0,0,1-2.77.92,3.48,3.48,0,0,1-3.85-3.82V33.2H167.5V31.7h2.35V28.83h1.77V31.7h4v1.5h-4v7.85a2.11,2.11,0,0,0,2.28,2.4,2.94,2.94,0,0,0,1.95-.67Z"/><path class="a" d="M177.9,38.28a6.69,6.69,0,0,1,13.37,0,6.69,6.69,0,1,1-13.37,0Zm11.57,0a4.89,4.89,0,1,0-9.77,0,4.89,4.89,0,1,0,9.77,0Z"/><path class="a" d="M216.59,37.23v7.62h-1.77V37.4c0-2.77-1.4-4.2-3.77-4.2-2.7,0-4.4,1.75-4.4,4.75v6.9h-1.78V37.4c0-2.77-1.4-4.2-3.8-4.2-2.67,0-4.4,1.75-4.4,4.75v6.9H194.9V31.7h1.7v2.4a5.31,5.31,0,0,1,4.82-2.5,4.73,4.73,0,0,1,4.68,2.78,5.72,5.72,0,0,1,5.2-2.78C214.49,31.6,216.59,33.45,216.59,37.23Z"/><path class="a" d="M232.92,38.83h-11a4.87,4.87,0,0,0,5.18,4.57,5.17,5.17,0,0,0,4-1.72l1,1.15a7,7,0,0,1-12-4.55,6.33,6.33,0,0,1,6.42-6.68c3.7,0,6.38,2.73,6.38,6.68C233,38.43,232.92,38.63,232.92,38.83Zm-11-1.33h9.33a4.67,4.67,0,0,0-9.33,0Z"/><path class="a" d="M243.2,31.6v1.73c-.15,0-.3,0-.43,0-2.75,0-4.42,1.75-4.42,4.85v6.7h-1.78V31.7h1.7v2.58C239.1,32.53,240.77,31.6,243.2,31.6Z"/><path class="a" d="M135.72,68.25v1.6H123.35V52.35h12V54H125.2v6.23h9v1.57h-9v6.5Z"/><path class="a" d="M151.8,62.23v7.62H150V62.4c0-2.77-1.45-4.2-4-4.2-2.82,0-4.6,1.75-4.6,4.75v6.9H139.7V56.7h1.7v2.43a5.52,5.52,0,0,1,5-2.53C149.6,56.6,151.8,58.45,151.8,62.23Z"/><path class="a" d="M168.85,56.7V68.25c0,4.52-2.23,6.57-6.58,6.57a9.15,9.15,0,0,1-6.12-2l.9-1.35a7.8,7.8,0,0,0,5.17,1.8c3.33,0,4.85-1.52,4.85-4.77V66.8A5.9,5.9,0,0,1,162,69.35a6.38,6.38,0,1,1,0-12.75,5.93,5.93,0,0,1,5.2,2.63V56.7ZM167.12,63a5,5,0,1,0-5,4.83A4.7,4.7,0,0,0,167.12,63Z"/><path class="a" d="M183.75,61.7v8.15h-1.7v-2A4.94,4.94,0,0,1,177.52,70c-3,0-4.8-1.55-4.8-3.83,0-2,1.3-3.72,5.08-3.72H182v-.8c0-2.25-1.27-3.48-3.72-3.48a6.72,6.72,0,0,0-4.38,1.55l-.8-1.32a8.34,8.34,0,0,1,5.35-1.78C181.82,56.6,183.75,58.3,183.75,61.7ZM182,65.9V63.75h-4.12c-2.55,0-3.38,1-3.38,2.35,0,1.53,1.23,2.48,3.33,2.48A4.2,4.2,0,0,0,182,65.9Z"/><path class="a" d="M200.8,56.7V68.25c0,4.52-2.23,6.57-6.58,6.57a9.15,9.15,0,0,1-6.12-2l.9-1.35a7.8,7.8,0,0,0,5.17,1.8c3.33,0,4.85-1.52,4.85-4.77V66.8a5.9,5.9,0,0,1-5.12,2.55,6.38,6.38,0,1,1,0-12.75,5.93,5.93,0,0,1,5.2,2.63V56.7ZM199.07,63a5,5,0,1,0-5,4.83A4.7,4.7,0,0,0,199.07,63Z"/><path class="a" d="M217.22,63.83h-11a4.87,4.87,0,0,0,5.18,4.57,5.17,5.17,0,0,0,4-1.72l1,1.15a6.95,6.95,0,0,1-12-4.55,6.33,6.33,0,0,1,6.42-6.68c3.7,0,6.38,2.73,6.38,6.68C217.25,63.43,217.22,63.63,217.22,63.83Zm-11-1.33h9.33a4.67,4.67,0,0,0-9.33,0Z"/><path class="a" d="M242.57,62.23v7.62h-1.78V62.4c0-2.77-1.4-4.2-3.77-4.2-2.7,0-4.4,1.75-4.4,4.75v6.9h-1.77V62.4c0-2.77-1.4-4.2-3.8-4.2-2.68,0-4.4,1.75-4.4,4.75v6.9h-1.78V56.7h1.7v2.4a5.34,5.34,0,0,1,4.83-2.5,4.72,4.72,0,0,1,4.67,2.78,5.72,5.72,0,0,1,5.2-2.78C240.47,56.6,242.57,58.45,242.57,62.23Z"/><path class="a" d="M258.9,63.83h-11a4.86,4.86,0,0,0,5.17,4.57,5.19,5.19,0,0,0,4-1.72l1,1.15a7,7,0,0,1-12-4.55,6.34,6.34,0,0,1,6.43-6.68c3.7,0,6.37,2.73,6.37,6.68C258.92,63.43,258.9,63.63,258.9,63.83Zm-11-1.33h9.32a4.67,4.67,0,0,0-9.32,0Z"/><path class="a" d="M274.64,62.23v7.62h-1.77V62.4c0-2.77-1.45-4.2-3.95-4.2-2.82,0-4.6,1.75-4.6,4.75v6.9h-1.77V56.7h1.7v2.43a5.52,5.52,0,0,1,5-2.53C272.45,56.6,274.64,58.45,274.64,62.23Z"/><path class="a" d="M286.4,69.05a4.21,4.21,0,0,1-2.78.93,3.49,3.49,0,0,1-3.85-3.83v-8h-2.35V56.7h2.35V53.83h1.78V56.7h4v1.5h-4v7.85a2.1,2.1,0,0,0,2.27,2.4,2.92,2.92,0,0,0,1.95-.67Z"/><path class="b" d="M35.77,87.63a19,19,0,0,1-4.72,1l8.28,8.29a10.63,10.63,0,0,0,15.05,0l24-24Z"/><path class="c" d="M30.91,88.48,3.12,60.68a10.63,10.63,0,0,1,0-15l36.2-36.2a10.63,10.63,0,0,1,15,0l36.21,36.2a10.63,10.63,0,0,1,0,15L78.8,72.46Z"/><path class="d" d="M39.32,9.43h0A10.76,10.76,0,0,1,41,8.06a10.28,10.28,0,0,1,.91-.53,9.67,9.67,0,0,1,1.92-.78c.32-.1.66-.18,1-.25a10.65,10.65,0,0,1,3.94,0,10.43,10.43,0,0,1,3,1,10.28,10.28,0,0,1,.91.53,10.76,10.76,0,0,1,1.67,1.37l36.21,36.2a10.65,10.65,0,0,1,0,15A12.06,12.06,0,0,1,86,63.53L33.69,81.68a12.15,12.15,0,0,1-4,.68,11.89,11.89,0,0,1-8-3.09h0c-.33-.3-.65-.62-1-1L11.39,69a18,18,0,0,0,3.34,11.93,18.3,18.3,0,0,0,21,6.75L88.11,69.49A18.4,18.4,0,0,0,95,65.15a17,17,0,0,0,0-24L58.83,5a16.94,16.94,0,0,0-24,0,18.4,18.4,0,0,0-4.38,7l-3.35,9.65Z"/><path class="a" d="M30.08,48.58c0-5.17,4-8.87,9.31-8.87a8.85,8.85,0,0,1,7.06,3L43.9,45.1a5.5,5.5,0,0,0-4.31-2,5.49,5.49,0,1,0,0,11,5.47,5.47,0,0,0,4.31-2l2.55,2.35a8.8,8.8,0,0,1-7.08,3.07C34.05,57.45,30.08,53.75,30.08,48.58Z"/><path class="a" d="M62.15,54v3.18H48.87V40h13v3.19h-9v3.72h8V50h-8v4Z"/></svg>