<svg version="1.1" id="Layer_1" x="0px" y="0px" viewBox="0 0 308.6 362.5" style="enable-background:new 0 0 308.6 362.5;">
<path style="fill:none;stroke:#F87C3B;stroke-width:1.5;stroke-linecap:round;stroke-linejoin:round;stroke-miterlimit:10;" d="
	M144.5,102.2c2.7-1.1,7,12.4,8,14.9c-3.1,1.5-6.1,3-9.3,4.4c-1.6,0.7-3.1,1.4-4.7,2.1c-0.7,0.3-4,2.2-4.7,2
	c-1.5-0.6-2.9-5.4-3.6-6.7c-0.9-2-3.3-7.9-3.3-7.9s6.1-3.6,8.2-4.6C138.3,104.8,141.4,103.5,144.5,102.2z"/>
<path style="fill:none;stroke:#F87C3B;stroke-width:1.5;stroke-linecap:round;stroke-linejoin:round;stroke-miterlimit:10;" d="
	M128.4,108.6c-0.7-2.5-3.2-4.2-3.5-6.8c-0.3-2.6,1.7-4.7,3.9-5.9c5.5-2.8,9.5,2.5,10.9,7.3"/>
<path style="fill:none;stroke:#F87C3B;stroke-width:1.5;stroke-linecap:round;stroke-linejoin:round;stroke-miterlimit:10;" d="
	M126.7,110.7c-1.6-1.7-2.5-4-3.2-6.3c-0.6-1.8-1.1-3.7-0.6-5.5c0.3-1.4,1.2-2.7,2.3-3.6c1.1-0.9,2.4-1.6,3.7-2.1
	c1.8-0.7,3.9-1.2,5.7-0.6c0.9,0.3,1.7,0.9,2.4,1.5c2.5,2.2,4.2,5.3,4.9,8.6"/>
<path style="fill:none;stroke:#F87C3B;stroke-width:1.5;stroke-linecap:round;stroke-linejoin:round;stroke-miterlimit:10;" d="
	M139.4,116.7c0.7,1.3,3.2,1.5,3.8-0.1c0.4-1-1.5-4-2.2-4.6c-1.3-1-3.1-1.1-3.4,0.7C137.5,114.1,138.9,115.7,139.4,116.7z"/>
<path style="fill:none;stroke:#F87C3B;stroke-width:1.5;stroke-linecap:round;stroke-linejoin:round;stroke-miterlimit:10;" d="
	M127.1,110.7c-0.1,1.5-1.6,2.2-2,3.5c-0.7,1.9,0.7,3.6,1.6,5.2c1.6,2.9,2.7,8.6,5.7,10.2c3.3,1.7,16-4.8,18.9-6.2
	c1.9-0.9,2.4-3.5,1.8-6"/>
<path style="fill:none;stroke:#F87C3B;stroke-width:1.5;stroke-linecap:round;stroke-linejoin:round;stroke-miterlimit:10;" d="
	M134.1,125.6c-0.2,0.9-0.5,1.9-0.7,2.8"/>
<path style="fill:none;stroke:#F3465E;stroke-width:1.5;stroke-linecap:round;stroke-linejoin:round;stroke-miterlimit:10;" d="
	M118.5,49.4c0-1.1-0.2-2.2-0.4-3.2c-1.8-7.5-9.3-12.1-16.7-10.3c-7.4,1.8-11.9,9.3-10.1,16.8c0.9,3.6,2.9,6.4,5.7,8.3
	c1.7,1.1,3,2.9,3.4,4.9c0,0,0,0,0,0c0.4,1.5,0.5,3.1,0.9,4.7c0.2,1,0.6,1.9,1.4,2.5c1.6,1.2,4.2,0.7,5.9,0.4
	c1.7-0.3,3.3-0.7,4.9-1.3c1.3-0.5,2.9-1.2,3.5-2.5c0.4-0.9,0.3-1.9,0.1-2.9c-0.4-1.5-1-3-1.3-4.5c-0.2-1-0.4-1.8-0.3-2.8
	c0.1-1,0.5-1.9,0.9-2.8c0.7-1.6,1.4-3.1,1.9-4.8C118.4,51,118.5,50.2,118.5,49.4"/>
<path style="fill:none;stroke:#F3465E;stroke-width:1.5;stroke-linecap:round;stroke-linejoin:round;stroke-miterlimit:10;" d="
	M102.8,73.8c-0.7,0.7-0.7,1.9-0.2,2.8c0.5,0.8,1.5,1.3,2.5,1.5c1,0.1,2,0,3-0.2c1.7-0.3,3.4-0.7,5-1.3c1.4-0.5,3.3-1.1,4.2-2.3
	c0.4-0.5,0.6-1.1,0.5-1.8c-0.1-0.6-0.5-1.2-1.1-1.5"/>
<path style="fill:none;stroke:#F3465E;stroke-width:1.5;stroke-linecap:round;stroke-linejoin:round;stroke-miterlimit:10;" d="
	M103.9,77.5c-0.4,0.7-0.4,1.8,0,2.6c0.5,0.9,1.4,1.4,2.4,1.5c0.9,0.2,1.9,0,2.8-0.2c2.6-0.5,5.1-1.3,7.4-2.6c1-0.6,2-1.5,1.9-2.8
	c0-0.8-0.4-1.6-1.1-2.1"/>
<path style="fill:none;stroke:#F3465E;stroke-width:1.5;stroke-linecap:round;stroke-linejoin:round;stroke-miterlimit:10;" d="
	M105.7,81.4c0.6,1.6,2.3,2.9,4.2,3.1c1.3,0.1,2.7-0.2,3.9-0.6c0.9-0.3,1.8-0.6,2.5-1.2c0.6-0.5,0.9-1.1,1.1-1.8
	c0.2-0.7,0.3-1.4,0.3-2.1"/>
<path style="fill:none;stroke:#F3465E;stroke-width:1.5;stroke-linecap:round;stroke-linejoin:round;stroke-miterlimit:10;" d="
	M104.3,72.4c3-1.8,6.5-2.8,9.9-2.8"/>
<path style="fill:none;stroke:#F3465E;stroke-width:1.5;stroke-linecap:round;stroke-linejoin:round;stroke-miterlimit:10;" d="
	M107,71c0.4-2.6-0.4-5.3-1.4-7.7c-1.1-2.8-2.5-5.4-4.2-7.9"/>
<path style="fill:none;stroke:#F3465E;stroke-width:1.5;stroke-linecap:round;stroke-linejoin:round;stroke-miterlimit:10;" d="
	M111.4,53.9c0-0.6-0.3-1.3-0.7-1.4"/>
<path style="fill:none;stroke:#F3465E;stroke-width:1.5;stroke-linecap:round;stroke-linejoin:round;stroke-miterlimit:10;" d="
	M106.4,54.6c0.2,0.4,0.7,0.6,1.2,0.8c0.6,0.1,1.3,0,2-0.1c0.4-0.1,0.9-0.2,1.2-0.4c0.3-0.2,0.6-0.5,0.6-0.8"/>
<path style="fill:none;stroke:#F3465E;stroke-width:1.5;stroke-linecap:round;stroke-linejoin:round;stroke-miterlimit:10;" d="
	M107.9,53.7c-0.1-0.2-0.2-0.4-0.4-0.4c-0.3-0.1-0.6,0-0.8,0.2c-0.2,0.2-0.3,0.5-0.3,0.8c0,0.1,0,0.2,0.1,0.4"/>
<path style="fill:none;stroke:#F3465E;stroke-width:1.5;stroke-linecap:round;stroke-linejoin:round;stroke-miterlimit:10;" d="
	M103.6,55.9c0.4,0.7,1.4,1.1,2.2,0.8c0.8-0.2,1.5-0.9,1.8-1.6c0.1-0.3,0.3-0.5,0.2-0.8c0-0.1,0-0.2-0.1-0.3"/>
<path style="fill:none;stroke:#F3465E;stroke-width:1.5;stroke-linecap:round;stroke-linejoin:round;stroke-miterlimit:10;" d="
	M105,55.4c0.1-0.4,0-0.9-0.2-1.2c-0.3-0.4-0.8-0.3-1,0.2c-0.2,0.5-0.3,1.2-0.1,1.7"/>
<path style="fill:none;stroke:#F3465E;stroke-width:1.5;stroke-linecap:round;stroke-linejoin:round;stroke-miterlimit:10;" d="
	M100,56.2c0.1,0.1,0.2,0.2,0.4,0.3c0.3,0.2,0.7,0.3,1.1,0.3c1.1,0.1,2.2-0.2,3-0.8c0.2-0.2,0.5-0.4,0.6-0.6"/>
<path style="fill:none;stroke:#F3465E;stroke-width:1.5;stroke-linecap:round;stroke-linejoin:round;stroke-miterlimit:10;" d="
	M100.8,55.4c-0.4,0-0.7,0.2-0.7,0.4c0,0.1,0,0.2,0.1,0.3"/>
<path style="fill:none;stroke:#F3465E;stroke-width:1.5;stroke-linecap:round;stroke-linejoin:round;stroke-miterlimit:10;" d="
	M110.1,53.2c-0.5,5.5,0.2,11.1,2,16.3"/>
<path style="fill:none;stroke:#F3465E;stroke-width:1.5;stroke-linecap:round;stroke-linejoin:round;stroke-miterlimit:10;" d="
	M94,52.5c-0.9-3.5-0.1-7.5,2.2-10.2c2.3-2.8,5.9-4.3,9.5-3.9"/>
<path style="fill:none;stroke:#F3465E;stroke-width:1.5;stroke-linecap:round;stroke-linejoin:round;stroke-miterlimit:10;" d="
	M103.6,75.9c0.6,0.6,1.4,0.8,2.1,0.7"/>
<path style="fill:none;stroke:#F3465E;stroke-width:1.5;stroke-linecap:round;stroke-linejoin:round;stroke-miterlimit:10;" d="
	M105,78.8c0.4,0.5,0.9,0.7,1.4,0.7"/>
<path style="fill:none;stroke:#F3465E;stroke-width:1.5;stroke-linecap:round;stroke-linejoin:round;stroke-miterlimit:10;" d="
	M108.6,82.3c0.2,0.7,0.5,0.9,0.7,0.5"/>
<path style="fill:none;stroke:#F3465E;stroke-width:1.5;stroke-linecap:round;stroke-linejoin:round;stroke-miterlimit:10;" d="
	M86.6,63.9c0.8-0.8,3.5-3,4.3-3.5"/>
<path style="fill:none;stroke:#F3465E;stroke-width:1.5;stroke-linecap:round;stroke-linejoin:round;stroke-miterlimit:10;" d="
	M83,58.9c0.9-0.5,4.2-1.7,5-2.1"/>
<path style="fill:none;stroke:#F3465E;stroke-width:1.5;stroke-linecap:round;stroke-linejoin:round;stroke-miterlimit:10;" d="
	M80.9,52.5c1.1-0.5,4.7-1,5.7-1.4"/>
<path style="fill:none;stroke:#F3465E;stroke-width:1.5;stroke-linecap:round;stroke-linejoin:round;stroke-miterlimit:10;" d="
	M80.9,44c0.9,0,4.1,0.7,5,0.7"/>
<path style="fill:none;stroke:#F3465E;stroke-width:1.5;stroke-linecap:round;stroke-linejoin:round;stroke-miterlimit:10;" d="
	M83,36.9c0.9,0.4,4.1,2.5,5,2.8"/>
<path style="fill:none;stroke:#F3465E;stroke-width:1.5;stroke-linecap:round;stroke-linejoin:round;stroke-miterlimit:10;" d="
	M88.7,30.5c0.8,0.7,3.5,3.7,4.3,4.3"/>
<path style="fill:none;stroke:#F3465E;stroke-width:1.5;stroke-linecap:round;stroke-linejoin:round;stroke-miterlimit:10;" d="
	M98.6,26.3c0.2,0.9,1.2,4.9,1.4,5.7"/>
<path style="fill:none;stroke:#F3465E;stroke-width:1.5;stroke-linecap:round;stroke-linejoin:round;stroke-miterlimit:10;" d="
	M107.9,25.6c-0.1,1-0.6,4.8-0.7,5.7"/>
<path style="fill:none;stroke:#F3465E;stroke-width:1.5;stroke-linecap:round;stroke-linejoin:round;stroke-miterlimit:10;" d="
	M114.9,27.7c-0.4,0.8-1.8,4.2-2.1,5"/>
<path style="fill:none;stroke:#F3465E;stroke-width:1.5;stroke-linecap:round;stroke-linejoin:round;stroke-miterlimit:10;" d="
	M122,32.7c-0.4,0.5-2.4,3.1-2.8,3.5"/>
<path style="fill:none;stroke:#F3465E;stroke-width:1.5;stroke-linecap:round;stroke-linejoin:round;stroke-miterlimit:10;" d="
	M126.3,39.8c-0.7,0.3-3.6,1.9-4.3,2.1"/>
<path style="fill:none;stroke:#F3465E;stroke-width:1.5;stroke-linecap:round;stroke-linejoin:round;stroke-miterlimit:10;" d="
	M128.4,46.9c-1.3,0.1-5.2,0.6-6.4,0.7"/>
<path style="fill:none;stroke:#F3465E;stroke-width:1.5;stroke-linecap:round;stroke-linejoin:round;stroke-miterlimit:10;" d="
	M127.7,53.2c-0.7-0.1-3.6-0.6-4.3-0.7"/>
<path style="fill:none;stroke:#F6B74B;stroke-width:1.5;stroke-linecap:round;stroke-linejoin:round;stroke-miterlimit:10;" d="
	M117.1,235.5c3.7-10.8,4.8-16.1,8.5-27"/>
<path style="fill:none;stroke:#F6B74B;stroke-width:1.5;stroke-linecap:round;stroke-linejoin:round;stroke-miterlimit:10;" d="
	M117.1,235.4c0.3,0.7,0.9,1.2,1.6,1.5c0.7,0.3,1.8,0,2.5-0.4c3.8-10.8,4.8-15.7,8.7-26.5"/>
<path style="fill:none;stroke:#F6B74B;stroke-width:1.5;stroke-linecap:round;stroke-linejoin:round;stroke-miterlimit:10;" d="
	M117.2,235.5c-0.2,0.8-0.3,1.7,0.1,2.4c0.3,0.7,1.1,1.3,1.8,1.1c0.5-0.1,0.9-0.5,1.1-0.9c0.2-0.4,0.4-1,0.4-1.5"/>
<path style="fill:none;stroke:#F6B74B;stroke-width:1.5;stroke-linecap:round;stroke-linejoin:round;stroke-miterlimit:10;" d="
	M124.9,207.9c1.6,1.4,3.6,2.1,5.7,2.1"/>
<path style="fill:none;stroke:#F6B74B;stroke-width:1.5;stroke-linecap:round;stroke-linejoin:round;stroke-miterlimit:10;" d="
	M124.9,207.9c1.7-4.9,5.2-15.6,6.4-20.6"/>
<path style="fill:none;stroke:#F6B74B;stroke-width:1.5;stroke-linecap:round;stroke-linejoin:round;stroke-miterlimit:10;" d="
	M130.5,210c1.5-5,4.6-16.2,5.7-21.3"/>
<path style="fill:none;stroke:#F6B74B;stroke-width:1.5;stroke-linecap:round;stroke-linejoin:round;stroke-miterlimit:10;" d="
	M133.2,188.9c0.7,0.4,1.5,0.6,2.2,0.5c0.3,0,0.7-0.2,0.8-0.6c0.1-0.3-0.1-0.6-0.3-0.8c-0.7-1-1.8-1.7-2.9-2
	c-0.6-0.1-1.4-0.2-1.7,0.6C130.9,187.7,132.5,188.5,133.2,188.9z"/>
<path style="fill:none;stroke:#F6B74B;stroke-width:1.5;stroke-linecap:round;stroke-linejoin:round;stroke-miterlimit:10;" d="
	M131.3,188.7c-0.6-0.1-1.2,0.2-1.6,0.7c-0.4,0.5-0.6,1.1-0.8,1.6c-1.1,3.6-4.3,12.5-5.4,16.1"/>
<line style="fill:none;stroke:#F6B74B;stroke-width:1.5;stroke-linecap:round;stroke-linejoin:round;stroke-miterlimit:10;" x1="120.6" y1="233.4" x2="128.4" y2="210"/>
<path style="fill:none;stroke:#F6B74B;stroke-width:1.5;stroke-linecap:round;stroke-linejoin:round;stroke-miterlimit:10;" d="
	M128.4,207.9c1.7-5.2,3.6-10.4,5.7-15.6"/>
<path style="fill:none;stroke:#F87C3B;stroke-width:1.5;stroke-linecap:round;stroke-linejoin:round;stroke-miterlimit:10;" d="
	M210,134.9c-13.9-2.2-28.3-4.5-28.3-4.5c-1.9-0.3-3.1-2-2.8-3.9l6.5-40.7c0.3-1.9,2-3.1,3.9-2.8l54.1,8.6c1.9,0.3,3.1,2,2.8,3.9
	l-6.5,40.7c-0.3,1.9-2,3.1-3.9,2.8c0,0-2.9-0.5-7.3-1.1"/>
<path style="fill:none;stroke:#F87C3B;stroke-width:1.5;stroke-linecap:round;stroke-linejoin:round;stroke-miterlimit:10;" d="
	M175.4,91.5c-1.1,0.8-1.5,2.3-1.5,3.7c0,1.4,0.4,2.7,0.7,4.1c2.3,9.2,1.7,19,3.5,28.3c0.3,1.5,0.7,3.1,1.5,4.4"/>
<path style="fill:none;stroke:#F87C3B;stroke-width:1.5;stroke-linecap:round;stroke-linejoin:round;stroke-miterlimit:10;" d="
	M177.4,90.8c2.3-0.9,4.7-1.4,7.1-1.4"/>
<path style="fill:none;stroke:#F87C3B;stroke-width:1.5;stroke-linecap:round;stroke-linejoin:round;stroke-miterlimit:10;" d="
	M196.5,133.3c-9.6,1.2-17.3,2.2-17.3,2.2c-1.8,0.2-3.5-1.1-3.8-2.9l-5.1-40.7c-0.2-1.9,1.1-3.5,2.9-3.8c0,0,4.8-0.6,11.6-1.5"/>
<path style="fill:none;stroke:#F87C3B;stroke-width:1.5;stroke-linecap:round;stroke-linejoin:round;stroke-miterlimit:10;" d="
	M201.5,85.1c12.3-1.5,25.5-3.5,25.5-3.5c1.8-0.2,3.5,1.1,3.8,2.9c0,0,0.2,1.6,0.5,4.2"/>
<path style="fill:none;stroke:#F87C3B;stroke-width:1.5;stroke-linecap:round;stroke-linejoin:round;stroke-miterlimit:10;" d="
	M188.7,93.7c0.4-2.5,0.6-4.1,0.6-4.1c0.3-1.9,2-3.3,3.9-3c0,0,1.2,0.2,3.3,0.6"/>
<path style="fill:none;stroke:#F87C3B;stroke-width:1.5;stroke-linecap:round;stroke-linejoin:round;stroke-miterlimit:10;" d="
	M241.2,101.5c-1,6.4-3.1,19.3-4.3,26.2"/>
<path style="fill:none;stroke:#F87C3B;stroke-width:1.5;stroke-linecap:round;stroke-linejoin:round;stroke-miterlimit:10;" d="
	M236.2,130.5c-0.2,1-0.2,1.6-0.2,1.6c-0.1,0.8-0.6,1.5-1.2,2"/>
<path style="fill:none;stroke:#F87C3B;stroke-width:1.5;stroke-linecap:round;stroke-linejoin:round;stroke-miterlimit:10;" d="
	M212.8,132c-8.1-1.3-16.8-2.7-22-3.5"/>
<path style="fill:none;stroke:#F87C3B;stroke-width:1.5;stroke-linecap:round;stroke-linejoin:round;stroke-miterlimit:10;" d="
	M188.7,127.7c-1.4-0.2-2.2-0.3-2.2-0.3c-1.8-0.3-3-1.8-2.7-3.4c0,0,0-0.2,0.1-0.5"/>
<path style="fill:none;stroke:#F87C3B;stroke-width:1.5;stroke-linecap:round;stroke-linejoin:round;stroke-miterlimit:10;" d="
	M184.5,120.6c0.8-5.4,2.5-16.7,3.5-24.1"/>
<path style="fill:none;stroke:#F87C3B;stroke-width:1.5;stroke-linecap:round;stroke-linejoin:round;stroke-miterlimit:10;" d="
	M206.4,94.4c6.1,0.9,12.3,1.9,18.4,2.8"/>
<path style="fill:none;stroke:#F87C3B;stroke-width:1.5;stroke-linecap:round;stroke-linejoin:round;stroke-miterlimit:10;" d="
	M204.3,107.1c6.1,1.2,12.3,2.4,18.4,3.5"/>
<path style="fill:none;stroke:#F87C3B;stroke-width:1.5;stroke-linecap:round;stroke-linejoin:round;stroke-miterlimit:10;" d="
	M200.8,111.4c8,1.2,16.1,2.4,24.1,3.5"/>
<path style="fill:none;stroke:#F87C3B;stroke-width:1.5;stroke-linecap:round;stroke-linejoin:round;stroke-miterlimit:10;" d="
	M198.6,97.2c6.2,1,27.8,4.6,34,5.7"/>
<path style="fill:none;stroke:#F87C3B;stroke-width:1.5;stroke-linecap:round;stroke-linejoin:round;stroke-miterlimit:10;" d="
	M230.3,125.3c-1.9,6.8-12.1,3.7-10.2-3.1C222.1,115.5,232.2,118.6,230.3,125.3z"/>
<path style="fill:none;stroke:#F87C3B;stroke-width:1.5;stroke-linecap:round;stroke-linejoin:round;stroke-miterlimit:10;" d="
	M228.3,124.7c-1.2,4.1-7.2,2.2-6.1-1.8C223.3,118.8,229.4,120.7,228.3,124.7z"/>
<path style="fill:none;stroke:#F87C3B;stroke-width:1.5;stroke-linecap:round;stroke-linejoin:round;stroke-miterlimit:10;" d="
	M220.5,125.6c-2.6,3.1-5.4,6.1-8.4,8.9c2.2-0.3,4.5-0.8,6.6-1.5c-0.3,2.3-0.1,4.6,0.5,6.8c2.2-3.6,4.4-7.3,6.4-11.1"/>
<path style="fill:none;stroke:#F87C3B;stroke-width:1.5;stroke-linecap:round;stroke-linejoin:round;stroke-miterlimit:10;" d="
	M224.2,131.7c0.5,2.4,1,4.9,1.3,7.4c1-1.9,1.9-4,2.5-6.1c1.6,1.4,3.4,2.6,5.5,3.2c-1.2-2.9-2.5-5.7-3.8-8.5"/>
<path style="fill:none;stroke:#F24360;stroke-width:1.5;stroke-linecap:round;stroke-linejoin:round;stroke-miterlimit:10;" d="
	M161.6,55.5l-11.1-35.7c-0.6-1.8,0.4-3.7,2.2-4.3l46.7-14.6c1.8-0.6,3.7,0.4,4.3,2.2l12.5,40.2c0.6,1.8-0.4,3.7-2.2,4.3l-45.4,14.2
	c-0.1,0,0.1,0,0,0l-5.9,1.9c-2.2,0.7-4.5-0.5-5.2-2.7l-9.1-29.2c-0.5-1.5,0.4-3.2,1.9-3.6l2.1-0.7"/>
<line style="fill:none;stroke:#F24360;stroke-width:1.5;stroke-linecap:round;stroke-linejoin:round;stroke-miterlimit:10;" x1="163.9" y1="18.5" x2="166.7" y2="26.3"/>
<line style="fill:none;stroke:#F24360;stroke-width:1.5;stroke-linecap:round;stroke-linejoin:round;stroke-miterlimit:10;" x1="163.9" y1="18.5" x2="172.4" y2="24.9"/>
<line style="fill:none;stroke:#F24360;stroke-width:1.5;stroke-linecap:round;stroke-linejoin:round;stroke-miterlimit:10;" x1="169.6" y1="16.4" x2="172.4" y2="24.9"/>
<line style="fill:none;stroke:#F24360;stroke-width:1.5;stroke-linecap:round;stroke-linejoin:round;stroke-miterlimit:10;" x1="172.4" y1="15.6" x2="175.2" y2="23.4"/>
<line style="fill:none;stroke:#F24360;stroke-width:1.5;stroke-linecap:round;stroke-linejoin:round;stroke-miterlimit:10;" x1="172.4" y1="15.6" x2="178.1" y2="14.2"/>
<line style="fill:none;stroke:#F24360;stroke-width:1.5;stroke-linecap:round;stroke-linejoin:round;stroke-miterlimit:10;" x1="173.8" y1="19.2" x2="177.4" y2="18.5"/>
<line style="fill:none;stroke:#F24360;stroke-width:1.5;stroke-linecap:round;stroke-linejoin:round;stroke-miterlimit:10;" x1="175.2" y1="23.4" x2="180.2" y2="22"/>
<line style="fill:none;stroke:#F24360;stroke-width:1.5;stroke-linecap:round;stroke-linejoin:round;stroke-miterlimit:10;" x1="179.5" y1="13.5" x2="183.7" y2="21.3"/>
<line style="fill:none;stroke:#F24360;stroke-width:1.5;stroke-linecap:round;stroke-linejoin:round;stroke-miterlimit:10;" x1="183" y1="12.1" x2="183.7" y2="21.3"/>
<line style="fill:none;stroke:#F24360;stroke-width:1.5;stroke-linecap:round;stroke-linejoin:round;stroke-miterlimit:10;" x1="183" y1="12.1" x2="188" y2="19.9"/>
<line style="fill:none;stroke:#F24360;stroke-width:1.5;stroke-linecap:round;stroke-linejoin:round;stroke-miterlimit:10;" x1="187.3" y1="10.7" x2="188" y2="19.9"/>
<path style="fill:none;stroke:#F24360;stroke-width:1.5;stroke-linecap:round;stroke-linejoin:round;stroke-miterlimit:10;" d="
	M195.3,9.8c-2-1.2-5-0.3-5.8,1.7c1,3.7,7.1-0.1,7.8,4.1c-0.9,2-3.9,2.9-5.8,1.7"/>
<path style="fill:none;stroke:#F24360;stroke-width:1.5;stroke-linecap:round;stroke-linejoin:round;stroke-miterlimit:10;" d="
	M161.8,32.7c14-4.5,27.9-9,41.8-13.5"/>
<path style="fill:none;stroke:#F24360;stroke-width:1.5;stroke-linecap:round;stroke-linejoin:round;stroke-miterlimit:10;" d="
	M183,32c7.6-2.4,15.1-4.7,22.7-7.1"/>
<path style="fill:none;stroke:#F24360;stroke-width:1.5;stroke-linecap:round;stroke-linejoin:round;stroke-miterlimit:10;" d="
	M183.7,35.5c7.6-2.4,15.1-4.7,22.7-7.1"/>
<path style="fill:none;stroke:#F24360;stroke-width:1.5;stroke-linecap:round;stroke-linejoin:round;stroke-miterlimit:10;" d="
	M185.2,39.8c7.6-2.6,15.1-5.2,22.7-7.8"/>
<path style="fill:none;stroke:#F24360;stroke-width:1.5;stroke-linecap:round;stroke-linejoin:round;stroke-miterlimit:10;" d="
	M185.9,42.6c7.8-2.4,15.6-4.7,23.4-7.1"/>
<path style="fill:none;stroke:#F24360;stroke-width:1.5;stroke-linecap:round;stroke-linejoin:round;stroke-miterlimit:10;" d="
	M168.9,52.5c13.7-4.3,27.4-8.5,41.1-12.8"/>
<path style="fill:none;stroke:#F24360;stroke-width:1.5;stroke-linecap:round;stroke-linejoin:round;stroke-miterlimit:10;" d="
	M170.3,56.1c13.7-4.3,27.4-8.5,41.1-12.8"/>
<path style="fill:none;stroke:#F24360;stroke-width:1.5;stroke-linecap:round;stroke-linejoin:round;stroke-miterlimit:10;" d="
	M179.5,44.6l-11.4,3.6c-0.5,0.2-1.1-0.1-1.3-0.7l-2.9-9.2c-0.2-0.5,0.1-1.1,0.7-1.3l11.4-3.6c0.5-0.2,1.1,0.1,1.3,0.7l2.9,9.2
	C180.3,43.9,180,44.4,179.5,44.6z"/>
<path style="fill:none;stroke:#F24360;stroke-width:1.5;stroke-linecap:round;stroke-linejoin:round;stroke-miterlimit:10;" d="
	M150.4,29.1c3.1,9.7,6.1,19.4,9.2,29.1"/>
<path style="fill:none;stroke:#F24360;stroke-width:1.5;stroke-linecap:round;stroke-linejoin:round;stroke-miterlimit:10;" d="
	M153.2,29.1c-0.4,0.5-0.9,1-1.4,1.4"/>
<path style="fill:none;stroke:#F24360;stroke-width:1.5;stroke-linecap:round;stroke-linejoin:round;stroke-miterlimit:10;" d="
	M154,31.2c-0.4,0.7-0.9,1.4-1.4,2.1"/>
<path style="fill:none;stroke:#F24360;stroke-width:1.5;stroke-linecap:round;stroke-linejoin:round;stroke-miterlimit:10;" d="
	M154.7,34.1c-0.4,0.7-0.9,1.4-1.4,2.1"/>
<path style="fill:none;stroke:#F24360;stroke-width:1.5;stroke-linecap:round;stroke-linejoin:round;stroke-miterlimit:10;" d="
	M156.1,37.6c-0.5,0.7-0.9,1.4-1.4,2.1"/>
<path style="fill:none;stroke:#F24360;stroke-width:1.5;stroke-linecap:round;stroke-linejoin:round;stroke-miterlimit:10;" d="
	M156.8,40.5c-0.5,0.7-0.9,1.4-1.4,2.1"/>
<path style="fill:none;stroke:#F24360;stroke-width:1.5;stroke-linecap:round;stroke-linejoin:round;stroke-miterlimit:10;" d="
	M158.2,44.7c-0.5,0.5-0.9,0.9-1.4,1.4"/>
<path style="fill:none;stroke:#F24360;stroke-width:1.5;stroke-linecap:round;stroke-linejoin:round;stroke-miterlimit:10;" d="
	M158.9,48.3c-0.5,0.7-0.9,1.4-1.4,2.1"/>
<path style="fill:none;stroke:#F24360;stroke-width:1.5;stroke-linecap:round;stroke-linejoin:round;stroke-miterlimit:10;" d="
	M160.3,51.8c-0.5,0.4-1,0.9-1.4,1.4"/>
<path style="fill:none;stroke:#F24360;stroke-width:1.5;stroke-linecap:round;stroke-linejoin:round;stroke-miterlimit:10;" d="
	M161,53.9c-0.4,0.7-0.9,1.4-1.4,2.1"/>
<path style="fill:none;stroke:#F24360;stroke-width:1.5;stroke-linecap:round;stroke-linejoin:round;stroke-miterlimit:10;" d="
	M12.5,57.5c-1.8,3.6-3.2,6.2-3.2,6.2c2.6,9.9,5.7,17.9,8.2,27.8l36.4-12.9c-2.6-9.9-4.5-16.1-7.1-26c0,0-1.8-0.9-4.4-2.2"/>
<path style="fill:none;stroke:#F24360;stroke-width:1.5;stroke-linecap:round;stroke-linejoin:round;stroke-miterlimit:10;" d="
	M19.2,88c10.4-3.6,20.8-7.1,31.2-10.6"/>
<path style="fill:none;stroke:#F24360;stroke-width:1.5;stroke-linecap:round;stroke-linejoin:round;stroke-miterlimit:10;" d="
	M45.4,58.9c1.7,4.7,3.3,9.5,5,14.2"/>
<path style="fill:none;stroke:#F24360;stroke-width:1.5;stroke-linecap:round;stroke-linejoin:round;stroke-miterlimit:10;" d="
	M13.5,68.8c1.8,4,3.5,8,5,12.1"/>
<path style="fill:none;stroke:#F24360;stroke-width:1.5;stroke-linecap:round;stroke-linejoin:round;stroke-miterlimit:10;" d="
	M20.6,88c0.5,0.5,0.9,0.9,1.4,1.4"/>
<path style="fill:none;stroke:#F24360;stroke-width:1.5;stroke-linecap:round;stroke-linejoin:round;stroke-miterlimit:10;" d="
	M23.4,86.6c0.5,0.7,1,1.4,1.4,2.1"/>
<path style="fill:none;stroke:#F24360;stroke-width:1.5;stroke-linecap:round;stroke-linejoin:round;stroke-miterlimit:10;" d="
	M26.3,85.9c0.3,0.7,0.5,1.4,0.7,2.1"/>
<path style="fill:none;stroke:#F24360;stroke-width:1.5;stroke-linecap:round;stroke-linejoin:round;stroke-miterlimit:10;" d="
	M28.4,85.2c0.2,0.7,0.5,1.4,0.7,2.1"/>
<path style="fill:none;stroke:#F24360;stroke-width:1.5;stroke-linecap:round;stroke-linejoin:round;stroke-miterlimit:10;" d="
	M31.2,84.4c0.2,0.7,0.5,1.4,0.7,2.1"/>
<path style="fill:none;stroke:#F24360;stroke-width:1.5;stroke-linecap:round;stroke-linejoin:round;stroke-miterlimit:10;" d="
	M34.1,83c0.2,1,0.4,1.9,0.7,2.8"/>
<path style="fill:none;stroke:#F24360;stroke-width:1.5;stroke-linecap:round;stroke-linejoin:round;stroke-miterlimit:10;" d="
	M36.2,82.3c0.5,0.7,0.9,1.4,1.4,2.1"/>
<path style="fill:none;stroke:#F24360;stroke-width:1.5;stroke-linecap:round;stroke-linejoin:round;stroke-miterlimit:10;" d="
	M39.8,80.9c0.5,0.9,0.9,1.9,1.4,2.8"/>
<path style="fill:none;stroke:#F24360;stroke-width:1.5;stroke-linecap:round;stroke-linejoin:round;stroke-miterlimit:10;" d="
	M42.6,80.2c0.5,0.7,0.9,1.4,1.4,2.1"/>
<path style="fill:none;stroke:#F24360;stroke-width:1.5;stroke-linecap:round;stroke-linejoin:round;stroke-miterlimit:10;" d="
	M45.4,78.8c0.5,0.7,1,1.4,1.4,2.1"/>
<path style="fill:none;stroke:#F24360;stroke-width:1.5;stroke-linecap:round;stroke-linejoin:round;stroke-miterlimit:10;" d="
	M49,77.4c0.5,0.7,0.9,1.4,1.4,2.1"/>
<path style="fill:none;stroke:#F24360;stroke-width:1.5;stroke-linecap:round;stroke-linejoin:round;stroke-miterlimit:10;" d="
	M27,43.2c-2.9-1.6-5-2.7-5-2.7s-1.2,2.4-2.8,5.7"/>
<polyline style="fill:none;stroke:#F24360;stroke-width:1.5;stroke-linecap:round;stroke-linejoin:round;stroke-miterlimit:10;" points="
	10,64.3 33.7,71 46.1,53.2 "/>
<line style="fill:none;stroke:#F24360;stroke-width:1.5;stroke-linecap:round;stroke-linejoin:round;stroke-miterlimit:10;" x1="17.8" y1="90.8" x2="27" y2="70.3"/>
<line style="fill:none;stroke:#F24360;stroke-width:1.5;stroke-linecap:round;stroke-linejoin:round;stroke-miterlimit:10;" x1="35.5" y1="68.1" x2="53.2" y2="78.1"/>
<path style="fill:none;stroke:#F24360;stroke-width:1.5;stroke-linecap:round;stroke-linejoin:round;stroke-miterlimit:10;" d="
	M15.9,66c-1.6-5.8-3.3-11.6-5.2-17.3l0.2-0.1c9.9-3,17.8-5.1,27.7-8.1c1.6,4.5,3.8,10.6,5.5,15.1"/>
<path style="fill:none;stroke:#F24360;stroke-width:1.5;stroke-linecap:round;stroke-linejoin:round;stroke-miterlimit:10;" d="
	M17.1,53.9c6.1-1.9,12.3-3.8,18.4-5.7"/>
<path style="fill:none;stroke:#F24360;stroke-width:1.5;stroke-linecap:round;stroke-linejoin:round;stroke-miterlimit:10;" d="
	M22.7,58.9c4.3-1.2,8.5-2.4,12.8-3.5"/>
<rect x="260.7" y="116.5" transform="matrix(0.9719 -0.2352 0.2352 0.9719 -24.6515 66.9836)" style="fill:none;stroke:#F87C3B;stroke-width:1.5;stroke-linecap:round;stroke-linejoin:round;stroke-miterlimit:10;" width="15.4" height="40.7"/>
<polygon style="fill:none;stroke:#F87C3B;stroke-width:1.5;stroke-linecap:round;stroke-linejoin:round;stroke-miterlimit:10;" points="
	298.6,101.5 271.8,115.6 256.8,119.2 271.3,111.6 271.9,113.2 273.7,112.3 273,110.6 280.6,106.7 281.2,108.2 282.9,107.2
	282.3,105.7 283.7,105 "/>
<polygon style="fill:none;stroke:#F87C3B;stroke-width:1.5;stroke-linecap:round;stroke-linejoin:round;stroke-miterlimit:10;" points="
	307.9,140.9 281.2,155.4 271.7,115.9 298.4,101.5 "/>
<line style="fill:none;stroke:#F87C3B;stroke-width:1.5;stroke-linecap:round;stroke-linejoin:round;stroke-miterlimit:10;" x1="273.8" y1="156.8" x2="263.9" y2="117.1"/>
<line style="fill:none;stroke:#F87C3B;stroke-width:1.5;stroke-linecap:round;stroke-linejoin:round;stroke-miterlimit:10;" x1="263.9" y1="117.1" x2="289.4" y2="103.6"/>
<path style="fill:none;stroke:#F87C3B;stroke-width:1.5;stroke-linecap:round;stroke-linejoin:round;stroke-miterlimit:10;" d="
	M283,106.8l-1.8,1l-0.6-1.5l-1.9-4.6l-7.6,3.8l1.9,4.7l0.7,1.6l-1.8,1l-0.7-1.7l-2.3-5.8c-0.2-0.5,0-1,0.5-1.2l9.4-4.7
	c0.3-0.1,0.5-0.1,0.8,0c0.3,0.1,0.5,0.3,0.6,0.6l2.2,5.4L283,106.8z"/>
<polygon style="fill:none;stroke:#F87C3B;stroke-width:1.5;stroke-linecap:round;stroke-linejoin:round;stroke-miterlimit:10;" points="
	265.3,154.7 269.6,158.1 266.4,158.9 "/>
<polygon style="fill:none;stroke:#F87C3B;stroke-width:1.5;stroke-linecap:round;stroke-linejoin:round;stroke-miterlimit:10;" points="
	277.4,156.1 280.2,151.8 284.5,153.3 281,155.2 "/>
<polygon style="fill:none;stroke:#F87C3B;stroke-width:1.5;stroke-linecap:round;stroke-linejoin:round;stroke-miterlimit:10;" points="
	307.2,137.6 305.7,141.9 307.9,140.7 "/>
<polygon style="fill:none;stroke:#F87C3B;stroke-width:1.5;stroke-linecap:round;stroke-linejoin:round;stroke-miterlimit:10;" points="
	295.8,102.7 299.4,103.6 298.7,101.5 "/>
<polygon style="fill:none;stroke:#F87C3B;stroke-width:1.5;stroke-linecap:round;stroke-linejoin:round;stroke-miterlimit:10;" points="
	275.2,113.5 272.4,119.2 268.2,116.4 271.5,115.6 "/>
<polygon style="fill:none;stroke:#F87C3B;stroke-width:1.5;stroke-linecap:round;stroke-linejoin:round;stroke-miterlimit:10;" points="
	257.6,122.7 259.6,118.5 256.8,119.2 "/>
<path style="fill:none;stroke:#F87C3B;stroke-width:1.5;stroke-linecap:round;stroke-linejoin:round;stroke-miterlimit:10;" d="
	M55.9,103.7c1.8-1.4,3.5-0.7,4.1,0.4c0.5,0.8,0.5,2.5-0.6,3.6c-1.3,1.2-3.2,1.4-4.1,0.2C54.3,106.6,54.4,104.7,55.9,103.7z"/>
<path style="fill:none;stroke:#F87C3B;stroke-width:1.5;stroke-linecap:round;stroke-linejoin:round;stroke-miterlimit:10;" d="
	M82.7,89.5c2.1,0.5,2.6,2.1,2.4,3.5c-0.2,1.3-1.4,2.2-2.8,2.1c-1.6-0.1-2.9-1.2-2.8-3.1C79.5,90.4,81,89.1,82.7,89.5z"/>
<path style="fill:none;stroke:#F87C3B;stroke-width:1.5;stroke-linecap:round;stroke-linejoin:round;stroke-miterlimit:10;" d="
	M104.3,98.4c1.8,1.3,1.6,2.9,1,4.1c-0.6,1-2.1,1.4-3.4,0.7c-1.5-0.8-2.2-2.2-1.5-3.9C101,98,102.9,97.4,104.3,98.4z"/>
<path style="fill:none;stroke:#F87C3B;stroke-width:1.5;stroke-linecap:round;stroke-linejoin:round;stroke-miterlimit:10;" d="
	M58.9,108c5.3,8.6,9.3,24.7,10,26.5c0.4,1,24.4-0.2,24.5-1.4c0.1-1.3,4.3-23.3,8.1-29.4"/>
<path style="fill:none;stroke:#F87C3B;stroke-width:1.5;stroke-linecap:round;stroke-linejoin:round;stroke-miterlimit:10;" d="
	M60.3,106.1c2.5,0.5,12.2,6,13.9,8.1C75,108,79,97.6,80.9,94.4"/>
<path style="fill:none;stroke:#F87C3B;stroke-width:1.5;stroke-linecap:round;stroke-linejoin:round;stroke-miterlimit:10;" d="
	M82.3,95.1c-0.2,1.5,3.4,15.6,4.6,17.7c2.2-3.7,10.7-9.2,13.8-10.6"/>
<path style="fill:none;stroke:#F87C3B;stroke-width:1.5;stroke-linecap:round;stroke-linejoin:round;stroke-miterlimit:10;" d="
	M68.1,132c3.5-0.4,22.7-1.3,25.5-1.4"/>
<path style="fill:none;stroke:#F6B74B;stroke-width:1.5;stroke-linecap:round;stroke-linejoin:round;stroke-miterlimit:10;" d="
	M63.9,353.3c1-1.2,1.9-2.3,2.8-3.5"/>
<path style="fill:none;stroke:#F6B74B;stroke-width:1.5;stroke-linecap:round;stroke-linejoin:round;stroke-miterlimit:10;" d="
	M72.4,343.3c0.7-0.7,1.4-1.4,2.1-2.1"/>
<path style="fill:none;stroke:#F6B74B;stroke-width:1.5;stroke-linecap:round;stroke-linejoin:round;stroke-miterlimit:10;" d="
	M78.3,337c9-11.8,16.4-24.8,21.4-38.8c6.1-17.1,10.8-40.3,4.4-58c-2.7-7.6-10.1-15.2-19-12.7c-8.3,2.3-12.3,13.5-9.8,21.1
	c2.5,7.9,13.2,13.1,19.5,6c6.4-7.2-3.9-19.8-10.5-11.8"/>
<path style="fill:none;stroke:#F6B74B;stroke-width:1.5;stroke-linecap:round;stroke-linejoin:round;stroke-miterlimit:10;" d="
	M73.1,361.8c1.5-0.9,2.9-1.9,4.3-2.8"/>
<path style="fill:none;stroke:#F6B74B;stroke-width:1.5;stroke-linecap:round;stroke-linejoin:round;stroke-miterlimit:10;" d="
	M80.9,355.4c0.7-0.7,1.4-1.4,2.1-2.1"/>
<path style="fill:none;stroke:#F6B74B;stroke-width:1.5;stroke-linecap:round;stroke-linejoin:round;stroke-miterlimit:10;" d="
	M88,347.6c19.7-21.8,31.9-50.6,50.2-73.2c4.8-6,11.5-11.7,19.7-11.2c7.2,0.5,13,6.8,12.2,14.1c-0.8,7.5-9.7,14.1-17.1,10.4
	c-7.6-3.8-3.5-16.9,3.9-12.2"/>
<path style="fill:none;stroke:#F6B74B;stroke-width:1.5;stroke-linecap:round;stroke-linejoin:round;stroke-miterlimit:10;" d="
	M67.4,358.2c27.8-23.7,50-70.3,55.6-88.8c2.3-7.6,4.4-15.7,9.6-21.8c3.5-4.1,11.1-8.8,15.3-2.9c3.2,4.5-1,13.5-6,15.2
	c-8,2.8-8-9,0.8-9.3"/>
<path style="fill:none;stroke:#F6B74B;stroke-width:1.5;stroke-linecap:round;stroke-linejoin:round;stroke-miterlimit:10;" d="
	M203,197.4l-5.7-23.4c-0.6-2.4,0.9-4.8,3.3-5.4l25.1-6c2.4-0.6,4.8,0.9,5.4,3.3l5.7,23.4c0.6,2.4-0.9,4.8-3.3,5.4l-25.1,6
	C206,201.2,203.6,199.8,203,197.4z"/>
<path style="fill:none;stroke:#F6B74B;stroke-width:1.5;stroke-linecap:round;stroke-linejoin:round;stroke-miterlimit:10;" d="
	M211.4,189.8c0,1.4-1,2.5-2.1,2.5c-1.2,0-2.1-1.1-2.1-2.5c0-1.4,1-2.5,2.1-2.5C210.5,187.3,211.4,188.4,211.4,189.8z"/>
<path style="fill:none;stroke:#F6B74B;stroke-width:1.5;stroke-linecap:round;stroke-linejoin:round;stroke-miterlimit:10;" d="
	M206.4,175.9c0,1.2-1,2.1-2.1,2.1c-1.2,0-2.1-1-2.1-2.1c0-1.2,1-2.1,2.1-2.1C205.5,173.8,206.4,174.8,206.4,175.9z"/>
<circle style="fill:none;stroke:#F6B74B;stroke-width:1.5;stroke-linecap:round;stroke-linejoin:round;stroke-miterlimit:10;" cx="227" cy="183.7" r="2.1"/>
<path style="fill:none;stroke:#F6B74B;stroke-width:1.5;stroke-linecap:round;stroke-linejoin:round;stroke-miterlimit:10;" d="
	M227.7,171.3c0,1.4-1.1,2.5-2.5,2.5c-1.4,0-2.5-1.1-2.5-2.5c0-1.4,1.1-2.5,2.5-2.5C226.6,168.9,227.7,170,227.7,171.3z"/>
<path style="fill:none;stroke:#F6B74B;stroke-width:1.5;stroke-linecap:round;stroke-linejoin:round;stroke-miterlimit:10;" d="
	M219.9,179.1c0,1.4-1.1,2.5-2.5,2.5c-1.4,0-2.5-1.1-2.5-2.5c0-1.4,1.1-2.5,2.5-2.5C218.8,176.7,219.9,177.8,219.9,179.1z"/>
<circle style="fill:none;stroke:#F6B74B;stroke-width:1.5;stroke-linecap:round;stroke-linejoin:round;stroke-miterlimit:10;" cx="219.2" cy="191.5" r="2.1"/>
<line style="fill:none;stroke:#F6B74B;stroke-width:1.5;stroke-linecap:round;stroke-linejoin:round;stroke-miterlimit:10;" x1="200.8" y1="162.5" x2="203.6" y2="173.8"/>
<line style="fill:none;stroke:#F6B74B;stroke-width:1.5;stroke-linecap:round;stroke-linejoin:round;stroke-miterlimit:10;" x1="201.5" y1="175.9" x2="193" y2="178.1"/>
<line style="fill:none;stroke:#F6B74B;stroke-width:1.5;stroke-linecap:round;stroke-linejoin:round;stroke-miterlimit:10;" x1="215" y1="180.2" x2="195.1" y2="184.5"/>
<line style="fill:none;stroke:#F6B74B;stroke-width:1.5;stroke-linecap:round;stroke-linejoin:round;stroke-miterlimit:10;" x1="219.2" y1="179.5" x2="224.9" y2="183"/>
<line style="fill:none;stroke:#F6B74B;stroke-width:1.5;stroke-linecap:round;stroke-linejoin:round;stroke-miterlimit:10;" x1="216.4" y1="176.7" x2="212.1" y2="159.6"/>
<line style="fill:none;stroke:#F6B74B;stroke-width:1.5;stroke-linecap:round;stroke-linejoin:round;stroke-miterlimit:10;" x1="210" y1="192.3" x2="213.5" y2="207.2"/>
<line style="fill:none;stroke:#F6B74B;stroke-width:1.5;stroke-linecap:round;stroke-linejoin:round;stroke-miterlimit:10;" x1="227.7" y1="185.9" x2="231.3" y2="201.5"/>
<line style="fill:none;stroke:#F6B74B;stroke-width:1.5;stroke-linecap:round;stroke-linejoin:round;stroke-miterlimit:10;" x1="229.1" y1="183.7" x2="240.5" y2="180.9"/>
<line style="fill:none;stroke:#F6B74B;stroke-width:1.5;stroke-linecap:round;stroke-linejoin:round;stroke-miterlimit:10;" x1="222.8" y1="156.8" x2="225.6" y2="168.9"/>
<line style="fill:none;stroke:#F6B74B;stroke-width:1.5;stroke-linecap:round;stroke-linejoin:round;stroke-miterlimit:10;" x1="227.7" y1="171" x2="236.9" y2="168.1"/>
<polyline style="fill:none;stroke:#F6B74B;stroke-width:1.5;stroke-linecap:round;stroke-linejoin:round;stroke-miterlimit:10;" points="
	239.1,175.1 227.4,177.4 226.3,173.8 "/>
<line style="fill:none;stroke:#F6B74B;stroke-width:1.5;stroke-linecap:round;stroke-linejoin:round;stroke-miterlimit:10;" x1="206.4" y1="190.1" x2="196.5" y2="192.3"/>
<line style="fill:none;stroke:#F6B74B;stroke-width:1.5;stroke-linecap:round;stroke-linejoin:round;stroke-miterlimit:10;" x1="219.9" y1="194.4" x2="222" y2="204.3"/>
<path style="fill:none;stroke:#F6B74B;stroke-width:1.5;stroke-linecap:round;stroke-linejoin:round;stroke-miterlimit:10;" d="
	M211.4,189.4c1.2-0.5,2.4-0.9,3.5-1.4"/>
<path style="fill:none;stroke:#F6B74B;stroke-width:1.5;stroke-linecap:round;stroke-linejoin:round;stroke-miterlimit:10;" d="
	M216.4,181.6c-0.5,2.4-0.9,4.7-1.4,7.1"/>
<path style="fill:none;stroke:#F87C3B;stroke-width:1.5;stroke-linecap:round;stroke-linejoin:round;stroke-miterlimit:10;" d="
	M53.2,160c-4.4-7.5-13.1-11.6-20.7-9.9c-7.6,1.7-13.7,9.2-14.8,18.8C29.6,166.1,41.5,163.3,53.2,160z"/>
<polygon style="fill:none;stroke:#F87C3B;stroke-width:1.5;stroke-linecap:round;stroke-linejoin:round;stroke-miterlimit:10;" points="
	14.9,106.1 18.4,100.8 26.3,105.3 24.7,107.8 22.8,110.7 "/>
<path style="fill:none;stroke:#F87C3B;stroke-width:1.5;stroke-linecap:round;stroke-linejoin:round;stroke-miterlimit:10;" d="
	M41.2,105.1c-3.1-2.8-7.7-3.7-11.5-2.1c-3.8,1.6-6.5,5.5-6.9,9.8c-0.4,4.3,1.7,8.8,5.2,11.4C32.4,117.7,36.8,111.1,41.2,105.1z"/>
<path style="fill:none;stroke:#F87C3B;stroke-width:1.5;stroke-linecap:round;stroke-linejoin:round;stroke-miterlimit:10;" d="
	M27,152.5c-8.7-6.5-17.1-12.5-26.2-18.6c7.4-12.2,8.6-13.8,16-26.1"/>
<path style="fill:none;stroke:#F87C3B;stroke-width:1.5;stroke-linecap:round;stroke-linejoin:round;stroke-miterlimit:10;" d="
	M30.5,150.4c-8.4-6.4-15.2-11.8-24.1-17.9c7.2-12.2,6.7-11.1,13.9-23.2"/>
<path style="fill:none;stroke:#F87C3B;stroke-width:1.5;stroke-linecap:round;stroke-linejoin:round;stroke-miterlimit:10;" d="
	M5.5,132.1c0.3,1.1-0.4,2.3-1.5,2.6c-1.1,0.3-2.2-0.4-2.5-1.6c-0.3-1.1,0.4-2.3,1.5-2.6C4.1,130.2,5.3,131,5.5,132.1z"/>
<path style="fill:none;stroke:#F87C3B;stroke-width:1.5;stroke-linecap:round;stroke-linejoin:round;stroke-miterlimit:10;" d="
	M32,119.2c2.7,1.5,6.4,0.6,8.2-1.9c1.7-2.6,1.3-6.5-1-8.7"/>
<path style="fill:none;stroke:#F87C3B;stroke-width:1.5;stroke-linecap:round;stroke-linejoin:round;stroke-miterlimit:10;" d="
	M39.8,122c0.5,1.2,0.9,2.4,1.4,3.5"/>
<path style="fill:none;stroke:#F87C3B;stroke-width:1.5;stroke-linecap:round;stroke-linejoin:round;stroke-miterlimit:10;" d="
	M43.3,119.2c0.9,0.5,1.9,0.9,2.8,1.4"/>
<path style="fill:none;stroke:#F87C3B;stroke-width:1.5;stroke-linecap:round;stroke-linejoin:round;stroke-miterlimit:10;" d="
	M44.7,114.9c1.4-0.3,2.8-0.5,4.3-0.7"/>
<path style="fill:none;stroke:#F87C3B;stroke-width:1.5;stroke-linecap:round;stroke-linejoin:round;stroke-miterlimit:10;" d="
	M29.1,107.1c-2.9,2.2-3.7,6.7-1.8,9.9"/>
<path style="fill:none;stroke:#F87C3B;stroke-width:1.5;stroke-linecap:round;stroke-linejoin:round;stroke-miterlimit:10;" d="
	M46.1,158.2c-0.8-2.5-3.4-4-5.7-3.4"/>
<ellipse transform="matrix(0.1387 -0.9903 0.9903 0.1387 -20.5521 294.9195)" style="fill:none;stroke:#FBA023;stroke-width:1.5;stroke-linecap:round;stroke-linejoin:round;stroke-miterlimit:10;" cx="159.3" cy="159.3" rx="18.8" ry="18.8"/>
<path style="fill:none;stroke:#FBA023;stroke-width:1.5;stroke-linecap:round;stroke-linejoin:round;stroke-miterlimit:10;" d="
	M146.5,155.9c-1.7,7.3,2.9,14.5,10.1,16.2c7.2,1.7,14.5-2.9,16.2-10.1c1.7-7.3-2.9-14.5-10.1-16.2
	C155.4,144.1,148.2,148.6,146.5,155.9z"/>
<path style="fill:none;stroke:#FBA023;stroke-width:1.5;stroke-linecap:round;stroke-linejoin:round;stroke-miterlimit:10;" d="
	M150.6,157.3c-1.1,4.8,1.9,9.5,6.7,10.6c4.8,1.1,9.5-1.9,10.6-6.7c1.1-4.8-1.9-9.5-6.6-10.6C156.5,149.5,151.7,152.5,150.6,157.3z"
	/>
<path style="fill:none;stroke:#FBA023;stroke-width:1.5;stroke-linecap:round;stroke-linejoin:round;stroke-miterlimit:10;" d="
	M154.8,158.2c-0.6,2.5,1,5,3.5,5.5c2.5,0.6,5-1,5.5-3.5c0.6-2.5-1-5-3.5-5.5C157.8,154.2,155.4,155.8,154.8,158.2z"/>
<polyline style="fill:none;stroke:#FBA023;stroke-width:1.5;stroke-linecap:round;stroke-linejoin:round;stroke-miterlimit:10;" points="
	136.2,154 141,155.1 146.1,156.2 150.7,157.3 154.8,158.2 159.3,159.3 163.7,160.3 167.8,161.2 172.5,162.3 177.5,163.5
	182.3,164.6 "/>
<polyline style="fill:none;stroke:#FBA023;stroke-width:1.5;stroke-linecap:round;stroke-linejoin:round;stroke-miterlimit:10;" points="
	164.6,136.2 163.5,141 162.3,146.1 161.2,150.7 160.3,154.8 159.3,159.3 158.2,163.7 157.3,167.8 156.2,172.5 155.1,177.5
	154,182.3 "/>
<polygon style="fill:none;stroke:#FBA023;stroke-width:1.5;stroke-linecap:round;stroke-linejoin:round;stroke-miterlimit:10;" points="
	104.9,160.3 86.6,161.8 98,183 116.4,181.6 "/>
<polygon style="fill:none;stroke:#FBA023;stroke-width:1.5;stroke-linecap:round;stroke-linejoin:round;stroke-miterlimit:10;" points="
	116.8,181.6 128.4,167 116.7,145.4 105,160.1 "/>
<polyline style="fill:none;stroke:#FBA023;stroke-width:1.5;stroke-linecap:round;stroke-linejoin:round;stroke-miterlimit:10;" points="
	88.7,161.8 89.4,156.8 105,160.4 94.2,152.5 93.9,157.7 "/>
<polyline style="fill:none;stroke:#FBA023;stroke-width:1.5;stroke-linecap:round;stroke-linejoin:round;stroke-miterlimit:10;" points="
	109.1,149.7 105,147.3 105.1,160.3 110.9,145.4 114.9,147.4 "/>
<path style="fill:none;stroke:#F6B74B;stroke-width:1.5;stroke-linecap:round;stroke-linejoin:round;stroke-miterlimit:10;" d="
	M157.5,218.5c0.4,0.3,0.8,0.6,1.3,0.9c0.5,0.2,1,0.4,1.6,0.5"/>
<path style="fill:none;stroke:#F6B74B;stroke-width:1.5;stroke-linecap:round;stroke-linejoin:round;stroke-miterlimit:10;" d="
	M174.9,212.1c1.1-1.2,2.1-2.6,3.1-4c6.2-9.1,7.6-19,3-22c-4.6-3-13.3,1.9-19.5,11.1c-1,1.5-1.9,2.9-2.6,4.4"/>
<path style="fill:none;stroke:#F6B74B;stroke-width:1.5;stroke-linecap:round;stroke-linejoin:round;stroke-miterlimit:10;" d="
	M165.3,219.9c0.5-0.2,0.9-0.4,1.4-0.7"/>
<path style="fill:none;stroke:#F6B74B;stroke-width:1.5;stroke-linecap:round;stroke-linejoin:round;stroke-miterlimit:10;" d="
	M156.8,212.1c-0.8,0.5-0.9,1-0.4,1.4"/>
<path style="fill:none;stroke:#F6B74B;stroke-width:1.5;stroke-linecap:round;stroke-linejoin:round;stroke-miterlimit:10;" d="
	M182.3,197.9c-1.1-1.5-3.2-3.5-5.9-5.4c-2.6-1.9-5.2-3.3-6.9-3.8"/>
<path style="fill:none;stroke:#F6B74B;stroke-width:1.5;stroke-linecap:round;stroke-linejoin:round;stroke-miterlimit:10;" d="
	M147.6,215.7c4.3-4,12.1-4.4,12.1-4.4l1.3-8.2C148.3,201.5,147.6,215.7,147.6,215.7z"/>
<path style="fill:none;stroke:#F6B74B;stroke-width:1.5;stroke-linecap:round;stroke-linejoin:round;stroke-miterlimit:10;" d="
	M172.7,210.7l-7.4,4.4c0,0,2.8,7.8,0.7,13.4C166,228.4,179.3,222.4,172.7,210.7z"/>
<path style="fill:none;stroke:#F6B74B;stroke-width:1.5;stroke-linecap:round;stroke-linejoin:round;stroke-miterlimit:10;" d="
	M150.6,217.1c-1.3,3,4.8,5.6,4.8,5.6l2.8-5c-1.6-1-0.8-4-0.8-4C154.5,212.5,150.6,217.1,150.6,217.1z"/>
<path style="fill:none;stroke:#F6B74B;stroke-width:1.5;stroke-linecap:round;stroke-linejoin:round;stroke-miterlimit:10;" d="
	M164.5,218.5c0,0-2.5,1.8-4,0.8l-3.7,4.3c0,0,4.6,4.3,7,2.1C163.8,225.6,166.7,220.6,164.5,218.5z"/>
<path style="fill:none;stroke:#F6B74B;stroke-width:1.5;stroke-linecap:round;stroke-linejoin:round;stroke-miterlimit:10;" d="
	M161,203l-2.2-1.6c-11.1,1.6-11.2,14.2-11.2,14.2"/>
<path style="fill:none;stroke:#F6B74B;stroke-width:1.5;stroke-linecap:round;stroke-linejoin:round;stroke-miterlimit:10;" d="
	M166,228.4c0,0,11.7-4.9,8.8-16.2l-2.3-1.6"/>
<path style="fill:none;stroke:#F6B74B;stroke-width:1.5;stroke-linecap:round;stroke-linejoin:round;stroke-miterlimit:10;" d="
	M175.8,202.1c1.5-2.2,1.1-5-1-6.3c-2.1-1.3-4.9-0.7-6.4,1.5s-1.1,5,1,6.3C171.4,205,174.3,204.3,175.8,202.1z"/>
<path style="fill:none;stroke:#F6B74B;stroke-width:1.5;stroke-linecap:round;stroke-linejoin:round;stroke-miterlimit:10;" d="
	M150.7,222.3c-0.7-1-2.1-1.2-3.1-0.5c-1,0.7-1.4,3.6-1.4,3.6s3,0.7,4,0C151.2,224.6,151.4,223.2,150.7,222.3z"/>
<path style="fill:none;stroke:#F6B74B;stroke-width:1.5;stroke-linecap:round;stroke-linejoin:round;stroke-miterlimit:10;" d="
	M156.1,229.5c-0.3,1.3,1.6,3.9,1.6,3.9s2.9-1.6,3.2-2.8c0.3-1.3-0.5-2.5-1.9-2.8C157.8,227.5,156.4,228.3,156.1,229.5z"/>
<path style="fill:none;stroke:#F6B74B;stroke-width:1.5;stroke-linecap:round;stroke-linejoin:round;stroke-miterlimit:10;" d="
	M155.8,225.1c-0.3-0.3-0.8-0.2-1,0.3c-0.2,0.5-0.1,1.2,0.2,1.5c0.3,0.3,0.8,0.2,1-0.3C156.2,226.1,156.1,225.4,155.8,225.1z"/>
<path style="fill:none;stroke:#F6B74B;stroke-width:1.5;stroke-linecap:round;stroke-linejoin:round;stroke-miterlimit:10;" d="
	M160.7,234.3c-0.3-0.3-0.8-0.2-1,0.3c-0.2,0.5-0.1,1.2,0.2,1.5c0.3,0.3,0.8,0.2,1-0.3C161.1,235.3,161.1,234.6,160.7,234.3z"/>
<circle style="fill:none;stroke:#F6B74B;stroke-width:1.5;stroke-linecap:round;stroke-linejoin:round;stroke-miterlimit:10;" cx="149" cy="229.8" r="1.4"/>
<path style="fill:none;stroke:#FBA023;stroke-width:1.5;stroke-linecap:round;stroke-linejoin:round;stroke-miterlimit:10;" d="
	M79.5,206.4c0,0,12.2-5.7,10.4-13.7c-1.7-8.1-15.1,2.6-12.9,4.7c2.3,2,10.3-5.9,8.8-12.7c-1.5-6.8-10.4-5.8-13.5-0.7
	c-3.1,5.1,8.9,2.7,6.5-7.7c-2.4-10.4-11.6-3.5-10.6-0.8c0.9,2.7,6.1-1.6,3.8-7.6l-3.3-9"/>
<polygon style="fill:none;stroke:#FBA023;stroke-width:1.5;stroke-linecap:round;stroke-linejoin:round;stroke-miterlimit:10;" points="
	68.8,158.7 73.1,160.3 66,151.1 66.9,162.5 "/>
<path style="fill:none;stroke:#F6B74B;stroke-width:1.5;stroke-linecap:round;stroke-linejoin:round;stroke-miterlimit:10;" d="
	M213.5,246.3c2-1.8,2-5.3,0-7.1c-1.9-1.8-5.4-1.4-6.9,0.7c0.6-3.1-1.3-6.6-4.2-7.7c-3-1.1-6.6,0.4-8,3.3c-1.5-4-6.1-6.4-10.1-5.4
	c-4,1.1-6.9,5.5-6.4,9.7c-3.7-0.3-7.3,2.5-8.1,6.1c-0.8,3.6,1.4,7.7,4.8,8.8C187.5,251.7,200.5,248.8,213.5,246.3z"/>
<circle style="fill:none;stroke:#F6B74B;stroke-width:1.5;stroke-linecap:round;stroke-linejoin:round;stroke-miterlimit:10;" cx="178.8" cy="246.2" r="1.4"/>
<path style="fill:none;stroke:#F6B74B;stroke-width:1.5;stroke-linecap:round;stroke-linejoin:round;stroke-miterlimit:10;" d="
	M188.7,241.2c0,0.8-0.8,1.4-1.8,1.4c-1,0-1.8-0.6-1.8-1.4c0-0.8,0.8-1.4,1.8-1.4C187.9,239.8,188.7,240.4,188.7,241.2z"/>
<path style="fill:none;stroke:#F6B74B;stroke-width:1.5;stroke-linecap:round;stroke-linejoin:round;stroke-miterlimit:10;" d="
	M199.3,240.1c0,1-0.8,1.8-1.8,1.8c-1,0-1.8-0.8-1.8-1.8c0-1,0.8-1.8,1.8-1.8C198.6,238.4,199.3,239.2,199.3,240.1z"/>
<path style="fill:none;stroke:#F6B74B;stroke-width:1.5;stroke-linecap:round;stroke-linejoin:round;stroke-miterlimit:10;" d="
	M206.4,244c0,0.8-0.6,1.4-1.4,1.4c-0.8,0-1.4-0.6-1.4-1.4c0-0.8,0.6-1.4,1.4-1.4C205.8,242.6,206.4,243.3,206.4,244z"/>
<polyline style="fill:none;stroke:#F6B74B;stroke-width:1.5;stroke-linecap:round;stroke-linejoin:round;stroke-miterlimit:10;" points="
	187.3,259.6 184.7,248.6 179.5,246.2 "/>
<path style="fill:none;stroke:#F6B74B;stroke-width:1.5;stroke-linecap:round;stroke-linejoin:round;stroke-miterlimit:10;" d="
	M191.5,258.2c-0.9-4.1-1.9-8.3-2.8-12.4c-0.5-1-1-2.1-1.5-3.2"/>
<polyline style="fill:none;stroke:#F6B74B;stroke-width:1.5;stroke-linecap:round;stroke-linejoin:round;stroke-miterlimit:10;" points="
	196.9,241.2 194.4,244.3 197.2,256.1 "/>
<path style="fill:none;stroke:#F6B74B;stroke-width:1.5;stroke-linecap:round;stroke-linejoin:round;stroke-miterlimit:10;" d="
	M203.6,244.7c0,0-2.1,3.1-2.1,3.2c0.5,2.5,1,5,1.5,7.5"/>
<path style="fill:none;stroke:#F6B74B;stroke-width:1.5;stroke-linecap:round;stroke-linejoin:round;stroke-miterlimit:10;" d="
	M218.9,219.4c-0.2,0.1-4.1-1.7-4.2-1.4c-0.2,0.3,1.2,2.2,2,3.4c-0.2,0.4-2.5,3.3-2.4,3.6c0.2,0.2,4.4-1.2,5.4-1.4
	c0.1,0.6,2.5,4.2,2.8,4.1c0.3,0,0-3.6,0-4.5c0.6-0.3,3.8-1.8,3.8-2.2c0-0.4-3-1-3.8-1.5c0.1-0.6,0.3-5.2,0-5.3
	C222.1,214.2,219.1,219.1,218.9,219.4z"/>
<path style="fill:none;stroke:#FBA023;stroke-width:1.5;stroke-linecap:round;stroke-linejoin:round;stroke-miterlimit:10;" d="
	M49.9,138.8c-0.1,0.2-3.8,2.4-3.7,2.8c0.1,0.3,2.6,0.3,4,0.4c0.2,0.4,1.2,4.2,1.5,4.2c0.3,0,1.7-4.5,2.1-5.4c0.6,0.3,5,0.4,5.1,0.1
	c0.1-0.3-3-2.2-3.7-2.7c0.2-0.7,0.8-4.4,0.5-4.6c-0.3-0.2-2.7,2-3.5,2.4c-0.4-0.5-4.1-3.4-4.4-3.2C47.6,132.9,49.8,138.4,49.9,138.8
	z"/>
<path style="fill:none;stroke:#EF2C79;stroke-width:1.5;stroke-linecap:round;stroke-linejoin:round;stroke-miterlimit:10;" d="
	M226.1,67.6c3.9-0.9,6.9-4.2,8.4-7.9c0.3-0.8,0.5-1.6,0.2-2.4c-0.2-0.6-0.8-1-1.3-1.2c-1-0.4-2.1-0.3-3,0.1
	c-0.9,0.5-1.6,1.5-1.9,2.5c0.1-1.5-1-3.1-2.5-3.5c-1.5-0.4-3.2,0.4-3.9,1.8c-0.7,1.4-0.3,3.1,0.1,4.6
	C222.8,63.7,224.4,66.4,226.1,67.6z"/>
<path style="fill:none;stroke:#F87C3B;stroke-width:1.5;stroke-linecap:round;stroke-linejoin:round;stroke-miterlimit:10;" d="
	M260,183c2.9-2.8,3.7-7.2,2.9-11.1c-0.2-0.8-0.5-1.6-1.2-2.1c-0.5-0.3-1.2-0.4-1.9-0.3c-1.1,0.2-2,0.8-2.6,1.7
	c-0.5,0.9-0.6,2.1-0.3,3.1c-0.8-1.3-2.6-2-4.1-1.6c-1.5,0.5-2.6,2-2.4,3.5c0.2,1.5,1.5,2.7,2.7,3.8C254.9,181.6,257.7,183,260,183z"
	/>
<line style="fill:none;stroke:#F87C3B;stroke-width:1.5;stroke-linecap:round;stroke-linejoin:round;stroke-miterlimit:10;" x1="171.7" y1="73.1" x2="171" y2="79.5"/>
<line style="fill:none;stroke:#F87C3B;stroke-width:1.5;stroke-linecap:round;stroke-linejoin:round;stroke-miterlimit:10;" x1="168.1" y1="75.9" x2="174.5" y2="76.6"/>
<line style="fill:none;stroke:#FBA023;stroke-width:1.5;stroke-linecap:round;stroke-linejoin:round;stroke-miterlimit:10;" x1="193" y1="150.4" x2="188.7" y2="154.7"/>
<line style="fill:none;stroke:#FBA023;stroke-width:1.5;stroke-linecap:round;stroke-linejoin:round;stroke-miterlimit:10;" x1="193.7" y1="154.7" x2="188.7" y2="150.4"/>
<line style="fill:none;stroke:#F6B74B;stroke-width:1.5;stroke-linecap:round;stroke-linejoin:round;stroke-miterlimit:10;" x1="190.8" y1="215" x2="195.8" y2="219.2"/>
<line style="fill:none;stroke:#F6B74B;stroke-width:1.5;stroke-linecap:round;stroke-linejoin:round;stroke-miterlimit:10;" x1="195.1" y1="214.2" x2="190.8" y2="219.2"/>
<line style="fill:none;stroke:#F87C3B;stroke-width:1.5;stroke-linecap:round;stroke-linejoin:round;stroke-miterlimit:10;" x1="251.1" y1="157.5" x2="246.2" y2="153.2"/>
<line style="fill:none;stroke:#F87C3B;stroke-width:1.5;stroke-linecap:round;stroke-linejoin:round;stroke-miterlimit:10;" x1="250.4" y1="153.2" x2="246.2" y2="158.2"/>
<line style="fill:none;stroke:#F87C3B;stroke-width:1.5;stroke-linecap:round;stroke-linejoin:round;stroke-miterlimit:10;" x1="75.2" y1="65.3" x2="80.2" y2="69.6"/>
<line style="fill:none;stroke:#F87C3B;stroke-width:1.5;stroke-linecap:round;stroke-linejoin:round;stroke-miterlimit:10;" x1="80.2" y1="64.6" x2="75.2" y2="69.6"/>
<path style="fill:none;stroke:#F6B74B;stroke-width:1.5;stroke-linecap:round;stroke-linejoin:round;stroke-miterlimit:10;" d="
	M97.2,211.8c3.3-0.4,7.2,1.4,8.7,4.5c-0.8-3.5,1-7.4,4.1-9.1c-1.9,0.8-4.3,0.5-5.9-0.4c-1.5-0.9-2.4-2.4-2.9-3.9
	C102.2,206.3,100.4,210.3,97.2,211.8z"/>
</svg>
