<svg version="1.1" id="Layer_1" x="0px" y="0px" viewBox="0 0 1585.3 751.7" style="enable-background:new 0 0 1585.3 751.7;">
<linearGradient id="SVGID_1_" gradientUnits="userSpaceOnUse" x1="784.7225" y1="122.5977" x2="823.5936" y2="603.1857">
	<stop  offset="0" style="stop-color:#F0047F"/>
	<stop  offset="0.5008" style="stop-color:#FA4241"/>
	<stop  offset="1" style="stop-color:#FFAD00"/>
</linearGradient>
<path style="fill:url(#SVGID_1_);" d="M631.7,610.6c0.4,1.9,2,3.4,4,3.6c37.7,3.6,72.9,20.6,99.3,47.8c0.9,0.9,2,1.4,3.2,1.4
	c0.8,0,1.7-0.2,2.4-0.7c1.8-1.2,2.5-3.4,1.8-5.4c-7.9-20.4-22.3-37.9-41.2-50.3c7.6-1.1,15.5-0.1,22.5,3c1.7,0.8,3.7,0.4,5-0.9
	c1.3-1.3,1.7-3.3,0.9-5c-23.2-51.1-63.1-94.1-112.4-120.9c-1.8-1-3.9-0.6-5.3,0.8c-15.9,16-27.4,38.3-32.2,62.9
	c-0.2,1.3,0.1,2.6,0.9,3.6c0.8,1,2,1.7,3.3,1.7c33,2,64.6,16.9,87.9,41.2c-13.3,1.7-26.2,5.9-37.9,12.5
	C632.1,606.7,631.3,608.7,631.7,610.6z M681.4,601.5c1.7-0.1,3.3-1.1,3.9-2.7c0.7-1.6,0.4-3.4-0.7-4.7c-24.2-28.7-58.5-47-95-50.6
	c4.7-19.7,13.9-37.5,26.3-50.9c43.2,24.4,78.7,61.6,101.1,105.9c-9.6-1.9-19.9-1-28.9,2.8c-1.6,0.7-2.7,2.2-2.8,3.9
	c-0.1,1.7,0.8,3.4,2.4,4.2c13.6,7.2,25.2,17.2,34,29c-20.6-15.5-44.6-26.1-70-30.9C661.2,603.9,671.3,601.9,681.4,601.5z
	 M1197.5,481.8l115.3-46.8c2-0.8,3.1-2.8,2.7-4.9c-0.3-2.1-2.1-3.6-4.2-3.8c-51.4-2.9-103.3,3.5-154.2,19
	c-46.3,14.1-89.6,34.9-128.8,62.1c4.7-13.4,9.9-24.7,16.2-35.6c1-1.6,0.8-3.7-0.5-5.2c-1.2-1.5-3.2-2-5-1.3
	c-43.9,16.6-85.5,43-120.3,76.3c-35,33.5-63.4,74.4-82.1,118.3c-0.9,2.2,0,4.8,2.2,5.8c0.6,0.3,1.3,0.4,2,0.4c1.6,0,3.2-0.9,4-2.4
	c28.8-53.3,77.4-95,134.4-115.6c-10.9,21.8-18.7,46.5-23.2,73.7c-0.3,1.8,0.5,3.6,2,4.5c1.5,1,3.5,0.9,5-0.1
	c103.1-70,232.8-98.6,355.8-78.6c1.9,0.3,3.7-0.6,4.6-2.2s0.7-3.7-0.5-5.1C1292.2,504.1,1243.3,491.3,1197.5,481.8z M966.8,613
	c5.3-26.2,13.9-49.9,25.6-70.5c0.9-1.6,0.8-3.6-0.4-5c-0.9-1.1-2.2-1.7-3.5-1.7c-0.4,0-0.9,0.1-1.3,0.2
	c-41.4,12.9-79,36.3-108.9,67.2c13.7-19.9,29.4-38.4,46.8-55.1c30.8-29.6,67.2-53.5,105.8-69.8c-5.8,11.6-10.7,24.2-15.3,39.4
	c-0.6,1.9,0.1,3.9,1.7,5c1.6,1.1,3.7,1.1,5.3-0.1c41.3-30.5,87.5-53.6,137.3-68.7c42.2-12.8,85-19.2,127.7-19.2c0.7,0,1.5,0,2.2,0
	l-109.3,44.3c-1.8,0.7-3,2.6-2.8,4.6c0.2,2,1.6,3.6,3.6,4c44,8.9,93.5,18.8,126.1,49.3C1189.4,521,1066.6,548.5,966.8,613z
	 M789.6,197.3c7.4,6.5,14.5,12.6,17.8,20.6c0,0.3-0.1,0.5,0,0.8l11.5,216.7c-6.8-8.6-16.2-19.5-23.5-24.5c-1.7-1.2-3.8-1.3-5.6-0.3
	c-2.9,1.6-5.9,3.3-6.6,50.1c-0.4,23.5-0.1,55.8,0.8,96.1c1,46.1,2.7,92.4,3.7,117.8c-12,2.5-21.1,13.1-21.1,25.9
	c0,14.6,11.9,26.4,26.4,26.4c14.6,0,26.4-11.9,26.4-26.4c0-11.8-7.8-21.9-18.6-25.2l29.4-169.4l39.1,21.5c1.4,0.7,3,0.7,4.4,0
	c1.4-0.8,2.2-2.2,2.3-3.7l12.4-292.8c0-0.6-0.1-1.2-0.3-1.7c17.2-20.4,34.9-41.4,53.3-61.8c0.7-0.8,1.1-1.8,1.2-2.9
	c0.7-25.7,0.4-51.8-0.9-77.6c-0.1-1.8-1.2-3.3-2.9-4c-0.4-0.1-0.7-0.3-1.1-0.4c-1-9.8-5.4-18.8-12.4-24.8
	c-7.5-6.5-17.7-9.2-26.9-7.2c-13.4-11.5-32.2-15.5-46.4-9.7c-4.5,1.8-8.2,4.5-11.1,8c-8.8-6.4-21-6.2-29.6,0.6
	c-8,6.4-12.2,18.2-10.5,29l-28,10.1c-1.8,0.7-3,2.4-3,4.3c0.3,11.3-0.6,22.6-1.5,34.6c-0.7,8.4-1.3,17-1.6,25.6
	c-0.1,5.3-0.1,11.4,1.6,17.2C771.9,181.8,780.9,189.7,789.6,197.3z M810.5,700.4c0,9.6-7.8,17.4-17.4,17.4s-17.4-7.8-17.4-17.4
	c0-7.9,5.3-14.6,12.5-16.7c0.3,6.7,0.4,10.6,0.4,10.8c0.1,2.3,1.9,4.2,4.2,4.3c0.1,0,0.2,0,0.3,0c2.2,0,4.1-1.6,4.4-3.7l1.9-10.9
	C805.9,686.7,810.5,693,810.5,700.4z M919.5,64.4c4.3,3.7,7.3,9,8.7,14.9c-7-1.8-14.3-2.2-21,1.3c-6.1,3.1-9.9,8.7-12.3,12.6
	c-4.7,7.8-8,16.4-9.5,25.4c-1.3,7.7-0.6,16.8,4.5,22.5c-1,0.5-2,0.8-2.7,0.9c-3.5,0.7-7.3-0.1-10.1-2.1c-4.9-3.6-7.9-10.8-8-19
	c-0.1-9.5,3-19,6.1-28.1c2.3-7.1,4.8-14.4,8.7-20.6c4.1-6.5,9.5-11,15.2-12.6C905.9,57.6,913.9,59.5,919.5,64.4z M855.5,49
	c9.8-4,23-1.7,33.4,5.4c-4.8,3-9.1,7.4-12.5,12.9c-4.5,7.1-7.1,15-9.6,22.6c-3.1,9.4-6.6,20.1-6.5,31c0.1,9.2,2.9,17.3,7.9,22.8
	c-5.7,3.8-11.5,6.7-17.1,5.6c-6.4-1.3-10.8-7.8-12.3-13.8c-1.3-5.1-0.7-8.3,0.1-13.1c0.2-1,0.4-2.1,0.5-3.3c0.8-0.5,1.5-1.1,2.2-1.7
	c12.5-10.3,17.5-28.2,12.3-43.6c-2.3-6.8-6.2-9-9-9.6c-0.5-0.1-1-0.2-1.4-0.2C845,56.8,849,51.7,855.5,49z M813.2,126.4
	c5.5,0.4,11.1-0.3,16.3-2.1c-0.6,4-0.8,8,0.6,13.5c1.1,4.5,3.1,8.5,5.8,11.8c-5.6,0.7-11.4-1-15.7-4.6
	C814.9,140.5,812.2,133.2,813.2,126.4z M833.2,84.4c-1.2,3.1-3.1,5.4-5.4,6.3c-2.8,1.1-5.4,0-6.8-0.8c-2.7-1.6-4.7-4.4-5.4-7.4
	l18.2-6.6C834.4,78.5,834.2,81.6,833.2,84.4z M817,56.3c5.7-4.5,13.7-4.4,19.4,0.1c-1.2,3-1.9,6.2-2.3,9.8l-24.6,8.9
	C809.1,67.9,811.9,60.4,817,56.3z M775.9,153.2c0.2-8.4,0.9-16.9,1.5-25.2c0.8-10.6,1.7-21.5,1.6-32.2l28.1-10.2
	c1.4,5,4.8,9.4,9.4,12.1c2.8,1.7,5.9,2.5,8.9,2.5c2,0,3.9-0.4,5.8-1.1c4.6-1.8,8.4-6,10.4-11.4c1.8-4.8,2-10,0.7-14.6
	c0.2,0,0.4,0,0.6,0c0.7,0.2,1.7,1.4,2.5,3.8c4,11.7,0,25.9-9.5,33.7c-0.8,0.7-1.7,1.3-2.6,1.9c-0.3,0.1-0.6,0.3-0.8,0.5
	c-9.4,5.6-22,6-31.5,0.7c-2.2-1.2-4.9-0.5-6.1,1.7c-1.2,2.2-0.5,4.9,1.7,6.1c2.5,1.4,5.1,2.5,7.7,3.3c-1.5,9.9,2.3,20.6,10,27.1
	c5.3,4.5,12.2,6.9,19.2,6.9c3.7,0,7.3-0.7,10.7-2c0.1,0,0.2-0.1,0.2-0.1c1.6,0.8,3.2,1.3,4.9,1.6c1.4,0.3,2.8,0.4,4.2,0.4
	c3.7,0,7.3-0.9,10.7-2.4c8.4,4.9,13.5,9.9,18,17.7c0.8,1.4,2.3,2.2,3.9,2.2c0.8,0,1.5-0.2,2.2-0.6c2.2-1.2,2.9-4,1.6-6.1
	c-4.4-7.7-9.5-13.3-16.8-18.2c0.9-0.6,1.8-1.2,2.6-1.8c2.8,1.2,5.8,1.9,8.9,1.9c1.4,0,2.9-0.1,4.3-0.4c3.8-0.7,7-2.5,9.5-4.9
	c2.7,0.5,5.5,0.3,8.3-0.7c4.6-1.6,8.3-4.9,10.3-9.1c1.3-2.9,1.9-6.1,1.7-9.3c0.7-0.3,1.3-0.6,2-0.9c1.5-0.7,3.1-1.3,5.1-2.4
	c2.2-1.2,3-3.9,1.8-6.1c-1.2-2.2-3.9-3-6.1-1.8c-1.7,0.9-3,1.5-4.4,2.1c-0.2,0.1-0.4,0.2-0.6,0.3c-0.8-1.7-1.9-3.4-3.1-4.9
	c-1.6-1.9-4.4-2.2-6.3-0.6c-1.9,1.6-2.2,4.4-0.6,6.3c3.3,4,4.3,9.6,2.4,13.5c-0.9,2-2.9,3.7-5.1,4.5c-1.4,0.5-2.8,0.6-4.1,0.3
	c-0.1-0.1-0.3-0.2-0.4-0.3c-0.5-0.3-1-0.4-1.5-0.5c-4.2-2.8-4.6-10.2-3.6-16c1.4-7.9,4.2-15.4,8.4-22.3c2.9-4.7,5.6-7.7,8.7-9.2
	c6.1-3.1,13.9-1.2,21.6,1.6c1.2,24,1.4,48.3,0.8,72.2c-18.5,20.6-36.2,41.6-53.5,62.1c-1.2,1.4-1.3,3.3-0.6,4.8
	c-0.1,0.3-0.1,0.6-0.2,1l-12.1,285.6l-38.3-21c-1.3-0.7-2.8-0.7-4.1-0.1c-1.3,0.6-2.2,1.9-2.5,3.3l-26.6,153.5
	c-0.9-24.7-1.9-57.2-2.7-90.1c-2.3-98.3-0.5-129.9,1.1-139.9c11.2,10,26,30.7,26.2,30.9c1.2,1.6,3.3,2.3,5.1,1.6
	c1.9-0.7,3.1-2.5,3-4.5l-10.9-204.8l12.1,10c0.8,0.7,1.8,1,2.9,1c1.3,0,2.6-0.6,3.5-1.6c1.6-1.9,1.3-4.8-0.6-6.3l-17.9-14.7
	c-0.2-0.2-0.4-0.3-0.6-0.4l-0.5-10.2c6.6,3.5,14.1,5.4,21.5,5.4c1.7,0,3.3-0.1,5-0.3c2.5-0.3,4.2-2.5,3.9-5c-0.3-2.5-2.5-4.2-5-3.9
	c-9.7,1.1-20-2-27.4-8.3c-0.4-0.4-0.9-0.6-1.4-0.8c-4.5-7.5-11.2-13.4-17.7-19.1c-8.1-7.1-15.8-13.7-18.5-22.9
	C775.7,163,775.7,157.9,775.9,153.2z M522.5,282.2c-8.4-1.6-14.8-0.3-18.9,3.9c-4.8,4.9-5.6,13-2,21.6c5.9,14.1,18,24,29.9,32.9
	c1.1,0.9,2.3,1.7,3.5,2.6c-2.7,8.1-4.1,16.8-4.1,25.7c0,46.8,39.3,84.8,87.6,84.8c24.8,0,47.2-10,63.2-26.1
	c11.1,4.5,23.3,8.5,35.8,8.5c1.6,0,3.3-0.1,4.9-0.2c9.1-0.8,18.6-5.7,19.2-15c0.4-6.8-4.5-12-8.2-15.2c-8.9-7.8-18.3-13.5-29.5-17.6
	c1.5-6.2,2.3-12.6,2.3-19.2c0-10-1.8-19.7-5.1-28.6c0-0.1,0-0.2-0.1-0.2c0,0,0,0,0-0.1c-9.8-26-32.4-46.2-60.5-53.2
	c-0.1,0-0.2-0.1-0.4-0.1c-0.2-0.1-0.4-0.1-0.6-0.1c-6.7-1.6-13.7-2.4-20.9-2.4c-21.6,0-41.4,7.6-56.7,20.2
	C551.6,293,537.5,285,522.5,282.2z M575.9,305.2l13.1,32.4l-16.8-7.4c-1.5-0.7-3.2-0.5-4.5,0.5c-1.3,1-2,2.5-1.8,4.1l2.5,21
	c-7.6-5.1-15.1-10.4-22.6-15.8C552,325.7,562.6,313.6,575.9,305.2z M569.8,367.5l2.3,19.8l-13.6-17c-0.9-1.1-2.3-1.8-3.8-1.7
	c-1.5,0.1-2.8,0.9-3.6,2.1l-9.3,15c-1.3-5.4-2-11-2-16.8c0-7,1-13.7,2.8-20.1C551.6,355.3,560.7,361.5,569.8,367.5z M545.3,396.6
	c0.4-0.3,0.8-0.7,1.1-1.2l9-14.5l19.4,24.2c0.9,1.1,2.2,1.7,3.5,1.7c0.6,0,1.2-0.1,1.7-0.3c1.9-0.8,3-2.7,2.7-4.7l-3.3-27.9
	c30.3,19.3,61.4,36,93.1,49.9c-10.8,9.9-24.4,16.9-39.6,19.6l-16.5-38.1c-0.7-1.7-2.4-2.8-4.3-2.7c-1.9,0.1-3.5,1.3-4.1,3
	l-12.4,35.8C572.7,434.8,554.1,418.1,545.3,396.6z M604.6,443.6l8.3-24l10.9,25c-1.7,0.1-3.5,0.2-5.3,0.2
	C613.8,444.8,609.1,444.3,604.6,443.6z M727.4,412.5c3.6,3.2,5.3,5.8,5.1,7.9c-0.2,3.7-5.8,6.1-11,6.6c-11.4,1-22.7-2.2-33.6-6.4
	c5.7-7.1,10.2-15.1,13.3-23.8C711.3,400.5,719.4,405.4,727.4,412.5z M696.6,377.4l-14.4-3.8l14.9-4.1
	C697.1,372.2,696.9,374.8,696.6,377.4z M690.9,339.4l-12.3,5.2l-5.9-9.2c-0.8-1.2-2.1-2-3.5-2.1c-1.4-0.1-2.8,0.5-3.7,1.6
	l-18.1,21.2l6.1-36.1c0.3-1.7-0.4-3.4-1.8-4.4c-1.4-1-3.2-1.2-4.7-0.4l-11.4,5.7l6.4-24.4C664.1,303.3,682,319.1,690.9,339.4z
	 M633.3,294.5l-8.9,33.8c-0.5,1.7,0.1,3.5,1.5,4.6c1.4,1.1,3.3,1.3,4.9,0.5l12.4-6.2l-7.4,43.4c-0.3,2,0.7,4,2.5,4.8
	c0.6,0.3,1.3,0.4,1.9,0.4c1.3,0,2.5-0.6,3.4-1.6l24.8-29l4.7,7.3c1.2,1.8,3.5,2.6,5.5,1.7l15.4-6.5c1.2,4,2.1,8.2,2.6,12.5l-32.8,9
	c-2,0.5-3.3,2.3-3.3,4.4s1.4,3.8,3.3,4.3l31.2,8.3c-2.8,11.4-8.2,21.8-15.7,30.6c-0.3-0.1-0.7-0.3-1-0.4
	c-34.1-14.9-67.6-33-100.1-54.2l-2.4-20.7l19.7,8.7c1.7,0.7,3.6,0.4,5-0.9c1.3-1.3,1.7-3.2,1-4.9l-17.7-43.6
	c10.5-5,22.2-7.8,34.6-7.8C623.6,293.1,628.5,293.6,633.3,294.5z M538.4,334.5c-0.5-0.4-1-0.7-1.5-1.1c-10.9-8.2-22-17.2-27-29.2
	c-1.6-3.8-2.5-9.1,0.1-11.8c2.4-2.4,7.2-2.1,10.9-1.4c13,2.5,25.4,9.4,34.3,19.3C548.2,317.4,542.5,325.5,538.4,334.5z M511.5,425.7
	c0.4,0.1,0.9,0.2,1.4,0.2c1.5,0,3-0.8,3.8-2.2c1.1-1.8,0.8-4-0.6-5.5c-18.2-18.5-58.3-42.2-80.8-54.8c3.8-0.5,7.8-0.9,11.6-1.3
	c8.8-0.9,18-1.8,25.4-3.4c1.6-0.3,2.9-1.6,3.4-3.2c0.5-1.6,0-3.3-1.2-4.5c-40-38.5-92.7-83.6-134.1-118.5c-1.9-1.6-4.7-1.4-6.3,0.5
	c-13.9,16.3-29.2,29.8-44,43c-1,0.9-1.6,2.3-1.5,3.7c0.1,1.4,0.9,2.7,2,3.4c32.9,21.5,66.9,41.3,101.3,59l-60.9,7.9
	c-2.1,0.3-3.8,2-3.9,4.2s1.3,4.1,3.3,4.6c30.8,8.2,68.9,23.4,105.7,38.2C463.9,408.4,490.3,419,511.5,425.7z M407.5,349.3
	c2-0.3,3.5-1.8,3.9-3.7c0.3-2-0.7-3.9-2.4-4.8c-36.8-18.4-73.3-39.2-108.5-61.9c12.6-11.2,25.5-22.9,37.5-36.5
	c38.5,32.5,86,73.2,123.8,109c-5,0.7-10.5,1.2-15.8,1.8c-8.8,0.9-18,1.8-25.4,3.4c-1.8,0.4-3.3,1.9-3.5,3.8
	c-0.3,1.9,0.7,3.7,2.3,4.6c23.7,12.8,51.8,29.4,71.9,44.2c-15.9-5.9-33.6-12.9-51.9-20.3c-29.3-11.8-59.4-23.8-86.2-32.5
	L407.5,349.3z M348.2,545.9c-36.5-24.4-76.6-43.3-115.5-61.5c-1.9-0.9-4.1-0.4-5.4,1.2s-1.4,3.8-0.2,5.5
	c10.7,15.1,21.8,30.7,31.5,47.9c-28.5-0.7-57.7-1-86.3,4.2c-2.1,0.4-3.7,2.2-3.7,4.4c0,2.2,1.5,4,3.6,4.4l142.1,27.4
	c0.3,0.1,0.6,0.1,0.9,0.1c1.6,0,3.1-0.8,3.9-2.2c1-1.6,0.8-3.7-0.5-5.2c-9.8-11.6-19-23.8-27.4-36.5l52.9,18.3
	c2.1,0.7,4.5-0.2,5.5-2.2C350.8,549.6,350.1,547.2,348.2,545.9z M282.1,522.9c-1.8-0.6-3.8,0-5,1.4c-1.2,1.5-1.3,3.5-0.3,5.2
	c8.2,13.4,17.3,26.4,27.1,38.8L202,548.6c21.4-1.5,43.1-1,64.2-0.4c1.6,0,3.1-0.8,3.9-2.1c0.8-1.4,0.9-3.1,0.2-4.5
	c-8-15-16.9-28.7-26-41.8c21.1,10,42.5,20.4,63.1,31.8L282.1,522.9z M195.9,390.2c33.9-13,73-13.5,107.2-1.4
	c2.3,0.8,3.6,3.4,2.7,5.7c-0.8,2.3-3.4,3.6-5.7,2.7c-32.2-11.4-69-11-100.9,1.3c-0.5,0.2-1.1,0.3-1.6,0.3c-1.8,0-3.5-1.1-4.2-2.9
	C192.4,393.7,193.5,391.1,195.9,390.2z M960.7,465.6c1.8,0.9,4,0.6,5.4-0.9c34.9-36.6,77.6-66.9,123.6-87.9c3.8,8.8,6.3,17.4,9,26.4
	c0.5,1.8,2.1,3,3.9,3.2c1.8,0.2,3.6-0.8,4.4-2.5l44.8-89.1c0.7-1.4,0.6-3.1-0.2-4.4c-0.8-1.3-2.3-2.1-3.8-2.1c0,0,0,0-0.1,0l-89.4,1
	c-1.5,0-3,0.8-3.8,2.2s-0.9,3-0.2,4.4l14.8,29.7c-28,13.1-55.5,30.7-81.8,52.5l0.8-26.2c0.1-1.8-1-3.5-2.6-4.2
	c-1.7-0.8-3.6-0.4-4.9,0.8c-30.3,28.2-53.1,62-67.6,100.3c-0.8,2.1,0.1,4.4,2,5.5c0.7,0.4,1.4,0.6,2.2,0.6c1.4,0,2.7-0.6,3.6-1.7
	c13.4-17.2,28.4-33.1,44.9-47.4l-7.3,35C958,462.6,958.9,464.6,960.7,465.6z M934.3,443.5c11.7-22.3,26.6-42.7,44.6-60.9l-0.8,25.2
	c-0.1,1.8,1,3.4,2.6,4.2c1.6,0.8,3.5,0.5,4.9-0.7c29.3-25.4,60.2-45.5,91.7-59.7c1.1-0.5,2-1.4,2.4-2.6s0.3-2.4-0.2-3.5l-13.7-27.4
	l74.8-0.9l-36.5,72.5c-2.2-6.8-4.7-13.8-8-20.9c-1-2.2-3.7-3.2-5.9-2.2c-44,19.5-85.1,47.3-119.8,80.9l6.9-32.7
	c0.4-1.9-0.4-3.8-2-4.8c-0.7-0.4-1.5-0.7-2.4-0.7c-1,0-2,0.3-2.8,1C957.3,420.6,945.4,431.6,934.3,443.5z M1193,154.3
	c0.4,7.8,6,13.1,15.3,14.1c1.2,0.1,2.5,0.2,3.7,0.2c4.9,0,9.6-1,14.5-2.1c9.6-2.2,20.9-5.2,35-9.5c3.6,15.6,6.9,31.3,10.2,46.6
	c0.4,2,2.2,3.5,4.3,3.6c0.2,0,0.3,0,0.5,0c5.8,0,11.6-3.5,15.3-9.2c3-4.6,4.3-9.6,5.5-14.5l0.1-0.4c3.6-14.1,7.9-28.7,12.8-43.5
	c16.9-7.5,34.2-16.5,48.7-25.5c4.6-2.8,9.3-5.9,13.2-10.2c4.6-5.1,7.1-11.2,6.9-17.1c-0.2-6-3.9-13-10.7-14.7
	c-4.5-1.1-8.7,0.4-12.2,1.9c-0.7,0.3-1.3,0.6-2,0.9c-2.2-2.9-6-4.6-10.1-4.2c-3.6,0.3-6.7,2-9.1,3.3c-23.6,12.8-46.6,25.2-69.6,37.6
	c-12.8,6.9-25.7,13.9-38.6,20.9c-7.8-8.1-15.6-15.8-23.3-22.7c-1.4-1.3-3.4-1.5-5.1-0.7c-4.3,2.2-8,4.2-11.8,6.2
	c-1.8,1-2.8,3.1-2.3,5.1C1186.9,131.7,1190,143.2,1193,154.3z M1288.6,181l-0.1,0.4c-1.1,4.4-2.2,8.5-4.3,11.8
	c-1.3,1.9-2.9,3.4-4.6,4.3c-3.9-18.4-7.9-37.3-12.5-55.9c13-6.4,26.3-12.8,39.2-18.1C1299.3,143.1,1293.4,162.4,1288.6,181z
	 M1269.4,119.5c23-12.4,46-24.8,69.6-37.6c1.5-0.8,3.1-1.7,4.6-2.1c-4.4,2.3-8.8,4.7-13,7.4c-2.1,1.3-2.8,4.1-1.4,6.2
	c1.3,2.1,4.1,2.8,6.2,1.4c7.7-4.8,15.8-9,24.1-12.5c2.2-0.9,4.8-1.9,6.6-1.5c2.3,0.6,3.7,3.6,3.8,6.2c0.1,4.8-2.8,8.8-4.6,10.8
	c-3.1,3.4-7.1,6-11.2,8.6c-12,7.4-25.9,14.9-40,21.5c1.3-3.6,2.5-7.2,3.9-10.9c0.6-1.7,0.2-3.5-1.1-4.7s-3.1-1.6-4.7-1
	c-17.1,6.4-35,15.2-52.4,23.7c-1.9,0.9-2.9,3.1-2.4,5.2c0.7,2.7,1.4,5.4,2,8.1c-14.2,4.3-25.3,7.4-34.9,9.5
	c-5.5,1.2-10.5,2.2-15.3,1.7c-4.6-0.5-6.3-2.2-6.9-3.7C1225.1,143.5,1247.2,131.5,1269.4,119.5z M1199.4,118.5
	c6.2,5.7,12.5,11.9,18.8,18.4c-6,3.2-12,6.5-18,9.7c-2.2-8.3-4.4-16.7-6.6-25.1C1195.5,120.6,1197.4,119.6,1199.4,118.5z
	 M1439.8,465.8c-10.1-6.1-23.1-6.3-33.6-1.3c-3-2-6.6-3.4-10.4-4.1c-7.2-1.2-15.2,0.3-23.3,4.3c-3.8-2.8-8.3-4.7-12.8-5.4
	c-9.4-1.3-19.7,1.7-31.4,8.9c-2.1,1.3-2.8,4.1-1.4,6.2c1.3,2.1,4.1,2.8,6.2,1.4c9.8-6.1,18.1-8.6,25.4-7.6c1.8,0.2,3.6,0.8,5.4,1.6
	c-3,2.2-6,5.2-7.8,9.1c-3,6.6-1.2,14.3,4.1,17.9c2.1,1.4,4.6,2.1,7.1,2.1c2.8,0,5.6-0.8,7.9-2.5c3.8-2.6,6.3-7.2,6.8-12.2
	c0.5-4.7-0.8-9-3.1-12.7c4.7-1.9,10.1-3.2,15.4-2.3c1.1,0.2,2.3,0.5,3.4,0.9c-0.2,0.2-0.4,0.4-0.5,0.5c-4,3.9-6.4,8.4-6.8,12.9
	c-0.6,6.2,2.7,12.2,8,14.3c3.7,1.5,7.9,0.9,11.4-1.6c4.4-3.1,7.3-8.7,7.1-13.9c-0.1-4-1.4-7.8-3.7-11.1c7.2-2.4,15.5-1.8,21.9,2.1
	c2.1,1.3,4.9,0.6,6.2-1.5C1442.6,469.8,1441.9,467.1,1439.8,465.8z M1373,483.5c-0.2,2.4-1.4,4.6-3,5.7c-1.5,1-3.6,1.2-4.8,0.3
	c-1.6-1.1-2.1-4.3-1-6.8c1.1-2.4,3.2-4.5,6.7-6.8C1372.4,478.2,1373.2,480.8,1373,483.5z M1404.6,489c-1.1,0.7-2,0.9-2.9,0.6
	c-1.5-0.6-2.6-2.8-2.4-5c0.3-3,2.4-5.7,4.2-7.4c0.5-0.5,1.1-1,1.7-1.5c1.6,2,2.6,4.4,2.7,7C1407.9,485,1406.5,487.6,1404.6,489z
	 M1214.8,187.2L1145,226c-0.7,0.4-1.4,0.6-2.2,0.6c-1.6,0-3.1-0.8-3.9-2.3c-1.2-2.2-0.4-4.9,1.7-6.1l69.8-38.9
	c2.2-1.2,4.9-0.4,6.1,1.7C1217.7,183.2,1217,186,1214.8,187.2z M1176.7,235.8c-19.7,11.5-39.5,23.3-58.7,34.7
	c-0.7,0.4-1.5,0.6-2.3,0.6c-1.5,0-3-0.8-3.9-2.2c-1.3-2.1-0.6-4.9,1.6-6.2c19.2-11.4,39-23.2,58.7-34.8c2.1-1.3,4.9-0.5,6.2,1.6
	C1179.5,231.8,1178.8,234.6,1176.7,235.8z M1191.6,223.1c-1.3-2.1-0.6-4.9,1.5-6.2c14-8.4,28.4-17,42.8-25.7
	c2.1-1.3,4.9-0.6,6.2,1.5c1.3,2.1,0.6,4.9-1.5,6.2c-14.4,8.7-28.8,17.3-42.8,25.7c-0.7,0.4-1.5,0.6-2.3,0.6
	C1194,225.3,1192.5,224.5,1191.6,223.1z M1125.6,165.6c13.9-8.3,28.3-17,42.4-25.5c2.1-1.3,4.9-0.6,6.2,1.5c1.3,2.1,0.6,4.9-1.5,6.2
	c-14.1,8.5-28.5,17.1-42.4,25.5l-0.4,0.2c-0.7,0.4-1.5,0.6-2.3,0.6c-1.5,0-3-0.8-3.9-2.2c-1.3-2.1-0.6-4.9,1.5-6.2L1125.6,165.6z
	 M1399.6,340.4l-104.3-17.3c-2.5-0.4-4.1-2.7-3.7-5.2c0.4-2.5,2.7-4.1,5.2-3.7l99.9,16.6c1.2-13.5-8.2-25.8-21.7-28.1
	c-1.9-0.3-3.9-0.4-5.9-0.3c-1.4,0.1-2.7-0.5-3.6-1.5c-0.9-1-1.3-2.4-1.1-3.8l0.1-0.6c2.1-12.4-0.8-24.8-8.1-35
	c-7.3-10.2-18.1-17-30.5-19c-9.6-1.6-19.4-0.2-28.2,4c-1.7,0.8-3.6,0.5-5-0.7c-3.1-2.8-6.9-4.7-11-5.3c-11.7-2-22.9,6-24.9,17.8
	c-0.3,1.9-0.4,3.9-0.2,5.8c0.2,1.5-0.4,2.9-1.5,3.9c-1.1,1-2.6,1.3-4.1,0.9c-1-0.3-1.9-0.5-2.8-0.6c-8.5-1.4-17,0.5-23.9,5.5
	c-7,5-11.6,12.4-13,20.8c-0.3,1.7-0.4,3.4-0.4,5.1l44.8,7.5c2.5,0.4,4.1,2.7,3.7,5.2c-0.4,2.5-2.7,4.1-5.2,3.7L1206,308
	c-2-0.3-3.5-2-3.7-4c-0.4-3.6-0.2-7.3,0.4-10.9c1.8-10.8,7.7-20.3,16.7-26.7c8.4-6,18.4-8.5,28.5-7.4c0.1-0.8,0.2-1.6,0.3-2.4
	c2.8-16.7,18.6-27.9,35.3-25.2c4.8,0.8,9.3,2.7,13.2,5.6c9.8-4.1,20.4-5.4,30.9-3.6c14.7,2.5,27.6,10.5,36.3,22.7
	c7.8,10.9,11.4,24,10.2,37.3c0.8,0.1,1.7,0.2,2.5,0.3c19.1,3.2,32.1,21.3,28.9,40.5c-0.1,0.9-0.3,1.8-0.6,2.8
	c-0.5,2-2.3,3.4-4.4,3.4C1400.1,340.5,1399.9,340.5,1399.6,340.4z M1252.1,337.8c-0.9-6.8-6.2-12.6-13.3-13.8
	c-4.2-0.7-8.5,0.3-12,2.8c-3.5,2.5-5.8,6.2-6.5,10.5c-1.5,8.8,4.5,17.1,13.2,18.6c0.9,0.2,1.8,0.2,2.7,0.2c3.3,0,6.6-1,9.3-3
	c2.3-1.7,4.1-3.8,5.3-6.4l19.1,3.2c0.3,0,0.5,0.1,0.7,0.1c2.2,0,4.1-1.6,4.4-3.8l9.3-55.4c2.7-0.3,5.2-1.3,7.5-2.9
	c3.5-2.5,5.8-6.2,6.5-10.5s-0.3-8.5-2.8-12c-2.5-3.5-6.2-5.8-10.5-6.5c-4.2-0.7-8.5,0.3-12,2.8c-3.5,2.5-5.8,6.2-6.5,10.5
	c-1.2,7.2,2.6,14.1,8.9,17.2l-8.5,50.9L1252.1,337.8z M1243.1,341.1c-0.3,1.9-1.3,3.5-2.9,4.6s-3.4,1.5-5.3,1.2
	c-3.9-0.6-6.5-4.3-5.9-8.2c0.3-1.9,1.3-3.5,2.9-4.6c1.2-0.9,2.7-1.3,4.1-1.3c0.4,0,0.8,0,1.2,0.1
	C1241.2,333.6,1243.8,337.2,1243.1,341.1z M1275.3,273.7c0.3-1.9,1.3-3.5,2.9-4.6c1.2-0.9,2.7-1.3,4.1-1.3c0.4,0,0.8,0,1.2,0.1
	c1.9,0.3,3.5,1.3,4.6,2.9c1.1,1.5,1.5,3.4,1.2,5.3v0c-0.3,1.9-1.3,3.5-2.9,4.6s-3.4,1.5-5.3,1.2
	C1277.3,281.2,1274.7,277.5,1275.3,273.7z M1333.7,281.1c3.3-2.4,5.5-5.9,6.2-9.9c0.7-4-0.3-8-2.6-11.3c-2.4-3.3-5.9-5.5-9.9-6.2
	c-4-0.7-8,0.3-11.3,2.6c-3.3,2.4-5.5,5.9-6.2,9.9c-0.7,4,0.3,8,2.6,11.3c1.5,2,3.4,3.7,5.5,4.8l-3.1,18.7c-0.2,1.2,0.1,2.4,0.8,3.4
	c0.7,1,1.7,1.6,2.9,1.8l23.4,3.9c0.3,0,0.5,0.1,0.7,0.1c2.2,0,4.1-1.6,4.4-3.8c0.4-2.5-1.2-4.8-3.7-5.2l-19-3.2l2.4-14.3
	C1329.3,283.5,1331.7,282.6,1333.7,281.1z M1318.8,267.7c0.3-1.6,1.2-3.1,2.5-4c1.1-0.8,2.3-1.2,3.6-1.2c0.3,0,0.7,0,1,0.1
	c1.6,0.3,3.1,1.2,4,2.5c1,1.3,1.3,3,1.1,4.6c0,0,0,0,0,0c-0.3,1.6-1.2,3.1-2.5,4s-3,1.3-4.6,1.1c-1.6-0.3-3.1-1.2-4-2.5
	C1318.9,271,1318.5,269.4,1318.8,267.7z M1585.1,165.5c-0.5-3.4-2.4-6.4-5.2-8.4c-2.8-2-6.2-2.9-9.6-2.3c-7,1.1-11.9,7.8-10.8,14.8
	c0,0,0,0,0,0c0.3,2.1,1.2,4.1,2.4,5.7l-7.8,10.4l-22.7-17.1l10.7-14.2c0.7-1,1-2.2,0.9-3.3c-0.2-1.2-0.8-2.2-1.8-3L1529,139
	l16.5-21.9l10.4,7.8c-0.7,1.9-1,4-0.7,6.2c0.8,6.5,6.4,11.3,12.8,11.3c0.5,0,1.1,0,1.6-0.1c7.1-0.9,12.1-7.4,11.2-14.4
	c-0.9-7.1-7.4-12.1-14.4-11.2c-1.6,0.2-3.2,0.7-4.6,1.5l-14.6-10.9c-2-1.5-4.8-1.1-6.3,0.9l-19.2,25.5l-18.9-14.2l25.9-34.5
	c0.7-1,1-2.2,0.9-3.3c-0.2-1.2-0.8-2.2-1.8-3l-23.5-17.7c0.1-1.2,0.1-2.3-0.1-3.5c-0.5-3.4-2.4-6.4-5.2-8.4c-2.8-2-6.2-2.9-9.6-2.3
	c-3.4,0.5-6.4,2.4-8.4,5.2c-2,2.8-2.9,6.2-2.3,9.6c0.5,3.4,2.4,6.4,5.2,8.4c2.2,1.6,4.9,2.5,7.6,2.5c0.7,0,1.4-0.1,2.1-0.2
	c2.5-0.4,4.8-1.5,6.6-3.2l18.7,14l-23.2,30.9l-10.6-8c-2-1.5-4.8-1.1-6.3,0.9l-10.7,14.2l-23-17.3l7.8-10.4c1.4,0.5,3,0.8,4.6,0.8
	c0.5,0,1.1,0,1.6-0.1c7.1-0.9,12.1-7.4,11.2-14.4c-0.9-7.1-7.4-12.1-14.4-11.2c-3.4,0.4-6.5,2.2-8.6,4.9c-2.1,2.7-3.1,6.1-2.6,9.5
	c0.2,1.7,0.7,3.2,1.5,4.6l-10.9,14.5c-1.5,2-1.1,4.8,0.9,6.3l26.6,20l-13.6,18.1l-26.6-20c-1-0.7-2.2-1-3.3-0.9
	c-1.2,0.2-2.2,0.8-3,1.8l-10.9,14.5c-1.6-0.3-3.2-0.4-4.8-0.1c-7,1.1-11.9,7.8-10.8,14.8c1,6.4,6.5,10.9,12.8,10.9
	c0.7,0,1.4-0.1,2-0.2c3.4-0.5,6.4-2.4,8.4-5.2s2.9-6.2,2.3-9.6c-0.3-2.1-1.2-4.1-2.4-5.7l7.8-10.4l23,17.3l-7,9.3
	c-0.7,1-1,2.2-0.9,3.3c0.2,1.2,0.8,2.2,1.8,3l10.2,7.7l-17.3,23l-10.4-7.8c0.7-1.9,1-4,0.7-6.2c0,0,0,0,0,0
	c-0.9-7.1-7.4-12.1-14.4-11.2c-3.4,0.4-6.5,2.2-8.6,4.9c-2.1,2.7-3.1,6.1-2.6,9.5c0.8,6.5,6.4,11.3,12.8,11.3c0.5,0,1.1,0,1.6-0.1
	c1.6-0.2,3.2-0.7,4.6-1.5l14.6,10.9c0.8,0.6,1.8,0.9,2.7,0.9c1.4,0,2.7-0.6,3.6-1.8l20-26.6l18.1,13.6l-32.9,43.8
	c-1.5,2-1.1,4.8,0.9,6.3l14.3,10.8c-0.5,1.8-0.6,3.6-0.3,5.5c0.5,3.4,2.4,6.4,5.2,8.4c2.2,1.6,4.9,2.5,7.6,2.5
	c0.7,0,1.4-0.1,2.1-0.2c3.4-0.5,6.4-2.4,8.4-5.2s2.9-6.2,2.3-9.6c-1.1-7-7.7-11.9-14.8-10.8c-1.9,0.3-3.6,1-5.2,2l-10.6-8l30.2-40.2
	l13.3,10c0.8,0.6,1.8,0.9,2.7,0.9c1.4,0,2.7-0.6,3.6-1.8l7-9.3l22.7,17.1l-7.8,10.4c-1.9-0.7-4-1-6.2-0.7c0,0,0,0,0,0
	c-7.1,0.9-12.1,7.4-11.2,14.4c0.4,3.4,2.2,6.5,4.9,8.6c2.3,1.8,5.1,2.7,7.9,2.7c0.5,0,1.1,0,1.6-0.1c7.1-0.9,12.1-7.4,11.2-14.4
	c-0.2-1.6-0.7-3.2-1.5-4.6l10.9-14.5c0.7-1,1-2.2,0.9-3.3c-0.2-1.2-0.8-2.2-1.8-3l-26.3-19.8l13.6-18.1l26.3,19.8
	c0.8,0.6,1.8,0.9,2.7,0.9c1.4,0,2.7-0.6,3.6-1.8l10.9-14.6c0.9,0.2,1.8,0.3,2.8,0.3c0.7,0,1.4-0.1,2-0.2c3.4-0.5,6.4-2.4,8.4-5.2
	C1584.8,172.3,1585.6,168.9,1585.1,165.5z M1567.6,125.5c0.2,0,0.3,0,0.5,0c2,0,3.7,1.5,3.9,3.5c0.3,2.2-1.3,4.1-3.4,4.4
	c-2.2,0.3-4.1-1.3-4.4-3.4C1563.9,127.8,1565.4,125.8,1567.6,125.5z M1492.3,63.3c-1,0.2-2.1-0.1-2.9-0.7s-1.4-1.5-1.6-2.6
	c-0.2-1,0.1-2.1,0.7-2.9c0.6-0.9,1.5-1.4,2.6-1.6c0.2,0,0.4,0,0.6,0c1.9,0,3.6,1.4,3.9,3.3c0.2,1-0.1,2.1-0.7,2.9
	C1494.2,62.6,1493.3,63.1,1492.3,63.3z M1454.4,78.8c0.6-0.8,1.6-1.4,2.6-1.5c0.2,0,0.3,0,0.5,0c2,0,3.7,1.5,3.9,3.4
	c0.3,2.2-1.3,4.1-3.4,4.4c0,0,0,0,0,0c-2.2,0.3-4.1-1.3-4.4-3.4C1453.5,80.7,1453.8,79.6,1454.4,78.8z M1405.7,156.7
	c-0.6,0.9-1.5,1.4-2.6,1.6c-2.1,0.3-4.2-1.1-4.5-3.3c-0.3-2.1,1.1-4.2,3.3-4.5c0.2,0,0.4,0,0.6,0c0.8,0,1.6,0.3,2.3,0.8
	c0.9,0.6,1.4,1.5,1.6,2.6c0,0,0,0,0,0C1406.5,154.9,1406.3,155.9,1405.7,156.7z M1408.5,191.4c-2.1,0.3-4.1-1.3-4.4-3.4
	c-0.1-1,0.2-2.1,0.8-2.9c0.6-0.8,1.6-1.4,2.6-1.5c0.2,0,0.3,0,0.5,0c2,0,3.7,1.5,3.9,3.4C1412.2,189.1,1410.7,191.1,1408.5,191.4z
	 M1467.4,256.3c1-0.2,2.1,0.1,2.9,0.7c0.9,0.6,1.4,1.5,1.6,2.6c0.2,1-0.1,2.1-0.7,2.9c-0.6,0.9-1.5,1.4-2.6,1.6
	c-1,0.2-2.1-0.1-2.9-0.7s-1.4-1.5-1.6-2.6c-0.2-1,0.1-2.1,0.7-2.9C1465.4,257,1466.3,256.5,1467.4,256.3z M1517.8,244.7
	c-1,0.1-2.1-0.2-2.9-0.8c-0.8-0.6-1.4-1.6-1.5-2.6c-0.3-2.2,1.3-4.1,3.4-4.4c1-0.1,2.1,0.2,2.9,0.8c0.8,0.6,1.4,1.6,1.5,2.6
	C1521.4,242.4,1519.9,244.4,1517.8,244.7z M1495.5,201.4l-48.8-36.7l36.7-48.8l48.8,36.7L1495.5,201.4z M1575.5,169.8
	c-0.6,0.9-1.5,1.4-2.6,1.6c-2.1,0.3-4.2-1.1-4.5-3.3c-0.3-2.1,1.1-4.2,3.3-4.5c1-0.2,2.1,0.1,2.9,0.7s1.4,1.5,1.6,2.6
	C1576.4,168,1576.1,169,1575.5,169.8z M982.5,281.2c-1.4,1.1-2,2.8-1.6,4.5c0.4,1.7,1.7,3,3.3,3.4c2.7,0.7,5.5,1,8.3,1
	c6.4,0,12.7-1.7,18.3-4.9c4.1-2.4,7.6-5.6,10.5-9.4c0.4,0.3,0.8,0.5,1.3,0.7c7.1,2.1,16,4,25.5,4c8.5,0,17.4-1.5,26-5.5
	c20.5-9.7,33.5-32.6,31.6-55.8c-1.8-22.1-17.2-42.9-38.4-51.8c-20.4-8.5-45-6.1-64.3,6.5c-14.6,9.5-24.5,23.7-27.1,38.9
	c-3,17.3,3.9,35.1,17.3,44.3C993.7,266.1,989.7,275.6,982.5,281.2z M984.7,214.3c2.2-12.8,10.7-24.8,23.2-32.9
	c16.8-10.9,38.2-13.1,55.9-5.7c18.1,7.6,31.3,25.3,32.9,44.2c1.6,19.3-9.6,39-26.5,47c-15.4,7.2-32.6,4.7-44.5,1.2
	c0.6-1.3,1-2.7,1.4-4.1c0.7-2.4-0.7-4.9-3.1-5.5c-2.4-0.7-4.9,0.7-5.5,3.1c-1.9,6.6-6.3,12.4-12.3,15.9c-3.4,2-7.3,3.2-11.2,3.6
	c6.8-9.5,9.1-22.3,5.5-33.4c-0.8-2.4-3.3-3.7-5.7-2.9c-0.5,0.2-0.9,0.4-1.3,0.7C986.3,237.6,982.7,225.7,984.7,214.3z M1007.3,204.3
	c2.7-5.1,9-7,14.1-4.3c5.1,2.7,7,9,4.3,14.1c-2.7,5.1-9,7-14.1,4.3C1006.5,215.7,1004.6,209.4,1007.3,204.3z M1032.6,217.8
	c2.7-5.1,9-7,14.1-4.3s7,9,4.3,14.1s-9,7-14.1,4.3C1031.8,229.1,1029.8,222.8,1032.6,217.8z M1057.8,231.2c2.7-5.1,9-7,14.1-4.3
	c5.1,2.7,7,9,4.3,14.1s-9,7-14.1,4.3S1055.1,236.3,1057.8,231.2z M1337.5,405.9l8.7-2.2c-45-21.9-97.8-26.3-145.8-11.8
	c-2.4,0.7-4.9-0.6-5.6-3c-0.7-2.4,0.6-4.9,3-5.6c49.1-14.8,102.9-10.8,149.2,10.8l-2.2-4.3c-1.1-2.2-0.3-4.9,1.9-6.1
	c2.2-1.1,4.9-0.3,6.1,1.9l9.2,17.7c0.6,1.2,0.7,2.7,0.1,3.9s-1.7,2.2-3,2.5l-19.4,4.9c-0.4,0.1-0.7,0.1-1.1,0.1
	c-2,0-3.8-1.4-4.4-3.4C1333.7,408.9,1335.1,406.5,1337.5,405.9z M919.6,325.9c0,0,0.1,0,0.1,0c2.4,0,4.4-1.9,4.5-4.4
	c1.2-50.8,19.1-102.8,50.5-146.4c31.4-43.6,75-77.1,122.8-94.3c1-0.3,1.7-1,2.2-1.8c1.3,0.9,3,1.5,4.7,1.4c0.3,0,0.6-0.1,0.9-0.1
	c2.8,6.3,7.5,11.5,13.5,15.2c5.5,3.3,11.6,5,17.9,5c2.7,0,5.5-0.3,8.2-1c1.2-0.3,2.2-1,2.8-2c0.6-1,0.8-2.2,0.5-3.4l-3.6-14.6
	l16.2-3.9c2.3-0.6,3.7-2.9,3.2-5.2v0c-0.6-2.3-2.9-3.7-5.2-3.2l-16.2,3.9l-3.8-15.5l16.4-4c2.3-0.6,3.7-2.9,3.2-5.2
	c-0.6-2.3-2.9-3.7-5.2-3.2l-16.4,4l-2.8-11.5c-0.6-2.4-3-3.9-5.4-3.3c-9,2.2-16.5,7.7-21.3,15.6c-3.3,5.4-5,11.4-5,17.5
	c-3.1,0.7-5.5,3.4-5.8,6.6c-0.7-0.1-1.4,0-2.1,0.2c-49.5,17.8-94.6,52.4-127.1,97.5c-32.5,45.1-51,98.8-52.2,151.4
	C915.2,323.8,917.1,325.8,919.6,325.9z M1115.2,52.7c2.8-4.5,6.7-8,11.5-10.1l11.9,48.9c-5.2,0.3-10.3-0.9-14.8-3.7
	c-5.8-3.5-9.9-9.1-11.5-15.8C1110.6,65.4,1111.6,58.5,1115.2,52.7z M572.7,144c-1.6,1.9-1.2,4.8,0.7,6.3c0.8,0.7,1.8,1,2.8,1
	c1.3,0,2.6-0.6,3.5-1.7l9.5-11.8l20.6,44c0.8,1.6,2.4,2.6,4.1,2.6c0.6,0,1.3-0.1,1.9-0.4l64-30c2.3-1.1,3.2-3.7,2.2-6l-20.8-44.4
	l15.1,0.2c2.5,0.1,4.5-1.9,4.6-4.4c0-2.5-1.9-4.5-4.4-4.6l-29.7-0.5l-8.4-17.9l-11.2,5.3l5.8,12.4L615.1,94c-0.8,0-1.5,0.2-2.1,0.5
	c-0.7,0.3-1.3,0.7-1.7,1.3l-11.5,14.5L572.7,144z M651.6,157.3l-14.8-31.7l-15.4,7.2l14.8,31.7L616,174l-20.5-43.8l11.3-14.3
	l10.2-12.7l34.3,0.9l20.5,43.8L651.6,157.3z M494,123.5l-5.2,2.4l-0.1-0.3c-1.9-4-6.7-5.8-10.7-3.9l0,0c-4,1.9-5.8,6.7-3.9,10.7
	l0.1,0.3l-5.2,2.4c-2.3,1.1-3.2,3.7-2.2,6l11.4,24.3c2.7,5.7,2.7,12.4,0.2,18.4c-4.6,10.7-4.2,22.8,1.2,33.2
	c6.8,13.3,20.6,21.1,34.8,21.1c4.9,0,9.9-0.9,14.6-2.9c10-4.1,17.6-11.9,21.5-21.9c3.9-10,3.5-20.9-1-30.7
	c-4.7-10-13.5-17.6-24.1-20.8c-6.3-1.9-11.4-6.2-14.1-11.9L500,125.6C499,123.4,496.3,122.4,494,123.5z M498.5,143.7l-16.8,7.9
	l-4.8-10.2l16.8-7.9L498.5,143.7z M522.9,170.5c8.2,2.5,14.9,8.3,18.5,16c3.5,7.5,3.8,15.9,0.8,23.6c-3,7.7-8.9,13.7-16.6,16.9
	c-14.3,5.9-31-0.3-38-14c-4.1-8-4.4-17.3-0.9-25.6c3.6-8.3,3.5-17.7-0.3-25.8l-0.9-1.9l16.8-7.9l0.9,1.9
	C507,161.8,514.2,167.9,522.9,170.5z M478,39.5c-1.1-2.3-0.1-4.9,2.2-6l23.5-11c2.3-1.1,4.9-0.1,6,2.2s0.1,4.9-2.2,6l-23.5,11
	c-0.6,0.3-1.3,0.4-1.9,0.4C480.4,42.1,478.8,41.1,478,39.5z M589.5,55.5c-1.1-2.3-0.1-4.9,2.2-6c2.3-1.1,4.9-0.1,6,2.2l11,23.5
	c1.1,2.3,0.1,4.9-2.2,6c-0.6,0.3-1.3,0.4-1.9,0.4c-1.7,0-3.3-1-4.1-2.6L589.5,55.5z M465.9,87l11,23.5c1.1,2.3,0.1,4.9-2.2,6
	c-0.6,0.3-1.3,0.4-1.9,0.4c-1.7,0-3.3-1-4.1-2.6l-11-23.5c-1.1-2.3-0.1-4.9,2.2-6C462.2,83.8,464.9,84.7,465.9,87z M567.5,8.4
	c-1.1-2.3-0.1-4.9,2.2-6c2.3-1.1,4.9-0.1,6,2.2l11,23.5c1.1,2.3,0.1,4.9-2.2,6c-0.6,0.3-1.3,0.4-1.9,0.4c-1.7,0-3.3-1-4.1-2.6
	L567.5,8.4z M441.7,56.5c-1.1-2.3-0.1-4.9,2.2-6l12.8-6c2.3-1.1,4.9-0.1,6,2.2c1.1,2.3,0.1,4.9-2.2,6l-8.7,4.1l3.1,6.7
	c1.1,2.3,0.1,4.9-2.2,6c-0.6,0.3-1.3,0.4-1.9,0.4c-1.7,0-3.3-1-4.1-2.6L441.7,56.5z M525.1,17.4c-1.1-2.3-0.1-4.9,2.2-6l23.5-11
	c2.3-1.1,4.9-0.1,6,2.2c1.1,2.3,0.1,4.9-2.2,6l-23.5,11c-0.6,0.3-1.3,0.4-1.9,0.4C527.5,20,525.9,19.1,525.1,17.4z M664.1,254.3
	c0,9,7.3,16.3,16.3,16.3s16.3-7.3,16.3-16.3c0-1.2-0.1-2.4-0.4-3.5l3.9-2.3l11.6,23c0,0.1,0.1,0.2,0.1,0.3c0,0.1,0.1,0.2,0.2,0.3
	l6.3,12.4c-3.9,3-6.4,7.7-6.4,12.9c0,9,7.3,16.3,16.3,16.3s16.3-7.3,16.3-16.3c0-9-7.3-16.3-16.3-16.3c-0.5,0-1.1,0-1.6,0.1
	l-4.8-9.5l18.1-9.3l22.1,43.7c-3.6,3-5.8,7.5-5.8,12.5c0,9,7.3,16.3,16.3,16.3s16.3-7.3,16.3-16.3c0-9-7.3-16.3-16.3-16.3
	c-0.8,0-1.5,0.1-2.3,0.2l-12.2-24.2l18.6-9.7c2.1-1.1,3-3.7,2-5.9l-8.6-18.7c3-3,4.9-7.1,4.9-11.7c0-9-7.3-16.3-16.3-16.3
	s-16.3,7.3-16.3,16.3s7.3,16.3,16.3,16.3c1.2,0,2.4-0.1,3.5-0.4l6.5,14.2l-14.7,7.6l-8.1-16c-0.5-1.1-1.5-1.9-2.6-2.3
	c-1.1-0.4-2.4-0.3-3.5,0.3l-22,11.4l-10-19.7l23.4-13.6c2.1-1.2,2.9-3.9,1.7-6.1l-7.6-13.6c2.7-2.9,4.4-6.8,4.4-11.1
	c0-9-7.3-16.3-16.3-16.3s-16.3,7.3-16.3,16.3s7.3,16.3,16.3,16.3c1.5,0,2.9-0.2,4.3-0.6l5.3,9.5l-31.1,18.1
	c-1.8-1.8-4.1-3.3-6.6-4.1c-1.6-0.5-3.3-0.8-5-0.8C671.4,238,664.1,245.3,664.1,254.3z M735.9,297.4c0,4.1-3.3,7.3-7.3,7.3
	c-4.1,0-7.3-3.3-7.3-7.3c0-4.1,3.3-7.3,7.3-7.3C732.6,290.1,735.9,293.4,735.9,297.4z M780.2,318.6c0,4.1-3.3,7.3-7.3,7.3
	c-4.1,0-7.3-3.3-7.3-7.3c0-4.1,3.3-7.3,7.3-7.3C776.9,311.3,780.2,314.6,780.2,318.6z M751.6,232.4c0-4.1,3.3-7.3,7.3-7.3
	c4.1,0,7.3,3.3,7.3,7.3s-3.3,7.3-7.3,7.3C754.9,239.7,751.6,236.5,751.6,232.4z M706.3,199.6c0-4.1,3.3-7.3,7.3-7.3
	c4.1,0,7.3,3.3,7.3,7.3c0,2.4-1.2,4.5-2.9,5.9c-0.1,0.1-0.3,0.1-0.4,0.2c-0.3,0.2-0.5,0.3-0.8,0.5c-1,0.5-2.1,0.8-3.2,0.8
	C709.6,207,706.3,203.7,706.3,199.6z M682.7,247.3c3,1,5.1,3.8,5.1,7c0,4.1-3.3,7.3-7.3,7.3c-4.1,0-7.3-3.3-7.3-7.3
	c0-4.1,3.3-7.3,7.3-7.3C681.2,247,682,247.1,682.7,247.3C682.7,247.3,682.7,247.3,682.7,247.3z M488.5,512.5l5.5-4.8
	c2.5-2.2,4-5.2,4.2-8.6c0.2-3.3-0.9-6.5-3.1-9l-15.8-18c-4.5-5.2-12.4-5.7-17.6-1.2l-3.6,3.2l-38.5-41.6c-1.3-1.4-3.5-1.5-4.9-0.3
	c-1.5,1.3-1.6,3.5-0.3,5l37.3,42.5l-53.5,47l-38.5-41.6c-1.3-1.4-3.5-1.5-4.9-0.3c-1.5,1.3-1.6,3.5-0.3,5l37.3,42.5l-2.3,2
	c-2.5,2.2-4,5.2-4.2,8.6c-0.2,3.3,0.9,6.5,3.1,9l15.8,18c2.5,2.8,5.9,4.2,9.4,4.2c2.9,0,5.9-1,8.2-3.1l3.1-2.7
	c2.8,2.5,6.5,3.8,10.1,3.8c3.5,0,7.1-1.2,10-3.8l41.1-36.1C491.8,527.3,492.7,518.7,488.5,512.5z M415.7,564.3
	c-1.4,1.3-3.7,1.1-4.9-0.3L395,546c-0.6-0.7-0.9-1.6-0.9-2.5c0.1-0.9,0.5-1.8,1.2-2.4l72.3-63.4c0.7-0.6,1.5-0.9,2.3-0.9
	c1,0,1.9,0.4,2.6,1.2l15.8,18c0.6,0.7,0.9,1.6,0.9,2.5c-0.1,0.9-0.5,1.8-1.2,2.4c0,0,0,0,0,0L415.7,564.3z M480,525.6l-41.1,36.1
	c-2.1,1.8-5,2-7.2,0.6l49.9-43.8C482.6,520.9,482.1,523.8,480,525.6z M422.4,537.7c3.4,3.8,3,9.7-0.9,13.1s-9.7,3-13.1-0.9
	c-3.4-3.8-3-9.7,0.9-13.1C413.2,533.5,419.1,533.9,422.4,537.7z M355,468.5c-3.7-0.9-7.7,0-10.6,2.5c-2.9,2.4-4.4,6-4.2,9.7
	c0.1,2.5-1.8,4.6-4.2,4.7c-0.1,0-0.2,0-0.2,0c-2.4,0-4.4-1.9-4.5-4.3c-0.4-6.6,2.3-12.8,7.4-17.1c5.1-4.3,12-5.9,18.5-4.3
	c2.4,0.6,3.9,3,3.3,5.5C359.8,467.6,357.4,469.1,355,468.5z M308.2,475.8c1.2-10.9,6.5-20.8,14.8-27.9c8.6-7.3,19.5-10.8,30.7-10
	c2.5,0.2,4.3,2.3,4.2,4.8c-0.2,2.5-2.4,4.3-4.8,4.2c-8.8-0.6-17.4,2.1-24.2,7.9c-6.6,5.6-10.8,13.4-11.7,22c-0.2,2.3-2.2,4-4.5,4
	c-0.2,0-0.3,0-0.5,0C309.7,480.5,308,478.3,308.2,475.8z M282.8,471c3-16.2,11.5-30.9,24.1-41.5c12.8-10.8,29.1-16.8,45.8-16.9
	c0,0,0,0,0,0c2.5,0,4.5,2,4.5,4.5c0,2.5-2,4.5-4.5,4.5c-14.6,0-28.8,5.3-40,14.7c-11,9.3-18.4,22.2-21,36.3
	c-0.4,2.2-2.3,3.7-4.4,3.7c-0.3,0-0.5,0-0.8-0.1C284,475.8,282.4,473.4,282.8,471z M620.5,662c-5.4,2.8-8.3,8.7-7.4,14.4l-13,6.7
	l-7.3-14.3l6.4-3.3c2.2-1.1,3.1-3.8,2-6.1l-42.6-83.2c-0.5-1.1-1.5-1.9-2.6-2.2c-1.1-0.4-2.4-0.3-3.4,0.3l-6.4,3.3l-8.7-17
	c-1.1-2.2-3.8-3.1-6.1-2l-26.5,13.5c-1.5-1.5-3.3-2.6-5.4-3.3c-3.5-1.1-7.3-0.8-10.6,0.9c-3.3,1.7-5.8,4.6-6.9,8.1
	c-1.1,3.5-0.8,7.3,0.9,10.6c1.7,3.3,4.6,5.8,8.1,6.9c1.4,0.5,2.9,0.7,4.3,0.7c2.2,0,4.3-0.5,6.3-1.5c3.3-1.7,5.8-4.6,6.9-8.1
	c0.7-2.1,0.8-4.2,0.5-6.3l22.5-11.5l6.7,13l-8.9,4.6c-1.1,0.5-1.9,1.5-2.2,2.6c-0.4,1.1-0.3,2.4,0.3,3.4l16.3,31.8l-37,18.9
	c-1.1,0.5-1.9,1.5-2.2,2.6c-0.4,1.1-0.3,2.4,0.3,3.4l13.5,26.5c-1.5,1.5-2.6,3.3-3.3,5.4c-1.1,3.5-0.8,7.3,0.9,10.6
	c2.5,4.8,7.4,7.6,12.4,7.6c2.1,0,4.3-0.5,6.3-1.5c6.9-3.5,9.6-11.9,6.1-18.8c-1.7-3.3-4.6-5.8-8.1-6.9c-2.1-0.7-4.2-0.8-6.3-0.5
	L514.4,649l33-16.9l22.2,43.4c0.8,1.6,2.4,2.5,4,2.5c0.7,0,1.4-0.2,2-0.5l8.9-4.6l9.4,18.3c0.5,1.1,1.5,1.9,2.6,2.2
	c0.5,0.1,0.9,0.2,1.4,0.2c0.7,0,1.4-0.2,2.1-0.5l17-8.7c1.5,1.5,3.3,2.6,5.4,3.3c1.4,0.5,2.9,0.7,4.3,0.7c2.2,0,4.3-0.5,6.3-1.5
	c6.9-3.5,9.6-11.9,6.1-18.8C635.8,661.2,627.3,658.5,620.5,662z M499.7,583.7c-0.4,1.3-1.3,2.3-2.5,2.9c-1.2,0.6-2.5,0.7-3.8,0.3
	c-1.3-0.4-2.3-1.3-2.9-2.5c-0.6-1.2-0.7-2.5-0.3-3.8c0.4-1.3,1.3-2.3,2.5-2.9c0.7-0.4,1.5-0.5,2.3-0.5c0.5,0,1,0.1,1.5,0.2
	c1.3,0.4,2.3,1.3,2.9,2.5C500,581.1,500.1,582.4,499.7,583.7z M529.4,680.5c1.3,0.4,2.3,1.3,2.9,2.5c0,0,0,0,0,0
	c1.2,2.4,0.3,5.4-2.2,6.7c-2.4,1.2-5.4,0.3-6.7-2.2c-0.6-1.2-0.7-2.5-0.3-3.8c0.4-1.3,1.3-2.3,2.5-2.9c0.7-0.4,1.5-0.5,2.3-0.5
	C528.4,680.3,528.9,680.4,529.4,680.5z M575.6,667.4l-38.5-75.2l15.3-7.8l38.5,75.2L575.6,667.4z M629.1,678.8
	c-1.2,0.6-2.5,0.7-3.8,0.3c-1.3-0.4-2.3-1.3-2.9-2.5c-1.2-2.4-0.3-5.4,2.2-6.7c2.4-1.2,5.4-0.3,6.7,2.2
	C632.5,674.6,631.5,677.6,629.1,678.8z M270.5,110.4c0.1-0.2,0.2-0.3,0.3-0.5c0-0.1,0.1-0.1,0.1-0.2c0.2-0.2,0.4-0.4,0.6-0.5
	c0,0,0.1,0,0.1-0.1c0.1-0.1,0.3-0.2,0.5-0.3c0,0,0.1,0,0.1-0.1c0.1,0,0.1-0.1,0.2-0.1c0.2-0.1,0.4-0.2,0.6-0.2c0,0,0.1,0,0.1,0
	l19.3-5.1c2.4-0.6,4.9,0.8,5.5,3.2s-0.8,4.9-3.2,5.5l-10.3,2.7l50.4,37.3l37.8-20.3c1.6-0.9,3.6-0.7,5,0.5c1.4,1.2,2,3.1,1.4,4.9
	l-11.3,34.4l35.4-16.9c1.7-0.8,3.7-0.5,5,0.8c1.4,1.3,1.8,3.3,1.1,5l-17.5,42.6l37.1,32.8c1.9,1.6,2,4.5,0.4,6.4
	c-0.9,1-2.1,1.5-3.4,1.5c-1.1,0-2.1-0.4-3-1.1l-39.5-34.9c-1.4-1.3-1.9-3.3-1.2-5.1l14.3-34.8l-34.3,16.4c-1.6,0.8-3.6,0.5-4.9-0.7
	c-1.4-1.2-1.9-3.1-1.3-4.8l11-33.7l-30.4,16.4c-1.5,0.8-3.4,0.7-4.8-0.3l-52-38.5l1.1,10.3c0.3,2.5-1.5,4.7-4,4.9
	c-2.5,0.3-4.7-1.5-4.9-4l-2.1-20.4c0,0,0-0.1,0-0.1c0-0.1,0-0.2,0-0.2c0-0.2,0-0.4,0-0.6c0-0.1,0-0.2,0-0.2c0-0.3,0.1-0.5,0.2-0.8
	c0,0,0,0,0,0c0.1-0.2,0.2-0.5,0.3-0.7C270.4,110.5,270.5,110.5,270.5,110.4z M897.4,690c-1.5,2-4.3,2.3-6.3,0.8
	c-3.1-2.4-15.3-1.3-24.9,1.1c-1.7,0.4-3.4-0.1-4.5-1.4c-1.1-1.3-1.4-3.1-0.8-4.7l2-4.9c-6.1,2.6-13.3,7.1-17.8,10.3
	c-0.8,0.6-1.7,0.8-2.6,0.8c-1.4,0-2.8-0.6-3.7-1.9c-1.5-2-1-4.8,1-6.3c2-1.4,19.8-14.1,30.6-14.1c0,0,0,0,0,0c1.5,0,2.9,0.7,3.7,2
	c0.8,1.3,1,2.8,0.4,4.2l-2.2,5.4c7.8-1.3,18.6-2,24.1,2.2C898.5,685.2,898.9,688.1,897.4,690z M864.6,660.4c-1.2,0-2.4-0.5-3.3-1.5
	c-1.7-1.8-1.5-4.7,0.3-6.3c0.5-0.5,13.4-12,31.9-10.6c2.5,0.2,4.3,2.4,4.1,4.8c-0.2,2.5-2.4,4.3-4.8,4.1c-14.5-1.2-25,8.1-25.1,8.2
	C866.7,660.1,865.7,660.4,864.6,660.4z M754.7,625.8c1.5-2,4.3-2.4,6.3-0.9c11.6,8.7,17.9,23.6,16.1,38c-0.3,2.3-2.2,3.9-4.5,3.9
	c-0.2,0-0.4,0-0.6,0c-2.5-0.3-4.2-2.6-3.9-5c1.4-11.1-3.7-23-12.6-29.7C753.6,630.6,753.2,627.8,754.7,625.8z M746.5,685.5
	c-5.2-2.8-11.9-3.2-17.4-0.9c-2.3,1-4.9-0.1-5.9-2.4c-1-2.3,0.1-4.9,2.4-5.9c8.1-3.3,17.4-2.9,25.1,1.3c2.2,1.2,3,3.9,1.8,6.1
	c-0.8,1.5-2.4,2.4-4,2.4C747.9,686,747.2,685.9,746.5,685.5z M830.8,630.4c2.1,1.3,2.7,4.1,1.4,6.2c-3.6,5.8-5.7,12.4-6.1,19.3
	c-0.1,2.4-2.1,4.2-4.5,4.2c-0.1,0-0.2,0-0.3,0c-2.5-0.1-4.4-2.3-4.2-4.7c0.5-8.3,3.1-16.4,7.5-23.5
	C825.9,629.7,828.7,629.1,830.8,630.4z M971.6,343.2c0-8.8-7.2-16-16-16s-16,7.2-16,16c0,8.8,7.2,16,16,16S971.6,352,971.6,343.2z
	 M948.6,343.2c0-3.9,3.2-7,7-7c3.9,0,7,3.2,7,7s-3.2,7-7,7C951.7,350.2,948.6,347,948.6,343.2z M470,495.7c1.6,1.9,1.3,4.8-0.6,6.3
	L451,517.3c-0.8,0.7-1.9,1-2.9,1c-1.3,0-2.6-0.6-3.5-1.6c-1.6-1.9-1.3-4.8,0.6-6.3l18.4-15.3C465.6,493.5,468.4,493.8,470,495.7z
	 M51.9,261.1l-1-3.4l30.5-12.5c0.1,0,0.2-0.1,0.2-0.1c2-0.6,4.2,0.9,5,3.5c0.8,2.7-0.3,5.4-2.4,5.8L51.9,261.1z M36,266L5.5,278.7
	c-2,0.8-4.4-0.7-5.3-3.4c-0.8-2.6,0.2-5.1,2.1-5.7c0.1,0,0.2,0,0.3-0.1l32.2-6.9L36,266z M242.5,202.1l-1-3.4l30.5-12.5
	c0.1,0,0.2-0.1,0.2-0.1c2-0.6,4.2,0.9,5,3.5c0.8,2.7-0.3,5.4-2.4,5.8L242.5,202.1z M193.3,210.6l32.2-6.9l1,3.4l-30.4,12.7
	c-2,0.8-4.4-0.7-5.3-3.4c-0.8-2.6,0.2-5.1,2.1-5.7C193.1,210.6,193.2,210.6,193.3,210.6z M182.2,307.5l-3-9.7
	c-1.6-5.1-5.9-8.6-10.9-9.4l-1.2-4c1-0.5,2-1,3-1.5c0.8-0.4,1.7-0.9,2.5-1.4c9.1-5.2,16.3-11.7,21-18.7c1.9-2.8,4.1-5.3,6.6-7.3
	c1.3-1.1,2.7-2,4.2-2.8c7.6,2.9,19.7,13.6,28.5,50.9l2.5,1.1c2.7,1.2,5.7,1.3,8.5,0.3l0,0c0,0-2.6-30.1-22-49.4
	c-2.3-2.3-3.7-5.2-4.1-8.3l31.3-12c0.3-0.1,0.5-0.2,0.7-0.3c5.6-2.6,8.5-8.9,6.6-14.8l-0.9-2.9c-0.7-2.3-3-3.6-5.3-3l-2.6,0.6
	l-0.8-2.6c-0.9-2.9-3.8-4.6-6.7-4.2l-2.6-8.3c-0.2-0.8-0.9-1.4-1.8-1.7c-0.9-0.3-1.9-0.3-3,0c-2.1,0.7-3.5,2.5-3,4l2.6,8.4
	c-2.4,1.4-3.6,4.3-2.7,7l0.5,1.5l-28.2,6.7c-6.1,1.4-12.7,0.6-19.3-2.3c-12.7-5.7-30.8-5.8-48.4-0.3c-16.5,5.1-30.5,14.3-38.2,25.3
	c-5.8,8.2-13.6,14.3-22.6,17.8l-16.7,6.4l-0.4-1.4c-0.9-2.9-3.8-4.6-6.7-4.2l-2.6-8.3c-0.2-0.8-0.9-1.4-1.8-1.7
	c-0.9-0.3-1.9-0.3-3,0c-2.1,0.7-3.5,2.5-3,4l2.6,8.4c-2.4,1.4-3.6,4.3-2.7,7l0.8,2.5l-3.9,1.5c-2.2,0.9-3.4,3.3-2.7,5.5l0.9,2.9
	c1.6,5.2,6.5,8.7,11.8,8.7c0.9,0,1.9-0.1,2.8-0.3l27.8-6.6c1.5,2.9,2.1,6.2,1.4,9.5c-5.1,26.8,9.7,53.2,9.7,53.2l0,0
	c2.8-0.7,5.3-2.5,6.8-5l1.4-2.3c-13.8-35.7-9.9-51.4-5.3-58.1c1.7-0.1,3.4-0.2,5.1-0.1c4.7,0.2,9.4,1,14,2.6
	c6.6,2.2,14.5,3.2,22.8,2.8c1,0,1.9-0.1,2.9-0.2c0.7-0.1,1.3-0.1,2-0.2c1.4-0.2,2.9-0.3,4.3-0.6l1,3.2c-4.7,3.3-6.9,9.4-5.1,15.1
	l3,9.7c1.1,3.5,3.5,6.3,6.7,8.1c2,1.1,4.2,1.6,6.4,1.6c1.4,0,2.7-0.2,4.1-0.6l15.5-4.8C180.4,322.4,184.4,314.7,182.2,307.5z
	 M136.4,283.9c-0.6,0.1-1.1,0.1-1.8,0.2c-0.8,0.1-1.7,0.1-2.5,0.2c-7.2,0.3-14-0.5-19.5-2.3c-5.4-1.8-11-2.9-16.6-3.1
	c-5-0.2-10,0.3-14.8,1.5l-34.7,8.2c-1.3,0.3-2.6-0.2-3.4-1.2l2.3-0.9c0,0,0,0,0,0l30.9-11.9c10.7-4.1,19.9-11.4,26.7-21
	c6.5-9.2,19.1-17.4,33.6-21.9c15.6-4.8,31.3-4.8,42.1,0c8.4,3.8,17.1,4.7,25.1,2.8l44-10.4c-0.1,1.2-0.8,2.3-2,2.9
	c0,0-0.1,0-0.1,0.1l-41.5,16c-3.4,1.3-6.7,3.2-9.6,5.5c-3.2,2.6-6.1,5.7-8.5,9.4c-3.8,5.8-10,11.3-17.9,15.8
	c-0.7,0.4-1.5,0.8-2.2,1.2c-1,0.5-2.1,1.1-3.1,1.6c-3.5,1.6-7.2,3.1-10.9,4.2C146.7,282.3,141.5,283.4,136.4,283.9z M154.5,289.3
	c1.4-0.4,2.9-0.9,4.3-1.4l0.5,1.8l-8.2,2.5l-0.5-1.8C151.9,290.1,153.2,289.7,154.5,289.3z M170.5,316l-15.5,4.8
	c-1.2,0.4-2.5,0.3-3.6-0.3c-1.1-0.6-1.9-1.6-2.3-2.8l-3-9.7c-0.7-2.3,0.4-4.6,2.5-5.6c0.3,0,0.5-0.1,0.8-0.2c0.4-0.1,0.7-0.3,1-0.5
	l14.3-4.4c0.2-0.1,0.4-0.1,0.7-0.2c0.1,0,0.1,0,0.2,0c0.2,0,0.3,0,0.5,0c2,0,3.8,1.3,4.5,3.3l3,9.7C174.4,312.6,173,315.3,170.5,316
	z M166.4,307.1c1.1,3.6-0.9,7.4-4.5,8.5s-7.4-0.9-8.5-4.5c-1.1-3.6,0.9-7.4,4.5-8.5C161.5,301.5,165.3,303.5,166.4,307.1z
	 M117.7,161.1c0.2,0.4,0.4,0.7,0.6,1.1c2.6,3.4,6.8,5.3,11.4,5.3c0.3,0,0.6,0,0.9,0c4.7-0.2,8.8-2.6,11-6.2
	c3.4-5.7,2.5-13.3-2.4-20.6c-1.2-1.7-2.4-3.2-3.6-4.7c-2.2-2.7-4.3-5.3-5.4-8.1c-0.8-2.1-0.8-4.7,0.1-6.5c0.7-1.4,1.5-1.8,1.8-1.9
	c2.6-0.9,6.2,2.5,7.7,6.2c0.7,1.7,1.2,3.5,1.7,5.5c1.1,4,2.3,8.2,5.1,11.9c3.1,4.1,8.6,6.5,13.6,6c3.9-0.4,7.1-2.5,8.7-5.8
	c1.6-3.4,1.4-7.4-0.6-11.9c-1.4-3.2-3.2-6-5-8.7c-1-1.5-1.9-2.9-2.7-4.3c-2.5-4.2-3.4-7.8-2.8-10.8c0.3-1.5,1.4-3,2.7-3.9
	c0.6-0.4,1.5-0.8,2.5-0.6c2.3,0.5,3.9,3.9,4.3,6.9c0.2,1.5,0.3,3,0.4,4.6c0.2,3.3,0.4,6.8,1.7,10.2c1.4,3.9,4.6,7.3,8.2,8.8
	c2.9,1.2,6,1.3,8.7,0.1c5.1-2.2,8.8-9.3,5.8-17.9c-1.2-3.2-2.9-6-4.6-8.7c-1.3-2.2-2.6-4.2-3.5-6.3c-1.4-3.3-1.1-8,1.3-9.2
	c1.7-0.9,4.6,0.3,6.2,2.5c2,2.8,2.6,6.9,2.8,10.5l0,0.7c0.2,3.1,0.5,6.6,2.2,9.9c2.3,4.3,7.6,7.7,13,5.8c5-1.8,7.5-7.2,6.9-14.8
	c-1.8-23.1-9.6-43.7-22.5-59.4c-14.5-17.7-35.7-28.5-56.7-29.1C114.3,17,92,29.4,81.8,48.5c-9.3,17.4-9.1,40.9,0.6,62.8
	C90.8,130.3,104.4,146,117.7,161.1z M89.7,52.7c8.6-16.1,27.6-26.6,47.3-26.1c18.4,0.5,37.1,10.1,49.9,25.8
	c11.6,14.1,18.9,33.5,20.5,54.4c0.3,3.6-0.5,5.5-1,5.6c-0.2,0.1-1.4-0.4-2-1.5c-0.9-1.6-1-3.9-1.2-6.3l-0.1-0.7
	c-0.4-4.9-1.2-10.5-4.5-15.2c-3.6-4.9-10.9-8.5-17.5-5.2c-7.3,3.6-8.6,13.3-5.6,20.6c1.1,2.8,2.7,5.3,4.2,7.7c1.5,2.4,2.9,4.6,3.7,7
	c1,2.7,0.5,6-0.9,6.6c-0.2,0.1-0.6,0.3-1.6-0.1c-1.4-0.6-2.7-2.1-3.3-3.6c-0.8-2.2-1-4.9-1.1-7.6c-0.1-1.7-0.2-3.6-0.5-5.4
	c-0.9-6-4.3-12.9-11.4-14.4c-3.1-0.7-6.4,0-9.3,1.9c-3.3,2.2-5.8,5.8-6.6,9.6c-1.1,5.2,0.2,10.9,3.8,17.1c1,1.7,2,3.2,3,4.8
	c1.7,2.5,3.2,4.9,4.3,7.3c0.9,1.9,1.1,3.5,0.7,4.4c-0.1,0.2-0.3,0.7-1.4,0.8c-1.9,0.2-4.4-0.9-5.5-2.4c-1.8-2.4-2.7-5.5-3.6-8.9
	c-0.6-2.1-1.2-4.3-2.1-6.4c-3.1-7.7-11-14.1-18.9-11.3c-3.1,1.1-5.6,3.4-7.1,6.6c-1.9,4-2,9.2-0.3,13.6c1.6,4.1,4.2,7.4,6.7,10.5
	c1.2,1.4,2.2,2.8,3.2,4.2c2.1,3.1,4,7.8,2.1,10.8c-0.7,1.1-2.1,1.8-3.8,1.9c-1.6,0.1-3.1-0.4-4.1-1.2c-0.2-0.4-0.5-0.9-0.9-1.3
	c0,0,0,0,0,0c-13-14.9-26.5-30.2-34.5-48.3C82,88.2,81.7,67.7,89.7,52.7z M111,65.7c0.5-3.4,3.7-5.7,7.1-5.2
	c3.4,0.5,5.7,3.7,5.2,7.1c-0.5,3.4-3.7,5.7-7.1,5.2C112.8,72.3,110.5,69.1,111,65.7z M129.5,54c0.5-3.4,3.7-5.7,7.1-5.2
	s5.7,3.7,5.2,7.1c-0.5,3.4-3.7,5.7-7.1,5.2C131.3,60.6,128.9,57.4,129.5,54z M234.8,350.8c-2.5-0.2-4.3-2.4-4.1-4.8
	c0.2-2.5,2.4-4.3,4.8-4.1c14.5,1.1,28.7,4.2,42.2,9.2c8.7,3.2,17.1,7.2,25.1,11.9c2.1,1.3,2.9,4,1.6,6.2c-0.8,1.4-2.3,2.2-3.9,2.2
	c-0.8,0-1.6-0.2-2.3-0.6c-7.5-4.4-15.5-8.2-23.6-11.2C261.9,354.8,248.5,351.8,234.8,350.8z M168.7,371c-0.5,0.2-1.1,0.3-1.6,0.3
	c-1.8,0-3.5-1.1-4.2-2.9c-0.9-2.3,0.3-4.9,2.6-5.8c7.4-2.8,15.1-4.6,22.9-5.4c6.3-0.6,12.6-0.6,18.9,0c2.5,0.3,4.3,2.5,4,4.9
	c-0.3,2.5-2.5,4.3-4.9,4c-5.7-0.6-11.4-0.6-17,0C182.4,366.9,175.4,368.5,168.7,371z M400.2,67.7c-0.9-2.3,0.3-4.9,2.6-5.8
	c2.3-0.9,4.9,0.3,5.8,2.6l16.2,43.2c0.9,2.3-0.3,4.9-2.6,5.8c-0.5,0.2-1.1,0.3-1.6,0.3c-1.8,0-3.5-1.1-4.2-2.9L400.2,67.7z
	 M347.1,77.4c-1.8-1.8-1.8-4.6,0-6.4c1.8-1.8,4.6-1.8,6.4,0L372.4,90c1.8,1.8,1.8,4.6,0,6.4c-0.9,0.9-2,1.3-3.2,1.3
	s-2.3-0.4-3.2-1.3L347.1,77.4z M745.9,603.3c1.6-10.4-1-22.2-7.7-35.1c-1.1-2.2-0.3-4.9,1.9-6.1c2.2-1.1,4.9-0.3,6.1,1.9
	c7.6,14.6,10.5,28.3,8.6,40.6c-0.3,2.2-2.3,3.8-4.4,3.8c-0.2,0-0.5,0-0.7-0.1C747.2,608,745.5,605.7,745.9,603.3z M709.5,671
	c-0.6,1.9-2.4,3.1-4.3,3.1c-0.5,0-1-0.1-1.4-0.2l-32.4-10.8c-2.4-0.8-3.6-3.3-2.8-5.7c0.8-2.4,3.3-3.6,5.7-2.8l32.4,10.8
	C709,666.1,710.3,668.7,709.5,671z M844.4,700.4c0,28.3-23,51.3-51.3,51.3s-51.3-23-51.3-51.3c0-2.5,2-4.5,4.5-4.5s4.5,2,4.5,4.5
	c0,23.3,19,42.3,42.3,42.3c23.3,0,42.3-19,42.3-42.3c0-2.5,2-4.5,4.5-4.5S844.4,697.9,844.4,700.4z"/>
</svg>
