<?xml version="1.0" encoding="utf-8"?>
<!-- Generator: Adobe Illustrator 26.0.1, SVG Export Plug-In . SVG Version: 6.00 Build 0)  -->
<svg version="1.1" id="Layer_1" xmlns="http://www.w3.org/2000/svg" xmlns:xlink="http://www.w3.org/1999/xlink" x="0px" y="0px"
	 viewBox="0 0 211.5 216.5" style="enable-background:new 0 0 211.5 216.5;" xml:space="preserve">
<path style="fill:none;stroke:#EF7837;stroke-width:1.5;stroke-linecap:round;stroke-linejoin:round;stroke-miterlimit:10;" d="
	M4.8,93.1c0-0.3-0.7-5.2-0.5-5.3c0.3-0.1,2.7,2.9,2.9,3.4C8,91,10.4,89.7,10.6,90c0.2,0.3-1,3.1-1.3,3.6c0.5,0.6,2.6,2.7,2.4,2.9
	c-0.2,0.2-3.7-0.8-4.1-1.1c-0.5,0.6-2.5,4-2.8,3.9c-0.3-0.1-0.3-3.3-0.4-3.6c-1.2-0.3-3.2-0.8-3.2-1.1C1.2,94.3,4.7,93.2,4.8,93.1z"
	/>
<line style="fill:none;stroke:#EF7837;stroke-width:1.5;stroke-linecap:round;stroke-linejoin:round;stroke-miterlimit:10;" x1="80.7" y1="68.8" x2="83.2" y2="72.8"/>
<line style="fill:none;stroke:#EF7837;stroke-width:1.5;stroke-linecap:round;stroke-linejoin:round;stroke-miterlimit:10;" x1="83.8" y1="69.2" x2="80.2" y2="71.8"/>
<line style="fill:none;stroke:#FAB400;stroke-width:1.5;stroke-linecap:round;stroke-linejoin:round;stroke-miterlimit:10;" x1="176.2" y1="190.8" x2="180.8" y2="191.3"/>
<line style="fill:none;stroke:#FAB400;stroke-width:1.5;stroke-linecap:round;stroke-linejoin:round;stroke-miterlimit:10;" x1="178.8" y1="188.8" x2="178.2" y2="193.3"/>
<line style="fill:none;stroke:#FAB400;stroke-width:1.5;stroke-linecap:round;stroke-linejoin:round;stroke-miterlimit:10;" x1="137.7" y1="182.2" x2="142.3" y2="182.8"/>
<line style="fill:none;stroke:#FAB400;stroke-width:1.5;stroke-linecap:round;stroke-linejoin:round;stroke-miterlimit:10;" x1="140.3" y1="180.2" x2="139.7" y2="184.8"/>
<line style="fill:none;stroke:#FAB400;stroke-width:1.5;stroke-linecap:round;stroke-linejoin:round;stroke-miterlimit:10;" x1="157.7" y1="209.2" x2="159.7" y2="213.3"/>
<line style="fill:none;stroke:#FAB400;stroke-width:1.5;stroke-linecap:round;stroke-linejoin:round;stroke-miterlimit:10;" x1="160.8" y1="210.2" x2="156.7" y2="212.8"/>
<line style="fill:none;stroke:#F59D1A;stroke-width:1.5;stroke-linecap:round;stroke-linejoin:round;stroke-miterlimit:10;" x1="61.7" y1="75.2" x2="60.2" y2="79.3"/>
<line style="fill:none;stroke:#F59D1A;stroke-width:1.5;stroke-linecap:round;stroke-linejoin:round;stroke-miterlimit:10;" x1="63.3" y1="77.8" x2="58.7" y2="76.8"/>
<path style="fill:none;stroke:#E8415B;stroke-width:1.5;stroke-miterlimit:8;" d="M75.9,35.2c2.5,9.1-1.4,13.2-4.8,13.8
	c-3.3,0.6-5.2-3.5-1.9-4.9s8.1,1.3,8.5,5.7c0.4,4.4-4.7,9.9-8.1,9.7c-3.4-0.3-3.9-5.4-1.2-5.7s15.1,5.3-3.2,13.4"/>
<path style="fill:none;stroke:#E8415B;stroke-width:1.5;stroke-linecap:round;stroke-linejoin:round;stroke-miterlimit:10;" d="
	M76.8,28c-0.1-1.5-0.2-3.1-0.7-4.5c-1.3-3.9-4-6.9-7.4-8.8l1.4-3c4.1,2.2,7.4,5.9,9,10.6c1,2.8,1.2,5.7,0.9,8.5
	c-0.2,1.3-0.8,2.6-1.8,3.5l-2.5,2.4"/>
<path style="fill:none;stroke:#E8415B;stroke-width:1.5;stroke-linecap:round;stroke-linejoin:round;stroke-miterlimit:10;" d="
	M48.1,37.8c-0.9-1.2-1.7-2.5-2.2-4c-1.3-3.9-1.1-8,0.5-11.6l-2.9-1.5c-1.9,4.3-2.2,9.3-0.6,14.1c1,2.9,2.5,5.3,4.5,7.3
	c0.9,1,2.2,1.5,3.5,1.7l3.4,0.4"/>
<path style="fill:none;stroke:#E8415B;stroke-width:1.5;stroke-linecap:round;stroke-linejoin:round;stroke-miterlimit:10;" d="
	M69,14.4c-0.5,1.1-1.8,1.6-2.9,1.1c-2.9-1.1-6.3-1.2-9.5-0.1c-3.2,1.1-5.8,3.2-7.4,5.8c-0.6,1-1.9,1.4-3,0.9l-2.1-1
	c-1.2-0.6-1.7-2.1-1-3.3c2.5-4,6.3-7.2,11.2-8.9c4.9-1.6,9.9-1.4,14.4,0.3c1.3,0.5,1.9,2,1.3,3.2L69,14.4z"/>
<line style="fill:none;stroke:#E8415B;stroke-width:1.5;stroke-linecap:round;stroke-linejoin:round;stroke-miterlimit:10;" x1="56.3" y1="15.8" x2="55.2" y2="12.2"/>
<line style="fill:none;stroke:#E8415B;stroke-width:1.5;stroke-linecap:round;stroke-linejoin:round;stroke-miterlimit:10;" x1="62.3" y1="11.8" x2="61.7" y2="14.8"/>
<line style="fill:none;stroke:#E8415B;stroke-width:1.5;stroke-linecap:round;stroke-linejoin:round;stroke-miterlimit:10;" x1="51.7" y1="18.3" x2="49.7" y2="16.2"/>
<path style="fill:none;stroke:#E8415B;stroke-width:1.5;stroke-linecap:round;stroke-linejoin:round;stroke-miterlimit:10;" d="
	M59.2,43.7l-4,0.5c-0.8,0.1-1.6-0.2-2.1-0.8l-4.8-5.3c-0.5-0.6-0.7-1.4-0.5-2.1l1-3.8"/>
<path style="fill:none;stroke:#E8415B;stroke-width:1.5;stroke-linecap:round;stroke-linejoin:round;stroke-miterlimit:10;" d="
	M71.7,39.3l3.4-2c0.7-0.4,1.1-1.1,1.1-1.8l0.4-6.9c0-0.8-0.3-1.5-0.9-1.9l-3.1-2.4"/>
<path style="fill:none;stroke:#E8415B;stroke-width:1.5;stroke-linecap:round;stroke-linejoin:round;stroke-miterlimit:10;" d="
	M72.7,23.9l-3.1-0.2c-0.8-0.1-1.6,0.6-1.6,1.4l-0.8,12.4c-0.1,0.8,0.6,1.5,1.4,1.5l3.1,0.2L72.7,23.9z"/>
<path style="fill:none;stroke:#E8415B;stroke-width:1.5;stroke-linecap:round;stroke-linejoin:round;stroke-miterlimit:10;" d="
	M48.7,32.1l2.2-1.9c0.6-0.5,1.5-0.5,2.1,0.1l8.4,9.5c0.5,0.6,0.5,1.5-0.1,2.1L59,43.8L48.7,32.1z"/>
<path style="fill:none;stroke:#E8415B;stroke-width:1.5;stroke-linecap:round;stroke-linejoin:round;stroke-miterlimit:10;" d="
	M13,5.8c3.4-0.3,5.3,0.6,6.2,2.6c0.9,2,1.5,8,1.6,10.7c0,2.7-3.1,4.6-6.3,4.6s-6.2-1.2-6.6-4.1c-0.4-2.9,0.3-8.3,0.8-10.2
	C9.2,7.4,10.4,6,13,5.8z"/>
<line style="fill:none;stroke:#E8415B;stroke-width:1.5;stroke-linecap:round;stroke-linejoin:round;stroke-miterlimit:10;" x1="6.7" y1="9.8" x2="8.7" y2="10.3"/>
<line style="fill:none;stroke:#E8415B;stroke-width:1.5;stroke-linecap:round;stroke-linejoin:round;stroke-miterlimit:10;" x1="5.7" y1="14.8" x2="8.2" y2="14.2"/>
<line style="fill:none;stroke:#E8415B;stroke-width:1.5;stroke-linecap:round;stroke-linejoin:round;stroke-miterlimit:10;" x1="6.2" y1="18.8" x2="7.8" y2="18.2"/>
<line style="fill:none;stroke:#E8415B;stroke-width:1.5;stroke-linecap:round;stroke-linejoin:round;stroke-miterlimit:10;" x1="21.7" y1="9.2" x2="19.2" y2="9.8"/>
<line style="fill:none;stroke:#E8415B;stroke-width:1.5;stroke-linecap:round;stroke-linejoin:round;stroke-miterlimit:10;" x1="22.7" y1="13.2" x2="20.2" y2="13.8"/>
<line style="fill:none;stroke:#E8415B;stroke-width:1.5;stroke-linecap:round;stroke-linejoin:round;stroke-miterlimit:10;" x1="22.3" y1="18.2" x2="20.7" y2="18.8"/>
<path style="fill:none;stroke:#E8415B;stroke-width:1.5;stroke-linecap:round;stroke-linejoin:round;stroke-miterlimit:10;" d="
	M11.3,10.4c0.1-0.8,0.9-1,1.1-0.1c0.2,0.8,0.9,7.4,0.8,9.2c-0.1,1-1.1,1.1-1.4-0.1C11.5,18.2,11.1,11.7,11.3,10.4z"/>
<path style="fill:none;stroke:#E8415B;stroke-width:1.5;stroke-linecap:round;stroke-linejoin:round;stroke-miterlimit:10;" d="
	M15.3,10c0.1-0.9,0.9-1,1.1-0.1c0.2,0.9,0.9,7.8,0.8,9.6c-0.1,1-1.1,1.2-1.4-0.1C15.5,18.1,15.1,11.3,15.3,10z"/>
<path style="fill:none;stroke:#E8415B;stroke-width:1.5;stroke-linecap:round;stroke-linejoin:round;stroke-miterlimit:10;" d="
	M16.9,52.8c3.2-0.3,6.3,1.7,6.8,3.7c0.7,3.1-2.1,5.8-5.1,6.2c-3,0.4-6.8-1.3-7.2-4C10.9,56.1,13.4,53.1,16.9,52.8z"/>
<path style="fill:none;stroke:#E8415B;stroke-width:1.5;stroke-linecap:round;stroke-linejoin:round;stroke-miterlimit:10;" d="
	M12.7,71.2c1.8,0.1,11.5-1.1,13-1.5"/>
<path style="fill:none;stroke:#E8415B;stroke-width:1.5;stroke-linecap:round;stroke-linejoin:round;stroke-miterlimit:10;" d="
	M16.8,42.2c2.6-0.3,4.4-1.7,6.7-1.9c1.4-0.1,3.9,1,4.2,3.1c0.5,2.5-1.8,5.4-0.7,9.4c0.7,2.8,6.2,8.4,6.3,13.8
	c0.1,5.5-4.8,12.3-13.5,12.6c-8.7,0.4-16.5-3.6-17-10.1c-0.5-6.5,4.1-12.1,4.2-15C7,51.2,5,48.7,4.9,45.8c-0.1-2.6,2-4.2,3.9-4.5
	C10.2,41.1,13.4,42.5,16.8,42.2z"/>
<line style="fill:none;stroke:#E8415B;stroke-width:1.5;stroke-linecap:round;stroke-linejoin:round;stroke-miterlimit:10;" x1="14.7" y1="71.3" x2="11.7" y2="23.8"/>
<path style="fill:none;stroke:#E8415B;stroke-width:1.5;stroke-linecap:round;stroke-linejoin:round;stroke-miterlimit:10;" d="
	M18.2,22.8c0,0,4.6,43.2,5,47.5"/>
<line style="fill:none;stroke:#E8415B;stroke-width:1.5;stroke-linecap:round;stroke-linejoin:round;stroke-miterlimit:10;" x1="14.2" y1="23.8" x2="17.8" y2="71.3"/>
<line style="fill:none;stroke:#E8415B;stroke-width:1.5;stroke-linecap:round;stroke-linejoin:round;stroke-miterlimit:10;" x1="16.2" y1="23.8" x2="20.8" y2="70.8"/>
<path style="fill:none;stroke:#E8415B;stroke-width:1.5;stroke-linecap:round;stroke-linejoin:round;stroke-miterlimit:10;" d="
	M106.3,11.9c-3.9-1.7-5.1-3.1-7.7-4.7l-0.8,7.5L106.3,11.9z"/>
<path style="fill:none;stroke:#E8415B;stroke-width:1.5;stroke-linecap:round;stroke-linejoin:round;stroke-miterlimit:10;" d="
	M113.1,9.2c3,8.6-4.8,12.9-8.8,14.1c-3.9,1.2-10.3,1-14.7-7.1c-1.8-6,3.2-13.2,8.2-14.7C102.8-0.1,110.1,0.6,113.1,9.2z"/>
<path style="fill:none;stroke:#E8415B;stroke-width:1.5;stroke-linecap:round;stroke-linejoin:round;stroke-miterlimit:10;" d="
	M115.7,3.3c0.8-0.8,1.7-1.7,2.5-2.5"/>
<path style="fill:none;stroke:#E8415B;stroke-width:1.5;stroke-linecap:round;stroke-linejoin:round;stroke-miterlimit:10;" d="
	M117.2,6.3c1.2-0.5,2.3-1,3.5-1.5"/>
<path style="fill:none;stroke:#E8415B;stroke-width:1.5;stroke-linecap:round;stroke-linejoin:round;stroke-miterlimit:10;" d="
	M118.2,10.3c1.2-0.1,2.3-0.1,3.5-0.5"/>
<path style="fill:none;stroke:#EF7837;stroke-width:1.5;stroke-linecap:round;stroke-linejoin:round;stroke-miterlimit:10;" d="
	M105.3,40.2c-0.9-1.1-1.5-3.1-1.6-4.6c0-1.1,0-2.3,0.6-3.1c0.6-0.8,1.8-1.1,2.7-0.6c0.9,0.5,1.3,1.7,1,2.7c0.3-0.6,0.9-1.2,1.6-1.3
	c0.7-0.2,1.4,0,1.9,0.4c0.3,0.2,0.6,0.6,0.7,1c0.1,0.5-0.2,1.1-0.5,1.5C110.3,38.6,107.9,40.3,105.3,40.2z"/>
<path style="fill:none;stroke:#EF7837;stroke-width:1.5;stroke-linecap:round;stroke-linejoin:round;stroke-miterlimit:10;" d="
	M134.7,61.3c-4-0.7-8-1.3-12-2"/>
<path style="fill:none;stroke:#EF7837;stroke-width:1.5;stroke-linecap:round;stroke-linejoin:round;stroke-miterlimit:10;" d="
	M115.2,57.8c-3.8-0.7-7.7-1.3-11.5-2"/>
<path style="fill:none;stroke:#EF7837;stroke-width:1.5;stroke-linecap:round;stroke-linejoin:round;stroke-miterlimit:10;" d="
	M119.2,55.3c0.3-2.7,0.7-5.3,1-8"/>
<path style="fill:none;stroke:#EF7837;stroke-width:1.5;stroke-linecap:round;stroke-linejoin:round;stroke-miterlimit:10;" d="
	M118.8,63.2c-0.5,2.2-1,4.3-1.5,6.5"/>
<path style="fill:none;stroke:#EF7837;stroke-width:1.5;stroke-linecap:round;stroke-linejoin:round;stroke-miterlimit:10;" d="
	M123.7,64.2c0.7,1.2,1.3,2.3,2,3.5"/>
<path style="fill:none;stroke:#EF7837;stroke-width:1.5;stroke-linecap:round;stroke-linejoin:round;stroke-miterlimit:10;" d="
	M124.7,55.3c1-0.8,2-1.7,3-2.5"/>
<path style="fill:none;stroke:#EF7837;stroke-width:1.5;stroke-linecap:round;stroke-linejoin:round;stroke-miterlimit:10;" d="
	M114.2,52.8c-0.8-1.2-1.7-2.3-2.5-3.5"/>
<path style="fill:none;stroke:#EF7837;stroke-width:1.5;stroke-linecap:round;stroke-linejoin:round;stroke-miterlimit:10;" d="
	M114.2,62.8c-1.3,0.8-2.7,1.7-4,2.5"/>
<path style="fill:none;stroke:#EF7837;stroke-width:1.5;stroke-linecap:round;stroke-linejoin:round;stroke-miterlimit:10;" d="
	M122.2,87c0,7.9-6.4,14.3-14.2,14.3c-7.9,0-14.3-6.4-14.3-14.3c0-7.9,6.4-14.3,14.2-14.3C115.9,72.8,122.2,79.1,122.2,87z"/>
<path style="fill:none;stroke:#EF7837;stroke-width:1.5;stroke-linecap:round;stroke-linejoin:round;stroke-miterlimit:10;" d="
	M108.2,93.8c-3.9,0-7-2.9-7-6.5"/>
<path style="fill:none;stroke:#EF7837;stroke-width:1.5;stroke-linecap:round;stroke-linejoin:round;stroke-miterlimit:10;" d="
	M108.2,80.2c3.6,0,6.5,3.1,6.5,7"/>
<path style="fill:none;stroke:#EF7837;stroke-width:1.5;stroke-linecap:round;stroke-linejoin:round;stroke-miterlimit:10;" d="
	M108.2,97.3c-5.8,0-10.5-4.5-10.5-10"/>
<path style="fill:none;stroke:#EF7837;stroke-width:1.5;stroke-linecap:round;stroke-linejoin:round;stroke-miterlimit:10;" d="
	M108.2,76.8c5.8,0,10.5,4.7,10.5,10.5"/>
<path style="fill:none;stroke:#EF7837;stroke-width:1.5;stroke-linecap:round;stroke-linejoin:round;stroke-miterlimit:10;" d="
	M111.3,87c0,1.8-1.5,3.2-3.3,3.2c-1.8,0-3.2-1.5-3.2-3.2c0-1.8,1.5-3.3,3.2-3.3C109.8,83.8,111.3,85.2,111.3,87z"/>
<path style="fill:none;stroke:#EF7837;stroke-width:1.5;stroke-linecap:round;stroke-linejoin:round;stroke-miterlimit:10;" d="
	M48.3,73.2c0,0-2.7-1.1-1.7-3.5c0.8-2,3.4-2.6,5.1-1.3c1.3,1.1,1.7,3.1,1.1,4.7c-0.7,2-3,2.8-5,2.4c-2.8-0.6-4.3-3.5-4-6.2
	c0.2-1.9,1.3-3.1,2.6-4.4c1.9-1.8,4.7-3.7,5.6-6.3c0.5-1.5,0-3.4-0.8-4.7c-0.1-0.1-0.8,0.4-0.8,0.4c-0.7,0.5-1.1,1.2-1.5,1.9
	c-1.1,2.1-0.9,4.2-0.6,6.4c0.2,1.6,0.5,3.3,0.7,4.9c0.4,3,0.8,6,1.3,8.9c0.3,2.1,0.6,4.6-1.6,5.8c-0.7,0.4-1.6,0.4-2.3,0.1
	c-0.7-0.3-1.3-1.1-1.2-1.9c0.1-1.1,1.4-1.6,2.3-1.3c0.4,0.1,0.8,0.5,0.8,0.9"/>
<path style="fill:none;stroke:#F59D1A;stroke-width:1.5;stroke-linecap:round;stroke-linejoin:round;stroke-miterlimit:10;" d="
	M162.2,127.5c0,0-2.8-0.7-2.2-3.2c0.5-2,3-3.1,4.8-2c1.5,0.9,2.1,2.8,1.8,4.4c-0.4,2-2.6,3.1-4.6,3c-2.8-0.2-4.8-2.8-4.8-5.5
	c0-1.9,0.9-3.2,2-4.6c1.6-2.1,4.1-4.2,4.6-6.9c0.3-1.5-0.4-3.3-1.5-4.5c-0.1-0.1-0.7,0.5-0.8,0.5c-0.6,0.6-0.9,1.3-1.2,2.1
	c-0.8,2.2-0.3,4.2,0.3,6.3c0.5,1.6,0.9,3.1,1.4,4.7c0.8,2.8,1.7,5.7,2.6,8.5c0.6,2,1.3,4.4-0.8,5.9c-0.7,0.5-1.5,0.7-2.3,0.4
	c-0.7-0.2-1.5-0.9-1.5-1.7c0-1.1,1.1-1.8,2.1-1.6c0.4,0.1,0.9,0.3,1,0.8"/>
<path style="fill:none;stroke:#EF7837;stroke-width:1.5;stroke-linecap:round;stroke-linejoin:round;stroke-miterlimit:10;" d="
	M50.3,103.7c0.7,2.8,6.3,3.8,12.7,2.3c6.3-1.5,10.9-5,10.2-7.8c-0.7-2.8-6.3-3.8-12.7-2.3C54.2,97.5,49.6,101,50.3,103.7z"/>
<path style="fill:none;stroke:#EF7837;stroke-width:1.5;stroke-linecap:round;stroke-linejoin:round;stroke-miterlimit:10;" d="
	M50.2,103.7l1.8,7.5c0.7,2.8,6.3,3.8,12.5,2.3c6.2-1.5,10.8-5,10.1-7.8l-1.8-7.5"/>
<polyline style="fill:none;stroke:#EF7837;stroke-width:1.5;stroke-linecap:round;stroke-linejoin:round;stroke-miterlimit:10;" points="
	73.8,108.9 67.9,104.2 64.6,113.7 57.4,106.8 54.7,113.8 "/>
<path style="fill:none;stroke:#EF7837;stroke-width:1.5;stroke-linecap:round;stroke-linejoin:round;stroke-miterlimit:10;" d="
	M65.5,89.2c-1,1.1-0.9,2.7,0.1,3.5c1,0.8,2.6,0.6,3.5-0.4c1-1.1,0.9-2.7-0.1-3.5C68,87.9,66.4,88.1,65.5,89.2z"/>
<line style="fill:none;stroke:#EF7837;stroke-width:1.5;stroke-linecap:round;stroke-linejoin:round;stroke-miterlimit:10;" x1="68.7" y1="88.8" x2="77.2" y2="79.2"/>
<path style="fill:none;stroke:#EF7837;stroke-width:1.5;stroke-linecap:round;stroke-linejoin:round;stroke-miterlimit:10;" d="
	M56.4,100.2c-0.4,1.3,0.3,2.7,1.6,3.3c1.3,0.6,2.7,0,3.2-1.3c0.4-1.3-0.3-2.7-1.6-3.3C58.2,98.4,56.8,99,56.4,100.2z"/>
<line style="fill:none;stroke:#EF7837;stroke-width:1.5;stroke-linecap:round;stroke-linejoin:round;stroke-miterlimit:10;" x1="56.2" y1="100.3" x2="40.2" y2="94.2"/>
<path style="fill:none;stroke:#EF7837;stroke-width:1.5;stroke-linecap:round;stroke-linejoin:round;stroke-miterlimit:10;" d="
	M52.2,95.3c-0.6-0.8-1.3-1.6-1.9-2.4c0.8-0.3,1.8-0.7,2.5-0.2c0-1.2,0-2.5,0-3.7c0.9,0.6,1.8,1.1,2.8,1.5c0.2,0.1,0.5,0.1,0.7,0
	c0.1-0.1,0.1-0.2,0.2-0.3c0.2-0.7,0.5-1.3,0.9-1.9c0.6,0.7,0.9,1.5,0.9,2.4"/>
<path style="fill:none;stroke:#EF7837;stroke-width:1.5;stroke-linecap:round;stroke-linejoin:round;stroke-miterlimit:10;" d="
	M74.2,91.1c0.8-0.4,3-1.4,3.9-1.4c-0.3,1.2-1.9,3.8-2.3,5c0.8-0.6,3.1-1.8,4-2.1c0.8-0.3,1.6-0.6,2.5-0.9L78,98c1-0.1,3.1,0,3.9,0.8
	c-1.7,0.3-3.1,1.7-3.5,3.4"/>
<path style="fill:none;stroke:#EF7837;stroke-width:1.5;stroke-linecap:round;stroke-linejoin:round;stroke-miterlimit:10;" d="
	M44.8,131.5c-1.5,2.1-10.1,3.8-20.2,3.8c-10,0-18.7-1.6-20.2-3.8 M16.6,129.7c-7.2,0.3-12.2,1-12.2,1.8c0,1.1,9,2,20.2,2
	s20.2-0.9,20.2-2c0-0.8-5.1-1.5-12.4-1.8 M3.2,118.3c-0.1-0.7-0.3-2.1,0.2-2.6c0.1-0.1,0.2-0.2,0.4-0.2c0.4-0.1,0.9-0.1,1.3-0.1
	c0.7,0,1.4,0,2.1,0.1c0.6,0,1.1,0.1,1.7,0.1l0.2,0c-0.1-0.8-0.2-1.5-0.3-2.3c-0.5,0-1,0-1.5-0.1c-1.2-0.1-3-0.2-4.1,0.1
	c-0.5,0.1-1,0.4-1.4,0.8c-1.3,1.2-1.2,3.2-0.9,4.7l0,0l0,0c2,7,6.9,10.6,14.2,9.6l0.5-0.1c-0.4-0.7-0.9-1.4-1.4-2.1
	C8.5,126.9,4.8,124,3.2,118.3z M40.3,111.6c0,5.4-1.8,10.3-4.8,13.8c-3.9,5.3-4,6.8-11,6.8c-7.5,0-6.6-0.7-11-6.8
	c-2.9-3.5-4.8-8.4-4.8-13.8c0-0.7,7-1.3,15.7-1.3S40.3,110.9,40.3,111.6z"/>
<path style="fill:none;stroke:#EF7837;stroke-width:1.5;stroke-linecap:round;stroke-linejoin:round;stroke-miterlimit:10;" d="
	M21.5,94.8c4.6,4.5-4.4,7,0,11.4 M28.4,96.4c4.6,4.5-4.4,7,0,11.4"/>
<path style="fill:none;stroke:#F59D1A;stroke-width:1.5;stroke-linecap:round;stroke-linejoin:round;stroke-miterlimit:10;" d="
	M68.7,145.3c-4.4-1.6-6.6-6.3-4.9-10.5"/>
<path style="fill:none;stroke:#F59D1A;stroke-width:1.5;stroke-linecap:round;stroke-linejoin:round;stroke-miterlimit:10;" d="
	M84.7,125.2c4.4,1.6,6.6,6.3,4.9,10.5"/>
<path style="fill:none;stroke:#F59D1A;stroke-width:1.5;stroke-linecap:round;stroke-linejoin:round;stroke-miterlimit:10;" d="
	M67.2,149.8c-6.8-2.6-10.2-10.2-7.6-17"/>
<path style="fill:none;stroke:#F59D1A;stroke-width:1.5;stroke-linecap:round;stroke-linejoin:round;stroke-miterlimit:10;" d="
	M86.7,120.8c6.4,2.6,9.6,10.2,7.2,17"/>
<path style="fill:none;stroke:#F59D1A;stroke-width:1.5;stroke-miterlimit:8;" d="M88.3,145.5l-11.4,5.1c-0.8,0.4-1.8-0.1-2.2-0.9
	c-3.8-9.8-6.9-15-10.3-22.5c-0.4-0.9-0.1-1.9,0.7-2.2l11.4-5.1c0.8-0.4,1.8,0.1,2.2,0.9c2.4,9.2,6.9,15,10.3,22.5
	C89.5,144.2,89.1,145.2,88.3,145.5z"/>
<line style="fill:none;stroke:#F59D1A;stroke-width:1.5;stroke-linejoin:round;stroke-miterlimit:10;" x1="65.7" y1="129.3" x2="79.7" y2="122.8"/>
<line style="fill:none;stroke:#F59D1A;stroke-width:1.5;stroke-linejoin:round;stroke-miterlimit:10;" x1="73.7" y1="147.3" x2="87.7" y2="140.8"/>
<line style="fill:none;stroke:#F59D1A;stroke-width:1.5;stroke-linecap:round;stroke-linejoin:round;stroke-miterlimit:10;" x1="70.7" y1="124.8" x2="73.2" y2="123.8"/>
<path style="fill:none;stroke:#F59D1A;stroke-width:1.5;stroke-linejoin:round;stroke-miterlimit:10;" d="M82.2,145.9
	c0.1,0.1,0,0.3-0.3,0.3c-0.3,0.1-0.5,0-0.7-0.1c-0.1-0.1,0-0.3,0.3-0.3C81.8,145.7,82.1,145.8,82.2,145.9z"/>
<polygon style="fill:none;stroke:#F59D1A;stroke-width:1.5;stroke-linecap:round;stroke-linejoin:round;stroke-miterlimit:10;" points="
	80.2,133.5 75.8,139.8 72.7,132.8 "/>
<path style="fill:none;stroke:#F59D1A;stroke-width:1.5;stroke-linecap:round;stroke-linejoin:round;stroke-miterlimit:10;" d="
	M139.7,111.5c-0.1-1.1-1.1-1.9-2.2-1.8l-3.6,0.5c-1.1,0.2-1.8,1.2-1.7,2.3l0,0.1l7.5-1.1L139.7,111.5z"/>
<path style="fill:none;stroke:#F59D1A;stroke-width:1.5;stroke-linecap:round;stroke-linejoin:round;stroke-miterlimit:10;" d="
	M146.7,133.3C146.7,133.2,146.7,133.2,146.7,133.3l-2.5-18.5c0,0,0,0,0,0l0.5,3.6l0.1,1"/>
<path style="fill:none;stroke:#F59D1A;stroke-width:1.5;stroke-linecap:round;stroke-linejoin:round;stroke-miterlimit:10;" d="
	M107.2,124.8l2,13.4c0,0,0,0,0,0.1"/>
<polyline style="fill:none;stroke:#F59D1A;stroke-width:1.5;stroke-linecap:round;stroke-linejoin:round;stroke-miterlimit:10;" points="
	121.2,121.8 107.2,123.8 107.4,124.8 "/>
<path style="fill:none;stroke:#F59D1A;stroke-width:1.5;stroke-linecap:round;stroke-linejoin:round;stroke-miterlimit:10;" d="
	M120.7,122.8c0.1-0.4,0.3-0.7,0.5-1"/>
<path style="fill:none;stroke:#F59D1A;stroke-width:1.5;stroke-linecap:round;stroke-linejoin:round;stroke-miterlimit:10;" d="
	M146.7,134.3c0.6-0.3,0.7-0.7,0.1-1"/>
<line style="fill:none;stroke:#F59D1A;stroke-width:1.5;stroke-linecap:round;stroke-linejoin:round;stroke-miterlimit:10;" x1="109.7" y1="139.3" x2="146.8" y2="134.2"/>
<path style="fill:none;stroke:#F59D1A;stroke-width:1.5;stroke-linecap:round;stroke-linejoin:round;stroke-miterlimit:10;" d="
	M109.2,138.2c0.1,0.4,0.3,0.7,0.5,1"/>
<path style="fill:none;stroke:#F59D1A;stroke-width:1.5;stroke-linecap:round;stroke-linejoin:round;stroke-miterlimit:10;" d="
	M117.8,119.6c0.1,0.5-0.3,0.9-0.7,1l-5.5,0.8c-0.5,0.1-0.9-0.3-1-0.7l-0.3-2.1c-0.1-0.5,0.3-0.9,0.7-1l5.5-0.8
	c0.5-0.1,0.9,0.3,1,0.7L117.8,119.6z M125.8,119.5c1.8-0.2,3.5,0.2,4.9,1.1l14-1.9l-0.5-3.5l-0.1-0.6c-0.3-1.8-2.2-3-4.3-2.7l-7.4,1
	l-22.2,3.1c-2.1,0.3-3.7,2-3.4,3.7l0.6,4.1l14-1.9C122.5,120.6,124,119.7,125.8,119.5z"/>
<path style="fill:none;stroke:#F59D1A;stroke-width:1.5;stroke-linecap:round;stroke-linejoin:round;stroke-miterlimit:10;" d="
	M116.5,116.8l-5.5,0.7c-0.5,0.1-0.8,0.5-0.7,1l0.3,2c0.1,0.5,0.5,0.8,1,0.7l5.5-0.7c0.5-0.1,0.8-0.5,0.7-1l-0.3-2
	C117.4,117,116.9,116.7,116.5,116.8z"/>
<path style="fill:none;stroke:#F59D1A;stroke-width:1.5;stroke-linecap:round;stroke-linejoin:round;stroke-miterlimit:10;" d="
	M113.9,141.7l29.5-4.1c1.8-0.2,3.1-1.7,3.3-3.4l-37,5.1C110.4,141,112.1,142,113.9,141.7z"/>
<path style="fill:none;stroke:#F59D1A;stroke-width:1.5;stroke-linecap:round;stroke-linejoin:round;stroke-miterlimit:10;" d="
	M127.5,131.5c-2.9,0.4-5.5-1.5-5.9-4.3c-0.4-2.8,1.6-5.4,4.5-5.7c2.9-0.4,5.5,1.5,5.9,4.3C132.4,128.6,130.4,131.1,127.5,131.5z
	 M130.8,120.4c-1.4-0.9-3.2-1.3-5-1.1c-1.8,0.2-3.4,1.1-4.6,2.3c-0.3,0.3-0.6,0.7-0.8,1.1c-0.9,1.4-1.3,3-1,4.8
	c0.6,4,4.4,6.7,8.5,6.2c4.1-0.6,7-4.2,6.4-8.2c-0.2-1.7-1.1-3.2-2.3-4.3C131.5,120.9,131.2,120.6,130.8,120.4z"/>
<path style="fill:none;stroke:#F59D1A;stroke-width:1.5;stroke-linecap:round;stroke-linejoin:round;stroke-miterlimit:10;" d="
	M126.1,121.3c-2.7,0.4-4.6,3.1-4.3,5.9c0.4,2.9,2.9,4.9,5.6,4.5c2.7-0.4,4.6-3.1,4.3-5.9C131.3,122.9,128.8,120.9,126.1,121.3z"/>
<path style="fill:none;stroke:#F59D1A;stroke-width:1.5;stroke-linecap:round;stroke-linejoin:round;stroke-miterlimit:10;" d="
	M135.3,105.8c-0.2-1.5-0.3-3-0.5-4.5"/>
<path style="fill:none;stroke:#F59D1A;stroke-width:1.5;stroke-linecap:round;stroke-linejoin:round;stroke-miterlimit:10;" d="
	M140.7,106.8c0.8-1,1.7-2,2.5-3"/>
<path style="fill:none;stroke:#F59D1A;stroke-width:1.5;stroke-linecap:round;stroke-linejoin:round;stroke-miterlimit:10;" d="
	M130.2,107.8c-1.2-1-2.3-2-3.5-3"/>
<line style="fill:none;stroke:#FAB400;stroke-width:1.5;stroke-linecap:round;stroke-linejoin:round;stroke-miterlimit:10;" x1="91.2" y1="165.8" x2="91.7" y2="163.2"/>
<line style="fill:none;stroke:#FAB400;stroke-width:1.5;stroke-linecap:round;stroke-linejoin:round;stroke-miterlimit:10;" x1="93.2" y1="166.8" x2="93.8" y2="162.8"/>
<line style="fill:none;stroke:#FAB400;stroke-width:1.5;stroke-linecap:round;stroke-linejoin:round;stroke-miterlimit:10;" x1="94.2" y1="168.8" x2="95.3" y2="161.2"/>
<line style="fill:none;stroke:#FAB400;stroke-width:1.5;stroke-linecap:round;stroke-linejoin:round;stroke-miterlimit:10;" x1="96.2" y1="169.8" x2="97.2" y2="160.8"/>
<line style="fill:none;stroke:#FAB400;stroke-width:1.5;stroke-linecap:round;stroke-linejoin:round;stroke-miterlimit:10;" x1="98.2" y1="167.8" x2="98.7" y2="163.2"/>
<line style="fill:none;stroke:#FAB400;stroke-width:1.5;stroke-linecap:round;stroke-linejoin:round;stroke-miterlimit:10;" x1="99.7" y1="166.8" x2="100.3" y2="164.2"/>
<line style="fill:none;stroke:#FAB400;stroke-width:1.5;stroke-linecap:round;stroke-linejoin:round;stroke-miterlimit:10;" x1="101.2" y1="168.8" x2="102.3" y2="162.8"/>
<line style="fill:none;stroke:#FAB400;stroke-width:1.5;stroke-linecap:round;stroke-linejoin:round;stroke-miterlimit:10;" x1="102.7" y1="170.8" x2="103.8" y2="161.2"/>
<line style="fill:none;stroke:#FAB400;stroke-width:1.5;stroke-linecap:round;stroke-linejoin:round;stroke-miterlimit:10;" x1="104.2" y1="172.2" x2="105.8" y2="160.2"/>
<line style="fill:none;stroke:#FAB400;stroke-width:1.5;stroke-linecap:round;stroke-linejoin:round;stroke-miterlimit:10;" x1="106.2" y1="170.8" x2="107.3" y2="161.8"/>
<line style="fill:none;stroke:#FAB400;stroke-width:1.5;stroke-linecap:round;stroke-linejoin:round;stroke-miterlimit:10;" x1="108.2" y1="168.8" x2="108.8" y2="164.8"/>
<line style="fill:none;stroke:#FAB400;stroke-width:1.5;stroke-linecap:round;stroke-linejoin:round;stroke-miterlimit:10;" x1="109.7" y1="169.8" x2="110.3" y2="163.8"/>
<line style="fill:none;stroke:#FAB400;stroke-width:1.5;stroke-linecap:round;stroke-linejoin:round;stroke-miterlimit:10;" x1="111.2" y1="171.8" x2="112.2" y2="162.2"/>
<path style="fill:none;stroke:#FAB400;stroke-width:1.5;stroke-miterlimit:8;" d="M119.7,167.3c0.2-9.8-12.6-13-18.6-13.1
	c-6-0.1-19.3,1.9-17.2,12.4c0.4,6.2,16.2,10.5,22.2,10.6C112.1,177.3,119.5,177.1,119.7,167.3z"/>
<path style="fill:none;stroke:#FAB400;stroke-width:1.5;stroke-linecap:round;stroke-linejoin:round;stroke-miterlimit:10;" d="
	M77.7,189.2c-13.6,0.8-27.8-3.4-38.6-11.4c-10.8-8-17.9-19.6-19.4-31.5c4.8,3.3,12.6,1.8,16.6-3c-0.7,10.4,3.3,21.3,11,29.8
	C55.1,181.5,66.4,187.5,77.7,189.2z"/>
<path style="fill:none;stroke:#FAB400;stroke-width:1.5;stroke-linecap:round;stroke-linejoin:round;stroke-miterlimit:10;" d="
	M49.2,156.7c2.3-0.5,4.1-3,3.9-5.4c0.1,1.1,0.4,2.3,1.3,3.2c0.9,0.9,2.4,1.5,3.8,1.3c-2.3,0.6-4,3-4.1,5.5
	C53.7,158.8,51.5,157,49.2,156.7z"/>
<path style="fill:none;stroke:#FAB400;stroke-width:1.5;stroke-linejoin:round;stroke-miterlimit:10;" d="M70.4,165.4
	c-0.7-0.3-1.5-0.2-2.1,0.2c-0.4-2.6-4.1-2.5-4.4,0.1c-0.4,2,1.4,3.8,2.2,5.5c1.7-0.6,4.2-0.6,5.3-2.2
	C72.2,167.8,71.7,166,70.4,165.4z"/>
<path style="fill:none;stroke:#FAB400;stroke-width:1.5;stroke-linecap:round;stroke-linejoin:round;stroke-miterlimit:10;" d="
	M133.6,167.3c-1-0.9-2.7-0.7-3.9,0.6c-1.2,1.2-1.3,2.9-0.3,3.8c1,0.9,2.7,0.7,3.9-0.6C134.4,169.9,134.6,168.2,133.6,167.3z"/>
<line style="fill:none;stroke:#FAB400;stroke-width:1.5;stroke-linecap:round;stroke-linejoin:round;stroke-miterlimit:10;" x1="134.3" y1="168.2" x2="129.2" y2="151.8"/>
<path style="fill:none;stroke:#FAB400;stroke-width:1.5;stroke-linecap:round;stroke-linejoin:round;stroke-miterlimit:10;" d="
	M129.2,151.8c1.1,1.2,2.5,2.1,3.9,3c1.4,0.9,2.7,2,3.5,3.4c0.8,1.4,0.9,3.3-0.1,4.6"/>
<path style="fill:none;stroke:#FAB400;stroke-width:1.5;stroke-linecap:round;stroke-linejoin:round;stroke-miterlimit:10;" d="
	M92.7,199.9c-0.3-1.2-1.8-1.9-3.4-1.6c-1.6,0.3-2.8,1.5-2.5,2.7c0.3,1.2,1.8,1.9,3.4,1.6C91.9,202.4,93,201.2,92.7,199.9z"/>
<line style="fill:none;stroke:#FAB400;stroke-width:1.5;stroke-linecap:round;stroke-linejoin:round;stroke-miterlimit:10;" x1="92.7" y1="201.3" x2="98.2" y2="185.2"/>
<path style="fill:none;stroke:#FAB400;stroke-width:1.5;stroke-linecap:round;stroke-linejoin:round;stroke-miterlimit:10;" d="
	M98.3,185.2c0.2,1.5,0.7,3,1.2,4.4c0.5,1.5,0.9,3,0.7,4.5c-0.2,1.5-1.1,3.1-2.5,3.5"/>
<path style="fill:none;stroke:#FAB400;stroke-width:1.5;stroke-linecap:round;stroke-linejoin:round;stroke-miterlimit:10;" d="
	M116.2,189.9c-1.7,0.5-2.8,2.3-2.3,4.1c0.9,3.4,1.7,5.5,2.6,10.3l2.5-0.7l-1.8-7.1c0.2,0,0.5,0,0.7-0.1c1.7-0.5,2.8-2.3,2.3-4.1
	C119.7,190.5,117.9,189.4,116.2,189.9z"/>
<path style="fill:none;stroke:#FAB400;stroke-width:1.5;stroke-linecap:round;stroke-linejoin:round;stroke-miterlimit:10;" d="
	M126.8,201.1c1.7-0.5,2.8-2.2,2.3-4l-2.6-9.9l-2.5,0.7c-0.1,3.6,1.2,4.6,1.8,6.8c-0.2,0-0.5,0-0.7,0.1c-1.7,0.5-2.8,2.2-2.3,4
	C123.3,200.6,125.1,201.6,126.8,201.1z"/>
<path style="fill:none;stroke:#FAB400;stroke-width:1.5;stroke-linecap:round;stroke-linejoin:round;stroke-miterlimit:10;" d="
	M130.8,204l-13.5,3.6c-1.7,0.5-3.5-0.6-4-2.4l-3.5-13.8c-0.5-1.8,0.6-3.6,2.3-4l13.5-3.6c1.7-0.5,3.5,0.6,4,2.4l3.5,13.8
	C133.6,201.8,132.6,203.6,130.8,204z"/>
<path style="fill:none;stroke:#FAB400;stroke-width:1.5;stroke-linecap:round;stroke-linejoin:round;stroke-miterlimit:10;" d="
	M152.2,200.5c-0.3-1.3-2.3-2-4.3-1.6c-2,0.4-3.4,1.8-3.1,3.1c0.3,1.3,2.3,2,4.3,1.6C151.2,203.2,152.5,201.8,152.2,200.5z"/>
<path style="fill:none;stroke:#FAB400;stroke-width:1.5;stroke-linecap:round;stroke-linejoin:round;stroke-miterlimit:10;" d="
	M165.2,196.7c-0.3-1.4-2.3-2.2-4.3-1.8c-2,0.5-3.4,2-3.1,3.5c0.3,1.4,2.3,2.2,4.3,1.8C164.2,199.7,165.5,198.1,165.2,196.7z"/>
<polyline style="fill:none;stroke:#FAB400;stroke-width:1.5;stroke-linecap:round;stroke-linejoin:round;stroke-miterlimit:10;" points="
	152.2,201.3 152.2,183.7 165.2,179.8 "/>
<path style="fill:none;stroke:#FAB400;stroke-width:1.5;stroke-linecap:round;stroke-linejoin:round;stroke-miterlimit:10;" d="
	M152.2,190.2c4.2-3.1,7.8-3.7,12-5"/>
<path style="fill:none;stroke:#FAB400;stroke-width:1.5;stroke-linecap:round;stroke-linejoin:round;stroke-miterlimit:10;" d="
	M165.3,197.2c0-5.8-1.1-9.2,0-17.5"/>
<path style="fill:none;stroke:#FAB400;stroke-width:1.5;stroke-miterlimit:8;" d="M180.2,209.5c-0.9,1.1-2.4,1-3.5,0
	c-1.1-1.1-1.2-2.8-0.4-3.9c0.9-1.1,2.4-1,3.5,0C180.9,206.7,181.1,208.4,180.2,209.5z"/>
<polyline style="fill:none;stroke:#FAB400;stroke-width:1.5;stroke-miterlimit:8;" points="180.2,209.5 191.5,197.2 204.8,203 
	193.5,215.3 "/>
<path style="fill:none;stroke:#FAB400;stroke-width:1.5;stroke-miterlimit:8;" d="M193.2,215c-0.9,1-2.4,0.9-3.5,0
	c-1.1-1-1.2-2.6-0.4-3.5c0.9-1,2.4-0.9,3.5,0C193.9,212.5,194.1,214.1,193.2,215z"/>
<path style="fill:none;stroke:#FAB400;stroke-width:1.5;stroke-linecap:round;stroke-linejoin:round;stroke-miterlimit:10;" d="
	M210.7,189.2c-6.3-2.2-11.7-6.8-14.9-12.6c-3.3-5.8-4.4-12.8-3-19.3c-6.8,1.3-14.9-1.5-20.1-7.1c1.5,2,3.2,3.7,4.7,5.7
	c1.5,2,2.8,4.2,2.9,6.7c0.2,2.5-0.9,5.1-2.8,6.5C185.2,180.3,197.8,188.1,210.7,189.2z"/>
<path style="fill:none;stroke:#FAB400;stroke-width:1.5;stroke-miterlimit:8;" d="M157.1,148.8c3.2,0.4,8.5,5.9,7.5,11
	c-0.3,1.3-0.8,2.4-1.4,3.5l-0.8,0.8l2.1,8.1l-7-5.1l-0.3,0.1c-1.2,0.3-2.5,0.3-3.8,0c-5.2-1-8.8-2.3-8.1-9.9
	C146,149.7,153.9,148.4,157.1,148.8z"/>
<polygon style="fill:none;stroke:#FAB400;stroke-width:1.5;stroke-linecap:round;stroke-linejoin:round;stroke-miterlimit:10;" points="
	154.3,152.8 155.7,156 159.3,156.4 156.6,158.8 157.3,162.3 154.3,160.5 151.2,162.3 151.9,158.8 149.2,156.4 152.8,156 "/>
</svg>
