<svg viewBox="0 0 99.15 44.12" xmlns="http://www.w3.org/2000/svg"><path d="m90.1 42a37 37 0 0 1 -10.33 1.1c-25.08-.65-46-.89-71.32-1.56-5.17-.14-9.06-7.45-6.79-12.77s9.71-6.3 13-1.71c-.66-8.43 8.41-15.59 15.05-11.84-.28-5.81 3.66-11.49 8.67-12.5s10.41 2.8 14.07 10.13c1.87-8.79 11.34-14.27 18.64-10.79s10.58 15 6.44 22.73a5.3 5.3 0 0 1 8.23-.34 7.3 7.3 0 0 1 -.51 9.4c3.15-3.68 10.12-4.89 12.26-.6 2.49 4.94-2.59 7.48-7.41 8.75z" fill="none" stroke="#DF6469" stroke-linecap="round" stroke-linejoin="round" stroke-width="2"/></svg>
