<svg viewBox="0 0 112.39 108.33" xmlns="http://www.w3.org/2000/svg"><g fill="none" stroke="#DF6469" stroke-linecap="round" stroke-linejoin="round" stroke-width="2"><path d="m36.72 21.74-14.38 7.73c.61-4.48-5-8.42-9-6.34s-4 8.94 0 11c-4.17 2.96-8.34 5.87-12.34 9.32q3.42 6.24 6.82 12.49c.9-4.83 8.59-6.38 11.29-2.28s-1.78 10.56-6.57 9.46l9.28 13.78 11.5-9.74c1.12 4.68 7.22 7.34 11.41 5s5.05-9 1.62-12.33q6-4.05 12-8.07l-7.44-10.9c-1.3 3.92-7.65 4.69-9.84 1.19s1.24-8.87 5.33-8.35c-3.23-4.12-6.47-8.24-9.68-11.96z"/><path d="m22.13 78 8.81 9.3c-4.76.38-7.62 7-4.63 10.74s10.08 2.37 11.49-2.2l10.2 11.49 12.93-7.17c-4.62-.17-7.28-6.94-4-10.21s10-.59 10.2 4l13.67-8.63-8.97-11.12c5.32.4 9.15-7.15 5.68-11.2s-11.51-1.46-12 3.86l-8.72-12"/><path d="m38.81 21 12.19-8.86a6.67 6.67 0 0 0 9.1 4.69 6.67 6.67 0 0 0 1.81-10.09l10.51-5.74q3.8 6.4 7.58 12.82c2.42-3.55 8.67-3.29 10.8.45s-.85 9.24-5.15 9.51q2.35 5.37 4.74 10.75l-10.88 6.55c.79-4.72-5.41-8.89-9.48-6.36s-3.1 9.93 1.48 11.28l-11.77 6.61"/><path d="m81.29 84.93 9.57-7.61c.84 4 6.27 6.26 9.69 4s3.47-8.15.08-10.47l10.76-8.15-7.93-9c-1.11 4-7.34 5.08-9.76 1.76s.54-8.91 4.65-8.76l-7.78-11.48"/></g></svg>
