<?xml version="1.0" encoding="utf-8"?>
<!-- Generator: Adobe Illustrator 26.0.1, SVG Export Plug-In . SVG Version: 6.00 Build 0)  -->
<svg version="1.1" id="Layer_1" xmlns="http://www.w3.org/2000/svg" xmlns:xlink="http://www.w3.org/1999/xlink" x="0px" y="0px"
	 viewBox="0 0 95.7 82.9" style="enable-background:new 0 0 95.7 82.9;" xml:space="preserve">
<g>
	<path style="fill:none;stroke:#DF6469;stroke-width:2;stroke-linecap:round;stroke-linejoin:round;" d="M28.8,58.5h58.5"/>
	<path style="fill:none;stroke:#DF6469;stroke-width:2;stroke-linecap:round;stroke-linejoin:round;" d="M28.8,58.4
		C22,39.1,15.2,19.8,7.7,1L1,1.7"/>
	<path style="fill:none;stroke:#DF6469;stroke-width:2;stroke-linecap:round;stroke-linejoin:round;" d="M22.5,70.3
		c1.6-4.9,6.2-7.8,10.3-6.4s6.2,6.3,4.6,11.2s-6.2,7.8-10.3,6.4S20.9,75.2,22.5,70.3z"/>
	<path style="fill:none;stroke:#DF6469;stroke-width:2;stroke-linecap:round;stroke-linejoin:round;" d="M71.9,70.3
		c1.6-4.9,6.2-7.8,10.3-6.4s6.2,6.3,4.6,11.2s-6.2,7.8-10.3,6.4S70.3,75.2,71.9,70.3z"/>
	<path style="fill:none;stroke:#DF6469;stroke-width:2;stroke-linecap:round;stroke-linejoin:round;" d="M35.1,57.9
		C31.6,45.5,22.4,20,22.4,20l71.8,0.6"/>
	<path style="fill:none;stroke:#DF6469;stroke-width:2;stroke-linecap:round;stroke-linejoin:round;" d="M81.8,58.4l12.9-37.4"/>
	<path style="fill:none;stroke:#DF6469;stroke-width:2;stroke-linecap:round;stroke-linejoin:round;" d="M79.3,21.3L69.9,58"/>
	<path style="fill:none;stroke:#DF6469;stroke-width:2;stroke-linecap:round;stroke-linejoin:round;" d="M42.2,20.9
		c2.3,12.3,4.7,24.6,7,36.9"/>
	<path style="fill:none;stroke:#DF6469;stroke-width:2;stroke-linecap:round;stroke-linejoin:round;" d="M26.4,29.7l64.8,0.1"/>
	<path style="fill:none;stroke:#DF6469;stroke-width:2;stroke-linecap:round;stroke-linejoin:round;" d="M31.9,43.7h53.7"/>
</g>
<path style="fill:none;stroke:#312E45;stroke-width:1.3;stroke-linejoin:round;stroke-miterlimit:10;" d="M93.4,21
	C81.7,8.4,81.7,8.4,81.7,8.4C34,55,34,55,34,55C15.8,34.5,15.8,34.5,15.8,34.5C2.9,45.8,2.9,45.8,2.9,45.8
	c24.3,27.5,24.3,27.5,24.3,27.5c1,1.2,2.4,1.9,3.8,2.4c1.4,0.5,2.9,0.5,4.5,0.2c1.4-0.5,2.9-1.2,3.8-2.4L93.4,21L93.4,21L93.4,21z"
	/>
</svg>
