<svg viewBox="0 0 100.76 102.73" xmlns="http://www.w3.org/2000/svg"><g fill="none" stroke="#DF6469" stroke-linecap="round" stroke-linejoin="round" stroke-width="2"><path d="m57.7 46.18c10-3.66 16.59-14.83 15-25.34s-11.17-19.24-21.78-19.84-21.1 7.1-23.8 17.38 2.67 22.09 12.8 27a9.24 9.24 0 0 0 13.78 10.36 9.06 9.06 0 0 0 4-9.56z"/><path d="m39.34 45.06a25.47 25.47 0 0 0 19.25.76"/><path d="m39.87 48.36a18.28 18.28 0 0 0 18 .39"/><path d="m40.92 52.34a20.34 20.34 0 0 0 15.59.16"/><path d="m81.69 27.5 7.28.13"/><path d="m81.5 17.79 6.59-3.79"/><path d="m81.64 37 4.76 4.16"/><path d="m15.7 27.5-7.28.13"/><path d="m15.89 17.79-6.59-3.79"/><path d="m15.75 37-4.75 4.16"/><rect height="34.19" rx="2" width="15.61" x="1" y="63.73"/><path d="m16.53 96.83c14.63 6.22 30.76 6.26 45.94 1.55a71.25 71.25 0 0 0 36.65-27 3.54 3.54 0 0 0 .14-3.85 8.08 8.08 0 0 0 -10.26-3.33 69.21 69.21 0 0 0 -19.13 12.59"/><path d="m67.1 71.85 16.53-12.09a4 4 0 0 1 6.37 4.05"/><path d="m61.35 69.73 15.21-10.6a2.94 2.94 0 0 1 3.15-.1c.94.58 1 1.74.81 2.84"/><path d="m55.4 69.42 11.8-8.71a2.58 2.58 0 0 1 4.1 1.7"/><path d="m16.71 71.54a17.27 17.27 0 0 1 11.91-8.05 17.49 17.49 0 0 1 13.89 4.08c2.36 2.06 5.69 2.61 8.82 2.58s6.27-.56 9.39-.27 6.37 1.57 8 4.25.8 6.86-2.14 7.94a51.85 51.85 0 0 1 -26.3 2.46"/><path d="m5.42 64-.86 33.48"/><path d="m39.78 10.67c-6.57 3.82-9.4 13-6 19.77"/><path d="m45.75 32.8a3.92 3.92 0 0 0 7.84 0"/><path d="m44.17 46.54-2.92-13a1.62 1.62 0 0 0 -1.88-1.13 1.6 1.6 0 0 0 -1.11 2.31 3.91 3.91 0 0 0 3.4 2 4.07 4.07 0 0 0 4.09-3.92"/><path d="m55.19 46.54 2.92-13a1.63 1.63 0 0 1 1.89-1.09 1.6 1.6 0 0 1 1.11 2.31 3.93 3.93 0 0 1 -3.4 2 4.09 4.09 0 0 1 -4.12-3.92"/></g></svg>
