<svg viewBox="0 0 88 59.34" xmlns="http://www.w3.org/2000/svg"><g fill="none" stroke="#DF6469" stroke-linecap="round" stroke-linejoin="round" stroke-width="2"><path d="m1 1h86v57.34h-86z"/><path d="m1 1.58h86v9.79h-86z"/><path d="m38.66 22.63h39.18"/><path d="m38.66 32.88h39.18"/><path d="m38.66 43.88h39.18"/><path d="m15 25.05a3.75 3.75 0 1 1 3.55 3.82 3.68 3.68 0 0 1 -3.55-3.82z"/><path d="m28.08 44.75a14.52 14.52 0 0 0 -3.91-14.3c-2.47 1.73-6.93 1.95-10.45.45a14.51 14.51 0 0 0 -2.85 14c5.83.47 11.65.91 17.21-.15z"/></g></svg>
