<svg xmlns="http://www.w3.org/2000/svg" xmlns:xlink="http://www.w3.org/1999/xlink" viewBox="0 0 378.59 59.99"><defs><style>.cls-1{fill:url(#linear-gradient);}.cls-2{fill:#da006e;}.cls-3{fill:#fff;}.cls-4{fill:url(#linear-gradient-2);}.cls-5{fill:url(#linear-gradient-3);}</style><linearGradient id="linear-gradient" x1="-0.69" y1="30" x2="57.64" y2="30" gradientUnits="userSpaceOnUse"><stop offset="0.02" stop-color="#efb627"/><stop offset="0.1" stop-color="#eeaa2c"/><stop offset="0.26" stop-color="#ea8a38"/><stop offset="0.47" stop-color="#e4554d"/><stop offset="0.72" stop-color="#dc0e69"/><stop offset="0.77" stop-color="#da006e"/></linearGradient><linearGradient id="linear-gradient-2" x1="244.46" y1="13.41" x2="364.71" y2="13.41" gradientUnits="userSpaceOnUse"><stop offset="0.02" stop-color="#efb627"/><stop offset="0.11" stop-color="#eeaa2c"/><stop offset="0.29" stop-color="#ea8a38"/><stop offset="0.52" stop-color="#e4554d"/><stop offset="0.79" stop-color="#dc0e69"/><stop offset="0.85" stop-color="#da006e"/></linearGradient><linearGradient id="linear-gradient-3" x1="243.67" y1="43.02" x2="378.59" y2="43.02" xlink:href="#linear-gradient-2"/></defs><g id="Layer_2" data-name="Layer 2"><g id="Layer_1-2" data-name="Layer 1"><path class="cls-1" d="M30.79,8H5l2.55,8.8H30.79a4.41,4.41,0,0,1,4.4,4.4v4.4h-22A13.2,13.2,0,1,0,13.2,52H30.79A13.21,13.21,0,0,0,44,38.8V21.21A13.21,13.21,0,0,0,30.79,8Zm4.4,30.79a4.41,4.41,0,0,1-4.4,4.4H13.2a4.4,4.4,0,1,1,0-8.8h22Z"/><polygon class="cls-2" points="56.57 25.61 48.55 25.61 48.55 34.4 59.12 34.4 56.57 25.61"/><path class="cls-3" d="M87.69,38.88H83.91V36.74a6.57,6.57,0,0,1-5.43,2.47,8.75,8.75,0,0,1-8.73-9,8.66,8.66,0,0,1,8.73-9,6.6,6.6,0,0,1,5.43,2.47V21.44h3.78Zm-14-8.72c0,3,2,5.6,5.27,5.6,3.13,0,5.27-2.31,5.27-5.6A5.28,5.28,0,0,0,79,24.56C75.68,24.56,73.7,27.2,73.7,30.16Z"/><path class="cls-3" d="M120.28,28V38.88H116.5V29.17c0-3-1.48-4.61-4-4.61a4.28,4.28,0,0,0-4.45,4.61v9.55h-3.78V29c0-3-1.48-4.61-3.95-4.61A4.28,4.28,0,0,0,95.92,29v9.55H92.14V21.44h3.45v2.14a6.38,6.38,0,0,1,5.27-2.64,6.62,6.62,0,0,1,5.93,3.13A7,7,0,0,1,113,20.94C117.32,21.11,120.28,23.91,120.28,28Z"/><path class="cls-3" d="M163.41,30.16c0,5.27-3.95,9.05-9.38,9.05a9.11,9.11,0,0,1-9.39-9,9.39,9.39,0,0,1,18.77,0Zm-14.65,0a5.43,5.43,0,1,0,10.86,0,5.43,5.43,0,1,0-10.86,0Z"/><path class="cls-3" d="M181.68,23.74l-2.47,2.63a5.61,5.61,0,0,0-4.11-1.81c-3,0-5.11,2.31-5.11,5.6s2.14,5.6,5.11,5.6A6.81,6.81,0,0,0,179.38,34l2.3,2.63a8.6,8.6,0,0,1-6.42,2.8,8.73,8.73,0,0,1-9-9.05,8.73,8.73,0,0,1,9-9.06A7.6,7.6,0,0,1,181.68,23.74Z"/><path class="cls-3" d="M197.32,25.88a10.57,10.57,0,0,0-5.27-1.48c-2.14,0-3.29.82-3.29,2.14,0,1.15,1.31,1.48,2.8,1.81l1.81.33c3.78.49,6.09,2.14,6.09,5.1,0,3.29-3,5.6-7.9,5.6a12.87,12.87,0,0,1-7.41-2.14l1.81-2.8a8.86,8.86,0,0,0,5.76,1.81c2.63,0,3.95-.82,3.95-2.14,0-1-1-1.64-3-2L190.9,32c-3.79-.49-5.93-2.3-5.93-5.1,0-3.46,2.8-5.6,7.08-5.6a13.72,13.72,0,0,1,7.08,1.81Z"/><path class="cls-3" d="M137.57,23.58V17.16l3.78-1.32V38.72h-3.78v-2a6.59,6.59,0,0,1-5.43,2.47,8.75,8.75,0,0,1-8.73-9,8.66,8.66,0,0,1,8.73-9A6.62,6.62,0,0,1,137.57,23.58Zm-10.21,6.58c0,3,2,5.6,5.27,5.6,3.13,0,5.27-2.31,5.27-5.6a5.28,5.28,0,0,0-5.27-5.6C129.34,24.56,127.36,27.2,127.36,30.16Z"/><rect class="cls-3" x="221.36" y="7.57" width="2.27" height="44.86"/><path class="cls-4" d="M273.2,15.07V26.36h-4.76V16.61c0-2.57-1.3-4-3.46-4s-3.75,1.34-3.75,4v9.72h-4.78V16.61c0-2.57-1.28-4-3.46-4s-3.75,1.34-3.75,4v9.72h-4.78V8.62h4.65v2.09a5.93,5.93,0,0,1,5.22-2.56,6.72,6.72,0,0,1,5.86,3,7.16,7.16,0,0,1,13,3.88Zm20.51,11.29H289V24.41a6.52,6.52,0,0,1-5.31,2.41c-4.89,0-8.59-4-8.59-9.34s3.7-9.33,8.59-9.33A6.5,6.5,0,0,1,289,10.58v-2h4.67ZM280,17.48a4.59,4.59,0,1,0,9.16,0,4.59,4.59,0,1,0-9.16,0ZM301,14.94h1.69l5-6.32h5.85l-7,8.35,7.05,9.39h-5.88l-5.11-7.17H301v7.17h-4.78V0H301Zm29.41,2.53a15,15,0,0,1-.09,1.61H317.71a4.29,4.29,0,0,0,4.56,3.68,7.1,7.1,0,0,0,4.48-1.71l2.8,3.08A10.74,10.74,0,0,1,322,26.82c-5.44,0-9.21-3.7-9.21-9.28s3.67-9.39,9-9.39C326.86,8.15,330.36,11.94,330.38,17.47Zm-12.65-1.65h7.85c-.44-2.27-1.81-3.55-3.86-3.55C319.47,12.27,318.15,13.62,317.73,15.82ZM347.28,3.17a3.05,3.05,0,0,1-6.1,0,3.05,3.05,0,1,1,6.1,0Zm-.64,23.19h-4.78V8.62h4.78Zm16.75-13.49H357v6.48c0,2.22,1.17,3,2.65,3A6.86,6.86,0,0,0,363,21.22L364.71,25a9.86,9.86,0,0,1-5.88,1.87c-4.39,0-6.64-2.49-6.64-7.08V12.87h-3.43V8.62h3.43V3.35H357V8.62h6.42Z"/><path class="cls-5" d="M262.24,52.32h-4.67v-2a6.5,6.5,0,0,1-5.31,2.42c-4.89,0-8.59-4-8.59-9.34s3.7-9.34,8.59-9.34a6.48,6.48,0,0,1,5.31,2.44v-2h4.67Zm-13.68-8.88a4.59,4.59,0,1,0,9.16,0,4.59,4.59,0,1,0-9.16,0ZM293.45,41v11.3h-4.76V42.56c0-2.56-1.3-4-3.46-4s-3.75,1.34-3.75,4v9.72H276.7V42.56c0-2.56-1.28-4-3.46-4s-3.75,1.34-3.75,4v9.72h-4.78V34.58h4.65v2.09a5.93,5.93,0,0,1,5.22-2.57,6.74,6.74,0,0,1,5.86,3,7.16,7.16,0,0,1,13,3.88Zm20.49,11.3h-4.67v-2A6.5,6.5,0,0,1,304,52.78c-4.89,0-8.58-4-8.58-9.34s3.69-9.34,8.58-9.34a6.48,6.48,0,0,1,5.31,2.44v-2h4.67Zm-13.68-8.88a4.59,4.59,0,1,0,9.16,0,4.59,4.59,0,1,0-9.16,0Zm31.42-5.36-8.75,10h9v4.26H316.36V48.88l8.95-10.05h-8.64V34.58h15Zm8-8.95a3,3,0,1,1-3.06-3.08A3,3,0,0,1,339.72,29.13Zm-.64,23.19H334.3V34.58h4.78ZM358.32,41v11.3h-4.78V42.56c0-2.56-1.28-4-3.46-4s-3.75,1.34-3.75,4v9.72h-4.78V34.58h4.65v2.09a6,6,0,0,1,5.22-2.57A6.61,6.61,0,0,1,358.32,41Zm15.58-4.46v-2h4.69V50.86c0,5.69-3.72,9.13-9.58,9.13a14,14,0,0,1-7.76-2.14L363,54a10.52,10.52,0,0,0,5.86,1.81c3,0,5.06-1.64,5.06-4.7V49.81a6.69,6.69,0,0,1-5.46,2.4c-4.32,0-8.17-3.61-8.17-9s3.85-9.07,8.17-9.07A6.73,6.73,0,0,1,373.9,36.56Zm-8.75,6.61a4.46,4.46,0,1,0,8.92,0,4.46,4.46,0,1,0-8.92,0Z"/></g></g></svg>