<svg xmlns="http://www.w3.org/2000/svg" xmlns:xlink="http://www.w3.org/1999/xlink" viewBox="0 0 331.79 88.99"><defs><style>.cls-1{fill:url(#linear-gradient);}.cls-2{fill:#da006e;}.cls-3{fill:#fff;}</style><linearGradient id="linear-gradient" x1="-1.02" y1="44.29" x2="84.93" y2="44.29" gradientUnits="userSpaceOnUse"><stop offset="0.02" stop-color="#efb627"/><stop offset="0.1" stop-color="#eeaa2c"/><stop offset="0.26" stop-color="#ea8a38"/><stop offset="0.47" stop-color="#e4554d"/><stop offset="0.72" stop-color="#dc0e69"/><stop offset="0.77" stop-color="#da006e"/></linearGradient></defs><g id="Layer_2" data-name="Layer 2"><g id="Layer_1-2" data-name="Layer 1"><path class="cls-1" d="M45.36,11.88h-38l3.75,13h34.3a6.49,6.49,0,0,1,6.49,6.48v6.49H19.44a19.45,19.45,0,0,0,0,38.89H45.36A19.48,19.48,0,0,0,64.81,57.25V31.32A19.47,19.47,0,0,0,45.36,11.88Zm6.49,45.37a6.49,6.49,0,0,1-6.49,6.48H19.44a6.48,6.48,0,0,1,0-13H51.85Z"/><polygon class="cls-2" points="83.36 37.8 71.54 37.8 71.54 50.77 87.11 50.77 83.36 37.8"/><rect class="cls-3" x="105.63" y="11.9" width="2.27" height="65.2"/><path class="cls-3" d="M175.47,22.35V39.11h-7.06V24.63c0-3.8-1.93-5.89-5.14-5.89-3,0-5.56,2-5.56,6V39.11h-7.09V24.63c0-3.8-1.9-5.89-5.13-5.89-3.05,0-5.57,2-5.57,6V39.11h-7.09V12.79h6.9v3.1a8.8,8.8,0,0,1,7.74-3.8,10,10,0,0,1,8.69,4.5c2-3.34,5.48-4.5,8.93-4.5C171.29,12.09,175.47,16.24,175.47,22.35Zm30.41,16.76H199V36.2a9.66,9.66,0,0,1-7.88,3.59c-7.25,0-12.74-5.95-12.74-13.85s5.49-13.85,12.74-13.85A9.63,9.63,0,0,1,199,15.7V12.79h6.92ZM185.6,25.94c0,4,2.63,7.25,6.79,7.25s6.79-3.1,6.79-7.25-2.75-7.26-6.79-7.26S185.6,21.92,185.6,25.94Zm31.06-3.78h2.5l7.41-9.37h8.69L224.89,25.18l10.45,13.93h-8.71l-7.58-10.65h-2.39V39.11h-7.09V0h7.09Zm43.62,3.75a20.67,20.67,0,0,1-.14,2.39H241.48c.76,3.8,3.42,5.46,6.76,5.46a10.65,10.65,0,0,0,6.66-2.53l4.15,4.56a15.93,15.93,0,0,1-11.21,4c-8.07,0-13.66-5.49-13.66-13.77s5.43-13.93,13.3-13.93C255.06,12.09,260.25,17.71,260.28,25.91Zm-18.77-2.45h11.65c-.65-3.36-2.69-5.26-5.73-5.26C244.09,18.2,242.13,20.21,241.51,23.46ZM285.34,4.7a4.52,4.52,0,0,1-9,0,4.52,4.52,0,1,1,9,0Zm-.95,34.41H277.3V12.79h7.09Zm24.86-20h-9.54v9.62c0,3.28,1.74,4.48,3.94,4.48a10.35,10.35,0,0,0,4.94-1.71L311.2,37a14.73,14.73,0,0,1-8.72,2.77c-6.51,0-9.85-3.7-9.85-10.51V19.09h-5.08v-6.3h5.08V5h7.08v7.82h9.54Z"/><path class="cls-3" d="M159.2,77.61h-6.92V74.7a9.66,9.66,0,0,1-7.88,3.59c-7.25,0-12.73-6-12.73-13.85s5.48-13.85,12.73-13.85a9.63,9.63,0,0,1,7.88,3.61V51.29h6.92ZM138.92,64.44c0,4,2.63,7.25,6.79,7.25s6.79-3.1,6.79-7.25-2.75-7.25-6.79-7.25S138.92,60.42,138.92,64.44Zm66.58-3.59V77.61h-7.06V63.13c0-3.8-1.92-5.89-5.13-5.89-3,0-5.57,2-5.57,5.95V77.61h-7.09V63.13c0-3.8-1.9-5.89-5.13-5.89-3,0-5.57,2-5.57,5.95V77.61h-7.08V51.29h6.89v3.1a8.82,8.82,0,0,1,7.74-3.8,10,10,0,0,1,8.69,4.51c2-3.34,5.49-4.51,8.94-4.51C201.32,50.59,205.5,54.74,205.5,60.85Zm30.39,16.76H229V74.7a9.65,9.65,0,0,1-7.88,3.59c-7.25,0-12.73-6-12.73-13.85s5.48-13.85,12.73-13.85A9.62,9.62,0,0,1,229,54.2V51.29h6.92ZM215.61,64.44c0,4,2.63,7.25,6.79,7.25s6.79-3.1,6.79-7.25-2.75-7.25-6.79-7.25S215.61,60.42,215.61,64.44Zm46.6-8-13,14.8h13.28v6.33h-23V72.5l13.28-14.91H239.94v-6.3h22.27ZM274.14,43.2a4.53,4.53,0,1,1-4.54-4.56A4.5,4.5,0,0,1,274.14,43.2Zm-.95,34.41H266.1V51.29h7.09Zm28.53-16.76V77.61h-7.08V63.13c0-3.8-1.9-5.89-5.14-5.89-3,0-5.56,2-5.56,5.95V77.61h-7.09V51.29h6.9v3.1a8.8,8.8,0,0,1,7.74-3.8C297.46,50.59,301.72,54.74,301.72,60.85Zm23.12-6.62V51.29h7V75.44c0,8.44-5.51,13.55-14.2,13.55-4.16,0-8.56-1.09-11.52-3.18L308.6,80a15.6,15.6,0,0,0,8.69,2.68c4.4,0,7.49-2.44,7.49-7V73.89a9.92,9.92,0,0,1-8.09,3.56c-6.41,0-12.11-5.35-12.11-13.42s5.7-13.44,12.11-13.44A10,10,0,0,1,324.84,54.23Zm-13,9.8c0,3.8,2.58,6.9,6.62,6.9s6.6-3,6.6-6.9-2.66-6.92-6.6-6.92S311.86,60.2,311.86,64Z"/></g></g></svg>