<?xml version="1.0" encoding="utf-8"?>
<!-- Generator: Adobe Illustrator 26.0.1, SVG Export Plug-In . SVG Version: 6.00 Build 0)  -->
<svg version="1.1" id="Layer_1" xmlns="http://www.w3.org/2000/svg" xmlns:xlink="http://www.w3.org/1999/xlink" x="0px" y="0px"
	 viewBox="0 0 33.3 25.2" style="enable-background:new 0 0 33.3 25.2;" xml:space="preserve">
<path style="fill:none;stroke:#312F46;stroke-width:1.3;stroke-linejoin:round;stroke-miterlimit:10;" d="M32.6,5.1
	c-4.1-4.4-4.1-4.4-4.1-4.4C11.6,17.1,11.6,17.1,11.6,17.1C5.2,9.8,5.2,9.8,5.2,9.8c-4.6,4-4.6,4-4.6,4c8.6,9.7,8.6,9.7,8.6,9.7
	c0.3,0.4,0.8,0.7,1.3,0.9c0.5,0.2,1,0.2,1.6,0.1c0.5-0.2,1-0.4,1.3-0.9L32.6,5.1L32.6,5.1L32.6,5.1z"/>
<path style="fill:none;stroke:#1E1E1C;stroke-miterlimit:10;" d="M5.7,14.1c0-5.9,4.7-10.6,10.6-10.6s10.6,4.7,10.6,10.6
	s-4.7,10.6-10.6,10.6S5.7,19.9,5.7,14.1z M13.8,7.9c3.4-1.4,7.2,0.2,8.6,3.6s-0.2,7.2-3.6,8.6s-7.2-0.2-8.6-3.6S10.4,9.3,13.8,7.9z
	 M16.3,13.4c0.4,0,0.6,0.3,0.6,0.6s-0.3,0.6-0.6,0.6s-0.6-0.3-0.6-0.6S15.9,13.4,16.3,13.4z M16.4,13.3l1.2-3.5 M17.2,14.5l3.1,1.4
	 M16.4,5.4c0-0.2,0.1-0.3,0.3-0.3c0.2,0,0.3,0.1,0.3,0.3s-0.1,0.3-0.3,0.3l0,0C16.6,5.7,16.4,5.6,16.4,5.4z M24.7,14.1
	c0-0.2,0.1-0.3,0.3-0.3s0.3,0.1,0.3,0.3c0,0.2-0.1,0.3-0.3,0.3l0,0C24.9,14.3,24.7,14.2,24.7,14.1z M16.1,22.7
	c0-0.2,0.1-0.3,0.3-0.3c0.2,0,0.3,0.1,0.3,0.3c0,0.2-0.1,0.3-0.3,0.3C16.3,23,16.1,22.8,16.1,22.7z M7.2,13.8c0-0.2,0.1-0.3,0.3-0.3
	s0.3,0.1,0.3,0.3c0,0.2-0.1,0.3-0.3,0.3l0,0C7.3,14.1,7.2,13.9,7.2,13.8z M13.2,3.9c0-1.8,1.4-3.2,3.2-3.3c1.8,0,3.2,1.4,3.3,3.2
	 M7,5.7L8.2,7 M5.4,6.8l2.8-2.6 M25.6,5.5l-1.3,1.3 M27.2,6.6L24.4,4"/>
<path style="fill:none;stroke:#1E1E1C;stroke-width:0.75;stroke-miterlimit:10;" d="M20.1,8.7c1.5-1.9,5-1.8,7.9,0.4s4,5.5,2.6,7.4
	c-1.4,1.9-5,1.8-7.9-0.4S18.7,10.6,20.1,8.7z M18.3,12.3c0.6,4.5,5.4,7.1,8.3,7.1 M18.3,12.3c0.1-1.7,1.4-4,3.2-4.6 M26.7,19.4
	c1.2,0,2.7-0.6,4-3 M24.4,9.8c-0.9,0-1.7,0.8-1.6,1.8c0,0.9,0.8,1.7,1.8,1.6c0.4,0,0.9-0.2,1.2-0.5c0.7-0.6,1.7-0.6,2.3,0
	c0.6,0.7,0.6,1.7,0,2.3c-0.3,0.3-0.8,0.5-1.2,0.5 M28.1,15c0.2,0.1,0.4,0.3,0.6,0.4 M22.9,10.6l-0.7-0.5 M5.4,17.6
	c-0.9,2,0.7,4.6,3.6,5.9c2.9,1.3,6,0.8,6.9-1.1c0.9-2-0.7-4.6-3.6-5.9S6.3,15.6,5.4,17.6z M7.4,14.7c3.7-1.4,7.8,1.2,9.1,3.5
	 M7.4,14.7c-1.3,0.8-2.6,2.8-2.3,4.4 M16.5,18.1c0.5,0.9,0.6,2.3-0.7,4.4 M8.1,20.5c-0.3-0.6-0.1-1.3,0.3-1.8
	c0.5-0.4,1.2-0.5,1.8-0.2c0.6,0.4,0.8,1.1,0.6,1.7c-0.2,0.8,0.2,1.6,1,1.8c0.5,0.2,1.1,0,1.4-0.4c0.5-0.5,0.6-1.2,0.2-1.8
	 M14.3,21.4l-0.6-0.3 M7.4,18.6L8,18.9 M5.2,7.6c-0.7-2,1.1-4.4,4.1-5.5s5.9-0.3,6.6,1.7s-1.1,4.4-4.1,5.5S5.9,9.5,5.2,7.6z
	 M6.9,10.6c3.5,1.7,7.7-0.4,9.1-2.6 M6.9,10.6C5.7,9.7,4.6,7.6,5.1,6.1 M16,8c0.6-0.9,0.8-2.2-0.3-4.3 M8,5C7.7,5.5,7.8,6.3,8.2,6.8
	C8.7,7.2,9.4,7.4,10,7.1c0.6-0.3,0.9-1,0.8-1.6c-0.2-0.8,0.3-1.5,1.1-1.7c0.5-0.1,1,0.1,1.4,0.5c0.4,0.5,0.4,1.2,0.1,1.7 M14.1,4.6
	l-0.6,0.2 M7.2,6.7l0.7-0.3"/>
<path style="fill:none;stroke:#EC6661;stroke-width:0.25;stroke-miterlimit:10;" d="M11.1,6.3c0.3-3.2,3-5.6,5.9-5.2s5,3.2,4.7,6.4
	s-3,5.6-5.9,5.2C12.8,12.3,10.7,9.4,11.1,6.3z M15,4.3c0.2-1,1.1-1.7,2.1-1.6S18.6,4,18.4,5s-1.1,1.7-2.1,1.6
	C15.4,6.4,14.8,5.4,15,4.3z M11.6,9.1c0.6-1.3,1.7-2.3,3.1-2.7c0.6,1,1.9,1.4,2.9,0.8C17.8,7.1,18,7,18.1,6.9
	c1.4,0.6,2.4,1.7,2.8,3.1 M13.5,8.6c-0.6,0.5-1,1.2-1.1,2 M18.5,8.8c0.8,0.5,1.3,1.4,1.2,2.4 M3.1,17.5c0.7-3.1,3.6-5.2,6.5-4.5
	c2.9,0.6,4.7,3.7,4,6.8C12.8,23,10,25,7.1,24.4S2.4,20.7,3.1,17.5z M7.2,16.1c0.3-1,1.3-1.6,2.2-1.3c0.9,0.3,1.4,1.3,1.1,2.3
	s-1.3,1.6-2.2,1.3S6.9,17.1,7.2,16.1z M3.3,20.4c0.7-1.3,2-2.1,3.4-2.3c0.5,1.1,1.7,1.6,2.8,1.1c0.2-0.1,0.3-0.2,0.5-0.3
	c1.3,0.7,2.2,1.9,2.5,3.4 M5.3,20.1c-0.7,0.5-1.1,1.1-1.4,1.9 M10.3,20.9c0.7,0.6,1.1,1.6,0.9,2.5 M19.2,17.5
	c0.6-3.2,3.4-5.3,6.3-4.8c2.9,0.5,4.8,3.5,4.2,6.7s-3.4,5.3-6.3,4.8C20.6,23.7,18.7,20.7,19.2,17.5z M23.4,15.8
	c0.3-1,1.3-1.6,2.2-1.3c0.9,0.3,1.4,1.3,1.1,2.3c-0.3,1-1.3,1.6-2.2,1.3C23.6,17.9,23.1,16.8,23.4,15.8z M19.4,20.2
	c0.7-1.3,2-2.1,3.4-2.3c0.3,0.6,0.8,1.1,1.4,1.2c0.7,0.2,1.3,0,1.9-0.4c1.3,0.7,2.2,1.9,2.5,3.4 M21.5,19.9
	c-0.7,0.5-1.1,1.1-1.4,1.9 M26.4,20.7c0.7,0.6,1.1,1.6,0.9,2.5 M16.1,12.8c0,0.9,0,1.8,0,2.7 M13.4,16.7c0.9-0.4,1.8-0.8,2.8-1.1
	l3.2,1.3"/>
<path style="fill:none;stroke:#EC6661;stroke-width:0.75;stroke-miterlimit:10;" d="M18.3,11.2c2.3-0.9,3.9-3.5,3.5-5.9
	c-0.4-2.4-2.6-4.5-5.1-4.6s-4.9,1.7-5.5,4s0.6,5.1,3,6.3c-0.3,1.1,0.3,2.3,1.5,2.7c0.6,0.2,1.2,0.1,1.7-0.2
	C18.1,12.9,18.4,12,18.3,11.2z M14,10.9c1.4,0.6,3,0.7,4.5,0.2 M14.1,11.7c1.3,0.8,2.9,0.8,4.2,0.1 M14.4,12.6
	c1.2,0.5,2.5,0.5,3.6,0 M23.8,6.8l1.7,0 M23.8,4.6l1.5-0.9 M23.8,9l1.1,1 M8.5,6.8l-1.7,0 M8.5,4.6L7,3.7 M8.5,9l-1.1,1 M5.5,15.3
	h2.7c0.3,0,0.5,0.2,0.5,0.5v7c0,0.3-0.2,0.5-0.5,0.5H5.5c-0.3,0-0.5-0.2-0.5-0.5v-7C5.1,15.5,5.3,15.3,5.5,15.3z M8.7,23
	c3.4,1.4,7.2,1.5,10.7,0.4c3.5-1.1,6.5-3.3,8.5-6.3c0.2-0.3,0.2-0.6,0-0.9c-0.5-0.8-1.5-1.2-2.4-0.8c-1.6,0.7-3.1,1.7-4.5,2.9
	 M20.4,17.2l3.8-2.8c0.4-0.3,1-0.2,1.3,0.2c0.2,0.2,0.2,0.5,0.2,0.8 M19.1,16.7l3.5-2.5c0.2-0.1,0.5-0.2,0.7,0
	c0.2,0.1,0.2,0.4,0.2,0.7 M17.7,16.6l2.7-2c0.3-0.2,0.6-0.1,0.8,0.1c0.1,0.1,0.1,0.2,0.1,0.3 M8.7,17.1c0.6-1,1.6-1.7,2.8-1.9
	c1.2-0.2,2.3,0.2,3.2,0.9c0.5,0.5,1.3,0.6,2.1,0.6c0.7,0,1.5-0.1,2.2-0.1c0.7,0.1,1.5,0.4,1.9,1c0.4,0.6,0.2,1.6-0.5,1.8
	c-2,0.7-4.1,0.9-6.1,0.6 M6.1,15.3l-0.2,7.8 M14.1,2.9c-1.5,0.9-2.2,3-1.4,4.6 M15.5,8.1c0,0.5,0.4,0.9,0.9,0.9
	c0.5,0,0.9-0.4,0.9-0.9 M15.1,11.3l-0.7-3C14.4,8,14.2,7.9,14,8c-0.2,0-0.3,0.2-0.3,0.4c0,0,0,0.1,0,0.1C13.9,8.8,14.2,9,14.5,9
	c0.5,0,0.9-0.4,1-0.9 M17.7,11.3l0.7-3C18.4,8,18.6,7.9,18.8,8c0.2,0,0.3,0.2,0.3,0.4c0,0,0,0.1,0,0.1C18.9,8.8,18.6,9,18.3,9
	c-0.5,0-0.9-0.4-1-0.9"/>
</svg>
