<?xml version="1.0" standalone="no"?>
<!DOCTYPE svg PUBLIC "-//W3C//DTD SVG 1.1//EN" "http://www.w3.org/Graphics/SVG/1.1/DTD/svg11.dtd" >
<svg xmlns="http://www.w3.org/2000/svg" xmlns:xlink="http://www.w3.org/1999/xlink" version="1.1">
<metadata>
Created by FontForge 20161116 at Thu Aug 15 14:02:06 2013
 By Jimmy Warting
2013 published by FontShop International GmbH
</metadata>
<defs>
<font id="MarkPro-BlackItalic" horiz-adv-x="1200" >
  <font-face 
    font-family="MarkPro-BlackItalic"
    font-weight="900"
    font-style="italic"
    font-stretch="normal"
    units-per-em="2000"
    panose-1="2 11 10 4 2 1 1 1 1 2"
    ascent="1580"
    descent="-420"
    x-height="991"
    cap-height="1400"
    bbox="-1374 -507 2890 2256"
    underline-thickness="200"
    underline-position="-260"
    slope="-12"
    stemh="314"
    stemv="356"
    unicode-range="U+000D-FEFF"
  />
<missing-glyph horiz-adv-x="1120" 
d="M-22 0v1400h1164v-1400h-1164zM234 256h652v888h-652v-888z" />
    <glyph glyph-name=".notdef" horiz-adv-x="1120" 
d="M-22 0v1400h1164v-1400h-1164zM234 256h652v888h-652v-888z" />
    <glyph glyph-name=".null" horiz-adv-x="0" 
 />
    <glyph glyph-name=".null" horiz-adv-x="0" 
 />
    <glyph glyph-name="CR" unicode="&#xd;" horiz-adv-x="410" 
 />
    <glyph glyph-name="space" unicode=" " horiz-adv-x="410" 
 />
    <glyph glyph-name="exclam" unicode="!" horiz-adv-x="590" 
d="M676 1400l-220 -882h-316l120 882h416zM248 413c117 0 218 -101 218 -218c0 -119 -101 -221 -218 -221c-119 0 -221 102 -221 221c0 117 102 218 221 218z" />
    <glyph glyph-name="quotedbl" unicode="&#x22;" horiz-adv-x="1129" 
d="M336 1440h356l-148 -694h-356zM839 1440h356l-148 -694h-356z" />
    <glyph glyph-name="numbersign" unicode="#" horiz-adv-x="1373" 
d="M291 1118h165l95 282h322l-95 -282h183l95 282h322l-95 -282h165l-99 -294h-165l-81 -241h166l-98 -294h-166l-97 -289h-322l97 289h-183l-97 -289h-322l97 289h-164l98 294h164l81 241h-165zM679 824l-81 -241h183l81 241h-183z" />
    <glyph glyph-name="dollar" unicode="$" horiz-adv-x="1400" 
d="M1379 1222l-173 -273c-125 91 -308 119 -401 119c-128 0 -186 -41 -186 -96c0 -78 109 -99 211 -118l52 -10c249 -51 389 -169 389 -356c0 -268 -212 -441 -523 -463l-39 -182h-275l42 197c-156 26 -309 81 -412 165l191 272c145 -103 302 -146 449 -146
c110 0 190 32 190 104c0 68 -75 89 -216 114l-57 10c-236 44 -377 167 -377 363c0 255 190 443 517 457l37 172h275l-41 -190c109 -20 228 -60 347 -139z" />
    <glyph glyph-name="percent" unicode="%" horiz-adv-x="2032" 
d="M568 1426c214 0 370 -147 370 -355c0 -227 -177 -419 -416 -419c-214 0 -370 147 -370 355c0 227 177 419 416 419zM555 1173c-75 0 -134 -67 -134 -146c0 -71 49 -122 114 -122c75 0 134 67 134 146c0 71 -49 122 -114 122zM1844 1400l-1215 -1400h-355l1215 1400h355z
M1597 748c214 0 370 -147 370 -355c0 -227 -177 -419 -416 -419c-214 0 -370 147 -370 355c0 227 177 419 416 419zM1584 495c-75 0 -134 -67 -134 -146c0 -71 49 -122 114 -122c75 0 134 67 134 146c0 71 -49 122 -114 122z" />
    <glyph glyph-name="ampersand" unicode="&#x26;" horiz-adv-x="1467" 
d="M1202 793l215 -212l-304 -275l244 -306h-435l-72 91c-102 -66 -231 -116 -413 -116c-243 0 -412 125 -412 349c0 216 146 344 310 435c-59 95 -89 178 -89 273c0 230 173 393 457 393c260 0 442 -144 442 -366c0 -187 -154 -300 -321 -388l101 -127zM513 286
c56 0 106 16 152 41l-148 187c-68 -42 -112 -86 -112 -140c0 -59 45 -88 108 -88zM592 1027c0 -28 12 -58 56 -121c88 42 149 84 149 139c0 47 -44 77 -104 77c-68 0 -101 -39 -101 -95z" />
    <glyph glyph-name="quotesingle" unicode="'" horiz-adv-x="626" 
d="M336 1440h356l-148 -694h-356z" />
    <glyph glyph-name="parenleft" unicode="(" horiz-adv-x="799" 
d="M816 1463l63 -311c-297 -113 -443 -407 -443 -713c0 -200 61 -333 214 -464l-137 -302c-281 142 -448 414 -448 775c0 434 272 883 751 1015z" />
    <glyph glyph-name="parenright" unicode=")" horiz-adv-x="799" 
d="M14 -327l-63 311c297 113 443 407 443 713c0 200 -61 333 -214 464l137 302c281 -142 448 -414 448 -775c0 -434 -272 -883 -751 -1015z" />
    <glyph glyph-name="asterisk" unicode="*" horiz-adv-x="947" 
d="M312 1331l187 -101l33 210h281l-61 -237l220 57l31 -273l-224 -35l97 -178l-257 -139l-77 187l-151 -165l-189 187l166 151l-197 80z" />
    <glyph glyph-name="plus" unicode="+" 
d="M644 51h-292l71 337h-333l60 286h334l72 337h292l-72 -337h334l-60 -286h-335z" />
    <glyph glyph-name="comma" unicode="," horiz-adv-x="580" 
d="M114 402h383l-308 -694h-311z" />
    <glyph glyph-name="hyphen" unicode="-" horiz-adv-x="739" 
d="M711 681l-64 -300h-604l64 300h604z" />
    <glyph glyph-name="period" unicode="." horiz-adv-x="590" 
d="M238 435c123 0 229 -106 229 -229c0 -125 -106 -232 -229 -232c-125 0 -232 107 -232 232c0 123 107 229 232 229z" />
    <glyph glyph-name="slash" unicode="/" horiz-adv-x="1092" 
d="M1259 1540l-1063 -1740h-363l1063 1740h363z" />
    <glyph glyph-name="zero" unicode="0" horiz-adv-x="1384" 
d="M831 1426c306 0 545 -197 545 -565c0 -397 -258 -887 -736 -887c-306 0 -545 197 -545 565c0 397 258 887 736 887zM806 1072c-208 0 -320 -281 -320 -496c0 -158 66 -248 178 -248c208 0 321 281 321 496c0 158 -66 248 -179 248z" />
    <glyph glyph-name="one" unicode="1" horiz-adv-x="786" 
d="M881 1422l-302 -1422h-373l196 929l-297 -91l80 375z" />
    <glyph glyph-name="two" unicode="2" horiz-adv-x="1175" 
d="M372 930l-180 273c108 110 252 223 513 223c324 0 473 -212 473 -421c0 -187 -74 -302 -336 -514l-185 -150h441l-74 -341h-975l66 299l507 405c131 105 173 173 173 241c0 76 -62 127 -155 127c-124 0 -182 -58 -268 -142z" />
    <glyph glyph-name="three" unicode="3" horiz-adv-x="1150" 
d="M347 985l-155 264c127 112 281 177 504 177c298 0 480 -178 480 -372c0 -153 -110 -303 -273 -368c112 -55 168 -153 168 -261c0 -244 -203 -451 -578 -451c-231 0 -397 77 -488 211l241 227c60 -72 148 -111 256 -111c136 0 192 59 192 133c0 70 -81 113 -186 113h-150
l69 320h155c140 0 207 58 207 130c0 63 -61 102 -158 102c-106 0 -208 -52 -284 -114z" />
    <glyph glyph-name="four" unicode="4" horiz-adv-x="1174" 
d="M1081 931l-78 -365h160l-73 -341h-159l-48 -225h-369l48 225h-594l64 293l565 882h420l-533 -834h150l25 116l160 249h262z" />
    <glyph glyph-name="five" unicode="5" horiz-adv-x="1129" 
d="M1146 1400l-72 -337h-503l-41 -171h68c322 0 515 -209 454 -489c-63 -289 -287 -429 -601 -429c-199 0 -375 72 -476 193l204 251c73 -70 177 -111 291 -111c129 0 190 47 205 120c18 86 -37 146 -195 146h-345l195 827h816z" />
    <glyph glyph-name="six" unicode="6" horiz-adv-x="1203" 
d="M1149 1400l-419 -466c254 -25 426 -169 426 -423c0 -293 -237 -537 -585 -537c-294 0 -536 178 -536 456c0 128 54 285 200 455l442 515h472zM605 634c-107 0 -178 -83 -178 -181c0 -89 61 -153 157 -153c108 0 181 83 181 183c0 86 -64 151 -160 151z" />
    <glyph glyph-name="seven" unicode="7" horiz-adv-x="1095" 
d="M1249 1400l-66 -310l-681 -1090h-442l674 1059h-582l73 341h1024z" />
    <glyph glyph-name="eight" unicode="8" horiz-adv-x="1228" 
d="M767 1426c282 0 491 -142 491 -367c0 -157 -104 -291 -285 -362c108 -55 179 -143 179 -262c0 -246 -217 -461 -620 -461c-293 0 -507 140 -507 361c0 165 113 305 311 377c-89 52 -142 134 -142 245c0 255 218 469 573 469zM613 570c-91 0 -178 -59 -178 -160
c0 -79 68 -120 143 -120c91 0 178 56 178 157c0 80 -67 123 -143 123zM738 1102c-82 0 -154 -52 -154 -140c0 -68 49 -107 122 -107c81 0 155 55 155 144c0 67 -49 103 -123 103z" />
    <glyph glyph-name="nine" unicode="9" horiz-adv-x="1203" 
d="M141 0l418 466c-254 24 -425 168 -425 423c0 293 237 537 585 537c294 0 536 -178 536 -456c0 -128 -54 -285 -200 -455l-442 -515h-472zM685 766c107 0 178 83 178 181c0 89 -61 153 -157 153c-108 0 -181 -83 -181 -183c0 -86 64 -151 160 -151z" />
    <glyph glyph-name="colon" unicode=":" horiz-adv-x="590" 
d="M364 1018c123 0 229 -106 229 -229c0 -125 -106 -232 -229 -232c-125 0 -232 107 -232 232c0 123 107 229 232 229zM241 435c123 0 229 -106 229 -229c0 -125 -106 -232 -229 -232c-125 0 -232 107 -232 232c0 123 107 229 232 229z" />
    <glyph glyph-name="semicolon" unicode=";" horiz-adv-x="580" 
d="M369 1018c123 0 229 -106 229 -229c0 -125 -106 -232 -229 -232c-125 0 -232 107 -232 232c0 123 107 229 232 229zM114 402h383l-308 -694h-311z" />
    <glyph glyph-name="less" unicode="&#x3c;" 
d="M155 372l68 317l906 381l-75 -350l-560 -211l470 -212l-65 -306z" />
    <glyph glyph-name="equal" unicode="=" 
d="M1068 439l-60 -286h-960l60 286h960zM1168 909l-60 -286h-960l60 286h960z" />
    <glyph glyph-name="greater" unicode="&#x3e;" 
d="M1058 689l-68 -317l-906 -381l75 350l560 211l-470 212l65 306z" />
    <glyph glyph-name="question" unicode="?" horiz-adv-x="860" 
d="M468 508h-336l80 373h95c167 0 234 31 234 94c0 60 -90 95 -203 95c-29 0 -96 0 -127 -2l26 354c42 3 88 4 133 4c336 0 565 -140 565 -405c0 -237 -149 -390 -442 -427zM252 414c117 0 218 -101 218 -218c0 -119 -101 -222 -218 -222c-119 0 -221 102 -221 221
c0 118 102 219 221 219z" />
    <glyph glyph-name="at" unicode="@" horiz-adv-x="1797" 
d="M1131 14l145 -214c-129 -107 -310 -136 -463 -136c-418 0 -748 289 -748 746c0 503 355 926 930 926c419 0 756 -279 756 -699c0 -250 -125 -558 -452 -558c-112 0 -215 44 -267 132c-49 -57 -118 -100 -218 -100c-175 0 -302 133 -302 344c0 224 146 434 353 434
c88 0 145 -33 181 -81l13 61h275l-76 -363c-5 -24 -6 -47 -6 -66c0 -70 26 -107 77 -107c108 0 136 199 136 294c0 282 -203 449 -491 449c-383 0 -613 -300 -613 -656c0 -321 209 -495 480 -495c101 0 197 18 290 89zM910 628c-63 0 -108 -70 -108 -146
c0 -75 44 -113 88 -113c64 0 109 70 109 146c0 67 -36 113 -89 113z" />
    <glyph glyph-name="A" unicode="A" horiz-adv-x="1497" 
d="M1161 1400l226 -1400h-383l-35 267h-506l-146 -267h-417l813 1400h448zM872 1014l-224 -408h277z" />
    <glyph glyph-name="B" unicode="B" horiz-adv-x="1326" 
d="M885 1400c308 0 474 -170 474 -341c0 -149 -79 -288 -258 -361c120 -44 192 -179 156 -325c-60 -245 -230 -373 -604 -373h-662l298 1400h596zM739 549h-243l-51 -240l243 -1c109 0 167 32 188 109c19 71 -28 132 -137 132zM831 1090h-220l-50 -233h219
c130 0 174 66 174 127c0 53 -38 106 -123 106z" />
    <glyph glyph-name="C" unicode="C" horiz-adv-x="1436" 
d="M1100 515l286 -233c-144 -194 -335 -306 -602 -306c-414 0 -692 267 -692 657c0 455 322 793 784 793c175 0 472 -44 624 -379l-344 -183c-62 135 -163 198 -300 198c-206 0 -369 -165 -369 -402c0 -213 147 -320 306 -320c120 0 224 55 307 175z" />
    <glyph glyph-name="D" unicode="D" horiz-adv-x="1474" 
d="M289 1400h543c406 0 647 -275 647 -575c0 -469 -301 -825 -865 -825h-623zM788 1051h-185l-150 -702h205c264 0 420 166 420 420c0 159 -85 282 -290 282z" />
    <glyph glyph-name="E" unicode="E" horiz-adv-x="1243" 
d="M1208 877l-72 -338h-642l-43 -201h686l-72 -338h-1074l298 1400h1073l-72 -338h-685l-39 -185h642z" />
    <glyph glyph-name="F" unicode="F" horiz-adv-x="1212" 
d="M1195 847l-72 -338h-636l-108 -509h-388l298 1400h1057l-72 -338h-669l-46 -215h636z" />
    <glyph glyph-name="G" unicode="G" horiz-adv-x="1525" 
d="M1399 1201l-296 -238c-57 64 -138 108 -258 108c-204 0 -361 -173 -361 -419c0 -211 131 -335 327 -335c161 0 266 69 309 207h-336l61 278h668c5 -52 3 -104 -4 -162c-55 -458 -374 -666 -712 -666c-410 0 -704 264 -704 662c0 464 334 790 782 790
c149 0 375 -31 524 -225z" />
    <glyph glyph-name="H" unicode="H" horiz-adv-x="1471" 
d="M677 1400l-110 -518h502l110 518h388l-298 -1400h-388l113 533h-502l-113 -533h-388l298 1400h388z" />
    <glyph glyph-name="I" unicode="I" horiz-adv-x="582" 
d="M677 1400l-297 -1400h-388l297 1400h388z" />
    <glyph glyph-name="J" unicode="J" horiz-adv-x="1032" 
d="M1132 1400l-187 -877c-89 -416 -321 -549 -590 -549c-180 0 -328 58 -415 158l198 292c46 -47 115 -86 204 -86c108 0 189 58 229 248l173 814h388z" />
    <glyph glyph-name="K" unicode="K" horiz-adv-x="1402" 
d="M677 1400l-112 -526h92l454 526h472l-659 -716l376 -684h-428l-285 536h-94l-114 -536h-388l298 1400h388z" />
    <glyph glyph-name="L" unicode="L" horiz-adv-x="1153" 
d="M677 1400l-224 -1050h650l-75 -350h-1037l298 1400h388z" />
    <glyph glyph-name="M" unicode="M" horiz-adv-x="1788" 
d="M1883 1400l-297 -1400h-386l184 864l-361 -734h-405l-59 726l-182 -856h-386l298 1400h521l84 -853l438 853h551z" />
    <glyph glyph-name="N" unicode="N" horiz-adv-x="1511" 
d="M1607 1400l-298 -1400h-360l-399 809l-172 -809h-387l298 1400h361l399 -811l171 811h387z" />
    <glyph glyph-name="O" unicode="O" horiz-adv-x="1569" 
d="M870 1426c405 0 694 -265 694 -665c0 -429 -318 -787 -778 -787c-406 0 -694 265 -694 665c0 429 318 787 778 787zM851 1062c-213 0 -364 -175 -364 -400c0 -200 132 -324 318 -324c212 0 364 175 364 400c0 200 -132 324 -318 324z" />
    <glyph glyph-name="P" unicode="P" horiz-adv-x="1274" 
d="M727 441h-254l-94 -441h-388l298 1400h565c303 0 476 -196 476 -420c0 -319 -224 -539 -603 -539zM799 1059h-195l-60 -285h205c114 0 194 64 194 161c0 69 -55 124 -144 124z" />
    <glyph glyph-name="Q" unicode="Q" horiz-adv-x="1613" 
d="M870 1426c405 0 694 -265 694 -665c0 -163 -46 -315 -128 -441l202 -320h-432l-42 67c-109 -59 -237 -93 -378 -93c-406 0 -694 265 -694 665c0 429 318 787 778 787zM851 1062c-213 0 -364 -175 -364 -400c0 -200 132 -324 318 -324c56 0 108 12 154 34l-152 251l347 -1
c10 36 15 75 15 116c0 200 -132 324 -318 324z" />
    <glyph glyph-name="R" unicode="R" horiz-adv-x="1306" 
d="M289 1400h578c305 0 476 -195 476 -414c0 -211 -109 -421 -443 -476l332 -510h-434l-295 497h-18l-106 -497h-388zM810 1059h-206l-53 -249h216c135 0 191 62 191 140c0 67 -58 109 -148 109z" />
    <glyph glyph-name="S" unicode="S" horiz-adv-x="1339" 
d="M1388 1256l-191 -301c-127 97 -325 127 -415 127c-120 0 -178 -39 -178 -93c0 -76 119 -100 220 -122l46 -10c264 -55 400 -183 400 -378c0 -312 -259 -505 -626 -505c-241 0 -499 69 -651 195l211 300c156 -108 309 -155 471 -155c104 0 177 31 177 103
c0 70 -77 88 -219 116l-51 10c-249 48 -393 179 -393 388c0 290 222 495 588 495c156 0 383 -17 611 -170z" />
    <glyph glyph-name="T" unicode="T" horiz-adv-x="1205" 
d="M1378 1400l-75 -350h-389l-223 -1050h-388l223 1050h-389l75 350h1166z" />
    <glyph glyph-name="U" unicode="U" horiz-adv-x="1411" 
d="M1516 1400l-184 -868c-72 -342 -281 -558 -658 -558c-363 0 -582 174 -582 473c0 48 6 100 17 153l171 800h388l-175 -818c-6 -27 -9 -52 -9 -74c0 -112 74 -170 198 -170c137 0 239 83 273 244l173 818h388z" />
    <glyph glyph-name="V" unicode="V" horiz-adv-x="1469" 
d="M1657 1400l-782 -1400h-450l-227 1400h388l132 -1000l524 1000h415z" />
    <glyph glyph-name="W" unicode="W" horiz-adv-x="2150" 
d="M2335 1400l-680 -1400h-437l-54 825l-379 -825h-458l-126 1400h381l64 -936l423 936h383l53 -932l423 932h407z" />
    <glyph glyph-name="X" unicode="X" horiz-adv-x="1342" 
d="M1523 1400l-594 -713l308 -687h-403l-167 407l-323 -407h-454l607 722l-289 678h401l149 -411l321 411h444z" />
    <glyph glyph-name="Y" unicode="Y" horiz-adv-x="1408" 
d="M1599 1400l-688 -870l-113 -530h-388l119 560l-335 840h403l174 -515l384 515h444z" />
    <glyph glyph-name="Z" unicode="Z" horiz-adv-x="1254" 
d="M1371 1400l-66 -308l-764 -754h631l-72 -338h-1138l66 308l764 754h-614l72 338h1121z" />
    <glyph glyph-name="bracketleft" unicode="[" horiz-adv-x="743" 
d="M610 53l-67 -316h-608l354 1663h608l-67 -316h-250l-220 -1031h250z" />
    <glyph glyph-name="backslash" unicode="\" horiz-adv-x="1832" 
d="M1340 -200l-1063 1740h363l1063 -1740h-363z" />
    <glyph glyph-name="bracketright" unicode="]" horiz-adv-x="743" 
d="M164 1084l67 316h608l-354 -1663h-608l67 316h250l220 1031h-250z" />
    <glyph glyph-name="asciicircum" unicode="^" 
d="M466 635h-333l357 765h318l357 -765h-340l-180 435z" />
    <glyph glyph-name="underscore" unicode="_" horiz-adv-x="940" 
d="M822 -83l-54 -256h-950l54 256h950z" />
    <glyph glyph-name="grave" unicode="`" horiz-adv-x="1000" 
d="M960 1103h-329l-290 346h398z" />
    <glyph glyph-name="a" unicode="a" horiz-adv-x="1177" 
d="M565 1018c102 0 198 -32 262 -100l16 73h356l-210 -991h-342l14 68c-58 -56 -131 -94 -230 -94c-233 0 -401 213 -401 466c0 223 155 578 535 578zM564 306c94 0 170 75 183 181c17 137 -79 200 -159 200c-106 0 -186 -96 -186 -211c0 -127 96 -170 162 -170z" />
    <glyph glyph-name="b" unicode="b" horiz-adv-x="1180" 
d="M615 -26c-103 0 -198 31 -263 100l-15 -74h-359l306 1440h360l-102 -477c49 34 114 55 207 55c233 0 401 -213 401 -466c0 -223 -155 -578 -535 -578zM616 685c-94 0 -170 -75 -183 -181c-17 -137 79 -200 159 -200c106 0 186 96 186 211c0 127 -96 170 -162 170z" />
    <glyph glyph-name="c" unicode="c" horiz-adv-x="1040" 
d="M1061 719l-323 -136c-26 70 -81 104 -152 104c-113 0 -186 -98 -186 -214c0 -97 59 -166 148 -166c61 0 113 30 160 90l268 -204c-108 -133 -258 -216 -441 -216c-293 0 -501 195 -501 472c0 308 227 567 571 567c222 0 381 -112 456 -297z" />
    <glyph glyph-name="d" unicode="d" horiz-adv-x="1179" 
d="M565 1018c103 0 198 -32 263 -101l111 523h358l-306 -1440h-344l14 68c-58 -56 -131 -94 -230 -94c-233 0 -401 213 -401 466c0 223 155 578 535 578zM564 306c94 0 170 75 183 181c17 137 -79 200 -159 200c-106 0 -186 -96 -186 -211c0 -127 96 -170 162 -170z" />
    <glyph glyph-name="e" unicode="e" horiz-adv-x="1059" 
d="M709 345l220 -199c-85 -108 -235 -172 -431 -172c-294 0 -473 181 -473 434c0 240 158 610 581 610c250 0 435 -170 435 -413c0 -64 -19 -162 -42 -215h-627c11 -80 67 -120 146 -120c60 0 132 13 191 75zM584 719c-78 0 -131 -52 -165 -114h288c-2 77 -48 114 -123 114z
" />
    <glyph glyph-name="f" unicode="f" horiz-adv-x="828" 
d="M884 991l-67 -314h-235l-145 -677h-358l145 677h-160l67 314h160l16 74c59 274 197 401 440 401c142 0 263 -46 334 -110l-188 -254c-45 25 -79 36 -113 36c-73 0 -108 -37 -127 -128l-4 -19h235z" />
    <glyph glyph-name="g" unicode="g" horiz-adv-x="1163" 
d="M1186 991l-206 -961c-59 -274 -274 -450 -566 -450c-171 0 -324 45 -476 141l151 274c109 -72 203 -106 293 -106c141 0 235 61 257 171l6 31c-54 -41 -120 -65 -208 -65c-233 0 -403 174 -403 426c0 223 136 565 525 565c110 0 198 -33 257 -93l14 67h356zM554 349
c102 0 182 84 182 191c0 86 -70 154 -159 154c-101 0 -181 -83 -181 -189c0 -87 69 -156 158 -156z" />
    <glyph glyph-name="h" unicode="h" horiz-adv-x="1120" 
d="M761 1018c197 0 312 -134 312 -324c0 -35 -4 -73 -12 -112l-125 -582h-358l117 549c3 14 5 28 5 41c0 55 -29 95 -98 95c-68 0 -127 -31 -156 -170l-108 -515h-360l306 1440h360l-108 -503c59 54 133 81 225 81z" />
    <glyph glyph-name="i" unicode="i" horiz-adv-x="526" 
d="M549 991l-211 -991h-360l211 991h360zM428 1485c115 0 204 -89 204 -204s-89 -204 -204 -204s-204 89 -204 204s89 204 204 204z" />
    <glyph glyph-name="j" unicode="j" horiz-adv-x="525" 
d="M548 991l-229 -1077c-50 -233 -190 -340 -385 -340c-67 0 -138 12 -193 38l91 307c16 -9 32 -14 51 -14c37 0 78 17 94 93l211 993h360zM424 1485c115 0 204 -89 204 -204s-89 -204 -204 -204s-204 89 -204 204s89 204 204 204z" />
    <glyph glyph-name="k" unicode="k" horiz-adv-x="1103" 
d="M644 1440l-161 -758h44l253 309h433l-442 -490l257 -501h-390l-172 369h-50l-78 -369h-360l306 1440h360z" />
    <glyph glyph-name="l" unicode="l" horiz-adv-x="526" 
d="M644 1440l-306 -1440h-360l306 1440h360z" />
    <glyph glyph-name="m" unicode="m" horiz-adv-x="1714" 
d="M1327 1018c214 0 340 -134 340 -324c0 -35 -4 -73 -12 -112l-125 -582h-358l117 549c3 14 5 28 5 41c0 55 -28 95 -98 95c-68 0 -122 -31 -152 -170l-112 -515h-358l117 549c13 61 4 136 -91 136c-68 0 -127 -31 -156 -170l-108 -515h-358l211 991h333l-22 -92
c65 80 149 119 260 119c128 0 216 -56 264 -141c73 95 171 141 303 141z" />
    <glyph glyph-name="n" unicode="n" horiz-adv-x="1120" 
d="M761 1018c197 0 312 -134 312 -324c0 -35 -4 -73 -12 -112l-125 -582h-358l117 549c3 14 5 28 5 41c0 55 -29 95 -100 95c-68 0 -127 -31 -156 -170l-108 -515h-358l211 991h333l-21 -91c65 79 149 118 260 118z" />
    <glyph glyph-name="o" unicode="o" horiz-adv-x="1147" 
d="M605 1018c276 0 508 -179 508 -480c0 -307 -240 -564 -571 -564c-276 0 -508 179 -508 480c0 307 240 564 571 564zM585 687c-103 0 -185 -90 -185 -212c0 -99 65 -170 160 -170c103 0 187 90 187 212c0 100 -67 170 -162 170z" />
    <glyph glyph-name="p" unicode="p" horiz-adv-x="1180" 
d="M615 -26c-102 0 -197 31 -262 99l-100 -473h-359l295 1391h344l-14 -67c58 56 130 94 230 94c233 0 401 -213 401 -466c0 -223 -155 -578 -535 -578zM616 685c-94 0 -170 -75 -183 -181c-17 -137 79 -200 159 -200c106 0 186 96 186 211c0 127 -96 170 -162 170z" />
    <glyph glyph-name="q" unicode="q" horiz-adv-x="1179" 
d="M565 1018c102 0 198 -32 262 -100l16 73h357l-294 -1392h-360l91 429c-50 -33 -114 -54 -206 -54c-233 0 -401 213 -401 466c0 223 155 578 535 578zM564 306c94 0 170 75 183 181c17 137 -79 200 -159 200c-106 0 -186 -96 -186 -211c0 -127 96 -170 162 -170z" />
    <glyph glyph-name="r" unicode="r" horiz-adv-x="786" 
d="M442 506l-106 -506h-358l211 991h333l-24 -106c61 92 141 133 249 133c40 0 77 -8 121 -21l-91 -347c-45 16 -101 25 -150 25c-86 0 -161 -53 -185 -169z" />
    <glyph glyph-name="s" unicode="s" horiz-adv-x="982" 
d="M990 905l-135 -261c-123 72 -264 90 -309 90c-69 0 -92 -12 -95 -32c-5 -41 30 -40 132 -63l58 -13c212 -47 285 -163 266 -317c-28 -232 -194 -335 -477 -335c-181 0 -367 54 -464 131l142 260c99 -64 235 -108 340 -108c78 0 97 11 100 38c4 35 -31 46 -121 63l-58 11
c-232 44 -304 167 -282 333c28 213 194 316 454 316c158 0 297 -36 449 -113z" />
    <glyph glyph-name="t" unicode="t" horiz-adv-x="977" 
d="M974 991l-67 -314h-307l-53 -248c-19 -88 15 -124 87 -124c55 0 111 27 160 54l103 -287c-114 -72 -236 -98 -355 -98c-317 0 -412 189 -358 442l55 261h-175l67 314h175l61 284h360l-61 -284h308z" />
    <glyph glyph-name="u" unicode="u" horiz-adv-x="1118" 
d="M1146 991l-124 -581c-72 -337 -286 -436 -524 -436c-259 0 -438 125 -438 375c0 42 6 86 16 134l108 508h360l-118 -550c-3 -14 -4 -27 -4 -39c0 -64 39 -97 98 -97c88 0 136 69 157 168l109 518h360z" />
    <glyph glyph-name="v" unicode="v" horiz-adv-x="1162" 
d="M1258 991l-557 -991h-403l-184 991h369l80 -606l308 606h387z" />
    <glyph glyph-name="w" unicode="w" horiz-adv-x="1830" 
d="M1182 991l66 -577l287 577h386l-545 -991h-369l-67 541l-268 -541h-400l-154 991h359l72 -583l299 583h334z" />
    <glyph glyph-name="x" unicode="x" horiz-adv-x="1189" 
d="M1255 991l-452 -513l264 -478h-389l-126 245l-199 -245h-436l455 507l-250 484h392l113 -255l191 255h437z" />
    <glyph glyph-name="y" unicode="y" horiz-adv-x="1193" 
d="M1294 991l-916 -1391h-407l458 668l-318 723h396l147 -374l232 374h408z" />
    <glyph glyph-name="z" unicode="z" horiz-adv-x="999" 
d="M1027 991l-58 -275l-456 -402h397l-66 -314h-887l56 265l458 412h-374l67 314h863z" />
    <glyph glyph-name="braceleft" unicode="{" horiz-adv-x="878" 
d="M1015 1400l-65 -304h-80c-79 0 -136 -49 -153 -144l-12 -68c-29 -171 -87 -276 -287 -327c176 -59 187 -179 153 -304l-18 -68c-24 -95 14 -144 93 -144h97l-65 -304h-157c-269 0 -381 202 -313 488l10 42c25 100 -40 154 -175 154l62 295c135 0 224 54 241 154l22 128
c44 255 186 402 477 402h170z" />
    <glyph glyph-name="bar" unicode="|" horiz-adv-x="626" 
d="M683 1400l-354 -1665h-356l354 1665h356z" />
    <glyph glyph-name="braceright" unicode="}" horiz-adv-x="878" 
d="M-106 -263l65 304h80c79 0 136 49 153 144l12 68c29 171 87 275 287 326c-176 60 -186 180 -153 305l18 68c24 95 -14 144 -93 144h-97l65 304h157c269 0 381 -202 313 -488l-10 -42c-25 -100 40 -154 175 -154l-62 -295c-135 0 -224 -54 -241 -154l-22 -128
c-41 -255 -186 -402 -477 -402h-170z" />
    <glyph glyph-name="asciitilde" unicode="~" 
d="M1007 728l115 -232c-100 -97 -229 -156 -334 -156c-187 0 -258 110 -366 110c-65 0 -123 -36 -195 -106l-115 232c100 97 229 156 334 156c187 0 258 -110 366 -110c65 0 123 36 195 106z" />
    <glyph glyph-name="uni00A0" unicode="&#xa0;" horiz-adv-x="410" 
 />
    <glyph glyph-name="exclamdown" unicode="&#xa1;" horiz-adv-x="590" 
d="M-86 -408l220 882h316l-120 -882h-416zM342 579c-117 0 -218 101 -218 218c0 119 101 221 218 221c119 0 221 -102 221 -221c0 -117 -102 -218 -221 -218z" />
    <glyph glyph-name="cent" unicode="&#xa2;" horiz-adv-x="1400" 
d="M1279 928l-307 -135c-34 74 -94 105 -164 105c-122 0 -203 -103 -203 -225c0 -103 66 -176 162 -176c65 0 121 30 170 90l254 -198c-97 -117 -227 -194 -384 -208l-38 -181h-275l46 218c-176 71 -287 230 -287 432c0 284 196 526 498 560l41 190h275l-47 -219
c119 -45 207 -133 259 -253z" />
    <glyph glyph-name="sterling" unicode="&#xa3;" horiz-adv-x="1400" 
d="M1207 341l-74 -341h-1064l74 341h141l47 223h-142l58 272h142l19 90c69 328 307 500 611 500c167 0 301 -58 389 -169l-270 -243c-41 40 -80 58 -157 58c-103 0 -179 -61 -207 -186l-11 -50h439l-59 -272h-438l-47 -223h549z" />
    <glyph glyph-name="currency" unicode="&#xa4;" horiz-adv-x="1400" 
d="M1242 1288l161 -203l-183 -151c35 -78 50 -167 38 -261c-11 -94 -47 -180 -100 -253l110 -140l-222 -183l-111 140c-78 -36 -165 -54 -254 -49c-93 5 -177 34 -247 81l-190 -157l-160 203l184 152c-35 77 -50 166 -38 260c11 93 48 179 100 251l-112 142l222 183
l112 -142c79 36 166 55 255 50c92 -5 176 -34 245 -80zM714 461c134 -7 254 92 271 226c17 133 -77 244 -211 251c-136 8 -254 -92 -271 -225c-17 -134 75 -245 211 -252z" />
    <glyph glyph-name="yen" unicode="&#xa5;" horiz-adv-x="1400" 
d="M1227 456l-44 -208h-337l-53 -248h-370l53 248h-337l44 208h337l20 94h-337l44 208h260l-284 642h399l170 -436l353 436h431l-550 -642h265l-44 -208h-337l-20 -94h337z" />
    <glyph glyph-name="brokenbar" unicode="&#xa6;" horiz-adv-x="626" 
d="M683 1400l-148 -694h-356l148 694h356zM477 429l-148 -694h-356l148 694h356z" />
    <glyph glyph-name="section" unicode="&#xa7;" horiz-adv-x="1224" 
d="M1292 1297l-197 -281c-68 40 -177 94 -328 94c-86 0 -161 -21 -171 -72c-14 -74 99 -95 197 -115l34 -7c283 -59 385 -187 341 -382c-25 -109 -85 -183 -164 -234c50 -70 63 -156 45 -243c-66 -320 -345 -410 -596 -410c-218 0 -413 59 -525 159l210 272
c81 -53 190 -116 339 -116c92 0 166 20 179 77c15 63 -53 80 -183 105l-41 8c-262 52 -377 184 -335 372c21 96 81 177 172 235c-67 76 -82 176 -60 280c49 241 269 387 565 387c181 0 373 -48 518 -129zM576 626l-23 3c-38 -15 -65 -40 -72 -76c-16 -76 111 -76 223 -100
l20 -4c29 16 51 40 57 75c13 70 -57 79 -205 102z" />
    <glyph glyph-name="dieresis" unicode="&#xa8;" horiz-adv-x="1164" 
d="M503 1470c115 0 204 -89 204 -204s-89 -204 -204 -204s-204 89 -204 204s89 204 204 204zM993 1470c115 0 204 -89 204 -204s-89 -204 -204 -204s-204 89 -204 204s89 204 204 204z" />
    <glyph glyph-name="copyright" unicode="&#xa9;" horiz-adv-x="1785" 
d="M886 -88c-434 0 -783 321 -783 747c0 461 405 849 887 849c434 0 783 -321 783 -747c0 -461 -405 -849 -887 -849zM973 1223c-306 0 -564 -250 -564 -546c0 -281 226 -480 494 -480c306 0 564 250 564 546c0 281 -226 480 -494 480zM1355 838l-261 -93
c-23 73 -70 104 -136 104c-94 0 -137 -72 -137 -157c0 -84 55 -117 120 -117c50 0 99 26 141 90l225 -127c-75 -130 -197 -213 -382 -213c-210 0 -386 120 -386 351c0 229 164 421 425 421c187 0 347 -95 391 -259z" />
    <glyph glyph-name="ordfeminine" unicode="&#xaa;" horiz-adv-x="774" 
d="M505 1297c185 0 316 -93 316 -265c0 -27 -3 -54 -9 -84l-83 -388h-221l10 51c-46 -40 -107 -70 -189 -70c-140 0 -228 82 -228 195c0 153 120 256 323 256h161c1 3 1 7 1 11c0 56 -37 91 -124 91c-77 0 -138 -27 -192 -54l-57 187c90 46 176 70 292 70zM414 719
c49 0 99 25 132 55l15 72h-112c-66 0 -105 -29 -105 -73c0 -31 24 -54 70 -54z" />
    <glyph glyph-name="guillemotleft" unicode="&#xab;" horiz-adv-x="1133" 
d="M1186 942l-313 -448l103 -374h-315l-113 411l287 411h351zM693 942l-313 -448l103 -374h-315l-113 411l287 411h351z" />
    <glyph glyph-name="logicalnot" unicode="&#xac;" 
d="M976 71h-292l67 317h-668l61 286h960z" />
    <glyph glyph-name="uni00AD" unicode="&#xad;" horiz-adv-x="739" 
d="M711 681l-64 -300h-604l64 300h604z" />
    <glyph glyph-name="registered" unicode="&#xae;" horiz-adv-x="1020" 
d="M642 1446c241 0 448 -174 448 -432c0 -257 -222 -493 -504 -493c-242 0 -449 175 -449 430c0 259 218 495 505 495zM592 670c183 0 332 163 332 334c0 169 -135 293 -289 293c-189 0 -334 -164 -334 -335c0 -169 136 -292 291 -292zM492 1195h179c109 0 172 -78 156 -157
c-15 -73 -65 -109 -150 -119l107 -147h-135l-90 144h-3l-30 -144h-124zM658 1085h-66l-14 -66h66c31 0 54 7 59 30c5 22 -14 36 -45 36z" />
    <glyph glyph-name="macron" unicode="&#xaf;" horiz-adv-x="1156" 
d="M352 1124l61 284h740l-61 -284h-740z" />
    <glyph glyph-name="degree" unicode="&#xb0;" horiz-adv-x="888" 
d="M526 589c-226 0 -397 183 -397 386c0 244 199 449 453 449c225 0 394 -185 394 -391c0 -241 -198 -444 -450 -444zM543 858c78 0 151 68 151 154c0 73 -58 133 -130 133c-78 0 -153 -67 -153 -151c0 -76 58 -136 132 -136z" />
    <glyph glyph-name="plusminus" unicode="&#xb1;" 
d="M726 381h-292l52 247h-333l60 286h334l68 317h292l-68 -317h334l-60 -286h-335zM1040 286l-61 -286h-960l61 286h960z" />
    <glyph glyph-name="twosuperior" unicode="&#xb2;" horiz-adv-x="745" 
d="M321 1102l-116 180c68 66 154 134 321 134c202 0 295 -131 295 -260c0 -112 -35 -190 -211 -312l-88 -61h257l-47 -223h-606l43 197l299 227c77 58 101 96 101 132c0 43 -37 68 -88 68c-71 0 -106 -33 -160 -82z" />
    <glyph glyph-name="threesuperior" unicode="&#xb3;" horiz-adv-x="722" 
d="M298 1143l-95 171c80 66 175 102 312 102c185 0 299 -113 299 -228c0 -89 -66 -180 -162 -219c67 -35 100 -94 100 -156c0 -144 -121 -269 -357 -269c-143 0 -246 47 -302 130l156 145c35 -42 86 -65 150 -65c78 0 105 29 105 66c0 40 -46 67 -104 67h-91l40 195h97
c81 0 114 30 114 69c0 34 -34 55 -91 55c-61 0 -123 -28 -171 -63z" />
    <glyph glyph-name="acute" unicode="&#xb4;" horiz-adv-x="1000" 
d="M680 1101h-336l256 346h405z" />
    <glyph glyph-name="mu" unicode="&#xb5;" horiz-adv-x="1116" 
d="M226 -400h-339l294 1391h358l-117 -549c-3 -14 -5 -28 -5 -41c0 -55 29 -95 100 -95c68 0 127 31 156 170l108 515h358l-211 -991h-333l21 91c-65 -79 -149 -118 -260 -118c-18 0 -34 1 -50 3z" />
    <glyph glyph-name="paragraph" unicode="&#xb6;" horiz-adv-x="1315" 
d="M427 0l113 532c-254 20 -388 194 -388 405c0 201 107 463 541 463h302l-298 -1400h-270zM804 0l298 1400h270l-298 -1400h-270z" />
    <glyph glyph-name="periodcentered" unicode="&#xb7;" horiz-adv-x="673" 
d="M351 760c123 0 229 -106 229 -229c0 -125 -106 -232 -229 -232c-125 0 -232 107 -232 232c0 123 107 229 232 229z" />
    <glyph glyph-name="cedilla" unicode="&#xb8;" horiz-adv-x="1000" 
d="M594 7l-163 -328h-322l181 328h304z" />
    <glyph glyph-name="onesuperior" unicode="&#xb9;" horiz-adv-x="499" 
d="M633 1413l-181 -853h-242l113 535l-176 -50l51 244z" />
    <glyph glyph-name="ordmasculine" unicode="&#xba;" horiz-adv-x="860" 
d="M545 1297c202 0 364 -134 364 -346c0 -223 -174 -410 -414 -410c-202 0 -364 133 -364 346c0 223 175 410 414 410zM531 1079c-90 0 -160 -77 -160 -178c0 -83 56 -143 137 -143c90 0 162 78 162 179c0 84 -57 142 -139 142z" />
    <glyph glyph-name="guillemotright" unicode="&#xbb;" horiz-adv-x="1133" 
d="M-38 120l313 448l-103 374h315l113 -411l-287 -411h-351zM455 120l313 448l-103 374h315l113 -411l-287 -411h-351z" />
    <glyph glyph-name="onequarter" unicode="&#xbc;" horiz-adv-x="1682" 
d="M1501 1400l-1055 -1400h-314l1055 1400h314zM1588 569l-46 -217h91l-47 -223h-92l-27 -129h-242l27 129h-359l42 191l330 520h274l-309 -488h70l11 52l104 165h173zM633 1413l-181 -853h-242l113 535l-176 -50l51 244z" />
    <glyph glyph-name="onehalf" unicode="&#xbd;" horiz-adv-x="1796" 
d="M1501 1400l-1055 -1400h-314l1055 1400h314zM1247 542l-116 180c68 66 154 134 321 134c202 0 295 -131 295 -260c0 -112 -35 -190 -211 -312l-88 -61h257l-47 -223h-606l43 197l299 227c77 58 101 96 101 132c0 43 -37 68 -88 68c-71 0 -106 -33 -160 -82zM633 1413
l-181 -853h-242l113 535l-176 -50l51 244z" />
    <glyph glyph-name="threequarters" unicode="&#xbe;" horiz-adv-x="1875" 
d="M1694 1400l-1055 -1400h-314l1055 1400h314zM1781 569l-46 -217h91l-47 -223h-92l-27 -129h-242l27 129h-359l42 191l330 520h274l-309 -488h70l11 52l104 165h173zM298 1143l-95 171c80 66 175 102 312 102c185 0 299 -113 299 -228c0 -89 -66 -180 -162 -219
c67 -35 100 -94 100 -156c0 -144 -121 -269 -357 -269c-143 0 -246 47 -302 130l156 145c35 -42 86 -65 150 -65c78 0 105 29 105 66c0 40 -46 67 -104 67h-91l40 195h97c81 0 114 30 114 69c0 34 -34 55 -91 55c-61 0 -123 -28 -171 -63z" />
    <glyph glyph-name="questiondown" unicode="&#xbf;" horiz-adv-x="860" 
d="M392 484h336l-80 -373h-95c-167 0 -234 -31 -234 -94c0 -60 87 -94 200 -94c29 0 102 0 130 2l-26 -355c-42 -3 -88 -4 -133 -4c-336 0 -565 140 -565 405c0 236 148 389 442 427zM608 578c-117 0 -218 101 -218 218c0 119 101 222 218 222c119 0 221 -102 221 -221
c0 -118 -102 -219 -221 -219z" />
    <glyph glyph-name="Agrave" unicode="&#xc0;" horiz-adv-x="1497" 
d="M1161 1400l226 -1400h-383l-35 267h-506l-146 -267h-417l813 1400h448zM872 1014l-224 -408h277zM847 1503l-290 346h398l221 -346h-329z" />
    <glyph glyph-name="Aacute" unicode="&#xc1;" horiz-adv-x="1497" 
d="M1161 1400l226 -1400h-383l-35 267h-506l-146 -267h-417l813 1400h448zM872 1014l-224 -408h277zM1052 1501h-336l256 346h405z" />
    <glyph glyph-name="Acircumflex" unicode="&#xc2;" horiz-adv-x="1497" 
d="M1161 1400l226 -1400h-383l-35 267h-506l-146 -267h-417l813 1400h448zM872 1014l-224 -408h277zM1358 1493h-296l-79 135l-134 -135h-322l305 346h369z" />
    <glyph glyph-name="Atilde" unicode="&#xc3;" horiz-adv-x="1497" 
d="M1161 1400l226 -1400h-383l-35 267h-506l-146 -267h-417l813 1400h448zM872 1014l-224 -408h277zM689 1497l-183 191c99 127 208 161 313 161c159 0 191 -74 255 -74c42 0 75 31 116 74l184 -191c-99 -127 -208 -161 -313 -161c-159 0 -191 74 -255 74
c-42 0 -76 -30 -117 -74z" />
    <glyph glyph-name="Adieresis" unicode="&#xc4;" horiz-adv-x="1497" 
d="M1161 1400l226 -1400h-383l-35 267h-506l-146 -267h-417l813 1400h448zM872 1014l-224 -408h277zM712 1870c115 0 204 -89 204 -204s-89 -204 -204 -204s-204 89 -204 204s89 204 204 204zM1202 1870c115 0 204 -89 204 -204s-89 -204 -204 -204s-204 89 -204 204
s89 204 204 204z" />
    <glyph glyph-name="Aring" unicode="&#xc5;" horiz-adv-x="1497" 
d="M1161 1400l226 -1400h-383l-35 267h-506l-146 -267h-417l813 1400h448zM872 1014l-224 -408h277zM964 1462c-158 0 -287 126 -287 283c0 156 129 283 287 283c159 0 288 -127 288 -283c0 -157 -129 -283 -288 -283zM964 1643c54 0 100 44 100 102c0 57 -46 102 -100 102
c-53 0 -99 -45 -99 -102c0 -58 46 -102 99 -102z" />
    <glyph glyph-name="AE" unicode="&#xc6;" horiz-adv-x="2304" 
d="M2198 338l-72 -338h-1074l51 242h-505l-208 -242l-491 -1l1275 1401h1249l-72 -338h-685l-39 -185h642l-72 -338h-642l-43 -201h686zM889 581h286l94 442z" />
    <glyph glyph-name="Ccedilla" unicode="&#xc7;" horiz-adv-x="1436" 
d="M1100 515l286 -233c-121 -164 -276 -269 -481 -297l-148 -306h-352l175 321c-299 73 -488 311 -488 633c0 455 322 793 784 793c175 0 472 -44 624 -379l-344 -183c-62 135 -163 198 -300 198c-206 0 -369 -165 -369 -402c0 -213 147 -320 306 -320c120 0 224 55 307 175
z" />
    <glyph glyph-name="Egrave" unicode="&#xc8;" horiz-adv-x="1243" 
d="M1208 877l-72 -338h-642l-43 -201h686l-72 -338h-1074l298 1400h1073l-72 -338h-685l-39 -185h642zM726 1503l-290 346h398l221 -346h-329z" />
    <glyph glyph-name="Eacute" unicode="&#xc9;" horiz-adv-x="1243" 
d="M1208 877l-72 -338h-642l-43 -201h686l-72 -338h-1074l298 1400h1073l-72 -338h-685l-39 -185h642zM931 1501h-336l256 346h405z" />
    <glyph glyph-name="Ecircumflex" unicode="&#xca;" horiz-adv-x="1243" 
d="M1208 877l-72 -338h-642l-43 -201h686l-72 -338h-1074l298 1400h1073l-72 -338h-685l-39 -185h642zM1237 1493h-296l-79 135l-134 -135h-322l305 346h369z" />
    <glyph glyph-name="Edieresis" unicode="&#xcb;" horiz-adv-x="1243" 
d="M1208 877l-72 -338h-642l-43 -201h686l-72 -338h-1074l298 1400h1073l-72 -338h-685l-39 -185h642zM591 1870c115 0 204 -89 204 -204s-89 -204 -204 -204s-204 89 -204 204s89 204 204 204zM1081 1870c115 0 204 -89 204 -204s-89 -204 -204 -204s-204 89 -204 204
s89 204 204 204z" />
    <glyph glyph-name="Igrave" unicode="&#xcc;" horiz-adv-x="582" 
d="M677 1400l-297 -1400h-388l297 1400h388zM392 1503l-290 346h398l221 -346h-329z" />
    <glyph glyph-name="Iacute" unicode="&#xcd;" horiz-adv-x="582" 
d="M677 1400l-297 -1400h-388l297 1400h388zM597 1501h-336l256 346h405z" />
    <glyph glyph-name="Icircumflex" unicode="&#xce;" horiz-adv-x="582" 
d="M677 1400l-297 -1400h-388l297 1400h388zM903 1493h-296l-79 135l-134 -135h-322l305 346h369z" />
    <glyph glyph-name="Idieresis" unicode="&#xcf;" horiz-adv-x="582" 
d="M677 1400l-297 -1400h-388l297 1400h388zM257 1870c115 0 204 -89 204 -204s-89 -204 -204 -204s-204 89 -204 204s89 204 204 204zM747 1870c115 0 204 -89 204 -204s-89 -204 -204 -204s-204 89 -204 204s89 204 204 204z" />
    <glyph glyph-name="Eth" unicode="&#xd0;" horiz-adv-x="1577" 
d="M392 1400h543c406 0 647 -275 647 -575c0 -469 -301 -825 -865 -825h-623l116 548h-141l68 320h141zM939 868l-68 -320h-272l-43 -199h205c264 0 420 166 420 420c0 159 -85 282 -290 282h-185l-39 -183h272z" />
    <glyph glyph-name="Ntilde" unicode="&#xd1;" horiz-adv-x="1511" 
d="M1607 1400l-298 -1400h-360l-399 809l-172 -809h-387l298 1400h361l399 -811l171 811h387zM694 1497l-183 191c99 127 208 161 313 161c159 0 191 -74 255 -74c42 0 75 31 116 74l184 -191c-99 -127 -208 -161 -313 -161c-159 0 -191 74 -255 74c-42 0 -76 -30 -117 -74z
" />
    <glyph glyph-name="Ograve" unicode="&#xd2;" horiz-adv-x="1569" 
d="M870 1426c405 0 694 -265 694 -665c0 -429 -318 -787 -778 -787c-406 0 -694 265 -694 665c0 429 318 787 778 787zM851 1062c-213 0 -364 -175 -364 -400c0 -200 132 -324 318 -324c212 0 364 175 364 400c0 200 -132 324 -318 324zM814 1503l-290 346h398l221 -346
h-329z" />
    <glyph glyph-name="Oacute" unicode="&#xd3;" horiz-adv-x="1569" 
d="M870 1426c405 0 694 -265 694 -665c0 -429 -318 -787 -778 -787c-406 0 -694 265 -694 665c0 429 318 787 778 787zM851 1062c-213 0 -364 -175 -364 -400c0 -200 132 -324 318 -324c212 0 364 175 364 400c0 200 -132 324 -318 324zM1019 1501h-336l256 346h405z" />
    <glyph glyph-name="Ocircumflex" unicode="&#xd4;" horiz-adv-x="1569" 
d="M870 1426c405 0 694 -265 694 -665c0 -429 -318 -787 -778 -787c-406 0 -694 265 -694 665c0 429 318 787 778 787zM851 1062c-213 0 -364 -175 -364 -400c0 -200 132 -324 318 -324c212 0 364 175 364 400c0 200 -132 324 -318 324zM1325 1493h-296l-79 135l-134 -135
h-322l305 346h369z" />
    <glyph glyph-name="Otilde" unicode="&#xd5;" horiz-adv-x="1569" 
d="M870 1426c405 0 694 -265 694 -665c0 -429 -318 -787 -778 -787c-406 0 -694 265 -694 665c0 429 318 787 778 787zM851 1062c-213 0 -364 -175 -364 -400c0 -200 132 -324 318 -324c212 0 364 175 364 400c0 200 -132 324 -318 324zM656 1497l-183 191
c99 127 208 161 313 161c159 0 191 -74 255 -74c42 0 75 31 116 74l184 -191c-99 -127 -208 -161 -313 -161c-159 0 -191 74 -255 74c-42 0 -76 -30 -117 -74z" />
    <glyph glyph-name="Odieresis" unicode="&#xd6;" horiz-adv-x="1569" 
d="M870 1426c405 0 694 -265 694 -665c0 -429 -318 -787 -778 -787c-406 0 -694 265 -694 665c0 429 318 787 778 787zM851 1062c-213 0 -364 -175 -364 -400c0 -200 132 -324 318 -324c212 0 364 175 364 400c0 200 -132 324 -318 324zM679 1870c115 0 204 -89 204 -204
s-89 -204 -204 -204s-204 89 -204 204s89 204 204 204zM1169 1870c115 0 204 -89 204 -204s-89 -204 -204 -204s-204 89 -204 204s89 204 204 204z" />
    <glyph glyph-name="multiply" unicode="&#xd7;" 
d="M1016 267l-234 -193l-198 251l-338 -279l-173 219l321 264l-210 266l234 193l198 -251l338 279l173 -219l-321 -264z" />
    <glyph glyph-name="Oslash" unicode="&#xd8;" horiz-adv-x="1569" 
d="M870 1426c168 0 316 -46 431 -128l150 134l186 -211l-150 -134c49 -93 77 -203 77 -326c0 -429 -318 -787 -778 -787c-161 0 -303 42 -417 117l-138 -123l-186 211l132 117c-55 97 -85 213 -85 343c0 429 318 787 778 787zM851 1062c-213 0 -364 -175 -364 -400
c0 -29 2 -57 8 -82l505 450c-43 21 -94 32 -149 32zM1169 738c0 21 -2 42 -5 61l-491 -437c40 -16 84 -24 132 -24c212 0 364 175 364 400z" />
    <glyph glyph-name="Ugrave" unicode="&#xd9;" horiz-adv-x="1411" 
d="M1516 1400l-184 -868c-72 -342 -281 -558 -658 -558c-363 0 -582 174 -582 473c0 48 6 100 17 153l171 800h388l-175 -818c-6 -27 -9 -52 -9 -74c0 -112 74 -170 198 -170c137 0 239 83 273 244l173 818h388zM808 1503l-290 346h398l221 -346h-329z" />
    <glyph glyph-name="Uacute" unicode="&#xda;" horiz-adv-x="1411" 
d="M1516 1400l-184 -868c-72 -342 -281 -558 -658 -558c-363 0 -582 174 -582 473c0 48 6 100 17 153l171 800h388l-175 -818c-6 -27 -9 -52 -9 -74c0 -112 74 -170 198 -170c137 0 239 83 273 244l173 818h388zM1013 1501h-336l256 346h405z" />
    <glyph glyph-name="Ucircumflex" unicode="&#xdb;" horiz-adv-x="1411" 
d="M1516 1400l-184 -868c-72 -342 -281 -558 -658 -558c-363 0 -582 174 -582 473c0 48 6 100 17 153l171 800h388l-175 -818c-6 -27 -9 -52 -9 -74c0 -112 74 -170 198 -170c137 0 239 83 273 244l173 818h388zM1319 1493h-296l-79 135l-134 -135h-322l305 346h369z" />
    <glyph glyph-name="Udieresis" unicode="&#xdc;" horiz-adv-x="1411" 
d="M1516 1400l-184 -868c-72 -342 -281 -558 -658 -558c-363 0 -582 174 -582 473c0 48 6 100 17 153l171 800h388l-175 -818c-6 -27 -9 -52 -9 -74c0 -112 74 -170 198 -170c137 0 239 83 273 244l173 818h388zM673 1870c115 0 204 -89 204 -204s-89 -204 -204 -204
s-204 89 -204 204s89 204 204 204zM1163 1870c115 0 204 -89 204 -204s-89 -204 -204 -204s-204 89 -204 204s89 204 204 204z" />
    <glyph glyph-name="Yacute" unicode="&#xdd;" horiz-adv-x="1408" 
d="M1599 1400l-688 -870l-113 -530h-388l119 560l-335 840h403l174 -515l384 515h444zM991 1501h-336l256 346h405z" />
    <glyph glyph-name="Thorn" unicode="&#xde;" horiz-adv-x="1274" 
d="M677 1400l-44 -203h178c303 0 476 -196 476 -420c0 -319 -224 -539 -603 -539h-255l-50 -238h-388l298 1400h388zM756 856h-195l-61 -285h206c114 0 194 64 194 161c0 69 -55 124 -144 124z" />
    <glyph glyph-name="germandbls" unicode="&#xdf;" horiz-adv-x="1195" 
d="M-26 0l206 970c63 298 204 496 569 496c356 0 494 -189 494 -381c0 -154 -89 -313 -263 -391c118 -53 184 -202 152 -354c-54 -251 -218 -366 -522 -366c-73 0 -151 12 -193 31l85 279c24 -11 61 -18 98 -18c82 0 161 28 181 133c18 92 -36 162 -148 162h-52l63 292h28
c67 0 116 15 148 45c33 30 51 82 51 121c0 65 -46 126 -140 126c-114 0 -168 -65 -193 -184l-204 -961h-360z" />
    <glyph glyph-name="agrave" unicode="&#xe0;" horiz-adv-x="1177" 
d="M565 1018c102 0 198 -32 262 -100l16 73h356l-210 -991h-342l14 68c-58 -56 -131 -94 -230 -94c-233 0 -401 213 -401 466c0 223 155 578 535 578zM564 306c94 0 170 75 183 181c17 137 -79 200 -159 200c-106 0 -186 -96 -186 -211c0 -127 96 -170 162 -170zM578 1103
l-290 346h398l221 -346h-329z" />
    <glyph glyph-name="aacute" unicode="&#xe1;" horiz-adv-x="1177" 
d="M565 1018c102 0 198 -32 262 -100l16 73h356l-210 -991h-342l14 68c-58 -56 -131 -94 -230 -94c-233 0 -401 213 -401 466c0 223 155 578 535 578zM564 306c94 0 170 75 183 181c17 137 -79 200 -159 200c-106 0 -186 -96 -186 -211c0 -127 96 -170 162 -170zM811 1103
h-336l256 346h405z" />
    <glyph glyph-name="acircumflex" unicode="&#xe2;" horiz-adv-x="1177" 
d="M565 1018c102 0 198 -32 262 -100l16 73h356l-210 -991h-342l14 68c-58 -56 -131 -94 -230 -94c-233 0 -401 213 -401 466c0 223 155 578 535 578zM564 306c94 0 170 75 183 181c17 137 -79 200 -159 200c-106 0 -186 -96 -186 -211c0 -127 96 -170 162 -170zM1097 1093
h-296l-79 135l-134 -135h-322l305 346h369z" />
    <glyph glyph-name="atilde" unicode="&#xe3;" horiz-adv-x="1177" 
d="M565 1018c102 0 198 -32 262 -100l16 73h356l-210 -991h-342l14 68c-58 -56 -131 -94 -230 -94c-233 0 -401 213 -401 466c0 223 155 578 535 578zM564 306c94 0 170 75 183 181c17 137 -79 200 -159 200c-106 0 -186 -96 -186 -211c0 -127 96 -170 162 -170zM451 1097
l-183 191c99 127 208 161 313 161c159 0 191 -74 255 -74c42 0 75 31 116 74l184 -191c-99 -127 -208 -161 -313 -161c-159 0 -191 74 -255 74c-42 0 -76 -30 -117 -74z" />
    <glyph glyph-name="adieresis" unicode="&#xe4;" horiz-adv-x="1177" 
d="M565 1018c102 0 198 -32 262 -100l16 73h356l-210 -991h-342l14 68c-58 -56 -131 -94 -230 -94c-233 0 -401 213 -401 466c0 223 155 578 535 578zM564 306c94 0 170 75 183 181c17 137 -79 200 -159 200c-106 0 -186 -96 -186 -211c0 -127 96 -170 162 -170zM473 1470
c115 0 204 -89 204 -204s-89 -204 -204 -204s-204 89 -204 204s89 204 204 204zM963 1470c115 0 204 -89 204 -204s-89 -204 -204 -204s-204 89 -204 204s89 204 204 204z" />
    <glyph glyph-name="aring" unicode="&#xe5;" horiz-adv-x="1177" 
d="M565 1018c102 0 198 -32 262 -100l16 73h356l-210 -991h-342l14 68c-58 -56 -131 -94 -230 -94c-233 0 -401 213 -401 466c0 223 155 578 535 578zM564 306c94 0 170 75 183 181c17 137 -79 200 -159 200c-106 0 -186 -96 -186 -211c0 -127 96 -170 162 -170zM711 1062
c-158 0 -287 126 -287 283c0 156 129 283 287 283c159 0 288 -127 288 -283c0 -157 -129 -283 -288 -283zM711 1243c54 0 100 44 100 102c0 57 -46 102 -100 102c-53 0 -99 -45 -99 -102c0 -58 46 -102 99 -102z" />
    <glyph glyph-name="ae" unicode="&#xe6;" horiz-adv-x="1629" 
d="M1279 345l220 -199c-85 -108 -235 -172 -431 -172c-149 0 -267 49 -347 131c-102 -88 -228 -131 -380 -131c-216 0 -349 110 -349 262c0 216 165 360 444 360h198v5c0 63 -37 110 -153 110c-105 0 -189 -35 -263 -70l-83 283c124 60 245 94 413 94
c126 0 238 -32 310 -117c80 77 187 117 318 117c250 0 435 -170 435 -413c0 -64 -19 -162 -42 -215h-627c11 -80 67 -120 146 -120c60 0 132 13 191 75zM431 237c64 0 140 28 186 71c-5 25 -9 52 -10 80h-129c-80 0 -128 -37 -128 -91c0 -33 26 -60 81 -60zM1154 719
c-82 0 -137 -57 -170 -124h293v4c0 81 -46 120 -123 120z" />
    <glyph glyph-name="ccedilla" unicode="&#xe7;" horiz-adv-x="1040" 
d="M1061 719l-323 -136c-26 70 -81 104 -152 104c-113 0 -186 -98 -186 -214c0 -97 59 -166 148 -166c61 0 113 30 160 90l268 -204c-89 -109 -205 -184 -344 -208l-152 -306h-322l181 328h8c-190 64 -313 229 -313 442c0 308 227 567 571 567c222 0 381 -112 456 -297z" />
    <glyph glyph-name="egrave" unicode="&#xe8;" horiz-adv-x="1059" 
d="M709 345l220 -199c-85 -108 -235 -172 -431 -172c-294 0 -473 181 -473 434c0 240 158 610 581 610c250 0 435 -170 435 -413c0 -64 -19 -162 -42 -215h-627c11 -80 67 -120 146 -120c60 0 132 13 191 75zM584 719c-78 0 -131 -52 -165 -114h288c-2 77 -48 114 -123 114z
M523 1103l-290 346h398l221 -346h-329z" />
    <glyph glyph-name="eacute" unicode="&#xe9;" horiz-adv-x="1059" 
d="M709 345l220 -199c-85 -108 -235 -172 -431 -172c-294 0 -473 181 -473 434c0 240 158 610 581 610c250 0 435 -170 435 -413c0 -64 -19 -162 -42 -215h-627c11 -80 67 -120 146 -120c60 0 132 13 191 75zM584 719c-78 0 -131 -52 -165 -114h288c-2 77 -48 114 -123 114z
M756 1103h-336l256 346h405z" />
    <glyph glyph-name="ecircumflex" unicode="&#xea;" horiz-adv-x="1059" 
d="M709 345l220 -199c-85 -108 -235 -172 -431 -172c-294 0 -473 181 -473 434c0 240 158 610 581 610c250 0 435 -170 435 -413c0 -64 -19 -162 -42 -215h-627c11 -80 67 -120 146 -120c60 0 132 13 191 75zM584 719c-78 0 -131 -52 -165 -114h288c-2 77 -48 114 -123 114z
M1042 1093h-296l-79 135l-134 -135h-322l305 346h369z" />
    <glyph glyph-name="edieresis" unicode="&#xeb;" horiz-adv-x="1059" 
d="M709 345l220 -199c-85 -108 -235 -172 -431 -172c-294 0 -473 181 -473 434c0 240 158 610 581 610c250 0 435 -170 435 -413c0 -64 -19 -162 -42 -215h-627c11 -80 67 -120 146 -120c60 0 132 13 191 75zM584 719c-78 0 -131 -52 -165 -114h288c-2 77 -48 114 -123 114z
M418 1470c115 0 204 -89 204 -204s-89 -204 -204 -204s-204 89 -204 204s89 204 204 204zM908 1470c115 0 204 -89 204 -204s-89 -204 -204 -204s-204 89 -204 204s89 204 204 204z" />
    <glyph glyph-name="igrave" unicode="&#xec;" horiz-adv-x="526" 
d="M549 991l-211 -991h-360l211 991h360zM271 1103l-290 346h398l221 -346h-329z" />
    <glyph glyph-name="iacute" unicode="&#xed;" horiz-adv-x="526" 
d="M549 991l-211 -991h-360l211 991h360zM504 1103h-336l256 346h405z" />
    <glyph glyph-name="icircumflex" unicode="&#xee;" horiz-adv-x="526" 
d="M549 991l-211 -991h-360l211 991h360zM790 1093h-296l-79 135l-134 -135h-322l305 346h369z" />
    <glyph glyph-name="idieresis" unicode="&#xef;" horiz-adv-x="526" 
d="M549 991l-211 -991h-360l211 991h360zM166 1470c115 0 204 -89 204 -204s-89 -204 -204 -204s-204 89 -204 204s89 204 204 204zM656 1470c115 0 204 -89 204 -204s-89 -204 -204 -204s-204 89 -204 204s89 204 204 204z" />
    <glyph glyph-name="eth" unicode="&#xf0;" horiz-adv-x="1135" 
d="M892 1447l105 -163l-136 -85c149 -166 241 -380 241 -620c0 -42 -3 -87 -8 -127c-35 -278 -256 -477 -565 -477c-295 0 -504 183 -504 442c0 281 217 499 476 499c88 0 161 -21 219 -60c-33 77 -85 137 -148 189l-196 -119l-105 163l125 74l-117 70l227 227
c74 -34 143 -76 207 -125zM569 620c-99 0 -178 -77 -178 -188c0 -91 64 -157 157 -157c135 0 188 114 188 187c0 91 -66 158 -167 158z" />
    <glyph glyph-name="ntilde" unicode="&#xf1;" horiz-adv-x="1120" 
d="M761 1018c197 0 312 -134 312 -324c0 -35 -4 -73 -12 -112l-125 -582h-358l117 549c3 14 5 28 5 41c0 55 -29 95 -100 95c-68 0 -127 -31 -156 -170l-108 -515h-358l211 991h333l-21 -91c65 79 149 118 260 118zM413 1097l-183 191c99 127 208 161 313 161
c159 0 191 -74 255 -74c42 0 75 31 116 74l184 -191c-99 -127 -208 -161 -313 -161c-159 0 -191 74 -255 74c-42 0 -76 -30 -117 -74z" />
    <glyph glyph-name="ograve" unicode="&#xf2;" horiz-adv-x="1147" 
d="M605 1018c276 0 508 -179 508 -480c0 -307 -240 -564 -571 -564c-276 0 -508 179 -508 480c0 307 240 564 571 564zM585 687c-103 0 -185 -90 -185 -212c0 -99 65 -170 160 -170c103 0 187 90 187 212c0 100 -67 170 -162 170zM543 1100l-290 346h398l221 -346h-329z" />
    <glyph glyph-name="oacute" unicode="&#xf3;" horiz-adv-x="1147" 
d="M605 1018c276 0 508 -179 508 -480c0 -307 -240 -564 -571 -564c-276 0 -508 179 -508 480c0 307 240 564 571 564zM585 687c-103 0 -185 -90 -185 -212c0 -99 65 -170 160 -170c103 0 187 90 187 212c0 100 -67 170 -162 170zM776 1100h-336l256 346h405z" />
    <glyph glyph-name="ocircumflex" unicode="&#xf4;" horiz-adv-x="1147" 
d="M605 1018c276 0 508 -179 508 -480c0 -307 -240 -564 -571 -564c-276 0 -508 179 -508 480c0 307 240 564 571 564zM585 687c-103 0 -185 -90 -185 -212c0 -99 65 -170 160 -170c103 0 187 90 187 212c0 100 -67 170 -162 170zM1062 1090h-296l-79 135l-134 -135h-322
l305 346h369z" />
    <glyph glyph-name="otilde" unicode="&#xf5;" horiz-adv-x="1147" 
d="M605 1018c276 0 508 -179 508 -480c0 -307 -240 -564 -571 -564c-276 0 -508 179 -508 480c0 307 240 564 571 564zM585 687c-103 0 -185 -90 -185 -212c0 -99 65 -170 160 -170c103 0 187 90 187 212c0 100 -67 170 -162 170zM416 1094l-183 191c99 127 208 161 313 161
c159 0 191 -74 255 -74c42 0 75 31 116 74l184 -191c-99 -127 -208 -161 -313 -161c-159 0 -191 74 -255 74c-42 0 -76 -30 -117 -74z" />
    <glyph glyph-name="odieresis" unicode="&#xf6;" horiz-adv-x="1147" 
d="M605 1018c276 0 508 -179 508 -480c0 -307 -240 -564 -571 -564c-276 0 -508 179 -508 480c0 307 240 564 571 564zM585 687c-103 0 -185 -90 -185 -212c0 -99 65 -170 160 -170c103 0 187 90 187 212c0 100 -67 170 -162 170zM438 1467c115 0 204 -89 204 -204
s-89 -204 -204 -204s-204 89 -204 204s89 204 204 204zM928 1467c115 0 204 -89 204 -204s-89 -204 -204 -204s-204 89 -204 204s89 204 204 204z" />
    <glyph glyph-name="divide" unicode="&#xf7;" 
d="M1124 704l-60 -286h-960l60 286h960zM681 1144c107 0 197 -91 197 -198c0 -109 -90 -200 -197 -200c-109 0 -200 91 -200 200c0 107 91 198 200 198zM561 376c107 0 197 -90 197 -197c0 -109 -90 -201 -197 -201c-109 0 -200 92 -200 201c0 107 91 197 200 197z" />
    <glyph glyph-name="oslash" unicode="&#xf8;" horiz-adv-x="1147" 
d="M606 1018c101 0 197 -25 277 -70l121 108l174 -193l-115 -102c33 -64 51 -139 51 -223c0 -307 -240 -564 -571 -564c-104 0 -201 25 -282 72l-123 -110l-174 193l119 106c-31 63 -48 136 -48 219c0 307 240 564 571 564zM588 707c-115 0 -205 -100 -205 -234v-9l263 234
c-18 6 -38 9 -58 9zM559 285c114 0 207 100 207 234v4l-259 -231c16 -5 33 -7 52 -7z" />
    <glyph glyph-name="ugrave" unicode="&#xf9;" horiz-adv-x="1118" 
d="M1146 991l-124 -581c-72 -337 -286 -436 -524 -436c-259 0 -438 125 -438 375c0 42 6 86 16 134l108 508h360l-118 -550c-3 -14 -4 -27 -4 -39c0 -64 39 -97 98 -97c88 0 136 69 157 168l109 518h360zM567 1103l-290 346h398l221 -346h-329z" />
    <glyph glyph-name="uacute" unicode="&#xfa;" horiz-adv-x="1118" 
d="M1146 991l-124 -581c-72 -337 -286 -436 -524 -436c-259 0 -438 125 -438 375c0 42 6 86 16 134l108 508h360l-118 -550c-3 -14 -4 -27 -4 -39c0 -64 39 -97 98 -97c88 0 136 69 157 168l109 518h360zM800 1103h-336l256 346h405z" />
    <glyph glyph-name="ucircumflex" unicode="&#xfb;" horiz-adv-x="1118" 
d="M1146 991l-124 -581c-72 -337 -286 -436 -524 -436c-259 0 -438 125 -438 375c0 42 6 86 16 134l108 508h360l-118 -550c-3 -14 -4 -27 -4 -39c0 -64 39 -97 98 -97c88 0 136 69 157 168l109 518h360zM1086 1093h-296l-79 135l-134 -135h-322l305 346h369z" />
    <glyph glyph-name="udieresis" unicode="&#xfc;" horiz-adv-x="1118" 
d="M1146 991l-124 -581c-72 -337 -286 -436 -524 -436c-259 0 -438 125 -438 375c0 42 6 86 16 134l108 508h360l-118 -550c-3 -14 -4 -27 -4 -39c0 -64 39 -97 98 -97c88 0 136 69 157 168l109 518h360zM462 1470c115 0 204 -89 204 -204s-89 -204 -204 -204
s-204 89 -204 204s89 204 204 204zM952 1470c115 0 204 -89 204 -204s-89 -204 -204 -204s-204 89 -204 204s89 204 204 204z" />
    <glyph glyph-name="yacute" unicode="&#xfd;" horiz-adv-x="1193" 
d="M1294 991l-916 -1391h-407l458 668l-318 723h396l147 -374l232 374h408zM839 1103h-336l256 346h405z" />
    <glyph glyph-name="thorn" unicode="&#xfe;" horiz-adv-x="1180" 
d="M615 -26c-105 0 -199 31 -263 99l-99 -473h-360l392 1840h360l-103 -477c50 34 114 55 207 55c234 0 400 -214 400 -468c0 -223 -155 -576 -534 -576zM615 685c-94 0 -170 -75 -183 -181c-17 -137 79 -200 159 -200c106 0 186 96 186 211c0 127 -96 170 -162 170z" />
    <glyph glyph-name="ydieresis" unicode="&#xff;" horiz-adv-x="1193" 
d="M1294 991l-916 -1391h-407l458 668l-318 723h396l147 -374l232 374h408zM501 1470c115 0 204 -89 204 -204s-89 -204 -204 -204s-204 89 -204 204s89 204 204 204zM991 1470c115 0 204 -89 204 -204s-89 -204 -204 -204s-204 89 -204 204s89 204 204 204z" />
    <glyph glyph-name="Amacron" unicode="&#x100;" horiz-adv-x="1497" 
d="M1161 1400l226 -1400h-383l-35 267h-506l-146 -267h-417l813 1400h448zM872 1014l-224 -408h277zM593 1524l61 284h740l-61 -284h-740z" />
    <glyph glyph-name="amacron" unicode="&#x101;" horiz-adv-x="1177" 
d="M565 1018c102 0 198 -32 262 -100l16 73h356l-210 -991h-342l14 68c-58 -56 -131 -94 -230 -94c-233 0 -401 213 -401 466c0 223 155 578 535 578zM564 306c94 0 170 75 183 181c17 137 -79 200 -159 200c-106 0 -186 -96 -186 -211c0 -127 96 -170 162 -170zM334 1124
l61 284h740l-61 -284h-740z" />
    <glyph glyph-name="Abreve" unicode="&#x102;" horiz-adv-x="1497" 
d="M1161 1400l226 -1400h-383l-35 267h-506l-146 -267h-417l813 1400h448zM872 1014l-224 -408h277zM592 1826l259 72c5 -96 43 -146 120 -146c73 0 129 50 172 146l257 -72c-96 -223 -243 -344 -462 -344c-204 0 -343 129 -346 344z" />
    <glyph glyph-name="abreve" unicode="&#x103;" horiz-adv-x="1177" 
d="M565 1018c102 0 198 -32 262 -100l16 73h356l-210 -991h-342l14 68c-58 -56 -131 -94 -230 -94c-233 0 -401 213 -401 466c0 223 155 578 535 578zM564 306c94 0 170 75 183 181c17 137 -79 200 -159 200c-106 0 -186 -96 -186 -211c0 -127 96 -170 162 -170zM347 1426
l259 72c5 -96 43 -146 120 -146c73 0 129 50 172 146l257 -72c-96 -223 -243 -344 -462 -344c-204 0 -343 129 -346 344z" />
    <glyph glyph-name="Aogonek" unicode="&#x104;" horiz-adv-x="1497" 
d="M1234 -133l135 -185c-48 -46 -148 -102 -268 -102c-159 0 -287 71 -287 205c0 100 61 181 186 244l-31 238h-506l-146 -267h-417l813 1400h448l226 -1400h-157c-116 -45 -124 -94 -124 -117c0 -30 24 -43 55 -43c19 0 42 7 73 27zM872 1014l-224 -408h277z" />
    <glyph glyph-name="aogonek" unicode="&#x105;" horiz-adv-x="1177" 
d="M930 -133l135 -185c-48 -46 -148 -102 -268 -102c-159 0 -287 71 -287 205c0 86 45 158 137 216l14 67c-58 -56 -131 -94 -230 -94c-233 0 -401 213 -401 466c0 223 155 578 535 578c102 0 198 -32 262 -100l16 73h356l-210 -991h-63c-116 -45 -124 -94 -124 -117
c0 -30 24 -43 55 -43c19 0 42 7 73 27zM564 306c94 0 170 75 183 181c17 137 -79 200 -159 200c-106 0 -186 -96 -186 -211c0 -127 96 -170 162 -170z" />
    <glyph glyph-name="Cacute" unicode="&#x106;" horiz-adv-x="1436" 
d="M1100 515l286 -233c-144 -194 -335 -306 -602 -306c-414 0 -692 267 -692 657c0 455 322 793 784 793c175 0 472 -44 624 -379l-344 -183c-62 135 -163 198 -300 198c-206 0 -369 -165 -369 -402c0 -213 147 -320 306 -320c120 0 224 55 307 175zM1014 1501h-336l256 346
h405z" />
    <glyph glyph-name="cacute" unicode="&#x107;" horiz-adv-x="1040" 
d="M1061 719l-323 -136c-26 70 -81 104 -152 104c-113 0 -186 -98 -186 -214c0 -97 59 -166 148 -166c61 0 113 30 160 90l268 -204c-108 -133 -258 -216 -441 -216c-293 0 -501 195 -501 472c0 308 227 567 571 567c222 0 381 -112 456 -297zM744 1103h-336l256 346h405z
" />
    <glyph glyph-name="Ccircumflex" unicode="&#x108;" horiz-adv-x="1436" 
d="M1100 515l286 -233c-144 -194 -335 -306 -602 -306c-414 0 -692 267 -692 657c0 455 322 793 784 793c175 0 472 -44 624 -379l-344 -183c-62 135 -163 198 -300 198c-206 0 -369 -165 -369 -402c0 -213 147 -320 306 -320c120 0 224 55 307 175zM1320 1493h-296l-79 135
l-134 -135h-322l305 346h369z" />
    <glyph glyph-name="ccircumflex" unicode="&#x109;" horiz-adv-x="1040" 
d="M1061 719l-323 -136c-26 70 -81 104 -152 104c-113 0 -186 -98 -186 -214c0 -97 59 -166 148 -166c61 0 113 30 160 90l268 -204c-108 -133 -258 -216 -441 -216c-293 0 -501 195 -501 472c0 308 227 567 571 567c222 0 381 -112 456 -297zM1030 1093h-296l-79 135
l-134 -135h-322l305 346h369z" />
    <glyph glyph-name="Cdotaccent" unicode="&#x10a;" horiz-adv-x="1436" 
d="M1100 515l286 -233c-144 -194 -335 -306 -602 -306c-414 0 -692 267 -692 657c0 455 322 793 784 793c175 0 472 -44 624 -379l-344 -183c-62 135 -163 198 -300 198c-206 0 -369 -165 -369 -402c0 -213 147 -320 306 -320c120 0 224 55 307 175zM919 1890
c120 0 214 -93 214 -214s-94 -214 -214 -214c-121 0 -215 93 -215 214s94 214 215 214z" />
    <glyph glyph-name="cdotaccent" unicode="&#x10b;" horiz-adv-x="1040" 
d="M1061 719l-323 -136c-26 70 -81 104 -152 104c-113 0 -186 -98 -186 -214c0 -97 59 -166 148 -166c61 0 113 30 160 90l268 -204c-108 -133 -258 -216 -441 -216c-293 0 -501 195 -501 472c0 308 227 567 571 567c222 0 381 -112 456 -297zM668 1485
c115 0 204 -89 204 -204s-89 -204 -204 -204s-204 89 -204 204s89 204 204 204z" />
    <glyph glyph-name="Ccaron" unicode="&#x10c;" horiz-adv-x="1436" 
d="M1100 515l286 -233c-144 -194 -335 -306 -602 -306c-414 0 -692 267 -692 657c0 455 322 793 784 793c175 0 472 -44 624 -379l-344 -183c-62 135 -163 198 -300 198c-206 0 -369 -165 -369 -402c0 -213 147 -320 306 -320c120 0 224 55 307 175zM556 1839h296l78 -136
l135 136h322l-305 -346h-369z" />
    <glyph glyph-name="ccaron" unicode="&#x10d;" horiz-adv-x="1040" 
d="M1061 719l-323 -136c-26 70 -81 104 -152 104c-113 0 -186 -98 -186 -214c0 -97 59 -166 148 -166c61 0 113 30 160 90l268 -204c-108 -133 -258 -216 -441 -216c-293 0 -501 195 -501 472c0 308 227 567 571 567c222 0 381 -112 456 -297zM289 1439h296l78 -136l135 136
h322l-305 -346h-369z" />
    <glyph glyph-name="Dcaron" unicode="&#x10e;" horiz-adv-x="1474" 
d="M289 1400h543c406 0 647 -275 647 -575c0 -469 -301 -825 -865 -825h-623zM788 1051h-185l-150 -702h205c264 0 420 166 420 420c0 159 -85 282 -290 282zM503 1839h296l78 -136l135 136h322l-305 -346h-369z" />
    <glyph glyph-name="dcaron" unicode="&#x10f;" horiz-adv-x="1386" 
d="M565 1018c103 0 198 -32 263 -101l111 523h358l-306 -1440h-344l14 68c-58 -56 -131 -94 -230 -94c-233 0 -401 213 -401 466c0 223 155 578 535 578zM564 306c94 0 170 75 183 181c17 137 -79 200 -159 200c-106 0 -186 -96 -186 -211c0 -127 96 -170 162 -170z
M1540 940h-267l106 500h347z" />
    <glyph glyph-name="Dcroat" unicode="&#x110;" horiz-adv-x="1577" 
d="M392 1400h543c406 0 647 -275 647 -575c0 -469 -301 -825 -865 -825h-623l116 548h-141l68 320h141zM939 868l-68 -320h-272l-43 -199h205c264 0 420 166 420 420c0 159 -85 282 -290 282h-185l-39 -183h272z" />
    <glyph glyph-name="dcroat" unicode="&#x111;" horiz-adv-x="1201" 
d="M1372 1335l-55 -262h-98l-228 -1073h-344l14 68c-58 -56 -131 -94 -230 -94c-233 0 -401 213 -401 466c0 223 155 578 535 578c103 0 198 -32 263 -101l33 156h-297l55 262h297l23 105h358l-23 -105h98zM564 306c94 0 170 75 183 181c17 137 -79 200 -159 200
c-106 0 -186 -96 -186 -211c0 -127 96 -170 162 -170z" />
    <glyph glyph-name="Emacron" unicode="&#x112;" horiz-adv-x="1243" 
d="M1208 877l-72 -338h-642l-43 -201h686l-72 -338h-1074l298 1400h1073l-72 -338h-685l-39 -185h642zM472 1524l61 284h740l-61 -284h-740z" />
    <glyph glyph-name="emacron" unicode="&#x113;" horiz-adv-x="1059" 
d="M709 345l220 -199c-85 -108 -235 -172 -431 -172c-294 0 -473 181 -473 434c0 240 158 610 581 610c250 0 435 -170 435 -413c0 -64 -19 -162 -42 -215h-627c11 -80 67 -120 146 -120c60 0 132 13 191 75zM584 719c-78 0 -131 -52 -165 -114h288c-2 77 -48 114 -123 114z
M279 1124l61 284h740l-61 -284h-740z" />
    <glyph glyph-name="Ebreve" unicode="&#x114;" horiz-adv-x="1243" 
d="M1208 877l-72 -338h-642l-43 -201h686l-72 -338h-1074l298 1400h1073l-72 -338h-685l-39 -185h642zM471 1826l259 72c5 -96 43 -146 120 -146c73 0 129 50 172 146l257 -72c-96 -223 -243 -344 -462 -344c-204 0 -343 129 -346 344z" />
    <glyph glyph-name="ebreve" unicode="&#x115;" horiz-adv-x="1059" 
d="M709 345l220 -199c-85 -108 -235 -172 -431 -172c-294 0 -473 181 -473 434c0 240 158 610 581 610c250 0 435 -170 435 -413c0 -64 -19 -162 -42 -215h-627c11 -80 67 -120 146 -120c60 0 132 13 191 75zM584 719c-78 0 -131 -52 -165 -114h288c-2 77 -48 114 -123 114z
M292 1426l259 72c5 -96 43 -146 120 -146c73 0 129 50 172 146l257 -72c-96 -223 -243 -344 -462 -344c-204 0 -343 129 -346 344z" />
    <glyph glyph-name="Edotaccent" unicode="&#x116;" horiz-adv-x="1243" 
d="M1208 877l-72 -338h-642l-43 -201h686l-72 -338h-1074l298 1400h1073l-72 -338h-685l-39 -185h642zM836 1890c120 0 214 -93 214 -214s-94 -214 -214 -214c-121 0 -215 93 -215 214s94 214 215 214z" />
    <glyph glyph-name="edotaccent" unicode="&#x117;" horiz-adv-x="1059" 
d="M709 345l220 -199c-85 -108 -235 -172 -431 -172c-294 0 -473 181 -473 434c0 240 158 610 581 610c250 0 435 -170 435 -413c0 -64 -19 -162 -42 -215h-627c11 -80 67 -120 146 -120c60 0 132 13 191 75zM584 719c-78 0 -131 -52 -165 -114h288c-2 77 -48 114 -123 114z
M680 1485c115 0 204 -89 204 -204s-89 -204 -204 -204s-204 89 -204 204s89 204 204 204z" />
    <glyph glyph-name="Eogonek" unicode="&#x118;" horiz-adv-x="1243" 
d="M1208 877l-72 -338h-642l-43 -201h686l-72 -338h-173c-121 -53 -129 -97 -129 -120c0 -26 22 -42 55 -42c28 0 54 12 79 31l163 -179c-77 -68 -172 -109 -287 -109c-185 0 -321 87 -321 228c0 79 38 140 122 191h-583l298 1400h1073l-72 -338h-685l-39 -185h642z" />
    <glyph glyph-name="eogonek" unicode="&#x119;" horiz-adv-x="1059" 
d="M709 -131l163 -179c-77 -68 -172 -109 -287 -109c-185 0 -321 87 -321 228c0 73 32 130 103 179c-216 45 -342 207 -342 420c0 240 158 610 581 610c250 0 435 -170 435 -413c0 -64 -19 -162 -42 -215h-627c11 -80 67 -120 146 -120c60 0 132 13 191 75l220 -199
c-49 -63 -121 -109 -209 -141c-132 -48 -145 -101 -145 -125c0 -26 22 -42 55 -42c28 0 54 12 79 31zM584 719c-78 0 -131 -52 -165 -114h288c-2 77 -48 114 -123 114z" />
    <glyph glyph-name="Ecaron" unicode="&#x11a;" horiz-adv-x="1243" 
d="M1208 877l-72 -338h-642l-43 -201h686l-72 -338h-1074l298 1400h1073l-72 -338h-685l-39 -185h642zM473 1839h296l78 -136l135 136h322l-305 -346h-369z" />
    <glyph glyph-name="ecaron" unicode="&#x11b;" horiz-adv-x="1059" 
d="M709 345l220 -199c-85 -108 -235 -172 -431 -172c-294 0 -473 181 -473 434c0 240 158 610 581 610c250 0 435 -170 435 -413c0 -64 -19 -162 -42 -215h-627c11 -80 67 -120 146 -120c60 0 132 13 191 75zM584 719c-78 0 -131 -52 -165 -114h288c-2 77 -48 114 -123 114z
M301 1439h296l78 -136l135 136h322l-305 -346h-369z" />
    <glyph glyph-name="Gcircumflex" unicode="&#x11c;" horiz-adv-x="1525" 
d="M1399 1201l-296 -238c-57 64 -138 108 -258 108c-204 0 -361 -173 -361 -419c0 -211 131 -335 327 -335c161 0 266 69 309 207h-336l61 278h668c5 -52 3 -104 -4 -162c-55 -458 -374 -666 -712 -666c-410 0 -704 264 -704 662c0 464 334 790 782 790
c149 0 375 -31 524 -225zM1297 1493h-296l-79 135l-134 -135h-322l305 346h369z" />
    <glyph glyph-name="gcircumflex" unicode="&#x11d;" horiz-adv-x="1163" 
d="M1186 991l-206 -961c-59 -274 -274 -450 -566 -450c-171 0 -324 45 -476 141l151 274c109 -72 203 -106 293 -106c141 0 235 61 257 171l6 31c-54 -41 -120 -65 -208 -65c-233 0 -403 174 -403 426c0 223 136 565 525 565c110 0 198 -33 257 -93l14 67h356zM554 349
c102 0 182 84 182 191c0 86 -70 154 -159 154c-101 0 -181 -83 -181 -189c0 -87 69 -156 158 -156zM1079 1093h-296l-79 135l-134 -135h-322l305 346h369z" />
    <glyph glyph-name="Gbreve" unicode="&#x11e;" horiz-adv-x="1525" 
d="M1399 1201l-296 -238c-57 64 -138 108 -258 108c-204 0 -361 -173 -361 -419c0 -211 131 -335 327 -335c161 0 266 69 309 207h-336l61 278h668c5 -52 3 -104 -4 -162c-55 -458 -374 -666 -712 -666c-410 0 -704 264 -704 662c0 464 334 790 782 790
c149 0 375 -31 524 -225zM531 1826l259 72c5 -96 43 -146 120 -146c73 0 129 50 172 146l257 -72c-96 -223 -243 -344 -462 -344c-204 0 -343 129 -346 344z" />
    <glyph glyph-name="gbreve" unicode="&#x11f;" horiz-adv-x="1163" 
d="M1186 991l-206 -961c-59 -274 -274 -450 -566 -450c-171 0 -324 45 -476 141l151 274c109 -72 203 -106 293 -106c141 0 235 61 257 171l6 31c-54 -41 -120 -65 -208 -65c-233 0 -403 174 -403 426c0 223 136 565 525 565c110 0 198 -33 257 -93l14 67h356zM554 349
c102 0 182 84 182 191c0 86 -70 154 -159 154c-101 0 -181 -83 -181 -189c0 -87 69 -156 158 -156zM329 1426l259 72c5 -96 43 -146 120 -146c73 0 129 50 172 146l257 -72c-96 -223 -243 -344 -462 -344c-204 0 -343 129 -346 344z" />
    <glyph glyph-name="Gdotaccent" unicode="&#x120;" horiz-adv-x="1525" 
d="M1399 1201l-296 -238c-57 64 -138 108 -258 108c-204 0 -361 -173 -361 -419c0 -211 131 -335 327 -335c161 0 266 69 309 207h-336l61 278h668c5 -52 3 -104 -4 -162c-55 -458 -374 -666 -712 -666c-410 0 -704 264 -704 662c0 464 334 790 782 790
c149 0 375 -31 524 -225zM896 1890c120 0 214 -93 214 -214s-94 -214 -214 -214c-121 0 -215 93 -215 214s94 214 215 214z" />
    <glyph glyph-name="gdotaccent" unicode="&#x121;" horiz-adv-x="1163" 
d="M1186 991l-206 -961c-59 -274 -274 -450 -566 -450c-171 0 -324 45 -476 141l151 274c109 -72 203 -106 293 -106c141 0 235 61 257 171l6 31c-54 -41 -120 -65 -208 -65c-233 0 -403 174 -403 426c0 223 136 565 525 565c110 0 198 -33 257 -93l14 67h356zM554 349
c102 0 182 84 182 191c0 86 -70 154 -159 154c-101 0 -181 -83 -181 -189c0 -87 69 -156 158 -156zM717 1485c115 0 204 -89 204 -204s-89 -204 -204 -204s-204 89 -204 204s89 204 204 204z" />
    <glyph glyph-name="Gcommaaccent" unicode="&#x122;" horiz-adv-x="1525" 
d="M1399 1201l-296 -238c-57 64 -138 108 -258 108c-204 0 -361 -173 -361 -419c0 -211 131 -335 327 -335c161 0 266 69 309 207h-336l61 278h668c5 -52 3 -104 -4 -162c-55 -458 -374 -666 -712 -666c-410 0 -704 264 -704 662c0 464 334 790 782 790
c149 0 375 -31 524 -225zM621 -77h336l-193 -430h-289z" />
    <glyph glyph-name="gcommaaccent" unicode="&#x123;" horiz-adv-x="1163" 
d="M1186 991l-206 -961c-59 -274 -274 -450 -566 -450c-171 0 -324 45 -476 141l151 274c109 -72 203 -106 293 -106c141 0 235 61 257 171l6 31c-54 -41 -120 -65 -208 -65c-233 0 -403 174 -403 426c0 223 136 565 525 565c110 0 198 -33 257 -93l14 67h356zM554 349
c102 0 182 84 182 191c0 86 -70 154 -159 154c-101 0 -181 -83 -181 -189c0 -87 69 -156 158 -156zM850 1103h-336l193 430h289z" />
    <glyph glyph-name="Hcircumflex" unicode="&#x124;" horiz-adv-x="1471" 
d="M677 1400l-110 -518h502l110 518h388l-298 -1400h-388l113 533h-502l-113 -533h-388l298 1400h388zM1349 1493h-296l-79 135l-134 -135h-322l305 346h369z" />
    <glyph glyph-name="hcircumflex" unicode="&#x125;" horiz-adv-x="1120" 
d="M761 1018c197 0 312 -134 312 -324c0 -35 -4 -73 -12 -112l-125 -582h-358l117 549c3 14 5 28 5 41c0 55 -29 95 -98 95c-68 0 -127 -31 -156 -170l-108 -515h-360l306 1440h360l-108 -503c59 54 133 81 225 81zM1171 1502h-296l-79 135l-134 -135h-322l305 346h369z" />
    <glyph glyph-name="Hbar" unicode="&#x126;" horiz-adv-x="1603" 
d="M1738 1267l-57 -270h-129l-212 -997h-388l113 533h-502l-113 -533h-388l212 997h-138l57 270h138l29 133h388l-28 -133h502l28 133h388l-29 -133h129zM638 882h502l24 115h-502z" />
    <glyph glyph-name="hbar" unicode="&#x127;" horiz-adv-x="1151" 
d="M952 1335l-55 -262h-301l-29 -136c59 54 133 81 225 81c197 0 312 -134 312 -324c0 -35 -4 -73 -12 -112l-125 -582h-358l117 549c3 14 5 28 5 41c0 55 -29 95 -98 95c-68 0 -127 -31 -156 -170l-108 -515h-360l228 1073h-93l55 262h93l23 105h360l-23 -105h300z" />
    <glyph glyph-name="Itilde" unicode="&#x128;" horiz-adv-x="582" 
d="M677 1400l-297 -1400h-388l297 1400h388zM234 1497l-183 191c99 127 208 161 313 161c159 0 191 -74 255 -74c42 0 75 31 116 74l184 -191c-99 -127 -208 -161 -313 -161c-159 0 -191 74 -255 74c-42 0 -76 -30 -117 -74z" />
    <glyph glyph-name="itilde" unicode="&#x129;" horiz-adv-x="526" 
d="M549 991l-211 -991h-360l211 991h360zM144 1097l-183 191c99 127 208 161 313 161c159 0 191 -74 255 -74c42 0 75 31 116 74l184 -191c-99 -127 -208 -161 -313 -161c-159 0 -191 74 -255 74c-42 0 -76 -30 -117 -74z" />
    <glyph glyph-name="Imacron" unicode="&#x12a;" horiz-adv-x="582" 
d="M677 1400l-297 -1400h-388l297 1400h388zM138 1524l61 284h740l-61 -284h-740z" />
    <glyph glyph-name="imacron" unicode="&#x12b;" horiz-adv-x="526" 
d="M549 991l-211 -991h-360l211 991h360zM27 1124l61 284h740l-61 -284h-740z" />
    <glyph glyph-name="Ibreve" unicode="&#x12c;" horiz-adv-x="582" 
d="M677 1400l-297 -1400h-388l297 1400h388zM137 1826l259 72c5 -96 43 -146 120 -146c73 0 129 50 172 146l257 -72c-96 -223 -243 -344 -462 -344c-204 0 -343 129 -346 344z" />
    <glyph glyph-name="ibreve" unicode="&#x12d;" horiz-adv-x="526" 
d="M549 991l-211 -991h-360l211 991h360zM40 1426l259 72c5 -96 43 -146 120 -146c73 0 129 50 172 146l257 -72c-96 -223 -243 -344 -462 -344c-204 0 -343 129 -346 344z" />
    <glyph glyph-name="Iogonek" unicode="&#x12e;" horiz-adv-x="582" 
d="M303 -140l135 -193c-48 -40 -143 -86 -259 -86c-180 0 -287 78 -287 211c0 94 65 161 140 208h-40l297 1400h388l-297 -1400h-79c-117 -42 -126 -93 -126 -118c0 -32 26 -46 59 -46c18 0 40 6 69 24z" />
    <glyph glyph-name="iogonek" unicode="&#x12f;" horiz-adv-x="526" 
d="M549 991l-211 -991h-56c-117 -42 -126 -93 -126 -118c0 -32 26 -46 59 -46c18 0 40 6 69 24l135 -193c-48 -40 -143 -86 -259 -86c-180 0 -287 78 -287 211c0 94 65 161 140 208h-35l211 991h360zM428 1485c115 0 204 -89 204 -204s-89 -204 -204 -204s-204 89 -204 204
s89 204 204 204z" />
    <glyph glyph-name="Idotaccent" unicode="&#x130;" horiz-adv-x="582" 
d="M677 1400l-297 -1400h-388l297 1400h388zM502 1890c120 0 214 -93 214 -214s-94 -214 -214 -214c-121 0 -215 93 -215 214s94 214 215 214z" />
    <glyph glyph-name="dotlessi" unicode="&#x131;" horiz-adv-x="526" 
d="M549 991l-211 -991h-360l211 991h360z" />
    <glyph glyph-name="IJ" unicode="&#x132;" horiz-adv-x="1614" 
d="M677 1400l-297 -1400h-388l297 1400h388zM1714 1400l-187 -877c-89 -416 -321 -549 -590 -549c-180 0 -328 58 -415 158l198 292c46 -47 115 -86 204 -86c108 0 189 58 229 248l173 814h388z" />
    <glyph glyph-name="ij" unicode="&#x133;" horiz-adv-x="1051" 
d="M1074 991l-229 -1077c-50 -233 -190 -340 -385 -340c-67 0 -138 12 -193 38l91 307c16 -9 32 -14 51 -14c37 0 78 17 94 93l211 993h360zM950 1485c115 0 204 -89 204 -204s-89 -204 -204 -204s-204 89 -204 204s89 204 204 204zM549 991l-211 -991h-360l211 991h360z
M428 1485c115 0 204 -89 204 -204s-89 -204 -204 -204s-204 89 -204 204s89 204 204 204z" />
    <glyph glyph-name="Jcircumflex" unicode="&#x134;" horiz-adv-x="1032" 
d="M1132 1400l-187 -877c-89 -416 -321 -549 -590 -549c-180 0 -328 58 -415 158l198 292c46 -47 115 -86 204 -86c108 0 189 58 229 248l173 814h388zM1359 1493h-296l-79 135l-134 -135h-322l305 346h369z" />
    <glyph glyph-name="jcircumflex" unicode="&#x135;" horiz-adv-x="525" 
d="M548 991l-229 -1077c-50 -233 -190 -340 -385 -340c-67 0 -138 12 -193 38l91 307c16 -9 32 -14 51 -14c37 0 78 17 94 93l211 993h360zM786 1093h-296l-79 135l-134 -135h-322l305 346h369z" />
    <glyph glyph-name="Kcommaaccent" unicode="&#x136;" horiz-adv-x="1402" 
d="M677 1400l-112 -526h92l454 526h472l-659 -716l376 -684h-428l-285 536h-94l-114 -536h-388l298 1400h388zM444 -77h336l-193 -430h-289z" />
    <glyph glyph-name="kcommaaccent" unicode="&#x137;" horiz-adv-x="1103" 
d="M644 1440l-161 -758h44l253 309h433l-442 -490l257 -501h-390l-172 369h-50l-78 -369h-360l306 1440h360zM302 -77h336l-193 -430h-289z" />
    <glyph glyph-name="kgreenlandic" unicode="&#x138;" horiz-adv-x="1101" 
d="M769 501l257 -501h-390l-172 369h-48l-78 -369h-360l211 991h360l-66 -309h42l253 309h433z" />
    <glyph glyph-name="Lacute" unicode="&#x139;" horiz-adv-x="1153" 
d="M677 1400l-224 -1050h650l-75 -350h-1037l298 1400h388zM597 1501h-336l256 346h405z" />
    <glyph glyph-name="lacute" unicode="&#x13a;" horiz-adv-x="526" 
d="M644 1440l-306 -1440h-360l306 1440h360zM570 1501h-336l256 346h405z" />
    <glyph glyph-name="Lcommaaccent" unicode="&#x13b;" horiz-adv-x="1153" 
d="M677 1400l-224 -1050h650l-75 -350h-1037l298 1400h388zM347 -77h336l-193 -430h-289z" />
    <glyph glyph-name="lcommaaccent" unicode="&#x13c;" horiz-adv-x="526" 
d="M644 1440l-306 -1440h-360l306 1440h360zM-26 -77h336l-193 -430h-289z" />
    <glyph glyph-name="Lcaron" unicode="&#x13d;" horiz-adv-x="1153" 
d="M677 1400l-224 -1050h650l-75 -350h-1037l298 1400h388zM969 900h-267l106 500h347z" />
    <glyph glyph-name="lcaron" unicode="&#x13e;" horiz-adv-x="733" 
d="M644 1440l-306 -1440h-360l306 1440h360zM887 940h-267l106 500h347z" />
    <glyph glyph-name="Ldot" unicode="&#x13f;" horiz-adv-x="1153" 
d="M677 1400l-224 -1050h650l-75 -350h-1037l298 1400h388zM896 945c120 0 214 -93 214 -214s-94 -214 -214 -214c-121 0 -215 93 -215 214s94 214 215 214z" />
    <glyph glyph-name="ldot" unicode="&#x140;" horiz-adv-x="826" 
d="M644 1440l-306 -1440h-360l306 1440h360zM769 914c103 0 183 -80 183 -184c0 -103 -80 -183 -183 -183c-104 0 -184 80 -184 183c0 104 80 184 184 184z" />
    <glyph glyph-name="Lslash" unicode="&#x141;" horiz-adv-x="1241" 
d="M765 1400l-96 -451l405 194l-79 -368l-405 -194l-49 -231h650l-75 -350h-1037l80 375l-141 -67l79 368l140 67l140 657h388z" />
    <glyph glyph-name="lslash" unicode="&#x142;" horiz-adv-x="755" 
d="M761 1440l-88 -414l188 87l-76 -357l-188 -86l-142 -670h-360l103 487l-193 -89l76 357l193 88l127 597h360z" />
    <glyph glyph-name="Nacute" unicode="&#x143;" horiz-adv-x="1511" 
d="M1607 1400l-298 -1400h-360l-399 809l-172 -809h-387l298 1400h361l399 -811l171 811h387zM1057 1501h-336l256 346h405z" />
    <glyph glyph-name="nacute" unicode="&#x144;" horiz-adv-x="1120" 
d="M761 1018c197 0 312 -134 312 -324c0 -35 -4 -73 -12 -112l-125 -582h-358l117 549c3 14 5 28 5 41c0 55 -29 95 -100 95c-68 0 -127 -31 -156 -170l-108 -515h-358l211 991h333l-21 -91c65 79 149 118 260 118zM773 1103h-336l256 346h405z" />
    <glyph glyph-name="Ncommaaccent" unicode="&#x145;" horiz-adv-x="1511" 
d="M1607 1400l-298 -1400h-360l-399 809l-172 -809h-387l298 1400h361l399 -811l171 811h387zM500 -77h336l-193 -430h-289z" />
    <glyph glyph-name="ncommaaccent" unicode="&#x146;" horiz-adv-x="1120" 
d="M761 1018c197 0 312 -134 312 -324c0 -35 -4 -73 -12 -112l-125 -582h-358l117 549c3 14 5 28 5 41c0 55 -29 95 -100 95c-68 0 -127 -31 -156 -170l-108 -515h-358l211 991h333l-21 -91c65 79 149 118 260 118zM272 -77h336l-193 -430h-289z" />
    <glyph glyph-name="Ncaron" unicode="&#x147;" horiz-adv-x="1511" 
d="M1607 1400l-298 -1400h-360l-399 809l-172 -809h-387l298 1400h361l399 -811l171 811h387zM599 1839h296l78 -136l135 136h322l-305 -346h-369z" />
    <glyph glyph-name="ncaron" unicode="&#x148;" horiz-adv-x="1120" 
d="M761 1018c197 0 312 -134 312 -324c0 -35 -4 -73 -12 -112l-125 -582h-358l117 549c3 14 5 28 5 41c0 55 -29 95 -100 95c-68 0 -127 -31 -156 -170l-108 -515h-358l211 991h333l-21 -91c65 79 149 118 260 118zM318 1439h296l78 -136l135 136h322l-305 -346h-369z" />
    <glyph glyph-name="napostrophe" unicode="&#x149;" horiz-adv-x="1500" 
d="M335 1440h383l-308 -694h-311zM1141 1018c197 0 312 -134 312 -324c0 -35 -4 -73 -12 -112l-125 -582h-358l117 549c3 14 5 28 5 41c0 55 -29 95 -100 95c-68 0 -127 -31 -156 -170l-108 -515h-358l211 991h333l-21 -91c65 79 149 118 260 118z" />
    <glyph glyph-name="Eng" unicode="&#x14a;" horiz-adv-x="1511" 
d="M1607 1400l-303 -1427c-53 -248 -216 -389 -478 -389c-136 0 -271 43 -339 108l195 294c39 -33 85 -51 135 -51c60 0 100 36 119 92l-386 782l-172 -809h-387l298 1400h361l399 -811l171 811h387z" />
    <glyph glyph-name="eng" unicode="&#x14b;" horiz-adv-x="1120" 
d="M761 1018c197 0 312 -134 312 -324c0 -35 -4 -73 -12 -112l-139 -649c-48 -224 -200 -309 -347 -309c-82 0 -142 11 -183 30l65 309c16 -6 33 -8 57 -8c32 0 59 19 71 77l110 517c3 14 5 28 5 41c0 55 -29 95 -100 95c-68 0 -127 -31 -156 -170l-108 -515h-358l211 991
h333l-21 -91c65 79 149 118 260 118z" />
    <glyph glyph-name="Omacron" unicode="&#x14c;" horiz-adv-x="1569" 
d="M870 1426c405 0 694 -265 694 -665c0 -429 -318 -787 -778 -787c-406 0 -694 265 -694 665c0 429 318 787 778 787zM851 1062c-213 0 -364 -175 -364 -400c0 -200 132 -324 318 -324c212 0 364 175 364 400c0 200 -132 324 -318 324zM560 1524l61 284h740l-61 -284h-740z
" />
    <glyph glyph-name="omacron" unicode="&#x14d;" horiz-adv-x="1147" 
d="M605 1018c276 0 508 -179 508 -480c0 -307 -240 -564 -571 -564c-276 0 -508 179 -508 480c0 307 240 564 571 564zM585 687c-103 0 -185 -90 -185 -212c0 -99 65 -170 160 -170c103 0 187 90 187 212c0 100 -67 170 -162 170zM299 1121l61 284h740l-61 -284h-740z" />
    <glyph glyph-name="Obreve" unicode="&#x14e;" horiz-adv-x="1569" 
d="M870 1426c405 0 694 -265 694 -665c0 -429 -318 -787 -778 -787c-406 0 -694 265 -694 665c0 429 318 787 778 787zM851 1062c-213 0 -364 -175 -364 -400c0 -200 132 -324 318 -324c212 0 364 175 364 400c0 200 -132 324 -318 324zM559 1826l259 72
c5 -96 43 -146 120 -146c73 0 129 50 172 146l257 -72c-96 -223 -243 -344 -462 -344c-204 0 -343 129 -346 344z" />
    <glyph glyph-name="obreve" unicode="&#x14f;" horiz-adv-x="1147" 
d="M605 1018c276 0 508 -179 508 -480c0 -307 -240 -564 -571 -564c-276 0 -508 179 -508 480c0 307 240 564 571 564zM585 687c-103 0 -185 -90 -185 -212c0 -99 65 -170 160 -170c103 0 187 90 187 212c0 100 -67 170 -162 170zM312 1423l259 72c5 -96 43 -146 120 -146
c73 0 129 50 172 146l257 -72c-96 -223 -243 -344 -462 -344c-204 0 -343 129 -346 344z" />
    <glyph glyph-name="Ohungarumlaut" unicode="&#x150;" horiz-adv-x="1569" 
d="M870 1426c405 0 694 -265 694 -665c0 -429 -318 -787 -778 -787c-406 0 -694 265 -694 665c0 429 318 787 778 787zM851 1062c-213 0 -364 -175 -364 -400c0 -200 132 -324 318 -324c212 0 364 175 364 400c0 200 -132 324 -318 324zM1293 1503h-344l293 346h358z
M843 1503h-324l258 346h359z" />
    <glyph glyph-name="ohungarumlaut" unicode="&#x151;" horiz-adv-x="1147" 
d="M605 1018c276 0 508 -179 508 -480c0 -307 -240 -564 -571 -564c-276 0 -508 179 -508 480c0 307 240 564 571 564zM585 687c-103 0 -185 -90 -185 -212c0 -99 65 -170 160 -170c103 0 187 90 187 212c0 100 -67 170 -162 170zM1031 1100h-344l293 346h358zM581 1100
h-324l258 346h359z" />
    <glyph glyph-name="OE" unicode="&#x152;" horiz-adv-x="2108" 
d="M2073 877l-72 -338h-642l-43 -201h686l-72 -338h-1201c-406 0 -647 275 -647 575c0 469 301 825 865 825h1280l-72 -338h-685l-39 -185h642zM483 631c0 -159 85 -282 290 -282h157l150 702h-177c-264 0 -420 -166 -420 -420z" />
    <glyph glyph-name="oe" unicode="&#x153;" horiz-adv-x="1768" 
d="M1418 345l220 -199c-85 -108 -235 -172 -431 -172c-141 0 -252 49 -327 132c-89 -82 -206 -132 -338 -132c-276 0 -508 179 -508 480c0 307 240 564 571 564c136 0 259 -53 343 -149c85 89 205 149 367 149c250 0 435 -170 435 -413c0 -64 -19 -162 -42 -215h-627
c11 -80 67 -120 146 -120c60 0 132 13 191 75zM585 687c-103 0 -185 -90 -185 -212c0 -99 65 -170 160 -170c103 0 187 90 187 212c0 100 -67 170 -162 170zM1293 719c-78 0 -131 -52 -165 -114h288c-2 77 -48 114 -123 114z" />
    <glyph glyph-name="Racute" unicode="&#x154;" horiz-adv-x="1306" 
d="M289 1400h578c305 0 476 -195 476 -414c0 -211 -109 -421 -443 -476l332 -510h-434l-295 497h-18l-106 -497h-388zM810 1059h-206l-53 -249h216c135 0 191 62 191 140c0 67 -58 109 -148 109zM924 1501h-336l256 346h405z" />
    <glyph glyph-name="racute" unicode="&#x155;" horiz-adv-x="786" 
d="M442 506l-106 -506h-358l211 991h333l-24 -106c61 92 141 133 249 133c40 0 77 -8 121 -21l-91 -347c-45 16 -101 25 -150 25c-86 0 -161 -53 -185 -169zM648 1103h-336l256 346h405z" />
    <glyph glyph-name="Rcommaaccent" unicode="&#x156;" horiz-adv-x="1306" 
d="M289 1400h578c305 0 476 -195 476 -414c0 -211 -109 -421 -443 -476l332 -510h-434l-295 497h-18l-106 -497h-388zM810 1059h-206l-53 -249h216c135 0 191 62 191 140c0 67 -58 109 -148 109zM414 -77h336l-193 -430h-289z" />
    <glyph glyph-name="rcommaaccent" unicode="&#x157;" horiz-adv-x="786" 
d="M442 506l-106 -506h-358l211 991h333l-24 -106c61 92 141 133 249 133c40 0 77 -8 121 -21l-91 -347c-45 16 -101 25 -150 25c-86 0 -161 -53 -185 -169zM-27 -77h336l-193 -430h-289z" />
    <glyph glyph-name="Rcaron" unicode="&#x158;" horiz-adv-x="1306" 
d="M289 1400h578c305 0 476 -195 476 -414c0 -211 -109 -421 -443 -476l332 -510h-434l-295 497h-18l-106 -497h-388zM810 1059h-206l-53 -249h216c135 0 191 62 191 140c0 67 -58 109 -148 109zM466 1839h296l78 -136l135 136h322l-305 -346h-369z" />
    <glyph glyph-name="rcaron" unicode="&#x159;" horiz-adv-x="786" 
d="M442 506l-106 -506h-358l211 991h333l-24 -106c61 92 141 133 249 133c40 0 77 -8 121 -21l-91 -347c-45 16 -101 25 -150 25c-86 0 -161 -53 -185 -169zM193 1439h296l78 -136l135 136h322l-305 -346h-369z" />
    <glyph glyph-name="Sacute" unicode="&#x15a;" horiz-adv-x="1339" 
d="M1388 1256l-191 -301c-127 97 -325 127 -415 127c-120 0 -178 -39 -178 -93c0 -76 119 -100 220 -122l46 -10c264 -55 400 -183 400 -378c0 -312 -259 -505 -626 -505c-241 0 -499 69 -651 195l211 300c156 -108 309 -155 471 -155c104 0 177 31 177 103
c0 70 -77 88 -219 116l-51 10c-249 48 -393 179 -393 388c0 290 222 495 588 495c156 0 383 -17 611 -170zM963 1501h-336l256 346h405z" />
    <glyph glyph-name="sacute" unicode="&#x15b;" horiz-adv-x="982" 
d="M990 905l-135 -261c-123 72 -264 90 -309 90c-69 0 -92 -12 -95 -32c-5 -41 30 -40 132 -63l58 -13c212 -47 285 -163 266 -317c-28 -232 -194 -335 -477 -335c-181 0 -367 54 -464 131l142 260c99 -64 235 -108 340 -108c78 0 97 11 100 38c4 35 -31 46 -121 63l-58 11
c-232 44 -304 167 -282 333c28 213 194 316 454 316c158 0 297 -36 449 -113zM706 1103h-336l256 346h405z" />
    <glyph glyph-name="Scircumflex" unicode="&#x15c;" horiz-adv-x="1339" 
d="M1388 1256l-191 -301c-127 97 -325 127 -415 127c-120 0 -178 -39 -178 -93c0 -76 119 -100 220 -122l46 -10c264 -55 400 -183 400 -378c0 -312 -259 -505 -626 -505c-241 0 -499 69 -651 195l211 300c156 -108 309 -155 471 -155c104 0 177 31 177 103
c0 70 -77 88 -219 116l-51 10c-249 48 -393 179 -393 388c0 290 222 495 588 495c156 0 383 -17 611 -170zM1269 1493h-296l-79 135l-134 -135h-322l305 346h369z" />
    <glyph glyph-name="scircumflex" unicode="&#x15d;" horiz-adv-x="982" 
d="M990 905l-135 -261c-123 72 -264 90 -309 90c-69 0 -92 -12 -95 -32c-5 -41 30 -40 132 -63l58 -13c212 -47 285 -163 266 -317c-28 -232 -194 -335 -477 -335c-181 0 -367 54 -464 131l142 260c99 -64 235 -108 340 -108c78 0 97 11 100 38c4 35 -31 46 -121 63l-58 11
c-232 44 -304 167 -282 333c28 213 194 316 454 316c158 0 297 -36 449 -113zM992 1093h-296l-79 135l-134 -135h-322l305 346h369z" />
    <glyph glyph-name="Scedilla" unicode="&#x15e;" horiz-adv-x="1339" 
d="M1388 1256l-191 -301c-127 97 -325 127 -415 127c-120 0 -178 -39 -178 -93c0 -76 119 -100 220 -122l46 -10c264 -55 400 -183 400 -378c0 -271 -195 -451 -485 -494l-148 -306h-352l168 309c-178 26 -348 88 -460 181l211 300c156 -108 309 -155 471 -155
c104 0 177 31 177 103c0 70 -77 88 -219 116l-51 10c-249 48 -393 179 -393 388c0 290 222 495 588 495c156 0 383 -17 611 -170z" />
    <glyph glyph-name="scedilla" unicode="&#x15f;" horiz-adv-x="982" 
d="M990 905l-135 -261c-123 72 -264 90 -309 90c-69 0 -92 -12 -95 -32c-5 -41 30 -40 132 -63l58 -13c212 -47 285 -163 266 -317c-23 -191 -140 -295 -339 -325l-151 -305h-322l170 309c-121 21 -232 63 -299 117l142 260c99 -64 235 -108 340 -108c78 0 97 11 100 38
c4 35 -31 46 -121 63l-58 11c-232 44 -304 167 -282 333c28 213 194 316 454 316c158 0 297 -36 449 -113z" />
    <glyph glyph-name="Scaron" unicode="&#x160;" horiz-adv-x="1339" 
d="M1388 1256l-191 -301c-127 97 -325 127 -415 127c-120 0 -178 -39 -178 -93c0 -76 119 -100 220 -122l46 -10c264 -55 400 -183 400 -378c0 -312 -259 -505 -626 -505c-241 0 -499 69 -651 195l211 300c156 -108 309 -155 471 -155c104 0 177 31 177 103
c0 70 -77 88 -219 116l-51 10c-249 48 -393 179 -393 388c0 290 222 495 588 495c156 0 383 -17 611 -170zM505 1839h296l78 -136l135 136h322l-305 -346h-369z" />
    <glyph glyph-name="scaron" unicode="&#x161;" horiz-adv-x="982" 
d="M990 905l-135 -261c-123 72 -264 90 -309 90c-69 0 -92 -12 -95 -32c-5 -41 30 -40 132 -63l58 -13c212 -47 285 -163 266 -317c-28 -232 -194 -335 -477 -335c-181 0 -367 54 -464 131l142 260c99 -64 235 -108 340 -108c78 0 97 11 100 38c4 35 -31 46 -121 63l-58 11
c-232 44 -304 167 -282 333c28 213 194 316 454 316c158 0 297 -36 449 -113zM251 1439h296l78 -136l135 136h322l-305 -346h-369z" />
    <glyph glyph-name="Tcommaaccent" unicode="&#x162;" horiz-adv-x="1205" 
d="M1378 1400l-75 -350h-389l-223 -1050h-31l-155 -321h-352l175 321h-25l223 1050h-389l75 350h1166z" />
    <glyph glyph-name="tcommaaccent" unicode="&#x163;" horiz-adv-x="977" 
d="M974 991l-67 -314h-307l-53 -248c-19 -88 15 -124 87 -124c55 0 111 27 160 54l103 -287c-87 -55 -178 -83 -268 -93l-149 -300h-322l182 330c-154 66 -197 218 -156 407l55 261h-175l67 314h175l61 284h360l-61 -284h308z" />
    <glyph glyph-name="Tcaron" unicode="&#x164;" horiz-adv-x="1205" 
d="M1378 1400l-75 -350h-389l-223 -1050h-388l223 1050h-389l75 350h1166zM467 1839h296l78 -136l135 136h322l-305 -346h-369z" />
    <glyph glyph-name="tcaron" unicode="&#x165;" horiz-adv-x="977" 
d="M974 991l-67 -314h-307l-53 -248c-19 -88 15 -124 87 -124c55 0 111 27 160 54l103 -287c-114 -72 -236 -98 -355 -98c-317 0 -412 189 -358 442l55 261h-175l67 314h175l61 284h360l-61 -284h308zM989 1040h-267l106 500h347z" />
    <glyph glyph-name="Tbar" unicode="&#x166;" horiz-adv-x="1205" 
d="M1088 868l-68 -320h-213l-116 -548h-388l116 548h-201l68 320h201l39 182h-389l75 350h1166l-75 -350h-389l-39 -182h213z" />
    <glyph glyph-name="tbar" unicode="&#x167;" horiz-adv-x="977" 
d="M974 991l-67 -314h-307l-13 -61h214l-48 -230h-211c0 -57 33 -81 92 -81c55 0 111 27 160 54l103 -287c-114 -72 -236 -98 -355 -98c-305 0 -405 174 -364 412h-127l48 230h127l13 61h-175l67 314h175l61 284h360l-61 -284h308z" />
    <glyph glyph-name="Utilde" unicode="&#x168;" horiz-adv-x="1411" 
d="M1516 1400l-184 -868c-72 -342 -281 -558 -658 -558c-363 0 -582 174 -582 473c0 48 6 100 17 153l171 800h388l-175 -818c-6 -27 -9 -52 -9 -74c0 -112 74 -170 198 -170c137 0 239 83 273 244l173 818h388zM650 1497l-183 191c99 127 208 161 313 161
c159 0 191 -74 255 -74c42 0 75 31 116 74l184 -191c-99 -127 -208 -161 -313 -161c-159 0 -191 74 -255 74c-42 0 -76 -30 -117 -74z" />
    <glyph glyph-name="utilde" unicode="&#x169;" horiz-adv-x="1118" 
d="M1146 991l-124 -581c-72 -337 -286 -436 -524 -436c-259 0 -438 125 -438 375c0 42 6 86 16 134l108 508h360l-118 -550c-3 -14 -4 -27 -4 -39c0 -64 39 -97 98 -97c88 0 136 69 157 168l109 518h360zM440 1097l-183 191c99 127 208 161 313 161c159 0 191 -74 255 -74
c42 0 75 31 116 74l184 -191c-99 -127 -208 -161 -313 -161c-159 0 -191 74 -255 74c-42 0 -76 -30 -117 -74z" />
    <glyph glyph-name="Umacron" unicode="&#x16a;" horiz-adv-x="1411" 
d="M1516 1400l-184 -868c-72 -342 -281 -558 -658 -558c-363 0 -582 174 -582 473c0 48 6 100 17 153l171 800h388l-175 -818c-6 -27 -9 -52 -9 -74c0 -112 74 -170 198 -170c137 0 239 83 273 244l173 818h388zM554 1524l61 284h740l-61 -284h-740z" />
    <glyph glyph-name="umacron" unicode="&#x16b;" horiz-adv-x="1118" 
d="M1146 991l-124 -581c-72 -337 -286 -436 -524 -436c-259 0 -438 125 -438 375c0 42 6 86 16 134l108 508h360l-118 -550c-3 -14 -4 -27 -4 -39c0 -64 39 -97 98 -97c88 0 136 69 157 168l109 518h360zM323 1124l61 284h740l-61 -284h-740z" />
    <glyph glyph-name="Ubreve" unicode="&#x16c;" horiz-adv-x="1411" 
d="M1516 1400l-184 -868c-72 -342 -281 -558 -658 -558c-363 0 -582 174 -582 473c0 48 6 100 17 153l171 800h388l-175 -818c-6 -27 -9 -52 -9 -74c0 -112 74 -170 198 -170c137 0 239 83 273 244l173 818h388zM553 1826l259 72c5 -96 43 -146 120 -146
c73 0 129 50 172 146l257 -72c-96 -223 -243 -344 -462 -344c-204 0 -343 129 -346 344z" />
    <glyph glyph-name="ubreve" unicode="&#x16d;" horiz-adv-x="1118" 
d="M1146 991l-124 -581c-72 -337 -286 -436 -524 -436c-259 0 -438 125 -438 375c0 42 6 86 16 134l108 508h360l-118 -550c-3 -14 -4 -27 -4 -39c0 -64 39 -97 98 -97c88 0 136 69 157 168l109 518h360zM336 1426l259 72c5 -96 43 -146 120 -146c73 0 129 50 172 146
l257 -72c-96 -223 -243 -344 -462 -344c-204 0 -343 129 -346 344z" />
    <glyph glyph-name="Uring" unicode="&#x16e;" horiz-adv-x="1411" 
d="M1516 1400l-184 -868c-72 -342 -281 -558 -658 -558c-363 0 -582 174 -582 473c0 48 6 100 17 153l171 800h388l-175 -818c-6 -27 -9 -52 -9 -74c0 -112 74 -170 198 -170c137 0 239 83 273 244l173 818h388zM925 1462c-158 0 -287 126 -287 283c0 156 129 283 287 283
c159 0 288 -127 288 -283c0 -157 -129 -283 -288 -283zM925 1643c54 0 100 44 100 102c0 57 -46 102 -100 102c-53 0 -99 -45 -99 -102c0 -58 46 -102 99 -102z" />
    <glyph glyph-name="uring" unicode="&#x16f;" horiz-adv-x="1118" 
d="M1146 991l-124 -581c-72 -337 -286 -436 -524 -436c-259 0 -438 125 -438 375c0 42 6 86 16 134l108 508h360l-118 -550c-3 -14 -4 -27 -4 -39c0 -64 39 -97 98 -97c88 0 136 69 157 168l109 518h360zM700 1062c-158 0 -287 126 -287 283c0 156 129 283 287 283
c159 0 288 -127 288 -283c0 -157 -129 -283 -288 -283zM700 1243c54 0 100 44 100 102c0 57 -46 102 -100 102c-53 0 -99 -45 -99 -102c0 -58 46 -102 99 -102z" />
    <glyph glyph-name="Uhungarumlaut" unicode="&#x170;" horiz-adv-x="1411" 
d="M1516 1400l-184 -868c-72 -342 -281 -558 -658 -558c-363 0 -582 174 -582 473c0 48 6 100 17 153l171 800h388l-175 -818c-6 -27 -9 -52 -9 -74c0 -112 74 -170 198 -170c137 0 239 83 273 244l173 818h388zM1287 1503h-344l293 346h358zM837 1503h-324l258 346h359z
" />
    <glyph glyph-name="uhungarumlaut" unicode="&#x171;" horiz-adv-x="1118" 
d="M1146 991l-124 -581c-72 -337 -286 -436 -524 -436c-259 0 -438 125 -438 375c0 42 6 86 16 134l108 508h360l-118 -550c-3 -14 -4 -27 -4 -39c0 -64 39 -97 98 -97c88 0 136 69 157 168l109 518h360zM1055 1103h-344l293 346h358zM605 1103h-324l258 346h359z" />
    <glyph glyph-name="Uogonek" unicode="&#x172;" horiz-adv-x="1411" 
d="M947 -132l163 -179c-80 -68 -178 -109 -297 -109c-181 0 -313 83 -313 217c0 73 30 131 95 180c-315 23 -503 193 -503 470c0 48 6 100 17 153l171 800h388l-175 -818c-6 -27 -9 -52 -9 -74c0 -112 74 -170 198 -170c137 0 239 83 273 244l173 818h388l-184 -868
c-52 -248 -173 -420 -376 -511c-129 -57 -143 -115 -143 -142c0 -26 22 -42 55 -42c28 0 54 12 79 31z" />
    <glyph glyph-name="uogonek" unicode="&#x173;" horiz-adv-x="1118" 
d="M745 -132l163 -179c-80 -68 -178 -109 -297 -109c-181 0 -313 83 -313 217c0 75 31 134 101 184c-205 29 -339 151 -339 368c0 42 6 86 16 134l108 508h360l-118 -550c-3 -14 -4 -27 -4 -39c0 -64 39 -97 98 -97c88 0 136 69 157 168l109 518h360l-124 -581
c-44 -204 -140 -322 -261 -381c-140 -68 -150 -122 -150 -150c0 -26 22 -42 55 -42c28 0 54 12 79 31z" />
    <glyph glyph-name="Wcircumflex" unicode="&#x174;" horiz-adv-x="2150" 
d="M2335 1400l-680 -1400h-437l-54 825l-379 -825h-458l-126 1400h381l64 -936l423 936h383l53 -932l423 932h407zM1682 1493h-296l-79 135l-134 -135h-322l305 346h369z" />
    <glyph glyph-name="wcircumflex" unicode="&#x175;" horiz-adv-x="1830" 
d="M1182 991l66 -577l287 577h386l-545 -991h-369l-67 541l-268 -541h-400l-154 991h359l72 -583l299 583h334zM1436 1093h-296l-79 135l-134 -135h-322l305 346h369z" />
    <glyph glyph-name="Ycircumflex" unicode="&#x176;" horiz-adv-x="1408" 
d="M1599 1400l-688 -870l-113 -530h-388l119 560l-335 840h403l174 -515l384 515h444zM1297 1493h-296l-79 135l-134 -135h-322l305 346h369z" />
    <glyph glyph-name="ycircumflex" unicode="&#x177;" horiz-adv-x="1193" 
d="M1294 991l-916 -1391h-407l458 668l-318 723h396l147 -374l232 374h408zM1125 1093h-296l-79 135l-134 -135h-322l305 346h369z" />
    <glyph glyph-name="Ydieresis" unicode="&#x178;" horiz-adv-x="1408" 
d="M1599 1400l-688 -870l-113 -530h-388l119 560l-335 840h403l174 -515l384 515h444zM651 1870c115 0 204 -89 204 -204s-89 -204 -204 -204s-204 89 -204 204s89 204 204 204zM1141 1870c115 0 204 -89 204 -204s-89 -204 -204 -204s-204 89 -204 204s89 204 204 204z" />
    <glyph glyph-name="Zacute" unicode="&#x179;" horiz-adv-x="1254" 
d="M1371 1400l-66 -308l-764 -754h631l-72 -338h-1138l66 308l764 754h-614l72 338h1121zM898 1501h-336l256 346h405z" />
    <glyph glyph-name="zacute" unicode="&#x17a;" horiz-adv-x="999" 
d="M1027 991l-58 -275l-456 -402h397l-66 -314h-887l56 265l458 412h-374l67 314h863zM709 1103h-336l256 346h405z" />
    <glyph glyph-name="Zdotaccent" unicode="&#x17b;" horiz-adv-x="1254" 
d="M1371 1400l-66 -308l-764 -754h631l-72 -338h-1138l66 308l764 754h-614l72 338h1121zM803 1890c120 0 214 -93 214 -214s-94 -214 -214 -214c-121 0 -215 93 -215 214s94 214 215 214z" />
    <glyph glyph-name="zdotaccent" unicode="&#x17c;" horiz-adv-x="999" 
d="M1027 991l-58 -275l-456 -402h397l-66 -314h-887l56 265l458 412h-374l67 314h863zM633 1485c115 0 204 -89 204 -204s-89 -204 -204 -204s-204 89 -204 204s89 204 204 204z" />
    <glyph glyph-name="Zcaron" unicode="&#x17d;" horiz-adv-x="1254" 
d="M1371 1400l-66 -308l-764 -754h631l-72 -338h-1138l66 308l764 754h-614l72 338h1121zM440 1839h296l78 -136l135 136h322l-305 -346h-369z" />
    <glyph glyph-name="zcaron" unicode="&#x17e;" horiz-adv-x="999" 
d="M1027 991l-58 -275l-456 -402h397l-66 -314h-887l56 265l458 412h-374l67 314h863zM254 1439h296l78 -136l135 136h322l-305 -346h-369z" />
    <glyph glyph-name="longs" unicode="&#x17f;" horiz-adv-x="699" 
d="M977 1356l-188 -254c-45 25 -79 36 -113 36c-72 0 -107 -37 -126 -128l-216 -1010h-360l228 1065c59 274 197 401 441 401c142 0 263 -46 334 -110z" />
    <glyph glyph-name="uni018F" unicode="&#x18f;" horiz-adv-x="1501" 
d="M483 922l-241 272c138 145 321 232 547 232c414 0 707 -263 707 -662c0 -434 -314 -790 -757 -790c-382 0 -652 251 -652 630c0 76 12 149 27 228h981c-33 149 -149 239 -304 239c-130 0 -230 -60 -308 -149zM755 317c147 0 263 95 317 238h-595
c15 -151 116 -238 278 -238z" />
    <glyph glyph-name="florin" unicode="&#x192;" horiz-adv-x="1400" 
d="M1180 862l-58 -274h-228l-46 -216c-59 -278 -204 -398 -426 -398c-155 0 -247 46 -315 101l187 249c33 -16 61 -28 106 -28c62 0 89 34 107 116l37 176h-216l58 274h217l38 176c58 271 203 388 424 388c155 0 248 -46 315 -101l-187 -249c-32 16 -60 28 -106 28
c-61 0 -88 -34 -106 -116l-27 -126h226z" />
    <glyph glyph-name="uni01B5" unicode="&#x1b5;" horiz-adv-x="1254" 
d="M1371 1400l-66 -308l-244 -229h122l-68 -320h-346l-228 -205h631l-72 -338h-1138l66 308l266 245h-157l68 320h383l204 189h-614l72 338h1121z" />
    <glyph glyph-name="uni01B6" unicode="&#x1b6;" horiz-adv-x="999" 
d="M1027 991l-58 -275l-159 -121h96l-44 -205h-242l-107 -76h397l-66 -314h-887l56 265l170 135h-93l43 205h245l93 72h-374l67 314h863z" />
    <glyph glyph-name="uni01CD" unicode="&#x1cd;" horiz-adv-x="1497" 
d="M1161 1400l226 -1400h-383l-35 267h-506l-146 -267h-417l813 1400h448zM872 1014l-224 -408h277zM594 1839h296l78 -136l135 136h322l-305 -346h-369z" />
    <glyph glyph-name="uni01CE" unicode="&#x1ce;" horiz-adv-x="1177" 
d="M565 1018c102 0 198 -32 262 -100l16 73h356l-210 -991h-342l14 68c-58 -56 -131 -94 -230 -94c-233 0 -401 213 -401 466c0 223 155 578 535 578zM564 306c94 0 170 75 183 181c17 137 -79 200 -159 200c-106 0 -186 -96 -186 -211c0 -127 96 -170 162 -170zM356 1439
h296l78 -136l135 136h322l-305 -346h-369z" />
    <glyph glyph-name="uni01CF" unicode="&#x1cf;" horiz-adv-x="582" 
d="M677 1400l-297 -1400h-388l297 1400h388zM139 1839h296l78 -136l135 136h322l-305 -346h-369z" />
    <glyph glyph-name="uni01D0" unicode="&#x1d0;" horiz-adv-x="526" 
d="M549 991l-211 -991h-360l211 991h360zM49 1439h296l78 -136l135 136h322l-305 -346h-369z" />
    <glyph glyph-name="uni01D1" unicode="&#x1d1;" horiz-adv-x="1569" 
d="M870 1426c405 0 694 -265 694 -665c0 -429 -318 -787 -778 -787c-406 0 -694 265 -694 665c0 429 318 787 778 787zM851 1062c-213 0 -364 -175 -364 -400c0 -200 132 -324 318 -324c212 0 364 175 364 400c0 200 -132 324 -318 324zM561 1839h296l78 -136l135 136h322
l-305 -346h-369z" />
    <glyph glyph-name="uni01D2" unicode="&#x1d2;" horiz-adv-x="1147" 
d="M605 1018c276 0 508 -179 508 -480c0 -307 -240 -564 -571 -564c-276 0 -508 179 -508 480c0 307 240 564 571 564zM585 687c-103 0 -185 -90 -185 -212c0 -99 65 -170 160 -170c103 0 187 90 187 212c0 100 -67 170 -162 170zM321 1436h296l78 -136l135 136h322
l-305 -346h-369z" />
    <glyph glyph-name="uni01D3" unicode="&#x1d3;" horiz-adv-x="1411" 
d="M1516 1400l-184 -868c-72 -342 -281 -558 -658 -558c-363 0 -582 174 -582 473c0 48 6 100 17 153l171 800h388l-175 -818c-6 -27 -9 -52 -9 -74c0 -112 74 -170 198 -170c137 0 239 83 273 244l173 818h388zM555 1839h296l78 -136l135 136h322l-305 -346h-369z" />
    <glyph glyph-name="uni01D4" unicode="&#x1d4;" horiz-adv-x="1118" 
d="M1146 991l-124 -581c-72 -337 -286 -436 -524 -436c-259 0 -438 125 -438 375c0 42 6 86 16 134l108 508h360l-118 -550c-3 -14 -4 -27 -4 -39c0 -64 39 -97 98 -97c88 0 136 69 157 168l109 518h360zM345 1439h296l78 -136l135 136h322l-305 -346h-369z" />
    <glyph glyph-name="uni01D5" unicode="&#x1d5;" horiz-adv-x="1411" 
d="M1516 1400l-184 -868c-72 -342 -281 -558 -658 -558c-363 0 -582 174 -582 473c0 48 6 100 17 153l171 800h388l-175 -818c-6 -27 -9 -52 -9 -74c0 -112 74 -170 198 -170c137 0 239 83 273 244l173 818h388zM555 1905l61 284h740l-61 -284h-740zM673 1870
c115 0 204 -89 204 -204s-89 -204 -204 -204s-204 89 -204 204s89 204 204 204zM1163 1870c115 0 204 -89 204 -204s-89 -204 -204 -204s-204 89 -204 204s89 204 204 204z" />
    <glyph glyph-name="uni01D6" unicode="&#x1d6;" horiz-adv-x="1118" 
d="M1146 991l-124 -581c-72 -337 -286 -436 -524 -436c-259 0 -438 125 -438 375c0 42 6 86 16 134l108 508h360l-118 -550c-3 -14 -4 -27 -4 -39c0 -64 39 -97 98 -97c88 0 136 69 157 168l109 518h360zM462 1470c115 0 204 -89 204 -204s-89 -204 -204 -204
s-204 89 -204 204s89 204 204 204zM952 1470c115 0 204 -89 204 -204s-89 -204 -204 -204s-204 89 -204 204s89 204 204 204zM389 1513l61 284h740l-61 -284h-740z" />
    <glyph glyph-name="uni01D7" unicode="&#x1d7;" horiz-adv-x="1411" 
d="M1516 1400l-184 -868c-72 -342 -281 -558 -658 -558c-363 0 -582 174 -582 473c0 48 6 100 17 153l171 800h388l-175 -818c-6 -27 -9 -52 -9 -74c0 -112 74 -170 198 -170c137 0 239 83 273 244l173 818h388zM1033 1908h-336l256 346h405zM673 1870
c115 0 204 -89 204 -204s-89 -204 -204 -204s-204 89 -204 204s89 204 204 204zM1163 1870c115 0 204 -89 204 -204s-89 -204 -204 -204s-204 89 -204 204s89 204 204 204z" />
    <glyph glyph-name="uni01D8" unicode="&#x1d8;" horiz-adv-x="1118" 
d="M1146 991l-124 -581c-72 -337 -286 -436 -524 -436c-259 0 -438 125 -438 375c0 42 6 86 16 134l108 508h360l-118 -550c-3 -14 -4 -27 -4 -39c0 -64 39 -97 98 -97c88 0 136 69 157 168l109 518h360zM462 1470c115 0 204 -89 204 -204s-89 -204 -204 -204
s-204 89 -204 204s89 204 204 204zM952 1470c115 0 204 -89 204 -204s-89 -204 -204 -204s-204 89 -204 204s89 204 204 204zM867 1516h-336l256 346h405z" />
    <glyph glyph-name="uni01D9" unicode="&#x1d9;" horiz-adv-x="1411" 
d="M1516 1400l-184 -868c-72 -342 -281 -558 -658 -558c-363 0 -582 174 -582 473c0 48 6 100 17 153l171 800h388l-175 -818c-6 -27 -9 -52 -9 -74c0 -112 74 -170 198 -170c137 0 239 83 273 244l173 818h388zM576 2246h296l78 -136l135 136h322l-305 -346h-369zM673 1870
c115 0 204 -89 204 -204s-89 -204 -204 -204s-204 89 -204 204s89 204 204 204zM1163 1870c115 0 204 -89 204 -204s-89 -204 -204 -204s-204 89 -204 204s89 204 204 204z" />
    <glyph glyph-name="uni01DA" unicode="&#x1da;" horiz-adv-x="1118" 
d="M1146 991l-124 -581c-72 -337 -286 -436 -524 -436c-259 0 -438 125 -438 375c0 42 6 86 16 134l108 508h360l-118 -550c-3 -14 -4 -27 -4 -39c0 -64 39 -97 98 -97c88 0 136 69 157 168l109 518h360zM462 1470c115 0 204 -89 204 -204s-89 -204 -204 -204
s-204 89 -204 204s89 204 204 204zM952 1470c115 0 204 -89 204 -204s-89 -204 -204 -204s-204 89 -204 204s89 204 204 204zM410 1854h296l78 -136l135 136h322l-305 -346h-369z" />
    <glyph glyph-name="uni01DB" unicode="&#x1db;" horiz-adv-x="1411" 
d="M1516 1400l-184 -868c-72 -342 -281 -558 -658 -558c-363 0 -582 174 -582 473c0 48 6 100 17 153l171 800h388l-175 -818c-6 -27 -9 -52 -9 -74c0 -112 74 -170 198 -170c137 0 239 83 273 244l173 818h388zM828 1910l-290 346h398l221 -346h-329zM673 1870
c115 0 204 -89 204 -204s-89 -204 -204 -204s-204 89 -204 204s89 204 204 204zM1163 1870c115 0 204 -89 204 -204s-89 -204 -204 -204s-204 89 -204 204s89 204 204 204z" />
    <glyph glyph-name="uni01DC" unicode="&#x1dc;" horiz-adv-x="1118" 
d="M1146 991l-124 -581c-72 -337 -286 -436 -524 -436c-259 0 -438 125 -438 375c0 42 6 86 16 134l108 508h360l-118 -550c-3 -14 -4 -27 -4 -39c0 -64 39 -97 98 -97c88 0 136 69 157 168l109 518h360zM462 1470c115 0 204 -89 204 -204s-89 -204 -204 -204
s-204 89 -204 204s89 204 204 204zM952 1470c115 0 204 -89 204 -204s-89 -204 -204 -204s-204 89 -204 204s89 204 204 204zM662 1518l-290 346h398l221 -346h-329z" />
    <glyph glyph-name="uni01E2" unicode="&#x1e2;" horiz-adv-x="2304" 
d="M2198 338l-72 -338h-1074l51 242h-505l-208 -242l-491 -1l1275 1401h1249l-72 -338h-685l-39 -185h642l-72 -338h-642l-43 -201h686zM889 581h286l94 442zM1375 1524l61 284h740l-61 -284h-740z" />
    <glyph glyph-name="uni01E3" unicode="&#x1e3;" horiz-adv-x="1629" 
d="M1279 345l220 -199c-85 -108 -235 -172 -431 -172c-149 0 -267 49 -347 131c-102 -88 -228 -131 -380 -131c-216 0 -349 110 -349 262c0 216 165 360 444 360h198v5c0 63 -37 110 -153 110c-105 0 -189 -35 -263 -70l-83 283c124 60 245 94 413 94
c126 0 238 -32 310 -117c80 77 187 117 318 117c250 0 435 -170 435 -413c0 -64 -19 -162 -42 -215h-627c11 -80 67 -120 146 -120c60 0 132 13 191 75zM431 237c64 0 140 28 186 71c-5 25 -9 52 -10 80h-129c-80 0 -128 -37 -128 -91c0 -33 26 -60 81 -60zM1154 719
c-82 0 -137 -57 -170 -124h293v4c0 81 -46 120 -123 120zM507 1124l61 284h740l-61 -284h-740z" />
    <glyph glyph-name="Gcaron" unicode="&#x1e6;" horiz-adv-x="1525" 
d="M1399 1201l-296 -238c-57 64 -138 108 -258 108c-204 0 -361 -173 -361 -419c0 -211 131 -335 327 -335c161 0 266 69 309 207h-336l61 278h668c5 -52 3 -104 -4 -162c-55 -458 -374 -666 -712 -666c-410 0 -704 264 -704 662c0 464 334 790 782 790
c149 0 375 -31 524 -225zM533 1839h296l78 -136l135 136h322l-305 -346h-369z" />
    <glyph glyph-name="gcaron" unicode="&#x1e7;" horiz-adv-x="1163" 
d="M1186 991l-206 -961c-59 -274 -274 -450 -566 -450c-171 0 -324 45 -476 141l151 274c109 -72 203 -106 293 -106c141 0 235 61 257 171l6 31c-54 -41 -120 -65 -208 -65c-233 0 -403 174 -403 426c0 223 136 565 525 565c110 0 198 -33 257 -93l14 67h356zM554 349
c102 0 182 84 182 191c0 86 -70 154 -159 154c-101 0 -181 -83 -181 -189c0 -87 69 -156 158 -156zM338 1439h296l78 -136l135 136h322l-305 -346h-369z" />
    <glyph glyph-name="Aringacute" unicode="&#x1fa;" horiz-adv-x="1497" 
d="M317 0h-417l798 1375c-20 39 -31 83 -31 130c0 156 129 283 287 283c159 0 288 -127 288 -283c0 -70 -26 -134 -69 -183l214 -1322h-383l-35 267h-506zM1039 1851h-336l256 346h405zM872 1014l-224 -408h277zM954 1403c54 0 100 44 100 102c0 57 -46 102 -100 102
c-53 0 -99 -45 -99 -102c0 -58 46 -102 99 -102z" />
    <glyph glyph-name="aringacute" unicode="&#x1fb;" horiz-adv-x="1177" 
d="M565 1018c102 0 198 -32 262 -100l16 73h356l-210 -991h-342l14 68c-58 -56 -131 -94 -230 -94c-233 0 -401 213 -401 466c0 223 155 578 535 578zM564 306c94 0 170 75 183 181c17 137 -79 200 -159 200c-106 0 -186 -96 -186 -211c0 -127 96 -170 162 -170zM726 1042
c-158 0 -287 126 -287 283c0 156 129 283 287 283c159 0 288 -127 288 -283c0 -157 -129 -283 -288 -283zM726 1223c54 0 100 44 100 102c0 57 -46 102 -100 102c-53 0 -99 -45 -99 -102c0 -58 46 -102 99 -102zM811 1634h-336l256 346h405z" />
    <glyph glyph-name="AEacute" unicode="&#x1fc;" horiz-adv-x="2304" 
d="M2198 338l-72 -338h-1074l51 242h-505l-208 -242l-491 -1l1275 1401h1249l-72 -338h-685l-39 -185h642l-72 -338h-642l-43 -201h686zM889 581h286l94 442zM1834 1501h-336l256 346h405z" />
    <glyph glyph-name="aeacute" unicode="&#x1fd;" horiz-adv-x="1629" 
d="M1279 345l220 -199c-85 -108 -235 -172 -431 -172c-149 0 -267 49 -347 131c-102 -88 -228 -131 -380 -131c-216 0 -349 110 -349 262c0 216 165 360 444 360h198v5c0 63 -37 110 -153 110c-105 0 -189 -35 -263 -70l-83 283c124 60 245 94 413 94
c126 0 238 -32 310 -117c80 77 187 117 318 117c250 0 435 -170 435 -413c0 -64 -19 -162 -42 -215h-627c11 -80 67 -120 146 -120c60 0 132 13 191 75zM431 237c64 0 140 28 186 71c-5 25 -9 52 -10 80h-129c-80 0 -128 -37 -128 -91c0 -33 26 -60 81 -60zM1154 719
c-82 0 -137 -57 -170 -124h293v4c0 81 -46 120 -123 120zM984 1103h-336l256 346h405z" />
    <glyph glyph-name="Oslashacute" unicode="&#x1fe;" horiz-adv-x="1569" 
d="M870 1426c168 0 316 -46 431 -128l150 134l186 -211l-150 -134c49 -93 77 -203 77 -326c0 -429 -318 -787 -778 -787c-161 0 -303 42 -417 117l-138 -123l-186 211l132 117c-55 97 -85 213 -85 343c0 429 318 787 778 787zM851 1062c-213 0 -364 -175 -364 -400
c0 -29 2 -57 8 -82l505 450c-43 21 -94 32 -149 32zM1169 738c0 21 -2 42 -5 61l-491 -437c40 -16 84 -24 132 -24c212 0 364 175 364 400zM1026 1501h-336l256 346h405z" />
    <glyph glyph-name="oslashacute" unicode="&#x1ff;" horiz-adv-x="1147" 
d="M606 1018c101 0 197 -25 277 -70l121 108l174 -193l-115 -102c33 -64 51 -139 51 -223c0 -307 -240 -564 -571 -564c-104 0 -201 25 -282 72l-123 -110l-174 193l119 106c-31 63 -48 136 -48 219c0 307 240 564 571 564zM588 707c-115 0 -205 -100 -205 -234v-9l263 234
c-18 6 -38 9 -58 9zM559 285c114 0 207 100 207 234v4l-259 -231c16 -5 33 -7 52 -7zM795 1100h-336l256 346h405z" />
    <glyph glyph-name="Scommaaccent" unicode="&#x218;" horiz-adv-x="1339" 
d="M1388 1256l-191 -301c-127 97 -325 127 -415 127c-120 0 -178 -39 -178 -93c0 -76 119 -100 220 -122l46 -10c264 -55 400 -183 400 -378c0 -312 -259 -505 -626 -505c-241 0 -499 69 -651 195l211 300c156 -108 309 -155 471 -155c104 0 177 31 177 103
c0 70 -77 88 -219 116l-51 10c-249 48 -393 179 -393 388c0 290 222 495 588 495c156 0 383 -17 611 -170zM445 -77h336l-193 -430h-289z" />
    <glyph glyph-name="scommaaccent" unicode="&#x219;" horiz-adv-x="982" 
d="M990 905l-135 -261c-123 72 -264 90 -309 90c-69 0 -92 -12 -95 -32c-5 -41 30 -40 132 -63l58 -13c212 -47 285 -163 266 -317c-28 -232 -194 -335 -477 -335c-181 0 -367 54 -464 131l142 260c99 -64 235 -108 340 -108c78 0 97 11 100 38c4 35 -31 46 -121 63l-58 11
c-232 44 -304 167 -282 333c28 213 194 316 454 316c158 0 297 -36 449 -113zM243 -77h336l-193 -430h-289z" />
    <glyph glyph-name="uni021A" unicode="&#x21a;" horiz-adv-x="1205" 
d="M1378 1400l-75 -350h-389l-223 -1050h-388l223 1050h-389l75 350h1166zM313 -77h336l-193 -430h-289z" />
    <glyph glyph-name="uni021B" unicode="&#x21b;" horiz-adv-x="977" 
d="M974 991l-67 -314h-307l-53 -248c-19 -88 15 -124 87 -124c55 0 111 27 160 54l103 -287c-114 -72 -236 -98 -355 -98c-317 0 -412 189 -358 442l55 261h-175l67 314h175l61 284h360l-61 -284h308zM306 -77h336l-193 -430h-289z" />
    <glyph glyph-name="uni0232" unicode="&#x232;" horiz-adv-x="1408" 
d="M1599 1400l-688 -870l-113 -530h-388l119 560l-335 840h403l174 -515l384 515h444zM532 1524l61 284h740l-61 -284h-740z" />
    <glyph glyph-name="uni0233" unicode="&#x233;" horiz-adv-x="1193" 
d="M1294 991l-916 -1391h-407l458 668l-318 723h396l147 -374l232 374h408zM362 1124l61 284h740l-61 -284h-740z" />
    <glyph glyph-name="uni0237" unicode="&#x237;" horiz-adv-x="525" 
d="M548 991l-229 -1077c-50 -233 -190 -340 -385 -340c-67 0 -138 12 -193 38l91 307c16 -9 32 -14 51 -14c37 0 78 17 94 93l211 993h360z" />
    <glyph glyph-name="uni0259" unicode="&#x259;" horiz-adv-x="1059" 
d="M350 646l-220 199c85 108 235 172 431 172c294 0 473 -181 473 -434c0 -240 -158 -610 -581 -610c-250 0 -435 170 -435 413c0 64 19 162 42 215h627c-11 80 -67 120 -146 120c-60 0 -132 -13 -191 -75zM475 272c78 0 131 52 165 114h-288c2 -77 48 -114 123 -114z" />
    <glyph glyph-name="uni02BB" unicode="&#x2bb;" horiz-adv-x="580" 
d="M499 746h-383l308 694h311z" />
    <glyph glyph-name="afii57929" unicode="&#x2bc;" horiz-adv-x="580" 
d="M335 1440h383l-308 -694h-311z" />
    <glyph glyph-name="uni02BE" unicode="&#x2be;" horiz-adv-x="522" 
d="M213 1182l57 266c196 -22 344 -191 344 -391c0 -241 -190 -441 -447 -441c-16 0 -51 3 -73 6l59 276c10 -2 23 -3 32 -3c75 0 147 69 147 152c0 72 -55 131 -119 135z" />
    <glyph glyph-name="uni02BF" unicode="&#x2bf;" horiz-adv-x="522" 
d="M538 886l-57 -266c-196 22 -344 191 -344 391c0 241 190 441 447 441c16 0 51 -3 73 -6l-59 -276c-10 2 -23 3 -32 3c-75 0 -147 -69 -147 -152c0 -72 55 -131 119 -135z" />
    <glyph glyph-name="circumflex" unicode="&#x2c6;" 
d="M1136 1093h-296l-79 135l-134 -135h-322l305 346h369z" />
    <glyph glyph-name="caron" unicode="&#x2c7;" 
d="M369 1439h296l78 -136l135 136h322l-305 -346h-369z" />
    <glyph glyph-name="breve" unicode="&#x2d8;" 
d="M395 1426l259 72c5 -96 43 -146 120 -146c73 0 129 50 172 146l257 -72c-96 -223 -243 -344 -462 -344c-204 0 -343 129 -346 344z" />
    <glyph glyph-name="dotaccent" unicode="&#x2d9;" horiz-adv-x="584" 
d="M459 1485c115 0 204 -89 204 -204s-89 -204 -204 -204s-204 89 -204 204s89 204 204 204z" />
    <glyph glyph-name="ring" unicode="&#x2da;" horiz-adv-x="1000" 
d="M670 1062c-158 0 -287 126 -287 283c0 156 129 283 287 283c159 0 288 -127 288 -283c0 -157 -129 -283 -288 -283zM670 1243c54 0 100 44 100 102c0 57 -46 102 -100 102c-53 0 -99 -45 -99 -102c0 -58 46 -102 99 -102z" />
    <glyph glyph-name="ogonek" unicode="&#x2db;" horiz-adv-x="1098" 
d="M803 -132l163 -179c-80 -68 -178 -109 -297 -109c-181 0 -313 83 -313 217c0 130 95 211 318 285l146 -53c-140 -67 -151 -122 -151 -150c0 -26 22 -42 55 -42c28 0 54 12 79 31z" />
    <glyph glyph-name="tilde" unicode="&#x2dc;" 
d="M516 1097l-183 191c99 127 208 161 313 161c159 0 191 -74 255 -74c42 0 75 31 116 74l184 -191c-99 -127 -208 -161 -313 -161c-159 0 -191 74 -255 74c-42 0 -76 -30 -117 -74z" />
    <glyph glyph-name="hungarumlaut" unicode="&#x2dd;" 
d="M1006 1103h-344l293 346h358zM556 1103h-324l258 346h359z" />
    <glyph glyph-name="gravecomb" unicode="&#x300;" horiz-adv-x="1" 
d="M-604 1100l-290 346h398l221 -346h-329z" />
    <glyph glyph-name="acutecomb" unicode="&#x301;" horiz-adv-x="1" 
d="M-371 1100h-336l256 346h405z" />
    <glyph glyph-name="uni0302" unicode="&#x302;" horiz-adv-x="1" 
d="M-85 1090h-296l-79 135l-134 -135h-322l305 346h369z" />
    <glyph glyph-name="tildecomb" unicode="&#x303;" horiz-adv-x="1" 
d="M-731 1094l-183 191c99 127 208 161 313 161c159 0 191 -74 255 -74c42 0 75 31 116 74l184 -191c-99 -127 -208 -161 -313 -161c-159 0 -191 74 -255 74c-42 0 -76 -30 -117 -74z" />
    <glyph glyph-name="uni0304" unicode="&#x304;" horiz-adv-x="1" 
d="M-848 1121l61 284h740l-61 -284h-740z" />
    <glyph glyph-name="uni0306" unicode="&#x306;" horiz-adv-x="1" 
d="M-835 1423l259 72c5 -96 43 -146 120 -146c73 0 129 50 172 146l257 -72c-96 -223 -243 -344 -462 -344c-204 0 -343 129 -346 344z" />
    <glyph glyph-name="uni0307" unicode="&#x307;" horiz-adv-x="1" 
d="M-447 1482c115 0 204 -89 204 -204s-89 -204 -204 -204s-204 89 -204 204s89 204 204 204z" />
    <glyph glyph-name="uni0308" unicode="&#x308;" horiz-adv-x="1" 
d="M-709 1467c115 0 204 -89 204 -204s-89 -204 -204 -204s-204 89 -204 204s89 204 204 204zM-219 1467c115 0 204 -89 204 -204s-89 -204 -204 -204s-204 89 -204 204s89 204 204 204z" />
    <glyph glyph-name="uni030A" unicode="&#x30a;" horiz-adv-x="1" 
d="M-471 1059c-158 0 -287 126 -287 283c0 156 129 283 287 283c159 0 288 -127 288 -283c0 -157 -129 -283 -288 -283zM-471 1240c54 0 100 44 100 102c0 57 -46 102 -100 102c-53 0 -99 -45 -99 -102c0 -58 46 -102 99 -102z" />
    <glyph glyph-name="uni030B" unicode="&#x30b;" horiz-adv-x="1" 
d="M-116 1100h-344l293 346h358zM-566 1100h-324l258 346h359z" />
    <glyph glyph-name="uni030C" unicode="&#x30c;" horiz-adv-x="1" 
d="M-826 1436h296l78 -136l135 136h322l-305 -346h-369z" />
    <glyph glyph-name="uni0312" unicode="&#x312;" horiz-adv-x="1" 
d="M-314 1100h-336l193 430h289z" />
    <glyph glyph-name="dotbelowcomb" unicode="&#x323;" horiz-adv-x="1" 
d="M-542 -65c115 0 204 -89 204 -204s-89 -204 -204 -204s-204 89 -204 204s89 204 204 204z" />
    <glyph glyph-name="uni0326" unicode="&#x326;" horiz-adv-x="1" 
d="M-726 -77h336l-193 -430h-289z" />
    <glyph glyph-name="uni0327" unicode="&#x327;" horiz-adv-x="1" 
d="M-299 7l-163 -328h-322l181 328h304z" />
    <glyph glyph-name="uni0328" unicode="&#x328;" horiz-adv-x="1" 
d="M-400 -132l163 -179c-80 -68 -178 -109 -297 -109c-181 0 -313 83 -313 217c0 130 95 211 318 285l146 -53c-140 -67 -151 -122 -151 -150c0 -26 22 -42 55 -42c28 0 54 12 79 31z" />
    <glyph glyph-name="uni032E" unicode="&#x32e;" horiz-adv-x="1" 
d="M-961 -134l259 72c5 -96 43 -146 120 -146c73 0 129 50 172 146l257 -72c-96 -223 -243 -344 -462 -344c-204 0 -343 129 -346 344z" />
    <glyph glyph-name="uni0331" unicode="&#x331;" horiz-adv-x="1" 
d="M-997 -398l61 284h740l-61 -284h-740z" />
    <glyph glyph-name="uni0335" unicode="&#x335;" horiz-adv-x="1" 
d="M-169 647l-55 -262h-753l55 262h753z" />
    <glyph glyph-name="uni0336" unicode="&#x336;" horiz-adv-x="1" 
d="M228 651l-57 -270h-1545l57 270h1545z" />
    <glyph glyph-name="uni0394" unicode="&#x394;" horiz-adv-x="1359" 
d="M1096 1400l183 -1102l-64 -298h-1282l64 298l651 1102h448zM901 349l-92 683l-382 -683h474z" />
    <glyph glyph-name="uni03A9" unicode="&#x3a9;" horiz-adv-x="1653" 
d="M1598 330l-70 -330h-674l65 306c184 49 288 234 288 425c0 190 -126 332 -323 332c-229 0 -375 -199 -375 -423c0 -163 80 -285 212 -327l-67 -313h-670l70 330h232c-103 105 -162 245 -162 404c0 402 356 690 775 691c418 0 715 -252 715 -606
c0 -181 -75 -353 -211 -489h195z" />
    <glyph glyph-name="uni03BC" unicode="&#x3bc;" horiz-adv-x="1116" 
d="M226 -400h-339l294 1391h358l-117 -549c-3 -14 -5 -28 -5 -41c0 -55 29 -95 100 -95c68 0 127 31 156 170l108 515h358l-211 -991h-333l21 91c-65 -79 -149 -118 -260 -118c-18 0 -34 1 -50 3z" />
    <glyph glyph-name="pi" unicode="&#x3c0;" horiz-adv-x="1113" 
d="M1140 991l-210 -991h-356l143 677h-239l-143 -677h-356l210 991h951z" />
    <glyph glyph-name="uni1E0C" unicode="&#x1e0c;" horiz-adv-x="1474" 
d="M289 1400h543c406 0 647 -275 647 -575c0 -469 -301 -825 -865 -825h-623zM788 1051h-185l-150 -702h205c264 0 420 166 420 420c0 159 -85 282 -290 282zM608 -65c115 0 204 -89 204 -204s-89 -204 -204 -204s-204 89 -204 204s89 204 204 204z" />
    <glyph glyph-name="uni1E0D" unicode="&#x1e0d;" horiz-adv-x="1179" 
d="M565 1018c103 0 198 -32 263 -101l111 523h358l-306 -1440h-344l14 68c-58 -56 -131 -94 -230 -94c-233 0 -401 213 -401 466c0 223 155 578 535 578zM564 306c94 0 170 75 183 181c17 137 -79 200 -159 200c-106 0 -186 -96 -186 -211c0 -127 96 -170 162 -170zM517 -65
c115 0 204 -89 204 -204s-89 -204 -204 -204s-204 89 -204 204s89 204 204 204z" />
    <glyph glyph-name="uni1E0E" unicode="&#x1e0e;" horiz-adv-x="1474" 
d="M289 1400h543c406 0 647 -275 647 -575c0 -469 -301 -825 -865 -825h-623zM788 1051h-185l-150 -702h205c264 0 420 166 420 420c0 159 -85 282 -290 282zM192 -398l61 284h740l-61 -284h-740z" />
    <glyph glyph-name="uni1E0F" unicode="&#x1e0f;" horiz-adv-x="1179" 
d="M565 1018c103 0 198 -32 263 -101l111 523h358l-306 -1440h-344l14 68c-58 -56 -131 -94 -230 -94c-233 0 -401 213 -401 466c0 223 155 578 535 578zM564 306c94 0 170 75 183 181c17 137 -79 200 -159 200c-106 0 -186 -96 -186 -211c0 -127 96 -170 162 -170z
M100 -398l61 284h740l-61 -284h-740z" />
    <glyph glyph-name="uni1E24" unicode="&#x1e24;" horiz-adv-x="1471" 
d="M677 1400l-110 -518h502l110 518h388l-298 -1400h-388l113 533h-502l-113 -533h-388l298 1400h388zM591 -65c115 0 204 -89 204 -204s-89 -204 -204 -204s-204 89 -204 204s89 204 204 204z" />
    <glyph glyph-name="uni1E25" unicode="&#x1e25;" horiz-adv-x="1120" 
d="M761 1018c197 0 312 -134 312 -324c0 -35 -4 -73 -12 -112l-125 -582h-358l117 549c3 14 5 28 5 41c0 55 -29 95 -98 95c-68 0 -127 -31 -156 -170l-108 -515h-360l306 1440h360l-108 -503c59 54 133 81 225 81zM420 -65c115 0 204 -89 204 -204s-89 -204 -204 -204
s-204 89 -204 204s89 204 204 204z" />
    <glyph glyph-name="uni1E28" unicode="&#x1e28;" horiz-adv-x="1471" 
d="M677 1400l-110 -518h502l110 518h388l-298 -1400h-388l113 533h-502l-113 -533h-30l-155 -321h-352l175 321h-26l298 1400h388z" />
    <glyph glyph-name="uni1E29" unicode="&#x1e29;" horiz-adv-x="1120" 
d="M761 1018c197 0 312 -134 312 -324c0 -35 -4 -73 -12 -112l-125 -582h-358l117 549c3 14 5 28 5 41c0 55 -29 95 -98 95c-68 0 -127 -31 -156 -170l-108 -515h-28l-159 -321h-322l177 321h-28l306 1440h360l-108 -503c59 54 133 81 225 81z" />
    <glyph glyph-name="uni1E2A" unicode="&#x1e2a;" horiz-adv-x="1471" 
d="M677 1400l-110 -518h502l110 518h388l-298 -1400h-388l113 533h-502l-113 -533h-388l298 1400h388zM211 -134l259 72c5 -96 43 -146 120 -146c73 0 129 50 172 146l257 -72c-96 -223 -243 -344 -462 -344c-204 0 -343 129 -346 344z" />
    <glyph glyph-name="uni1E2B" unicode="&#x1e2b;" horiz-adv-x="1120" 
d="M761 1018c197 0 312 -134 312 -324c0 -35 -4 -73 -12 -112l-125 -582h-358l117 549c3 14 5 28 5 41c0 55 -29 95 -98 95c-68 0 -127 -31 -156 -170l-108 -515h-360l306 1440h360l-108 -503c59 54 133 81 225 81zM39 -134l259 72c5 -96 43 -146 120 -146
c73 0 129 50 172 146l257 -72c-96 -223 -243 -344 -462 -344c-204 0 -343 129 -346 344z" />
    <glyph glyph-name="uni1E32" unicode="&#x1e32;" horiz-adv-x="1402" 
d="M677 1400l-112 -526h92l454 526h472l-659 -716l376 -684h-428l-285 536h-94l-114 -536h-388l298 1400h388zM589 -65c115 0 204 -89 204 -204s-89 -204 -204 -204s-204 89 -204 204s89 204 204 204z" />
    <glyph glyph-name="uni1E33" unicode="&#x1e33;" horiz-adv-x="1103" 
d="M644 1440l-161 -758h44l253 309h433l-442 -490l257 -501h-390l-172 369h-50l-78 -369h-360l306 1440h360zM448 -65c115 0 204 -89 204 -204s-89 -204 -204 -204s-204 89 -204 204s89 204 204 204z" />
    <glyph glyph-name="uni1E36" unicode="&#x1e36;" horiz-adv-x="1153" 
d="M677 1400l-224 -1050h650l-75 -350h-1037l298 1400h388zM492 -65c115 0 204 -89 204 -204s-89 -204 -204 -204s-204 89 -204 204s89 204 204 204z" />
    <glyph glyph-name="uni1E37" unicode="&#x1e37;" horiz-adv-x="526" 
d="M644 1440l-306 -1440h-360l306 1440h360zM120 -65c115 0 204 -89 204 -204s-89 -204 -204 -204s-204 89 -204 204s89 204 204 204z" />
    <glyph glyph-name="uni1E38" unicode="&#x1e38;" horiz-adv-x="1153" 
d="M677 1400l-224 -1050h650l-75 -350h-1037l298 1400h388zM492 -65c115 0 204 -89 204 -204s-89 -204 -204 -204s-204 89 -204 204s89 204 204 204zM138 1524l61 284h740l-61 -284h-740z" />
    <glyph glyph-name="uni1E39" unicode="&#x1e39;" horiz-adv-x="526" 
d="M644 1440l-306 -1440h-360l306 1440h360zM113 1533l61 284h740l-61 -284h-740zM120 -65c115 0 204 -89 204 -204s-89 -204 -204 -204s-204 89 -204 204s89 204 204 204z" />
    <glyph glyph-name="uni1E3A" unicode="&#x1e3a;" horiz-adv-x="1153" 
d="M677 1400l-224 -1050h650l-75 -350h-1037l298 1400h388zM76 -398l61 284h740l-61 -284h-740z" />
    <glyph glyph-name="uni1E3B" unicode="&#x1e3b;" horiz-adv-x="526" 
d="M644 1440l-306 -1440h-360l306 1440h360zM-297 -398l61 284h740l-61 -284h-740z" />
    <glyph glyph-name="uni1E40" unicode="&#x1e40;" horiz-adv-x="1788" 
d="M1883 1400l-297 -1400h-386l184 864l-361 -734h-405l-59 726l-182 -856h-386l298 1400h521l84 -853l438 853h551zM1071 1890c120 0 214 -93 214 -214s-94 -214 -214 -214c-121 0 -215 93 -215 214s94 214 215 214z" />
    <glyph glyph-name="uni1E41" unicode="&#x1e41;" horiz-adv-x="1714" 
d="M1327 1018c214 0 340 -134 340 -324c0 -35 -4 -73 -12 -112l-125 -582h-358l117 549c3 14 5 28 5 41c0 55 -28 95 -98 95c-68 0 -122 -31 -152 -170l-112 -515h-358l117 549c13 61 4 136 -91 136c-68 0 -127 -31 -156 -170l-108 -515h-358l211 991h333l-22 -92
c65 80 149 119 260 119c128 0 216 -56 264 -141c73 95 171 141 303 141zM1012 1452c115 0 204 -89 204 -204s-89 -204 -204 -204s-204 89 -204 204s89 204 204 204z" />
    <glyph glyph-name="uni1E42" unicode="&#x1e42;" horiz-adv-x="1788" 
d="M1883 1400l-297 -1400h-386l184 864l-361 -734h-405l-59 726l-182 -856h-386l298 1400h521l84 -853l438 853h551zM764 -65c115 0 204 -89 204 -204s-89 -204 -204 -204s-204 89 -204 204s89 204 204 204z" />
    <glyph glyph-name="uni1E43" unicode="&#x1e43;" horiz-adv-x="1714" 
d="M1327 1018c214 0 340 -134 340 -324c0 -35 -4 -73 -12 -112l-125 -582h-358l117 549c3 14 5 28 5 41c0 55 -28 95 -98 95c-68 0 -122 -31 -152 -170l-112 -515h-358l117 549c13 61 4 136 -91 136c-68 0 -127 -31 -156 -170l-108 -515h-358l211 991h333l-22 -92
c65 80 149 119 260 119c128 0 216 -56 264 -141c73 95 171 141 303 141zM711 -65c115 0 204 -89 204 -204s-89 -204 -204 -204s-204 89 -204 204s89 204 204 204z" />
    <glyph glyph-name="uni1E44" unicode="&#x1e44;" horiz-adv-x="1511" 
d="M1607 1400l-298 -1400h-360l-399 809l-172 -809h-387l298 1400h361l399 -811l171 811h387zM962 1890c120 0 214 -93 214 -214s-94 -214 -214 -214c-121 0 -215 93 -215 214s94 214 215 214z" />
    <glyph glyph-name="uni1E45" unicode="&#x1e45;" horiz-adv-x="1120" 
d="M761 1018c197 0 312 -134 312 -324c0 -35 -4 -73 -12 -112l-125 -582h-358l117 549c3 14 5 28 5 41c0 55 -29 95 -100 95c-68 0 -127 -31 -156 -170l-108 -515h-358l211 991h333l-21 -91c65 79 149 118 260 118zM697 1485c115 0 204 -89 204 -204s-89 -204 -204 -204
s-204 89 -204 204s89 204 204 204z" />
    <glyph glyph-name="uni1E46" unicode="&#x1e46;" horiz-adv-x="1511" 
d="M1607 1400l-298 -1400h-360l-399 809l-172 -809h-387l298 1400h361l399 -811l171 811h387zM645 -65c115 0 204 -89 204 -204s-89 -204 -204 -204s-204 89 -204 204s89 204 204 204z" />
    <glyph glyph-name="uni1E47" unicode="&#x1e47;" horiz-adv-x="1120" 
d="M761 1018c197 0 312 -134 312 -324c0 -35 -4 -73 -12 -112l-125 -582h-358l117 549c3 14 5 28 5 41c0 55 -29 95 -100 95c-68 0 -127 -31 -156 -170l-108 -515h-358l211 991h333l-21 -91c65 79 149 118 260 118zM418 -65c115 0 204 -89 204 -204s-89 -204 -204 -204
s-204 89 -204 204s89 204 204 204z" />
    <glyph glyph-name="uni1E48" unicode="&#x1e48;" horiz-adv-x="1511" 
d="M1607 1400l-298 -1400h-360l-399 809l-172 -809h-387l298 1400h361l399 -811l171 811h387zM229 -398l61 284h740l-61 -284h-740z" />
    <glyph glyph-name="uni1E49" unicode="&#x1e49;" horiz-adv-x="1120" 
d="M761 1018c197 0 312 -134 312 -324c0 -35 -4 -73 -12 -112l-125 -582h-358l117 549c3 14 5 28 5 41c0 55 -29 95 -100 95c-68 0 -127 -31 -156 -170l-108 -515h-358l211 991h333l-21 -91c65 79 149 118 260 118zM1 -398l61 284h740l-61 -284h-740z" />
    <glyph glyph-name="uni1E58" unicode="&#x1e58;" horiz-adv-x="1306" 
d="M289 1400h578c305 0 476 -195 476 -414c0 -211 -109 -421 -443 -476l332 -510h-434l-295 497h-18l-106 -497h-388zM810 1059h-206l-53 -249h216c135 0 191 62 191 140c0 67 -58 109 -148 109zM829 1890c120 0 214 -93 214 -214s-94 -214 -214 -214
c-121 0 -215 93 -215 214s94 214 215 214z" />
    <glyph glyph-name="uni1E59" unicode="&#x1e59;" horiz-adv-x="786" 
d="M442 506l-106 -506h-358l211 991h333l-24 -106c61 92 141 133 249 133c40 0 77 -8 121 -21l-91 -347c-45 16 -101 25 -150 25c-86 0 -161 -53 -185 -169zM572 1485c115 0 204 -89 204 -204s-89 -204 -204 -204s-204 89 -204 204s89 204 204 204z" />
    <glyph glyph-name="uni1E5A" unicode="&#x1e5a;" horiz-adv-x="1306" 
d="M289 1400h578c305 0 476 -195 476 -414c0 -211 -109 -421 -443 -476l332 -510h-434l-295 497h-18l-106 -497h-388zM810 1059h-206l-53 -249h216c135 0 191 62 191 140c0 67 -58 109 -148 109zM559 -65c115 0 204 -89 204 -204s-89 -204 -204 -204s-204 89 -204 204
s89 204 204 204z" />
    <glyph glyph-name="uni1E5B" unicode="&#x1e5b;" horiz-adv-x="786" 
d="M442 506l-106 -506h-358l211 991h333l-24 -106c61 92 141 133 249 133c40 0 77 -8 121 -21l-91 -347c-45 16 -101 25 -150 25c-86 0 -161 -53 -185 -169zM119 -65c115 0 204 -89 204 -204s-89 -204 -204 -204s-204 89 -204 204s89 204 204 204z" />
    <glyph glyph-name="uni1E5C" unicode="&#x1e5c;" horiz-adv-x="1306" 
d="M289 1400h578c305 0 476 -195 476 -414c0 -211 -109 -421 -443 -476l332 -510h-434l-295 497h-18l-106 -497h-388zM810 1059h-206l-53 -249h216c135 0 191 62 191 140c0 67 -58 109 -148 109zM559 -65c115 0 204 -89 204 -204s-89 -204 -204 -204s-204 89 -204 204
s89 204 204 204zM465 1524l61 284h740l-61 -284h-740z" />
    <glyph glyph-name="uni1E5D" unicode="&#x1e5d;" horiz-adv-x="786" 
d="M442 506l-106 -506h-358l211 991h333l-24 -106c61 92 141 133 249 133c40 0 77 -8 121 -21l-91 -347c-45 16 -101 25 -150 25c-86 0 -161 -53 -185 -169zM171 1124l61 284h740l-61 -284h-740zM119 -65c115 0 204 -89 204 -204s-89 -204 -204 -204s-204 89 -204 204
s89 204 204 204z" />
    <glyph glyph-name="uni1E5E" unicode="&#x1e5e;" horiz-adv-x="1306" 
d="M289 1400h578c305 0 476 -195 476 -414c0 -211 -109 -421 -443 -476l332 -510h-434l-295 497h-18l-106 -497h-388zM810 1059h-206l-53 -249h216c135 0 191 62 191 140c0 67 -58 109 -148 109zM143 -398l61 284h740l-61 -284h-740z" />
    <glyph glyph-name="uni1E5F" unicode="&#x1e5f;" horiz-adv-x="786" 
d="M442 506l-106 -506h-358l211 991h333l-24 -106c61 92 141 133 249 133c40 0 77 -8 121 -21l-91 -347c-45 16 -101 25 -150 25c-86 0 -161 -53 -185 -169zM-298 -398l61 284h740l-61 -284h-740z" />
    <glyph glyph-name="uni1E62" unicode="&#x1e62;" horiz-adv-x="1339" 
d="M1388 1256l-191 -301c-127 97 -325 127 -415 127c-120 0 -178 -39 -178 -93c0 -76 119 -100 220 -122l46 -10c264 -55 400 -183 400 -378c0 -312 -259 -505 -626 -505c-241 0 -499 69 -651 195l211 300c156 -108 309 -155 471 -155c104 0 177 31 177 103
c0 70 -77 88 -219 116l-51 10c-249 48 -393 179 -393 388c0 290 222 495 588 495c156 0 383 -17 611 -170zM590 -65c115 0 204 -89 204 -204s-89 -204 -204 -204s-204 89 -204 204s89 204 204 204z" />
    <glyph glyph-name="uni1E63" unicode="&#x1e63;" horiz-adv-x="982" 
d="M990 905l-135 -261c-123 72 -264 90 -309 90c-69 0 -92 -12 -95 -32c-5 -41 30 -40 132 -63l58 -13c212 -47 285 -163 266 -317c-28 -232 -194 -335 -477 -335c-181 0 -367 54 -464 131l142 260c99 -64 235 -108 340 -108c78 0 97 11 100 38c4 35 -31 46 -121 63l-58 11
c-232 44 -304 167 -282 333c28 213 194 316 454 316c158 0 297 -36 449 -113zM389 -65c115 0 204 -89 204 -204s-89 -204 -204 -204s-204 89 -204 204s89 204 204 204z" />
    <glyph glyph-name="uni1E6C" unicode="&#x1e6c;" horiz-adv-x="1205" 
d="M1378 1400l-75 -350h-389l-223 -1050h-388l223 1050h-389l75 350h1166zM458 -65c115 0 204 -89 204 -204s-89 -204 -204 -204s-204 89 -204 204s89 204 204 204z" />
    <glyph glyph-name="uni1E6D" unicode="&#x1e6d;" horiz-adv-x="977" 
d="M974 991l-67 -314h-307l-53 -248c-19 -88 15 -124 87 -124c55 0 111 27 160 54l103 -287c-114 -72 -236 -98 -355 -98c-317 0 -412 189 -358 442l55 261h-175l67 314h175l61 284h360l-61 -284h308zM452 -65c115 0 204 -89 204 -204s-89 -204 -204 -204s-204 89 -204 204
s89 204 204 204z" />
    <glyph glyph-name="uni1E6E" unicode="&#x1e6e;" horiz-adv-x="1205" 
d="M1378 1400l-75 -350h-389l-223 -1050h-388l223 1050h-389l75 350h1166zM42 -398l61 284h740l-61 -284h-740z" />
    <glyph glyph-name="uni1E6F" unicode="&#x1e6f;" horiz-adv-x="977" 
d="M974 991l-67 -314h-307l-53 -248c-19 -88 15 -124 87 -124c55 0 111 27 160 54l103 -287c-114 -72 -236 -98 -355 -98c-317 0 -412 189 -358 442l55 261h-175l67 314h175l61 284h360l-61 -284h308zM35 -398l61 284h740l-61 -284h-740z" />
    <glyph glyph-name="Wgrave" unicode="&#x1e80;" horiz-adv-x="2150" 
d="M2335 1400l-680 -1400h-437l-54 825l-379 -825h-458l-126 1400h381l64 -936l423 936h383l53 -932l423 932h407zM1171 1503l-290 346h398l221 -346h-329z" />
    <glyph glyph-name="wgrave" unicode="&#x1e81;" horiz-adv-x="1830" 
d="M1182 991l66 -577l287 577h386l-545 -991h-369l-67 541l-268 -541h-400l-154 991h359l72 -583l299 583h334zM917 1103l-290 346h398l221 -346h-329z" />
    <glyph glyph-name="Wacute" unicode="&#x1e82;" horiz-adv-x="2150" 
d="M2335 1400l-680 -1400h-437l-54 825l-379 -825h-458l-126 1400h381l64 -936l423 936h383l53 -932l423 932h407zM1376 1501h-336l256 346h405z" />
    <glyph glyph-name="wacute" unicode="&#x1e83;" horiz-adv-x="1830" 
d="M1182 991l66 -577l287 577h386l-545 -991h-369l-67 541l-268 -541h-400l-154 991h359l72 -583l299 583h334zM1150 1103h-336l256 346h405z" />
    <glyph glyph-name="Wdieresis" unicode="&#x1e84;" horiz-adv-x="2150" 
d="M2335 1400l-680 -1400h-437l-54 825l-379 -825h-458l-126 1400h381l64 -936l423 936h383l53 -932l423 932h407zM1036 1870c115 0 204 -89 204 -204s-89 -204 -204 -204s-204 89 -204 204s89 204 204 204zM1526 1870c115 0 204 -89 204 -204s-89 -204 -204 -204
s-204 89 -204 204s89 204 204 204z" />
    <glyph glyph-name="wdieresis" unicode="&#x1e85;" horiz-adv-x="1830" 
d="M1182 991l66 -577l287 577h386l-545 -991h-369l-67 541l-268 -541h-400l-154 991h359l72 -583l299 583h334zM812 1470c115 0 204 -89 204 -204s-89 -204 -204 -204s-204 89 -204 204s89 204 204 204zM1302 1470c115 0 204 -89 204 -204s-89 -204 -204 -204
s-204 89 -204 204s89 204 204 204z" />
    <glyph glyph-name="uni1E88" unicode="&#x1e88;" horiz-adv-x="2150" 
d="M2335 1400l-680 -1400h-437l-54 825l-379 -825h-458l-126 1400h381l64 -936l423 936h383l53 -932l423 932h407zM993 -65c115 0 204 -89 204 -204s-89 -204 -204 -204s-204 89 -204 204s89 204 204 204z" />
    <glyph glyph-name="uni1E89" unicode="&#x1e89;" horiz-adv-x="1830" 
d="M1182 991l66 -577l287 577h386l-545 -991h-369l-67 541l-268 -541h-400l-154 991h359l72 -583l299 583h334zM810 -65c115 0 204 -89 204 -204s-89 -204 -204 -204s-204 89 -204 204s89 204 204 204z" />
    <glyph glyph-name="uni1E92" unicode="&#x1e92;" horiz-adv-x="1254" 
d="M1371 1400l-66 -308l-764 -754h631l-72 -338h-1138l66 308l764 754h-614l72 338h1121zM521 -65c115 0 204 -89 204 -204s-89 -204 -204 -204s-204 89 -204 204s89 204 204 204z" />
    <glyph glyph-name="uni1E93" unicode="&#x1e93;" horiz-adv-x="999" 
d="M1027 991l-58 -275l-456 -402h397l-66 -314h-887l56 265l458 412h-374l67 314h863zM374 -65c115 0 204 -89 204 -204s-89 -204 -204 -204s-204 89 -204 204s89 204 204 204z" />
    <glyph glyph-name="uni1E94" unicode="&#x1e94;" horiz-adv-x="1254" 
d="M1371 1400l-66 -308l-764 -754h631l-72 -338h-1138l66 308l764 754h-614l72 338h1121zM105 -398l61 284h740l-61 -284h-740z" />
    <glyph glyph-name="uni1E95" unicode="&#x1e95;" horiz-adv-x="999" 
d="M1027 991l-58 -275l-456 -402h397l-66 -314h-887l56 265l458 412h-374l67 314h863zM-43 -398l61 284h740l-61 -284h-740z" />
    <glyph glyph-name="uni1E96" unicode="&#x1e96;" horiz-adv-x="1120" 
d="M761 1018c197 0 312 -134 312 -324c0 -35 -4 -73 -12 -112l-125 -582h-358l117 549c3 14 5 28 5 41c0 55 -29 95 -98 95c-68 0 -127 -31 -156 -170l-108 -515h-360l306 1440h360l-108 -503c59 54 133 81 225 81zM3 -398l61 284h740l-61 -284h-740z" />
    <glyph glyph-name="uni1E9E" unicode="&#x1e9e;" horiz-adv-x="1414" 
d="M-19 0l191 898c62 291 228 528 654 528c274 0 499 -155 595 -303l-337 -356c188 -73 282 -212 261 -384c-31 -255 -242 -409 -563 -409c-111 0 -222 12 -299 33l103 324c44 -13 110 -20 176 -20c132 0 184 30 192 92c9 71 -66 117 -261 117h-38l53 257l234 267
c-46 33 -104 43 -148 43c-120 0 -212 -83 -243 -229l-183 -858h-387z" />
    <glyph glyph-name="Ygrave" unicode="&#x1ef2;" horiz-adv-x="1408" 
d="M1599 1400l-688 -870l-113 -530h-388l119 560l-335 840h403l174 -515l384 515h444zM786 1503l-290 346h398l221 -346h-329z" />
    <glyph glyph-name="ygrave" unicode="&#x1ef3;" horiz-adv-x="1193" 
d="M1294 991l-916 -1391h-407l458 668l-318 723h396l147 -374l232 374h408zM606 1103l-290 346h398l221 -346h-329z" />
    <glyph glyph-name="uni1EF4" unicode="&#x1ef4;" horiz-adv-x="1408" 
d="M1599 1400l-688 -870l-113 -530h-388l119 560l-335 840h403l174 -515l384 515h444zM565 -65c115 0 204 -89 204 -204s-89 -204 -204 -204s-204 89 -204 204s89 204 204 204z" />
    <glyph glyph-name="uni1EF5" unicode="&#x1ef5;" horiz-adv-x="1193" 
d="M1294 991l-916 -1391h-407l458 668l-318 723h396l147 -374l232 374h408zM819 -65c115 0 204 -89 204 -204s-89 -204 -204 -204s-204 89 -204 204s89 204 204 204z" />
    <glyph glyph-name="uni2007" unicode="&#x2007;" horiz-adv-x="1384" 
 />
    <glyph glyph-name="uni2008" unicode="&#x2008;" horiz-adv-x="590" 
 />
    <glyph glyph-name="uni2009" unicode="&#x2009;" horiz-adv-x="137" 
 />
    <glyph glyph-name="uni200B" unicode="&#x200b;" horiz-adv-x="0" 
 />
    <glyph glyph-name="uniFEFF" unicode="&#xfeff;" horiz-adv-x="0" 
 />
    <glyph glyph-name="uni2010" unicode="&#x2010;" horiz-adv-x="739" 
d="M711 681l-64 -300h-604l64 300h604z" />
    <glyph glyph-name="uni2011" unicode="&#x2011;" horiz-adv-x="739" 
d="M711 681l-64 -300h-604l64 300h604z" />
    <glyph glyph-name="figuredash" unicode="&#x2012;" 
d="M1126 674l-60 -286h-990l60 286h990z" />
    <glyph glyph-name="endash" unicode="&#x2013;" horiz-adv-x="1107" 
d="M1086 674l-60 -286h-990l60 286h990z" />
    <glyph glyph-name="emdash" unicode="&#x2014;" horiz-adv-x="1545" 
d="M1552 674l-59 -286h-1485l59 286h1485z" />
    <glyph glyph-name="quoteleft" unicode="&#x2018;" horiz-adv-x="580" 
d="M499 746h-383l308 694h311z" />
    <glyph glyph-name="quoteright" unicode="&#x2019;" horiz-adv-x="580" 
d="M335 1440h383l-308 -694h-311z" />
    <glyph glyph-name="quotesinglbase" unicode="&#x201a;" horiz-adv-x="580" 
d="M114 402h383l-308 -694h-311z" />
    <glyph glyph-name="quotedblleft" unicode="&#x201c;" horiz-adv-x="1095" 
d="M499 746h-383l308 694h311zM1014 746h-383l308 694h311z" />
    <glyph glyph-name="quotedblright" unicode="&#x201d;" horiz-adv-x="1095" 
d="M850 1440h383l-308 -694h-311zM335 1440h383l-308 -694h-311z" />
    <glyph glyph-name="quotedblbase" unicode="&#x201e;" horiz-adv-x="1095" 
d="M629 402h383l-308 -694h-311zM114 402h383l-308 -694h-311z" />
    <glyph glyph-name="dagger" unicode="&#x2020;" horiz-adv-x="801" 
d="M544 554h-262l86 407h-221l54 254h221l48 225h262l-48 -225h221l-54 -254h-221z" />
    <glyph glyph-name="daggerdbl" unicode="&#x2021;" horiz-adv-x="802" 
d="M732 1440l-33 -152h222l-50 -234h-221l-29 -134h222l-50 -234h-221l-32 -152h-262l32 152h-221l50 234h220l29 134h-221l50 234h220l33 152h262z" />
    <glyph glyph-name="bullet" unicode="&#x2022;" horiz-adv-x="939" 
d="M481 901c205 0 372 -166 372 -371c0 -206 -167 -372 -372 -372s-371 166 -371 372c0 205 166 371 371 371z" />
    <glyph glyph-name="uni2023" unicode="&#x2023;" horiz-adv-x="911" 
d="M894 531l-883 -455l194 910z" />
    <glyph glyph-name="ellipsis" unicode="&#x2026;" horiz-adv-x="1710" 
d="M238 435c123 0 229 -106 229 -229c0 -125 -106 -232 -229 -232c-125 0 -232 107 -232 232c0 123 107 229 232 229zM798 435c123 0 229 -106 229 -229c0 -125 -106 -232 -229 -232c-125 0 -232 107 -232 232c0 123 107 229 232 229zM1358 435c123 0 229 -106 229 -229
c0 -125 -106 -232 -229 -232c-125 0 -232 107 -232 232c0 123 107 229 232 229z" />
    <glyph glyph-name="perthousand" unicode="&#x2030;" horiz-adv-x="2872" 
d="M568 1426c214 0 370 -147 370 -355c0 -227 -177 -419 -416 -419c-214 0 -370 147 -370 355c0 227 177 419 416 419zM555 1173c-75 0 -134 -67 -134 -146c0 -71 49 -122 114 -122c75 0 134 67 134 146c0 71 -49 122 -114 122zM1844 1400l-1215 -1400h-355l1215 1400h355z
M1597 748c214 0 370 -147 370 -355c0 -227 -177 -419 -416 -419c-214 0 -370 147 -370 355c0 227 177 419 416 419zM1584 495c-75 0 -134 -67 -134 -146c0 -71 49 -122 114 -122c75 0 134 67 134 146c0 71 -49 122 -114 122zM2437 748c214 0 370 -147 370 -355
c0 -227 -177 -419 -416 -419c-214 0 -370 147 -370 355c0 227 177 419 416 419zM2424 495c-75 0 -134 -67 -134 -146c0 -71 49 -122 114 -122c75 0 134 67 134 146c0 71 -49 122 -114 122z" />
    <glyph glyph-name="minute" unicode="&#x2032;" horiz-adv-x="613" 
d="M392 1400h350l-308 -724h-350z" />
    <glyph glyph-name="second" unicode="&#x2033;" horiz-adv-x="1076" 
d="M855 1400h350l-308 -724h-350zM392 1400h350l-308 -724h-350z" />
    <glyph glyph-name="uni2034" unicode="&#x2034;" horiz-adv-x="1497" 
d="M834 1400h350l-308 -724h-350zM1276 1400h350l-308 -724h-350zM392 1400h350l-308 -724h-350z" />
    <glyph glyph-name="guilsinglleft" unicode="&#x2039;" horiz-adv-x="640" 
d="M693 942l-313 -448l103 -374h-315l-113 411l287 411h351z" />
    <glyph glyph-name="guilsinglright" unicode="&#x203a;" horiz-adv-x="640" 
d="M-38 120l313 448l-103 374h315l113 -411l-287 -411h-351z" />
    <glyph glyph-name="fraction" unicode="&#x2044;" horiz-adv-x="502" 
d="M942 1400l-1055 -1400h-314l1055 1400h314z" />
    <glyph glyph-name="uni2070" unicode="&#x2070;" horiz-adv-x="871" 
d="M604 1416c186 0 339 -113 339 -342c0 -236 -155 -530 -450 -530c-186 0 -339 113 -339 342c0 236 155 530 450 530zM588 1184c-116 0 -177 -154 -177 -273c0 -88 36 -135 97 -135c116 0 178 155 178 273c0 87 -36 135 -98 135z" />
    <glyph glyph-name="uni2071" unicode="&#x2071;" horiz-adv-x="431" 
d="M501 1277l-153 -717h-233l152 717h234zM428 1635c78 0 139 -60 139 -138c0 -79 -61 -139 -139 -139s-139 60 -139 139c0 78 61 138 139 138z" />
    <glyph glyph-name="uni2074" unicode="&#x2074;" horiz-adv-x="731" 
d="M759 1129l-46 -217h91l-47 -223h-92l-27 -129h-242l27 129h-359l42 191l330 520h274l-309 -488h70l11 52l104 165h173z" />
    <glyph glyph-name="uni2075" unicode="&#x2075;" horiz-adv-x="708" 
d="M792 1400l-47 -220h-300l-23 -86h34c195 0 322 -121 283 -291c-39 -172 -175 -259 -375 -259c-121 0 -231 43 -292 112l129 167c43 -37 107 -62 175 -62c75 0 108 22 116 58c11 47 -24 74 -112 74h-212l119 507h505z" />
    <glyph glyph-name="uni2076" unicode="&#x2076;" horiz-adv-x="757" 
d="M809 1400l-254 -277c152 -17 252 -101 252 -253c0 -178 -146 -326 -362 -326c-183 0 -334 108 -334 277c0 78 34 178 124 280l264 299h310zM464 931c-57 0 -95 -44 -95 -95c0 -46 31 -79 83 -79c59 0 98 43 98 95c0 43 -33 79 -86 79z" />
    <glyph glyph-name="uni2077" unicode="&#x2077;" horiz-adv-x="686" 
d="M855 1400l-43 -204l-407 -636h-290l402 617h-343l47 223h634z" />
    <glyph glyph-name="uni2078" unicode="&#x2078;" horiz-adv-x="773" 
d="M570 1416c173 0 299 -84 299 -216c0 -96 -64 -177 -175 -221c67 -33 111 -86 111 -158c0 -146 -132 -277 -384 -277c-184 0 -313 85 -313 218c0 98 69 181 189 224c-54 32 -86 81 -86 148c0 155 138 282 359 282zM470 897c-44 0 -92 -28 -92 -84c0 -43 37 -64 75 -64
c43 0 91 27 91 82c0 43 -35 66 -74 66zM544 1214c-44 0 -81 -33 -81 -73c0 -35 27 -60 66 -60c44 0 81 33 81 73c0 35 -27 60 -66 60z" />
    <glyph glyph-name="uni2079" unicode="&#x2079;" horiz-adv-x="756" 
d="M153 560l254 276c-152 18 -251 101 -251 254c0 178 145 326 361 326c183 0 334 -108 334 -277c0 -78 -33 -178 -124 -280l-264 -299h-310zM499 1029c57 0 95 44 95 95c0 46 -32 79 -84 79c-59 0 -97 -43 -97 -95c0 -43 33 -79 86 -79z" />
    <glyph glyph-name="uni207F" unicode="&#x207f;" horiz-adv-x="815" 
d="M634 1297c146 0 233 -98 233 -238c0 -25 -2 -53 -8 -81l-91 -418h-233l85 399c3 13 5 25 5 37c0 47 -25 82 -87 82c-63 0 -118 -33 -140 -141l-78 -377h-233l152 717h220l-14 -61c50 56 114 81 189 81z" />
    <glyph glyph-name="uni2080" unicode="&#x2080;" horiz-adv-x="871" 
d="M396 472c186 0 339 -113 339 -342c0 -236 -155 -530 -450 -530c-186 0 -339 113 -339 342c0 236 155 530 450 530zM380 240c-116 0 -177 -154 -177 -273c0 -88 36 -135 97 -135c116 0 178 155 178 273c0 87 -36 135 -98 135z" />
    <glyph glyph-name="uni2081" unicode="&#x2081;" horiz-adv-x="507" 
d="M428 469l-181 -853h-242l113 535l-176 -50l51 244z" />
    <glyph glyph-name="uni2082" unicode="&#x2082;" horiz-adv-x="745" 
d="M115 158l-116 180c68 66 154 134 321 134c202 0 295 -131 295 -260c0 -112 -35 -190 -211 -312l-88 -61h257l-47 -223h-606l43 197l299 227c77 58 101 96 101 132c0 43 -37 68 -88 68c-71 0 -106 -33 -160 -82z" />
    <glyph glyph-name="uni2083" unicode="&#x2083;" horiz-adv-x="719" 
d="M94 199l-95 171c80 66 175 102 312 102c185 0 299 -113 299 -228c0 -89 -66 -180 -162 -219c67 -35 100 -94 100 -156c0 -144 -121 -269 -357 -269c-143 0 -246 47 -302 130l156 145c35 -42 86 -65 150 -65c78 0 105 29 105 66c0 40 -46 67 -104 67h-91l40 195h97
c81 0 114 30 114 69c0 34 -34 55 -91 55c-61 0 -123 -28 -171 -63z" />
    <glyph glyph-name="uni2084" unicode="&#x2084;" horiz-adv-x="732" 
d="M556 185l-46 -217h91l-47 -223h-92l-27 -129h-242l27 129h-359l42 191l330 520h274l-309 -488h70l11 52l104 165h173z" />
    <glyph glyph-name="uni2085" unicode="&#x2085;" horiz-adv-x="709" 
d="M586 456l-47 -220h-300l-23 -86h34c195 0 322 -121 283 -291c-39 -172 -175 -259 -375 -259c-121 0 -231 43 -292 112l129 167c43 -37 107 -62 175 -62c75 0 108 22 116 58c11 47 -24 74 -112 74h-212l119 507h505z" />
    <glyph glyph-name="uni2086" unicode="&#x2086;" horiz-adv-x="756" 
d="M603 456l-254 -277c152 -17 252 -101 252 -253c0 -178 -146 -326 -362 -326c-183 0 -334 108 -334 277c0 78 34 178 124 280l264 299h310zM258 -13c-57 0 -95 -44 -95 -95c0 -46 31 -79 83 -79c59 0 98 43 98 95c0 43 -33 79 -86 79z" />
    <glyph glyph-name="uni2087" unicode="&#x2087;" horiz-adv-x="687" 
d="M651 456l-43 -204l-407 -636h-290l402 617h-343l47 223h634z" />
    <glyph glyph-name="uni2088" unicode="&#x2088;" horiz-adv-x="773" 
d="M363 472c173 0 299 -84 299 -216c0 -96 -64 -177 -175 -221c67 -33 111 -86 111 -158c0 -146 -132 -277 -384 -277c-184 0 -313 85 -313 218c0 98 69 181 189 224c-54 32 -86 81 -86 148c0 155 138 282 359 282zM263 -47c-44 0 -92 -28 -92 -84c0 -43 37 -64 75 -64
c43 0 91 27 91 82c0 43 -35 66 -74 66zM337 270c-44 0 -81 -33 -81 -73c0 -35 27 -60 66 -60c44 0 81 33 81 73c0 35 -27 60 -66 60z" />
    <glyph glyph-name="uni2089" unicode="&#x2089;" horiz-adv-x="755" 
d="M-43 -384l254 276c-152 18 -251 101 -251 254c0 178 145 326 361 326c183 0 334 -108 334 -277c0 -78 -33 -178 -124 -280l-264 -299h-310zM303 85c57 0 95 44 95 95c0 46 -32 79 -84 79c-59 0 -97 -43 -97 -95c0 -43 33 -79 86 -79z" />
    <glyph glyph-name="Euro" unicode="&#x20ac;" horiz-adv-x="1400" 
d="M1127 384l138 -284c-107 -78 -232 -123 -372 -123c-321 0 -562 173 -628 468h-179l44 208h118c1 31 4 66 8 94h-116l44 208h125c115 297 375 466 691 466c117 0 291 -21 447 -157l-205 -272c-91 89 -195 103 -260 103c-106 0 -203 -52 -271 -140h432l-45 -208h-475
c-5 -27 -8 -66 -8 -94h464l-44 -208h-369c51 -89 138 -142 245 -142c84 0 156 32 216 81z" />
    <glyph glyph-name="uni20BA" unicode="&#x20ba;" horiz-adv-x="1400" 
d="M994 523l275 -206c-126 -206 -285 -317 -610 -317h-491l77 362l-148 -61l48 227l148 61l20 97l-148 -61l49 228l148 61l104 492h375l-69 -322l316 131l-48 -227l-316 -131l-20 -97l315 131l-47 -228l-317 -131l-39 -186h68c118 0 236 30 310 177z" />
    <glyph glyph-name="uni2100" unicode="&#x2100;" horiz-adv-x="2000" 
d="M616 1426c185 0 316 -93 316 -265c0 -27 -3 -54 -9 -84l-83 -388h-221l10 51c-46 -40 -107 -70 -189 -70c-140 0 -228 82 -228 195c0 153 120 256 323 256h161c1 3 1 7 1 11c0 56 -37 91 -124 91c-77 0 -138 -27 -192 -54l-57 187c90 46 176 70 292 70zM525 848
c49 0 99 25 132 55l15 72h-112c-66 0 -105 -29 -105 -73c0 -31 24 -54 70 -54zM1754 1400l-1055 -1400h-314l1055 1400h314zM1881 529l-207 -96c-29 57 -76 77 -126 77c-95 0 -160 -82 -160 -179c0 -82 52 -140 127 -140c49 0 93 22 130 67l169 -137
c-76 -92 -183 -147 -308 -147c-211 0 -358 143 -358 341c0 224 166 411 412 411c154 0 265 -73 321 -197z" />
    <glyph glyph-name="uni2101" unicode="&#x2101;" horiz-adv-x="2000" 
d="M632 1426c185 0 316 -93 316 -265c0 -27 -3 -54 -9 -84l-83 -388h-221l10 51c-46 -40 -107 -70 -189 -70c-140 0 -228 82 -228 195c0 153 120 256 323 256h161c1 3 1 7 1 11c0 56 -37 91 -124 91c-77 0 -138 -27 -192 -54l-57 187c90 46 176 70 292 70zM541 848
c49 0 99 25 132 55l15 72h-112c-66 0 -105 -29 -105 -73c0 -31 24 -54 70 -54zM1752 1400l-1055 -1400h-314l1055 1400h314zM1854 647l-94 -172c-81 48 -182 64 -224 64c-58 0 -83 -14 -86 -37c-5 -38 27 -40 97 -55l45 -9c157 -33 213 -116 200 -227
c-19 -159 -139 -239 -339 -239c-125 0 -258 37 -333 96l99 171c69 -46 162 -78 243 -78c67 0 91 14 94 42c3 30 -24 41 -92 54l-45 8c-167 29 -223 117 -208 235c19 151 138 228 323 228c116 0 218 -27 320 -81z" />
    <glyph glyph-name="afii61248" unicode="&#x2105;" horiz-adv-x="2000" 
d="M930 1227l-207 -96c-29 57 -76 77 -126 77c-95 0 -160 -82 -160 -179c0 -82 52 -140 127 -140c49 0 93 22 130 67l169 -137c-76 -92 -183 -147 -308 -147c-211 0 -358 143 -358 341c0 224 166 411 412 411c154 0 265 -73 321 -197zM1703 1400l-1055 -1400h-314l1055 1400
h314zM1527 728c202 0 364 -134 364 -346c0 -223 -174 -410 -414 -410c-202 0 -364 133 -364 346c0 223 175 410 414 410zM1513 510c-90 0 -160 -77 -160 -178c0 -83 56 -143 137 -143c90 0 162 78 162 179c0 84 -57 142 -139 142z" />
    <glyph glyph-name="uni2106" unicode="&#x2106;" horiz-adv-x="2000" 
d="M934 1227l-207 -96c-29 57 -76 77 -126 77c-95 0 -160 -82 -160 -179c0 -82 52 -140 127 -140c49 0 93 22 130 67l169 -137c-76 -92 -183 -147 -308 -147c-211 0 -358 143 -358 341c0 224 166 411 412 411c154 0 265 -73 321 -197zM1695 1400l-1055 -1400h-314l1055 1400
h314zM1936 718l-89 -420c-51 -240 -207 -316 -382 -316c-180 0 -308 91 -308 268c0 29 3 60 10 93l80 375h234l-86 -400c-2 -12 -3 -24 -3 -35c0 -57 36 -83 90 -83c73 0 121 51 140 139l81 379h233z" />
    <glyph glyph-name="afii61289" unicode="&#x2113;" horiz-adv-x="1021" 
d="M157 367l-77 295c54 16 105 34 154 52v353c0 248 156 399 388 399c203 0 358 -143 358 -353c0 -282 -170 -457 -436 -592v-138c0 -48 41 -82 100 -82c69 0 119 26 172 62l139 -255c-90 -67 -196 -107 -331 -107c-245 0 -390 134 -390 362v30c-26 -9 -51 -18 -77 -26z
M544 1037v-165c84 63 136 134 136 211c0 55 -24 93 -60 93c-47 0 -76 -40 -76 -139z" />
    <glyph glyph-name="afii61352" unicode="&#x2116;" horiz-adv-x="2387" 
d="M2349 573l-57 -267h-742l57 267h742zM2093 1419c216 0 369 -144 369 -348c0 -220 -177 -405 -416 -405c-216 0 -368 143 -368 345c0 221 171 408 415 408zM2079 1184c-88 0 -144 -71 -144 -156c0 -74 52 -127 125 -127c87 0 144 71 144 156c0 74 -52 127 -125 127z
M1607 1400l-298 -1400h-360l-399 809l-172 -809h-387l298 1400h361l399 -811l171 811h387z" />
    <glyph glyph-name="uni2117" unicode="&#x2117;" horiz-adv-x="1785" 
d="M886 -88c-434 0 -783 321 -783 747c0 461 405 849 887 849c434 0 783 -321 783 -747c0 -461 -405 -849 -887 -849zM973 1223c-306 0 -564 -250 -564 -546c0 -281 226 -480 494 -480c306 0 564 250 564 546c0 281 -226 480 -494 480zM732 1091h327
c257 0 338 -178 308 -317c-37 -169 -171 -248 -363 -248h-123l-42 -197h-269zM1040 868h-87l-26 -126h86c49 0 80 18 89 59c7 34 -13 67 -62 67z" />
    <glyph glyph-name="uni2120" unicode="&#x2120;" horiz-adv-x="1670" 
d="M808 1330l-93 -151c-64 46 -164 60 -209 60c-59 0 -87 -13 -87 -34c0 -35 60 -45 110 -54l23 -4c134 -27 202 -90 202 -181c0 -148 -128 -238 -310 -238c-121 0 -250 34 -327 91l104 150c79 -49 156 -72 237 -72c51 0 87 11 87 40c0 30 -39 37 -110 50l-26 4
c-127 19 -199 86 -199 187c0 139 110 232 291 232c78 0 192 -6 307 -80zM1683 740h-231l79 372l-175 -315h-214l-45 320l-80 -377h-226l140 660h303l61 -346l205 346h323z" />
    <glyph glyph-name="trademark" unicode="&#x2122;" horiz-adv-x="1693" 
d="M1706 740h-231l79 372l-175 -315h-214l-45 320l-80 -377h-226l140 660h303l61 -346l205 346h323zM525 740h-228l96 453h-206l44 207h640l-44 -207h-206z" />
    <glyph glyph-name="Omega" unicode="&#x2126;" horiz-adv-x="1653" 
d="M1598 330l-70 -330h-674l65 306c184 49 288 234 288 425c0 190 -126 332 -323 332c-229 0 -375 -199 -375 -423c0 -163 80 -285 212 -327l-67 -313h-670l70 330h232c-103 105 -162 245 -162 404c0 402 356 690 775 691c418 0 715 -252 715 -606
c0 -181 -75 -353 -211 -489h195z" />
    <glyph glyph-name="estimated" unicode="&#x212e;" horiz-adv-x="2000" 
d="M620 630v-260c0 -146 44 -260 180 -314c81 -32 171 -49 265 -49c240 0 450 110 573 296l111 -87c-149 -219 -401 -349 -684 -349c-454 0 -827 334 -827 833s373 833 827 833s827 -334 827 -833c0 -24 -1 -47 -3 -70h-1269zM620 770h897v256c0 145 -43 259 -177 315
c-84 35 -177 52 -275 52c-94 0 -184 -17 -265 -49c-136 -54 -180 -168 -180 -314v-260z" />
    <glyph glyph-name="uni214D" unicode="&#x214d;" horiz-adv-x="2152" 
d="M2027 690l-112 -180c-68 54 -183 70 -227 70c-55 0 -84 -13 -84 -37c0 -42 71 -47 121 -60l19 -5c148 -39 217 -106 217 -208c0 -177 -145 -284 -349 -284c-145 0 -287 41 -368 107l125 178c90 -57 166 -84 262 -84c48 0 79 12 79 44c0 36 -41 43 -115 57l-22 4
c-140 26 -218 101 -218 216c0 166 128 276 328 276c84 0 213 -6 344 -94zM835 1400l106 -770h-227l-10 113h-256l-56 -113h-249l428 770h264zM667 1183l-119 -239h139zM1866 1400l-1055 -1400h-314l1055 1400h314z" />
    <glyph glyph-name="uni2150" unicode="&#x2150;" horiz-adv-x="1768" 
d="M1501 1400l-1055 -1400h-314l1055 1400h314zM1813 840l-43 -204l-407 -636h-290l402 617h-343l47 223h634zM633 1413l-181 -853h-242l113 535l-176 -50l51 244z" />
    <glyph glyph-name="uni2151" unicode="&#x2151;" horiz-adv-x="1817" 
d="M1501 1400l-1055 -1400h-314l1055 1400h314zM1101 0l254 276c-152 18 -251 101 -251 254c0 178 145 326 361 326c183 0 334 -108 334 -277c0 -78 -33 -178 -124 -280l-264 -299h-310zM1447 469c57 0 95 44 95 95c0 46 -32 79 -84 79c-59 0 -97 -43 -97 -95
c0 -43 33 -79 86 -79zM633 1413l-181 -853h-242l113 535l-176 -50l51 244z" />
    <glyph glyph-name="uni2152" unicode="&#x2152;" horiz-adv-x="2431" 
d="M1501 1400l-1055 -1400h-314l1055 1400h314zM1560 853l-181 -853h-242l113 535l-176 -50l51 244zM2036 856c186 0 339 -113 339 -342c0 -236 -155 -530 -450 -530c-186 0 -339 113 -339 342c0 236 155 530 450 530zM2020 624c-116 0 -177 -154 -177 -273
c0 -88 36 -135 97 -135c116 0 178 155 178 273c0 87 -36 135 -98 135zM633 1413l-181 -853h-242l113 535l-176 -50l51 244z" />
    <glyph glyph-name="onethird" unicode="&#x2153;" horiz-adv-x="1787" 
d="M1501 1400l-1055 -1400h-314l1055 1400h314zM1236 583l-95 171c80 66 175 102 312 102c185 0 299 -113 299 -228c0 -89 -66 -180 -162 -219c67 -35 100 -94 100 -156c0 -144 -121 -269 -357 -269c-143 0 -246 47 -302 130l156 145c35 -42 86 -65 150 -65
c78 0 105 29 105 66c0 40 -46 67 -104 67h-91l40 195h97c81 0 114 30 114 69c0 34 -34 55 -91 55c-61 0 -123 -28 -171 -63zM633 1413l-181 -853h-242l113 535l-176 -50l51 244z" />
    <glyph glyph-name="twothirds" unicode="&#x2154;" horiz-adv-x="2053" 
d="M1767 1400l-1055 -1400h-314l1055 1400h314zM1502 583l-95 171c80 66 175 102 312 102c185 0 299 -113 299 -228c0 -89 -66 -180 -162 -219c67 -35 100 -94 100 -156c0 -144 -121 -269 -357 -269c-143 0 -246 47 -302 130l156 145c35 -42 86 -65 150 -65
c78 0 105 29 105 66c0 40 -46 67 -104 67h-91l40 195h97c81 0 114 30 114 69c0 34 -34 55 -91 55c-61 0 -123 -28 -171 -63zM321 1102l-116 180c68 66 154 134 321 134c202 0 295 -131 295 -260c0 -112 -35 -190 -211 -312l-88 -61h257l-47 -223h-606l43 197l299 227
c77 58 101 96 101 132c0 43 -37 68 -88 68c-71 0 -106 -33 -160 -82z" />
    <glyph glyph-name="uni2155" unicode="&#x2155;" horiz-adv-x="1771" 
d="M1501 1400l-1055 -1400h-314l1055 1400h314zM1728 840l-47 -220h-300l-23 -86h34c195 0 322 -121 283 -291c-39 -172 -175 -259 -375 -259c-121 0 -231 43 -292 112l129 167c43 -37 107 -62 175 -62c75 0 108 22 116 58c11 47 -24 74 -112 74h-212l119 507h505zM633 1413
l-181 -853h-242l113 535l-176 -50l51 244z" />
    <glyph glyph-name="uni2156" unicode="&#x2156;" horiz-adv-x="2037" 
d="M1767 1400l-1055 -1400h-314l1055 1400h314zM1994 840l-47 -220h-300l-23 -86h34c195 0 322 -121 283 -291c-39 -172 -175 -259 -375 -259c-121 0 -231 43 -292 112l129 167c43 -37 107 -62 175 -62c75 0 108 22 116 58c11 47 -24 74 -112 74h-212l119 507h505zM321 1102
l-116 180c68 66 154 134 321 134c202 0 295 -131 295 -260c0 -112 -35 -190 -211 -312l-88 -61h257l-47 -223h-606l43 197l299 227c77 58 101 96 101 132c0 43 -37 68 -88 68c-71 0 -106 -33 -160 -82z" />
    <glyph glyph-name="uni2157" unicode="&#x2157;" horiz-adv-x="1964" 
d="M1694 1400l-1055 -1400h-314l1055 1400h314zM1921 840l-47 -220h-300l-23 -86h34c195 0 322 -121 283 -291c-39 -172 -175 -259 -375 -259c-121 0 -231 43 -292 112l129 167c43 -37 107 -62 175 -62c75 0 108 22 116 58c11 47 -24 74 -112 74h-212l119 507h505zM298 1143
l-95 171c80 66 175 102 312 102c185 0 299 -113 299 -228c0 -89 -66 -180 -162 -219c67 -35 100 -94 100 -156c0 -144 -121 -269 -357 -269c-143 0 -246 47 -302 130l156 145c35 -42 86 -65 150 -65c78 0 105 29 105 66c0 40 -46 67 -104 67h-91l40 195h97
c81 0 114 30 114 69c0 34 -34 55 -91 55c-61 0 -123 -28 -171 -63z" />
    <glyph glyph-name="uni2158" unicode="&#x2158;" horiz-adv-x="1973" 
d="M1703 1400l-1055 -1400h-314l1055 1400h314zM1930 840l-47 -220h-300l-23 -86h34c195 0 322 -121 283 -291c-39 -172 -175 -259 -375 -259c-121 0 -231 43 -292 112l129 167c43 -37 107 -62 175 -62c75 0 108 22 116 58c11 47 -24 74 -112 74h-212l119 507h505zM759 1129
l-46 -217h91l-47 -223h-92l-27 -129h-242l27 129h-359l42 191l330 520h274l-309 -488h70l11 52l104 165h173z" />
    <glyph glyph-name="uni2159" unicode="&#x2159;" horiz-adv-x="1708" 
d="M1501 1400l-1055 -1400h-314l1055 1400h314zM1635 840l-254 -277c152 -17 252 -101 252 -253c0 -178 -146 -326 -362 -326c-183 0 -334 108 -334 277c0 78 34 178 124 280l264 299h310zM1290 371c-57 0 -95 -44 -95 -95c0 -46 31 -79 83 -79c59 0 98 43 98 95
c0 43 -33 79 -86 79zM633 1413l-181 -853h-242l113 535l-176 -50l51 244z" />
    <glyph glyph-name="uni215A" unicode="&#x215a;" horiz-adv-x="1877" 
d="M1670 1400l-1055 -1400h-314l1055 1400h314zM1804 840l-254 -277c152 -17 252 -101 252 -253c0 -178 -146 -326 -362 -326c-183 0 -334 108 -334 277c0 78 34 178 124 280l264 299h310zM1459 371c-57 0 -95 -44 -95 -95c0 -46 31 -79 83 -79c59 0 98 43 98 95
c0 43 -33 79 -86 79zM792 1400l-47 -220h-300l-23 -86h34c195 0 322 -121 283 -291c-39 -172 -175 -259 -375 -259c-121 0 -231 43 -292 112l129 167c43 -37 107 -62 175 -62c75 0 108 22 116 58c11 47 -24 74 -112 74h-212l119 507h505z" />
    <glyph glyph-name="oneeighth" unicode="&#x215b;" horiz-adv-x="1794" 
d="M1501 1400l-1055 -1400h-314l1055 1400h314zM1464 856c173 0 299 -84 299 -216c0 -96 -64 -177 -175 -221c67 -33 111 -86 111 -158c0 -146 -132 -277 -384 -277c-184 0 -313 85 -313 218c0 98 69 181 189 224c-54 32 -86 81 -86 148c0 155 138 282 359 282zM1364 337
c-44 0 -92 -28 -92 -84c0 -43 37 -64 75 -64c43 0 91 27 91 82c0 43 -35 66 -74 66zM1438 654c-44 0 -81 -33 -81 -73c0 -35 27 -60 66 -60c44 0 81 33 81 73c0 35 -27 60 -66 60zM633 1413l-181 -853h-242l113 535l-176 -50l51 244z" />
    <glyph glyph-name="threeeighths" unicode="&#x215c;" horiz-adv-x="1987" 
d="M1694 1400l-1055 -1400h-314l1055 1400h314zM1657 856c173 0 299 -84 299 -216c0 -96 -64 -177 -175 -221c67 -33 111 -86 111 -158c0 -146 -132 -277 -384 -277c-184 0 -313 85 -313 218c0 98 69 181 189 224c-54 32 -86 81 -86 148c0 155 138 282 359 282zM1557 337
c-44 0 -92 -28 -92 -84c0 -43 37 -64 75 -64c43 0 91 27 91 82c0 43 -35 66 -74 66zM1631 654c-44 0 -81 -33 -81 -73c0 -35 27 -60 66 -60c44 0 81 33 81 73c0 35 -27 60 -66 60zM298 1143l-95 171c80 66 175 102 312 102c185 0 299 -113 299 -228
c0 -89 -66 -180 -162 -219c67 -35 100 -94 100 -156c0 -144 -121 -269 -357 -269c-143 0 -246 47 -302 130l156 145c35 -42 86 -65 150 -65c78 0 105 29 105 66c0 40 -46 67 -104 67h-91l40 195h97c81 0 114 30 114 69c0 34 -34 55 -91 55c-61 0 -123 -28 -171 -63z" />
    <glyph glyph-name="fiveeighths" unicode="&#x215d;" horiz-adv-x="1963" 
d="M1670 1400l-1055 -1400h-314l1055 1400h314zM1633 856c173 0 299 -84 299 -216c0 -96 -64 -177 -175 -221c67 -33 111 -86 111 -158c0 -146 -132 -277 -384 -277c-184 0 -313 85 -313 218c0 98 69 181 189 224c-54 32 -86 81 -86 148c0 155 138 282 359 282zM1533 337
c-44 0 -92 -28 -92 -84c0 -43 37 -64 75 -64c43 0 91 27 91 82c0 43 -35 66 -74 66zM1607 654c-44 0 -81 -33 -81 -73c0 -35 27 -60 66 -60c44 0 81 33 81 73c0 35 -27 60 -66 60zM792 1400l-47 -220h-300l-23 -86h34c195 0 322 -121 283 -291c-39 -172 -175 -259 -375 -259
c-121 0 -231 43 -292 112l129 167c43 -37 107 -62 175 -62c75 0 108 22 116 58c11 47 -24 74 -112 74h-212l119 507h505z" />
    <glyph glyph-name="seveneighths" unicode="&#x215e;" horiz-adv-x="1861" 
d="M1568 1400l-1055 -1400h-314l1055 1400h314zM1531 856c173 0 299 -84 299 -216c0 -96 -64 -177 -175 -221c67 -33 111 -86 111 -158c0 -146 -132 -277 -384 -277c-184 0 -313 85 -313 218c0 98 69 181 189 224c-54 32 -86 81 -86 148c0 155 138 282 359 282zM1431 337
c-44 0 -92 -28 -92 -84c0 -43 37 -64 75 -64c43 0 91 27 91 82c0 43 -35 66 -74 66zM1505 654c-44 0 -81 -33 -81 -73c0 -35 27 -60 66 -60c44 0 81 33 81 73c0 35 -27 60 -66 60zM855 1400l-43 -204l-407 -636h-290l402 617h-343l47 223h634z" />
    <glyph glyph-name="uni215F" unicode="&#x215f;" horiz-adv-x="1061" 
d="M1501 1400l-1055 -1400h-314l1055 1400h314zM633 1413l-181 -853h-242l113 535l-176 -50l51 244z" />
    <glyph glyph-name="uni2189" unicode="&#x2189;" horiz-adv-x="2099" 
d="M1813 1400l-1055 -1400h-314l1055 1400h314zM1548 583l-95 171c80 66 175 102 312 102c185 0 299 -113 299 -228c0 -89 -66 -180 -162 -219c67 -35 100 -94 100 -156c0 -144 -121 -269 -357 -269c-143 0 -246 47 -302 130l156 145c35 -42 86 -65 150 -65
c78 0 105 29 105 66c0 40 -46 67 -104 67h-91l40 195h97c81 0 114 30 114 69c0 34 -34 55 -91 55c-61 0 -123 -28 -171 -63zM604 1416c186 0 339 -113 339 -342c0 -236 -155 -530 -450 -530c-186 0 -339 113 -339 342c0 236 155 530 450 530zM588 1184
c-116 0 -177 -154 -177 -273c0 -88 36 -135 97 -135c116 0 178 155 178 273c0 87 -36 135 -98 135z" />
    <glyph glyph-name="arrowleft" unicode="&#x2190;" horiz-adv-x="2000" 
d="M1866 505h-880c-97 0 -197 0 -294 9c91 -76 149 -127 251 -226l105 -101l-212 -212l-680 680l680 680l212 -212l-105 -101c-102 -99 -160 -150 -251 -226c97 9 197 9 294 9h880v-300z" />
    <glyph glyph-name="arrowup" unicode="&#x2191;" horiz-adv-x="2000" 
d="M936 -150v880c0 97 0 197 9 294c-76 -91 -127 -149 -226 -251l-101 -105l-212 212l680 680l680 -680l-212 -212l-101 105c-99 102 -150 160 -226 251c9 -97 9 -197 9 -294v-880h-300z" />
    <glyph glyph-name="arrowright" unicode="&#x2192;" horiz-adv-x="2000" 
d="M196 805h880c97 0 197 0 294 -9c-91 76 -149 127 -251 226l-105 101l212 212l680 -680l-680 -680l-212 212l105 101c102 99 160 150 251 226c-97 -9 -197 -9 -294 -9h-880v300z" />
    <glyph glyph-name="arrowdown" unicode="&#x2193;" horiz-adv-x="2000" 
d="M1180 1560v-880c0 -97 0 -197 -9 -294c76 91 127 149 226 251l101 105l212 -212l-680 -680l-680 680l212 212l101 -105c99 -102 150 -160 226 -251c-9 97 -9 197 -9 294v880h300z" />
    <glyph glyph-name="uni2196" unicode="&#x2196;" horiz-adv-x="2000" 
d="M1527 -34l-622 623c-68 69 -139 139 -202 214c11 -118 16 -195 18 -337l3 -146h-300v962h962v-300l-146 3c-142 2 -219 7 -337 17c75 -62 146 -133 214 -201l622 -623z" />
    <glyph glyph-name="uni2197" unicode="&#x2197;" horiz-adv-x="2000" 
d="M319 157l623 622c69 68 139 139 214 202c-118 -11 -195 -16 -337 -18l-146 -3v300h962v-962h-300l3 146c2 142 7 219 17 337c-62 -75 -133 -146 -201 -214l-623 -622z" />
    <glyph glyph-name="uni2198" unicode="&#x2198;" horiz-adv-x="2000" 
d="M562 1366l622 -623c68 -69 139 -139 202 -214c-11 118 -16 195 -18 337l-3 146h300v-962h-962v300l146 -3c142 -2 219 -7 337 -17c-75 62 -146 133 -214 201l-622 623z" />
    <glyph glyph-name="uni2199" unicode="&#x2199;" horiz-adv-x="2000" 
d="M1778 1131l-623 -622c-69 -68 -139 -139 -214 -202c118 11 195 16 337 18l146 3v-300h-962v962h300l-3 -146c-2 -142 -7 -219 -17 -337c62 75 133 146 201 214l623 622z" />
    <glyph glyph-name="partialdiff" unicode="&#x2202;" horiz-adv-x="1145" 
d="M289 1233l227 227c344 -158 596 -483 596 -881c0 -41 -2 -81 -8 -127c-36 -278 -256 -477 -565 -477c-301 0 -514 183 -514 442c0 281 222 499 486 499c88 0 161 -21 219 -60c-76 176 -247 261 -441 377zM579 620c-105 0 -188 -77 -188 -188c0 -91 68 -157 167 -157
c135 0 188 114 188 187c0 91 -66 158 -167 158z" />
    <glyph glyph-name="Delta" unicode="&#x2206;" horiz-adv-x="1359" 
d="M1096 1400l183 -1102l-64 -298h-1282l64 298l651 1102h448zM901 349l-92 683l-382 -683h474z" />
    <glyph glyph-name="product" unicode="&#x220f;" horiz-adv-x="1795" 
d="M1537 1400v-1665h-380v1316h-488v-1316h-380v1665h1248z" />
    <glyph glyph-name="summation" unicode="&#x2211;" horiz-adv-x="1524" 
d="M1305 1400v-350h-524l330 -361v-232l-340 -372h534v-350h-1064v298l486 535l-486 534v298h1064z" />
    <glyph glyph-name="minus" unicode="&#x2212;" 
d="M1110 674l-60 -286h-960l60 286h960z" />
    <glyph glyph-name="uni2219" unicode="&#x2219;" 
d="M599 901c205 0 372 -166 372 -371c0 -206 -167 -372 -372 -372s-371 166 -371 372c0 205 166 371 371 371z" />
    <glyph glyph-name="radical" unicode="&#x221a;" horiz-adv-x="1237" 
d="M1434 1440l-561 -1705h-448l-365 1000h401l190 -576l377 1281h406z" />
    <glyph glyph-name="infinity" unicode="&#x221e;" horiz-adv-x="1778" 
d="M45 531c0 278 205 453 443 453c166 0 282 -105 408 -243c127 138 242 243 409 243c238 0 443 -175 443 -453s-205 -453 -443 -453c-167 0 -282 105 -409 242c-126 -137 -242 -242 -408 -242c-238 0 -443 175 -443 453zM1442 531c0 110 -60 167 -137 167
c-53 0 -101 -45 -213 -167c112 -122 160 -167 213 -167c77 0 137 57 137 167zM351 531c0 -110 60 -167 137 -167c53 0 101 45 213 167c-112 122 -160 167 -213 167c-77 0 -137 -57 -137 -167z" />
    <glyph glyph-name="integral" unicode="&#x222b;" horiz-adv-x="439" 
d="M619 1404l-65 -315c-17 4 -35 6 -56 6c-63 0 -93 -33 -93 -114v-836c0 -295 -165 -436 -395 -436c-67 0 -125 8 -175 22l65 315c17 -4 35 -6 56 -6c63 0 93 33 93 114v836c0 295 165 436 395 436c67 0 125 -8 175 -22z" />
    <glyph glyph-name="congruent" unicode="&#x2245;" 
d="M1074 439l-60 -286h-960l60 286h960zM1174 909l-60 -286h-960l60 286h960zM1132 1421l115 -232c-100 -97 -229 -156 -334 -156c-187 0 -258 110 -366 110c-65 0 -123 -36 -195 -106l-115 232c100 97 229 156 334 156c187 0 258 -110 366 -110c65 0 123 36 195 106z" />
    <glyph glyph-name="approxequal" unicode="&#x2248;" 
d="M1070 953l115 -232c-100 -97 -229 -156 -334 -156c-187 0 -258 110 -366 110c-65 0 -123 -36 -195 -106l-115 232c100 97 229 156 334 156c187 0 258 -110 366 -110c65 0 123 36 195 106zM971 489l115 -232c-100 -97 -229 -156 -334 -156c-187 0 -258 110 -366 110
c-65 0 -123 -36 -195 -106l-115 232c100 97 229 156 334 156c187 0 258 -110 366 -110c65 0 123 36 195 106z" />
    <glyph glyph-name="uni2259" unicode="&#x2259;" 
d="M1068 439l-60 -286h-960l60 286h960zM1168 909l-60 -286h-960l60 286h960zM1113 1043h-296l-79 135l-134 -135h-322l305 346h369z" />
    <glyph glyph-name="notequal" unicode="&#x2260;" 
d="M1068 439l-60 -286h-457l-82 -153h-296l82 153h-207l60 286h299l99 184h-358l60 286h450l83 154h296l-83 -154h214l-60 -286h-306l-99 -184h365z" />
    <glyph glyph-name="lessequal" unicode="&#x2264;" 
d="M1104 966l-514 -165l444 -164l-67 -316l-755 331l68 317l895 331zM135 286h825l-60 -286h-825z" />
    <glyph glyph-name="greaterequal" unicode="&#x2265;" 
d="M1121 969l-68 -317l-895 -331l71 334l514 165l-444 164l67 316zM151 286h825l-61 -286h-825z" />
    <glyph glyph-name="dotmath" unicode="&#x22c5;" 
d="M601 760c123 0 229 -106 229 -229c0 -125 -106 -232 -229 -232c-125 0 -232 107 -232 232c0 123 107 229 232 229z" />
    <glyph glyph-name="uni2300" unicode="&#x2205;" horiz-adv-x="1243" 
d="M976 1071l202 -202l-102 -102c41 -73 64 -157 64 -247c0 -284 -229 -513 -513 -513c-90 0 -175 22 -248 63l-101 -101l-202 202l100 100c-40 74 -63 159 -63 249c0 284 229 514 514 514c90 0 174 -24 248 -64zM399 520c0 -20 2 -39 7 -57l278 278c-18 4 -38 7 -57 7
c-127 0 -228 -102 -228 -228zM627 293c126 0 227 101 227 227c0 18 -2 36 -6 53l-275 -274c17 -4 35 -6 54 -6z" />
    <glyph glyph-name="uni2300" unicode="&#x2300;" horiz-adv-x="1243" 
d="M976 1071l202 -202l-102 -102c41 -73 64 -157 64 -247c0 -284 -229 -513 -513 -513c-90 0 -175 22 -248 63l-101 -101l-202 202l100 100c-40 74 -63 159 -63 249c0 284 229 514 514 514c90 0 174 -24 248 -64zM399 520c0 -20 2 -39 7 -57l278 278c-18 4 -38 7 -57 7
c-127 0 -228 -102 -228 -228zM627 293c126 0 227 101 227 227c0 18 -2 36 -6 53l-275 -274c17 -4 35 -6 54 -6z" />
    <glyph glyph-name="uni2460" unicode="&#x2460;" horiz-adv-x="2050" 
d="M1077 1624c527 0 951 -414 951 -922c0 -510 -424 -926 -951 -926s-952 416 -952 926c0 508 425 922 952 922zM1077 1311c-343 0 -621 -272 -621 -609c0 -339 278 -612 621 -612s621 273 621 612c0 337 -278 609 -621 609zM1226 1138v-853h-242v527l-173 -57v233z" />
    <glyph glyph-name="uni2461" unicode="&#x2461;" horiz-adv-x="2050" 
d="M1077 1624c527 0 951 -414 951 -922c0 -510 -424 -926 -951 -926s-952 416 -952 926c0 508 425 922 952 922zM1077 1311c-343 0 -621 -272 -621 -609c0 -339 278 -612 621 -612s621 273 621 612c0 337 -278 609 -621 609zM870 818l-134 169c61 71 168 154 338 154
c182 0 306 -105 306 -273c0 -96 -28 -169 -148 -271l-105 -89h269v-223h-609v190l287 257c37 33 55 67 55 101c0 47 -41 76 -88 76c-69 0 -122 -44 -171 -91z" />
    <glyph glyph-name="uni2462" unicode="&#x2462;" horiz-adv-x="2050" 
d="M1077 1624c527 0 951 -414 951 -922c0 -510 -424 -926 -951 -926s-952 416 -952 926c0 508 425 922 952 922zM1077 1311c-343 0 -621 -272 -621 -609c0 -339 278 -612 621 -612s621 273 621 612c0 337 -278 609 -621 609zM1067 1141c193 0 332 -97 332 -245
c0 -86 -42 -150 -118 -188c86 -36 135 -102 135 -187c0 -171 -168 -252 -346 -252c-132 0 -240 45 -310 125l130 155c48 -46 102 -70 166 -70c59 0 108 21 108 65c0 45 -56 68 -123 68h-92v195h95c61 0 107 25 107 66c0 39 -35 58 -93 58c-79 0 -135 -33 -175 -73l-123 159
c74 72 165 124 307 124z" />
    <glyph glyph-name="uni2463" unicode="&#x2463;" horiz-adv-x="2050" 
d="M1077 1624c527 0 951 -414 951 -922c0 -510 -424 -926 -951 -926s-952 416 -952 926c0 508 425 922 952 922zM1077 1311c-343 0 -621 -272 -621 -609c0 -339 278 -612 621 -612s621 273 621 612c0 337 -278 609 -621 609zM1322 854v-227h91v-213h-91v-129h-242v129h-373
v163l251 548h263l-230 -498h89v75l70 152h172z" />
    <glyph glyph-name="uni2464" unicode="&#x2464;" horiz-adv-x="2050" 
d="M1077 1624c527 0 951 -414 951 -922c0 -510 -424 -926 -951 -926s-952 416 -952 926c0 508 425 922 952 922zM1077 1311c-343 0 -621 -272 -621 -609c0 -339 278 -612 621 -612s621 273 621 612c0 337 -278 609 -621 609zM1359 1125v-220h-319l-2 -86h54
c203 0 323 -92 323 -248c0 -178 -137 -302 -341 -302c-136 0 -250 50 -316 104l105 186c36 -26 123 -73 210 -73c60 0 92 23 92 67c0 43 -42 65 -123 65h-218l13 507h522z" />
    <glyph glyph-name="uni2465" unicode="&#x2465;" horiz-adv-x="2050" 
d="M1077 1624c527 0 951 -414 951 -922c0 -510 -424 -926 -951 -926s-952 416 -952 926c0 508 425 922 952 922zM1077 1311c-343 0 -621 -272 -621 -609c0 -339 278 -612 621 -612s621 273 621 612c0 337 -278 609 -621 609zM1323 1125l-200 -273c203 -7 300 -132 300 -280
c0 -176 -151 -303 -348 -303s-347 123 -347 294c0 83 34 167 91 251l214 311h290zM1075 656c-54 0 -91 -38 -91 -87c0 -50 37 -87 91 -87s93 37 93 87c0 49 -39 87 -93 87z" />
    <glyph glyph-name="uni2466" unicode="&#x2466;" horiz-adv-x="2050" 
d="M1077 1624c527 0 951 -414 951 -922c0 -510 -424 -926 -951 -926s-952 416 -952 926c0 508 425 922 952 922zM1077 1311c-343 0 -621 -272 -621 -609c0 -339 278 -612 621 -612s621 273 621 612c0 337 -278 609 -621 609zM1419 1125v-190l-314 -650h-291l317 617h-351
v223h639z" />
    <glyph glyph-name="uni2467" unicode="&#x2467;" horiz-adv-x="2050" 
d="M1077 1624c527 0 951 -414 951 -922c0 -510 -424 -926 -951 -926s-952 416 -952 926c0 508 425 922 952 922zM1077 1311c-343 0 -621 -272 -621 -609c0 -339 278 -612 621 -612s621 273 621 612c0 337 -278 609 -621 609zM1077 1141c183 0 332 -92 332 -245
c0 -94 -55 -153 -127 -187c84 -32 149 -92 149 -195c0 -153 -159 -245 -354 -245c-193 0 -353 92 -353 245c0 103 65 163 148 195c-72 34 -126 93 -126 187c0 153 149 245 331 245zM1077 622c-52 0 -86 -30 -86 -76s34 -76 86 -76c53 0 88 30 88 76s-35 76 -88 76zM1077 939
c-44 0 -74 -26 -74 -66s30 -67 74 -67c45 0 75 27 75 67s-30 66 -75 66z" />
    <glyph glyph-name="uni2468" unicode="&#x2468;" horiz-adv-x="2050" 
d="M1077 1624c527 0 951 -414 951 -922c0 -510 -424 -926 -951 -926s-952 416 -952 926c0 508 425 922 952 922zM1077 1311c-343 0 -621 -272 -621 -609c0 -339 278 -612 621 -612s621 273 621 612c0 337 -278 609 -621 609zM843 285l199 273c-202 7 -299 131 -299 280
c0 176 150 303 347 303s348 -123 348 -294c0 -83 -34 -168 -91 -251l-214 -311h-290zM1090 754c55 0 92 38 92 87c0 50 -37 87 -92 87c-54 0 -92 -37 -92 -87c0 -49 38 -87 92 -87z" />
    <glyph glyph-name="uni24EA" unicode="&#x24ea;" horiz-adv-x="2050" 
d="M1077 1624c527 0 951 -414 951 -922c0 -510 -424 -926 -951 -926s-952 416 -952 926c0 508 425 922 952 922zM1077 1311c-343 0 -621 -272 -621 -609c0 -339 278 -612 621 -612s621 273 621 612c0 337 -278 609 -621 609zM1076 1141c218 0 388 -163 388 -436
s-170 -436 -388 -436c-217 0 -387 163 -387 436s170 436 387 436zM1076 909c-78 0 -135 -70 -135 -204s57 -204 135 -204s136 70 136 204s-58 204 -136 204z" />
    <glyph glyph-name="uni24FF" unicode="&#x24ff;" horiz-adv-x="2050" 
d="M1074 1141c-217 0 -387 -163 -387 -436s170 -436 387 -436c218 0 388 163 388 436s-170 436 -388 436zM1074 909c78 0 136 -70 136 -204s-58 -204 -136 -204s-135 70 -135 204s57 204 135 204zM1075 1597c512 0 923 -402 923 -895c0 -495 -411 -899 -923 -899
s-924 404 -924 899c0 493 412 895 924 895z" />
    <glyph glyph-name="filledbox" unicode="&#x25a0;" horiz-adv-x="1800" 
d="M237 1400h1400v-1400h-1400v1400z" />
    <glyph glyph-name="H22073" unicode="&#x25a1;" horiz-adv-x="1800" 
d="M237 1400h1400v-1400h-1400v1400zM557 1080v-760h760v760h-760z" />
    <glyph glyph-name="uni25AE" unicode="&#x258c;" horiz-adv-x="1800" 
d="M237 1400h700v-1400h-700v1400z" />
    <glyph glyph-name="uni25AE" unicode="&#x25ae;" horiz-adv-x="1800" 
d="M237 1400h700v-1400h-700v1400z" />
    <glyph glyph-name="triagup" unicode="&#x25b2;" horiz-adv-x="1800" 
d="M900 1420l820 -1420h-1640z" />
    <glyph glyph-name="uni25B3" unicode="&#x25b3;" horiz-adv-x="1800" 
d="M900 1420l820 -1420h-1640zM900 780l-266 -460h532z" />
    <glyph glyph-name="uni25B4" unicode="&#x25b4;" 
d="M571 1089l501 -866h-1003z" />
    <glyph glyph-name="uni25B8" unicode="&#x25b8;" 
d="M1136 655l-867 -502v1004z" />
    <glyph glyph-name="triagdn" unicode="&#x25bc;" horiz-adv-x="1800" 
d="M980 -20l-820 1420h1640z" />
    <glyph glyph-name="uni25BD" unicode="&#x25bd;" horiz-adv-x="1800" 
d="M980 -20l-820 1420h1640zM980 620l266 460h-532z" />
    <glyph glyph-name="uni25BE" unicode="&#x25be;" 
d="M697 222l-501 866h1003z" />
    <glyph glyph-name="uni25C2" unicode="&#x25c2;" 
d="M132 655l867 502v-1004z" />
    <glyph glyph-name="uni25C6" unicode="&#x25c6;" horiz-adv-x="1800" 
d="M947 1438l738 -738l-738 -738l-738 738z" />
    <glyph glyph-name="uni25C7" unicode="&#x25c7;" horiz-adv-x="1800" 
d="M947 1438l738 -738l-738 -738l-738 738zM947 985l-285 -285l285 -285l285 285z" />
    <glyph glyph-name="lozenge" unicode="&#x25ca;" horiz-adv-x="1514" 
d="M1509 700l-558 -700h-302l-557 700l558 700h302zM1075 696l-279 349l-268 -342l279 -350z" />
    <glyph glyph-name="circle" unicode="&#x25cb;" horiz-adv-x="1800" 
d="M950 -39c-409 0 -739 331 -739 739s330 739 739 739c408 0 739 -331 739 -739s-331 -739 -739 -739zM950 281c231 0 419 188 419 419s-188 419 -419 419c-232 0 -419 -187 -419 -419s187 -419 419 -419z" />
    <glyph glyph-name="H18533" unicode="&#x25cf;" horiz-adv-x="1800" 
d="M950 -39c-409 0 -739 331 -739 739s330 739 739 739c408 0 739 -331 739 -739s-331 -739 -739 -739z" />
    <glyph glyph-name="uni25D0" unicode="&#x25d0;" horiz-adv-x="1800" 
d="M950 -39c-409 0 -739 331 -739 739s330 739 739 739c408 0 739 -331 739 -739s-331 -739 -739 -739zM950 1119v-838c231 0 419 188 419 419s-188 419 -419 419z" />
    <glyph glyph-name="uni25D6" unicode="&#x25d6;" horiz-adv-x="1800" 
d="M950 1439v-1478c-409 0 -739 331 -739 739s330 739 739 739z" />
    <glyph glyph-name="uni25E7" unicode="&#x25e7;" horiz-adv-x="1800" 
d="M237 1400h1400v-1400h-1400v1400zM937 1080v-760h380v760h-380z" />
    <glyph glyph-name="uni2610" unicode="&#x2610;" horiz-adv-x="2200" 
d="M296 1547h1694v-1694h-1694v1694zM556 1287v-1174h1174v1174h-1174z" />
    <glyph glyph-name="uni2611" unicode="&#x2611;" horiz-adv-x="2200" 
d="M296 1547h1694v-1694h-1694v1694zM556 1287v-1174h1174v1174h-1174zM1466 1218l196 -138l-624 -891l-413 398l166 172l211 -202z" />
    <glyph glyph-name="uni2612" unicode="&#x2612;" horiz-adv-x="2200" 
d="M1990 1547v-1694h-1694v1694h1694zM1730 1287h-1174v-1174h1174v1174zM676 403l297 297l-297 297l170 170l297 -297l297 297l170 -170l-297 -297l297 -297l-170 -170l-297 297l-297 -297z" />
    <glyph glyph-name="heart" unicode="&#x2665;" horiz-adv-x="1800" 
d="M1330 1292c195 0 338 -150 338 -346c0 -289 -311 -625 -670 -877c-359 252 -670 588 -670 877c0 196 143 346 338 346c175 0 332 -121 332 -262c0 141 157 262 332 262z" />
    <glyph glyph-name="uni2713" unicode="&#x2713;" horiz-adv-x="2200" 
d="M1619 1342l241 -179l-810 -1091l-521 567l221 203l276 -300z" />
    <glyph glyph-name="uni2715" unicode="&#x2573;" horiz-adv-x="2232" 
d="M2117 -215l-268 -221l-705 895l-1134 -935l-205 261l1109 915l-721 915l268 221l705 -895l1134 935l205 -261l-1109 -915z" />
    <glyph glyph-name="uni2715" unicode="&#x2715;" horiz-adv-x="2232" 
d="M2117 -215l-268 -221l-705 895l-1134 -935l-205 261l1109 915l-721 915l268 221l705 -895l1134 935l205 -261l-1109 -915z" />
    <glyph glyph-name="uni2717" unicode="&#x2717;" horiz-adv-x="2200" 
d="M1352 700l378 -378l-212 -212l-378 378l-378 -378l-212 212l378 378l-378 378l212 212l378 -378l378 378l212 -212z" />
    <glyph glyph-name="uni278A" unicode="&#x2776;" horiz-adv-x="2050" 
d="M1224 1138l-415 -150v-233l173 57v-527h242v853zM1075 1597c512 0 923 -402 923 -895c0 -495 -411 -899 -923 -899s-924 404 -924 899c0 493 412 895 924 895z" />
    <glyph glyph-name="uni278A" unicode="&#x278a;" horiz-adv-x="2050" 
d="M1224 1138l-415 -150v-233l173 57v-527h242v853zM1075 1597c512 0 923 -402 923 -895c0 -495 -411 -899 -923 -899s-924 404 -924 899c0 493 412 895 924 895z" />
    <glyph glyph-name="uni278B" unicode="&#x2777;" horiz-adv-x="2050" 
d="M734 987l134 -169c49 47 102 91 171 91c47 0 88 -29 88 -76c0 -34 -18 -68 -55 -101l-287 -257v-190h609v223h-269l105 89c120 102 148 175 148 271c0 168 -124 273 -306 273c-170 0 -277 -83 -338 -154zM1075 1597c512 0 923 -402 923 -895c0 -495 -411 -899 -923 -899
s-924 404 -924 899c0 493 412 895 924 895z" />
    <glyph glyph-name="uni278B" unicode="&#x278b;" horiz-adv-x="2050" 
d="M734 987l134 -169c49 47 102 91 171 91c47 0 88 -29 88 -76c0 -34 -18 -68 -55 -101l-287 -257v-190h609v223h-269l105 89c120 102 148 175 148 271c0 168 -124 273 -306 273c-170 0 -277 -83 -338 -154zM1075 1597c512 0 923 -402 923 -895c0 -495 -411 -899 -923 -899
s-924 404 -924 899c0 493 412 895 924 895z" />
    <glyph glyph-name="uni278C" unicode="&#x2778;" horiz-adv-x="2050" 
d="M1075 1597c512 0 923 -402 923 -895c0 -495 -411 -899 -923 -899s-924 404 -924 899c0 493 412 895 924 895zM1065 1141c-142 0 -233 -52 -307 -124l123 -159c40 40 96 73 175 73c58 0 93 -19 93 -58c0 -41 -46 -66 -107 -66h-95v-195h92c67 0 123 -23 123 -68
c0 -44 -49 -65 -108 -65c-64 0 -118 24 -166 70l-130 -155c70 -80 178 -125 310 -125c178 0 346 81 346 252c0 85 -49 151 -135 187c76 38 118 102 118 188c0 148 -139 245 -332 245z" />
    <glyph glyph-name="uni278C" unicode="&#x278c;" horiz-adv-x="2050" 
d="M1075 1597c512 0 923 -402 923 -895c0 -495 -411 -899 -923 -899s-924 404 -924 899c0 493 412 895 924 895zM1065 1141c-142 0 -233 -52 -307 -124l123 -159c40 40 96 73 175 73c58 0 93 -19 93 -58c0 -41 -46 -66 -107 -66h-95v-195h92c67 0 123 -23 123 -68
c0 -44 -49 -65 -108 -65c-64 0 -118 24 -166 70l-130 -155c70 -80 178 -125 310 -125c178 0 346 81 346 252c0 85 -49 151 -135 187c76 38 118 102 118 188c0 148 -139 245 -332 245z" />
    <glyph glyph-name="uni278D" unicode="&#x2779;" horiz-adv-x="2050" 
d="M1075 1597c512 0 923 -402 923 -895c0 -495 -411 -899 -923 -899s-924 404 -924 899c0 493 412 895 924 895zM1320 854h-172l-70 -152v-75h-89l230 498h-263l-251 -548v-163h373v-129h242v129h91v213h-91v227z" />
    <glyph glyph-name="uni278D" unicode="&#x278d;" horiz-adv-x="2050" 
d="M1075 1597c512 0 923 -402 923 -895c0 -495 -411 -899 -923 -899s-924 404 -924 899c0 493 412 895 924 895zM1320 854h-172l-70 -152v-75h-89l230 498h-263l-251 -548v-163h373v-129h242v129h91v213h-91v227z" />
    <glyph glyph-name="uni278E" unicode="&#x277a;" horiz-adv-x="2050" 
d="M1357 1125h-522l-13 -507h218c81 0 123 -22 123 -65c0 -44 -32 -67 -92 -67c-87 0 -174 47 -210 73l-105 -186c66 -54 180 -104 316 -104c204 0 341 124 341 302c0 156 -120 248 -323 248h-54l2 86h319v220zM1075 1597c512 0 923 -402 923 -895
c0 -495 -411 -899 -923 -899s-924 404 -924 899c0 493 412 895 924 895z" />
    <glyph glyph-name="uni278E" unicode="&#x278e;" horiz-adv-x="2050" 
d="M1357 1125h-522l-13 -507h218c81 0 123 -22 123 -65c0 -44 -32 -67 -92 -67c-87 0 -174 47 -210 73l-105 -186c66 -54 180 -104 316 -104c204 0 341 124 341 302c0 156 -120 248 -323 248h-54l2 86h319v220zM1075 1597c512 0 923 -402 923 -895
c0 -495 -411 -899 -923 -899s-924 404 -924 899c0 493 412 895 924 895z" />
    <glyph glyph-name="uni278F" unicode="&#x277b;" horiz-adv-x="2050" 
d="M1075 1597c512 0 923 -402 923 -895c0 -495 -411 -899 -923 -899s-924 404 -924 899c0 493 412 895 924 895zM1321 1125h-290l-214 -311c-57 -84 -91 -168 -91 -251c0 -171 150 -294 347 -294s348 127 348 303c0 148 -97 273 -300 280zM1073 656c54 0 93 -38 93 -87
c0 -50 -39 -87 -93 -87s-91 37 -91 87c0 49 37 87 91 87z" />
    <glyph glyph-name="uni278F" unicode="&#x278f;" horiz-adv-x="2050" 
d="M1075 1597c512 0 923 -402 923 -895c0 -495 -411 -899 -923 -899s-924 404 -924 899c0 493 412 895 924 895zM1321 1125h-290l-214 -311c-57 -84 -91 -168 -91 -251c0 -171 150 -294 347 -294s348 127 348 303c0 148 -97 273 -300 280zM1073 656c54 0 93 -38 93 -87
c0 -50 -39 -87 -93 -87s-91 37 -91 87c0 49 37 87 91 87z" />
    <glyph glyph-name="uni2790" unicode="&#x277c;" horiz-adv-x="2050" 
d="M1417 1125h-639v-223h351l-317 -617h291l314 650v190zM1075 1597c512 0 923 -402 923 -895c0 -495 -411 -899 -923 -899s-924 404 -924 899c0 493 412 895 924 895z" />
    <glyph glyph-name="uni2790" unicode="&#x2790;" horiz-adv-x="2050" 
d="M1417 1125h-639v-223h351l-317 -617h291l314 650v190zM1075 1597c512 0 923 -402 923 -895c0 -495 -411 -899 -923 -899s-924 404 -924 899c0 493 412 895 924 895z" />
    <glyph glyph-name="uni2791" unicode="&#x277d;" horiz-adv-x="2050" 
d="M1075 1597c512 0 923 -402 923 -895c0 -495 -411 -899 -923 -899s-924 404 -924 899c0 493 412 895 924 895zM1075 1141c-182 0 -331 -92 -331 -245c0 -94 54 -153 126 -187c-83 -32 -148 -92 -148 -195c0 -153 160 -245 353 -245c195 0 354 92 354 245
c0 103 -65 163 -149 195c72 34 127 93 127 187c0 153 -149 245 -332 245zM1075 622c53 0 88 -30 88 -76s-35 -76 -88 -76c-52 0 -86 30 -86 76s34 76 86 76zM1075 939c45 0 75 -26 75 -66s-30 -67 -75 -67c-44 0 -74 27 -74 67s30 66 74 66z" />
    <glyph glyph-name="uni2791" unicode="&#x2791;" horiz-adv-x="2050" 
d="M1075 1597c512 0 923 -402 923 -895c0 -495 -411 -899 -923 -899s-924 404 -924 899c0 493 412 895 924 895zM1075 1141c-182 0 -331 -92 -331 -245c0 -94 54 -153 126 -187c-83 -32 -148 -92 -148 -195c0 -153 160 -245 353 -245c195 0 354 92 354 245
c0 103 -65 163 -149 195c72 34 127 93 127 187c0 153 -149 245 -332 245zM1075 622c53 0 88 -30 88 -76s-35 -76 -88 -76c-52 0 -86 30 -86 76s34 76 86 76zM1075 939c45 0 75 -26 75 -66s-30 -67 -75 -67c-44 0 -74 27 -74 67s30 66 74 66z" />
    <glyph glyph-name="uni2792" unicode="&#x277e;" horiz-adv-x="2050" 
d="M1075 1597c512 0 923 -402 923 -895c0 -495 -411 -899 -923 -899s-924 404 -924 899c0 493 412 895 924 895zM841 285h290l214 311c57 83 91 168 91 251c0 171 -151 294 -348 294s-347 -127 -347 -303c0 -149 97 -273 299 -280zM1088 754c-54 0 -92 38 -92 87
c0 50 38 87 92 87c55 0 92 -37 92 -87c0 -49 -37 -87 -92 -87z" />
    <glyph glyph-name="uni2792" unicode="&#x2792;" horiz-adv-x="2050" 
d="M1075 1597c512 0 923 -402 923 -895c0 -495 -411 -899 -923 -899s-924 404 -924 899c0 493 412 895 924 895zM841 285h290l214 311c57 83 91 168 91 251c0 171 -151 294 -348 294s-347 -127 -347 -303c0 -149 97 -273 299 -280zM1088 754c-54 0 -92 38 -92 87
c0 50 38 87 92 87c55 0 92 -37 92 -87c0 -49 -37 -87 -92 -87z" />
    <glyph glyph-name="uni2B51" unicode="&#x2b51;" horiz-adv-x="1800" 
d="M1164 920h645l-521 -379l200 -615l-522 380l-521 -380l199 615l-522 379h646l198 615z" />
    <glyph glyph-name="uni2B52" unicode="&#x2b52;" horiz-adv-x="1800" 
d="M1164 920h645l-521 -379l200 -615l-522 380l-521 -380l199 615l-522 379h646l198 615zM1047 760l-81 253l-81 -253h-270l217 -158l-83 -256l217 158l217 -158l-83 256l217 158h-270z" />
    <glyph glyph-name="uni2E17" unicode="&#x2e17;" horiz-adv-x="742" 
d="M764 1015l-60 -286l-614 -226l60 286zM674 590l-60 -286l-614 -226l60 286z" />
    <glyph glyph-name="uni2E38" unicode="&#x2e38;" horiz-adv-x="801" 
d="M470 1440h262l-86 -407h221l-54 -254h-221l-48 -225h-262l48 225h-221l54 254h221z" />
    <glyph glyph-name="uniEA00" unicode="&#xea00;" horiz-adv-x="1800" 
d="M1164 920h645l-521 -379l200 -615l-522 380l-521 -380l199 615l-522 379h646l198 615zM1047 760l-81 253v-509l217 -158l-83 256l217 158h-270z" />
    <glyph glyph-name="uniEA01" unicode="&#xea01;" horiz-adv-x="1800" 
d="M966 306l-521 -380l199 615l-522 379h646l198 615v-1229z" />
    <glyph glyph-name="uniFB00" unicode="&#xfb00;" horiz-adv-x="1636" 
d="M884 991l-67 -314h-235l-145 -677h-358l145 677h-160l67 314h160l16 74c59 274 197 401 440 401c142 0 263 -46 334 -110l-188 -254c-45 25 -79 36 -113 36c-73 0 -108 -37 -127 -128l-4 -19h235zM1692 991l-67 -314h-235l-145 -677h-358l145 677h-160l67 314h160l16 74
c59 274 197 401 440 401c142 0 263 -46 334 -110l-188 -254c-45 25 -79 36 -113 36c-73 0 -108 -37 -127 -128l-4 -19h235z" />
    <glyph glyph-name="fi" unicode="&#xfb01;" horiz-adv-x="1354" 
d="M884 991l-67 -314h-235l-145 -677h-358l145 677h-160l67 314h160l16 74c59 274 197 401 440 401c142 0 263 -46 334 -110l-188 -254c-45 25 -79 36 -113 36c-73 0 -108 -37 -127 -128l-4 -19h235zM1377 991l-211 -991h-360l211 991h360zM1256 1485
c115 0 204 -89 204 -204s-89 -204 -204 -204s-204 89 -204 204s89 204 204 204z" />
    <glyph glyph-name="fl" unicode="&#xfb02;" horiz-adv-x="1354" 
d="M884 991l-67 -314h-235l-145 -677h-358l145 677h-160l67 314h160l16 74c59 274 197 401 440 401c142 0 263 -46 334 -110l-188 -254c-45 25 -79 36 -113 36c-73 0 -108 -37 -127 -128l-4 -19h235zM1472 1440l-306 -1440h-360l306 1440h360z" />
    <glyph glyph-name="uniFB03" unicode="&#xfb03;" horiz-adv-x="2162" 
d="M884 991l-67 -314h-235l-145 -677h-358l145 677h-160l67 314h160l16 74c59 274 197 401 440 401c142 0 263 -46 334 -110l-188 -254c-45 25 -79 36 -113 36c-73 0 -108 -37 -127 -128l-4 -19h235zM1692 991l-67 -314h-235l-145 -677h-358l145 677h-160l67 314h160l16 74
c59 274 197 401 440 401c142 0 263 -46 334 -110l-188 -254c-45 25 -79 36 -113 36c-73 0 -108 -37 -127 -128l-4 -19h235zM2185 991l-211 -991h-360l211 991h360zM2064 1485c115 0 204 -89 204 -204s-89 -204 -204 -204s-204 89 -204 204s89 204 204 204z" />
    <glyph glyph-name="uniFB04" unicode="&#xfb04;" horiz-adv-x="2162" 
d="M884 991l-67 -314h-235l-145 -677h-358l145 677h-160l67 314h160l16 74c59 274 197 401 440 401c142 0 263 -46 334 -110l-188 -254c-45 25 -79 36 -113 36c-73 0 -108 -37 -127 -128l-4 -19h235zM1692 991l-67 -314h-235l-145 -677h-358l145 677h-160l67 314h160l16 74
c59 274 197 401 440 401c142 0 263 -46 334 -110l-188 -254c-45 25 -79 36 -113 36c-73 0 -108 -37 -127 -128l-4 -19h235zM2280 1440l-306 -1440h-360l306 1440h360z" />
    <glyph glyph-name="uniFB05" unicode="&#xfb05;" horiz-adv-x="1427" 
d="M543 991l-209 -991h-360l220 1030c72 337 280 436 513 436c248 0 419 -124 419 -373c0 -32 -4 -66 -10 -102h308l-67 -314h-307l-53 -248c-19 -88 15 -124 87 -124c55 0 111 27 160 54l103 -287c-114 -72 -236 -98 -355 -98c-315 0 -411 189 -356 442l56 261h-125l67 314
h126l7 32c3 15 4 28 4 40c0 56 -33 85 -85 85c-81 0 -121 -55 -143 -157z" />
    <glyph glyph-name="uniFB06" unicode="&#xfb06;" horiz-adv-x="1939" 
d="M990 905l-135 -261c-123 72 -264 90 -309 90c-69 0 -92 -12 -95 -32c-5 -41 30 -40 132 -63l58 -13c212 -47 285 -163 266 -317c-28 -232 -194 -335 -477 -335c-181 0 -367 54 -464 131l142 260c99 -64 235 -108 340 -108c78 0 97 11 100 38c4 35 -31 46 -121 63l-58 11
c-232 44 -304 167 -282 333c28 213 194 316 454 316c158 0 297 -36 449 -113zM1936 991l-67 -314h-307l-53 -248c-19 -88 15 -124 87 -124c55 0 111 27 160 54l103 -287c-114 -72 -236 -98 -355 -98c-317 0 -412 189 -358 442l55 261h-175l67 314h175l61 284h360l-61 -284
h308z" />
    <glyph glyph-name="uni030C.alt001" horiz-adv-x="1" 
d="M-465 940h-267l106 500h347z" />
    <glyph glyph-name="uni0328.alt001" horiz-adv-x="1" 
d="M-404 -140l135 -193c-48 -40 -143 -86 -259 -86c-180 0 -287 78 -287 211c0 165 202 248 306 284l106 -75c-120 -42 -129 -94 -129 -119c0 -32 26 -46 59 -46c18 0 40 6 69 24z" />
    <glyph glyph-name="uni0328.alt002" horiz-adv-x="1" 
d="M-530 83l175 -63c-170 -62 -180 -114 -180 -140s22 -42 55 -42c28 0 54 12 79 31l163 -179c-77 -68 -172 -109 -287 -109c-185 0 -321 87 -321 228c0 125 95 203 316 274z" />
    <glyph glyph-name="uni0328.alt003" horiz-adv-x="1" 
d="M-399 -133l135 -185c-48 -46 -148 -102 -268 -102c-159 0 -287 71 -287 205s111 234 335 303l106 -79c-140 -48 -149 -102 -149 -126c0 -30 24 -43 55 -43c19 0 42 7 73 27z" />
    <glyph glyph-name="uni0328.alt004" horiz-adv-x="1" 
d="M-401 -131l163 -179c-77 -68 -172 -109 -287 -109c-185 0 -321 87 -321 228c0 125 95 203 316 274l175 -63c-170 -62 -180 -114 -180 -140s22 -42 55 -42c28 0 54 12 79 31z" />
    <glyph glyph-name="i.latn_TRK" horiz-adv-x="526" 
d="M549 991l-211 -991h-360l211 991h360zM428 1485c115 0 204 -89 204 -204s-89 -204 -204 -204s-204 89 -204 204s89 204 204 204z" />
    <glyph glyph-name="j.latn_NLD" horiz-adv-x="525" 
d="M548 991l-229 -1077c-50 -233 -190 -340 -385 -340c-67 0 -138 12 -193 38l91 307c16 -9 32 -14 51 -14c37 0 78 17 94 93l211 993h360zM500 1103h-336l256 346h405z" />
    <glyph glyph-name="Ldot.latn_CAT" horiz-adv-x="1153" 
d="M677 1400l-224 -1050h650l-75 -350h-1037l298 1400h388zM896 945c120 0 214 -93 214 -214s-94 -214 -214 -214c-121 0 -215 93 -215 214s94 214 215 214z" />
    <glyph glyph-name="ldot.latn_CAT" horiz-adv-x="826" 
d="M644 1440l-306 -1440h-360l306 1440h360zM769 914c103 0 183 -80 183 -184c0 -103 -80 -183 -183 -183c-104 0 -184 80 -184 183c0 104 80 184 184 184z" />
    <glyph glyph-name="zero.numr" horiz-adv-x="871" 
d="M604 1416c186 0 339 -113 339 -342c0 -236 -155 -530 -450 -530c-186 0 -339 113 -339 342c0 236 155 530 450 530zM588 1184c-116 0 -177 -154 -177 -273c0 -88 36 -135 97 -135c116 0 178 155 178 273c0 87 -36 135 -98 135z" />
    <glyph glyph-name="one.numr" horiz-adv-x="499" 
d="M633 1413l-181 -853h-242l113 535l-176 -50l51 244z" />
    <glyph glyph-name="two.numr" horiz-adv-x="745" 
d="M321 1102l-116 180c68 66 154 134 321 134c202 0 295 -131 295 -260c0 -112 -35 -190 -211 -312l-88 -61h257l-47 -223h-606l43 197l299 227c77 58 101 96 101 132c0 43 -37 68 -88 68c-71 0 -106 -33 -160 -82z" />
    <glyph glyph-name="three.numr" horiz-adv-x="722" 
d="M298 1143l-95 171c80 66 175 102 312 102c185 0 299 -113 299 -228c0 -89 -66 -180 -162 -219c67 -35 100 -94 100 -156c0 -144 -121 -269 -357 -269c-143 0 -246 47 -302 130l156 145c35 -42 86 -65 150 -65c78 0 105 29 105 66c0 40 -46 67 -104 67h-91l40 195h97
c81 0 114 30 114 69c0 34 -34 55 -91 55c-61 0 -123 -28 -171 -63z" />
    <glyph glyph-name="four.numr" horiz-adv-x="731" 
d="M759 1129l-46 -217h91l-47 -223h-92l-27 -129h-242l27 129h-359l42 191l330 520h274l-309 -488h70l11 52l104 165h173z" />
    <glyph glyph-name="five.numr" horiz-adv-x="708" 
d="M792 1400l-47 -220h-300l-23 -86h34c195 0 322 -121 283 -291c-39 -172 -175 -259 -375 -259c-121 0 -231 43 -292 112l129 167c43 -37 107 -62 175 -62c75 0 108 22 116 58c11 47 -24 74 -112 74h-212l119 507h505z" />
    <glyph glyph-name="six.numr" horiz-adv-x="757" 
d="M809 1400l-254 -277c152 -17 252 -101 252 -253c0 -178 -146 -326 -362 -326c-183 0 -334 108 -334 277c0 78 34 178 124 280l264 299h310zM464 931c-57 0 -95 -44 -95 -95c0 -46 31 -79 83 -79c59 0 98 43 98 95c0 43 -33 79 -86 79z" />
    <glyph glyph-name="seven.numr" horiz-adv-x="686" 
d="M855 1400l-43 -204l-407 -636h-290l402 617h-343l47 223h634z" />
    <glyph glyph-name="eight.numr" horiz-adv-x="773" 
d="M570 1416c173 0 299 -84 299 -216c0 -96 -64 -177 -175 -221c67 -33 111 -86 111 -158c0 -146 -132 -277 -384 -277c-184 0 -313 85 -313 218c0 98 69 181 189 224c-54 32 -86 81 -86 148c0 155 138 282 359 282zM470 897c-44 0 -92 -28 -92 -84c0 -43 37 -64 75 -64
c43 0 91 27 91 82c0 43 -35 66 -74 66zM544 1214c-44 0 -81 -33 -81 -73c0 -35 27 -60 66 -60c44 0 81 33 81 73c0 35 -27 60 -66 60z" />
    <glyph glyph-name="nine.numr" horiz-adv-x="756" 
d="M153 560l254 276c-152 18 -251 101 -251 254c0 178 145 326 361 326c183 0 334 -108 334 -277c0 -78 -33 -178 -124 -280l-264 -299h-310zM499 1029c57 0 95 44 95 95c0 46 -32 79 -84 79c-59 0 -97 -43 -97 -95c0 -43 33 -79 86 -79z" />
    <glyph glyph-name="zero.dnom" horiz-adv-x="871" 
d="M476 856c186 0 339 -113 339 -342c0 -236 -155 -530 -450 -530c-186 0 -339 113 -339 342c0 236 155 530 450 530zM460 624c-116 0 -177 -154 -177 -273c0 -88 36 -135 97 -135c116 0 178 155 178 273c0 87 -36 135 -98 135z" />
    <glyph glyph-name="one.dnom" horiz-adv-x="509" 
d="M509 853l-181 -853h-242l113 535l-176 -50l51 244z" />
    <glyph glyph-name="two.dnom" horiz-adv-x="745" 
d="M196 542l-116 180c68 66 154 134 321 134c202 0 295 -131 295 -260c0 -112 -35 -190 -211 -312l-88 -61h257l-47 -223h-606l43 197l299 227c77 58 101 96 101 132c0 43 -37 68 -88 68c-71 0 -106 -33 -160 -82z" />
    <glyph glyph-name="three.dnom" horiz-adv-x="726" 
d="M175 583l-95 171c80 66 175 102 312 102c185 0 299 -113 299 -228c0 -89 -66 -180 -162 -219c67 -35 100 -94 100 -156c0 -144 -121 -269 -357 -269c-143 0 -246 47 -302 130l156 145c35 -42 86 -65 150 -65c78 0 105 29 105 66c0 40 -46 67 -104 67h-91l40 195h97
c81 0 114 30 114 69c0 34 -34 55 -91 55c-61 0 -123 -28 -171 -63z" />
    <glyph glyph-name="four.dnom" horiz-adv-x="732" 
d="M637 569l-46 -217h91l-47 -223h-92l-27 -129h-242l27 129h-359l42 191l330 520h274l-309 -488h70l11 52l104 165h173z" />
    <glyph glyph-name="five.dnom" horiz-adv-x="710" 
d="M667 840l-47 -220h-300l-23 -86h34c195 0 322 -121 283 -291c-39 -172 -175 -259 -375 -259c-121 0 -231 43 -292 112l129 167c43 -37 107 -62 175 -62c75 0 108 22 116 58c11 47 -24 74 -112 74h-212l119 507h505z" />
    <glyph glyph-name="six.dnom" horiz-adv-x="757" 
d="M684 840l-254 -277c152 -17 252 -101 252 -253c0 -178 -146 -326 -362 -326c-183 0 -334 108 -334 277c0 78 34 178 124 280l264 299h310zM339 371c-57 0 -95 -44 -95 -95c0 -46 31 -79 83 -79c59 0 98 43 98 95c0 43 -33 79 -86 79z" />
    <glyph glyph-name="seven.dnom" horiz-adv-x="687" 
d="M732 840l-43 -204l-407 -636h-290l402 617h-343l47 223h634z" />
    <glyph glyph-name="eight.dnom" horiz-adv-x="773" 
d="M443 856c173 0 299 -84 299 -216c0 -96 -64 -177 -175 -221c67 -33 111 -86 111 -158c0 -146 -132 -277 -384 -277c-184 0 -313 85 -313 218c0 98 69 181 189 224c-54 32 -86 81 -86 148c0 155 138 282 359 282zM343 337c-44 0 -92 -28 -92 -84c0 -43 37 -64 75 -64
c43 0 91 27 91 82c0 43 -35 66 -74 66zM417 654c-44 0 -81 -33 -81 -73c0 -35 27 -60 66 -60c44 0 81 33 81 73c0 35 -27 60 -66 60z" />
    <glyph glyph-name="nine.dnom" horiz-adv-x="756" 
d="M40 0l254 276c-152 18 -251 101 -251 254c0 178 145 326 361 326c183 0 334 -108 334 -277c0 -78 -33 -178 -124 -280l-264 -299h-310zM386 469c57 0 95 44 95 95c0 46 -32 79 -84 79c-59 0 -97 -43 -97 -95c0 -43 33 -79 86 -79z" />
    <glyph glyph-name="space.frac" horiz-adv-x="82" 
 />
    <glyph glyph-name="b.ordn" horiz-adv-x="873" 
d="M532 541c-82 0 -153 26 -200 78l-12 -59h-233l223 1051h234l-77 -358c39 27 88 44 159 44c173 0 299 -150 299 -335c0 -177 -127 -421 -393 -421zM548 1078c-83 0 -148 -65 -159 -155c-13 -107 57 -165 132 -165c92 0 161 82 161 180c0 96 -69 140 -134 140z" />
    <glyph glyph-name="c.ordn" horiz-adv-x="794" 
d="M864 1098l-207 -96c-29 57 -76 77 -126 77c-95 0 -160 -82 -160 -179c0 -82 52 -140 127 -140c49 0 93 22 130 67l169 -137c-76 -92 -183 -147 -308 -147c-211 0 -358 143 -358 341c0 224 166 411 412 411c154 0 265 -73 321 -197z" />
    <glyph glyph-name="d.ordn" horiz-adv-x="873" 
d="M521 1297c82 0 153 -26 199 -79l84 393h233l-223 -1051h-225l10 49c-44 -41 -99 -68 -175 -68c-171 0 -296 150 -296 335c0 177 127 421 393 421zM505 759c83 0 148 65 159 155c13 107 -57 165 -132 165c-92 0 -161 -82 -161 -180c0 -96 69 -140 134 -140z" />
    <glyph glyph-name="e.ordn" horiz-adv-x="794" 
d="M634 794l137 -137c-67 -75 -170 -116 -305 -116c-214 0 -341 132 -341 314c0 177 116 442 417 442c181 0 312 -120 312 -297c0 -47 -13 -115 -30 -153h-470c6 -72 54 -110 127 -110c52 0 106 13 153 57zM528 1099c-73 0 -118 -48 -145 -104h250v1c0 69 -40 103 -105 103z
" />
    <glyph glyph-name="h.ordn" horiz-adv-x="815" 
d="M634 1297c146 0 233 -98 233 -238c0 -25 -2 -53 -8 -81l-91 -418h-233l85 399c3 13 5 25 5 37c0 47 -25 82 -87 82c-63 0 -116 -33 -139 -141l-79 -377h-233l224 1051h233l-83 -379c48 45 105 65 173 65z" />
    <glyph glyph-name="l.ordn" horiz-adv-x="380" 
d="M544 1611l-224 -1051h-233l223 1051h234z" />
    <glyph glyph-name="m.ordn" horiz-adv-x="1265" 
d="M1074 1297c154 0 244 -99 244 -239c0 -25 -3 -52 -9 -80l-90 -418h-234l86 399c3 13 4 25 4 37c0 47 -25 82 -86 82c-58 0 -114 -26 -139 -141l-82 -377h-233l85 399c14 64 -5 119 -82 119c-63 0 -118 -33 -140 -141l-78 -377h-233l152 717h220l-14 -61
c50 56 114 81 189 81c96 0 167 -43 204 -111c59 77 138 111 236 111z" />
    <glyph glyph-name="r.ordn" horiz-adv-x="599" 
d="M459 1277l-16 -71c49 65 111 91 185 91c32 0 64 -7 97 -18l-64 -226c-31 12 -72 19 -107 19c-71 0 -136 -43 -156 -140l-77 -372h-234l152 717h220z" />
    <glyph glyph-name="s.ordn" horiz-adv-x="707" 
d="M797 1216l-94 -172c-81 48 -182 64 -224 64c-58 0 -83 -14 -86 -37c-5 -38 27 -40 97 -55l45 -9c157 -33 213 -116 200 -227c-19 -159 -139 -239 -339 -239c-125 0 -258 37 -333 96l99 171c69 -46 162 -78 243 -78c67 0 91 14 94 42c3 30 -24 41 -92 54l-45 8
c-167 29 -223 117 -208 235c19 151 138 228 323 228c116 0 218 -27 320 -81z" />
    <glyph glyph-name="t.ordn" horiz-adv-x="726" 
d="M787 1277l-44 -206h-233l-45 -210c-15 -72 14 -102 70 -102c42 0 86 20 123 41l69 -189c-77 -49 -160 -70 -247 -70c-216 0 -291 130 -251 314l47 216h-132l44 206h132l46 209h233l-45 -209h233z" />
    <glyph glyph-name="u.ordn" horiz-adv-x="807" 
d="M916 1287l-89 -420c-51 -240 -207 -316 -382 -316c-180 0 -308 91 -308 268c0 29 3 60 10 93l80 375h234l-86 -400c-2 -12 -3 -24 -3 -35c0 -57 36 -83 90 -83c73 0 121 51 140 139l81 379h233z" />
    <glyph glyph-name="egrave.ordn" horiz-adv-x="794" 
d="M634 794l137 -137c-67 -75 -170 -116 -305 -116c-214 0 -341 132 -341 314c0 177 116 442 417 442c181 0 312 -120 312 -297c0 -47 -13 -115 -30 -153h-470c6 -72 54 -110 127 -110c52 0 106 13 153 57zM493 1366l-205 245h267l156 -245h-218zM528 1099
c-73 0 -118 -48 -145 -104h250v1c0 69 -40 103 -105 103z" />
    <glyph glyph-name="zero.osf" horiz-adv-x="1290" 
d="M687 1115c309 0 563 -191 563 -519c0 -332 -243 -622 -627 -622c-309 0 -563 191 -563 519c0 332 243 622 627 622zM669 780c-144 0 -247 -116 -247 -258c0 -137 101 -213 219 -213c144 0 247 116 247 256c0 139 -101 215 -219 215z" />
    <glyph glyph-name="one.osf" horiz-adv-x="757" 
d="M815 1118l-238 -1118h-363l144 674l-310 -69l76 353z" />
    <glyph glyph-name="two.osf" horiz-adv-x="1146" 
d="M288 646l-172 257c98 95 263 212 509 212c284 0 460 -158 460 -353c0 -131 -44 -284 -352 -417l-60 -26h403l-69 -319h-970l58 267l396 221c186 104 216 157 216 208c0 65 -67 98 -141 98c-106 0 -200 -70 -278 -148z" />
    <glyph glyph-name="three.osf" horiz-adv-x="1109" 
d="M269 677l-152 260c125 112 278 178 496 178c293 0 472 -176 472 -370c0 -154 -110 -304 -271 -370c110 -54 165 -152 165 -260c0 -245 -201 -452 -570 -452c-211 0 -388 79 -477 214l235 208c59 -72 146 -111 252 -111c135 0 190 65 190 145c0 76 -79 119 -183 119h-148
l69 316h153c138 0 205 60 205 134c0 65 -60 104 -156 104c-105 0 -206 -53 -280 -115z" />
    <glyph glyph-name="four.osf" horiz-adv-x="1131" 
d="M965 658l-69 -323h182l-71 -335h-183l-66 -312h-362l66 312h-549l61 288l444 800h385l-409 -753h140l32 151l93 172h306z" />
    <glyph glyph-name="five.osf" horiz-adv-x="1087" 
d="M1054 1088l-71 -332h-499l-42 -177h69c319 0 509 -210 448 -488c-63 -289 -285 -429 -594 -429c-197 0 -371 72 -471 194l202 247c72 -72 175 -113 288 -113c128 0 190 49 205 124c18 87 -36 150 -194 150h-342l195 824h806z" />
    <glyph glyph-name="six.osf" horiz-adv-x="1171" 
d="M1125 1400l-416 -467c252 -24 423 -169 423 -422c0 -293 -235 -537 -579 -537c-291 0 -529 177 -529 454c0 128 53 284 198 454l440 518h463zM588 637c-108 0 -179 -85 -179 -186c0 -90 61 -155 157 -155c108 0 182 84 182 187c0 88 -64 154 -160 154z" />
    <glyph glyph-name="seven.osf" horiz-adv-x="1069" 
d="M1167 1088l-65 -305l-678 -1095h-426l671 1065h-587l73 335h1012z" />
    <glyph glyph-name="eight.osf" horiz-adv-x="1187" 
d="M748 1426c277 0 482 -146 482 -376c0 -153 -102 -284 -280 -354c106 -55 176 -142 176 -260c0 -246 -215 -462 -615 -462c-290 0 -499 140 -499 360c0 165 113 306 308 378c-87 52 -139 134 -139 244c0 255 216 470 567 470zM593 570c-86 0 -171 -59 -171 -160
c0 -79 65 -120 137 -120c86 0 171 56 171 157c0 80 -64 123 -137 123zM718 1102c-75 0 -145 -52 -145 -140c0 -68 46 -107 114 -107c74 0 146 55 146 144c0 67 -46 103 -115 103z" />
    <glyph glyph-name="nine.osf" horiz-adv-x="1171" 
d="M67 -311l415 466c-251 24 -422 169 -422 423c0 293 235 537 579 537c291 0 529 -177 529 -454c0 -128 -53 -284 -198 -454l-440 -518h-463zM604 452c108 0 179 85 179 186c0 90 -61 155 -157 155c-108 0 -182 -84 -182 -187c0 -88 64 -154 160 -154z" />
    <glyph glyph-name="zero.tf" 
d="M731 1426c286 0 497 -177 497 -523c0 -420 -224 -929 -674 -929c-284 0 -495 177 -495 522c0 420 224 930 672 930zM711 1072c-179 0 -272 -332 -272 -533c0 -142 52 -211 137 -211c179 0 272 331 272 532c0 143 -52 212 -137 212z" />
    <glyph glyph-name="one.tf" 
d="M142 350h271l125 584l-313 -92l77 364l708 216l-228 -1072h293l-74 -350h-933z" />
    <glyph glyph-name="two.tf" 
d="M361 930l-180 273c108 110 252 223 513 223c324 0 473 -212 473 -421c0 -187 -74 -302 -336 -514l-185 -150h441l-74 -341h-975l66 299l507 405c131 105 173 173 173 241c0 76 -62 127 -155 127c-124 0 -182 -58 -268 -142z" />
    <glyph glyph-name="three.tf" 
d="M361 985l-155 264c127 112 281 177 504 177c298 0 480 -178 480 -372c0 -153 -110 -303 -273 -368c112 -55 168 -153 168 -261c0 -244 -203 -451 -578 -451c-231 0 -397 77 -488 211l241 227c60 -72 148 -111 256 -111c136 0 192 59 192 133c0 70 -81 113 -186 113h-150
l69 320h155c140 0 207 58 207 130c0 63 -61 102 -158 102c-106 0 -208 -52 -284 -114z" />
    <glyph glyph-name="four.tf" 
d="M1094 931l-78 -365h160l-73 -341h-159l-48 -225h-369l48 225h-594l64 293l565 882h420l-533 -834h150l25 116l160 249h262z" />
    <glyph glyph-name="five.tf" 
d="M1182 1400l-72 -337h-503l-41 -171h68c322 0 515 -209 454 -489c-63 -289 -287 -429 -601 -429c-199 0 -375 72 -476 193l204 251c73 -70 177 -111 291 -111c129 0 190 47 205 120c18 86 -37 146 -195 146h-345l195 827h816z" />
    <glyph glyph-name="six.tf" 
d="M1150 1400l-419 -466c254 -25 426 -169 426 -423c0 -293 -237 -537 -585 -537c-294 0 -536 178 -536 456c0 128 54 285 200 455l442 515h472zM606 634c-107 0 -178 -83 -178 -181c0 -89 61 -153 157 -153c108 0 181 83 181 183c0 86 -64 151 -160 151z" />
    <glyph glyph-name="seven.tf" 
d="M1304 1400l-66 -310l-681 -1090h-442l674 1059h-582l73 341h1024z" />
    <glyph glyph-name="eight.tf" 
d="M754 1426c282 0 491 -142 491 -367c0 -157 -104 -291 -285 -362c108 -55 179 -143 179 -262c0 -246 -217 -461 -620 -461c-293 0 -507 140 -507 361c0 165 113 305 311 377c-89 52 -142 134 -142 245c0 255 218 469 573 469zM600 570c-91 0 -178 -59 -178 -160
c0 -79 68 -120 143 -120c91 0 178 56 178 157c0 80 -67 123 -143 123zM725 1102c-82 0 -154 -52 -154 -140c0 -68 49 -107 122 -107c81 0 155 55 155 144c0 67 -49 103 -123 103z" />
    <glyph glyph-name="nine.tf" 
d="M137 0l418 466c-254 24 -425 168 -425 423c0 293 237 537 585 537c294 0 536 -178 536 -456c0 -128 -54 -285 -200 -455l-442 -515h-472zM681 766c107 0 178 83 178 181c0 89 -61 153 -157 153c-108 0 -181 -83 -181 -183c0 -86 64 -151 160 -151z" />
    <glyph glyph-name="uni2007.tf" 
 />
    <glyph glyph-name="zero.tosf" 
d="M646 1112c299 0 514 -198 514 -506c0 -332 -219 -629 -581 -629c-300 0 -515 198 -515 506c0 332 219 629 582 629zM631 787c-123 0 -208 -127 -208 -279c0 -130 71 -206 170 -206c123 0 208 127 208 279c0 130 -71 206 -170 206z" />
    <glyph glyph-name="one.tosf" 
d="M147 330h278l72 333l-304 -72l75 360l688 167l-168 -788h292l-70 -330h-933z" />
    <glyph glyph-name="two.tosf" 
d="M302 646l-172 257c98 95 263 212 509 212c284 0 460 -158 460 -353c0 -131 -44 -284 -352 -417l-60 -26h403l-69 -319h-970l58 267l396 221c186 104 216 157 216 208c0 65 -67 98 -141 98c-106 0 -200 -70 -278 -148z" />
    <glyph glyph-name="three.tosf" 
d="M306 677l-152 260c125 112 278 178 496 178c293 0 472 -176 472 -370c0 -154 -110 -304 -271 -370c110 -54 165 -152 165 -260c0 -245 -201 -452 -570 -452c-211 0 -388 79 -477 214l235 208c59 -72 146 -111 252 -111c135 0 190 65 190 145c0 76 -79 119 -183 119h-148
l69 316h153c138 0 205 60 205 134c0 65 -60 104 -156 104c-105 0 -206 -53 -280 -115z" />
    <glyph glyph-name="four.tosf" 
d="M1013 658l-69 -323h182l-71 -335h-183l-66 -312h-362l66 312h-549l61 288l444 800h385l-409 -753h140l32 151l93 172h306z" />
    <glyph glyph-name="five.tosf" 
d="M1123 1088l-71 -332h-499l-42 -177h69c319 0 509 -210 448 -488c-63 -289 -285 -429 -594 -429c-197 0 -371 72 -471 194l202 247c72 -72 175 -113 288 -113c128 0 190 49 205 124c18 87 -36 150 -194 150h-342l195 824h806z" />
    <glyph glyph-name="six.tosf" 
d="M1143 1400l-416 -467c252 -24 423 -169 423 -422c0 -293 -235 -537 -579 -537c-291 0 -529 177 -529 454c0 128 53 284 198 454l440 518h463zM606 637c-108 0 -179 -85 -179 -186c0 -90 61 -155 157 -155c108 0 182 84 182 187c0 88 -64 154 -160 154z" />
    <glyph glyph-name="seven.tosf" 
d="M1240 1088l-65 -305l-678 -1095h-426l671 1065h-587l73 335h1012z" />
    <glyph glyph-name="eight.tosf" 
d="M754 1426c277 0 482 -146 482 -376c0 -153 -102 -284 -280 -354c106 -55 176 -142 176 -260c0 -246 -215 -462 -615 -462c-290 0 -499 140 -499 360c0 165 113 306 308 378c-87 52 -139 134 -139 244c0 255 216 470 567 470zM599 570c-86 0 -171 -59 -171 -160
c0 -79 65 -120 137 -120c86 0 171 56 171 157c0 80 -64 123 -137 123zM724 1102c-75 0 -145 -52 -145 -140c0 -68 46 -107 114 -107c74 0 146 55 146 144c0 67 -46 103 -115 103z" />
    <glyph glyph-name="nine.tosf" 
d="M78 -311l415 466c-251 24 -422 169 -422 423c0 293 235 537 579 537c291 0 529 -177 529 -454c0 -128 -53 -284 -198 -454l-440 -518h-463zM615 452c108 0 179 85 179 186c0 90 -61 155 -157 155c-108 0 -182 -84 -182 -187c0 -88 64 -154 160 -154z" />
    <glyph glyph-name="uni2007.tosf" 
 />
    <glyph glyph-name="exclam.sc" horiz-adv-x="590" 
d="M595 1091l-165 -654h-288l80 654h373zM241 356c102 0 189 -88 189 -190c0 -103 -87 -192 -189 -192c-104 0 -192 89 -192 192c0 102 88 190 192 190z" />
    <glyph glyph-name="numbersign.sc" horiz-adv-x="1114" 
d="M219 893h119l67 198h289l-67 -198h116l67 198h290l-67 -198h115l-87 -261h-117l-57 -168h118l-86 -261h-120l-69 -203h-290l69 203h-116l-68 -203h-290l69 203h-115l86 261h117l57 168h-117zM539 632l-57 -168h115l57 168h-115z" />
    <glyph glyph-name="dollar.sc" 
d="M1134 948l-150 -242c-97 70 -255 91 -321 91c-82 0 -124 -13 -124 -42c0 -55 96 -64 170 -77l30 -6c210 -44 311 -143 311 -280c0 -214 -170 -350 -419 -370l-29 -137h-241l32 149c-134 21 -256 67 -337 127l167 241c124 -75 236 -110 367 -110c71 0 120 13 120 52
c0 44 -57 53 -165 72l-34 6c-197 35 -308 135 -308 289c0 208 157 348 412 361l28 130h241l-31 -144c87 -16 183 -47 281 -110z" />
    <glyph glyph-name="percent.sc" horiz-adv-x="1662" 
d="M433 1111c174 0 302 -116 302 -280c0 -178 -141 -329 -335 -329c-174 0 -301 116 -301 280c0 179 141 329 334 329zM424 894c-50 0 -92 -44 -92 -94c0 -46 34 -80 78 -80c50 0 92 43 92 94c0 46 -34 80 -78 80zM1502 1091l-1007 -1091h-315l1007 1091h315zM1283 588
c174 0 301 -115 301 -280c0 -178 -140 -328 -334 -328c-174 0 -302 116 -302 280c0 178 142 328 335 328zM1273 371c-50 0 -91 -43 -91 -94c0 -46 34 -80 78 -80c49 0 91 44 91 94c0 46 -34 80 -78 80z" />
    <glyph glyph-name="ampersand.sc" horiz-adv-x="1190" 
d="M951 620l177 -176l-241 -209l193 -235h-359l-53 64c-79 -47 -180 -83 -321 -83c-202 0 -342 98 -342 274c0 167 113 266 242 336c-46 73 -69 137 -69 212c0 183 141 307 368 307c212 0 360 -115 360 -294c0 -143 -121 -230 -252 -298l74 -90zM409 236c36 0 68 8 99 22
l-111 134c-47 -29 -78 -59 -78 -96c0 -41 38 -60 90 -60zM463 798c0 -21 9 -42 43 -90c67 30 113 60 113 99c0 33 -34 55 -80 55c-50 0 -76 -25 -76 -64z" />
    <glyph glyph-name="parenleft.sc" horiz-adv-x="668" 
d="M667 1250l49 -279c-230 -85 -332 -291 -332 -516c0 -151 45 -244 168 -347l-115 -272c-239 100 -387 326 -387 630c0 338 218 686 617 784z" />
    <glyph glyph-name="parenright.sc" horiz-adv-x="668" 
d="M21 -164l-49 279c230 85 332 291 332 516c0 151 -45 244 -168 347l115 272c239 -100 387 -326 387 -630c0 -338 -218 -686 -617 -784z" />
    <glyph glyph-name="asterisk.sc" horiz-adv-x="788" 
d="M231 1018l138 -76l21 149h255l-47 -173l164 44l30 -248l-166 -23l74 -126l-234 -126l-55 139l-111 -123l-172 170l122 106l-146 54z" />
    </font>
</defs>
</svg>
