<?xml version="1.0" standalone="no"?>
<!DOCTYPE svg PUBLIC "-//W3C//DTD SVG 1.1//EN" "http://www.w3.org/Graphics/SVG/1.1/DTD/svg11.dtd" >
<svg xmlns="http://www.w3.org/2000/svg" xmlns:xlink="http://www.w3.org/1999/xlink" version="1.1">
<metadata>
Created by FontForge 20161116 at Thu Aug 15 14:03:16 2013
 By Jimmy Wärting
2013 published by FontShop International GmbH
</metadata>
<defs>
<font id="MarkPro-BoldItalic" horiz-adv-x="1" >
  <font-face 
    font-family="MarkPro-BoldItalic"
    font-weight="700"
    font-style="italic"
    font-stretch="normal"
    units-per-em="2000"
    panose-1="2 11 8 4 2 1 1 1 1 2"
    ascent="1580"
    descent="-420"
    x-height="969"
    cap-height="1400"
    bbox="-1355 -473 2957 2227"
    underline-thickness="136"
    underline-position="-260"
    slope="-12"
    stemh="223"
    stemv="261"
    unicode-range="U+000D-FEFF"
  />
<missing-glyph horiz-adv-x="1161" 
d="M26 0v1400h1109v-1400h-1109zM238 212h685v976h-685v-976z" />
    <glyph glyph-name=".notdef" horiz-adv-x="1161" 
d="M26 0v1400h1109v-1400h-1109zM238 212h685v976h-685v-976z" />
    <glyph glyph-name=".null" horiz-adv-x="0" 
 />
    <glyph glyph-name=".null" horiz-adv-x="0" 
 />
    <glyph glyph-name="CR" unicode="&#xd;" horiz-adv-x="495" 
 />
    <glyph glyph-name="space" unicode=" " horiz-adv-x="495" 
 />
    <glyph glyph-name="exclam" unicode="!" horiz-adv-x="538" 
d="M612 1400l-229 -919h-227l143 919h313zM213 355c101 0 189 -87 189 -189s-88 -191 -189 -191c-102 0 -191 89 -191 191s89 189 191 189z" />
    <glyph glyph-name="quotedbl" unicode="&#x22;" horiz-adv-x="1101" 
d="M416 1440h260l-127 -597h-260zM832 1440h260l-127 -597h-260z" />
    <glyph glyph-name="numbersign" unicode="#" horiz-adv-x="1396" 
d="M305 1070h203l111 330h240l-111 -330h239l111 330h239l-111 -330h203l-75 -224h-203l-96 -285h202l-74 -224h-203l-113 -337h-239l113 337h-239l-113 -337h-240l113 337h-202l74 224h203l96 285h-204zM673 846l-96 -285h239l96 285h-239z" />
    <glyph glyph-name="dollar" unicode="$" horiz-adv-x="1400" 
d="M1349 1230l-139 -208c-81 55 -169 88 -250 105l-69 -324c202 -47 353 -150 353 -345c0 -255 -211 -423 -519 -439l-41 -192h-222l44 206c-135 24 -286 75 -393 170l150 208c82 -76 194 -118 294 -138l68 320c-208 43 -347 158 -347 348c0 233 175 435 515 443l38 180h222
l-42 -197c109 -20 224 -61 338 -137zM966 423c0 62 -43 99 -129 126l-60 -285c110 18 189 72 189 159zM557 977c0 -67 48 -105 122 -129l62 291c-131 -18 -184 -89 -184 -162z" />
    <glyph glyph-name="percent" unicode="%" horiz-adv-x="2015" 
d="M593 1425c209 0 359 -145 359 -351c0 -222 -175 -410 -406 -410c-210 0 -361 145 -361 351c0 222 176 410 408 410zM581 1217c-101 0 -174 -86 -174 -188c0 -92 63 -157 150 -157c101 0 174 86 174 188c0 92 -63 157 -150 157zM1746 1400l-1110 -1400h-275l1110 1400h275
zM1562 736c208 0 359 -146 359 -352c0 -222 -175 -410 -407 -410c-209 0 -360 146 -360 351c0 222 176 411 408 411zM1550 527c-101 0 -174 -86 -174 -188c0 -92 63 -156 149 -156c102 0 174 85 174 187c0 92 -62 157 -149 157z" />
    <glyph glyph-name="ampersand" unicode="&#x26;" horiz-adv-x="1436" 
d="M1161 778l173 -145l-282 -315l254 -318h-329l-105 133c-105 -90 -235 -158 -413 -158c-240 0 -407 122 -407 344c0 219 159 345 332 441c-71 105 -105 188 -105 286c0 203 137 379 417 379c228 0 392 -130 392 -322c0 -194 -163 -310 -338 -406l159 -200zM500 207
c91 0 162 36 235 101l-212 267c-111 -64 -194 -133 -194 -226c0 -90 70 -142 171 -142zM541 1041c0 -38 16 -80 75 -164c118 61 208 121 208 207c0 69 -50 110 -138 110c-103 0 -145 -69 -145 -153z" />
    <glyph glyph-name="quotesingle" unicode="'" horiz-adv-x="685" 
d="M416 1440h260l-127 -597h-260z" />
    <glyph glyph-name="parenleft" unicode="(" horiz-adv-x="789" 
d="M805 1446l69 -231c-312 -118 -491 -460 -491 -789c0 -216 71 -373 226 -504l-119 -223c-250 166 -383 412 -383 727c0 430 264 878 698 1020z" />
    <glyph glyph-name="parenright" unicode=")" horiz-adv-x="789" 
d="M20 -309l-69 231c312 118 491 460 491 789c0 216 -71 373 -226 504l119 223c250 -166 383 -412 383 -727c0 -430 -264 -878 -698 -1020z" />
    <glyph glyph-name="asterisk" unicode="*" horiz-adv-x="946" 
d="M312 1305l216 -106l46 241h203l-60 -261l249 56l22 -197l-253 -48l102 -202l-182 -100l-94 206l-176 -182l-138 135l183 177l-219 97z" />
    <glyph glyph-name="plus" unicode="+" horiz-adv-x="1200" 
d="M616 72h-228l74 349h-346l47 223h347l74 349h228l-74 -349h346l-47 -223h-347z" />
    <glyph glyph-name="comma" unicode="," horiz-adv-x="524" 
d="M111 316h292l-252 -596h-234z" />
    <glyph glyph-name="hyphen" unicode="-" horiz-adv-x="794" 
d="M721 646l-48 -228h-581l48 228h581z" />
    <glyph glyph-name="period" unicode="." horiz-adv-x="538" 
d="M206 363c103 0 193 -89 193 -193c0 -105 -90 -195 -193 -195c-104 0 -195 90 -195 195c0 104 91 193 195 193z" />
    <glyph glyph-name="slash" unicode="/" horiz-adv-x="1036" 
d="M1197 1540l-1063 -1740h-281l1063 1740h281z" />
    <glyph glyph-name="zero" unicode="0" horiz-adv-x="1403" 
d="M848 1425c316 0 516 -223 516 -557c0 -409 -264 -893 -718 -893c-316 0 -516 225 -516 557c0 406 264 893 718 893zM832 1167c-271 0 -416 -348 -416 -611c0 -197 91 -323 245 -323c271 0 417 345 417 611c0 200 -91 323 -246 323z" />
    <glyph glyph-name="one" unicode="1" horiz-adv-x="796" 
d="M838 1422l-302 -1422h-273l220 1040l-341 -118l61 284z" />
    <glyph glyph-name="two" unicode="2" horiz-adv-x="1121" 
d="M369 1017l-154 183c90 110 246 225 461 225c302 0 443 -195 443 -394c0 -183 -91 -312 -298 -491l-331 -287h513l-55 -253h-912l47 214l559 484c149 129 196 208 196 301c0 87 -65 168 -194 168c-112 0 -200 -63 -275 -150z" />
    <glyph glyph-name="three" unicode="3" horiz-adv-x="1125" 
d="M348 1036l-142 189c110 120 255 200 476 200c277 0 446 -153 446 -352c0 -165 -107 -308 -279 -378c109 -51 172 -144 172 -264c0 -255 -215 -456 -547 -456c-218 0 -380 74 -467 196l181 172c66 -81 175 -122 291 -122c173 0 267 93 267 214c0 102 -94 151 -227 151
h-154l51 240h144c171 0 286 94 286 206c0 91 -83 147 -201 147c-129 0 -229 -70 -297 -143z" />
    <glyph glyph-name="four" unicode="4" horiz-adv-x="1150" 
d="M1000 881l-79 -373h195l-54 -252h-195l-54 -256h-270l54 256h-607l46 216l639 927h312l-615 -891h279l80 373h269z" />
    <glyph glyph-name="five" unicode="5" horiz-adv-x="1128" 
d="M1130 1400l-53 -251h-540l-66 -280h112c335 0 487 -221 438 -474c-58 -293 -280 -420 -549 -420c-198 0 -363 73 -467 213l177 170c79 -94 184 -133 302 -133c153 0 243 79 261 189c19 110 -33 211 -238 211h-335l179 775h779z" />
    <glyph glyph-name="six" unicode="6" horiz-adv-x="1176" 
d="M1048 1400l-418 -483h11c257 0 466 -169 466 -429c0 -280 -229 -513 -551 -513c-275 0 -501 174 -501 443c0 122 46 256 183 421l468 561h342zM594 680c-154 0 -255 -112 -255 -248c0 -125 93 -212 230 -212c150 0 255 111 255 250c0 129 -101 210 -230 210z" />
    <glyph glyph-name="seven" unicode="7" horiz-adv-x="1081" 
d="M1213 1400l-44 -224l-719 -1176h-322l715 1148h-653l53 252h970z" />
    <glyph glyph-name="eight" unicode="8" horiz-adv-x="1230" 
d="M770 1425c246 0 466 -137 466 -363c0 -159 -106 -297 -291 -367c109 -56 181 -146 181 -265c0 -251 -222 -455 -584 -455c-266 0 -488 138 -488 357c0 171 110 314 309 383c-90 52 -148 135 -148 247c0 245 205 463 555 463zM618 596c-160 0 -270 -94 -270 -217
c0 -102 99 -163 218 -163c162 0 275 89 275 215c0 106 -102 165 -223 165zM751 1181c-157 0 -252 -91 -252 -209c0 -98 80 -154 196 -154c151 0 254 90 254 207c0 100 -93 156 -198 156z" />
    <glyph glyph-name="nine" unicode="9" horiz-adv-x="1176" 
d="M220 0l417 483h-10c-258 0 -466 169 -466 429c0 280 228 513 550 513c276 0 501 -174 501 -443c0 -122 -45 -256 -182 -421l-468 -561h-342zM674 720c153 0 255 112 255 248c0 125 -94 212 -231 212c-149 0 -254 -111 -254 -250c0 -129 101 -210 230 -210z" />
    <glyph glyph-name="colon" unicode=":" horiz-adv-x="538" 
d="M339 995c104 0 193 -89 193 -193c0 -105 -89 -195 -193 -195s-195 90 -195 195c0 104 91 193 195 193zM204 363c104 0 193 -89 193 -193c0 -105 -89 -195 -193 -195s-194 90 -194 195c0 104 90 193 194 193z" />
    <glyph glyph-name="semicolon" unicode=";" horiz-adv-x="524" 
d="M334 995c103 0 193 -89 193 -193c0 -105 -90 -195 -193 -195c-104 0 -195 90 -195 195c0 104 91 193 195 193zM111 316h292l-252 -596h-234z" />
    <glyph glyph-name="less" unicode="&#x3c;" horiz-adv-x="1200" 
d="M169 411l52 243l900 381l-60 -278l-620 -242l517 -243l-52 -242z" />
    <glyph glyph-name="equal" unicode="=" horiz-adv-x="1200" 
d="M1049 432l-48 -223h-920l47 223h921zM1139 856l-47 -223h-921l47 223h921z" />
    <glyph glyph-name="greater" unicode="&#x3e;" horiz-adv-x="1200" 
d="M1054 654l-52 -243l-900 -381l60 278l620 242l-517 243l52 242z" />
    <glyph glyph-name="question" unicode="?" horiz-adv-x="865" 
d="M407 478h-240l72 340h109c199 0 285 71 285 179c0 107 -119 161 -291 162c-30 0 -75 -1 -99 -3l16 263c34 3 78 5 120 5c324 0 546 -146 546 -393c0 -243 -164 -412 -487 -442zM237 356c101 0 189 -87 189 -189c0 -103 -88 -192 -189 -192c-102 0 -191 89 -191 191
c0 103 89 190 191 190z" />
    <glyph glyph-name="at" unicode="@" horiz-adv-x="1866" 
d="M1216 -26l107 -163c-142 -99 -298 -133 -463 -133c-429 0 -744 291 -744 728c0 495 364 912 911 912c417 0 741 -274 741 -687c0 -295 -150 -549 -413 -549c-123 0 -204 59 -244 134c-56 -66 -135 -114 -244 -114c-195 0 -334 145 -334 356c0 235 164 440 385 440
c107 0 183 -42 229 -111l19 91h211l-85 -396c-7 -32 -10 -61 -10 -85c0 -81 35 -120 93 -120c109 0 169 171 169 348c0 302 -220 494 -533 494c-406 0 -667 -321 -667 -704c0 -341 225 -537 535 -537c125 0 229 25 337 96zM942 695c-110 0 -187 -100 -187 -218
c0 -109 68 -175 160 -175c111 0 189 101 189 219c0 105 -67 174 -162 174z" />
    <glyph glyph-name="A" unicode="A" horiz-adv-x="1465" 
d="M1094 1400l241 -1400h-285l-51 326h-583l-188 -326h-304l831 1400h339zM875 1121l-311 -538h395z" />
    <glyph glyph-name="B" unicode="B" horiz-adv-x="1359" 
d="M347 1400h545c279 0 460 -135 460 -342c0 -159 -96 -295 -257 -351c118 -49 195 -185 160 -338c-66 -287 -269 -369 -611 -369h-595zM751 582h-293l-72 -336l293 -1c158 0 264 31 291 149c30 133 -62 188 -219 188zM844 1154h-265l-69 -327h265c208 0 286 79 286 191
c0 98 -95 136 -217 136z" />
    <glyph glyph-name="C" unicode="C" horiz-adv-x="1451" 
d="M1158 400l196 -176c-140 -158 -321 -249 -545 -249c-395 0 -678 271 -678 661c0 453 337 789 782 789c156 0 426 -38 580 -306l-232 -154c-77 126 -202 193 -364 193c-259 0 -474 -215 -474 -501c0 -253 178 -414 398 -414c131 0 247 57 337 157z" />
    <glyph glyph-name="D" unicode="D" horiz-adv-x="1519" 
d="M347 1400h495c401 0 646 -248 646 -590c0 -448 -313 -810 -860 -810h-579zM810 1139h-234l-187 -878h272c334 0 532 221 532 516c0 213 -120 362 -383 362z" />
    <glyph glyph-name="E" unicode="E" horiz-adv-x="1294" 
d="M1217 834l-55 -256h-705l-69 -322h744l-55 -256h-1028l298 1400h1018l-55 -256h-733l-66 -310h706z" />
    <glyph glyph-name="F" unicode="F" horiz-adv-x="1250" 
d="M1205 824l-55 -257h-696l-120 -567h-285l298 1400h1007l-55 -257h-722l-68 -319h696z" />
    <glyph glyph-name="G" unicode="G" horiz-adv-x="1579" 
d="M1432 1198l-214 -183c-72 90 -181 146 -324 146c-263 0 -475 -213 -475 -516c0 -254 166 -410 406 -410c212 0 350 107 405 303h-362l51 233h621c2 -30 -1 -66 -5 -101c-53 -429 -346 -696 -729 -696c-389 0 -677 265 -677 652c0 461 343 799 788 799
c136 0 367 -34 515 -227z" />
    <glyph glyph-name="H" unicode="H" horiz-adv-x="1532" 
d="M632 1400l-120 -564h657l121 564h285l-299 -1400h-285l123 576h-658l-122 -576h-285l298 1400h285z" />
    <glyph glyph-name="I" unicode="I" horiz-adv-x="589" 
d="M632 1400l-298 -1400h-285l298 1400h285z" />
    <glyph glyph-name="J" unicode="J" horiz-adv-x="1074" 
d="M1122 1400l-192 -915c-75 -359 -265 -510 -544 -510c-178 0 -332 73 -420 198l177 197c50 -70 136 -128 245 -128c142 0 225 91 269 300l181 858h284z" />
    <glyph glyph-name="K" unicode="K" horiz-adv-x="1388" 
d="M632 1400l-121 -567h105l549 567h362l-708 -701l476 -699h-327l-386 576h-126l-122 -576h-285l298 1400h285z" />
    <glyph glyph-name="L" unicode="L" horiz-adv-x="1184" 
d="M632 1400l-243 -1139h717l-56 -261h-1001l298 1400h285z" />
    <glyph glyph-name="M" unicode="M" horiz-adv-x="1824" 
d="M1867 1400l-298 -1400h-284l222 1039l-512 -904h-296l-146 905l-220 -1040h-284l298 1400h399l150 -952l547 952h424z" />
    <glyph glyph-name="N" unicode="N" horiz-adv-x="1545" 
d="M1588 1400l-298 -1400h-262l-490 964l-205 -964h-284l298 1400h263l489 -964l205 964h284z" />
    <glyph glyph-name="O" unicode="O" horiz-adv-x="1632" 
d="M915 1425c390 0 680 -260 680 -654c0 -434 -325 -797 -786 -797c-390 0 -680 260 -680 655c0 433 325 796 786 796zM897 1158c-282 0 -476 -237 -476 -510c0 -247 168 -406 407 -406c280 0 475 236 475 510c0 246 -169 406 -406 406z" />
    <glyph glyph-name="P" unicode="P" horiz-adv-x="1279" 
d="M729 512h-286l-109 -512h-285l298 1400h500c303 0 464 -168 464 -389c0 -300 -213 -499 -582 -499zM814 1143h-237l-80 -376h246c182 0 280 77 280 214c0 102 -70 162 -209 162z" />
    <glyph glyph-name="Q" unicode="Q" horiz-adv-x="1664" 
d="M915 1425c390 0 680 -260 680 -654c0 -182 -57 -352 -158 -487l186 -284h-316l-66 99c-121 -79 -268 -125 -432 -125c-390 0 -680 260 -680 655c0 433 325 796 786 796zM897 1158c-282 0 -476 -237 -476 -510c0 -247 168 -406 407 -406c99 0 188 29 261 80l-209 322h314
l68 -104c26 65 41 137 41 212c0 246 -169 406 -406 406z" />
    <glyph glyph-name="R" unicode="R" horiz-adv-x="1329" 
d="M347 1400h533c302 0 465 -168 465 -378c0 -200 -122 -444 -516 -464l385 -558h-326l-362 557h-74l-118 -557h-285zM846 1142h-269l-73 -342h295c205 0 257 101 257 193c0 91 -74 149 -210 149z" />
    <glyph glyph-name="S" unicode="S" horiz-adv-x="1328" 
d="M1338 1261l-149 -224c-140 98 -303 129 -421 129c-184 0 -258 -85 -258 -174c0 -95 95 -134 219 -158l84 -16c236 -44 413 -154 413 -374c0 -286 -245 -470 -597 -470c-170 0 -432 51 -596 196l161 224c133 -121 332 -162 453 -162c157 0 279 61 279 173
c0 88 -82 129 -246 159l-89 17c-228 42 -382 165 -382 372c0 254 194 472 566 472c167 0 368 -31 563 -164z" />
    <glyph glyph-name="T" unicode="T" horiz-adv-x="1193" 
d="M1357 1400l-56 -261h-419l-242 -1139h-285l242 1139h-427l56 261h1131z" />
    <glyph glyph-name="U" unicode="U" horiz-adv-x="1455" 
d="M1513 1400l-182 -861c-82 -390 -315 -564 -660 -564c-309 0 -532 151 -532 450c0 46 6 97 17 151l176 824h286l-177 -827c-8 -38 -12 -72 -12 -102c0 -160 103 -229 263 -229c173 0 311 93 360 325l176 833h285z" />
    <glyph glyph-name="V" unicode="V" horiz-adv-x="1433" 
d="M1601 1400l-810 -1400h-340l-229 1400h284l164 -1118l630 1118h301z" />
    <glyph glyph-name="W" unicode="W" horiz-adv-x="2167" 
d="M2319 1400l-704 -1400h-330l-81 1003l-498 -1003h-344l-124 1400h282l79 -1078l529 1078h295l81 -1071l518 1071h297z" />
    <glyph glyph-name="X" unicode="X" horiz-adv-x="1341" 
d="M1491 1400l-619 -705l324 -695h-304l-213 486l-414 -486h-342l630 717l-312 683h303l202 -481l406 481h339z" />
    <glyph glyph-name="Y" unicode="Y" horiz-adv-x="1347" 
d="M1534 1400l-702 -848l-118 -552h-285l122 576l-348 824h298l230 -584l463 584h340z" />
    <glyph glyph-name="Z" unicode="Z" horiz-adv-x="1283" 
d="M1368 1400l-47 -225l-879 -918h717l-55 -257h-1090l50 231l877 912h-710l55 257h1082z" />
    <glyph glyph-name="bracketleft" unicode="[" horiz-adv-x="756" 
d="M586 -27l-50 -236h-543l354 1663h543l-50 -236h-279l-253 -1191h278z" />
    <glyph glyph-name="backslash" unicode="\" horiz-adv-x="1776" 
d="M1351 -200l-1063 1740h281l1063 -1740h-281z" />
    <glyph glyph-name="bracketright" unicode="]" horiz-adv-x="756" 
d="M206 1164l50 236h543l-354 -1663h-543l50 236h278l253 1191h-277z" />
    <glyph glyph-name="asciicircum" unicode="^" horiz-adv-x="1200" 
d="M445 635h-261l357 765h243l357 -765h-266l-216 505z" />
    <glyph glyph-name="underscore" unicode="_" horiz-adv-x="940" 
d="M820 -103l-45 -212h-950l45 212h950z" />
    <glyph glyph-name="grave" unicode="`" horiz-adv-x="1000" 
d="M877 1108h-249l-264 315h312z" />
    <glyph glyph-name="a" unicode="a" horiz-adv-x="1199" 
d="M600 995c134 0 233 -45 292 -124l22 98h259l-206 -969h-254l17 80c-64 -63 -147 -106 -262 -106c-235 0 -409 195 -409 446c0 276 205 575 541 575zM548 218c144 0 256 113 274 264c20 162 -77 270 -216 270c-158 0 -277 -139 -277 -305c0 -139 91 -229 219 -229z" />
    <glyph glyph-name="b" unicode="b" horiz-adv-x="1202" 
d="M602 -25c-135 0 -233 44 -293 124l-21 -99h-262l306 1440h262l-109 -510c58 40 131 66 229 66c246 0 429 -195 429 -446c0 -276 -206 -575 -541 -575zM653 751c-143 0 -256 -112 -274 -263c-20 -162 77 -270 216 -270c159 0 278 139 278 304c0 140 -92 229 -220 229z" />
    <glyph glyph-name="c" unicode="c" horiz-adv-x="1023" 
d="M1031 767l-219 -124c-65 92 -145 108 -207 108c-158 0 -274 -136 -274 -297c0 -138 93 -234 215 -234c79 0 151 31 210 94l171 -161c-99 -113 -238 -176 -391 -176c-284 0 -473 196 -473 459c0 303 229 557 555 557c193 0 333 -80 413 -226z" />
    <glyph glyph-name="d" unicode="d" horiz-adv-x="1202" 
d="M600 995c134 0 233 -45 292 -124l122 569h262l-306 -1440h-257l17 79c-65 -62 -147 -105 -262 -105c-234 0 -409 195 -409 446c0 276 205 575 541 575zM548 218c144 0 256 113 274 264c20 162 -77 270 -216 270c-158 0 -277 -139 -277 -305c0 -139 91 -229 219 -229z" />
    <glyph glyph-name="e" unicode="e" horiz-adv-x="1072" 
d="M776 281l134 -170c-105 -93 -230 -137 -396 -137c-292 0 -459 180 -459 425s161 596 557 596c244 0 413 -154 413 -395c0 -66 -17 -152 -38 -202h-673c4 -129 86 -202 222 -202c88 0 166 26 240 85zM597 770c-140 0 -216 -94 -253 -194h429c1 6 1 12 1 18
c0 116 -70 176 -177 176z" />
    <glyph glyph-name="f" unicode="f" horiz-adv-x="818" 
d="M867 969l-49 -232h-284l-157 -737h-262l157 737h-179l49 232h179l31 144c49 227 175 352 387 352c119 0 215 -37 279 -91l-132 -195c-47 30 -97 44 -137 44c-69 0 -121 -45 -142 -147l-23 -107h283z" />
    <glyph glyph-name="g" unicode="g" horiz-adv-x="1194" 
d="M1168 969l-196 -915c-64 -300 -258 -467 -535 -467c-176 0 -324 47 -456 139l122 206c96 -73 206 -115 325 -115c157 0 260 100 289 240l4 20c-60 -43 -134 -69 -233 -69c-246 0 -426 180 -426 424c0 281 200 563 534 563c138 0 234 -46 291 -122l21 96h260zM544 248
c158 0 273 120 273 287c0 127 -90 219 -216 219c-158 0 -272 -120 -272 -290c0 -125 90 -216 215 -216z" />
    <glyph glyph-name="h" unicode="h" horiz-adv-x="1161" 
d="M742 995c202 0 326 -135 326 -325c0 -33 -3 -69 -11 -105l-121 -565h-262l117 544c5 22 7 43 7 64c0 80 -41 142 -151 142c-109 0 -212 -61 -248 -230l-110 -520h-263l306 1440h262l-117 -553c78 81 171 108 265 108z" />
    <glyph glyph-name="i" unicode="i" horiz-adv-x="521" 
d="M495 969l-206 -969h-263l206 969h263zM430 1454c94 0 167 -74 167 -168s-73 -166 -167 -166s-166 72 -166 166s72 168 166 168z" />
    <glyph glyph-name="j" unicode="j" horiz-adv-x="528" 
d="M502 969l-230 -1082c-45 -209 -177 -308 -347 -308c-65 0 -130 15 -176 38l81 219c23 -10 48 -14 69 -14c52 0 103 33 120 113l219 1034h264zM435 1454c94 0 167 -74 167 -168s-73 -166 -167 -166s-166 72 -166 166s72 168 166 168z" />
    <glyph glyph-name="k" unicode="k" horiz-adv-x="1070" 
d="M595 1440l-173 -816h78l321 345h329l-467 -477l288 -492h-289l-220 392h-90l-83 -392h-263l306 1440h263z" />
    <glyph glyph-name="l" unicode="l" horiz-adv-x="521" 
d="M595 1440l-306 -1440h-263l306 1440h263z" />
    <glyph glyph-name="m" unicode="m" horiz-adv-x="1809" 
d="M1379 995c208 0 337 -135 337 -325c0 -33 -3 -69 -11 -105l-122 -565h-262l117 544c5 22 7 43 7 64c0 80 -40 142 -153 142c-109 0 -212 -61 -248 -230l-110 -520h-261l116 544c22 103 0 206 -143 206c-109 0 -212 -61 -248 -230l-110 -520h-262l206 969h252l-22 -98
c81 93 181 124 280 124c138 0 238 -63 288 -162c96 121 222 162 349 162z" />
    <glyph glyph-name="n" unicode="n" horiz-adv-x="1161" 
d="M742 995c202 0 326 -135 326 -325c0 -33 -3 -69 -11 -105l-121 -565h-262l117 544c5 22 7 43 7 64c0 80 -41 142 -152 142c-109 0 -212 -61 -248 -230l-110 -520h-262l206 969h252l-22 -98c81 93 181 124 280 124z" />
    <glyph glyph-name="o" unicode="o" horiz-adv-x="1171" 
d="M624 995c279 0 484 -189 484 -464c0 -304 -238 -557 -561 -557c-278 0 -484 188 -484 465c0 303 238 556 561 556zM606 752c-157 0 -276 -133 -276 -297c0 -140 96 -238 233 -238c158 0 278 134 278 297c0 140 -96 238 -235 238z" />
    <glyph glyph-name="p" unicode="p" horiz-adv-x="1201" 
d="M601 -25c-134 0 -233 44 -292 123l-105 -498h-263l291 1369h256l-17 -79c64 62 146 106 262 106c235 0 409 -195 409 -446c0 -276 -205 -575 -541 -575zM653 751c-144 0 -256 -112 -274 -263c-20 -162 77 -270 216 -270c158 0 277 139 277 304c0 140 -91 229 -219 229z
" />
    <glyph glyph-name="q" unicode="q" horiz-adv-x="1200" 
d="M600 995c134 0 233 -45 292 -124l22 98h260l-291 -1369h-263l93 437c-57 -38 -130 -63 -226 -63c-246 0 -428 195 -428 446c0 276 205 575 541 575zM548 218c144 0 256 113 274 264c20 162 -77 270 -216 270c-158 0 -277 -139 -277 -305c0 -139 91 -229 219 -229z" />
    <glyph glyph-name="r" unicode="r" horiz-adv-x="817" 
d="M397 516l-109 -516h-262l206 969h252l-23 -102c81 98 179 128 276 128c47 0 99 -11 144 -29l-84 -251c-38 20 -92 31 -141 31c-122 0 -223 -73 -259 -230z" />
    <glyph glyph-name="s" unicode="s" horiz-adv-x="967" 
d="M962 887l-119 -195c-91 56 -225 85 -304 85c-96 0 -149 -29 -155 -79c-7 -68 47 -80 136 -97l65 -12c220 -40 305 -150 287 -300c-23 -194 -182 -314 -444 -314c-154 0 -329 46 -442 131l125 191c89 -61 203 -105 321 -105c114 0 169 33 175 90c5 49 -35 75 -134 92
l-67 11c-222 36 -309 150 -290 306c24 198 183 303 423 303c163 0 304 -38 423 -107z" />
    <glyph glyph-name="t" unicode="t" horiz-adv-x="923" 
d="M926 969l-50 -232h-339l-75 -351c-25 -117 24 -168 110 -168c56 0 113 21 169 55l92 -206c-90 -58 -192 -92 -309 -92c-268 0 -379 159 -326 409l75 353h-181l50 232h181l62 288h263l-62 -288h340z" />
    <glyph glyph-name="u" unicode="u" horiz-adv-x="1152" 
d="M1134 969l-121 -568c-67 -316 -278 -426 -516 -426c-231 0 -398 123 -398 352c0 37 5 76 14 118l111 524h263l-116 -544c-5 -24 -7 -45 -7 -64c0 -100 64 -143 157 -143c114 0 207 74 239 229l110 522h264z" />
    <glyph glyph-name="v" unicode="v" horiz-adv-x="1085" 
d="M1173 969l-568 -969h-301l-186 969h268l113 -704l390 704h284z" />
    <glyph glyph-name="w" unicode="w" horiz-adv-x="1703" 
d="M1075 969l81 -674l345 674h283l-527 -969h-290l-76 656l-333 -656h-299l-133 969h262l75 -674l344 674h268z" />
    <glyph glyph-name="x" unicode="x" horiz-adv-x="1085" 
d="M1140 969l-446 -494l262 -475h-285l-159 300l-258 -300h-315l449 495l-259 474h288l151 -305l256 305h316z" />
    <glyph glyph-name="y" unicode="y" horiz-adv-x="1120" 
d="M1216 969l-943 -1373h-298l451 638l-313 735h282l196 -493l328 493h297z" />
    <glyph glyph-name="z" unicode="z" horiz-adv-x="1007" 
d="M1007 969l-43 -199l-560 -537h472l-49 -233h-827l41 199l567 538h-464l50 232h813z" />
    <glyph glyph-name="braceleft" unicode="{" horiz-adv-x="874" 
d="M989 1400l-50 -232h-46c-127 0 -198 -52 -220 -183l-16 -94c-29 -180 -104 -282 -272 -332c141 -61 169 -182 135 -312l-25 -94c-33 -124 30 -183 144 -183h65l-50 -232h-86c-282 0 -389 207 -325 462l17 68c31 119 -38 186 -175 186l49 229c157 0 232 67 255 200l22 128
c44 256 198 389 488 389h90z" />
    <glyph glyph-name="bar" unicode="|" horiz-adv-x="685" 
d="M667 1400l-354 -1665h-260l354 1665h260z" />
    <glyph glyph-name="braceright" unicode="}" horiz-adv-x="874" 
d="M-79 -262l50 232h46c127 0 198 52 220 183l16 94c31 180 104 281 271 332c-141 60 -169 181 -134 312l25 94c33 124 -30 183 -144 183h-65l50 232h86c282 0 389 -207 325 -462l-17 -68c-31 -119 38 -186 175 -186l-49 -229c-157 0 -232 -67 -255 -200l-22 -128
c-44 -256 -198 -389 -488 -389h-90z" />
    <glyph glyph-name="asciitilde" unicode="~" horiz-adv-x="1200" 
d="M991 681l100 -173c-98 -83 -201 -128 -313 -128c-179 0 -232 89 -358 89c-66 0 -116 -29 -184 -86l-100 173c98 84 201 128 313 128c179 0 232 -89 358 -89c65 0 116 29 184 86z" />
    <glyph glyph-name="uni00A0" unicode="&#xa0;" horiz-adv-x="495" 
 />
    <glyph glyph-name="exclamdown" unicode="&#xa1;" horiz-adv-x="538" 
d="M-74 -430l229 919h227l-143 -919h-313zM325 615c-101 0 -189 87 -189 189s88 191 189 191c102 0 191 -89 191 -191s-89 -189 -191 -189z" />
    <glyph glyph-name="cent" unicode="&#xa2;" horiz-adv-x="1400" 
d="M1268 985l-210 -124c-31 40 -64 65 -97 82l-107 -506c53 14 102 42 145 85l163 -158c-92 -103 -220 -164 -360 -172l-41 -192h-222l47 220c-185 65 -299 229 -299 431c0 285 207 526 508 552l42 197h222l-46 -216c111 -33 197 -101 255 -199zM548 668
c0 -85 35 -154 91 -196l103 481c-116 -41 -194 -155 -194 -285z" />
    <glyph glyph-name="sterling" unicode="&#xa3;" horiz-adv-x="1400" 
d="M1184 253l-54 -253h-1044l54 253h152l72 338h-153l47 218h152l27 127c70 330 288 489 559 489c167 0 297 -56 377 -163l-199 -175c-50 54 -115 80 -201 80c-128 0 -231 -70 -274 -279l-17 -79h473l-47 -218h-472l-71 -338h619z" />
    <glyph glyph-name="currency" unicode="&#xa4;" horiz-adv-x="1400" 
d="M1233 1237l123 -155l-173 -143c39 -77 57 -168 45 -264c-12 -98 -52 -187 -112 -259l101 -127l-168 -139l-102 128c-78 -40 -167 -62 -259 -57c-97 5 -182 38 -251 90l-179 -149l-122 156l174 144c-40 77 -56 167 -45 263c12 97 52 185 111 257l-102 129l168 140
l103 -131c79 41 168 63 261 58c94 -5 180 -37 248 -88zM713 428c152 -9 288 105 307 258c19 151 -87 277 -239 285c-154 8 -289 -105 -308 -257s86 -279 240 -286z" />
    <glyph glyph-name="yen" unicode="&#xa5;" horiz-adv-x="1400" 
d="M1190 454l-39 -185h-357l-57 -269h-270l57 269h-355l40 185h355l29 135h-357l41 185h273l-284 626h297l211 -508l424 508h324l-543 -626h280l-41 -185h-355l-29 -135h356z" />
    <glyph glyph-name="brokenbar" unicode="&#xa6;" horiz-adv-x="685" 
d="M667 1400l-148 -694h-260l148 694h260zM461 429l-148 -694h-260l148 694h260z" />
    <glyph glyph-name="section" unicode="&#xa7;" horiz-adv-x="1231" 
d="M1273 1294l-151 -203c-84 51 -195 96 -335 96c-131 0 -236 -50 -250 -122c-20 -107 78 -136 209 -156l64 -10c256 -40 373 -171 332 -364c-24 -109 -89 -183 -177 -233c60 -65 84 -152 63 -254c-51 -251 -299 -367 -551 -367c-188 0 -388 56 -495 160l162 198
c74 -62 201 -121 349 -121c132 0 243 46 259 126c20 99 -68 125 -224 152l-74 12c-219 37 -348 159 -309 343c23 107 87 187 182 242c-63 65 -88 155 -65 270c44 220 262 362 534 362c186 0 355 -50 477 -131zM572 686l-38 6c-62 -25 -107 -67 -118 -121
c-21 -95 83 -118 219 -138l64 -9c24 -4 48 -8 70 -14c56 24 96 62 106 109c21 100 -69 136 -230 157z" />
    <glyph glyph-name="dieresis" unicode="&#xa8;" horiz-adv-x="1070" 
d="M485 1424c94 0 168 -74 168 -168s-74 -166 -168 -166s-166 72 -166 166s72 168 166 168zM916 1424c94 0 168 -74 168 -168s-74 -166 -168 -166s-166 72 -166 166s72 168 166 168z" />
    <glyph glyph-name="copyright" unicode="&#xa9;" horiz-adv-x="1859" 
d="M923 -95c-423 0 -774 319 -774 751c0 453 391 859 884 859c423 0 773 -319 773 -751c0 -453 -390 -859 -883 -859zM1018 1296c-359 0 -637 -299 -637 -626c0 -318 255 -546 557 -546c359 0 637 299 637 626c0 318 -255 546 -557 546zM1389 907l-201 -96
c-35 71 -96 111 -181 111c-129 0 -213 -108 -213 -235c0 -122 84 -187 184 -187c70 0 134 34 183 99l161 -121c-81 -114 -200 -184 -356 -184c-214 0 -400 136 -400 380c0 246 182 453 450 453c171 0 315 -82 373 -220z" />
    <glyph glyph-name="ordfeminine" unicode="&#xaa;" horiz-adv-x="762" 
d="M501 1287c182 0 296 -93 296 -249c0 -25 -3 -51 -9 -79l-81 -381h-187l10 50c-47 -39 -109 -68 -185 -68c-136 0 -226 81 -226 194c0 144 114 241 304 241h178c1 7 1 13 1 20c0 64 -42 102 -136 102c-75 0 -134 -27 -186 -55l-51 156c86 48 167 69 272 69zM407 715
c53 0 110 27 152 67l17 79h-135c-74 0 -117 -32 -117 -81c0 -39 29 -65 83 -65z" />
    <glyph glyph-name="guillemotleft" unicode="&#xab;" horiz-adv-x="1087" 
d="M1088 922l-295 -417l102 -363h-249l-109 390l276 390h275zM639 922l-295 -417l102 -363h-249l-109 390l276 390h275z" />
    <glyph glyph-name="logicalnot" unicode="&#xac;" horiz-adv-x="1200" 
d="M964 108h-228l66 313h-693l47 223h921z" />
    <glyph glyph-name="uni00AD" unicode="&#xad;" horiz-adv-x="794" 
d="M721 646l-48 -228h-581l48 228h581z" />
    <glyph glyph-name="registered" unicode="&#xae;" horiz-adv-x="1051" 
d="M662 1443c235 0 437 -174 437 -424c0 -253 -217 -485 -495 -485c-236 0 -438 174 -438 424c0 255 216 485 496 485zM611 668c190 0 339 166 339 343c0 174 -136 298 -295 298c-194 0 -342 -166 -342 -342c0 -175 138 -299 298 -299zM511 1195h182c109 0 166 -74 150 -148
c-14 -68 -66 -106 -149 -116l108 -143h-131l-93 141h-7l-30 -141h-116zM680 1094h-75l-15 -71h75c33 0 55 9 60 33c6 24 -12 38 -45 38z" />
    <glyph glyph-name="macron" unicode="&#xaf;" horiz-adv-x="1054" 
d="M342 1151l45 209h661l-45 -209h-661z" />
    <glyph glyph-name="degree" unicode="&#xb0;" horiz-adv-x="852" 
d="M517 654c-207 0 -364 162 -364 356c0 225 177 413 418 413c205 0 363 -163 363 -359c0 -222 -183 -410 -417 -410zM530 857c95 0 188 85 188 192c0 92 -73 167 -161 167c-96 0 -188 -84 -188 -191c0 -94 71 -168 161 -168z" />
    <glyph glyph-name="plusminus" unicode="&#xb1;" horiz-adv-x="1200" 
d="M680 317h-228l55 259h-345l46 223h347l69 322h227l-69 -322h347l-47 -223h-347zM1007 223l-48 -223h-920l47 223h921z" />
    <glyph glyph-name="twosuperior" unicode="&#xb2;" horiz-adv-x="727" 
d="M330 1152l-108 131c59 65 148 131 292 131c188 0 275 -120 275 -241c0 -109 -47 -181 -189 -296l-148 -119h282l-38 -180h-566l33 156l315 256c83 67 109 109 109 154c0 47 -38 84 -103 84c-68 0 -107 -32 -154 -76z" />
    <glyph glyph-name="threesuperior" unicode="&#xb3;" horiz-adv-x="719" 
d="M304 1168l-89 138c72 67 161 108 293 108c173 0 279 -99 279 -214c0 -92 -64 -179 -162 -218c65 -32 100 -89 100 -154c0 -145 -123 -265 -336 -265c-135 0 -233 45 -286 120l127 121c37 -45 96 -68 162 -68c91 0 134 42 134 97c0 50 -51 77 -121 77h-90l34 166h89
c93 0 145 42 145 95c0 44 -42 71 -106 71c-69 0 -130 -35 -173 -74z" />
    <glyph glyph-name="acute" unicode="&#xb4;" horiz-adv-x="1000" 
d="M658 1107h-255l232 316h319z" />
    <glyph glyph-name="mu" unicode="&#xb5;" horiz-adv-x="1161" 
d="M188 -400h-256l293 1369h262l-117 -544c-5 -22 -7 -43 -7 -64c0 -80 41 -142 152 -142c109 0 212 61 248 230l110 520h262l-206 -969h-252l22 98c-81 -93 -181 -124 -280 -124c-55 0 -104 10 -146 28z" />
    <glyph glyph-name="paragraph" unicode="&#xb6;" horiz-adv-x="1287" 
d="M464 0l127 596c-254 11 -385 162 -385 365c0 187 109 439 513 439h245l-298 -1400h-202zM769 0l298 1400h202l-298 -1400h-202z" />
    <glyph glyph-name="periodcentered" unicode="&#xb7;" horiz-adv-x="637" 
d="M335 726c103 0 193 -89 193 -193c0 -105 -90 -195 -193 -195c-104 0 -195 90 -195 195c0 104 91 193 195 193z" />
    <glyph glyph-name="cedilla" unicode="&#xb8;" horiz-adv-x="1000" 
d="M578 7l-162 -328h-265l181 328h246z" />
    <glyph glyph-name="onesuperior" unicode="&#xb9;" horiz-adv-x="530" 
d="M612 1413l-177 -835h-195l121 570l-191 -59l42 200z" />
    <glyph glyph-name="ordmasculine" unicode="&#xba;" horiz-adv-x="855" 
d="M548 1287c198 0 346 -133 346 -331c0 -216 -169 -396 -400 -396c-197 0 -346 132 -346 332c0 215 169 395 400 395zM534 1106c-106 0 -187 -90 -187 -203c0 -95 65 -163 158 -163c108 0 191 91 191 204c0 96 -67 162 -162 162z" />
    <glyph glyph-name="guillemotright" unicode="&#xbb;" horiz-adv-x="1087" 
d="M19 143l295 417l-102 363h249l109 -390l-276 -390h-275zM468 143l295 417l-102 363h249l109 -390l-276 -390h-275z" />
    <glyph glyph-name="onequarter" unicode="&#xbc;" horiz-adv-x="1654" 
d="M1461 1400l-1055 -1400h-253l1055 1400h253zM1531 535l-46 -215h104l-38 -181h-105l-29 -139h-195l29 139h-357l33 155l355 527h222l-337 -501h123l19 91l83 124h139zM612 1413l-177 -835h-195l121 570l-191 -59l42 200z" />
    <glyph glyph-name="onehalf" unicode="&#xbd;" horiz-adv-x="1763" 
d="M1461 1400l-1055 -1400h-253l1055 1400h253zM1242 574l-108 131c59 65 148 131 292 131c188 0 275 -120 275 -241c0 -109 -47 -181 -189 -296l-148 -119h282l-38 -180h-566l33 156l315 256c83 67 109 109 109 154c0 47 -38 84 -103 84c-68 0 -107 -32 -154 -76zM612 1413
l-177 -835h-195l121 570l-191 -59l42 200z" />
    <glyph glyph-name="threequarters" unicode="&#xbe;" horiz-adv-x="1820" 
d="M1627 1400l-1055 -1400h-253l1055 1400h253zM1697 535l-46 -215h104l-38 -181h-105l-29 -139h-195l29 139h-357l33 155l355 527h222l-337 -501h123l19 91l83 124h139zM304 1168l-89 138c72 67 161 108 293 108c173 0 279 -99 279 -214c0 -92 -64 -179 -162 -218
c65 -32 100 -89 100 -154c0 -145 -123 -265 -336 -265c-135 0 -233 45 -286 120l127 121c37 -45 96 -68 162 -68c91 0 134 42 134 97c0 50 -51 77 -121 77h-90l34 166h89c93 0 145 42 145 95c0 44 -42 71 -106 71c-69 0 -130 -35 -173 -74z" />
    <glyph glyph-name="questiondown" unicode="&#xbf;" horiz-adv-x="865" 
d="M458 492h240l-72 -340h-109c-199 0 -285 -71 -285 -179c0 -107 119 -161 291 -162c30 0 75 1 99 3l-16 -263c-34 -3 -78 -5 -120 -5c-324 0 -546 146 -546 393c0 242 164 412 486 442zM628 614c-101 0 -189 87 -189 189c0 103 88 192 189 192c102 0 191 -89 191 -191
c0 -103 -89 -190 -191 -190z" />
    <glyph glyph-name="Agrave" unicode="&#xc0;" horiz-adv-x="1465" 
d="M1094 1400l241 -1400h-285l-51 326h-583l-188 -326h-304l831 1400h339zM875 1121l-311 -538h395zM852 1518l-264 315h312l201 -315h-249z" />
    <glyph glyph-name="Aacute" unicode="&#xc1;" horiz-adv-x="1465" 
d="M1094 1400l241 -1400h-285l-51 326h-583l-188 -326h-304l831 1400h339zM875 1121l-311 -538h395zM1008 1517h-255l232 316h319z" />
    <glyph glyph-name="Acircumflex" unicode="&#xc2;" horiz-adv-x="1465" 
d="M1094 1400l241 -1400h-285l-51 326h-583l-188 -326h-304l831 1400h339zM875 1121l-311 -538h395zM1295 1508h-246l-87 155l-148 -155h-264l277 315h315z" />
    <glyph glyph-name="Atilde" unicode="&#xc3;" horiz-adv-x="1465" 
d="M1094 1400l241 -1400h-285l-51 326h-583l-188 -326h-304l831 1400h339zM875 1121l-311 -538h395zM674 1527l-129 158c85 94 170 126 269 126c148 0 195 -70 257 -70c46 0 85 28 135 71l128 -158c-84 -94 -169 -127 -269 -127c-146 0 -193 70 -256 70
c-47 0 -86 -27 -135 -70z" />
    <glyph glyph-name="Adieresis" unicode="&#xc4;" horiz-adv-x="1465" 
d="M1094 1400l241 -1400h-285l-51 326h-583l-188 -326h-304l831 1400h339zM875 1121l-311 -538h395zM745 1834c94 0 168 -74 168 -168s-74 -166 -168 -166s-166 72 -166 166s72 168 166 168zM1176 1834c94 0 168 -74 168 -168s-74 -166 -168 -166s-166 72 -166 166
s72 168 166 168z" />
    <glyph glyph-name="Aring" unicode="&#xc5;" horiz-adv-x="1465" 
d="M1094 1400l241 -1400h-285l-51 326h-583l-188 -326h-304l831 1400h339zM875 1121l-311 -538h395zM953 1486c-143 0 -261 115 -261 258c0 141 118 257 261 257c145 0 263 -116 263 -257c0 -143 -118 -258 -263 -258zM953 1635c58 0 107 47 107 109c0 60 -49 108 -107 108
c-56 0 -105 -48 -105 -108c0 -62 49 -109 105 -109z" />
    <glyph glyph-name="AE" unicode="&#xc6;" horiz-adv-x="2301" 
d="M2139 256l-55 -256h-1028l62 294h-572l-269 -294h-358l1307 1400h1146l-55 -256h-733l-66 -310h706l-55 -256h-705l-69 -322h744zM781 551h392l119 559z" />
    <glyph glyph-name="Ccedilla" unicode="&#xc7;" horiz-adv-x="1451" 
d="M1171 413l183 -189c-121 -137 -272 -223 -456 -244l-147 -301h-282l172 314c-305 65 -510 311 -510 643c0 453 337 789 782 789c156 0 426 -38 580 -306l-232 -154c-77 126 -202 193 -364 193c-259 0 -474 -215 -474 -501c0 -253 178 -414 398 -414c137 0 259 64 350 170
z" />
    <glyph glyph-name="Egrave" unicode="&#xc8;" horiz-adv-x="1294" 
d="M1217 834l-55 -256h-705l-69 -322h744l-55 -256h-1028l298 1400h1018l-55 -256h-733l-66 -310h706zM778 1518l-264 315h312l201 -315h-249z" />
    <glyph glyph-name="Eacute" unicode="&#xc9;" horiz-adv-x="1294" 
d="M1217 834l-55 -256h-705l-69 -322h744l-55 -256h-1028l298 1400h1018l-55 -256h-733l-66 -310h706zM934 1517h-255l232 316h319z" />
    <glyph glyph-name="Ecircumflex" unicode="&#xca;" horiz-adv-x="1294" 
d="M1217 834l-55 -256h-705l-69 -322h744l-55 -256h-1028l298 1400h1018l-55 -256h-733l-66 -310h706zM1221 1508h-246l-87 155l-148 -155h-264l277 315h315z" />
    <glyph glyph-name="Edieresis" unicode="&#xcb;" horiz-adv-x="1294" 
d="M1217 834l-55 -256h-705l-69 -322h744l-55 -256h-1028l298 1400h1018l-55 -256h-733l-66 -310h706zM671 1834c94 0 168 -74 168 -168s-74 -166 -168 -166s-166 72 -166 166s72 168 166 168zM1102 1834c94 0 168 -74 168 -168s-74 -166 -168 -166s-166 72 -166 166
s72 168 166 168z" />
    <glyph glyph-name="Igrave" unicode="&#xcc;" horiz-adv-x="589" 
d="M632 1400l-298 -1400h-285l298 1400h285zM416 1518l-264 315h312l201 -315h-249z" />
    <glyph glyph-name="Iacute" unicode="&#xcd;" horiz-adv-x="589" 
d="M632 1400l-298 -1400h-285l298 1400h285zM572 1517h-255l232 316h319z" />
    <glyph glyph-name="Icircumflex" unicode="&#xce;" horiz-adv-x="589" 
d="M632 1400l-298 -1400h-285l298 1400h285zM859 1508h-246l-87 155l-148 -155h-264l277 315h315z" />
    <glyph glyph-name="Idieresis" unicode="&#xcf;" horiz-adv-x="589" 
d="M632 1400l-298 -1400h-285l298 1400h285zM309 1834c94 0 168 -74 168 -168s-74 -166 -168 -166s-166 72 -166 166s72 168 166 168zM740 1834c94 0 168 -74 168 -168s-74 -166 -168 -166s-166 72 -166 166s72 168 166 168z" />
    <glyph glyph-name="Eth" unicode="&#xd0;" horiz-adv-x="1635" 
d="M958 1400c401 0 646 -248 646 -590c0 -448 -313 -810 -860 -810h-579l123 581h-176l53 250h177l121 569h495zM949 831l-54 -250h-322l-68 -320h272c334 0 532 221 532 516c0 213 -120 362 -383 362h-234l-65 -308h322z" />
    <glyph glyph-name="Ntilde" unicode="&#xd1;" horiz-adv-x="1545" 
d="M1588 1400l-298 -1400h-262l-490 964l-205 -964h-284l298 1400h263l489 -964l205 964h284zM704 1527l-129 158c85 94 170 126 269 126c148 0 195 -70 257 -70c46 0 85 28 135 71l128 -158c-84 -94 -169 -127 -269 -127c-146 0 -193 70 -256 70c-47 0 -86 -27 -135 -70z
" />
    <glyph glyph-name="Ograve" unicode="&#xd2;" horiz-adv-x="1632" 
d="M915 1425c390 0 680 -260 680 -654c0 -434 -325 -797 -786 -797c-390 0 -680 260 -680 655c0 433 325 796 786 796zM897 1158c-282 0 -476 -237 -476 -510c0 -247 168 -406 407 -406c280 0 475 236 475 510c0 246 -169 406 -406 406zM866 1518l-264 315h312l201 -315
h-249z" />
    <glyph glyph-name="Oacute" unicode="&#xd3;" horiz-adv-x="1632" 
d="M915 1425c390 0 680 -260 680 -654c0 -434 -325 -797 -786 -797c-390 0 -680 260 -680 655c0 433 325 796 786 796zM897 1158c-282 0 -476 -237 -476 -510c0 -247 168 -406 407 -406c280 0 475 236 475 510c0 246 -169 406 -406 406zM1022 1517h-255l232 316h319z" />
    <glyph glyph-name="Ocircumflex" unicode="&#xd4;" horiz-adv-x="1632" 
d="M915 1425c390 0 680 -260 680 -654c0 -434 -325 -797 -786 -797c-390 0 -680 260 -680 655c0 433 325 796 786 796zM897 1158c-282 0 -476 -237 -476 -510c0 -247 168 -406 407 -406c280 0 475 236 475 510c0 246 -169 406 -406 406zM1309 1508h-246l-87 155l-148 -155
h-264l277 315h315z" />
    <glyph glyph-name="Otilde" unicode="&#xd5;" horiz-adv-x="1632" 
d="M915 1425c390 0 680 -260 680 -654c0 -434 -325 -797 -786 -797c-390 0 -680 260 -680 655c0 433 325 796 786 796zM897 1158c-282 0 -476 -237 -476 -510c0 -247 168 -406 407 -406c280 0 475 236 475 510c0 246 -169 406 -406 406zM688 1527l-129 158
c85 94 170 126 269 126c148 0 195 -70 257 -70c46 0 85 28 135 71l128 -158c-84 -94 -169 -127 -269 -127c-146 0 -193 70 -256 70c-47 0 -86 -27 -135 -70z" />
    <glyph glyph-name="Odieresis" unicode="&#xd6;" horiz-adv-x="1632" 
d="M915 1425c390 0 680 -260 680 -654c0 -434 -325 -797 -786 -797c-390 0 -680 260 -680 655c0 433 325 796 786 796zM897 1158c-282 0 -476 -237 -476 -510c0 -247 168 -406 407 -406c280 0 475 236 475 510c0 246 -169 406 -406 406zM759 1834c94 0 168 -74 168 -168
s-74 -166 -168 -166s-166 72 -166 166s72 168 166 168zM1190 1834c94 0 168 -74 168 -168s-74 -166 -168 -166s-166 72 -166 166s72 168 166 168z" />
    <glyph glyph-name="multiply" unicode="&#xd7;" horiz-adv-x="1200" 
d="M979 254l-178 -147l-210 266l-352 -292l-137 172l338 279l-219 279l178 147l210 -266l352 291l137 -172l-338 -278z" />
    <glyph glyph-name="Oslash" unicode="&#xd8;" horiz-adv-x="1632" 
d="M915 1425c173 0 327 -52 444 -143l165 147l152 -172l-167 -148c55 -96 86 -210 86 -338c0 -434 -325 -797 -786 -797c-166 0 -313 47 -428 131l-150 -134l-152 171l146 130c-61 99 -96 220 -96 357c0 433 325 796 786 796zM897 1158c-282 0 -476 -237 -476 -510
c0 -64 11 -122 32 -173l687 612c-66 46 -149 71 -243 71zM1303 752c0 55 -9 106 -25 151l-677 -602c63 -38 140 -59 227 -59c280 0 475 236 475 510z" />
    <glyph glyph-name="Ugrave" unicode="&#xd9;" horiz-adv-x="1455" 
d="M1513 1400l-182 -861c-82 -390 -315 -564 -660 -564c-309 0 -532 151 -532 450c0 46 6 97 17 151l176 824h286l-177 -827c-8 -38 -12 -72 -12 -102c0 -160 103 -229 263 -229c173 0 311 93 360 325l176 833h285zM850 1518l-264 315h312l201 -315h-249z" />
    <glyph glyph-name="Uacute" unicode="&#xda;" horiz-adv-x="1455" 
d="M1513 1400l-182 -861c-82 -390 -315 -564 -660 -564c-309 0 -532 151 -532 450c0 46 6 97 17 151l176 824h286l-177 -827c-8 -38 -12 -72 -12 -102c0 -160 103 -229 263 -229c173 0 311 93 360 325l176 833h285zM1006 1517h-255l232 316h319z" />
    <glyph glyph-name="Ucircumflex" unicode="&#xdb;" horiz-adv-x="1455" 
d="M1513 1400l-182 -861c-82 -390 -315 -564 -660 -564c-309 0 -532 151 -532 450c0 46 6 97 17 151l176 824h286l-177 -827c-8 -38 -12 -72 -12 -102c0 -160 103 -229 263 -229c173 0 311 93 360 325l176 833h285zM1293 1508h-246l-87 155l-148 -155h-264l277 315h315z" />
    <glyph glyph-name="Udieresis" unicode="&#xdc;" horiz-adv-x="1455" 
d="M1513 1400l-182 -861c-82 -390 -315 -564 -660 -564c-309 0 -532 151 -532 450c0 46 6 97 17 151l176 824h286l-177 -827c-8 -38 -12 -72 -12 -102c0 -160 103 -229 263 -229c173 0 311 93 360 325l176 833h285zM743 1834c94 0 168 -74 168 -168s-74 -166 -168 -166
s-166 72 -166 166s72 168 166 168zM1174 1834c94 0 168 -74 168 -168s-74 -166 -168 -166s-166 72 -166 166s72 168 166 168z" />
    <glyph glyph-name="Yacute" unicode="&#xdd;" horiz-adv-x="1347" 
d="M1534 1400l-702 -848l-118 -552h-285l122 576l-348 824h298l230 -584l463 584h340zM931 1517h-255l232 316h319z" />
    <glyph glyph-name="Thorn" unicode="&#xde;" horiz-adv-x="1294" 
d="M632 1400l-51 -240h231c302 0 463 -168 463 -390c0 -300 -213 -498 -582 -498h-301l-58 -272h-285l298 1400h285zM778 902h-252l-80 -375h261c182 0 280 77 280 214c0 101 -70 161 -209 161z" />
    <glyph glyph-name="germandbls" unicode="&#xdf;" horiz-adv-x="1205" 
d="M21 0l210 993c63 296 226 472 546 472c279 0 441 -166 441 -366c0 -171 -114 -325 -283 -382c130 -42 215 -201 183 -358c-59 -286 -257 -384 -508 -384c-89 0 -163 14 -216 36l74 218c36 -16 86 -26 134 -26c125 0 231 43 256 186c22 127 -59 215 -227 215h-42l49 225
h10c95 0 163 17 216 57c55 41 85 117 85 175c0 98 -85 164 -186 164c-142 0 -235 -74 -272 -250l-207 -975h-263z" />
    <glyph glyph-name="agrave" unicode="&#xe0;" horiz-adv-x="1199" 
d="M600 995c134 0 233 -45 292 -124l22 98h259l-206 -969h-254l17 80c-64 -63 -147 -106 -262 -106c-235 0 -409 195 -409 446c0 276 205 575 541 575zM548 218c144 0 256 113 274 264c20 162 -77 270 -216 270c-158 0 -277 -139 -277 -305c0 -139 91 -229 219 -229z
M608 1108l-264 315h312l201 -315h-249z" />
    <glyph glyph-name="aacute" unicode="&#xe1;" horiz-adv-x="1199" 
d="M600 995c134 0 233 -45 292 -124l22 98h259l-206 -969h-254l17 80c-64 -63 -147 -106 -262 -106c-235 0 -409 195 -409 446c0 276 205 575 541 575zM548 218c144 0 256 113 274 264c20 162 -77 270 -216 270c-158 0 -277 -139 -277 -305c0 -139 91 -229 219 -229z
M766 1107h-255l232 316h319z" />
    <glyph glyph-name="acircumflex" unicode="&#xe2;" horiz-adv-x="1199" 
d="M600 995c134 0 233 -45 292 -124l22 98h259l-206 -969h-254l17 80c-64 -63 -147 -106 -262 -106c-235 0 -409 195 -409 446c0 276 205 575 541 575zM548 218c144 0 256 113 274 264c20 162 -77 270 -216 270c-158 0 -277 -139 -277 -305c0 -139 91 -229 219 -229z
M1051 1098h-246l-87 155l-148 -155h-264l277 315h315z" />
    <glyph glyph-name="atilde" unicode="&#xe3;" horiz-adv-x="1199" 
d="M600 995c134 0 233 -45 292 -124l22 98h259l-206 -969h-254l17 80c-64 -63 -147 -106 -262 -106c-235 0 -409 195 -409 446c0 276 205 575 541 575zM548 218c144 0 256 113 274 264c20 162 -77 270 -216 270c-158 0 -277 -139 -277 -305c0 -139 91 -229 219 -229z
M429 1117l-129 158c85 94 170 126 269 126c148 0 195 -70 257 -70c46 0 85 28 135 71l128 -158c-84 -94 -169 -127 -269 -127c-146 0 -193 70 -256 70c-47 0 -86 -27 -135 -70z" />
    <glyph glyph-name="adieresis" unicode="&#xe4;" horiz-adv-x="1199" 
d="M600 995c134 0 233 -45 292 -124l22 98h259l-206 -969h-254l17 80c-64 -63 -147 -106 -262 -106c-235 0 -409 195 -409 446c0 276 205 575 541 575zM548 218c144 0 256 113 274 264c20 162 -77 270 -216 270c-158 0 -277 -139 -277 -305c0 -139 91 -229 219 -229z
M500 1424c94 0 168 -74 168 -168s-74 -166 -168 -166s-166 72 -166 166s72 168 166 168zM931 1424c94 0 168 -74 168 -168s-74 -166 -168 -166s-166 72 -166 166s72 168 166 168z" />
    <glyph glyph-name="aring" unicode="&#xe5;" horiz-adv-x="1199" 
d="M600 995c134 0 233 -45 292 -124l22 98h259l-206 -969h-254l17 80c-64 -63 -147 -106 -262 -106c-235 0 -409 195 -409 446c0 276 205 575 541 575zM548 218c144 0 256 113 274 264c20 162 -77 270 -216 270c-158 0 -277 -139 -277 -305c0 -139 91 -229 219 -229z
M697 1076c-143 0 -261 115 -261 258c0 141 118 257 261 257c145 0 263 -116 263 -257c0 -143 -118 -258 -263 -258zM697 1225c58 0 107 47 107 109c0 60 -49 108 -107 108c-56 0 -105 -48 -105 -108c0 -62 49 -109 105 -109z" />
    <glyph glyph-name="ae" unicode="&#xe6;" horiz-adv-x="1700" 
d="M1403 281l134 -170c-105 -93 -230 -137 -396 -137c-169 0 -295 61 -371 161c-102 -97 -228 -160 -392 -160c-211 0 -342 106 -342 272c0 204 163 331 419 331h257c2 13 3 26 3 39c0 92 -59 148 -197 148c-102 0 -182 -35 -252 -73l-79 205c119 69 233 98 378 98
c150 0 262 -47 324 -142c85 92 201 142 350 142c244 0 414 -154 414 -395c0 -66 -17 -152 -39 -202h-673c4 -129 86 -202 222 -202c89 0 167 26 240 85zM435 185c82 0 182 38 261 119c-6 30 -9 62 -9 95v3h-206c-108 0 -173 -46 -173 -120c0 -60 46 -97 127 -97zM1224 770
c-142 0 -218 -97 -254 -198h430c1 7 1 15 1 22c0 116 -70 176 -177 176z" />
    <glyph glyph-name="ccedilla" unicode="&#xe7;" horiz-adv-x="1023" 
d="M1031 767l-219 -124c-65 92 -145 108 -207 108c-158 0 -274 -136 -274 -297c0 -138 93 -234 215 -234c79 0 151 31 210 94l171 -161c-81 -92 -187 -151 -307 -169l-150 -305h-265l176 320c-196 57 -318 225 -318 437c0 303 229 557 555 557c193 0 333 -80 413 -226z" />
    <glyph glyph-name="egrave" unicode="&#xe8;" horiz-adv-x="1072" 
d="M776 281l134 -170c-105 -93 -230 -137 -396 -137c-292 0 -459 180 -459 425s161 596 557 596c244 0 413 -154 413 -395c0 -66 -17 -152 -38 -202h-673c4 -129 86 -202 222 -202c88 0 166 26 240 85zM597 770c-140 0 -216 -94 -253 -194h429c1 6 1 12 1 18
c0 116 -70 176 -177 176zM569 1108l-264 315h312l201 -315h-249z" />
    <glyph glyph-name="eacute" unicode="&#xe9;" horiz-adv-x="1072" 
d="M776 281l134 -170c-105 -93 -230 -137 -396 -137c-292 0 -459 180 -459 425s161 596 557 596c244 0 413 -154 413 -395c0 -66 -17 -152 -38 -202h-673c4 -129 86 -202 222 -202c88 0 166 26 240 85zM597 770c-140 0 -216 -94 -253 -194h429c1 6 1 12 1 18
c0 116 -70 176 -177 176zM727 1107h-255l232 316h319z" />
    <glyph glyph-name="ecircumflex" unicode="&#xea;" horiz-adv-x="1072" 
d="M776 281l134 -170c-105 -93 -230 -137 -396 -137c-292 0 -459 180 -459 425s161 596 557 596c244 0 413 -154 413 -395c0 -66 -17 -152 -38 -202h-673c4 -129 86 -202 222 -202c88 0 166 26 240 85zM597 770c-140 0 -216 -94 -253 -194h429c1 6 1 12 1 18
c0 116 -70 176 -177 176zM1012 1098h-246l-87 155l-148 -155h-264l277 315h315z" />
    <glyph glyph-name="edieresis" unicode="&#xeb;" horiz-adv-x="1072" 
d="M776 281l134 -170c-105 -93 -230 -137 -396 -137c-292 0 -459 180 -459 425s161 596 557 596c244 0 413 -154 413 -395c0 -66 -17 -152 -38 -202h-673c4 -129 86 -202 222 -202c88 0 166 26 240 85zM597 770c-140 0 -216 -94 -253 -194h429c1 6 1 12 1 18
c0 116 -70 176 -177 176zM461 1424c94 0 168 -74 168 -168s-74 -166 -168 -166s-166 72 -166 166s72 168 166 168zM892 1424c94 0 168 -74 168 -168s-74 -166 -168 -166s-166 72 -166 166s72 168 166 168z" />
    <glyph glyph-name="igrave" unicode="&#xec;" horiz-adv-x="521" 
d="M495 969l-206 -969h-263l206 969h263zM311 1108l-264 315h312l201 -315h-249z" />
    <glyph glyph-name="iacute" unicode="&#xed;" horiz-adv-x="521" 
d="M495 969l-206 -969h-263l206 969h263zM469 1107h-255l232 316h319z" />
    <glyph glyph-name="icircumflex" unicode="&#xee;" horiz-adv-x="521" 
d="M495 969l-206 -969h-263l206 969h263zM754 1098h-246l-87 155l-148 -155h-264l277 315h315z" />
    <glyph glyph-name="idieresis" unicode="&#xef;" horiz-adv-x="521" 
d="M495 969l-206 -969h-263l206 969h263zM203 1424c94 0 168 -74 168 -168s-74 -166 -168 -166s-166 72 -166 166s72 168 166 168zM634 1424c94 0 168 -74 168 -168s-74 -166 -168 -166s-166 72 -166 166s72 168 166 168z" />
    <glyph glyph-name="eth" unicode="&#xf0;" horiz-adv-x="1170" 
d="M948 1430l81 -141l-158 -90c160 -171 240 -387 240 -610c0 -42 -3 -84 -9 -131c-35 -281 -264 -484 -549 -484c-289 0 -494 191 -494 448c0 285 226 518 501 518c111 0 204 -35 272 -96c-35 91 -94 171 -176 241l-211 -120l-81 141l147 82c-52 30 -108 58 -169 84
l141 186c98 -39 185 -88 261 -144zM599 709c-185 0 -271 -154 -271 -274c0 -133 99 -228 241 -228c200 0 275 166 275 272c0 136 -101 230 -245 230z" />
    <glyph glyph-name="ntilde" unicode="&#xf1;" horiz-adv-x="1161" 
d="M742 995c202 0 326 -135 326 -325c0 -33 -3 -69 -11 -105l-121 -565h-262l117 544c5 22 7 43 7 64c0 80 -41 142 -152 142c-109 0 -212 -61 -248 -230l-110 -520h-262l206 969h252l-22 -98c81 93 181 124 280 124zM440 1117l-129 158c85 94 170 126 269 126
c148 0 195 -70 257 -70c46 0 85 28 135 71l128 -158c-84 -94 -169 -127 -269 -127c-146 0 -193 70 -256 70c-47 0 -86 -27 -135 -70z" />
    <glyph glyph-name="ograve" unicode="&#xf2;" horiz-adv-x="1171" 
d="M624 995c279 0 484 -189 484 -464c0 -304 -238 -557 -561 -557c-278 0 -484 188 -484 465c0 303 238 556 561 556zM606 752c-157 0 -276 -133 -276 -297c0 -140 96 -238 233 -238c158 0 278 134 278 297c0 140 -96 238 -235 238zM592 1107l-264 315h312l201 -315h-249z
" />
    <glyph glyph-name="oacute" unicode="&#xf3;" horiz-adv-x="1171" 
d="M624 995c279 0 484 -189 484 -464c0 -304 -238 -557 -561 -557c-278 0 -484 188 -484 465c0 303 238 556 561 556zM606 752c-157 0 -276 -133 -276 -297c0 -140 96 -238 233 -238c158 0 278 134 278 297c0 140 -96 238 -235 238zM750 1106h-255l232 316h319z" />
    <glyph glyph-name="ocircumflex" unicode="&#xf4;" horiz-adv-x="1171" 
d="M624 995c279 0 484 -189 484 -464c0 -304 -238 -557 -561 -557c-278 0 -484 188 -484 465c0 303 238 556 561 556zM606 752c-157 0 -276 -133 -276 -297c0 -140 96 -238 233 -238c158 0 278 134 278 297c0 140 -96 238 -235 238zM1035 1097h-246l-87 155l-148 -155h-264
l277 315h315z" />
    <glyph glyph-name="otilde" unicode="&#xf5;" horiz-adv-x="1171" 
d="M624 995c279 0 484 -189 484 -464c0 -304 -238 -557 -561 -557c-278 0 -484 188 -484 465c0 303 238 556 561 556zM606 752c-157 0 -276 -133 -276 -297c0 -140 96 -238 233 -238c158 0 278 134 278 297c0 140 -96 238 -235 238zM413 1116l-129 158
c85 94 170 126 269 126c148 0 195 -70 257 -70c46 0 85 28 135 71l128 -158c-84 -94 -169 -127 -269 -127c-146 0 -193 70 -256 70c-47 0 -86 -27 -135 -70z" />
    <glyph glyph-name="odieresis" unicode="&#xf6;" horiz-adv-x="1171" 
d="M624 995c279 0 484 -189 484 -464c0 -304 -238 -557 -561 -557c-278 0 -484 188 -484 465c0 303 238 556 561 556zM606 752c-157 0 -276 -133 -276 -297c0 -140 96 -238 233 -238c158 0 278 134 278 297c0 140 -96 238 -235 238zM484 1423c94 0 168 -74 168 -168
s-74 -166 -168 -166s-166 72 -166 166s72 168 166 168zM915 1423c94 0 168 -74 168 -168s-74 -166 -168 -166s-166 72 -166 166s72 168 166 168z" />
    <glyph glyph-name="divide" unicode="&#xf7;" horiz-adv-x="1200" 
d="M1096 654l-47 -223h-921l47 223h921zM675 1058c87 0 162 -74 162 -162s-75 -164 -162 -164c-88 0 -164 76 -164 164s76 162 164 162zM562 354c87 0 162 -75 162 -163s-75 -164 -162 -164c-88 0 -164 76 -164 164s76 163 164 163z" />
    <glyph glyph-name="oslash" unicode="&#xf8;" horiz-adv-x="1171" 
d="M624 995c111 0 210 -30 290 -83l124 110l135 -151l-122 -108c37 -67 58 -145 58 -232c0 -304 -238 -557 -561 -557c-111 0 -210 29 -289 82l-124 -110l-135 151l121 108c-37 67 -58 146 -58 234c0 303 238 556 561 556zM607 759c-161 0 -283 -137 -283 -305
c0 -26 3 -51 9 -73l393 350c-35 18 -75 28 -119 28zM848 515c0 24 -3 46 -8 68l-391 -348c33 -16 71 -25 113 -25c163 0 286 137 286 305z" />
    <glyph glyph-name="ugrave" unicode="&#xf9;" horiz-adv-x="1152" 
d="M1134 969l-121 -568c-67 -316 -278 -426 -516 -426c-231 0 -398 123 -398 352c0 37 5 76 14 118l111 524h263l-116 -544c-5 -24 -7 -45 -7 -64c0 -100 64 -143 157 -143c114 0 207 74 239 229l110 522h264zM626 1108l-264 315h312l201 -315h-249z" />
    <glyph glyph-name="uacute" unicode="&#xfa;" horiz-adv-x="1152" 
d="M1134 969l-121 -568c-67 -316 -278 -426 -516 -426c-231 0 -398 123 -398 352c0 37 5 76 14 118l111 524h263l-116 -544c-5 -24 -7 -45 -7 -64c0 -100 64 -143 157 -143c114 0 207 74 239 229l110 522h264zM784 1107h-255l232 316h319z" />
    <glyph glyph-name="ucircumflex" unicode="&#xfb;" horiz-adv-x="1152" 
d="M1134 969l-121 -568c-67 -316 -278 -426 -516 -426c-231 0 -398 123 -398 352c0 37 5 76 14 118l111 524h263l-116 -544c-5 -24 -7 -45 -7 -64c0 -100 64 -143 157 -143c114 0 207 74 239 229l110 522h264zM1069 1098h-246l-87 155l-148 -155h-264l277 315h315z" />
    <glyph glyph-name="udieresis" unicode="&#xfc;" horiz-adv-x="1152" 
d="M1134 969l-121 -568c-67 -316 -278 -426 -516 -426c-231 0 -398 123 -398 352c0 37 5 76 14 118l111 524h263l-116 -544c-5 -24 -7 -45 -7 -64c0 -100 64 -143 157 -143c114 0 207 74 239 229l110 522h264zM518 1424c94 0 168 -74 168 -168s-74 -166 -168 -166
s-166 72 -166 166s72 168 166 168zM949 1424c94 0 168 -74 168 -168s-74 -166 -168 -166s-166 72 -166 166s72 168 166 168z" />
    <glyph glyph-name="yacute" unicode="&#xfd;" horiz-adv-x="1120" 
d="M1216 969l-943 -1373h-298l451 638l-313 735h282l196 -493l328 493h297zM752 1107h-255l232 316h319z" />
    <glyph glyph-name="thorn" unicode="&#xfe;" horiz-adv-x="1201" 
d="M601 -25c-135 0 -232 44 -292 123l-105 -498h-263l391 1840h263l-109 -509c57 40 130 65 228 65c246 0 428 -195 428 -447c0 -276 -206 -574 -541 -574zM652 751c-143 0 -256 -112 -274 -263c-20 -162 77 -270 216 -270c159 0 278 139 278 304c0 140 -92 229 -220 229z
" />
    <glyph glyph-name="ydieresis" unicode="&#xff;" horiz-adv-x="1120" 
d="M1216 969l-943 -1373h-298l451 638l-313 735h282l196 -493l328 493h297zM486 1424c94 0 168 -74 168 -168s-74 -166 -168 -166s-166 72 -166 166s72 168 166 168zM917 1424c94 0 168 -74 168 -168s-74 -166 -168 -166s-166 72 -166 166s72 168 166 168z" />
    <glyph glyph-name="Amacron" unicode="&#x100;" horiz-adv-x="1465" 
d="M1094 1400l241 -1400h-285l-51 326h-583l-188 -326h-304l831 1400h339zM875 1121l-311 -538h395zM615 1561l45 209h661l-45 -209h-661z" />
    <glyph glyph-name="amacron" unicode="&#x101;" horiz-adv-x="1199" 
d="M600 995c134 0 233 -45 292 -124l22 98h259l-206 -969h-254l17 80c-64 -63 -147 -106 -262 -106c-235 0 -409 195 -409 446c0 276 205 575 541 575zM548 218c144 0 256 113 274 264c20 162 -77 270 -216 270c-158 0 -277 -139 -277 -305c0 -139 91 -229 219 -229z
M369 1151l45 209h661l-45 -209h-661z" />
    <glyph glyph-name="Abreve" unicode="&#x102;" horiz-adv-x="1465" 
d="M1094 1400l241 -1400h-285l-51 326h-583l-188 -326h-304l831 1400h339zM875 1121l-311 -538h395zM612 1809l200 58c11 -111 60 -164 149 -164c84 0 151 53 206 164l197 -58c-97 -206 -231 -315 -427 -315c-187 0 -314 111 -325 315z" />
    <glyph glyph-name="abreve" unicode="&#x103;" horiz-adv-x="1199" 
d="M600 995c134 0 233 -45 292 -124l22 98h259l-206 -969h-254l17 80c-64 -63 -147 -106 -262 -106c-235 0 -409 195 -409 446c0 276 205 575 541 575zM548 218c144 0 256 113 274 264c20 162 -77 270 -216 270c-158 0 -277 -139 -277 -305c0 -139 91 -229 219 -229z
M358 1399l200 58c11 -111 60 -164 149 -164c84 0 151 53 206 164l197 -58c-97 -206 -231 -315 -427 -315c-187 0 -314 111 -325 315z" />
    <glyph glyph-name="Aogonek" unicode="&#x104;" horiz-adv-x="1465" 
d="M1184 -177l109 -153c-61 -54 -141 -89 -231 -89c-141 0 -245 69 -245 186c0 109 79 188 229 260l-47 299h-583l-188 -326h-304l831 1400h339l241 -1400h-100c-143 -65 -184 -122 -184 -167c0 -29 21 -45 53 -45c26 0 52 13 80 35zM875 1121l-311 -538h395z" />
    <glyph glyph-name="aogonek" unicode="&#x105;" horiz-adv-x="1199" 
d="M896 -177l109 -153c-61 -54 -141 -89 -231 -89c-141 0 -245 69 -245 186c0 98 64 172 185 237l16 76c-64 -63 -147 -106 -262 -106c-235 0 -409 195 -409 446c0 276 205 575 541 575c134 0 233 -45 292 -124l22 98h259l-206 -969h-20c-143 -65 -184 -122 -184 -167
c0 -29 21 -45 53 -45c26 0 52 13 80 35zM548 218c144 0 256 113 274 264c20 162 -77 270 -216 270c-158 0 -277 -139 -277 -305c0 -139 91 -229 219 -229z" />
    <glyph glyph-name="Cacute" unicode="&#x106;" horiz-adv-x="1451" 
d="M1158 400l196 -176c-140 -158 -321 -249 -545 -249c-395 0 -678 271 -678 661c0 453 337 789 782 789c156 0 426 -38 580 -306l-232 -154c-77 126 -202 193 -364 193c-259 0 -474 -215 -474 -501c0 -253 178 -414 398 -414c131 0 247 57 337 157zM1007 1517h-255l232 316
h319z" />
    <glyph glyph-name="cacute" unicode="&#x107;" horiz-adv-x="1023" 
d="M1031 767l-219 -124c-65 92 -145 108 -207 108c-158 0 -274 -136 -274 -297c0 -138 93 -234 215 -234c79 0 151 31 210 94l171 -161c-99 -113 -238 -176 -391 -176c-284 0 -473 196 -473 459c0 303 229 557 555 557c193 0 333 -80 413 -226zM718 1107h-255l232 316h319z
" />
    <glyph glyph-name="Ccircumflex" unicode="&#x108;" horiz-adv-x="1451" 
d="M1158 400l196 -176c-140 -158 -321 -249 -545 -249c-395 0 -678 271 -678 661c0 453 337 789 782 789c156 0 426 -38 580 -306l-232 -154c-77 126 -202 193 -364 193c-259 0 -474 -215 -474 -501c0 -253 178 -414 398 -414c131 0 247 57 337 157zM1294 1508h-246l-87 155
l-148 -155h-264l277 315h315z" />
    <glyph glyph-name="ccircumflex" unicode="&#x109;" horiz-adv-x="1023" 
d="M1031 767l-219 -124c-65 92 -145 108 -207 108c-158 0 -274 -136 -274 -297c0 -138 93 -234 215 -234c79 0 151 31 210 94l171 -161c-99 -113 -238 -176 -391 -176c-284 0 -473 196 -473 459c0 303 229 557 555 557c193 0 333 -80 413 -226zM1003 1098h-246l-87 155
l-148 -155h-264l277 315h315z" />
    <glyph glyph-name="Cdotaccent" unicode="&#x10a;" horiz-adv-x="1451" 
d="M1158 400l196 -176c-140 -158 -321 -249 -545 -249c-395 0 -678 271 -678 661c0 453 337 789 782 789c156 0 426 -38 580 -306l-232 -154c-77 126 -202 193 -364 193c-259 0 -474 -215 -474 -501c0 -253 178 -414 398 -414c131 0 247 57 337 157zM954 1849
c99 0 175 -78 175 -177c0 -98 -76 -174 -175 -174s-174 76 -174 174c0 99 75 177 174 177z" />
    <glyph glyph-name="cdotaccent" unicode="&#x10b;" horiz-adv-x="1023" 
d="M1031 767l-219 -124c-65 92 -145 108 -207 108c-158 0 -274 -136 -274 -297c0 -138 93 -234 215 -234c79 0 151 31 210 94l171 -161c-99 -113 -238 -176 -391 -176c-284 0 -473 196 -473 459c0 303 229 557 555 557c193 0 333 -80 413 -226zM679 1454
c94 0 167 -74 167 -168s-73 -166 -167 -166s-166 72 -166 166s72 168 166 168z" />
    <glyph glyph-name="Ccaron" unicode="&#x10c;" horiz-adv-x="1451" 
d="M1158 400l196 -176c-140 -158 -321 -249 -545 -249c-395 0 -678 271 -678 661c0 453 337 789 782 789c156 0 426 -38 580 -306l-232 -154c-77 126 -202 193 -364 193c-259 0 -474 -215 -474 -501c0 -253 178 -414 398 -414c131 0 247 57 337 157zM620 1823h246l86 -155
l149 155h264l-277 -315h-315z" />
    <glyph glyph-name="ccaron" unicode="&#x10d;" horiz-adv-x="1023" 
d="M1031 767l-219 -124c-65 92 -145 108 -207 108c-158 0 -274 -136 -274 -297c0 -138 93 -234 215 -234c79 0 151 31 210 94l171 -161c-99 -113 -238 -176 -391 -176c-284 0 -473 196 -473 459c0 303 229 557 555 557c193 0 333 -80 413 -226zM330 1413h246l86 -155
l149 155h264l-277 -315h-315z" />
    <glyph glyph-name="Dcaron" unicode="&#x10e;" horiz-adv-x="1519" 
d="M347 1400h495c401 0 646 -248 646 -590c0 -448 -313 -810 -860 -810h-579zM810 1139h-234l-187 -878h272c334 0 532 221 532 516c0 213 -120 362 -383 362zM565 1823h246l86 -155l149 155h264l-277 -315h-315z" />
    <glyph glyph-name="dcaron" unicode="&#x10f;" horiz-adv-x="1343" 
d="M600 995c134 0 233 -45 292 -124l122 569h262l-306 -1440h-257l17 79c-65 -62 -147 -105 -262 -105c-234 0 -409 195 -409 446c0 276 205 575 541 575zM548 218c144 0 256 113 274 264c20 162 -77 270 -216 270c-158 0 -277 -139 -277 -305c0 -139 91 -229 219 -229z
M1500 1012h-206l91 428h273z" />
    <glyph glyph-name="Dcroat" unicode="&#x110;" horiz-adv-x="1635" 
d="M958 1400c401 0 646 -248 646 -590c0 -448 -313 -810 -860 -810h-579l123 581h-176l53 250h177l121 569h495zM949 831l-54 -250h-322l-68 -320h272c334 0 532 221 532 516c0 213 -120 362 -383 362h-234l-65 -308h322z" />
    <glyph glyph-name="dcroat" unicode="&#x111;" horiz-adv-x="1209" 
d="M1382 1305l-44 -215h-137l-231 -1090h-257l17 79c-65 -62 -147 -105 -262 -105c-234 0 -409 195 -409 446c0 276 205 575 541 575c134 0 233 -45 292 -124l47 219h-329l43 215h332l29 135h262l-29 -135h135zM548 218c144 0 256 113 274 264c20 162 -77 270 -216 270
c-158 0 -277 -139 -277 -305c0 -139 91 -229 219 -229z" />
    <glyph glyph-name="Emacron" unicode="&#x112;" horiz-adv-x="1294" 
d="M1217 834l-55 -256h-705l-69 -322h744l-55 -256h-1028l298 1400h1018l-55 -256h-733l-66 -310h706zM541 1561l45 209h661l-45 -209h-661z" />
    <glyph glyph-name="emacron" unicode="&#x113;" horiz-adv-x="1072" 
d="M776 281l134 -170c-105 -93 -230 -137 -396 -137c-292 0 -459 180 -459 425s161 596 557 596c244 0 413 -154 413 -395c0 -66 -17 -152 -38 -202h-673c4 -129 86 -202 222 -202c88 0 166 26 240 85zM597 770c-140 0 -216 -94 -253 -194h429c1 6 1 12 1 18
c0 116 -70 176 -177 176zM330 1151l45 209h661l-45 -209h-661z" />
    <glyph glyph-name="Ebreve" unicode="&#x114;" horiz-adv-x="1294" 
d="M1217 834l-55 -256h-705l-69 -322h744l-55 -256h-1028l298 1400h1018l-55 -256h-733l-66 -310h706zM538 1809l200 58c11 -111 60 -164 149 -164c84 0 151 53 206 164l197 -58c-97 -206 -231 -315 -427 -315c-187 0 -314 111 -325 315z" />
    <glyph glyph-name="ebreve" unicode="&#x115;" horiz-adv-x="1072" 
d="M776 281l134 -170c-105 -93 -230 -137 -396 -137c-292 0 -459 180 -459 425s161 596 557 596c244 0 413 -154 413 -395c0 -66 -17 -152 -38 -202h-673c4 -129 86 -202 222 -202c88 0 166 26 240 85zM597 770c-140 0 -216 -94 -253 -194h429c1 6 1 12 1 18
c0 116 -70 176 -177 176zM319 1399l200 58c11 -111 60 -164 149 -164c84 0 151 53 206 164l197 -58c-97 -206 -231 -315 -427 -315c-187 0 -314 111 -325 315z" />
    <glyph glyph-name="Edotaccent" unicode="&#x116;" horiz-adv-x="1294" 
d="M1217 834l-55 -256h-705l-69 -322h744l-55 -256h-1028l298 1400h1018l-55 -256h-733l-66 -310h706zM881 1849c99 0 175 -78 175 -177c0 -98 -76 -174 -175 -174s-174 76 -174 174c0 99 75 177 174 177z" />
    <glyph glyph-name="edotaccent" unicode="&#x117;" horiz-adv-x="1072" 
d="M776 281l134 -170c-105 -93 -230 -137 -396 -137c-292 0 -459 180 -459 425s161 596 557 596c244 0 413 -154 413 -395c0 -66 -17 -152 -38 -202h-673c4 -129 86 -202 222 -202c88 0 166 26 240 85zM597 770c-140 0 -216 -94 -253 -194h429c1 6 1 12 1 18
c0 116 -70 176 -177 176zM688 1454c94 0 167 -74 167 -168s-73 -166 -167 -166s-166 72 -166 166s72 168 166 168z" />
    <glyph glyph-name="Eogonek" unicode="&#x118;" horiz-adv-x="1294" 
d="M1217 834l-55 -256h-705l-69 -322h744l-55 -256h-145c-135 -56 -164 -112 -164 -155c0 -34 28 -57 77 -57c39 0 75 14 111 38l109 -158c-75 -56 -163 -86 -258 -86c-175 0 -289 86 -289 209c0 84 40 152 142 209h-611l298 1400h1018l-55 -256h-733l-66 -310h706z" />
    <glyph glyph-name="eogonek" unicode="&#x119;" horiz-adv-x="1072" 
d="M748 -175l117 -154c-69 -58 -155 -90 -249 -90c-181 0 -303 94 -303 225c0 63 24 123 97 176c-228 38 -355 203 -355 417c0 245 161 596 557 596c244 0 413 -154 413 -395c0 -66 -17 -152 -38 -202h-673c4 -129 86 -202 222 -202c88 0 166 26 240 85l134 -170
c-57 -51 -119 -85 -191 -110c-140 -49 -162 -109 -162 -149c0 -39 30 -65 83 -65c39 0 73 14 108 38zM597 770c-140 0 -216 -94 -253 -194h429c1 6 1 12 1 18c0 116 -70 176 -177 176z" />
    <glyph glyph-name="Ecaron" unicode="&#x11a;" horiz-adv-x="1294" 
d="M1217 834l-55 -256h-705l-69 -322h744l-55 -256h-1028l298 1400h1018l-55 -256h-733l-66 -310h706zM547 1823h246l86 -155l149 155h264l-277 -315h-315z" />
    <glyph glyph-name="ecaron" unicode="&#x11b;" horiz-adv-x="1072" 
d="M776 281l134 -170c-105 -93 -230 -137 -396 -137c-292 0 -459 180 -459 425s161 596 557 596c244 0 413 -154 413 -395c0 -66 -17 -152 -38 -202h-673c4 -129 86 -202 222 -202c88 0 166 26 240 85zM597 770c-140 0 -216 -94 -253 -194h429c1 6 1 12 1 18
c0 116 -70 176 -177 176zM339 1413h246l86 -155l149 155h264l-277 -315h-315z" />
    <glyph glyph-name="Gcircumflex" unicode="&#x11c;" horiz-adv-x="1579" 
d="M1432 1198l-214 -183c-72 90 -181 146 -324 146c-263 0 -475 -213 -475 -516c0 -254 166 -410 406 -410c212 0 350 107 405 303h-362l51 233h621c2 -30 -1 -66 -5 -101c-53 -429 -346 -696 -729 -696c-389 0 -677 265 -677 652c0 461 343 799 788 799
c136 0 367 -34 515 -227zM1289 1508h-246l-87 155l-148 -155h-264l277 315h315z" />
    <glyph glyph-name="gcircumflex" unicode="&#x11d;" horiz-adv-x="1194" 
d="M1168 969l-196 -915c-64 -300 -258 -467 -535 -467c-176 0 -324 47 -456 139l122 206c96 -73 206 -115 325 -115c157 0 260 100 289 240l4 20c-60 -43 -134 -69 -233 -69c-246 0 -426 180 -426 424c0 281 200 563 534 563c138 0 234 -46 291 -122l21 96h260zM544 248
c158 0 273 120 273 287c0 127 -90 219 -216 219c-158 0 -272 -120 -272 -290c0 -125 90 -216 215 -216zM1038 1098h-246l-87 155l-148 -155h-264l277 315h315z" />
    <glyph glyph-name="Gbreve" unicode="&#x11e;" horiz-adv-x="1579" 
d="M1432 1198l-214 -183c-72 90 -181 146 -324 146c-263 0 -475 -213 -475 -516c0 -254 166 -410 406 -410c212 0 350 107 405 303h-362l51 233h621c2 -30 -1 -66 -5 -101c-53 -429 -346 -696 -729 -696c-389 0 -677 265 -677 652c0 461 343 799 788 799
c136 0 367 -34 515 -227zM606 1809l200 58c11 -111 60 -164 149 -164c84 0 151 53 206 164l197 -58c-97 -206 -231 -315 -427 -315c-187 0 -314 111 -325 315z" />
    <glyph glyph-name="gbreve" unicode="&#x11f;" horiz-adv-x="1194" 
d="M1168 969l-196 -915c-64 -300 -258 -467 -535 -467c-176 0 -324 47 -456 139l122 206c96 -73 206 -115 325 -115c157 0 260 100 289 240l4 20c-60 -43 -134 -69 -233 -69c-246 0 -426 180 -426 424c0 281 200 563 534 563c138 0 234 -46 291 -122l21 96h260zM544 248
c158 0 273 120 273 287c0 127 -90 219 -216 219c-158 0 -272 -120 -272 -290c0 -125 90 -216 215 -216zM345 1399l200 58c11 -111 60 -164 149 -164c84 0 151 53 206 164l197 -58c-97 -206 -231 -315 -427 -315c-187 0 -314 111 -325 315z" />
    <glyph glyph-name="Gdotaccent" unicode="&#x120;" horiz-adv-x="1579" 
d="M1432 1198l-214 -183c-72 90 -181 146 -324 146c-263 0 -475 -213 -475 -516c0 -254 166 -410 406 -410c212 0 350 107 405 303h-362l51 233h621c2 -30 -1 -66 -5 -101c-53 -429 -346 -696 -729 -696c-389 0 -677 265 -677 652c0 461 343 799 788 799
c136 0 367 -34 515 -227zM949 1849c99 0 175 -78 175 -177c0 -98 -76 -174 -175 -174s-174 76 -174 174c0 99 75 177 174 177z" />
    <glyph glyph-name="gdotaccent" unicode="&#x121;" horiz-adv-x="1194" 
d="M1168 969l-196 -915c-64 -300 -258 -467 -535 -467c-176 0 -324 47 -456 139l122 206c96 -73 206 -115 325 -115c157 0 260 100 289 240l4 20c-60 -43 -134 -69 -233 -69c-246 0 -426 180 -426 424c0 281 200 563 534 563c138 0 234 -46 291 -122l21 96h260zM544 248
c158 0 273 120 273 287c0 127 -90 219 -216 219c-158 0 -272 -120 -272 -290c0 -125 90 -216 215 -216zM714 1454c94 0 167 -74 167 -168s-73 -166 -167 -166s-166 72 -166 166s72 168 166 168z" />
    <glyph glyph-name="Gcommaaccent" unicode="&#x122;" horiz-adv-x="1579" 
d="M1432 1198l-214 -183c-72 90 -181 146 -324 146c-263 0 -475 -213 -475 -516c0 -254 166 -410 406 -410c212 0 350 107 405 303h-362l51 233h621c2 -30 -1 -66 -5 -101c-53 -429 -346 -696 -729 -696c-389 0 -677 265 -677 652c0 461 343 799 788 799
c136 0 367 -34 515 -227zM625 -84h269l-166 -389h-229z" />
    <glyph glyph-name="gcommaaccent" unicode="&#x123;" horiz-adv-x="1194" 
d="M1168 969l-196 -915c-64 -300 -258 -467 -535 -467c-176 0 -324 47 -456 139l122 206c96 -73 206 -115 325 -115c157 0 260 100 289 240l4 20c-60 -43 -134 -69 -233 -69c-246 0 -426 180 -426 424c0 281 200 563 534 563c138 0 234 -46 291 -122l21 96h260zM544 248
c158 0 273 120 273 287c0 127 -90 219 -216 219c-158 0 -272 -120 -272 -290c0 -125 90 -216 215 -216zM812 1108h-269l165 389h230z" />
    <glyph glyph-name="Hcircumflex" unicode="&#x124;" horiz-adv-x="1532" 
d="M632 1400l-120 -564h657l121 564h285l-299 -1400h-285l123 576h-658l-122 -576h-285l298 1400h285zM1333 1508h-246l-87 155l-148 -155h-264l277 315h315z" />
    <glyph glyph-name="hcircumflex" unicode="&#x125;" horiz-adv-x="1161" 
d="M742 995c202 0 326 -135 326 -325c0 -33 -3 -69 -11 -105l-121 -565h-262l117 544c5 22 7 43 7 64c0 80 -41 142 -151 142c-109 0 -212 -61 -248 -230l-110 -520h-263l306 1440h262l-117 -553c78 81 171 108 265 108zM1153 1529h-246l-87 155l-148 -155h-264l277 315h315
z" />
    <glyph glyph-name="Hbar" unicode="&#x126;" horiz-adv-x="1590" 
d="M1696 1210l-44 -218h-131l-212 -992h-285l123 576h-658l-122 -576h-285l211 992h-137l44 218h139l41 190h285l-41 -190h658l41 190h285l-41 -190h129zM545 836h657l33 156h-657z" />
    <glyph glyph-name="hbar" unicode="&#x127;" horiz-adv-x="1161" 
d="M912 1305l-44 -215h-348l-43 -203c78 81 171 108 265 108c202 0 326 -135 326 -325c0 -33 -3 -69 -11 -105l-121 -565h-262l117 544c5 22 7 43 7 64c0 80 -41 142 -151 142c-109 0 -212 -61 -248 -230l-110 -520h-263l231 1090h-117l43 215h120l29 135h262l-29 -135h347z
" />
    <glyph glyph-name="Itilde" unicode="&#x128;" horiz-adv-x="589" 
d="M632 1400l-298 -1400h-285l298 1400h285zM238 1527l-129 158c85 94 170 126 269 126c148 0 195 -70 257 -70c46 0 85 28 135 71l128 -158c-84 -94 -169 -127 -269 -127c-146 0 -193 70 -256 70c-47 0 -86 -27 -135 -70z" />
    <glyph glyph-name="itilde" unicode="&#x129;" horiz-adv-x="521" 
d="M495 969l-206 -969h-263l206 969h263zM132 1117l-129 158c85 94 170 126 269 126c148 0 195 -70 257 -70c46 0 85 28 135 71l128 -158c-84 -94 -169 -127 -269 -127c-146 0 -193 70 -256 70c-47 0 -86 -27 -135 -70z" />
    <glyph glyph-name="Imacron" unicode="&#x12a;" horiz-adv-x="589" 
d="M632 1400l-298 -1400h-285l298 1400h285zM179 1561l45 209h661l-45 -209h-661z" />
    <glyph glyph-name="imacron" unicode="&#x12b;" horiz-adv-x="521" 
d="M495 969l-206 -969h-263l206 969h263zM72 1151l45 209h661l-45 -209h-661z" />
    <glyph glyph-name="Ibreve" unicode="&#x12c;" horiz-adv-x="589" 
d="M632 1400l-298 -1400h-285l298 1400h285zM176 1809l200 58c11 -111 60 -164 149 -164c84 0 151 53 206 164l197 -58c-97 -206 -231 -315 -427 -315c-187 0 -314 111 -325 315z" />
    <glyph glyph-name="ibreve" unicode="&#x12d;" horiz-adv-x="521" 
d="M495 969l-206 -969h-263l206 969h263zM61 1399l200 58c11 -111 60 -164 149 -164c84 0 151 53 206 164l197 -58c-97 -206 -231 -315 -427 -315c-187 0 -314 111 -325 315z" />
    <glyph glyph-name="Iogonek" unicode="&#x12e;" horiz-adv-x="589" 
d="M290 -184l108 -159c-56 -47 -131 -76 -214 -76c-154 0 -256 75 -256 194c0 91 56 162 159 225h-38l298 1400h285l-298 -1400h-26c-125 -66 -151 -129 -151 -166c0 -31 22 -48 57 -48c25 0 50 10 76 30z" />
    <glyph glyph-name="iogonek" unicode="&#x12f;" horiz-adv-x="521" 
d="M495 969l-206 -969h-19c-125 -66 -151 -129 -151 -166c0 -31 22 -48 57 -48c25 0 50 10 76 30l108 -159c-56 -47 -131 -76 -214 -76c-154 0 -256 75 -256 194c0 91 56 162 159 225h-23l206 969h263zM430 1454c94 0 167 -74 167 -168s-73 -166 -167 -166s-166 72 -166 166
s72 168 166 168z" />
    <glyph glyph-name="Idotaccent" unicode="&#x130;" horiz-adv-x="589" 
d="M632 1400l-298 -1400h-285l298 1400h285zM519 1849c99 0 175 -78 175 -177c0 -98 -76 -174 -175 -174s-174 76 -174 174c0 99 75 177 174 177z" />
    <glyph glyph-name="dotlessi" unicode="&#x131;" horiz-adv-x="521" 
d="M495 969l-206 -969h-263l206 969h263z" />
    <glyph glyph-name="IJ" unicode="&#x132;" horiz-adv-x="1663" 
d="M632 1400l-298 -1400h-285l298 1400h285zM1711 1400l-192 -915c-75 -359 -265 -510 -544 -510c-178 0 -332 73 -420 198l177 197c50 -70 136 -128 245 -128c142 0 225 91 269 300l181 858h284z" />
    <glyph glyph-name="ij" unicode="&#x133;" horiz-adv-x="1049" 
d="M1023 969l-230 -1082c-45 -209 -177 -308 -347 -308c-65 0 -130 15 -176 38l81 219c23 -10 48 -14 69 -14c52 0 103 33 120 113l219 1034h264zM956 1454c94 0 167 -74 167 -168s-73 -166 -167 -166s-166 72 -166 166s72 168 166 168zM495 969l-206 -969h-263l206 969h263
zM430 1454c94 0 167 -74 167 -168s-73 -166 -167 -166s-166 72 -166 166s72 168 166 168z" />
    <glyph glyph-name="Jcircumflex" unicode="&#x134;" horiz-adv-x="1074" 
d="M1122 1400l-192 -915c-75 -359 -265 -510 -544 -510c-178 0 -332 73 -420 198l177 197c50 -70 136 -128 245 -128c142 0 225 91 269 300l181 858h284zM1350 1508h-246l-87 155l-148 -155h-264l277 315h315z" />
    <glyph glyph-name="jcircumflex" unicode="&#x135;" horiz-adv-x="528" 
d="M502 969l-230 -1082c-45 -209 -177 -308 -347 -308c-65 0 -130 15 -176 38l81 219c23 -10 48 -14 69 -14c52 0 103 33 120 113l219 1034h264zM759 1098h-246l-87 155l-148 -155h-264l277 315h315z" />
    <glyph glyph-name="Kcommaaccent" unicode="&#x136;" horiz-adv-x="1388" 
d="M632 1400l-121 -567h105l549 567h362l-708 -701l476 -699h-327l-386 576h-126l-122 -576h-285l298 1400h285zM495 -84h269l-166 -389h-229z" />
    <glyph glyph-name="kcommaaccent" unicode="&#x137;" horiz-adv-x="1070" 
d="M595 1440l-173 -816h78l321 345h329l-467 -477l288 -492h-289l-220 392h-90l-83 -392h-263l306 1440h263zM329 -84h269l-166 -389h-229z" />
    <glyph glyph-name="kgreenlandic" unicode="&#x138;" horiz-adv-x="1068" 
d="M681 492l289 -492h-290l-219 392h-89l-83 -392h-263l206 969h263l-73 -345h77l321 345h328z" />
    <glyph glyph-name="Lacute" unicode="&#x139;" horiz-adv-x="1184" 
d="M632 1400l-243 -1139h717l-56 -261h-1001l298 1400h285zM572 1517h-255l232 316h319z" />
    <glyph glyph-name="lacute" unicode="&#x13a;" horiz-adv-x="521" 
d="M595 1440l-306 -1440h-263l306 1440h263zM537 1517h-255l232 316h319z" />
    <glyph glyph-name="Lcommaaccent" unicode="&#x13b;" horiz-adv-x="1184" 
d="M632 1400l-243 -1139h717l-56 -261h-1001l298 1400h285zM433 -84h269l-166 -389h-229z" />
    <glyph glyph-name="lcommaaccent" unicode="&#x13c;" horiz-adv-x="521" 
d="M595 1440l-306 -1440h-263l306 1440h263zM7 -84h269l-166 -389h-229z" />
    <glyph glyph-name="Lcaron" unicode="&#x13d;" horiz-adv-x="1184" 
d="M632 1400l-243 -1139h717l-56 -261h-1001l298 1400h285zM922 972h-206l91 428h273z" />
    <glyph glyph-name="lcaron" unicode="&#x13e;" horiz-adv-x="662" 
d="M595 1440l-306 -1440h-263l306 1440h263zM819 1012h-206l91 428h273z" />
    <glyph glyph-name="Ldot" unicode="&#x13f;" horiz-adv-x="1184" 
d="M632 1400l-243 -1139h717l-56 -261h-1001l298 1400h285zM902 890c99 0 175 -78 175 -177c0 -98 -76 -174 -175 -174s-174 76 -174 174c0 99 75 177 174 177z" />
    <glyph glyph-name="ldot" unicode="&#x140;" horiz-adv-x="730" 
d="M595 1440l-306 -1440h-263l306 1440h263zM690 892c91 0 161 -72 161 -162c0 -91 -70 -161 -161 -161s-160 70 -160 161c0 90 69 162 160 162z" />
    <glyph glyph-name="Lslash" unicode="&#x141;" horiz-adv-x="1304" 
d="M752 1400l-110 -514l446 218l-62 -292l-446 -219l-71 -332h717l-56 -261h-1001l93 438l-202 -99l62 292l202 99l143 670h285z" />
    <glyph glyph-name="lslash" unicode="&#x142;" horiz-adv-x="701" 
d="M683 1440l-101 -474l205 105l-58 -273l-205 -106l-147 -692h-263l115 541l-201 -103l58 273l201 103l133 626h263z" />
    <glyph glyph-name="Nacute" unicode="&#x143;" horiz-adv-x="1545" 
d="M1588 1400l-298 -1400h-262l-490 964l-205 -964h-284l298 1400h263l489 -964l205 964h284zM1038 1517h-255l232 316h319z" />
    <glyph glyph-name="nacute" unicode="&#x144;" horiz-adv-x="1161" 
d="M742 995c202 0 326 -135 326 -325c0 -33 -3 -69 -11 -105l-121 -565h-262l117 544c5 22 7 43 7 64c0 80 -41 142 -152 142c-109 0 -212 -61 -248 -230l-110 -520h-262l206 969h252l-22 -98c81 93 181 124 280 124zM777 1107h-255l232 316h319z" />
    <glyph glyph-name="Ncommaaccent" unicode="&#x145;" horiz-adv-x="1545" 
d="M1588 1400l-298 -1400h-262l-490 964l-205 -964h-284l298 1400h263l489 -964l205 964h284zM551 -84h269l-166 -389h-229z" />
    <glyph glyph-name="ncommaaccent" unicode="&#x146;" horiz-adv-x="1161" 
d="M742 995c202 0 326 -135 326 -325c0 -33 -3 -69 -11 -105l-121 -565h-262l117 544c5 22 7 43 7 64c0 80 -41 142 -152 142c-109 0 -212 -61 -248 -230l-110 -520h-262l206 969h252l-22 -98c81 93 181 124 280 124zM331 -84h269l-166 -389h-229z" />
    <glyph glyph-name="Ncaron" unicode="&#x147;" horiz-adv-x="1545" 
d="M1588 1400l-298 -1400h-262l-490 964l-205 -964h-284l298 1400h263l489 -964l205 964h284zM651 1823h246l86 -155l149 155h264l-277 -315h-315z" />
    <glyph glyph-name="ncaron" unicode="&#x148;" horiz-adv-x="1161" 
d="M742 995c202 0 326 -135 326 -325c0 -33 -3 -69 -11 -105l-121 -565h-262l117 544c5 22 7 43 7 64c0 80 -41 142 -152 142c-109 0 -212 -61 -248 -230l-110 -520h-262l206 969h252l-22 -98c81 93 181 124 280 124zM389 1413h246l86 -155l149 155h264l-277 -315h-315z" />
    <glyph glyph-name="napostrophe" unicode="&#x149;" horiz-adv-x="1468" 
d="M350 1440h292l-252 -596h-234zM1049 995c202 0 326 -135 326 -325c0 -33 -3 -69 -11 -105l-121 -565h-262l117 544c5 22 7 43 7 64c0 80 -41 142 -152 142c-109 0 -212 -61 -248 -230l-110 -520h-262l206 969h252l-22 -98c81 93 181 124 280 124z" />
    <glyph glyph-name="Eng" unicode="&#x14a;" horiz-adv-x="1545" 
d="M1588 1400l-310 -1458c-48 -226 -191 -360 -428 -360c-121 0 -233 34 -298 90l137 224c42 -33 94 -51 159 -51c90 0 142 58 163 156l5 23l-478 940l-205 -964h-284l298 1400h263l489 -964l205 964h284z" />
    <glyph glyph-name="eng" unicode="&#x14b;" horiz-adv-x="1162" 
d="M742 995c202 0 326 -135 326 -325c0 -33 -3 -69 -11 -105l-134 -625c-44 -207 -179 -298 -332 -298c-70 0 -132 15 -173 35l72 220c24 -9 48 -12 72 -12c49 0 95 33 111 107l118 552c5 22 7 43 7 64c0 80 -41 142 -152 142c-109 0 -212 -61 -248 -230l-110 -520h-262
l206 969h252l-22 -98c81 93 181 124 280 124z" />
    <glyph glyph-name="Omacron" unicode="&#x14c;" horiz-adv-x="1632" 
d="M915 1425c390 0 680 -260 680 -654c0 -434 -325 -797 -786 -797c-390 0 -680 260 -680 655c0 433 325 796 786 796zM897 1158c-282 0 -476 -237 -476 -510c0 -247 168 -406 407 -406c280 0 475 236 475 510c0 246 -169 406 -406 406zM629 1561l45 209h661l-45 -209h-661z
" />
    <glyph glyph-name="omacron" unicode="&#x14d;" horiz-adv-x="1171" 
d="M624 995c279 0 484 -189 484 -464c0 -304 -238 -557 -561 -557c-278 0 -484 188 -484 465c0 303 238 556 561 556zM606 752c-157 0 -276 -133 -276 -297c0 -140 96 -238 233 -238c158 0 278 134 278 297c0 140 -96 238 -235 238zM353 1150l45 209h661l-45 -209h-661z" />
    <glyph glyph-name="Obreve" unicode="&#x14e;" horiz-adv-x="1632" 
d="M915 1425c390 0 680 -260 680 -654c0 -434 -325 -797 -786 -797c-390 0 -680 260 -680 655c0 433 325 796 786 796zM897 1158c-282 0 -476 -237 -476 -510c0 -247 168 -406 407 -406c280 0 475 236 475 510c0 246 -169 406 -406 406zM626 1809l200 58
c11 -111 60 -164 149 -164c84 0 151 53 206 164l197 -58c-97 -206 -231 -315 -427 -315c-187 0 -314 111 -325 315z" />
    <glyph glyph-name="obreve" unicode="&#x14f;" horiz-adv-x="1171" 
d="M624 995c279 0 484 -189 484 -464c0 -304 -238 -557 -561 -557c-278 0 -484 188 -484 465c0 303 238 556 561 556zM606 752c-157 0 -276 -133 -276 -297c0 -140 96 -238 233 -238c158 0 278 134 278 297c0 140 -96 238 -235 238zM342 1398l200 58
c11 -111 60 -164 149 -164c84 0 151 53 206 164l197 -58c-97 -206 -231 -315 -427 -315c-187 0 -314 111 -325 315z" />
    <glyph glyph-name="Ohungarumlaut" unicode="&#x150;" horiz-adv-x="1632" 
d="M915 1425c390 0 680 -260 680 -654c0 -434 -325 -797 -786 -797c-390 0 -680 260 -680 655c0 433 325 796 786 796zM897 1158c-282 0 -476 -237 -476 -510c0 -247 168 -406 407 -406c280 0 475 236 475 510c0 246 -169 406 -406 406zM1262 1518h-261l253 315h288z
M882 1518h-255l226 315h283z" />
    <glyph glyph-name="ohungarumlaut" unicode="&#x151;" horiz-adv-x="1171" 
d="M624 995c279 0 484 -189 484 -464c0 -304 -238 -557 -561 -557c-278 0 -484 188 -484 465c0 303 238 556 561 556zM606 752c-157 0 -276 -133 -276 -297c0 -140 96 -238 233 -238c158 0 278 134 278 297c0 140 -96 238 -235 238zM972 1107h-261l253 315h288zM592 1107
h-255l226 315h283z" />
    <glyph glyph-name="OE" unicode="&#x152;" horiz-adv-x="2163" 
d="M2086 834l-55 -256h-705l-69 -322h744l-55 -256h-1179c-401 0 -645 248 -645 590c0 448 312 810 859 810h1253l-55 -256h-733l-66 -310h706zM417 623c0 -213 119 -362 382 -362h174l187 878h-212c-334 0 -531 -221 -531 -516z" />
    <glyph glyph-name="oe" unicode="&#x153;" horiz-adv-x="1843" 
d="M1547 281l134 -170c-105 -93 -230 -137 -396 -137c-163 0 -284 63 -356 165c-95 -102 -229 -165 -382 -165c-278 0 -484 188 -484 465c0 303 238 556 561 556c156 0 288 -67 368 -180c86 106 213 180 391 180c244 0 413 -154 413 -395c0 -66 -17 -152 -38 -202h-673
c4 -129 86 -202 222 -202c89 0 167 26 240 85zM606 752c-157 0 -276 -133 -276 -297c0 -140 96 -238 233 -238c158 0 278 134 278 297c0 140 -96 238 -235 238zM1368 770c-140 0 -216 -94 -253 -194h429c1 6 1 12 1 18c0 116 -70 176 -177 176z" />
    <glyph glyph-name="Racute" unicode="&#x154;" horiz-adv-x="1329" 
d="M347 1400h533c302 0 465 -168 465 -378c0 -200 -122 -444 -516 -464l385 -558h-326l-362 557h-74l-118 -557h-285zM846 1142h-269l-73 -342h295c205 0 257 101 257 193c0 91 -74 149 -210 149zM903 1517h-255l232 316h319z" />
    <glyph glyph-name="racute" unicode="&#x155;" horiz-adv-x="817" 
d="M397 516l-109 -516h-262l206 969h252l-23 -102c81 98 179 128 276 128c47 0 99 -11 144 -29l-84 -251c-38 20 -92 31 -141 31c-122 0 -223 -73 -259 -230zM645 1107h-255l232 316h319z" />
    <glyph glyph-name="Rcommaaccent" unicode="&#x156;" horiz-adv-x="1329" 
d="M347 1400h533c302 0 465 -168 465 -378c0 -200 -122 -444 -516 -464l385 -558h-326l-362 557h-74l-118 -557h-285zM846 1142h-269l-73 -342h295c205 0 257 101 257 193c0 91 -74 149 -210 149zM471 -84h269l-166 -389h-229z" />
    <glyph glyph-name="rcommaaccent" unicode="&#x157;" horiz-adv-x="817" 
d="M397 516l-109 -516h-262l206 969h252l-23 -102c81 98 179 128 276 128c47 0 99 -11 144 -29l-84 -251c-38 20 -92 31 -141 31c-122 0 -223 -73 -259 -230zM7 -84h269l-166 -389h-229z" />
    <glyph glyph-name="Rcaron" unicode="&#x158;" horiz-adv-x="1329" 
d="M347 1400h533c302 0 465 -168 465 -378c0 -200 -122 -444 -516 -464l385 -558h-326l-362 557h-74l-118 -557h-285zM846 1142h-269l-73 -342h295c205 0 257 101 257 193c0 91 -74 149 -210 149zM516 1823h246l86 -155l149 155h264l-277 -315h-315z" />
    <glyph glyph-name="rcaron" unicode="&#x159;" horiz-adv-x="817" 
d="M397 516l-109 -516h-262l206 969h252l-23 -102c81 98 179 128 276 128c47 0 99 -11 144 -29l-84 -251c-38 20 -92 31 -141 31c-122 0 -223 -73 -259 -230zM257 1413h246l86 -155l149 155h264l-277 -315h-315z" />
    <glyph glyph-name="Sacute" unicode="&#x15a;" horiz-adv-x="1328" 
d="M1338 1261l-149 -224c-140 98 -303 129 -421 129c-184 0 -258 -85 -258 -174c0 -95 95 -134 219 -158l84 -16c236 -44 413 -154 413 -374c0 -286 -245 -470 -597 -470c-170 0 -432 51 -596 196l161 224c133 -121 332 -162 453 -162c157 0 279 61 279 173
c0 88 -82 129 -246 159l-89 17c-228 42 -382 165 -382 372c0 254 194 472 566 472c167 0 368 -31 563 -164zM901 1517h-255l232 316h319z" />
    <glyph glyph-name="sacute" unicode="&#x15b;" horiz-adv-x="967" 
d="M962 887l-119 -195c-91 56 -225 85 -304 85c-96 0 -149 -29 -155 -79c-7 -68 47 -80 136 -97l65 -12c220 -40 305 -150 287 -300c-23 -194 -182 -314 -444 -314c-154 0 -329 46 -442 131l125 191c89 -61 203 -105 321 -105c114 0 169 33 175 90c5 49 -35 75 -134 92
l-67 11c-222 36 -309 150 -290 306c24 198 183 303 423 303c163 0 304 -38 423 -107zM673 1107h-255l232 316h319z" />
    <glyph glyph-name="Scircumflex" unicode="&#x15c;" horiz-adv-x="1328" 
d="M1338 1261l-149 -224c-140 98 -303 129 -421 129c-184 0 -258 -85 -258 -174c0 -95 95 -134 219 -158l84 -16c236 -44 413 -154 413 -374c0 -286 -245 -470 -597 -470c-170 0 -432 51 -596 196l161 224c133 -121 332 -162 453 -162c157 0 279 61 279 173
c0 88 -82 129 -246 159l-89 17c-228 42 -382 165 -382 372c0 254 194 472 566 472c167 0 368 -31 563 -164zM1188 1508h-246l-87 155l-148 -155h-264l277 315h315z" />
    <glyph glyph-name="scircumflex" unicode="&#x15d;" horiz-adv-x="967" 
d="M962 887l-119 -195c-91 56 -225 85 -304 85c-96 0 -149 -29 -155 -79c-7 -68 47 -80 136 -97l65 -12c220 -40 305 -150 287 -300c-23 -194 -182 -314 -444 -314c-154 0 -329 46 -442 131l125 191c89 -61 203 -105 321 -105c114 0 169 33 175 90c5 49 -35 75 -134 92
l-67 11c-222 36 -309 150 -290 306c24 198 183 303 423 303c163 0 304 -38 423 -107zM958 1098h-246l-87 155l-148 -155h-264l277 315h315z" />
    <glyph glyph-name="Scedilla" unicode="&#x15e;" horiz-adv-x="1328" 
d="M1338 1261l-149 -224c-140 98 -303 129 -421 129c-184 0 -258 -85 -258 -174c0 -95 95 -134 219 -158l84 -16c236 -44 413 -154 413 -374c0 -245 -180 -416 -453 -459l-150 -306h-282l166 303c-158 18 -346 74 -474 188l161 224c133 -121 332 -162 453 -162
c157 0 279 61 279 173c0 88 -82 129 -246 159l-89 17c-228 42 -382 165 -382 372c0 254 194 472 566 472c167 0 368 -31 563 -164z" />
    <glyph glyph-name="scedilla" unicode="&#x15f;" horiz-adv-x="967" 
d="M962 887l-119 -195c-91 56 -225 85 -304 85c-96 0 -149 -29 -155 -79c-7 -68 47 -80 136 -97l65 -12c220 -40 305 -150 287 -300c-20 -163 -134 -273 -325 -304l-151 -306h-265l169 306c-116 18 -232 59 -314 121l125 191c89 -61 203 -105 321 -105c114 0 169 33 175 90
c5 49 -35 75 -134 92l-67 11c-222 36 -309 150 -290 306c24 198 183 303 423 303c163 0 304 -38 423 -107z" />
    <glyph glyph-name="Scaron" unicode="&#x160;" horiz-adv-x="1328" 
d="M1338 1261l-149 -224c-140 98 -303 129 -421 129c-184 0 -258 -85 -258 -174c0 -95 95 -134 219 -158l84 -16c236 -44 413 -154 413 -374c0 -286 -245 -470 -597 -470c-170 0 -432 51 -596 196l161 224c133 -121 332 -162 453 -162c157 0 279 61 279 173
c0 88 -82 129 -246 159l-89 17c-228 42 -382 165 -382 372c0 254 194 472 566 472c167 0 368 -31 563 -164zM514 1823h246l86 -155l149 155h264l-277 -315h-315z" />
    <glyph glyph-name="scaron" unicode="&#x161;" horiz-adv-x="967" 
d="M962 887l-119 -195c-91 56 -225 85 -304 85c-96 0 -149 -29 -155 -79c-7 -68 47 -80 136 -97l65 -12c220 -40 305 -150 287 -300c-23 -194 -182 -314 -444 -314c-154 0 -329 46 -442 131l125 191c89 -61 203 -105 321 -105c114 0 169 33 175 90c5 49 -35 75 -134 92
l-67 11c-222 36 -309 150 -290 306c24 198 183 303 423 303c163 0 304 -38 423 -107zM285 1413h246l86 -155l149 155h264l-277 -315h-315z" />
    <glyph glyph-name="Tcommaaccent" unicode="&#x162;" horiz-adv-x="1193" 
d="M1357 1400l-56 -261h-419l-242 -1139h-14l-157 -321h-282l176 321h-8l242 1139h-427l56 261h1131z" />
    <glyph glyph-name="tcommaaccent" unicode="&#x163;" horiz-adv-x="923" 
d="M926 969l-50 -232h-339l-75 -351c-25 -117 24 -168 110 -168c56 0 113 21 169 55l92 -206c-75 -48 -158 -79 -251 -89l-147 -299h-265l180 326c-140 57 -192 192 -152 379l75 353h-181l50 232h181l62 288h263l-62 -288h340z" />
    <glyph glyph-name="Tcaron" unicode="&#x164;" horiz-adv-x="1193" 
d="M1357 1400l-56 -261h-419l-242 -1139h-285l242 1139h-427l56 261h1131zM497 1823h246l86 -155l149 155h264l-277 -315h-315z" />
    <glyph glyph-name="tcaron" unicode="&#x165;" horiz-adv-x="923" 
d="M926 969l-50 -232h-339l-75 -351c-25 -117 24 -168 110 -168c56 0 113 21 169 55l92 -206c-90 -58 -192 -92 -309 -92c-268 0 -379 159 -326 409l75 353h-181l50 232h181l62 288h263l-62 -288h340zM881 1047h-206l91 428h273z" />
    <glyph glyph-name="Tbar" unicode="&#x166;" horiz-adv-x="1193" 
d="M1074 831l-54 -250h-257l-123 -581h-285l123 581h-241l53 250h241l66 308h-427l56 261h1131l-56 -261h-419l-66 -308h258z" />
    <glyph glyph-name="tbar" unicode="&#x167;" horiz-adv-x="923" 
d="M926 969l-50 -232h-339l-27 -126h267l-43 -203h-268l-4 -22c-25 -117 24 -168 110 -168c56 0 113 21 169 55l92 -206c-90 -58 -192 -92 -309 -92c-268 0 -379 159 -326 409l5 24h-135l43 203h135l27 126h-181l50 232h181l62 288h263l-62 -288h340z" />
    <glyph glyph-name="Utilde" unicode="&#x168;" horiz-adv-x="1455" 
d="M1513 1400l-182 -861c-82 -390 -315 -564 -660 -564c-309 0 -532 151 -532 450c0 46 6 97 17 151l176 824h286l-177 -827c-8 -38 -12 -72 -12 -102c0 -160 103 -229 263 -229c173 0 311 93 360 325l176 833h285zM672 1527l-129 158c85 94 170 126 269 126
c148 0 195 -70 257 -70c46 0 85 28 135 71l128 -158c-84 -94 -169 -127 -269 -127c-146 0 -193 70 -256 70c-47 0 -86 -27 -135 -70z" />
    <glyph glyph-name="utilde" unicode="&#x169;" horiz-adv-x="1152" 
d="M1134 969l-121 -568c-67 -316 -278 -426 -516 -426c-231 0 -398 123 -398 352c0 37 5 76 14 118l111 524h263l-116 -544c-5 -24 -7 -45 -7 -64c0 -100 64 -143 157 -143c114 0 207 74 239 229l110 522h264zM447 1117l-129 158c85 94 170 126 269 126
c148 0 195 -70 257 -70c46 0 85 28 135 71l128 -158c-84 -94 -169 -127 -269 -127c-146 0 -193 70 -256 70c-47 0 -86 -27 -135 -70z" />
    <glyph glyph-name="Umacron" unicode="&#x16a;" horiz-adv-x="1455" 
d="M1513 1400l-182 -861c-82 -390 -315 -564 -660 -564c-309 0 -532 151 -532 450c0 46 6 97 17 151l176 824h286l-177 -827c-8 -38 -12 -72 -12 -102c0 -160 103 -229 263 -229c173 0 311 93 360 325l176 833h285zM613 1561l45 209h661l-45 -209h-661z" />
    <glyph glyph-name="umacron" unicode="&#x16b;" horiz-adv-x="1152" 
d="M1134 969l-121 -568c-67 -316 -278 -426 -516 -426c-231 0 -398 123 -398 352c0 37 5 76 14 118l111 524h263l-116 -544c-5 -24 -7 -45 -7 -64c0 -100 64 -143 157 -143c114 0 207 74 239 229l110 522h264zM387 1151l45 209h661l-45 -209h-661z" />
    <glyph glyph-name="Ubreve" unicode="&#x16c;" horiz-adv-x="1455" 
d="M1513 1400l-182 -861c-82 -390 -315 -564 -660 -564c-309 0 -532 151 -532 450c0 46 6 97 17 151l176 824h286l-177 -827c-8 -38 -12 -72 -12 -102c0 -160 103 -229 263 -229c173 0 311 93 360 325l176 833h285zM610 1809l200 58c11 -111 60 -164 149 -164
c84 0 151 53 206 164l197 -58c-97 -206 -231 -315 -427 -315c-187 0 -314 111 -325 315z" />
    <glyph glyph-name="ubreve" unicode="&#x16d;" horiz-adv-x="1152" 
d="M1134 969l-121 -568c-67 -316 -278 -426 -516 -426c-231 0 -398 123 -398 352c0 37 5 76 14 118l111 524h263l-116 -544c-5 -24 -7 -45 -7 -64c0 -100 64 -143 157 -143c114 0 207 74 239 229l110 522h264zM376 1399l200 58c11 -111 60 -164 149 -164
c84 0 151 53 206 164l197 -58c-97 -206 -231 -315 -427 -315c-187 0 -314 111 -325 315z" />
    <glyph glyph-name="Uring" unicode="&#x16e;" horiz-adv-x="1455" 
d="M1513 1400l-182 -861c-82 -390 -315 -564 -660 -564c-309 0 -532 151 -532 450c0 46 6 97 17 151l176 824h286l-177 -827c-8 -38 -12 -72 -12 -102c0 -160 103 -229 263 -229c173 0 311 93 360 325l176 833h285zM951 1486c-143 0 -261 115 -261 258
c0 141 118 257 261 257c145 0 263 -116 263 -257c0 -143 -118 -258 -263 -258zM951 1635c58 0 107 47 107 109c0 60 -49 108 -107 108c-56 0 -105 -48 -105 -108c0 -62 49 -109 105 -109z" />
    <glyph glyph-name="uring" unicode="&#x16f;" horiz-adv-x="1152" 
d="M1134 969l-121 -568c-67 -316 -278 -426 -516 -426c-231 0 -398 123 -398 352c0 37 5 76 14 118l111 524h263l-116 -544c-5 -24 -7 -45 -7 -64c0 -100 64 -143 157 -143c114 0 207 74 239 229l110 522h264zM715 1076c-143 0 -261 115 -261 258c0 141 118 257 261 257
c145 0 263 -116 263 -257c0 -143 -118 -258 -263 -258zM715 1225c58 0 107 47 107 109c0 60 -49 108 -107 108c-56 0 -105 -48 -105 -108c0 -62 49 -109 105 -109z" />
    <glyph glyph-name="Uhungarumlaut" unicode="&#x170;" horiz-adv-x="1455" 
d="M1513 1400l-182 -861c-82 -390 -315 -564 -660 -564c-309 0 -532 151 -532 450c0 46 6 97 17 151l176 824h286l-177 -827c-8 -38 -12 -72 -12 -102c0 -160 103 -229 263 -229c173 0 311 93 360 325l176 833h285zM1246 1518h-261l253 315h288zM866 1518h-255l226 315h283z
" />
    <glyph glyph-name="uhungarumlaut" unicode="&#x171;" horiz-adv-x="1152" 
d="M1134 969l-121 -568c-67 -316 -278 -426 -516 -426c-231 0 -398 123 -398 352c0 37 5 76 14 118l111 524h263l-116 -544c-5 -24 -7 -45 -7 -64c0 -100 64 -143 157 -143c114 0 207 74 239 229l110 522h264zM1006 1108h-261l253 315h288zM626 1108h-255l226 315h283z" />
    <glyph glyph-name="Uogonek" unicode="&#x172;" horiz-adv-x="1455" 
d="M980 -175l118 -154c-71 -59 -158 -90 -253 -90c-180 0 -300 89 -300 215c0 70 24 128 92 180c-291 11 -498 161 -498 449c0 46 6 97 17 151l176 824h286l-177 -827c-8 -38 -12 -72 -12 -102c0 -160 103 -229 263 -229c173 0 311 93 360 325l176 833h285l-182 -861
c-58 -277 -189 -436 -382 -519c-132 -57 -160 -126 -160 -170c0 -38 30 -63 83 -63c39 0 74 14 108 38z" />
    <glyph glyph-name="uogonek" unicode="&#x173;" horiz-adv-x="1152" 
d="M767 -175l118 -154c-71 -59 -158 -90 -253 -90c-180 0 -300 89 -300 215c0 71 25 131 96 183c-195 22 -329 142 -329 348c0 37 5 76 14 118l111 524h263l-116 -544c-5 -24 -7 -45 -7 -64c0 -100 64 -143 157 -143c114 0 207 74 239 229l110 522h264l-121 -568
c-45 -214 -153 -326 -291 -388c-121 -54 -146 -120 -146 -163c0 -38 30 -63 83 -63c39 0 74 14 108 38z" />
    <glyph glyph-name="Wcircumflex" unicode="&#x174;" horiz-adv-x="2167" 
d="M2319 1400l-704 -1400h-330l-81 1003l-498 -1003h-344l-124 1400h282l79 -1078l529 1078h295l81 -1071l518 1071h297zM1645 1508h-246l-87 155l-148 -155h-264l277 315h315z" />
    <glyph glyph-name="wcircumflex" unicode="&#x175;" horiz-adv-x="1703" 
d="M1075 969l81 -674l345 674h283l-527 -969h-290l-76 656l-333 -656h-299l-133 969h262l75 -674l344 674h268zM1331 1098h-246l-87 155l-148 -155h-264l277 315h315z" />
    <glyph glyph-name="Ycircumflex" unicode="&#x176;" horiz-adv-x="1347" 
d="M1534 1400l-702 -848l-118 -552h-285l122 576l-348 824h298l230 -584l463 584h340zM1218 1508h-246l-87 155l-148 -155h-264l277 315h315z" />
    <glyph glyph-name="ycircumflex" unicode="&#x177;" horiz-adv-x="1120" 
d="M1216 969l-943 -1373h-298l451 638l-313 735h282l196 -493l328 493h297zM1037 1098h-246l-87 155l-148 -155h-264l277 315h315z" />
    <glyph glyph-name="Ydieresis" unicode="&#x178;" horiz-adv-x="1347" 
d="M1534 1400l-702 -848l-118 -552h-285l122 576l-348 824h298l230 -584l463 584h340zM668 1834c94 0 168 -74 168 -168s-74 -166 -168 -166s-166 72 -166 166s72 168 166 168zM1099 1834c94 0 168 -74 168 -168s-74 -166 -168 -166s-166 72 -166 166s72 168 166 168z" />
    <glyph glyph-name="Zacute" unicode="&#x179;" horiz-adv-x="1283" 
d="M1368 1400l-47 -225l-879 -918h717l-55 -257h-1090l50 231l877 912h-710l55 257h1082zM883 1517h-255l232 316h319z" />
    <glyph glyph-name="zacute" unicode="&#x17a;" horiz-adv-x="1007" 
d="M1007 969l-43 -199l-560 -537h472l-49 -233h-827l41 199l567 538h-464l50 232h813zM681 1107h-255l232 316h319z" />
    <glyph glyph-name="Zdotaccent" unicode="&#x17b;" horiz-adv-x="1283" 
d="M1368 1400l-47 -225l-879 -918h717l-55 -257h-1090l50 231l877 912h-710l55 257h1082zM830 1849c99 0 175 -78 175 -177c0 -98 -76 -174 -175 -174s-174 76 -174 174c0 99 75 177 174 177z" />
    <glyph glyph-name="zdotaccent" unicode="&#x17c;" horiz-adv-x="1007" 
d="M1007 969l-43 -199l-560 -537h472l-49 -233h-827l41 199l567 538h-464l50 232h813zM642 1454c94 0 167 -74 167 -168s-73 -166 -167 -166s-166 72 -166 166s72 168 166 168z" />
    <glyph glyph-name="Zcaron" unicode="&#x17d;" horiz-adv-x="1283" 
d="M1368 1400l-47 -225l-879 -918h717l-55 -257h-1090l50 231l877 912h-710l55 257h1082zM496 1823h246l86 -155l149 155h264l-277 -315h-315z" />
    <glyph glyph-name="zcaron" unicode="&#x17e;" horiz-adv-x="1007" 
d="M1007 969l-43 -199l-560 -537h472l-49 -233h-827l41 199l567 538h-464l50 232h813zM293 1413h246l86 -155l149 155h264l-277 -315h-315z" />
    <glyph glyph-name="longs" unicode="&#x17f;" horiz-adv-x="649" 
d="M923 1374l-131 -195c-47 30 -98 44 -138 44c-68 0 -120 -45 -142 -147l-229 -1076h-263l237 1113c48 227 175 352 387 352c119 0 215 -37 279 -91z" />
    <glyph glyph-name="uni018F" unicode="&#x18f;" horiz-adv-x="1560" 
d="M444 969l-170 204c155 156 337 252 577 252c393 0 671 -266 671 -653c0 -436 -324 -798 -759 -798c-384 0 -637 260 -637 630c0 73 10 135 23 207h1078c-24 210 -177 350 -386 350c-165 0 -289 -75 -397 -192zM781 235c198 0 362 143 424 342h-787
c8 -200 147 -342 363 -342z" />
    <glyph glyph-name="florin" unicode="&#x192;" horiz-adv-x="1400" 
d="M1154 835l-46 -220h-255l-61 -278c-54 -245 -159 -362 -371 -362c-119 0 -199 33 -260 76l124 197c35 -21 80 -38 127 -38c78 0 108 49 128 141l58 264h-241l46 220h244l52 231c54 242 159 359 371 359c119 0 199 -33 260 -76l-125 -197c-34 21 -79 38 -127 38
c-78 0 -107 -49 -128 -141l-48 -214h252z" />
    <glyph glyph-name="uni01B5" unicode="&#x1b5;" horiz-adv-x="1283" 
d="M1368 1400l-47 -225l-344 -353h163l-52 -246h-332l-314 -319h717l-55 -257h-1090l50 231l346 353h-182l52 246h355l306 313h-710l55 257h1082z" />
    <glyph glyph-name="uni01B6" unicode="&#x1b6;" horiz-adv-x="1007" 
d="M1007 969l-43 -199l-212 -195h111l-37 -176h-242l-180 -166h472l-49 -233h-827l41 199l228 208h-118l37 176h253l167 154h-464l50 232h813z" />
    <glyph glyph-name="uni01CD" unicode="&#x1cd;" horiz-adv-x="1465" 
d="M1094 1400l241 -1400h-285l-51 326h-583l-188 -326h-304l831 1400h339zM875 1121l-311 -538h395zM621 1823h246l86 -155l149 155h264l-277 -315h-315z" />
    <glyph glyph-name="uni01CE" unicode="&#x1ce;" horiz-adv-x="1199" 
d="M600 995c134 0 233 -45 292 -124l22 98h259l-206 -969h-254l17 80c-64 -63 -147 -106 -262 -106c-235 0 -409 195 -409 446c0 276 205 575 541 575zM548 218c144 0 256 113 274 264c20 162 -77 270 -216 270c-158 0 -277 -139 -277 -305c0 -139 91 -229 219 -229z
M378 1413h246l86 -155l149 155h264l-277 -315h-315z" />
    <glyph glyph-name="uni01CF" unicode="&#x1cf;" horiz-adv-x="589" 
d="M632 1400l-298 -1400h-285l298 1400h285zM185 1823h246l86 -155l149 155h264l-277 -315h-315z" />
    <glyph glyph-name="uni01D0" unicode="&#x1d0;" horiz-adv-x="521" 
d="M495 969l-206 -969h-263l206 969h263zM81 1413h246l86 -155l149 155h264l-277 -315h-315z" />
    <glyph glyph-name="uni01D1" unicode="&#x1d1;" horiz-adv-x="1632" 
d="M915 1425c390 0 680 -260 680 -654c0 -434 -325 -797 -786 -797c-390 0 -680 260 -680 655c0 433 325 796 786 796zM897 1158c-282 0 -476 -237 -476 -510c0 -247 168 -406 407 -406c280 0 475 236 475 510c0 246 -169 406 -406 406zM635 1823h246l86 -155l149 155h264
l-277 -315h-315z" />
    <glyph glyph-name="uni01D2" unicode="&#x1d2;" horiz-adv-x="1171" 
d="M624 995c279 0 484 -189 484 -464c0 -304 -238 -557 -561 -557c-278 0 -484 188 -484 465c0 303 238 556 561 556zM606 752c-157 0 -276 -133 -276 -297c0 -140 96 -238 233 -238c158 0 278 134 278 297c0 140 -96 238 -235 238zM362 1412h246l86 -155l149 155h264
l-277 -315h-315z" />
    <glyph glyph-name="uni01D3" unicode="&#x1d3;" horiz-adv-x="1455" 
d="M1513 1400l-182 -861c-82 -390 -315 -564 -660 -564c-309 0 -532 151 -532 450c0 46 6 97 17 151l176 824h286l-177 -827c-8 -38 -12 -72 -12 -102c0 -160 103 -229 263 -229c173 0 311 93 360 325l176 833h285zM619 1823h246l86 -155l149 155h264l-277 -315h-315z" />
    <glyph glyph-name="uni01D4" unicode="&#x1d4;" horiz-adv-x="1152" 
d="M1134 969l-121 -568c-67 -316 -278 -426 -516 -426c-231 0 -398 123 -398 352c0 37 5 76 14 118l111 524h263l-116 -544c-5 -24 -7 -45 -7 -64c0 -100 64 -143 157 -143c114 0 207 74 239 229l110 522h264zM396 1413h246l86 -155l149 155h264l-277 -315h-315z" />
    <glyph glyph-name="uni01D5" unicode="&#x1d5;" horiz-adv-x="1455" 
d="M1513 1400l-182 -861c-82 -390 -315 -564 -660 -564c-309 0 -532 151 -532 450c0 46 6 97 17 151l176 824h286l-177 -827c-8 -38 -12 -72 -12 -102c0 -160 103 -229 263 -229c173 0 311 93 360 325l176 833h285zM659 1913l45 209h661l-45 -209h-661zM743 1834
c94 0 168 -74 168 -168s-74 -166 -168 -166s-166 72 -166 166s72 168 166 168zM1174 1834c94 0 168 -74 168 -168s-74 -166 -168 -166s-166 72 -166 166s72 168 166 168z" />
    <glyph glyph-name="uni01D6" unicode="&#x1d6;" horiz-adv-x="1152" 
d="M1134 969l-121 -568c-67 -316 -278 -426 -516 -426c-231 0 -398 123 -398 352c0 37 5 76 14 118l111 524h263l-116 -544c-5 -24 -7 -45 -7 -64c0 -100 64 -143 157 -143c114 0 207 74 239 229l110 522h264zM518 1424c94 0 168 -74 168 -168s-74 -166 -168 -166
s-166 72 -166 166s72 168 166 168zM949 1424c94 0 168 -74 168 -168s-74 -166 -168 -166s-166 72 -166 166s72 168 166 168zM456 1514l45 209h661l-45 -209h-661z" />
    <glyph glyph-name="uni01D7" unicode="&#x1d7;" horiz-adv-x="1455" 
d="M1513 1400l-182 -861c-82 -390 -315 -564 -660 -564c-309 0 -532 151 -532 450c0 46 6 97 17 151l176 824h286l-177 -827c-8 -38 -12 -72 -12 -102c0 -160 103 -229 263 -229c173 0 311 93 360 325l176 833h285zM1059 1911h-255l232 316h319zM743 1834
c94 0 168 -74 168 -168s-74 -166 -168 -166s-166 72 -166 166s72 168 166 168zM1174 1834c94 0 168 -74 168 -168s-74 -166 -168 -166s-166 72 -166 166s72 168 166 168z" />
    <glyph glyph-name="uni01D8" unicode="&#x1d8;" horiz-adv-x="1152" 
d="M1134 969l-121 -568c-67 -316 -278 -426 -516 -426c-231 0 -398 123 -398 352c0 37 5 76 14 118l111 524h263l-116 -544c-5 -24 -7 -45 -7 -64c0 -100 64 -143 157 -143c114 0 207 74 239 229l110 522h264zM518 1424c94 0 168 -74 168 -168s-74 -166 -168 -166
s-166 72 -166 166s72 168 166 168zM949 1424c94 0 168 -74 168 -168s-74 -166 -168 -166s-166 72 -166 166s72 168 166 168zM856 1512h-255l232 316h319z" />
    <glyph glyph-name="uni01D9" unicode="&#x1d9;" horiz-adv-x="1455" 
d="M1513 1400l-182 -861c-82 -390 -315 -564 -660 -564c-309 0 -532 151 -532 450c0 46 6 97 17 151l176 824h286l-177 -827c-8 -38 -12 -72 -12 -102c0 -160 103 -229 263 -229c173 0 311 93 360 325l176 833h285zM672 2217h246l86 -155l149 155h264l-277 -315h-315z
M743 1834c94 0 168 -74 168 -168s-74 -166 -168 -166s-166 72 -166 166s72 168 166 168zM1174 1834c94 0 168 -74 168 -168s-74 -166 -168 -166s-166 72 -166 166s72 168 166 168z" />
    <glyph glyph-name="uni01DA" unicode="&#x1da;" horiz-adv-x="1152" 
d="M1134 969l-121 -568c-67 -316 -278 -426 -516 -426c-231 0 -398 123 -398 352c0 37 5 76 14 118l111 524h263l-116 -544c-5 -24 -7 -45 -7 -64c0 -100 64 -143 157 -143c114 0 207 74 239 229l110 522h264zM518 1424c94 0 168 -74 168 -168s-74 -166 -168 -166
s-166 72 -166 166s72 168 166 168zM949 1424c94 0 168 -74 168 -168s-74 -166 -168 -166s-166 72 -166 166s72 168 166 168zM469 1818h246l86 -155l149 155h264l-277 -315h-315z" />
    <glyph glyph-name="uni01DB" unicode="&#x1db;" horiz-adv-x="1455" 
d="M1513 1400l-182 -861c-82 -390 -315 -564 -660 -564c-309 0 -532 151 -532 450c0 46 6 97 17 151l176 824h286l-177 -827c-8 -38 -12 -72 -12 -102c0 -160 103 -229 263 -229c173 0 311 93 360 325l176 833h285zM903 1912l-264 315h312l201 -315h-249zM743 1834
c94 0 168 -74 168 -168s-74 -166 -168 -166s-166 72 -166 166s72 168 166 168zM1174 1834c94 0 168 -74 168 -168s-74 -166 -168 -166s-166 72 -166 166s72 168 166 168z" />
    <glyph glyph-name="uni01DC" unicode="&#x1dc;" horiz-adv-x="1152" 
d="M1134 969l-121 -568c-67 -316 -278 -426 -516 -426c-231 0 -398 123 -398 352c0 37 5 76 14 118l111 524h263l-116 -544c-5 -24 -7 -45 -7 -64c0 -100 64 -143 157 -143c114 0 207 74 239 229l110 522h264zM518 1424c94 0 168 -74 168 -168s-74 -166 -168 -166
s-166 72 -166 166s72 168 166 168zM949 1424c94 0 168 -74 168 -168s-74 -166 -168 -166s-166 72 -166 166s72 168 166 168zM700 1513l-264 315h312l201 -315h-249z" />
    <glyph glyph-name="uni01E2" unicode="&#x1e2;" horiz-adv-x="2301" 
d="M2139 256l-55 -256h-1028l62 294h-572l-269 -294h-358l1307 1400h1146l-55 -256h-733l-66 -310h706l-55 -256h-705l-69 -322h744zM781 551h392l119 559zM1435 1561l45 209h661l-45 -209h-661z" />
    <glyph glyph-name="uni01E3" unicode="&#x1e3;" horiz-adv-x="1700" 
d="M1403 281l134 -170c-105 -93 -230 -137 -396 -137c-169 0 -295 61 -371 161c-102 -97 -228 -160 -392 -160c-211 0 -342 106 -342 272c0 204 163 331 419 331h257c2 13 3 26 3 39c0 92 -59 148 -197 148c-102 0 -182 -35 -252 -73l-79 205c119 69 233 98 378 98
c150 0 262 -47 324 -142c85 92 201 142 350 142c244 0 414 -154 414 -395c0 -66 -17 -152 -39 -202h-673c4 -129 86 -202 222 -202c89 0 167 26 240 85zM435 185c82 0 182 38 261 119c-6 30 -9 62 -9 95v3h-206c-108 0 -173 -46 -173 -120c0 -60 46 -97 127 -97zM1224 770
c-142 0 -218 -97 -254 -198h430c1 7 1 15 1 22c0 116 -70 176 -177 176zM602 1151l45 209h661l-45 -209h-661z" />
    <glyph glyph-name="Gcaron" unicode="&#x1e6;" horiz-adv-x="1579" 
d="M1432 1198l-214 -183c-72 90 -181 146 -324 146c-263 0 -475 -213 -475 -516c0 -254 166 -410 406 -410c212 0 350 107 405 303h-362l51 233h621c2 -30 -1 -66 -5 -101c-53 -429 -346 -696 -729 -696c-389 0 -677 265 -677 652c0 461 343 799 788 799
c136 0 367 -34 515 -227zM615 1823h246l86 -155l149 155h264l-277 -315h-315z" />
    <glyph glyph-name="gcaron" unicode="&#x1e7;" horiz-adv-x="1194" 
d="M1168 969l-196 -915c-64 -300 -258 -467 -535 -467c-176 0 -324 47 -456 139l122 206c96 -73 206 -115 325 -115c157 0 260 100 289 240l4 20c-60 -43 -134 -69 -233 -69c-246 0 -426 180 -426 424c0 281 200 563 534 563c138 0 234 -46 291 -122l21 96h260zM544 248
c158 0 273 120 273 287c0 127 -90 219 -216 219c-158 0 -272 -120 -272 -290c0 -125 90 -216 215 -216zM365 1413h246l86 -155l149 155h264l-277 -315h-315z" />
    <glyph glyph-name="Aringacute" unicode="&#x1fa;" horiz-adv-x="1465" 
d="M228 0h-304l804 1355c-36 44 -57 100 -57 162c0 141 118 257 261 257c145 0 263 -116 263 -257c0 -77 -34 -146 -88 -193l228 -1324h-285l-51 326h-583zM875 1121l-311 -538h395zM986 1841h-255l232 316h319zM932 1408c58 0 107 47 107 109c0 60 -49 108 -107 108
c-56 0 -105 -48 -105 -108c0 -62 49 -109 105 -109z" />
    <glyph glyph-name="aringacute" unicode="&#x1fb;" horiz-adv-x="1199" 
d="M600 995c134 0 233 -45 292 -124l22 98h259l-206 -969h-254l17 80c-64 -63 -147 -106 -262 -106c-235 0 -409 195 -409 446c0 276 205 575 541 575zM548 218c144 0 256 113 274 264c20 162 -77 270 -216 270c-158 0 -277 -139 -277 -305c0 -139 91 -229 219 -229z
M726 1043c-143 0 -261 115 -261 258c0 141 118 257 261 257c145 0 263 -116 263 -257c0 -143 -118 -258 -263 -258zM726 1192c58 0 107 47 107 109c0 60 -49 108 -107 108c-56 0 -105 -48 -105 -108c0 -62 49 -109 105 -109zM780 1604h-255l232 316h319z" />
    <glyph glyph-name="AEacute" unicode="&#x1fc;" horiz-adv-x="2301" 
d="M2139 256l-55 -256h-1028l62 294h-572l-269 -294h-358l1307 1400h1146l-55 -256h-733l-66 -310h706l-55 -256h-705l-69 -322h744zM781 551h392l119 559zM1828 1517h-255l232 316h319z" />
    <glyph glyph-name="aeacute" unicode="&#x1fd;" horiz-adv-x="1700" 
d="M1403 281l134 -170c-105 -93 -230 -137 -396 -137c-169 0 -295 61 -371 161c-102 -97 -228 -160 -392 -160c-211 0 -342 106 -342 272c0 204 163 331 419 331h257c2 13 3 26 3 39c0 92 -59 148 -197 148c-102 0 -182 -35 -252 -73l-79 205c119 69 233 98 378 98
c150 0 262 -47 324 -142c85 92 201 142 350 142c244 0 414 -154 414 -395c0 -66 -17 -152 -39 -202h-673c4 -129 86 -202 222 -202c89 0 167 26 240 85zM435 185c82 0 182 38 261 119c-6 30 -9 62 -9 95v3h-206c-108 0 -173 -46 -173 -120c0 -60 46 -97 127 -97zM1224 770
c-142 0 -218 -97 -254 -198h430c1 7 1 15 1 22c0 116 -70 176 -177 176zM999 1107h-255l232 316h319z" />
    <glyph glyph-name="Oslashacute" unicode="&#x1fe;" horiz-adv-x="1632" 
d="M915 1425c173 0 327 -52 444 -143l165 147l152 -172l-167 -148c55 -96 86 -210 86 -338c0 -434 -325 -797 -786 -797c-166 0 -313 47 -428 131l-150 -134l-152 171l146 130c-61 99 -96 220 -96 357c0 433 325 796 786 796zM897 1158c-282 0 -476 -237 -476 -510
c0 -64 11 -122 32 -173l687 612c-66 46 -149 71 -243 71zM1303 752c0 55 -9 106 -25 151l-677 -602c63 -38 140 -59 227 -59c280 0 475 236 475 510zM1029 1517h-255l232 316h319z" />
    <glyph glyph-name="oslashacute" unicode="&#x1ff;" horiz-adv-x="1171" 
d="M624 995c111 0 210 -30 290 -83l124 110l135 -151l-122 -108c37 -67 58 -145 58 -232c0 -304 -238 -557 -561 -557c-111 0 -210 29 -289 82l-124 -110l-135 151l121 108c-37 67 -58 146 -58 234c0 303 238 556 561 556zM607 759c-161 0 -283 -137 -283 -305
c0 -26 3 -51 9 -73l393 350c-35 18 -75 28 -119 28zM848 515c0 24 -3 46 -8 68l-391 -348c33 -16 71 -25 113 -25c163 0 286 137 286 305zM769 1106h-255l232 316h319z" />
    <glyph glyph-name="Scommaaccent" unicode="&#x218;" horiz-adv-x="1328" 
d="M1338 1261l-149 -224c-140 98 -303 129 -421 129c-184 0 -258 -85 -258 -174c0 -95 95 -134 219 -158l84 -16c236 -44 413 -154 413 -374c0 -286 -245 -470 -597 -470c-170 0 -432 51 -596 196l161 224c133 -121 332 -162 453 -162c157 0 279 61 279 173
c0 88 -82 129 -246 159l-89 17c-228 42 -382 165 -382 372c0 254 194 472 566 472c167 0 368 -31 563 -164zM501 -84h269l-166 -389h-229z" />
    <glyph glyph-name="scommaaccent" unicode="&#x219;" horiz-adv-x="967" 
d="M962 887l-119 -195c-91 56 -225 85 -304 85c-96 0 -149 -29 -155 -79c-7 -68 47 -80 136 -97l65 -12c220 -40 305 -150 287 -300c-23 -194 -182 -314 -444 -314c-154 0 -329 46 -442 131l125 191c89 -61 203 -105 321 -105c114 0 169 33 175 90c5 49 -35 75 -134 92
l-67 11c-222 36 -309 150 -290 306c24 198 183 303 423 303c163 0 304 -38 423 -107zM284 -84h269l-166 -389h-229z" />
    <glyph glyph-name="uni021A" unicode="&#x21a;" horiz-adv-x="1193" 
d="M1357 1400l-56 -261h-419l-242 -1139h-285l242 1139h-427l56 261h1131zM347 -84h269l-166 -389h-229z" />
    <glyph glyph-name="uni021B" unicode="&#x21b;" horiz-adv-x="923" 
d="M926 969l-50 -232h-339l-75 -351c-25 -117 24 -168 110 -168c56 0 113 21 169 55l92 -206c-90 -58 -192 -92 -309 -92c-268 0 -379 159 -326 409l75 353h-181l50 232h181l62 288h263l-62 -288h340zM323 -84h269l-166 -389h-229z" />
    <glyph glyph-name="uni0232" unicode="&#x232;" horiz-adv-x="1347" 
d="M1534 1400l-702 -848l-118 -552h-285l122 576l-348 824h298l230 -584l463 584h340zM538 1561l45 209h661l-45 -209h-661z" />
    <glyph glyph-name="uni0233" unicode="&#x233;" horiz-adv-x="1120" 
d="M1216 969l-943 -1373h-298l451 638l-313 735h282l196 -493l328 493h297zM355 1151l45 209h661l-45 -209h-661z" />
    <glyph glyph-name="uni0237" unicode="&#x237;" horiz-adv-x="528" 
d="M502 969l-230 -1082c-45 -209 -177 -308 -347 -308c-65 0 -130 15 -176 38l81 219c23 -10 48 -14 69 -14c52 0 103 33 120 113l219 1034h264z" />
    <glyph glyph-name="uni0259" unicode="&#x259;" horiz-adv-x="1072" 
d="M296 688l-134 170c105 93 230 137 396 137c292 0 459 -180 459 -425s-161 -596 -557 -596c-244 0 -413 154 -413 395c0 66 17 152 38 202h673c-4 129 -86 202 -222 202c-88 0 -166 -26 -240 -85zM475 199c140 0 216 94 253 194h-429c-1 -6 -1 -12 -1 -18
c0 -116 70 -176 177 -176z" />
    <glyph glyph-name="uni02BB" unicode="&#x2bb;" horiz-adv-x="524" 
d="M454 844h-292l252 596h234z" />
    <glyph glyph-name="afii57929" unicode="&#x2bc;" horiz-adv-x="524" 
d="M350 1440h292l-252 -596h-234z" />
    <glyph glyph-name="uni02BE" unicode="&#x2be;" horiz-adv-x="549" 
d="M266 1236l46 217c186 -20 323 -180 323 -370c0 -227 -180 -413 -419 -413c-22 0 -42 1 -69 6l47 219c11 -2 23 -3 37 -3c91 0 172 83 172 184c0 86 -61 154 -137 160z" />
    <glyph glyph-name="uni02BF" unicode="&#x2bf;" horiz-adv-x="549" 
d="M528 887l-46 -217c-186 20 -323 180 -323 370c0 227 180 413 419 413c22 0 42 -1 69 -6l-47 -219c-11 2 -23 3 -37 3c-91 0 -172 -83 -172 -184c0 -86 61 -154 137 -160z" />
    <glyph glyph-name="circumflex" unicode="&#x2c6;" horiz-adv-x="1069" 
d="M1030 1098h-246l-87 155l-148 -155h-264l277 315h315z" />
    <glyph glyph-name="caron" unicode="&#x2c7;" horiz-adv-x="1069" 
d="M341 1413h246l86 -155l149 155h264l-277 -315h-315z" />
    <glyph glyph-name="breve" unicode="&#x2d8;" horiz-adv-x="1069" 
d="M349 1399l200 58c11 -111 60 -164 149 -164c84 0 151 53 206 164l197 -58c-97 -206 -231 -315 -427 -315c-187 0 -314 111 -325 315z" />
    <glyph glyph-name="dotaccent" unicode="&#x2d9;" horiz-adv-x="598" 
d="M469 1454c94 0 167 -74 167 -168s-73 -166 -167 -166s-166 72 -166 166s72 168 166 168z" />
    <glyph glyph-name="ring" unicode="&#x2da;" horiz-adv-x="1000" 
d="M676 1076c-143 0 -261 115 -261 258c0 141 118 257 261 257c145 0 263 -116 263 -257c0 -143 -118 -258 -263 -258zM676 1225c58 0 107 47 107 109c0 60 -49 108 -107 108c-56 0 -105 -48 -105 -108c0 -62 49 -109 105 -109z" />
    <glyph glyph-name="ogonek" unicode="&#x2db;" horiz-adv-x="1105" 
d="M811 -175l118 -154c-71 -59 -158 -90 -253 -90c-180 0 -300 89 -300 215c0 127 82 219 361 295l64 -59c-154 -67 -181 -135 -181 -182c0 -38 30 -63 83 -63c39 0 74 14 108 38z" />
    <glyph glyph-name="tilde" unicode="&#x2dc;" horiz-adv-x="1069" 
d="M441 1117l-129 158c85 94 170 126 269 126c148 0 195 -70 257 -70c46 0 85 28 135 71l128 -158c-84 -94 -169 -127 -269 -127c-146 0 -193 70 -256 70c-47 0 -86 -27 -135 -70z" />
    <glyph glyph-name="hungarumlaut" unicode="&#x2dd;" horiz-adv-x="1069" 
d="M887 1108h-261l253 315h288zM507 1108h-255l226 315h283z" />
    <glyph glyph-name="gravecomb" unicode="&#x300;" 
d="M-579 1107l-264 315h312l201 -315h-249z" />
    <glyph glyph-name="acutecomb" unicode="&#x301;" 
d="M-421 1106h-255l232 316h319z" />
    <glyph glyph-name="uni0302" unicode="&#x302;" 
d="M-136 1097h-246l-87 155l-148 -155h-264l277 315h315z" />
    <glyph glyph-name="tildecomb" unicode="&#x303;" 
d="M-758 1116l-129 158c85 94 170 126 269 126c148 0 195 -70 257 -70c46 0 85 28 135 71l128 -158c-84 -94 -169 -127 -269 -127c-146 0 -193 70 -256 70c-47 0 -86 -27 -135 -70z" />
    <glyph glyph-name="uni0304" unicode="&#x304;" 
d="M-818 1150l45 209h661l-45 -209h-661z" />
    <glyph glyph-name="uni0306" unicode="&#x306;" 
d="M-829 1398l200 58c11 -111 60 -164 149 -164c84 0 151 53 206 164l197 -58c-97 -206 -231 -315 -427 -315c-187 0 -314 111 -325 315z" />
    <glyph glyph-name="uni0307" unicode="&#x307;" 
d="M-460 1453c94 0 167 -74 167 -168s-73 -166 -167 -166s-166 72 -166 166s72 168 166 168z" />
    <glyph glyph-name="uni0308" unicode="&#x308;" 
d="M-687 1423c94 0 168 -74 168 -168s-74 -166 -168 -166s-166 72 -166 166s72 168 166 168zM-256 1423c94 0 168 -74 168 -168s-74 -166 -168 -166s-166 72 -166 166s72 168 166 168z" />
    <glyph glyph-name="uni030A" unicode="&#x30a;" 
d="M-490 1075c-143 0 -261 115 -261 258c0 141 118 257 261 257c145 0 263 -116 263 -257c0 -143 -118 -258 -263 -258zM-490 1224c58 0 107 47 107 109c0 60 -49 108 -107 108c-56 0 -105 -48 -105 -108c0 -62 49 -109 105 -109z" />
    <glyph glyph-name="uni030B" unicode="&#x30b;" 
d="M-199 1107h-261l253 315h288zM-579 1107h-255l226 315h283z" />
    <glyph glyph-name="uni030C" unicode="&#x30c;" 
d="M-809 1412h246l86 -155l149 155h264l-277 -315h-315z" />
    <glyph glyph-name="uni0312" unicode="&#x312;" 
d="M-362 1107h-269l165 389h230z" />
    <glyph glyph-name="dotbelowcomb" unicode="&#x323;" 
d="M-547 -103c94 0 167 -74 167 -168s-73 -166 -167 -166s-166 72 -166 166s72 168 166 168z" />
    <glyph glyph-name="uni0326" unicode="&#x326;" 
d="M-697 -84h269l-166 -389h-229z" />
    <glyph glyph-name="uni0327" unicode="&#x327;" 
d="M-333 7l-162 -328h-265l181 328h246z" />
    <glyph glyph-name="uni0328" unicode="&#x328;" 
d="M-388 -175l118 -154c-71 -59 -158 -90 -253 -90c-180 0 -300 89 -300 215c0 127 82 219 361 295l64 -59c-154 -67 -181 -135 -181 -182c0 -38 30 -63 83 -63c39 0 74 14 108 38z" />
    <glyph glyph-name="uni032E" unicode="&#x32e;" 
d="M-941 -133l200 58c11 -111 60 -164 149 -164c84 0 151 53 206 164l197 -58c-97 -206 -231 -315 -427 -315c-187 0 -314 111 -325 315z" />
    <glyph glyph-name="uni0331" unicode="&#x331;" 
d="M-956 -367l45 210h662l-45 -210h-662z" />
    <glyph glyph-name="uni0335" unicode="&#x335;" 
d="M-199 635l-44 -215h-728l43 215h729z" />
    <glyph glyph-name="uni0336" unicode="&#x336;" 
d="M185 636l-44 -218h-1496l44 218h1496z" />
    <glyph glyph-name="uni0394" unicode="&#x394;" horiz-adv-x="1381" 
d="M1055 1400l208 -1182l-46 -218h-1259l46 218l712 1182h339zM979 261l-140 865l-508 -865h648z" />
    <glyph glyph-name="uni03A9" unicode="&#x3a9;" horiz-adv-x="1694" 
d="M1615 254l-54 -254h-636l49 231c222 62 360 279 360 514c0 236 -168 414 -417 414c-284 0 -480 -236 -480 -516c0 -201 106 -352 274 -405l-50 -238h-636l54 254h263c-123 111 -192 262 -192 435c0 417 344 735 779 736c413 0 703 -264 703 -635
c0 -203 -85 -394 -248 -536h231z" />
    <glyph glyph-name="uni03BC" unicode="&#x3bc;" horiz-adv-x="1161" 
d="M188 -400h-256l293 1369h262l-117 -544c-5 -22 -7 -43 -7 -64c0 -80 41 -142 152 -142c109 0 212 61 248 230l110 520h262l-206 -969h-252l22 98c-81 -93 -181 -124 -280 -124c-55 0 -104 10 -146 28z" />
    <glyph glyph-name="pi" unicode="&#x3c0;" horiz-adv-x="1157" 
d="M1139 969l-206 -969h-261l156 737h-385l-156 -737h-261l206 969h907z" />
    <glyph glyph-name="uni1E0C" unicode="&#x1e0c;" horiz-adv-x="1519" 
d="M347 1400h495c401 0 646 -248 646 -590c0 -448 -313 -810 -860 -810h-579zM810 1139h-234l-187 -878h272c334 0 532 221 532 516c0 213 -120 362 -383 362zM630 -103c94 0 167 -74 167 -168s-73 -166 -167 -166s-166 72 -166 166s72 168 166 168z" />
    <glyph glyph-name="uni1E0D" unicode="&#x1e0d;" horiz-adv-x="1202" 
d="M600 995c134 0 233 -45 292 -124l122 569h262l-306 -1440h-257l17 79c-65 -62 -147 -105 -262 -105c-234 0 -409 195 -409 446c0 276 205 575 541 575zM548 218c144 0 256 113 274 264c20 162 -77 270 -216 270c-158 0 -277 -139 -277 -305c0 -139 91 -229 219 -229z
M498 -103c94 0 167 -74 167 -168s-73 -166 -167 -166s-166 72 -166 166s72 168 166 168z" />
    <glyph glyph-name="uni1E0E" unicode="&#x1e0e;" horiz-adv-x="1519" 
d="M347 1400h495c401 0 646 -248 646 -590c0 -448 -313 -810 -860 -810h-579zM810 1139h-234l-187 -878h272c334 0 532 221 532 516c0 213 -120 362 -383 362zM273 -367l45 210h662l-45 -210h-662z" />
    <glyph glyph-name="uni1E0F" unicode="&#x1e0f;" horiz-adv-x="1202" 
d="M600 995c134 0 233 -45 292 -124l122 569h262l-306 -1440h-257l17 79c-65 -62 -147 -105 -262 -105c-234 0 -409 195 -409 446c0 276 205 575 541 575zM548 218c144 0 256 113 274 264c20 162 -77 270 -216 270c-158 0 -277 -139 -277 -305c0 -139 91 -229 219 -229z
M140 -367l45 210h662l-45 -210h-662z" />
    <glyph glyph-name="uni1E24" unicode="&#x1e24;" horiz-adv-x="1532" 
d="M632 1400l-120 -564h657l121 564h285l-299 -1400h-285l123 576h-658l-122 -576h-285l298 1400h285zM610 -103c94 0 167 -74 167 -168s-73 -166 -167 -166s-166 72 -166 166s72 168 166 168z" />
    <glyph glyph-name="uni1E25" unicode="&#x1e25;" horiz-adv-x="1161" 
d="M742 995c202 0 326 -135 326 -325c0 -33 -3 -69 -11 -105l-121 -565h-262l117 544c5 22 7 43 7 64c0 80 -41 142 -151 142c-109 0 -212 -61 -248 -230l-110 -520h-263l306 1440h262l-117 -553c78 81 171 108 265 108zM431 -103c94 0 167 -74 167 -168s-73 -166 -167 -166
s-166 72 -166 166s72 168 166 168z" />
    <glyph glyph-name="uni1E28" unicode="&#x1e28;" horiz-adv-x="1532" 
d="M632 1400l-120 -564h657l121 564h285l-299 -1400h-285l123 576h-658l-122 -576h-13l-157 -321h-282l176 321h-9l298 1400h285z" />
    <glyph glyph-name="uni1E29" unicode="&#x1e29;" horiz-adv-x="1161" 
d="M742 995c202 0 326 -135 326 -325c0 -33 -3 -69 -11 -105l-121 -565h-262l117 544c5 22 7 43 7 64c0 80 -41 142 -151 142c-109 0 -212 -61 -248 -230l-110 -520h-10l-158 -321h-265l177 321h-7l306 1440h262l-117 -553c78 81 171 108 265 108z" />
    <glyph glyph-name="uni1E2A" unicode="&#x1e2a;" horiz-adv-x="1532" 
d="M632 1400l-120 -564h657l121 564h285l-299 -1400h-285l123 576h-658l-122 -576h-285l298 1400h285zM268 -133l200 58c11 -111 60 -164 149 -164c84 0 151 53 206 164l197 -58c-97 -206 -231 -315 -427 -315c-187 0 -314 111 -325 315z" />
    <glyph glyph-name="uni1E2B" unicode="&#x1e2b;" horiz-adv-x="1161" 
d="M742 995c202 0 326 -135 326 -325c0 -33 -3 -69 -11 -105l-121 -565h-262l117 544c5 22 7 43 7 64c0 80 -41 142 -151 142c-109 0 -212 -61 -248 -230l-110 -520h-263l306 1440h262l-117 -553c78 81 171 108 265 108zM88 -133l200 58c11 -111 60 -164 149 -164
c84 0 151 53 206 164l197 -58c-97 -206 -231 -315 -427 -315c-187 0 -314 111 -325 315z" />
    <glyph glyph-name="uni1E32" unicode="&#x1e32;" horiz-adv-x="1388" 
d="M632 1400l-121 -567h105l549 567h362l-708 -701l476 -699h-327l-386 576h-126l-122 -576h-285l298 1400h285zM594 -103c94 0 167 -74 167 -168s-73 -166 -167 -166s-166 72 -166 166s72 168 166 168z" />
    <glyph glyph-name="uni1E33" unicode="&#x1e33;" horiz-adv-x="1070" 
d="M595 1440l-173 -816h78l321 345h329l-467 -477l288 -492h-289l-220 392h-90l-83 -392h-263l306 1440h263zM428 -103c94 0 167 -74 167 -168s-73 -166 -167 -166s-166 72 -166 166s72 168 166 168z" />
    <glyph glyph-name="uni1E36" unicode="&#x1e36;" horiz-adv-x="1184" 
d="M632 1400l-243 -1139h717l-56 -261h-1001l298 1400h285zM532 -103c94 0 167 -74 167 -168s-73 -166 -167 -166s-166 72 -166 166s72 168 166 168z" />
    <glyph glyph-name="uni1E37" unicode="&#x1e37;" horiz-adv-x="521" 
d="M595 1440l-306 -1440h-263l306 1440h263zM106 -103c94 0 167 -74 167 -168s-73 -166 -167 -166s-166 72 -166 166s72 168 166 168z" />
    <glyph glyph-name="uni1E38" unicode="&#x1e38;" horiz-adv-x="1184" 
d="M632 1400l-243 -1139h717l-56 -261h-1001l298 1400h285zM532 -103c94 0 167 -74 167 -168s-73 -166 -167 -166s-166 72 -166 166s72 168 166 168zM179 1561l45 209h661l-45 -209h-661z" />
    <glyph glyph-name="uni1E39" unicode="&#x1e39;" horiz-adv-x="521" 
d="M595 1440l-306 -1440h-263l306 1440h263zM162 1582l45 209h661l-45 -209h-661zM106 -103c94 0 167 -74 167 -168s-73 -166 -167 -166s-166 72 -166 166s72 168 166 168z" />
    <glyph glyph-name="uni1E3A" unicode="&#x1e3a;" horiz-adv-x="1184" 
d="M632 1400l-243 -1139h717l-56 -261h-1001l298 1400h285zM175 -367l45 210h662l-45 -210h-662z" />
    <glyph glyph-name="uni1E3B" unicode="&#x1e3b;" horiz-adv-x="521" 
d="M595 1440l-306 -1440h-263l306 1440h263zM-252 -367l45 210h662l-45 -210h-662z" />
    <glyph glyph-name="uni1E40" unicode="&#x1e40;" horiz-adv-x="1824" 
d="M1867 1400l-298 -1400h-284l222 1039l-512 -904h-296l-146 905l-220 -1040h-284l298 1400h399l150 -952l547 952h424zM1106 1849c99 0 175 -78 175 -177c0 -98 -76 -174 -175 -174s-174 76 -174 174c0 99 75 177 174 177z" />
    <glyph glyph-name="uni1E41" unicode="&#x1e41;" horiz-adv-x="1809" 
d="M1379 995c208 0 337 -135 337 -325c0 -33 -3 -69 -11 -105l-122 -565h-262l117 544c5 22 7 43 7 64c0 80 -40 142 -153 142c-109 0 -212 -61 -248 -230l-110 -520h-261l116 544c22 103 0 206 -143 206c-109 0 -212 -61 -248 -230l-110 -520h-262l206 969h252l-22 -98
c81 93 181 124 280 124c138 0 238 -63 288 -162c96 121 222 162 349 162zM1072 1443c94 0 167 -74 167 -168s-73 -166 -167 -166s-166 72 -166 166s72 168 166 168z" />
    <glyph glyph-name="uni1E42" unicode="&#x1e42;" horiz-adv-x="1824" 
d="M1867 1400l-298 -1400h-284l222 1039l-512 -904h-296l-146 905l-220 -1040h-284l298 1400h399l150 -952l547 952h424zM781 -103c94 0 167 -74 167 -168s-73 -166 -167 -166s-166 72 -166 166s72 168 166 168z" />
    <glyph glyph-name="uni1E43" unicode="&#x1e43;" horiz-adv-x="1809" 
d="M1379 995c208 0 337 -135 337 -325c0 -33 -3 -69 -11 -105l-122 -565h-262l117 544c5 22 7 43 7 64c0 80 -40 142 -153 142c-109 0 -212 -61 -248 -230l-110 -520h-261l116 544c22 103 0 206 -143 206c-109 0 -212 -61 -248 -230l-110 -520h-262l206 969h252l-22 -98
c81 93 181 124 280 124c138 0 238 -63 288 -162c96 121 222 162 349 162zM751 -103c94 0 167 -74 167 -168s-73 -166 -167 -166s-166 72 -166 166s72 168 166 168z" />
    <glyph glyph-name="uni1E44" unicode="&#x1e44;" horiz-adv-x="1545" 
d="M1588 1400l-298 -1400h-262l-490 964l-205 -964h-284l298 1400h263l489 -964l205 964h284zM985 1849c99 0 175 -78 175 -177c0 -98 -76 -174 -175 -174s-174 76 -174 174c0 99 75 177 174 177z" />
    <glyph glyph-name="uni1E45" unicode="&#x1e45;" horiz-adv-x="1161" 
d="M742 995c202 0 326 -135 326 -325c0 -33 -3 -69 -11 -105l-121 -565h-262l117 544c5 22 7 43 7 64c0 80 -41 142 -152 142c-109 0 -212 -61 -248 -230l-110 -520h-262l206 969h252l-22 -98c81 93 181 124 280 124zM738 1454c94 0 167 -74 167 -168s-73 -166 -167 -166
s-166 72 -166 166s72 168 166 168z" />
    <glyph glyph-name="uni1E46" unicode="&#x1e46;" horiz-adv-x="1545" 
d="M1588 1400l-298 -1400h-262l-490 964l-205 -964h-284l298 1400h263l489 -964l205 964h284zM650 -103c94 0 167 -74 167 -168s-73 -166 -167 -166s-166 72 -166 166s72 168 166 168z" />
    <glyph glyph-name="uni1E47" unicode="&#x1e47;" horiz-adv-x="1161" 
d="M742 995c202 0 326 -135 326 -325c0 -33 -3 -69 -11 -105l-121 -565h-262l117 544c5 22 7 43 7 64c0 80 -41 142 -152 142c-109 0 -212 -61 -248 -230l-110 -520h-262l206 969h252l-22 -98c81 93 181 124 280 124zM430 -103c94 0 167 -74 167 -168s-73 -166 -167 -166
s-166 72 -166 166s72 168 166 168z" />
    <glyph glyph-name="uni1E48" unicode="&#x1e48;" horiz-adv-x="1545" 
d="M1588 1400l-298 -1400h-262l-490 964l-205 -964h-284l298 1400h263l489 -964l205 964h284zM293 -367l45 210h662l-45 -210h-662z" />
    <glyph glyph-name="uni1E49" unicode="&#x1e49;" horiz-adv-x="1161" 
d="M742 995c202 0 326 -135 326 -325c0 -33 -3 -69 -11 -105l-121 -565h-262l117 544c5 22 7 43 7 64c0 80 -41 142 -152 142c-109 0 -212 -61 -248 -230l-110 -520h-262l206 969h252l-22 -98c81 93 181 124 280 124zM72 -367l45 210h662l-45 -210h-662z" />
    <glyph glyph-name="uni1E58" unicode="&#x1e58;" horiz-adv-x="1329" 
d="M347 1400h533c302 0 465 -168 465 -378c0 -200 -122 -444 -516 -464l385 -558h-326l-362 557h-74l-118 -557h-285zM846 1142h-269l-73 -342h295c205 0 257 101 257 193c0 91 -74 149 -210 149zM850 1849c99 0 175 -78 175 -177c0 -98 -76 -174 -175 -174
s-174 76 -174 174c0 99 75 177 174 177z" />
    <glyph glyph-name="uni1E59" unicode="&#x1e59;" horiz-adv-x="817" 
d="M397 516l-109 -516h-262l206 969h252l-23 -102c81 98 179 128 276 128c47 0 99 -11 144 -29l-84 -251c-38 20 -92 31 -141 31c-122 0 -223 -73 -259 -230zM606 1454c94 0 167 -74 167 -168s-73 -166 -167 -166s-166 72 -166 166s72 168 166 168z" />
    <glyph glyph-name="uni1E5A" unicode="&#x1e5a;" horiz-adv-x="1329" 
d="M347 1400h533c302 0 465 -168 465 -378c0 -200 -122 -444 -516 -464l385 -558h-326l-362 557h-74l-118 -557h-285zM846 1142h-269l-73 -342h295c205 0 257 101 257 193c0 91 -74 149 -210 149zM570 -103c94 0 167 -74 167 -168s-73 -166 -167 -166s-166 72 -166 166
s72 168 166 168z" />
    <glyph glyph-name="uni1E5B" unicode="&#x1e5b;" horiz-adv-x="817" 
d="M397 516l-109 -516h-262l206 969h252l-23 -102c81 98 179 128 276 128c47 0 99 -11 144 -29l-84 -251c-38 20 -92 31 -141 31c-122 0 -223 -73 -259 -230zM106 -103c94 0 167 -74 167 -168s-73 -166 -167 -166s-166 72 -166 166s72 168 166 168z" />
    <glyph glyph-name="uni1E5C" unicode="&#x1e5c;" horiz-adv-x="1329" 
d="M347 1400h533c302 0 465 -168 465 -378c0 -200 -122 -444 -516 -464l385 -558h-326l-362 557h-74l-118 -557h-285zM846 1142h-269l-73 -342h295c205 0 257 101 257 193c0 91 -74 149 -210 149zM570 -103c94 0 167 -74 167 -168s-73 -166 -167 -166s-166 72 -166 166
s72 168 166 168zM510 1561l45 209h661l-45 -209h-661z" />
    <glyph glyph-name="uni1E5D" unicode="&#x1e5d;" horiz-adv-x="817" 
d="M397 516l-109 -516h-262l206 969h252l-23 -102c81 98 179 128 276 128c47 0 99 -11 144 -29l-84 -251c-38 20 -92 31 -141 31c-122 0 -223 -73 -259 -230zM248 1151l45 209h661l-45 -209h-661zM106 -103c94 0 167 -74 167 -168s-73 -166 -167 -166s-166 72 -166 166
s72 168 166 168z" />
    <glyph glyph-name="uni1E5E" unicode="&#x1e5e;" horiz-adv-x="1329" 
d="M347 1400h533c302 0 465 -168 465 -378c0 -200 -122 -444 -516 -464l385 -558h-326l-362 557h-74l-118 -557h-285zM846 1142h-269l-73 -342h295c205 0 257 101 257 193c0 91 -74 149 -210 149zM213 -367l45 210h662l-45 -210h-662z" />
    <glyph glyph-name="uni1E5F" unicode="&#x1e5f;" horiz-adv-x="817" 
d="M397 516l-109 -516h-262l206 969h252l-23 -102c81 98 179 128 276 128c47 0 99 -11 144 -29l-84 -251c-38 20 -92 31 -141 31c-122 0 -223 -73 -259 -230zM-252 -367l45 210h662l-45 -210h-662z" />
    <glyph glyph-name="uni1E62" unicode="&#x1e62;" horiz-adv-x="1328" 
d="M1338 1261l-149 -224c-140 98 -303 129 -421 129c-184 0 -258 -85 -258 -174c0 -95 95 -134 219 -158l84 -16c236 -44 413 -154 413 -374c0 -286 -245 -470 -597 -470c-170 0 -432 51 -596 196l161 224c133 -121 332 -162 453 -162c157 0 279 61 279 173
c0 88 -82 129 -246 159l-89 17c-228 42 -382 165 -382 372c0 254 194 472 566 472c167 0 368 -31 563 -164zM600 -103c94 0 167 -74 167 -168s-73 -166 -167 -166s-166 72 -166 166s72 168 166 168z" />
    <glyph glyph-name="uni1E63" unicode="&#x1e63;" horiz-adv-x="967" 
d="M962 887l-119 -195c-91 56 -225 85 -304 85c-96 0 -149 -29 -155 -79c-7 -68 47 -80 136 -97l65 -12c220 -40 305 -150 287 -300c-23 -194 -182 -314 -444 -314c-154 0 -329 46 -442 131l125 191c89 -61 203 -105 321 -105c114 0 169 33 175 90c5 49 -35 75 -134 92
l-67 11c-222 36 -309 150 -290 306c24 198 183 303 423 303c163 0 304 -38 423 -107zM383 -103c94 0 167 -74 167 -168s-73 -166 -167 -166s-166 72 -166 166s72 168 166 168z" />
    <glyph glyph-name="uni1E6C" unicode="&#x1e6c;" horiz-adv-x="1193" 
d="M1357 1400l-56 -261h-419l-242 -1139h-285l242 1139h-427l56 261h1131zM446 -103c94 0 167 -74 167 -168s-73 -166 -167 -166s-166 72 -166 166s72 168 166 168z" />
    <glyph glyph-name="uni1E6D" unicode="&#x1e6d;" horiz-adv-x="923" 
d="M926 969l-50 -232h-339l-75 -351c-25 -117 24 -168 110 -168c56 0 113 21 169 55l92 -206c-90 -58 -192 -92 -309 -92c-268 0 -379 159 -326 409l75 353h-181l50 232h181l62 288h263l-62 -288h340zM422 -103c94 0 167 -74 167 -168s-73 -166 -167 -166s-166 72 -166 166
s72 168 166 168z" />
    <glyph glyph-name="uni1E6E" unicode="&#x1e6e;" horiz-adv-x="1193" 
d="M1357 1400l-56 -261h-419l-242 -1139h-285l242 1139h-427l56 261h1131zM89 -367l45 210h662l-45 -210h-662z" />
    <glyph glyph-name="uni1E6F" unicode="&#x1e6f;" horiz-adv-x="923" 
d="M926 969l-50 -232h-339l-75 -351c-25 -117 24 -168 110 -168c56 0 113 21 169 55l92 -206c-90 -58 -192 -92 -309 -92c-268 0 -379 159 -326 409l75 353h-181l50 232h181l62 288h263l-62 -288h340zM64 -367l45 210h662l-45 -210h-662z" />
    <glyph glyph-name="Wgrave" unicode="&#x1e80;" horiz-adv-x="2167" 
d="M2319 1400l-704 -1400h-330l-81 1003l-498 -1003h-344l-124 1400h282l79 -1078l529 1078h295l81 -1071l518 1071h297zM1202 1518l-264 315h312l201 -315h-249z" />
    <glyph glyph-name="wgrave" unicode="&#x1e81;" horiz-adv-x="1703" 
d="M1075 969l81 -674l345 674h283l-527 -969h-290l-76 656l-333 -656h-299l-133 969h262l75 -674l344 674h268zM888 1108l-264 315h312l201 -315h-249z" />
    <glyph glyph-name="Wacute" unicode="&#x1e82;" horiz-adv-x="2167" 
d="M2319 1400l-704 -1400h-330l-81 1003l-498 -1003h-344l-124 1400h282l79 -1078l529 1078h295l81 -1071l518 1071h297zM1358 1517h-255l232 316h319z" />
    <glyph glyph-name="wacute" unicode="&#x1e83;" horiz-adv-x="1703" 
d="M1075 969l81 -674l345 674h283l-527 -969h-290l-76 656l-333 -656h-299l-133 969h262l75 -674l344 674h268zM1046 1107h-255l232 316h319z" />
    <glyph glyph-name="Wdieresis" unicode="&#x1e84;" horiz-adv-x="2167" 
d="M2319 1400l-704 -1400h-330l-81 1003l-498 -1003h-344l-124 1400h282l79 -1078l529 1078h295l81 -1071l518 1071h297zM1095 1834c94 0 168 -74 168 -168s-74 -166 -168 -166s-166 72 -166 166s72 168 166 168zM1526 1834c94 0 168 -74 168 -168s-74 -166 -168 -166
s-166 72 -166 166s72 168 166 168z" />
    <glyph glyph-name="wdieresis" unicode="&#x1e85;" horiz-adv-x="1703" 
d="M1075 969l81 -674l345 674h283l-527 -969h-290l-76 656l-333 -656h-299l-133 969h262l75 -674l344 674h268zM780 1424c94 0 168 -74 168 -168s-74 -166 -168 -166s-166 72 -166 166s72 168 166 168zM1211 1424c94 0 168 -74 168 -168s-74 -166 -168 -166
s-166 72 -166 166s72 168 166 168z" />
    <glyph glyph-name="uni1E88" unicode="&#x1e88;" horiz-adv-x="2167" 
d="M2319 1400l-704 -1400h-330l-81 1003l-498 -1003h-344l-124 1400h282l79 -1078l529 1078h295l81 -1071l518 1071h297zM970 -103c94 0 167 -74 167 -168s-73 -166 -167 -166s-166 72 -166 166s72 168 166 168z" />
    <glyph glyph-name="uni1E89" unicode="&#x1e89;" horiz-adv-x="1703" 
d="M1075 969l81 -674l345 674h283l-527 -969h-290l-76 656l-333 -656h-299l-133 969h262l75 -674l344 674h268zM721 -103c94 0 167 -74 167 -168s-73 -166 -167 -166s-166 72 -166 166s72 168 166 168z" />
    <glyph glyph-name="uni1E92" unicode="&#x1e92;" horiz-adv-x="1283" 
d="M1368 1400l-47 -225l-879 -918h717l-55 -257h-1090l50 231l877 912h-710l55 257h1082zM538 -103c94 0 167 -74 167 -168s-73 -166 -167 -166s-166 72 -166 166s72 168 166 168z" />
    <glyph glyph-name="uni1E93" unicode="&#x1e93;" horiz-adv-x="1007" 
d="M1007 969l-43 -199l-560 -537h472l-49 -233h-827l41 199l567 538h-464l50 232h813zM376 -103c94 0 167 -74 167 -168s-73 -166 -167 -166s-166 72 -166 166s72 168 166 168z" />
    <glyph glyph-name="uni1E94" unicode="&#x1e94;" horiz-adv-x="1283" 
d="M1368 1400l-47 -225l-879 -918h717l-55 -257h-1090l50 231l877 912h-710l55 257h1082zM181 -367l45 210h662l-45 -210h-662z" />
    <glyph glyph-name="uni1E95" unicode="&#x1e95;" horiz-adv-x="1007" 
d="M1007 969l-43 -199l-560 -537h472l-49 -233h-827l41 199l567 538h-464l50 232h813zM18 -367l45 210h662l-45 -210h-662z" />
    <glyph glyph-name="uni1E96" unicode="&#x1e96;" horiz-adv-x="1161" 
d="M742 995c202 0 326 -135 326 -325c0 -33 -3 -69 -11 -105l-121 -565h-262l117 544c5 22 7 43 7 64c0 80 -41 142 -151 142c-109 0 -212 -61 -248 -230l-110 -520h-263l306 1440h262l-117 -553c78 81 171 108 265 108zM73 -367l45 210h662l-45 -210h-662z" />
    <glyph glyph-name="uni1E9E" unicode="&#x1e9e;" horiz-adv-x="1441" 
d="M33 0l195 918c58 271 248 507 624 507c253 0 467 -123 564 -297l-384 -355c213 -65 330 -206 303 -408c-33 -246 -258 -391 -540 -391c-102 0 -227 15 -328 49l90 250c76 -29 157 -39 231 -39c158 0 244 51 257 149c16 113 -88 190 -287 190h-92l43 204l348 327
c-66 53 -157 62 -226 62c-166 0 -291 -118 -326 -282l-187 -884h-285z" />
    <glyph glyph-name="Ygrave" unicode="&#x1ef2;" horiz-adv-x="1347" 
d="M1534 1400l-702 -848l-118 -552h-285l122 576l-348 824h298l230 -584l463 584h340zM775 1518l-264 315h312l201 -315h-249z" />
    <glyph glyph-name="ygrave" unicode="&#x1ef3;" horiz-adv-x="1120" 
d="M1216 969l-943 -1373h-298l451 638l-313 735h282l196 -493l328 493h297zM594 1108l-264 315h312l201 -315h-249z" />
    <glyph glyph-name="uni1EF4" unicode="&#x1ef4;" horiz-adv-x="1347" 
d="M1534 1400l-702 -848l-118 -552h-285l122 576l-348 824h298l230 -584l463 584h340zM520 -103c94 0 167 -74 167 -168s-73 -166 -167 -166s-166 72 -166 166s72 168 166 168z" />
    <glyph glyph-name="uni1EF5" unicode="&#x1ef5;" horiz-adv-x="1120" 
d="M1216 969l-943 -1373h-298l451 638l-313 735h282l196 -493l328 493h297zM745 -103c94 0 167 -74 167 -168s-73 -166 -167 -166s-166 72 -166 166s72 168 166 168z" />
    <glyph glyph-name="uni2007" unicode="&#x2007;" horiz-adv-x="1403" 
 />
    <glyph glyph-name="uni2008" unicode="&#x2008;" horiz-adv-x="538" 
 />
    <glyph glyph-name="uni2009" unicode="&#x2009;" horiz-adv-x="165" 
 />
    <glyph glyph-name="uni200B" unicode="&#x200b;" horiz-adv-x="0" 
 />
    <glyph glyph-name="uniFEFF" unicode="&#xfeff;" horiz-adv-x="0" 
 />
    <glyph glyph-name="uni2010" unicode="&#x2010;" horiz-adv-x="794" 
d="M721 646l-48 -228h-581l48 228h581z" />
    <glyph glyph-name="uni2011" unicode="&#x2011;" horiz-adv-x="794" 
d="M721 646l-48 -228h-581l48 228h581z" />
    <glyph glyph-name="figuredash" unicode="&#x2012;" horiz-adv-x="1200" 
d="M1097 644l-46 -223h-951l46 223h951z" />
    <glyph glyph-name="endash" unicode="&#x2013;" horiz-adv-x="1135" 
d="M1076 644l-46 -223h-951l46 223h951z" />
    <glyph glyph-name="emdash" unicode="&#x2014;" horiz-adv-x="1568" 
d="M1555 644l-46 -223h-1475l45 223h1476z" />
    <glyph glyph-name="quoteleft" unicode="&#x2018;" horiz-adv-x="524" 
d="M454 844h-292l252 596h234z" />
    <glyph glyph-name="quoteright" unicode="&#x2019;" horiz-adv-x="524" 
d="M350 1440h292l-252 -596h-234z" />
    <glyph glyph-name="quotesinglbase" unicode="&#x201a;" horiz-adv-x="524" 
d="M111 316h292l-252 -596h-234z" />
    <glyph glyph-name="quotedblleft" unicode="&#x201c;" horiz-adv-x="957" 
d="M454 844h-292l252 596h234zM887 844h-292l252 596h234z" />
    <glyph glyph-name="quotedblright" unicode="&#x201d;" horiz-adv-x="957" 
d="M783 1440h292l-252 -596h-234zM350 1440h292l-252 -596h-234z" />
    <glyph glyph-name="quotedblbase" unicode="&#x201e;" horiz-adv-x="957" 
d="M544 316h292l-252 -596h-234zM111 316h292l-252 -596h-234z" />
    <glyph glyph-name="dagger" unicode="&#x2020;" horiz-adv-x="788" 
d="M521 602h-203l89 422h-216l42 199h216l46 217h204l-46 -217h216l-43 -199h-216z" />
    <glyph glyph-name="daggerdbl" unicode="&#x2021;" horiz-adv-x="788" 
d="M699 1440l-35 -166h216l-41 -191h-216l-28 -131h216l-41 -191h-215l-35 -166h-204l35 166h-216l41 191h215l28 131h-215l41 191h215l35 166h204z" />
    <glyph glyph-name="bullet" unicode="&#x2022;" horiz-adv-x="861" 
d="M445 849c174 0 317 -141 317 -317s-143 -317 -317 -317c-175 0 -317 141 -317 317s142 317 317 317z" />
    <glyph glyph-name="uni2023" unicode="&#x2023;" horiz-adv-x="1005" 
d="M929 532l-832 -429l182 858z" />
    <glyph glyph-name="ellipsis" unicode="&#x2026;" horiz-adv-x="1644" 
d="M205 363c104 0 193 -89 193 -193c0 -105 -89 -195 -193 -195s-194 90 -194 195c0 104 90 193 194 193zM759 363c103 0 193 -89 193 -193c0 -105 -90 -195 -193 -195c-104 0 -195 90 -195 195c0 104 91 193 195 193zM1312 363c104 0 193 -89 193 -193
c0 -105 -89 -195 -193 -195s-194 90 -194 195c0 104 90 193 194 193z" />
    <glyph glyph-name="perthousand" unicode="&#x2030;" horiz-adv-x="2845" 
d="M593 1425c209 0 359 -145 359 -351c0 -222 -175 -410 -406 -410c-210 0 -361 145 -361 351c0 222 176 410 408 410zM581 1217c-101 0 -174 -86 -174 -188c0 -92 63 -157 150 -157c101 0 174 86 174 188c0 92 -63 157 -150 157zM1746 1400l-1110 -1400h-275l1110 1400h275
zM1562 736c208 0 359 -146 359 -352c0 -222 -175 -410 -407 -410c-209 0 -360 146 -360 351c0 222 176 411 408 411zM1550 527c-101 0 -174 -86 -174 -188c0 -92 63 -156 149 -156c102 0 174 85 174 187c0 92 -62 157 -149 157zM2392 736c209 0 359 -146 359 -352
c0 -222 -175 -410 -406 -410c-210 0 -361 146 -361 351c0 222 176 411 408 411zM2380 527c-101 0 -174 -86 -174 -188c0 -92 63 -156 150 -156c101 0 173 85 173 187c0 92 -62 157 -149 157z" />
    <glyph glyph-name="minute" unicode="&#x2032;" horiz-adv-x="568" 
d="M419 1400h258l-289 -681h-259z" />
    <glyph glyph-name="second" unicode="&#x2033;" horiz-adv-x="957" 
d="M808 1400h258l-289 -681h-259zM419 1400h258l-289 -681h-259z" />
    <glyph glyph-name="uni2034" unicode="&#x2034;" horiz-adv-x="1303" 
d="M786 1400h258l-289 -681h-259zM1154 1400h258l-289 -681h-259zM419 1400h258l-289 -681h-259z" />
    <glyph glyph-name="guilsinglleft" unicode="&#x2039;" horiz-adv-x="638" 
d="M639 922l-295 -417l102 -363h-249l-109 390l276 390h275z" />
    <glyph glyph-name="guilsinglright" unicode="&#x203a;" horiz-adv-x="638" 
d="M19 143l295 417l-102 363h249l109 -390l-276 -390h-275z" />
    <glyph glyph-name="fraction" unicode="&#x2044;" horiz-adv-x="476" 
d="M898 1400l-1055 -1400h-253l1055 1400h253z" />
    <glyph glyph-name="uni2070" unicode="&#x2070;" horiz-adv-x="891" 
d="M614 1415c186 0 319 -122 319 -332c0 -235 -154 -520 -432 -520c-186 0 -320 122 -320 331c0 235 155 521 433 521zM602 1228c-140 0 -214 -179 -214 -315c0 -102 46 -163 124 -163c140 0 215 178 215 315c0 103 -46 163 -125 163z" />
    <glyph glyph-name="uni2071" unicode="&#x2071;" horiz-adv-x="438" 
d="M488 1268l-147 -690h-193l146 690h194zM432 1613c69 0 123 -52 123 -121s-54 -122 -123 -122c-68 0 -121 53 -121 122s53 121 121 121z" />
    <glyph glyph-name="uni2074" unicode="&#x2074;" horiz-adv-x="718" 
d="M719 1113l-46 -215h104l-38 -181h-105l-29 -139h-195l29 139h-357l33 155l355 527h222l-337 -501h123l19 91l83 124h139z" />
    <glyph glyph-name="uni2075" unicode="&#x2075;" horiz-adv-x="716" 
d="M780 1400l-38 -179h-309l-32 -127h52c196 0 301 -125 268 -282c-35 -170 -168 -249 -344 -249c-118 0 -221 43 -282 118l115 129c44 -47 107 -70 176 -70c83 0 127 35 137 86c10 56 -22 99 -129 99h-202l109 475h479z" />
    <glyph glyph-name="uni2076" unicode="&#x2076;" horiz-adv-x="747" 
d="M759 1400l-248 -277c155 -8 268 -99 268 -251c0 -169 -139 -309 -340 -309c-171 0 -311 104 -311 266c0 73 29 161 114 259l269 312h248zM460 960c-76 0 -126 -55 -126 -120c0 -61 45 -104 112 -104c76 0 127 55 127 122c0 60 -48 102 -113 102z" />
    <glyph glyph-name="uni2077" unicode="&#x2077;" horiz-adv-x="682" 
d="M832 1400l-33 -163l-413 -659h-233l410 641h-366l38 181h597z" />
    <glyph glyph-name="uni2078" unicode="&#x2078;" horiz-adv-x="782" 
d="M569 1414c157 0 285 -79 285 -208c0 -95 -64 -177 -174 -220c65 -32 109 -84 109 -155c0 -145 -131 -268 -360 -268c-168 0 -298 82 -298 212c0 97 67 179 184 221c-54 31 -87 80 -87 146c0 147 129 272 341 272zM475 918c-72 0 -129 -42 -129 -106c0 -51 49 -80 104 -80
c73 0 131 40 131 105c0 52 -49 81 -106 81zM551 1245c-71 0 -118 -42 -118 -98c0 -47 38 -75 93 -75c68 0 119 42 119 98c0 47 -43 75 -94 75z" />
    <glyph glyph-name="uni2079" unicode="&#x2079;" horiz-adv-x="747" 
d="M202 578l247 276c-154 9 -267 99 -267 252c0 168 139 308 340 308c171 0 311 -103 311 -265c0 -73 -29 -161 -114 -259l-269 -312h-248zM502 1018c76 0 126 55 126 120c0 60 -46 103 -113 103c-76 0 -127 -54 -127 -122c0 -60 48 -101 114 -101z" />
    <glyph glyph-name="uni207F" unicode="&#x207f;" horiz-adv-x="818" 
d="M622 1287c146 0 235 -96 235 -233c0 -24 -3 -51 -9 -77l-87 -399h-193l83 388c3 15 5 28 5 42c0 56 -29 97 -103 97c-78 0 -144 -44 -168 -158l-77 -369h-194l147 690h186l-14 -57c55 56 121 76 189 76z" />
    <glyph glyph-name="uni2080" unicode="&#x2080;" horiz-adv-x="891" 
d="M412 452c186 0 319 -122 319 -332c0 -235 -154 -520 -432 -520c-186 0 -320 122 -320 331c0 235 155 521 433 521zM400 265c-140 0 -214 -179 -214 -315c0 -102 46 -163 124 -163c140 0 215 178 215 315c0 103 -46 163 -125 163z" />
    <glyph glyph-name="uni2081" unicode="&#x2081;" horiz-adv-x="527" 
d="M408 450l-177 -835h-195l121 570l-191 -59l42 200z" />
    <glyph glyph-name="uni2082" unicode="&#x2082;" horiz-adv-x="727" 
d="M128 189l-108 131c59 65 148 131 292 131c188 0 275 -120 275 -241c0 -109 -47 -181 -189 -296l-148 -119h282l-38 -180h-566l33 156l315 256c83 67 109 109 109 154c0 47 -38 84 -103 84c-68 0 -107 -32 -154 -76z" />
    <glyph glyph-name="uni2083" unicode="&#x2083;" horiz-adv-x="721" 
d="M101 205l-89 138c72 67 161 108 293 108c173 0 279 -99 279 -214c0 -92 -64 -179 -162 -218c65 -32 100 -89 100 -154c0 -145 -123 -265 -336 -265c-135 0 -233 45 -286 120l127 121c37 -45 96 -68 162 -68c91 0 134 42 134 97c0 50 -51 77 -121 77h-90l34 166h89
c93 0 145 42 145 95c0 44 -42 71 -106 71c-69 0 -130 -35 -173 -74z" />
    <glyph glyph-name="uni2084" unicode="&#x2084;" horiz-adv-x="718" 
d="M515 150l-46 -215h104l-38 -181h-105l-29 -139h-195l29 139h-357l33 155l355 527h222l-337 -501h123l19 91l83 124h139z" />
    <glyph glyph-name="uni2085" unicode="&#x2085;" horiz-adv-x="715" 
d="M577 437l-38 -179h-309l-32 -127h52c196 0 301 -125 268 -282c-35 -170 -168 -249 -344 -249c-118 0 -221 43 -282 118l115 129c44 -47 107 -70 176 -70c83 0 127 35 137 86c10 56 -22 99 -129 99h-202l109 475h479z" />
    <glyph glyph-name="uni2086" unicode="&#x2086;" horiz-adv-x="747" 
d="M556 437l-248 -277c155 -8 268 -99 268 -251c0 -169 -139 -309 -340 -309c-171 0 -311 104 -311 266c0 73 29 161 114 259l269 312h248zM257 -3c-76 0 -126 -55 -126 -120c0 -61 45 -104 112 -104c76 0 127 55 127 122c0 60 -48 102 -113 102z" />
    <glyph glyph-name="uni2087" unicode="&#x2087;" horiz-adv-x="682" 
d="M629 437l-33 -163l-413 -659h-233l410 641h-366l38 181h597z" />
    <glyph glyph-name="uni2088" unicode="&#x2088;" horiz-adv-x="782" 
d="M367 451c157 0 285 -79 285 -208c0 -95 -64 -177 -174 -220c65 -32 109 -84 109 -155c0 -145 -131 -268 -360 -268c-168 0 -298 82 -298 212c0 97 67 179 184 221c-54 31 -87 80 -87 146c0 147 129 272 341 272zM273 -45c-72 0 -129 -42 -129 -106c0 -51 49 -80 104 -80
c73 0 131 40 131 105c0 52 -49 81 -106 81zM349 282c-71 0 -118 -42 -118 -98c0 -47 38 -75 93 -75c68 0 119 42 119 98c0 47 -43 75 -94 75z" />
    <glyph glyph-name="uni2089" unicode="&#x2089;" horiz-adv-x="747" 
d="M-4 -385l247 276c-154 9 -267 99 -267 252c0 168 139 308 340 308c171 0 311 -103 311 -265c0 -73 -29 -161 -114 -259l-269 -312h-248zM296 55c76 0 126 55 126 120c0 60 -46 103 -113 103c-76 0 -127 -54 -127 -122c0 -60 48 -101 114 -101z" />
    <glyph glyph-name="Euro" unicode="&#x20ac;" horiz-adv-x="1400" 
d="M1163 365l132 -189c-111 -122 -259 -196 -431 -196c-305 0 -523 179 -578 472h-194l39 185h142c1 41 6 93 13 134h-134l39 185h144c112 293 360 466 668 466c132 0 314 -31 466 -206l-177 -185c-98 121 -214 148 -304 148c-155 0 -285 -82 -364 -223h524l-40 -185h-549
c-8 -42 -13 -85 -15 -134h536l-39 -185h-470c48 -144 160 -228 307 -228c116 0 216 59 285 141z" />
    <glyph glyph-name="uni20BA" unicode="&#x20ba;" horiz-adv-x="1400" 
d="M1055 486l211 -133c-128 -268 -331 -353 -612 -353h-440l69 324l-181 -77l42 208l183 78l30 139l-183 -78l43 207l184 79l111 522h273l-84 -394l409 175l-43 -208l-410 -175l-30 -138l410 175l-43 -209l-411 -176l-42 -196h136c153 0 289 38 378 230z" />
    <glyph glyph-name="uni2100" unicode="&#x2100;" horiz-adv-x="2000" 
d="M649 1425c182 0 296 -93 296 -249c0 -25 -3 -51 -9 -79l-81 -381h-187l10 50c-47 -39 -109 -68 -185 -68c-136 0 -226 81 -226 194c0 144 114 241 304 241h178c1 7 1 13 1 20c0 64 -42 102 -136 102c-75 0 -134 -27 -186 -55l-51 156c86 48 167 69 272 69zM555 853
c53 0 110 27 152 67l17 79h-135c-74 0 -117 -32 -117 -81c0 -39 29 -65 83 -65zM1737 1400l-1055 -1400h-253l1055 1400h253zM1871 531l-165 -90c-42 64 -97 77 -142 77c-108 0 -187 -93 -187 -203c0 -95 63 -161 147 -161c54 0 104 22 144 67l131 -118
c-71 -83 -171 -129 -283 -129c-201 0 -338 139 -338 327c0 216 162 397 396 397c139 0 241 -60 297 -167z" />
    <glyph glyph-name="uni2101" unicode="&#x2101;" horiz-adv-x="2000" 
d="M641 1425c182 0 296 -93 296 -249c0 -25 -3 -51 -9 -79l-81 -381h-187l10 50c-47 -39 -109 -68 -185 -68c-136 0 -226 81 -226 194c0 144 114 241 304 241h178c1 7 1 13 1 20c0 64 -42 102 -136 102c-75 0 -134 -27 -186 -55l-51 156c86 48 167 69 272 69zM547 853
c53 0 110 27 152 67l17 79h-135c-74 0 -117 -32 -117 -81c0 -39 29 -65 83 -65zM1721 1400l-1055 -1400h-253l1055 1400h253zM1833 622l-85 -144c-68 41 -164 60 -217 60c-66 0 -101 -19 -105 -52c-5 -46 32 -53 96 -65l46 -9c155 -29 215 -108 202 -214
c-16 -141 -131 -225 -318 -225c-112 0 -238 33 -316 92l90 143c64 -44 146 -75 230 -75c77 0 113 21 117 59c4 34 -25 53 -94 63l-47 7c-158 26 -218 108 -205 220c17 141 131 217 304 217c114 0 214 -27 302 -77z" />
    <glyph glyph-name="afii61248" unicode="&#x2105;" horiz-adv-x="2000" 
d="M924 1257l-165 -90c-42 64 -97 77 -142 77c-108 0 -187 -93 -187 -203c0 -95 63 -161 147 -161c54 0 104 22 144 67l131 -118c-71 -83 -171 -129 -283 -129c-201 0 -338 139 -338 327c0 216 162 397 396 397c139 0 241 -60 297 -167zM1664 1400l-1055 -1400h-253
l1055 1400h253zM1514 699c198 0 346 -133 346 -331c0 -216 -169 -396 -400 -396c-197 0 -346 132 -346 332c0 215 169 395 400 395zM1500 518c-106 0 -187 -90 -187 -203c0 -95 65 -163 158 -163c108 0 191 91 191 204c0 96 -67 162 -162 162z" />
    <glyph glyph-name="uni2106" unicode="&#x2106;" horiz-adv-x="2000" 
d="M928 1257l-165 -90c-42 64 -97 77 -142 77c-108 0 -187 -93 -187 -203c0 -95 63 -161 147 -161c54 0 104 22 144 67l131 -118c-71 -83 -171 -129 -283 -129c-201 0 -338 139 -338 327c0 216 162 397 396 397c139 0 241 -60 297 -167zM1661 1400l-1055 -1400h-253
l1055 1400h253zM1902 690l-85 -404c-48 -227 -199 -305 -368 -305c-166 0 -286 88 -286 253c0 27 4 55 10 85l78 371h194l-82 -387c-4 -16 -5 -30 -5 -44c0 -67 44 -96 108 -96c80 0 142 51 164 157l79 370h193z" />
    <glyph glyph-name="afii61289" unicode="&#x2113;" horiz-adv-x="1045" 
d="M196 366l-77 219c54 19 106 40 154 62l1 426c1 230 139 392 357 392c195 0 336 -138 336 -334c0 -269 -186 -470 -450 -619v-151c0 -101 59 -145 134 -145c67 0 130 28 186 64l102 -198c-81 -57 -181 -99 -306 -99c-227 0 -360 123 -360 369v44c-26 -11 -51 -21 -77 -30z
M518 1063l-1 -274c128 98 205 210 206 331c0 72 -34 117 -93 117c-65 0 -112 -59 -112 -174z" />
    <glyph glyph-name="afii61352" unicode="&#x2116;" horiz-adv-x="2376" 
d="M2337 582l-46 -217h-707l47 217h706zM2088 1418c208 0 354 -138 354 -335c0 -212 -170 -390 -399 -390c-208 0 -353 141 -353 332c0 213 167 393 398 393zM2078 1232c-110 0 -185 -88 -185 -194c0 -93 67 -160 160 -160c110 0 186 89 186 195c0 93 -67 159 -161 159z
M1588 1400l-298 -1400h-262l-490 964l-205 -964h-284l298 1400h263l489 -964l205 964h284z" />
    <glyph glyph-name="uni2117" unicode="&#x2117;" horiz-adv-x="1859" 
d="M923 -95c-423 0 -774 319 -774 751c0 453 391 859 884 859c423 0 773 -319 773 -751c0 -453 -390 -859 -883 -859zM1018 1296c-359 0 -637 -299 -637 -626c0 -318 255 -546 557 -546c359 0 637 299 637 626c0 318 -255 546 -557 546zM771 1117h332
c239 0 348 -152 314 -308c-35 -166 -173 -244 -369 -244h-178l-58 -272h-216zM1090 929h-143l-38 -181h142c88 0 140 21 152 83c11 54 -25 98 -113 98z" />
    <glyph glyph-name="uni2120" unicode="&#x2120;" horiz-adv-x="1619" 
d="M803 1332l-82 -129c-66 44 -155 58 -205 58c-72 0 -103 -23 -103 -52c0 -40 53 -53 107 -61l31 -5c125 -20 200 -81 200 -176c0 -139 -122 -226 -296 -226c-102 0 -228 30 -306 90l90 129c72 -51 157 -72 227 -72c61 0 107 17 107 55c0 35 -38 46 -113 59l-33 5
c-118 20 -191 82 -191 180c0 127 100 222 279 222c78 0 183 -10 288 -77zM1615 753h-178l89 419l-208 -359h-178l-57 360l-89 -420h-176l137 647h242l68 -388l231 388h256z" />
    <glyph glyph-name="trademark" unicode="&#x2122;" horiz-adv-x="1615" 
d="M1611 753h-178l89 419l-208 -359h-178l-57 360l-89 -420h-176l137 647h242l68 -388l231 388h256zM499 753h-177l103 485h-204l35 162h585l-35 -162h-204z" />
    <glyph glyph-name="Omega" unicode="&#x2126;" horiz-adv-x="1694" 
d="M1615 254l-54 -254h-636l49 231c222 62 360 279 360 514c0 236 -168 414 -417 414c-284 0 -480 -236 -480 -516c0 -201 106 -352 274 -405l-50 -238h-636l54 254h263c-123 111 -192 262 -192 435c0 417 344 735 779 736c413 0 703 -264 703 -635
c0 -203 -85 -394 -248 -536h231z" />
    <glyph glyph-name="estimated" unicode="&#x212e;" horiz-adv-x="2000" 
d="M563 650v-306c0 -118 33 -207 136 -266c106 -60 229 -95 361 -95c248 0 465 113 592 304l80 -62c-146 -216 -393 -343 -672 -343c-446 0 -812 328 -812 818s366 818 812 818c447 0 812 -328 812 -818c0 -17 0 -34 -1 -50h-1308zM563 750h1006v296c0 117 -32 205 -132 266
c-109 66 -237 105 -377 105c-132 0 -255 -35 -361 -95c-103 -59 -136 -148 -136 -266v-306z" />
    <glyph glyph-name="uni214D" unicode="&#x214d;" horiz-adv-x="2053" 
d="M825 1400l113 -743h-193l-17 140h-270l-75 -140h-210l425 743h227zM1914 666l-96 -151c-70 51 -172 67 -224 67c-72 0 -105 -25 -105 -57c0 -42 61 -55 118 -68l30 -7c137 -32 216 -94 216 -200c0 -163 -137 -264 -332 -264c-121 0 -260 35 -343 104l107 152
c81 -59 169 -84 250 -84c63 0 108 20 108 62c0 39 -42 51 -121 66l-32 6c-132 25 -210 93 -210 204c0 151 115 260 312 260c85 0 204 -10 322 -90zM679 1211l-129 -242h158zM1788 1400l-1055 -1400h-253l1055 1400h253z" />
    <glyph glyph-name="uni2150" unicode="&#x2150;" horiz-adv-x="1749" 
d="M1461 1400l-1055 -1400h-253l1055 1400h253zM1774 822l-33 -163l-413 -659h-233l410 641h-366l38 181h597zM612 1413l-177 -835h-195l121 570l-191 -59l42 200z" />
    <glyph glyph-name="uni2151" unicode="&#x2151;" horiz-adv-x="1786" 
d="M1461 1400l-1055 -1400h-253l1055 1400h253zM1120 0l247 276c-154 9 -267 99 -267 252c0 168 139 308 340 308c171 0 311 -103 311 -265c0 -73 -29 -161 -114 -259l-269 -312h-248zM1420 440c76 0 126 55 126 120c0 60 -46 103 -113 103c-76 0 -127 -54 -127 -122
c0 -60 48 -101 114 -101zM612 1413l-177 -835h-195l121 570l-191 -59l42 200z" />
    <glyph glyph-name="uni2152" unicode="&#x2152;" horiz-adv-x="2466" 
d="M1461 1400l-1055 -1400h-253l1055 1400h253zM1530 835l-177 -835h-195l121 570l-191 -59l42 200zM2063 837c186 0 319 -122 319 -332c0 -235 -154 -520 -432 -520c-186 0 -320 122 -320 331c0 235 155 521 433 521zM2051 650c-140 0 -214 -179 -214 -315
c0 -102 46 -163 124 -163c140 0 215 178 215 315c0 103 -46 163 -125 163zM612 1413l-177 -835h-195l121 570l-191 -59l42 200z" />
    <glyph glyph-name="onethird" unicode="&#x2153;" horiz-adv-x="1759" 
d="M1461 1400l-1055 -1400h-253l1055 1400h253zM1219 590l-89 138c72 67 161 108 293 108c173 0 279 -99 279 -214c0 -92 -64 -179 -162 -218c65 -32 100 -89 100 -154c0 -145 -123 -265 -336 -265c-135 0 -233 45 -286 120l127 121c37 -45 96 -68 162 -68
c91 0 134 42 134 97c0 50 -51 77 -121 77h-90l34 166h89c93 0 145 42 145 95c0 44 -42 71 -106 71c-69 0 -130 -35 -173 -74zM612 1413l-177 -835h-195l121 570l-191 -59l42 200z" />
    <glyph glyph-name="twothirds" unicode="&#x2154;" horiz-adv-x="1990" 
d="M1692 1400l-1055 -1400h-253l1055 1400h253zM1450 590l-89 138c72 67 161 108 293 108c173 0 279 -99 279 -214c0 -92 -64 -179 -162 -218c65 -32 100 -89 100 -154c0 -145 -123 -265 -336 -265c-135 0 -233 45 -286 120l127 121c37 -45 96 -68 162 -68
c91 0 134 42 134 97c0 50 -51 77 -121 77h-90l34 166h89c93 0 145 42 145 95c0 44 -42 71 -106 71c-69 0 -130 -35 -173 -74zM330 1152l-108 131c59 65 148 131 292 131c188 0 275 -120 275 -241c0 -109 -47 -181 -189 -296l-148 -119h282l-38 -180h-566l33 156l315 256
c83 67 109 109 109 154c0 47 -38 84 -103 84c-68 0 -107 -32 -154 -76z" />
    <glyph glyph-name="uni2155" unicode="&#x2155;" horiz-adv-x="1756" 
d="M1461 1400l-1055 -1400h-253l1055 1400h253zM1694 822l-38 -179h-309l-32 -127h52c196 0 301 -125 268 -282c-35 -170 -168 -249 -344 -249c-118 0 -221 43 -282 118l115 129c44 -47 107 -70 176 -70c83 0 127 35 137 86c10 56 -22 99 -129 99h-202l109 475h479z
M612 1413l-177 -835h-195l121 570l-191 -59l42 200z" />
    <glyph glyph-name="uni2156" unicode="&#x2156;" horiz-adv-x="1987" 
d="M1692 1400l-1055 -1400h-253l1055 1400h253zM1925 822l-38 -179h-309l-32 -127h52c196 0 301 -125 268 -282c-35 -170 -168 -249 -344 -249c-118 0 -221 43 -282 118l115 129c44 -47 107 -70 176 -70c83 0 127 35 137 86c10 56 -22 99 -129 99h-202l109 475h479z
M330 1152l-108 131c59 65 148 131 292 131c188 0 275 -120 275 -241c0 -109 -47 -181 -189 -296l-148 -119h282l-38 -180h-566l33 156l315 256c83 67 109 109 109 154c0 47 -38 84 -103 84c-68 0 -107 -32 -154 -76z" />
    <glyph glyph-name="uni2157" unicode="&#x2157;" horiz-adv-x="1922" 
d="M1627 1400l-1055 -1400h-253l1055 1400h253zM1860 822l-38 -179h-309l-32 -127h52c196 0 301 -125 268 -282c-35 -170 -168 -249 -344 -249c-118 0 -221 43 -282 118l115 129c44 -47 107 -70 176 -70c83 0 127 35 137 86c10 56 -22 99 -129 99h-202l109 475h479z
M304 1168l-89 138c72 67 161 108 293 108c173 0 279 -99 279 -214c0 -92 -64 -179 -162 -218c65 -32 100 -89 100 -154c0 -145 -123 -265 -336 -265c-135 0 -233 45 -286 120l127 121c37 -45 96 -68 162 -68c91 0 134 42 134 97c0 50 -51 77 -121 77h-90l34 166h89
c93 0 145 42 145 95c0 44 -42 71 -106 71c-69 0 -130 -35 -173 -74z" />
    <glyph glyph-name="uni2158" unicode="&#x2158;" horiz-adv-x="1942" 
d="M1647 1400l-1055 -1400h-253l1055 1400h253zM1879 822l-38 -179h-309l-32 -127h52c196 0 301 -125 268 -282c-35 -170 -168 -249 -344 -249c-118 0 -221 43 -282 118l115 129c44 -47 107 -70 176 -70c83 0 127 35 137 86c10 56 -22 99 -129 99h-202l109 475h479z
M719 1113l-46 -215h104l-38 -181h-105l-29 -139h-195l29 139h-357l33 155l355 527h222l-337 -501h123l19 91l83 124h139z" />
    <glyph glyph-name="uni2159" unicode="&#x2159;" horiz-adv-x="1677" 
d="M1461 1400l-1055 -1400h-253l1055 1400h253zM1564 822l-248 -277c155 -8 268 -99 268 -251c0 -169 -139 -309 -340 -309c-171 0 -311 104 -311 266c0 73 29 161 114 259l269 312h248zM1265 382c-76 0 -126 -55 -126 -120c0 -61 45 -104 112 -104c76 0 127 55 127 122
c0 60 -48 102 -113 102zM612 1413l-177 -835h-195l121 570l-191 -59l42 200z" />
    <glyph glyph-name="uni215A" unicode="&#x215a;" horiz-adv-x="1837" 
d="M1622 1400l-1055 -1400h-253l1055 1400h253zM1724 822l-248 -277c155 -8 268 -99 268 -251c0 -169 -139 -309 -340 -309c-171 0 -311 104 -311 266c0 73 29 161 114 259l269 312h248zM1425 382c-76 0 -126 -55 -126 -120c0 -61 45 -104 112 -104c76 0 127 55 127 122
c0 60 -48 102 -113 102zM780 1400l-38 -179h-309l-32 -127h52c196 0 301 -125 268 -282c-35 -170 -168 -249 -344 -249c-118 0 -221 43 -282 118l115 129c44 -47 107 -70 176 -70c83 0 127 35 137 86c10 56 -22 99 -129 99h-202l109 475h479z" />
    <glyph glyph-name="oneeighth" unicode="&#x215b;" horiz-adv-x="1787" 
d="M1461 1400l-1055 -1400h-253l1055 1400h253zM1449 836c157 0 285 -79 285 -208c0 -95 -64 -177 -174 -220c65 -32 109 -84 109 -155c0 -145 -131 -268 -360 -268c-168 0 -298 82 -298 212c0 97 67 179 184 221c-54 31 -87 80 -87 146c0 147 129 272 341 272zM1355 340
c-72 0 -129 -42 -129 -106c0 -51 49 -80 104 -80c73 0 131 40 131 105c0 52 -49 81 -106 81zM1431 667c-71 0 -118 -42 -118 -98c0 -47 38 -75 93 -75c68 0 119 42 119 98c0 47 -43 75 -94 75zM612 1413l-177 -835h-195l121 570l-191 -59l42 200z" />
    <glyph glyph-name="threeeighths" unicode="&#x215c;" horiz-adv-x="1953" 
d="M1627 1400l-1055 -1400h-253l1055 1400h253zM1615 836c157 0 285 -79 285 -208c0 -95 -64 -177 -174 -220c65 -32 109 -84 109 -155c0 -145 -131 -268 -360 -268c-168 0 -298 82 -298 212c0 97 67 179 184 221c-54 31 -87 80 -87 146c0 147 129 272 341 272zM1521 340
c-72 0 -129 -42 -129 -106c0 -51 49 -80 104 -80c73 0 131 40 131 105c0 52 -49 81 -106 81zM1597 667c-71 0 -118 -42 -118 -98c0 -47 38 -75 93 -75c68 0 119 42 119 98c0 47 -43 75 -94 75zM304 1168l-89 138c72 67 161 108 293 108c173 0 279 -99 279 -214
c0 -92 -64 -179 -162 -218c65 -32 100 -89 100 -154c0 -145 -123 -265 -336 -265c-135 0 -233 45 -286 120l127 121c37 -45 96 -68 162 -68c91 0 134 42 134 97c0 50 -51 77 -121 77h-90l34 166h89c93 0 145 42 145 95c0 44 -42 71 -106 71c-69 0 -130 -35 -173 -74z" />
    <glyph glyph-name="fiveeighths" unicode="&#x215d;" horiz-adv-x="1947" 
d="M1622 1400l-1055 -1400h-253l1055 1400h253zM1609 836c157 0 285 -79 285 -208c0 -95 -64 -177 -174 -220c65 -32 109 -84 109 -155c0 -145 -131 -268 -360 -268c-168 0 -298 82 -298 212c0 97 67 179 184 221c-54 31 -87 80 -87 146c0 147 129 272 341 272zM1515 340
c-72 0 -129 -42 -129 -106c0 -51 49 -80 104 -80c73 0 131 40 131 105c0 52 -49 81 -106 81zM1591 667c-71 0 -118 -42 -118 -98c0 -47 38 -75 93 -75c68 0 119 42 119 98c0 47 -43 75 -94 75zM780 1400l-38 -179h-309l-32 -127h52c196 0 301 -125 268 -282
c-35 -170 -168 -249 -344 -249c-118 0 -221 43 -282 118l115 129c44 -47 107 -70 176 -70c83 0 127 35 137 86c10 56 -22 99 -129 99h-202l109 475h479z" />
    <glyph glyph-name="seveneighths" unicode="&#x215e;" horiz-adv-x="1840" 
d="M1514 1400l-1055 -1400h-253l1055 1400h253zM1502 836c157 0 285 -79 285 -208c0 -95 -64 -177 -174 -220c65 -32 109 -84 109 -155c0 -145 -131 -268 -360 -268c-168 0 -298 82 -298 212c0 97 67 179 184 221c-54 31 -87 80 -87 146c0 147 129 272 341 272zM1408 340
c-72 0 -129 -42 -129 -106c0 -51 49 -80 104 -80c73 0 131 40 131 105c0 52 -49 81 -106 81zM1484 667c-71 0 -118 -42 -118 -98c0 -47 38 -75 93 -75c68 0 119 42 119 98c0 47 -43 75 -94 75zM832 1400l-33 -163l-413 -659h-233l410 641h-366l38 181h597z" />
    <glyph glyph-name="uni215F" unicode="&#x215f;" horiz-adv-x="1039" 
d="M1461 1400l-1055 -1400h-253l1055 1400h253zM612 1413l-177 -835h-195l121 570l-191 -59l42 200z" />
    <glyph glyph-name="uni2189" unicode="&#x2189;" horiz-adv-x="2087" 
d="M1789 1400l-1055 -1400h-253l1055 1400h253zM1546 590l-89 138c72 67 161 108 293 108c173 0 279 -99 279 -214c0 -92 -64 -179 -162 -218c65 -32 100 -89 100 -154c0 -145 -123 -265 -336 -265c-135 0 -233 45 -286 120l127 121c37 -45 96 -68 162 -68
c91 0 134 42 134 97c0 50 -51 77 -121 77h-90l34 166h89c93 0 145 42 145 95c0 44 -42 71 -106 71c-69 0 -130 -35 -173 -74zM614 1415c186 0 319 -122 319 -332c0 -235 -154 -520 -432 -520c-186 0 -320 122 -320 331c0 235 155 521 433 521zM602 1228
c-140 0 -214 -179 -214 -315c0 -102 46 -163 124 -163c140 0 215 178 215 315c0 103 -46 163 -125 163z" />
    <glyph glyph-name="arrowleft" unicode="&#x2190;" horiz-adv-x="2000" 
d="M1855 548h-971c-88 0 -165 0 -284 8c95 -77 179 -158 264 -242l147 -146l-161 -161l-654 655l654 654l161 -161l-147 -145c-85 -85 -169 -165 -264 -243c119 9 196 9 284 9h971v-228z" />
    <glyph glyph-name="arrowup" unicode="&#x2191;" horiz-adv-x="2000" 
d="M961 -124v970c0 88 0 165 8 284c-77 -95 -158 -178 -242 -264l-146 -147l-161 161l655 654l654 -654l-161 -161l-145 147c-85 86 -165 169 -242 264c8 -119 8 -196 8 -284v-970h-228z" />
    <glyph glyph-name="arrowright" unicode="&#x2192;" horiz-adv-x="2000" 
d="M228 776h971c88 0 165 0 284 -9c-95 78 -179 158 -265 243l-146 145l161 161l654 -654l-654 -655l-161 161l146 146c85 85 170 165 265 242c-119 -8 -196 -8 -284 -8h-971v228z" />
    <glyph glyph-name="arrowdown" unicode="&#x2193;" horiz-adv-x="2000" 
d="M1131 1534v-970c0 -88 0 -165 -8 -284c77 95 157 178 242 264l145 147l161 -161l-654 -654l-655 654l161 161l146 -147c84 -86 165 -169 242 -264c-8 119 -8 196 -8 284v970h228z" />
    <glyph glyph-name="uni2196" unicode="&#x2196;" horiz-adv-x="2000" 
d="M1544 11l-686 687c-62 63 -117 116 -195 206c12 -122 14 -238 15 -358l2 -207h-228v926h925v-228l-206 1c-121 1 -236 3 -358 16c90 -79 144 -133 206 -195l687 -687z" />
    <glyph glyph-name="uni2197" unicode="&#x2197;" horiz-adv-x="2000" 
d="M376 156l686 686c63 63 117 117 207 195c-122 -12 -238 -14 -358 -15l-207 -1v227h926v-925h-228l1 207c0 120 3 236 15 358c-78 -90 -133 -145 -194 -206l-687 -687z" />
    <glyph glyph-name="uni2198" unicode="&#x2198;" horiz-adv-x="2000" 
d="M548 1329l686 -687c62 -63 117 -117 195 -206c-12 121 -15 238 -15 358l-1 207h227v-926h-925v228l207 -1c120 -1 236 -3 358 -16c-90 79 -145 133 -207 195l-686 687z" />
    <glyph glyph-name="uni2199" unicode="&#x2199;" horiz-adv-x="2000" 
d="M1723 1150l-686 -686c-63 -63 -117 -117 -207 -195c122 12 238 15 358 15l207 1v-227h-926v925h228l-1 -206c-1 -121 -3 -236 -16 -358c79 90 133 144 195 206l687 687z" />
    <glyph glyph-name="partialdiff" unicode="&#x2202;" horiz-adv-x="1172" 
d="M345 1272l141 186c418 -165 627 -507 627 -869c0 -42 -3 -84 -9 -131c-35 -281 -264 -484 -549 -484c-291 0 -497 191 -497 448c0 285 228 518 505 518c109 0 202 -34 271 -95c-71 184 -244 322 -489 427zM601 709c-187 0 -274 -154 -274 -274c0 -133 101 -228 244 -228
c201 0 275 166 275 272c0 136 -101 230 -245 230z" />
    <glyph glyph-name="Delta" unicode="&#x2206;" horiz-adv-x="1381" 
d="M1055 1400l208 -1182l-46 -218h-1259l46 218l712 1182h339zM979 261l-140 865l-508 -865h648z" />
    <glyph glyph-name="product" unicode="&#x220f;" horiz-adv-x="1814" 
d="M1503 1400v-1665h-279v1404h-598v-1404h-279v1665h1156z" />
    <glyph glyph-name="summation" unicode="&#x2211;" horiz-adv-x="1592" 
d="M1339 1400v-261h-666l443 -482v-162l-450 -499h676v-261h-1075v218l559 618l-556 611v218h1069z" />
    <glyph glyph-name="minus" unicode="&#x2212;" horiz-adv-x="1200" 
d="M1084 644l-47 -223h-921l47 223h921z" />
    <glyph glyph-name="uni2219" unicode="&#x2219;" horiz-adv-x="1200" 
d="M600 849c174 0 317 -141 317 -317s-143 -317 -317 -317c-175 0 -317 141 -317 317s142 317 317 317z" />
    <glyph glyph-name="radical" unicode="&#x221a;" horiz-adv-x="1159" 
d="M1336 1440l-553 -1705h-339l-376 1000h301l244 -680l432 1385h291z" />
    <glyph glyph-name="infinity" unicode="&#x221e;" horiz-adv-x="1738" 
d="M58 524c0 258 191 421 411 421c163 0 274 -109 408 -256c134 147 244 256 407 256c221 0 412 -163 412 -421c0 -259 -191 -422 -412 -422c-163 0 -274 109 -408 256c-133 -147 -244 -256 -407 -256c-220 0 -411 163 -411 422zM294 524c0 -129 78 -199 175 -199
c71 0 129 58 257 199c-129 139 -185 198 -257 198c-97 0 -175 -70 -175 -198zM1459 524c0 128 -77 198 -175 198c-70 0 -127 -58 -255 -198c128 -141 185 -199 255 -199c98 0 175 70 175 199z" />
    <glyph glyph-name="integral" unicode="&#x222b;" horiz-adv-x="415" 
d="M552 1409l-60 -233c-16 4 -33 6 -52 6c-74 0 -114 -46 -114 -136v-960c0 -227 -120 -376 -346 -376c-52 0 -98 5 -140 16l60 233c16 -4 34 -6 52 -6c75 0 114 46 114 136v960c0 227 121 376 347 376c52 0 98 -5 139 -16z" />
    <glyph glyph-name="congruent" unicode="&#x2245;" horiz-adv-x="1200" 
d="M1052 432l-48 -223h-920l47 223h921zM1142 856l-47 -223h-921l47 223h921zM1104 1320l100 -173c-98 -83 -201 -128 -313 -128c-179 0 -232 89 -358 89c-66 0 -116 -29 -184 -86l-100 173c98 84 201 128 313 128c179 0 232 -89 358 -89c65 0 116 29 184 86z" />
    <glyph glyph-name="approxequal" unicode="&#x2248;" horiz-adv-x="1200" 
d="M1053 889l100 -173c-98 -83 -201 -128 -313 -128c-179 0 -232 89 -358 89c-66 0 -116 -29 -184 -86l-100 173c98 84 201 128 313 128c179 0 232 -89 358 -89c65 0 116 29 184 86zM962 469l100 -173c-98 -83 -201 -128 -313 -128c-179 0 -232 89 -358 89
c-66 0 -116 -29 -184 -86l-100 173c98 84 201 128 313 128c179 0 232 -89 358 -89c65 0 116 29 184 86z" />
    <glyph glyph-name="uni2259" unicode="&#x2259;" horiz-adv-x="1200" 
d="M1049 432l-48 -223h-920l47 223h921zM1139 856l-47 -223h-921l47 223h921zM1066 1019h-246l-87 155l-148 -155h-264l277 315h315z" />
    <glyph glyph-name="notequal" unicode="&#x2260;" horiz-adv-x="1200" 
d="M1049 432l-48 -223h-472l-122 -209h-233l122 209h-215l47 223h298l118 201h-373l47 223h456l122 209h233l-122 -209h232l-47 -223h-315l-118 -201h390z" />
    <glyph glyph-name="lessequal" unicode="&#x2264;" horiz-adv-x="1200" 
d="M1088 899l-584 -195l502 -195l-53 -247l-748 330l51 244l889 331zM127 223h819l-47 -223h-819z" />
    <glyph glyph-name="greaterequal" unicode="&#x2265;" horiz-adv-x="1200" 
d="M1092 836l-52 -244l-889 -330l57 268l584 195l-502 194l53 248zM143 223h819l-48 -223h-818z" />
    <glyph glyph-name="dotmath" unicode="&#x22c5;" horiz-adv-x="1200" 
d="M601 726c103 0 193 -89 193 -193c0 -105 -90 -195 -193 -195c-104 0 -195 90 -195 195c0 104 91 193 195 193z" />
    <glyph glyph-name="uni2300" unicode="&#x2205;" horiz-adv-x="1339" 
d="M1063 1062l158 -157l-116 -115c50 -78 79 -171 79 -270c0 -279 -227 -506 -506 -506c-100 0 -192 29 -271 78l-114 -114l-157 157l114 114c-50 78 -79 171 -79 271c0 279 227 507 507 507c99 0 192 -29 271 -79zM394 520c0 -44 10 -85 27 -122l377 378
c-36 18 -77 28 -120 28c-157 0 -284 -128 -284 -284zM678 237c156 0 283 127 283 283c0 42 -10 82 -26 118l-375 -375c36 -17 76 -26 118 -26z" />
    <glyph glyph-name="uni2300" unicode="&#x2300;" horiz-adv-x="1339" 
d="M1063 1062l158 -157l-116 -115c50 -78 79 -171 79 -270c0 -279 -227 -506 -506 -506c-100 0 -192 29 -271 78l-114 -114l-157 157l114 114c-50 78 -79 171 -79 271c0 279 227 507 507 507c99 0 192 -29 271 -79zM394 520c0 -44 10 -85 27 -122l377 378
c-36 18 -77 28 -120 28c-157 0 -284 -128 -284 -284zM678 237c156 0 283 127 283 283c0 42 -10 82 -26 118l-375 -375c36 -17 76 -26 118 -26z" />
    <glyph glyph-name="uni2460" unicode="&#x2460;" horiz-adv-x="2050" 
d="M1080 1604c508 0 918 -405 918 -903c0 -499 -410 -905 -918 -905s-918 406 -918 905c0 498 410 903 918 903zM1080 1368c-371 0 -671 -298 -671 -667c0 -370 300 -669 671 -669s672 299 672 669c0 369 -301 667 -672 667zM1219 1147v-863h-206v581l-207 -74v201z" />
    <glyph glyph-name="uni2461" unicode="&#x2461;" horiz-adv-x="2050" 
d="M1080 1604c508 0 918 -405 918 -903c0 -499 -410 -905 -918 -905s-918 406 -918 905c0 498 410 903 918 903zM1080 1368c-371 0 -671 -298 -671 -667c0 -370 300 -669 671 -669s672 299 672 669c0 369 -301 667 -672 667zM879 858l-121 140c55 66 153 151 321 151
c185 0 306 -110 306 -277c0 -104 -51 -177 -140 -260l-149 -137h307v-191h-600v162l303 282c42 40 65 80 65 123c0 61 -48 101 -114 101c-78 0 -130 -45 -178 -94z" />
    <glyph glyph-name="uni2462" unicode="&#x2462;" horiz-adv-x="2050" 
d="M1080 1604c508 0 918 -405 918 -903c0 -499 -410 -905 -918 -905s-918 406 -918 905c0 498 410 903 918 903zM1080 1368c-371 0 -671 -298 -671 -667c0 -370 300 -669 671 -669s672 299 672 669c0 369 -301 667 -672 667zM1071 1149c191 0 324 -97 324 -246
c0 -90 -47 -156 -129 -192c92 -35 147 -101 147 -191c0 -170 -163 -252 -337 -252c-133 0 -243 46 -311 125l115 133c49 -50 115 -77 186 -77c74 0 134 28 134 87c0 60 -68 90 -150 90h-100v173h101c75 0 133 30 133 86c0 54 -50 82 -122 82c-81 0 -140 -38 -178 -80
l-116 134c66 74 161 128 303 128z" />
    <glyph glyph-name="uni2463" unicode="&#x2463;" horiz-adv-x="2050" 
d="M1080 1604c508 0 918 -405 918 -903c0 -499 -410 -905 -918 -905s-918 406 -918 905c0 498 410 903 918 903zM1080 1368c-371 0 -671 -298 -671 -667c0 -370 300 -669 671 -669s672 299 672 669c0 369 -301 667 -672 667zM1305 840v-227h109v-187h-109v-142h-205v142
h-386v143l284 564h226l-266 -520h142v88l70 139h135z" />
    <glyph glyph-name="uni2464" unicode="&#x2464;" horiz-adv-x="2050" 
d="M1080 1604c508 0 918 -405 918 -903c0 -499 -410 -905 -918 -905s-918 406 -918 905c0 498 410 903 918 903zM1080 1368c-371 0 -671 -298 -671 -667c0 -370 300 -669 671 -669s672 299 672 669c0 369 -301 667 -672 667zM1363 1134v-189h-341l-4 -127h82
c205 0 316 -103 316 -253c0 -181 -141 -297 -333 -297c-135 0 -247 50 -317 117l101 152c42 -38 129 -82 215 -82c80 0 121 39 121 95c0 53 -41 92 -154 92h-215l11 492h518z" />
    <glyph glyph-name="uni2465" unicode="&#x2465;" horiz-adv-x="2050" 
d="M1080 1604c508 0 918 -405 918 -903c0 -499 -410 -905 -918 -905s-918 406 -918 905c0 498 410 903 918 903zM1080 1368c-371 0 -671 -298 -671 -667c0 -370 300 -669 671 -669s672 299 672 669c0 369 -301 667 -672 667zM1297 1134l-210 -285h12
c194 0 312 -126 312 -282c0 -173 -147 -299 -339 -299c-193 0 -340 124 -340 292c0 81 32 160 88 240l229 334h248zM1072 678c-71 0 -124 -48 -124 -114s53 -113 124 -113c70 0 124 48 124 113c0 66 -54 114 -124 114z" />
    <glyph glyph-name="uni2466" unicode="&#x2466;" horiz-adv-x="2050" 
d="M1080 1604c508 0 918 -405 918 -903c0 -499 -410 -905 -918 -905s-918 406 -918 905c0 498 410 903 918 903zM1080 1368c-371 0 -671 -298 -671 -667c0 -370 300 -669 671 -669s672 299 672 669c0 369 -301 667 -672 667zM1424 1134v-162l-344 -688h-245l346 659h-392
v191h635z" />
    <glyph glyph-name="uni2467" unicode="&#x2467;" horiz-adv-x="2050" 
d="M1080 1604c508 0 918 -405 918 -903c0 -499 -410 -905 -918 -905s-918 406 -918 905c0 498 410 903 918 903zM1080 1368c-371 0 -671 -298 -671 -667c0 -370 300 -669 671 -669s672 299 672 669c0 369 -301 667 -672 667zM1080 1149c180 0 328 -92 328 -246
c0 -95 -58 -156 -133 -190c86 -34 155 -95 155 -198c0 -154 -158 -247 -350 -247c-191 0 -349 93 -349 247c0 103 68 165 155 198c-76 34 -133 95 -133 190c0 154 148 246 327 246zM1080 635c-68 0 -124 -34 -124 -96c0 -60 56 -94 124 -94c69 0 126 34 126 94
c0 62 -57 96 -126 96zM1080 971c-61 0 -109 -31 -109 -87s48 -88 109 -88c62 0 111 32 111 88s-49 87 -111 87z" />
    <glyph glyph-name="uni2468" unicode="&#x2468;" horiz-adv-x="2050" 
d="M1080 1604c508 0 918 -405 918 -903c0 -499 -410 -905 -918 -905s-918 406 -918 905c0 498 410 903 918 903zM1080 1368c-371 0 -671 -298 -671 -667c0 -370 300 -669 671 -669s672 299 672 669c0 369 -301 667 -672 667zM866 284l208 284h-10c-194 0 -312 126 -312 283
c0 173 146 298 339 298s340 -123 340 -292c0 -81 -33 -159 -88 -240l-230 -333h-247zM1091 740c71 0 124 48 124 113c0 66 -53 114 -124 114s-124 -48 -124 -114c0 -65 53 -113 124 -113z" />
    <glyph glyph-name="uni24EA" unicode="&#x24ea;" horiz-adv-x="2050" 
d="M1080 1604c508 0 918 -405 918 -903c0 -499 -410 -905 -918 -905s-918 406 -918 905c0 498 410 903 918 903zM1080 1368c-371 0 -671 -298 -671 -667c0 -370 300 -669 671 -669s672 299 672 669c0 369 -301 667 -672 667zM1080 1149c216 0 387 -165 387 -440
c0 -276 -171 -441 -387 -441c-215 0 -386 165 -386 441c0 275 171 440 386 440zM1080 952c-97 0 -172 -84 -172 -244c0 -159 75 -243 172 -243c98 0 173 84 173 243c0 160 -75 244 -173 244z" />
    <glyph glyph-name="uni24FF" unicode="&#x24ff;" horiz-adv-x="2050" 
d="M1079 1149c-215 0 -387 -165 -387 -440c0 -276 172 -441 387 -441c216 0 387 165 387 441c0 275 -171 440 -387 440zM1079 952c97 0 173 -84 173 -244c0 -159 -76 -243 -173 -243s-173 84 -173 243c0 160 76 244 173 244zM1079 1583c496 0 896 -396 896 -882
c0 -487 -400 -884 -896 -884s-897 397 -897 884c0 486 401 882 897 882z" />
    <glyph glyph-name="filledbox" unicode="&#x25a0;" horiz-adv-x="1800" 
d="M242 1400h1400v-1400h-1400v1400z" />
    <glyph glyph-name="H22073" unicode="&#x25a1;" horiz-adv-x="1800" 
d="M242 1400h1400v-1400h-1400v1400zM480 1162v-924h925v924h-925z" />
    <glyph glyph-name="uni25AE" unicode="&#x258c;" horiz-adv-x="1800" 
d="M242 1400h700v-1400h-700v1400z" />
    <glyph glyph-name="uni25AE" unicode="&#x25ae;" horiz-adv-x="1800" 
d="M242 1400h700v-1400h-700v1400z" />
    <glyph glyph-name="triagup" unicode="&#x25b2;" horiz-adv-x="1800" 
d="M880 1420l820 -1420h-1640z" />
    <glyph glyph-name="uni25B3" unicode="&#x25b3;" horiz-adv-x="1800" 
d="M880 1420l820 -1420h-1640zM880 945l-408 -707h817z" />
    <glyph glyph-name="uni25B4" unicode="&#x25b4;" horiz-adv-x="1200" 
d="M591 1046l444 -767h-889z" />
    <glyph glyph-name="uni25B8" unicode="&#x25b8;" horiz-adv-x="1200" 
d="M1084 662l-769 -446v891z" />
    <glyph glyph-name="triagdn" unicode="&#x25bc;" horiz-adv-x="1800" 
d="M1013 -20l-820 1420h1640z" />
    <glyph glyph-name="uni25BD" unicode="&#x25bd;" horiz-adv-x="1800" 
d="M1013 -20l-820 1420h1640zM1013 455l408 707h-817z" />
    <glyph glyph-name="uni25BE" unicode="&#x25be;" horiz-adv-x="1200" 
d="M684 278l-444 767h889z" />
    <glyph glyph-name="uni25C2" unicode="&#x25c2;" horiz-adv-x="1199" 
d="M191 662l768 445v-891z" />
    <glyph glyph-name="uni25C6" unicode="&#x25c6;" horiz-adv-x="1800" 
d="M954 1438l738 -738l-738 -738l-738 738z" />
    <glyph glyph-name="uni25C7" unicode="&#x25c7;" horiz-adv-x="1800" 
d="M954 1438l738 -738l-738 -738l-738 738zM954 1102l-402 -402l402 -402l402 402z" />
    <glyph glyph-name="lozenge" unicode="&#x25ca;" horiz-adv-x="1530" 
d="M1500 700l-558 -700h-263l-557 700l558 700h263zM1171 699l-364 451l-354 -448l364 -453z" />
    <glyph glyph-name="circle" unicode="&#x25cb;" horiz-adv-x="1800" 
d="M954 -39c-409 0 -739 331 -739 739s330 739 739 739c408 0 739 -331 739 -739s-331 -739 -739 -739zM954 199c277 0 501 224 501 501s-224 501 -501 501c-278 0 -502 -224 -502 -501s224 -501 502 -501z" />
    <glyph glyph-name="H18533" unicode="&#x25cf;" horiz-adv-x="1800" 
d="M954 -39c-409 0 -739 331 -739 739s330 739 739 739c408 0 739 -331 739 -739s-331 -739 -739 -739z" />
    <glyph glyph-name="uni25D0" unicode="&#x25d0;" horiz-adv-x="1800" 
d="M954 -39c-409 0 -739 331 -739 739s330 739 739 739c408 0 739 -331 739 -739s-331 -739 -739 -739zM954 1201v-1002c277 0 501 224 501 501s-224 501 -501 501z" />
    <glyph glyph-name="uni25D6" unicode="&#x25d6;" horiz-adv-x="1800" 
d="M954 1439v-1478c-409 0 -739 331 -739 739s330 739 739 739z" />
    <glyph glyph-name="uni25E7" unicode="&#x25e7;" horiz-adv-x="1800" 
d="M242 1400h1400v-1400h-1400v1400zM942 1162v-924h463v924h-463z" />
    <glyph glyph-name="uni2610" unicode="&#x2610;" horiz-adv-x="2200" 
d="M293 1547h1694v-1694h-1694v1694zM487 1352v-1304h1305v1304h-1305z" />
    <glyph glyph-name="uni2611" unicode="&#x2611;" horiz-adv-x="2200" 
d="M293 1547h1694v-1694h-1694v1694zM487 1352v-1304h1305v1304h-1305zM1529 1191l153 -109l-653 -909l-416 469l137 126l261 -297z" />
    <glyph glyph-name="uni2612" unicode="&#x2612;" horiz-adv-x="2200" 
d="M1987 1547v-1694h-1694v1694h1694zM1792 1352h-1305v-1304h1305v1304zM666 360l340 340l-340 340l134 134l340 -341l340 341l133 -134l-341 -340l341 -340l-133 -134l-340 341l-340 -341z" />
    <glyph glyph-name="heart" unicode="&#x2665;" horiz-adv-x="1800" 
d="M1306 1255c184 0 318 -140 318 -325c0 -272 -293 -587 -630 -824c-337 237 -630 552 -630 824c0 185 134 325 318 325c164 0 312 -113 312 -246c0 133 148 246 312 246z" />
    <glyph glyph-name="uni2713" unicode="&#x2713;" horiz-adv-x="2200" 
d="M1656 1322l183 -136l-818 -1104l-477 520l168 154l290 -316z" />
    <glyph glyph-name="uni2715" unicode="&#x2573;" horiz-adv-x="2172" 
d="M2031 -233l-202 -167l-724 921l-1149 -948l-151 194l1131 933l-735 933l202 167l724 -920l1149 947l151 -194l-1131 -933z" />
    <glyph glyph-name="uni2715" unicode="&#x2715;" horiz-adv-x="2172" 
d="M2031 -233l-202 -167l-724 921l-1149 -948l-151 194l1131 933l-735 933l202 167l724 -920l1149 947l151 -194l-1131 -933z" />
    <glyph glyph-name="uni2717" unicode="&#x2717;" horiz-adv-x="2200" 
d="M1301 700l419 -419l-161 -161l-419 419l-419 -419l-161 161l419 419l-419 419l161 161l419 -419l419 419l161 -161z" />
    <glyph glyph-name="uni278A" unicode="&#x2776;" horiz-adv-x="2050" 
d="M1217 1147l-412 -155v-201l207 74v-581h205v863zM1079 1583c496 0 896 -396 896 -882c0 -487 -400 -884 -896 -884s-897 397 -897 884c0 486 401 882 897 882z" />
    <glyph glyph-name="uni278A" unicode="&#x278a;" horiz-adv-x="2050" 
d="M1217 1147l-412 -155v-201l207 74v-581h205v863zM1079 1583c496 0 896 -396 896 -882c0 -487 -400 -884 -896 -884s-897 397 -897 884c0 486 401 882 897 882z" />
    <glyph glyph-name="uni278B" unicode="&#x2777;" horiz-adv-x="2050" 
d="M757 998l121 -140c48 49 99 94 178 94c65 0 114 -40 114 -101c0 -43 -23 -84 -65 -123l-304 -282v-162h601v191h-308l150 137c89 82 139 156 139 260c0 167 -120 277 -305 277c-168 0 -267 -85 -321 -151zM1079 1583c496 0 896 -396 896 -882c0 -487 -400 -884 -896 -884
s-897 397 -897 884c0 486 401 882 897 882z" />
    <glyph glyph-name="uni278B" unicode="&#x278b;" horiz-adv-x="2050" 
d="M757 998l121 -140c48 49 99 94 178 94c65 0 114 -40 114 -101c0 -43 -23 -84 -65 -123l-304 -282v-162h601v191h-308l150 137c89 82 139 156 139 260c0 167 -120 277 -305 277c-168 0 -267 -85 -321 -151zM1079 1583c496 0 896 -396 896 -882c0 -487 -400 -884 -896 -884
s-897 397 -897 884c0 486 401 882 897 882z" />
    <glyph glyph-name="uni278C" unicode="&#x2778;" horiz-adv-x="2050" 
d="M1079 1583c496 0 896 -396 896 -882c0 -487 -400 -884 -896 -884s-897 397 -897 884c0 486 401 882 897 882zM1070 1149c-142 0 -237 -54 -303 -128l116 -134c38 42 97 80 178 80c71 0 121 -28 121 -82c0 -56 -57 -86 -132 -86h-101v-173h99c83 0 151 -30 151 -90
c0 -59 -60 -87 -135 -87c-70 0 -136 27 -186 77l-115 -133c69 -79 178 -125 312 -125c174 0 337 82 337 252c0 90 -55 157 -147 192c81 36 129 101 129 191c0 149 -133 246 -324 246z" />
    <glyph glyph-name="uni278C" unicode="&#x278c;" horiz-adv-x="2050" 
d="M1079 1583c496 0 896 -396 896 -882c0 -487 -400 -884 -896 -884s-897 397 -897 884c0 486 401 882 897 882zM1070 1149c-142 0 -237 -54 -303 -128l116 -134c38 42 97 80 178 80c71 0 121 -28 121 -82c0 -56 -57 -86 -132 -86h-101v-173h99c83 0 151 -30 151 -90
c0 -59 -60 -87 -135 -87c-70 0 -136 27 -186 77l-115 -133c69 -79 178 -125 312 -125c174 0 337 82 337 252c0 90 -55 157 -147 192c81 36 129 101 129 191c0 149 -133 246 -324 246z" />
    <glyph glyph-name="uni278D" unicode="&#x2779;" horiz-adv-x="2050" 
d="M1079 1583c496 0 896 -396 896 -882c0 -487 -400 -884 -896 -884s-897 397 -897 884c0 486 401 882 897 882zM1304 840h-135l-71 -139v-88h-142l266 520h-225l-285 -564v-143h386v-142h206v142h108v187h-108v227z" />
    <glyph glyph-name="uni278D" unicode="&#x278d;" horiz-adv-x="2050" 
d="M1079 1583c496 0 896 -396 896 -882c0 -487 -400 -884 -896 -884s-897 397 -897 884c0 486 401 882 897 882zM1304 840h-135l-71 -139v-88h-142l266 520h-225l-285 -564v-143h386v-142h206v142h108v187h-108v227z" />
    <glyph glyph-name="uni278E" unicode="&#x277a;" horiz-adv-x="2050" 
d="M1362 1134h-518l-12 -492h216c113 0 154 -39 154 -92c0 -56 -41 -95 -122 -95c-85 0 -172 44 -214 82l-101 -152c70 -67 181 -117 316 -117c192 0 334 116 334 297c0 150 -112 253 -316 253h-82l3 127h342v189zM1079 1583c496 0 896 -396 896 -882
c0 -487 -400 -884 -896 -884s-897 397 -897 884c0 486 401 882 897 882z" />
    <glyph glyph-name="uni278E" unicode="&#x278e;" horiz-adv-x="2050" 
d="M1362 1134h-518l-12 -492h216c113 0 154 -39 154 -92c0 -56 -41 -95 -122 -95c-85 0 -172 44 -214 82l-101 -152c70 -67 181 -117 316 -117c192 0 334 116 334 297c0 150 -112 253 -316 253h-82l3 127h342v189zM1079 1583c496 0 896 -396 896 -882
c0 -487 -400 -884 -896 -884s-897 397 -897 884c0 486 401 882 897 882z" />
    <glyph glyph-name="uni278F" unicode="&#x277b;" horiz-adv-x="2050" 
d="M1079 1583c496 0 896 -396 896 -882c0 -487 -400 -884 -896 -884s-897 397 -897 884c0 486 401 882 897 882zM1295 1134h-247l-230 -334c-55 -80 -87 -159 -87 -240c0 -168 146 -292 339 -292s340 126 340 299c0 156 -118 282 -312 282h-12zM1070 678
c71 0 125 -48 125 -114c0 -65 -54 -113 -125 -113s-123 47 -123 113s52 114 123 114z" />
    <glyph glyph-name="uni278F" unicode="&#x278f;" horiz-adv-x="2050" 
d="M1079 1583c496 0 896 -396 896 -882c0 -487 -400 -884 -896 -884s-897 397 -897 884c0 486 401 882 897 882zM1295 1134h-247l-230 -334c-55 -80 -87 -159 -87 -240c0 -168 146 -292 339 -292s340 126 340 299c0 156 -118 282 -312 282h-12zM1070 678
c71 0 125 -48 125 -114c0 -65 -54 -113 -125 -113s-123 47 -123 113s52 114 123 114z" />
    <glyph glyph-name="uni2790" unicode="&#x277c;" horiz-adv-x="2050" 
d="M1423 1134h-635v-191h391l-345 -659h245l344 688v162zM1079 1583c496 0 896 -396 896 -882c0 -487 -400 -884 -896 -884s-897 397 -897 884c0 486 401 882 897 882z" />
    <glyph glyph-name="uni2790" unicode="&#x2790;" horiz-adv-x="2050" 
d="M1423 1134h-635v-191h391l-345 -659h245l344 688v162zM1079 1583c496 0 896 -396 896 -882c0 -487 -400 -884 -896 -884s-897 397 -897 884c0 486 401 882 897 882z" />
    <glyph glyph-name="uni2791" unicode="&#x277d;" horiz-adv-x="2050" 
d="M1079 1583c496 0 896 -396 896 -882c0 -487 -400 -884 -896 -884s-897 397 -897 884c0 486 401 882 897 882zM1079 1149c-179 0 -328 -92 -328 -246c0 -96 58 -156 133 -191c-86 -33 -154 -94 -154 -197c0 -154 158 -247 349 -247c192 0 350 93 350 247
c0 103 -69 164 -155 198c75 34 133 95 133 190c0 154 -148 246 -328 246zM1079 635c69 0 126 -34 126 -96c0 -60 -57 -94 -126 -94c-68 0 -125 34 -125 94c0 62 57 96 125 96zM1079 971c62 0 110 -31 110 -87s-48 -88 -110 -88c-61 0 -109 32 -109 88s48 87 109 87z" />
    <glyph glyph-name="uni2791" unicode="&#x2791;" horiz-adv-x="2050" 
d="M1079 1583c496 0 896 -396 896 -882c0 -487 -400 -884 -896 -884s-897 397 -897 884c0 486 401 882 897 882zM1079 1149c-179 0 -328 -92 -328 -246c0 -96 58 -156 133 -191c-86 -33 -154 -94 -154 -197c0 -154 158 -247 349 -247c192 0 350 93 350 247
c0 103 -69 164 -155 198c75 34 133 95 133 190c0 154 -148 246 -328 246zM1079 635c69 0 126 -34 126 -96c0 -60 -57 -94 -126 -94c-68 0 -125 34 -125 94c0 62 57 96 125 96zM1079 971c62 0 110 -31 110 -87s-48 -88 -110 -88c-61 0 -109 32 -109 88s48 87 109 87z" />
    <glyph glyph-name="uni2792" unicode="&#x277e;" horiz-adv-x="2050" 
d="M1079 1583c496 0 896 -396 896 -882c0 -487 -400 -884 -896 -884s-897 397 -897 884c0 486 401 882 897 882zM865 284h247l230 333c55 81 87 159 87 240c0 169 -147 292 -339 292c-193 0 -340 -125 -340 -298c0 -157 118 -283 312 -283h11zM1090 740
c-71 0 -125 48 -125 113c0 66 54 114 125 114s123 -48 123 -114c0 -65 -52 -113 -123 -113z" />
    <glyph glyph-name="uni2792" unicode="&#x2792;" horiz-adv-x="2050" 
d="M1079 1583c496 0 896 -396 896 -882c0 -487 -400 -884 -896 -884s-897 397 -897 884c0 486 401 882 897 882zM865 284h247l230 333c55 81 87 159 87 240c0 169 -147 292 -339 292c-193 0 -340 -125 -340 -298c0 -157 118 -283 312 -283h11zM1090 740
c-71 0 -125 48 -125 113c0 66 54 114 125 114s123 -48 123 -114c0 -65 -52 -113 -123 -113z" />
    <glyph glyph-name="uni2B51" unicode="&#x2b51;" horiz-adv-x="1800" 
d="M1147 902h606l-490 -356l188 -579l-491 358l-490 -358l187 579l-492 356h608l187 579z" />
    <glyph glyph-name="uni2B52" unicode="&#x2b52;" horiz-adv-x="1800" 
d="M1147 902h606l-490 -356l188 -579l-491 358l-490 -358l187 579l-492 356h608l187 579zM1046 763l-86 265l-85 -265h-281l226 -164l-86 -267l226 165l226 -165l-86 267l226 164h-280z" />
    <glyph glyph-name="uni2E17" unicode="&#x2e17;" horiz-adv-x="829" 
d="M790 957l-48 -226l-597 -215l48 226zM711 585l-48 -226l-598 -215l49 226z" />
    <glyph glyph-name="uni2E38" unicode="&#x2e38;" horiz-adv-x="788" 
d="M495 1440h203l-89 -422h216l-42 -199h-216l-46 -217h-204l46 217h-216l43 199h216z" />
    <glyph glyph-name="uniEA00" unicode="&#xea00;" horiz-adv-x="1800" 
d="M1147 902h606l-490 -356l188 -579l-491 358l-490 -358l187 579l-492 356h608l187 579zM1046 763l-86 265v-531l226 -165l-86 267l226 164h-280z" />
    <glyph glyph-name="uniEA01" unicode="&#xea01;" horiz-adv-x="1800" 
d="M960 325l-490 -358l187 579l-492 356h608l187 579v-1156z" />
    <glyph glyph-name="uniFB00" unicode="&#xfb00;" horiz-adv-x="1616" 
d="M867 969l-49 -232h-284l-157 -737h-262l157 737h-179l49 232h179l31 144c49 227 175 352 387 352c119 0 215 -37 279 -91l-132 -195c-47 30 -97 44 -137 44c-69 0 -121 -45 -142 -147l-23 -107h283zM1665 969l-49 -232h-284l-157 -737h-262l157 737h-179l49 232h179
l31 144c49 227 175 352 387 352c119 0 215 -37 279 -91l-132 -195c-47 30 -97 44 -137 44c-69 0 -121 -45 -142 -147l-23 -107h283z" />
    <glyph glyph-name="fi" unicode="&#xfb01;" horiz-adv-x="1339" 
d="M867 969l-49 -232h-284l-157 -737h-262l157 737h-179l49 232h179l31 144c49 227 175 352 387 352c119 0 215 -37 279 -91l-132 -195c-47 30 -97 44 -137 44c-69 0 -121 -45 -142 -147l-23 -107h283zM1313 969l-206 -969h-263l206 969h263zM1248 1454
c94 0 167 -74 167 -168s-73 -166 -167 -166s-166 72 -166 166s72 168 166 168z" />
    <glyph glyph-name="fl" unicode="&#xfb02;" horiz-adv-x="1339" 
d="M867 969l-49 -232h-284l-157 -737h-262l157 737h-179l49 232h179l31 144c49 227 175 352 387 352c119 0 215 -37 279 -91l-132 -195c-47 30 -97 44 -137 44c-69 0 -121 -45 -142 -147l-23 -107h283zM1413 1440l-306 -1440h-263l306 1440h263z" />
    <glyph glyph-name="uniFB03" unicode="&#xfb03;" horiz-adv-x="2137" 
d="M867 969l-49 -232h-284l-157 -737h-262l157 737h-179l49 232h179l31 144c49 227 175 352 387 352c119 0 215 -37 279 -91l-132 -195c-47 30 -97 44 -137 44c-69 0 -121 -45 -142 -147l-23 -107h283zM1665 969l-49 -232h-284l-157 -737h-262l157 737h-179l49 232h179
l31 144c49 227 175 352 387 352c119 0 215 -37 279 -91l-132 -195c-47 30 -97 44 -137 44c-69 0 -121 -45 -142 -147l-23 -107h283zM2111 969l-206 -969h-263l206 969h263zM2046 1454c94 0 167 -74 167 -168s-73 -166 -167 -166s-166 72 -166 166s72 168 166 168z" />
    <glyph glyph-name="uniFB04" unicode="&#xfb04;" horiz-adv-x="2137" 
d="M867 969l-49 -232h-284l-157 -737h-262l157 737h-179l49 232h179l31 144c49 227 175 352 387 352c119 0 215 -37 279 -91l-132 -195c-47 30 -97 44 -137 44c-69 0 -121 -45 -142 -147l-23 -107h283zM1665 969l-49 -232h-284l-157 -737h-262l157 737h-179l49 232h179
l31 144c49 227 175 352 387 352c119 0 215 -37 279 -91l-132 -195c-47 30 -97 44 -137 44c-69 0 -121 -45 -142 -147l-23 -107h283zM2211 1440l-306 -1440h-263l306 1440h263z" />
    <glyph glyph-name="uniFB05" unicode="&#xfb05;" horiz-adv-x="1439" 
d="M1441 969l-50 -232h-339l-74 -351c-25 -117 24 -168 110 -168c56 0 113 21 169 55l92 -206c-90 -58 -192 -92 -310 -92c-266 0 -378 159 -324 409l75 353h-165l50 232h167l13 61c5 24 7 47 7 66c0 92 -58 131 -144 131c-105 0 -189 -63 -222 -220l-214 -1007h-262
l221 1039c67 315 269 426 496 426c224 0 385 -122 385 -348c0 -39 -5 -78 -14 -122l-6 -26h339z" />
    <glyph glyph-name="uniFB06" unicode="&#xfb06;" horiz-adv-x="1883" 
d="M962 887l-119 -195c-91 56 -225 85 -304 85c-96 0 -149 -29 -155 -79c-7 -68 47 -80 136 -97l65 -12c220 -40 305 -150 287 -300c-23 -194 -182 -314 -444 -314c-154 0 -329 46 -442 131l125 191c89 -61 203 -105 321 -105c114 0 169 33 175 90c5 49 -35 75 -134 92
l-67 11c-222 36 -309 150 -290 306c24 198 183 303 423 303c163 0 304 -38 423 -107zM1886 969l-50 -232h-339l-75 -351c-25 -117 24 -168 110 -168c56 0 113 21 169 55l92 -206c-90 -58 -192 -92 -309 -92c-268 0 -379 159 -326 409l75 353h-181l50 232h181l62 288h263
l-62 -288h340z" />
    <glyph glyph-name="uni030C.alt001" 
d="M-502 1012h-206l91 428h273z" />
    <glyph glyph-name="uni0328.alt001" 
d="M-420 -184l108 -159c-56 -47 -131 -76 -214 -76c-154 0 -256 75 -256 194c0 128 112 217 311 300l69 -75c-125 -66 -151 -129 -151 -166c0 -31 22 -48 57 -48c25 0 50 10 76 30z" />
    <glyph glyph-name="uni0328.alt002" 
d="M-425 92l63 -75c-173 -62 -208 -125 -208 -172c0 -34 28 -57 77 -57c39 0 75 14 111 38l109 -158c-75 -56 -163 -86 -258 -86c-175 0 -289 86 -289 209c0 134 104 228 395 301z" />
    <glyph glyph-name="uni0328.alt003" 
d="M-418 -177l109 -153c-61 -54 -141 -89 -231 -89c-141 0 -245 69 -245 186c0 138 127 228 363 316l62 -80c-149 -66 -191 -125 -191 -170c0 -29 21 -45 53 -45c26 0 52 13 80 35z" />
    <glyph glyph-name="uni0328.alt004" 
d="M-388 -175l117 -154c-69 -58 -155 -90 -249 -90c-181 0 -303 94 -303 225c0 112 76 216 369 284l83 -71c-185 -62 -208 -123 -208 -167c0 -39 30 -65 83 -65c39 0 73 14 108 38z" />
    <glyph glyph-name="i.latn_TRK" horiz-adv-x="521" 
d="M495 969l-206 -969h-263l206 969h263zM430 1454c94 0 167 -74 167 -168s-73 -166 -167 -166s-166 72 -166 166s72 168 166 168z" />
    <glyph glyph-name="j.latn_NLD" horiz-adv-x="528" 
d="M502 969l-230 -1082c-45 -209 -177 -308 -347 -308c-65 0 -130 15 -176 38l81 219c23 -10 48 -14 69 -14c52 0 103 33 120 113l219 1034h264zM474 1107h-255l232 316h319z" />
    <glyph glyph-name="Ldot.latn_CAT" horiz-adv-x="1184" 
d="M632 1400l-243 -1139h717l-56 -261h-1001l298 1400h285zM902 890c99 0 175 -78 175 -177c0 -98 -76 -174 -175 -174s-174 76 -174 174c0 99 75 177 174 177z" />
    <glyph glyph-name="ldot.latn_CAT" horiz-adv-x="730" 
d="M595 1440l-306 -1440h-263l306 1440h263zM690 892c91 0 161 -72 161 -162c0 -91 -70 -161 -161 -161s-160 70 -160 161c0 90 69 162 160 162z" />
    <glyph glyph-name="zero.numr" horiz-adv-x="891" 
d="M614 1415c186 0 319 -122 319 -332c0 -235 -154 -520 -432 -520c-186 0 -320 122 -320 331c0 235 155 521 433 521zM602 1228c-140 0 -214 -179 -214 -315c0 -102 46 -163 124 -163c140 0 215 178 215 315c0 103 -46 163 -125 163z" />
    <glyph glyph-name="one.numr" horiz-adv-x="530" 
d="M612 1413l-177 -835h-195l121 570l-191 -59l42 200z" />
    <glyph glyph-name="two.numr" horiz-adv-x="727" 
d="M330 1152l-108 131c59 65 148 131 292 131c188 0 275 -120 275 -241c0 -109 -47 -181 -189 -296l-148 -119h282l-38 -180h-566l33 156l315 256c83 67 109 109 109 154c0 47 -38 84 -103 84c-68 0 -107 -32 -154 -76z" />
    <glyph glyph-name="three.numr" horiz-adv-x="719" 
d="M304 1168l-89 138c72 67 161 108 293 108c173 0 279 -99 279 -214c0 -92 -64 -179 -162 -218c65 -32 100 -89 100 -154c0 -145 -123 -265 -336 -265c-135 0 -233 45 -286 120l127 121c37 -45 96 -68 162 -68c91 0 134 42 134 97c0 50 -51 77 -121 77h-90l34 166h89
c93 0 145 42 145 95c0 44 -42 71 -106 71c-69 0 -130 -35 -173 -74z" />
    <glyph glyph-name="four.numr" horiz-adv-x="718" 
d="M719 1113l-46 -215h104l-38 -181h-105l-29 -139h-195l29 139h-357l33 155l355 527h222l-337 -501h123l19 91l83 124h139z" />
    <glyph glyph-name="five.numr" horiz-adv-x="716" 
d="M780 1400l-38 -179h-309l-32 -127h52c196 0 301 -125 268 -282c-35 -170 -168 -249 -344 -249c-118 0 -221 43 -282 118l115 129c44 -47 107 -70 176 -70c83 0 127 35 137 86c10 56 -22 99 -129 99h-202l109 475h479z" />
    <glyph glyph-name="six.numr" horiz-adv-x="747" 
d="M759 1400l-248 -277c155 -8 268 -99 268 -251c0 -169 -139 -309 -340 -309c-171 0 -311 104 -311 266c0 73 29 161 114 259l269 312h248zM460 960c-76 0 -126 -55 -126 -120c0 -61 45 -104 112 -104c76 0 127 55 127 122c0 60 -48 102 -113 102z" />
    <glyph glyph-name="seven.numr" horiz-adv-x="682" 
d="M832 1400l-33 -163l-413 -659h-233l410 641h-366l38 181h597z" />
    <glyph glyph-name="eight.numr" horiz-adv-x="782" 
d="M569 1414c157 0 285 -79 285 -208c0 -95 -64 -177 -174 -220c65 -32 109 -84 109 -155c0 -145 -131 -268 -360 -268c-168 0 -298 82 -298 212c0 97 67 179 184 221c-54 31 -87 80 -87 146c0 147 129 272 341 272zM475 918c-72 0 -129 -42 -129 -106c0 -51 49 -80 104 -80
c73 0 131 40 131 105c0 52 -49 81 -106 81zM551 1245c-71 0 -118 -42 -118 -98c0 -47 38 -75 93 -75c68 0 119 42 119 98c0 47 -43 75 -94 75z" />
    <glyph glyph-name="nine.numr" horiz-adv-x="747" 
d="M202 578l247 276c-154 9 -267 99 -267 252c0 168 139 308 340 308c171 0 311 -103 311 -265c0 -73 -29 -161 -114 -259l-269 -312h-248zM502 1018c76 0 126 55 126 120c0 60 -46 103 -113 103c-76 0 -127 -54 -127 -122c0 -60 48 -101 114 -101z" />
    <glyph glyph-name="zero.dnom" horiz-adv-x="891" 
d="M488 837c186 0 319 -122 319 -332c0 -235 -154 -520 -432 -520c-186 0 -320 122 -320 331c0 235 155 521 433 521zM476 650c-140 0 -214 -179 -214 -315c0 -102 46 -163 124 -163c140 0 215 178 215 315c0 103 -46 163 -125 163z" />
    <glyph glyph-name="one.dnom" horiz-adv-x="533" 
d="M487 835l-177 -835h-195l121 570l-191 -59l42 200z" />
    <glyph glyph-name="two.dnom" horiz-adv-x="728" 
d="M206 574l-108 131c59 65 148 131 292 131c188 0 275 -120 275 -241c0 -109 -47 -181 -189 -296l-148 -119h282l-38 -180h-566l33 156l315 256c83 67 109 109 109 154c0 47 -38 84 -103 84c-68 0 -107 -32 -154 -76z" />
    <glyph glyph-name="three.dnom" horiz-adv-x="720" 
d="M180 590l-89 138c72 67 161 108 293 108c173 0 279 -99 279 -214c0 -92 -64 -179 -162 -218c65 -32 100 -89 100 -154c0 -145 -123 -265 -336 -265c-135 0 -233 45 -286 120l127 121c37 -45 96 -68 162 -68c91 0 134 42 134 97c0 50 -51 77 -121 77h-90l34 166h89
c93 0 145 42 145 95c0 44 -42 71 -106 71c-69 0 -130 -35 -173 -74z" />
    <glyph glyph-name="four.dnom" horiz-adv-x="718" 
d="M595 535l-46 -215h104l-38 -181h-105l-29 -139h-195l29 139h-357l33 155l355 527h222l-337 -501h123l19 91l83 124h139z" />
    <glyph glyph-name="five.dnom" horiz-adv-x="717" 
d="M655 822l-38 -179h-309l-32 -127h52c196 0 301 -125 268 -282c-35 -170 -168 -249 -344 -249c-118 0 -221 43 -282 118l115 129c44 -47 107 -70 176 -70c83 0 127 35 137 86c10 56 -22 99 -129 99h-202l109 475h479z" />
    <glyph glyph-name="six.dnom" horiz-adv-x="747" 
d="M635 822l-248 -277c155 -8 268 -99 268 -251c0 -169 -139 -309 -340 -309c-171 0 -311 104 -311 266c0 73 29 161 114 259l269 312h248zM336 382c-76 0 -126 -55 -126 -120c0 -61 45 -104 112 -104c76 0 127 55 127 122c0 60 -48 102 -113 102z" />
    <glyph glyph-name="seven.dnom" horiz-adv-x="683" 
d="M708 822l-33 -163l-413 -659h-233l410 641h-366l38 181h597z" />
    <glyph glyph-name="eight.dnom" horiz-adv-x="782" 
d="M444 836c157 0 285 -79 285 -208c0 -95 -64 -177 -174 -220c65 -32 109 -84 109 -155c0 -145 -131 -268 -360 -268c-168 0 -298 82 -298 212c0 97 67 179 184 221c-54 31 -87 80 -87 146c0 147 129 272 341 272zM350 340c-72 0 -129 -42 -129 -106c0 -51 49 -80 104 -80
c73 0 131 40 131 105c0 52 -49 81 -106 81zM426 667c-71 0 -118 -42 -118 -98c0 -47 38 -75 93 -75c68 0 119 42 119 98c0 47 -43 75 -94 75z" />
    <glyph glyph-name="nine.dnom" horiz-adv-x="747" 
d="M81 0l247 276c-154 9 -267 99 -267 252c0 168 139 308 340 308c171 0 311 -103 311 -265c0 -73 -29 -161 -114 -259l-269 -312h-248zM381 440c76 0 126 55 126 120c0 60 -46 103 -113 103c-76 0 -127 -54 -127 -122c0 -60 48 -101 114 -101z" />
    <glyph glyph-name="space.frac" horiz-adv-x="99" 
 />
    <glyph glyph-name="b.ordn" horiz-adv-x="870" 
d="M525 560c-90 0 -160 30 -204 83l-14 -65h-193l217 1023h193l-77 -361c41 29 92 48 164 48c172 0 300 -140 300 -319c0 -191 -142 -409 -386 -409zM559 1105c-98 0 -174 -76 -186 -179c-14 -113 54 -185 148 -185c108 0 188 94 188 207c0 98 -65 157 -150 157z" />
    <glyph glyph-name="c.ordn" horiz-adv-x="778" 
d="M841 1119l-165 -90c-42 64 -97 77 -142 77c-108 0 -187 -93 -187 -203c0 -95 63 -161 147 -161c54 0 104 22 144 67l131 -118c-71 -83 -171 -129 -283 -129c-201 0 -338 139 -338 327c0 216 162 397 396 397c139 0 241 -60 297 -167z" />
    <glyph glyph-name="d.ordn" horiz-adv-x="869" 
d="M530 1287c90 0 160 -29 204 -82l85 396h193l-217 -1023h-188l10 48c-45 -39 -103 -66 -181 -66c-167 0 -291 140 -291 319c0 190 141 408 385 408zM497 741c98 0 174 76 186 179c14 113 -54 185 -148 185c-108 0 -188 -94 -188 -207c0 -98 65 -157 150 -157z" />
    <glyph glyph-name="e.ordn" horiz-adv-x="785" 
d="M650 784l103 -124c-72 -67 -163 -100 -284 -100c-208 0 -327 128 -327 302s114 425 397 425c174 0 296 -111 296 -282c0 -47 -12 -109 -28 -145h-474c5 -87 60 -135 151 -135c60 0 115 16 166 59zM528 1121c-93 0 -145 -61 -171 -127h292v7c0 79 -48 120 -121 120z" />
    <glyph glyph-name="h.ordn" horiz-adv-x="818" 
d="M622 1287c146 0 235 -96 235 -233c0 -24 -3 -51 -9 -77l-87 -399h-193l83 388c3 15 5 28 5 42c0 56 -29 97 -103 97c-78 0 -144 -44 -168 -158l-77 -369h-194l218 1023h192l-82 -382c53 50 116 68 180 68z" />
    <glyph glyph-name="l.ordn" horiz-adv-x="382" 
d="M525 1601l-217 -1023h-194l217 1023h194z" />
    <glyph glyph-name="m.ordn" horiz-adv-x="1274" 
d="M1072 1287c150 0 241 -96 241 -234c0 -24 -3 -50 -9 -76l-86 -399h-194l83 388c3 15 5 28 5 42c0 56 -29 97 -103 97c-81 0 -143 -48 -167 -157l-81 -370h-193l83 388c16 72 -4 139 -98 139c-78 0 -144 -44 -168 -158l-77 -369h-194l147 690h186l-14 -57
c55 56 121 76 189 76c98 0 169 -44 206 -112c65 82 152 112 244 112z" />
    <glyph glyph-name="r.ordn" horiz-adv-x="609" 
d="M447 1268l-14 -61c54 60 118 80 185 80c35 0 72 -7 105 -20l-60 -187c-28 14 -67 21 -101 21c-79 0 -155 -50 -177 -156l-77 -367h-194l147 690h186z" />
    <glyph glyph-name="s.ordn" horiz-adv-x="691" 
d="M775 1210l-85 -144c-68 41 -164 60 -217 60c-66 0 -101 -19 -105 -52c-5 -46 32 -53 96 -65l46 -9c155 -29 215 -108 202 -214c-16 -141 -131 -225 -318 -225c-112 0 -238 33 -316 92l90 143c64 -44 146 -75 230 -75c77 0 113 21 117 59c4 34 -25 53 -94 63l-47 7
c-158 26 -218 108 -205 220c17 141 131 217 304 217c114 0 214 -27 302 -77z" />
    <glyph glyph-name="t.ordn" horiz-adv-x="693" 
d="M758 1268l-37 -171h-238l-52 -241c-17 -80 17 -115 77 -115c43 0 89 20 126 43l59 -157c-66 -43 -140 -67 -224 -67c-193 0 -271 116 -233 294l53 243h-131l37 171h131l45 205h193l-44 -205h238z" />
    <glyph glyph-name="u.ordn" horiz-adv-x="802" 
d="M895 1278l-85 -404c-48 -227 -199 -305 -368 -305c-166 0 -286 88 -286 253c0 27 4 55 10 85l78 371h194l-82 -387c-4 -16 -5 -30 -5 -44c0 -67 44 -96 108 -96c80 0 142 51 164 157l79 370h193z" />
    <glyph glyph-name="egrave.ordn" horiz-adv-x="785" 
d="M650 784l103 -124c-72 -67 -163 -100 -284 -100c-208 0 -327 128 -327 302s114 425 397 425c174 0 296 -111 296 -282c0 -47 -12 -109 -28 -145h-474c5 -87 60 -135 151 -135c60 0 115 16 166 59zM506 1365l-191 227h230l144 -227h-183zM528 1121
c-93 0 -145 -61 -171 -127h292v7c0 79 -48 120 -121 120z" />
    <glyph glyph-name="zero.osf" horiz-adv-x="1335" 
d="M710 1095c305 0 543 -196 543 -511c0 -332 -245 -611 -608 -611c-304 0 -542 196 -542 511c0 332 245 611 607 611zM697 849c-199 0 -329 -158 -329 -347c0 -177 125 -283 291 -283c199 0 328 158 328 347c0 177 -124 283 -290 283z" />
    <glyph glyph-name="one.osf" horiz-adv-x="751" 
d="M740 1098l-234 -1098h-264l161 757l-312 -81l55 267z" />
    <glyph glyph-name="two.osf" horiz-adv-x="1108" 
d="M292 706l-149 180c97 101 244 209 468 209c253 0 423 -147 423 -345c0 -182 -85 -298 -360 -440l-128 -66h449l-53 -244h-909l43 198l443 257c181 105 237 164 237 261c0 81 -78 134 -180 134c-119 0 -199 -62 -284 -144z" />
    <glyph glyph-name="three.osf" horiz-adv-x="1098" 
d="M272 708l-141 186c109 121 252 201 470 201c272 0 438 -151 438 -351c0 -165 -106 -308 -277 -378c108 -51 169 -144 169 -264c0 -256 -213 -457 -540 -457c-209 0 -373 75 -458 197l178 164c65 -81 172 -122 286 -122c171 0 263 96 263 219c0 105 -92 154 -222 154h-152
l52 238h141c168 0 282 95 282 209c0 92 -81 148 -197 148c-127 0 -226 -72 -292 -144z" />
    <glyph glyph-name="four.osf" horiz-adv-x="1120" 
d="M885 564l-68 -316h217l-53 -248h-217l-71 -332h-264l71 332h-568l47 219l556 849h282l-522 -820h258l68 316h264z" />
    <glyph glyph-name="five.osf" horiz-adv-x="1099" 
d="M1039 1068l-52 -247h-535l-66 -285h112c331 0 481 -222 432 -473c-57 -294 -279 -421 -544 -421c-195 0 -358 74 -462 214l175 168c79 -96 182 -134 299 -134c152 0 242 80 260 191c19 111 -32 213 -236 213h-332l179 774h770z" />
    <glyph glyph-name="six.osf" horiz-adv-x="1158" 
d="M1033 1400l-414 -483h11c254 0 460 -171 460 -429c0 -280 -226 -513 -546 -513c-272 0 -494 173 -494 441c0 123 45 256 181 421l466 563h336zM583 682c-153 0 -254 -114 -254 -251c0 -126 93 -214 228 -214c150 0 255 113 255 253c0 130 -101 212 -229 212z" />
    <glyph glyph-name="seven.osf" horiz-adv-x="1069" 
d="M1137 1068l-44 -221l-715 -1179h-314l710 1152h-650l53 248h960z" />
    <glyph glyph-name="eight.osf" horiz-adv-x="1201" 
d="M759 1425c240 0 456 -136 456 -359c0 -160 -106 -300 -289 -371c108 -56 179 -145 179 -264c0 -251 -219 -456 -576 -456c-262 0 -478 138 -478 356c0 171 109 315 305 384c-88 52 -145 134 -145 246c0 245 202 464 548 464zM605 596c-153 0 -261 -94 -261 -218
c0 -101 96 -162 210 -162c156 0 266 89 266 216c0 105 -98 164 -215 164zM739 1181c-151 0 -244 -92 -244 -210c0 -97 78 -153 188 -153c145 0 245 90 245 207c0 100 -90 156 -189 156z" />
    <glyph glyph-name="nine.osf" horiz-adv-x="1158" 
d="M147 -331l414 484h-12c-254 0 -460 170 -460 428c0 280 227 513 546 513c272 0 494 -173 494 -441c0 -123 -46 -256 -181 -420l-465 -564h-336zM596 387c153 0 254 114 254 252c0 125 -92 214 -228 214c-149 0 -255 -113 -255 -254c0 -130 101 -212 229 -212z" />
    <glyph glyph-name="zero.tf" horiz-adv-x="1200" 
d="M742 1425c276 0 468 -173 468 -508c0 -474 -239 -942 -661 -942c-275 0 -467 173 -467 507c0 475 239 943 660 943zM731 1166c-234 0 -371 -350 -371 -655c0 -188 78 -277 202 -277c232 0 369 350 369 655c0 188 -77 277 -200 277z" />
    <glyph glyph-name="one.tf" horiz-adv-x="1200" 
d="M136 256h315l170 802l-361 -109l58 274l650 199l-248 -1166h334l-54 -256h-918z" />
    <glyph glyph-name="two.tf" horiz-adv-x="1200" 
d="M391 1017l-154 183c90 110 246 225 461 225c302 0 443 -195 443 -394c0 -183 -91 -312 -298 -491l-331 -287h513l-55 -253h-912l47 214l559 484c149 129 196 208 196 301c0 87 -65 168 -194 168c-112 0 -200 -63 -275 -150z" />
    <glyph glyph-name="three.tf" horiz-adv-x="1200" 
d="M383 1036l-142 189c110 120 255 200 476 200c277 0 446 -153 446 -352c0 -165 -107 -308 -279 -378c109 -51 172 -144 172 -264c0 -255 -215 -456 -547 -456c-218 0 -380 74 -467 196l181 172c66 -81 175 -122 291 -122c173 0 267 93 267 214c0 102 -94 151 -227 151
h-154l51 240h144c171 0 286 94 286 206c0 91 -83 147 -201 147c-129 0 -229 -70 -297 -143z" />
    <glyph glyph-name="four.tf" horiz-adv-x="1200" 
d="M1027 881l-79 -373h195l-54 -252h-195l-54 -256h-270l54 256h-607l46 216l639 927h312l-615 -891h279l80 373h269z" />
    <glyph glyph-name="five.tf" horiz-adv-x="1200" 
d="M1169 1400l-53 -251h-540l-66 -280h112c335 0 487 -221 438 -474c-58 -293 -280 -420 -549 -420c-198 0 -363 73 -467 213l177 170c79 -94 184 -133 302 -133c153 0 243 79 261 189c19 110 -33 211 -238 211h-335l179 775h779z" />
    <glyph glyph-name="six.tf" horiz-adv-x="1200" 
d="M1061 1400l-418 -483h11c257 0 466 -169 466 -429c0 -280 -229 -513 -551 -513c-275 0 -501 174 -501 443c0 122 46 256 183 421l468 561h342zM607 680c-154 0 -255 -112 -255 -248c0 -125 93 -212 230 -212c150 0 255 111 255 250c0 129 -101 210 -230 210z" />
    <glyph glyph-name="seven.tf" horiz-adv-x="1200" 
d="M1264 1400l-44 -224l-719 -1176h-322l715 1148h-653l53 252h970z" />
    <glyph glyph-name="eight.tf" horiz-adv-x="1200" 
d="M753 1425c246 0 466 -137 466 -363c0 -159 -106 -297 -291 -367c109 -56 181 -146 181 -265c0 -251 -222 -455 -584 -455c-266 0 -488 138 -488 357c0 171 110 314 309 383c-90 52 -148 135 -148 247c0 245 205 463 555 463zM601 596c-160 0 -270 -94 -270 -217
c0 -102 99 -163 218 -163c162 0 275 89 275 215c0 106 -102 165 -223 165zM734 1181c-157 0 -252 -91 -252 -209c0 -98 80 -154 196 -154c151 0 254 90 254 207c0 100 -93 156 -198 156z" />
    <glyph glyph-name="nine.tf" horiz-adv-x="1200" 
d="M231 0l417 483h-10c-258 0 -466 169 -466 429c0 280 228 513 550 513c276 0 501 -174 501 -443c0 -122 -45 -256 -182 -421l-468 -561h-342zM685 720c153 0 255 112 255 248c0 125 -94 212 -231 212c-149 0 -254 -111 -254 -250c0 -129 101 -210 230 -210z" />
    <glyph glyph-name="uni2007.tf" horiz-adv-x="1200" 
 />
    <glyph glyph-name="zero.tosf" horiz-adv-x="1200" 
d="M647 1094c286 0 503 -198 503 -506c0 -333 -229 -614 -570 -614c-285 0 -502 198 -502 506c0 333 229 614 569 614zM635 855c-177 0 -292 -162 -292 -357c0 -178 106 -284 250 -284c177 0 292 161 292 357c0 178 -106 284 -250 284z" />
    <glyph glyph-name="one.tosf" horiz-adv-x="1200" 
d="M151 248h310l109 511l-346 -86l56 268l626 157l-181 -850l324 1l-53 -249h-898z" />
    <glyph glyph-name="two.tosf" horiz-adv-x="1200" 
d="M339 706l-149 180c97 101 244 209 468 209c253 0 423 -147 423 -345c0 -182 -85 -298 -360 -440l-128 -66h449l-53 -244h-909l43 198l443 257c181 105 237 164 237 261c0 81 -78 134 -180 134c-119 0 -199 -62 -284 -144z" />
    <glyph glyph-name="three.tosf" horiz-adv-x="1200" 
d="M321 708l-141 186c109 121 252 201 470 201c272 0 438 -151 438 -351c0 -165 -106 -308 -277 -378c108 -51 169 -144 169 -264c0 -256 -213 -457 -540 -457c-209 0 -373 75 -458 197l178 164c65 -81 172 -122 286 -122c171 0 263 96 263 219c0 105 -92 154 -222 154h-152
l52 238h141c168 0 282 95 282 209c0 92 -81 148 -197 148c-127 0 -226 -72 -292 -144z" />
    <glyph glyph-name="four.tosf" horiz-adv-x="1200" 
d="M943 564l-68 -316h217l-53 -248h-217l-71 -332h-264l71 332h-568l47 219l556 849h282l-522 -820h258l68 316h264z" />
    <glyph glyph-name="five.tosf" horiz-adv-x="1200" 
d="M1098 1068l-52 -247h-535l-66 -285h112c331 0 481 -222 432 -473c-57 -294 -279 -421 -544 -421c-195 0 -358 74 -462 214l175 168c79 -96 182 -134 299 -134c152 0 242 80 260 191c19 111 -32 213 -236 213h-332l179 774h770z" />
    <glyph glyph-name="six.tosf" horiz-adv-x="1200" 
d="M1065 1400l-414 -483h11c254 0 460 -171 460 -429c0 -280 -226 -513 -546 -513c-272 0 -494 173 -494 441c0 123 45 256 181 421l466 563h336zM615 682c-153 0 -254 -114 -254 -251c0 -126 93 -214 228 -214c150 0 255 113 255 253c0 130 -101 212 -229 212z" />
    <glyph glyph-name="seven.tosf" horiz-adv-x="1200" 
d="M1205 1068l-44 -221l-715 -1179h-314l710 1152h-650l53 248h960z" />
    <glyph glyph-name="eight.tosf" horiz-adv-x="1200" 
d="M756 1425c240 0 456 -136 456 -359c0 -160 -106 -300 -289 -371c108 -56 179 -145 179 -264c0 -251 -219 -456 -576 -456c-262 0 -478 138 -478 356c0 171 109 315 305 384c-88 52 -145 134 -145 246c0 245 202 464 548 464zM602 596c-153 0 -261 -94 -261 -218
c0 -101 96 -162 210 -162c156 0 266 89 266 216c0 105 -98 164 -215 164zM736 1181c-151 0 -244 -92 -244 -210c0 -97 78 -153 188 -153c145 0 245 90 245 207c0 100 -90 156 -189 156z" />
    <glyph glyph-name="nine.tosf" horiz-adv-x="1200" 
d="M157 -331l414 484h-12c-254 0 -460 170 -460 428c0 280 227 513 546 513c272 0 494 -173 494 -441c0 -123 -46 -256 -181 -420l-465 -564h-336zM606 387c153 0 254 114 254 252c0 125 -92 214 -228 214c-149 0 -255 -113 -255 -254c0 -130 101 -212 229 -212z" />
    <glyph glyph-name="uni2007.tosf" horiz-adv-x="1200" 
 />
    <glyph glyph-name="exclam.sc" horiz-adv-x="538" 
d="M523 1071l-169 -665h-209l96 665h282zM206 308c89 0 166 -77 166 -166s-77 -167 -166 -167s-167 78 -167 167s78 166 167 166z" />
    </font>
</defs>
</svg>
