<?xml version="1.0" standalone="no"?>
<!DOCTYPE svg PUBLIC "-//W3C//DTD SVG 1.1//EN" "http://www.w3.org/Graphics/SVG/1.1/DTD/svg11.dtd" >
<svg xmlns="http://www.w3.org/2000/svg" xmlns:xlink="http://www.w3.org/1999/xlink" version="1.1">
<metadata>
Created by FontForge 20161116 at Wed Aug 28 12:16:55 2013
 By Jimmy Wärting
2013 published by FontShop International GmbH
</metadata>
<defs>
<font id="MarkPro-ExtraLight" horiz-adv-x="1" >
  <font-face 
    font-family="MarkPro-ExtraLight"
    font-weight="300"
    font-stretch="normal"
    units-per-em="2000"
    panose-1="2 11 4 4 2 1 1 1 1 2"
    ascent="1580"
    descent="-420"
    x-height="933"
    cap-height="1400"
    bbox="-1335 -480 3100 2200"
    underline-thickness="64"
    underline-position="-260"
    stemh="64"
    stemv="69"
    unicode-range="U+000D-FEFF"
  />
<missing-glyph horiz-adv-x="1192" 
d="M190 0v1400h812v-1400h-812zM254 64h684v1272h-684v-1272z" />
    <glyph glyph-name=".notdef" horiz-adv-x="1192" 
d="M190 0v1400h812v-1400h-812zM254 64h684v1272h-684v-1272z" />
    <glyph glyph-name=".null" horiz-adv-x="0" 
 />
    <glyph glyph-name=".null" horiz-adv-x="0" 
 />
    <glyph glyph-name="CR" unicode="&#xd;" horiz-adv-x="526" 
 />
    <glyph glyph-name="space" unicode=" " horiz-adv-x="526" 
 />
    <glyph glyph-name="exclam" unicode="!" horiz-adv-x="516" 
d="M293 1400v-977h-70v977h70zM258 111c32 0 60 -27 60 -60c0 -32 -28 -60 -60 -60s-60 28 -60 60c0 33 28 60 60 60z" />
    <glyph glyph-name="quotedbl" unicode="&#x22;" horiz-adv-x="968" 
d="M305 1440h70v-456h-70v456zM591 1440h70v-456h-70v456z" />
    <glyph glyph-name="numbersign" unicode="#" horiz-adv-x="1446" 
d="M264 1016h239l82 384h65l-82 -384h446l82 384h65l-82 -384h236l-14 -63h-235l-107 -500h236l-14 -63h-235l-83 -390h-65l83 390h-446l-83 -390h-65l83 390h-239l14 63h238l107 500h-239zM555 953l-107 -500h446l107 500h-446z" />
    <glyph glyph-name="dollar" unicode="$" horiz-adv-x="1400" 
d="M672 1591h65v-193c192 -7 351 -72 454 -147l-37 -58c-95 68 -244 129 -417 137v-594l81 -9c250 -27 402 -144 401 -342c-2 -249 -214 -373 -482 -384v-195h-65v194c-184 6 -382 82 -487 160l39 57c92 -68 274 -143 448 -149v605l-60 7c-269 30 -395 161 -394 342
c1 232 198 368 454 376v193zM788 661l-51 5v-597c233 10 409 110 410 313c1 154 -121 252 -359 279zM291 1024c-1 -138 94 -250 355 -278l26 -3v587c-220 -8 -380 -119 -381 -306z" />
    <glyph glyph-name="percent" unicode="%" horiz-adv-x="1878" 
d="M444 1411c196 0 345 -148 345 -342c0 -195 -149 -342 -345 -342c-191 0 -339 147 -339 342c0 194 148 342 339 342zM444 1349c-155 0 -274 -119 -274 -280c0 -162 119 -280 274 -280c160 0 279 118 279 280c0 161 -119 280 -279 280zM1417 1400l-883 -1400h-73l883 1400
h73zM1429 673c196 0 345 -148 345 -342c0 -195 -149 -342 -345 -342c-192 0 -340 147 -340 342c0 194 148 342 340 342zM1429 611c-155 0 -274 -118 -274 -280s119 -280 274 -280c159 0 279 118 279 280s-120 280 -279 280z" />
    <glyph glyph-name="ampersand" unicode="&#x26;" horiz-adv-x="1345" 
d="M1301 0h-101l-269 265c-109 -149 -234 -276 -439 -276c-220 0 -369 130 -369 326c0 200 154 325 309 439c-153 150 -224 237 -224 369c0 155 129 288 306 288c176 0 305 -126 305 -279c0 -165 -136 -275 -280 -381l385 -379l248 357l56 -35l-255 -370zM496 55
c174 0 279 109 386 258l-402 395c-145 -108 -282 -220 -282 -391c0 -154 123 -262 298 -262zM283 1119c0 -106 59 -176 208 -322c134 99 254 195 254 332c0 119 -95 216 -231 216s-231 -102 -231 -226z" />
    <glyph glyph-name="quotesingle" unicode="'" horiz-adv-x="682" 
d="M305 1440h70v-456h-70v456z" />
    <glyph glyph-name="parenleft" unicode="(" horiz-adv-x="776" 
d="M665 1416l23 -65c-270 -92 -457 -413 -457 -783s187 -691 457 -782l-23 -65c-296 100 -508 444 -508 847c0 404 212 748 508 848z" />
    <glyph glyph-name="parenright" unicode=")" horiz-adv-x="776" 
d="M111 -279l-23 65c270 92 457 413 457 783s-187 691 -457 782l23 65c296 -100 508 -444 508 -847c0 -404 -212 -748 -508 -848z" />
    <glyph glyph-name="asterisk" unicode="*" horiz-adv-x="828" 
d="M127 1251l261 -85v274h55v-274l259 85l17 -53l-259 -84l161 -222l-45 -32l-161 221l-161 -221l-44 32l161 221l-261 85z" />
    <glyph glyph-name="plus" unicode="+" horiz-adv-x="1200" 
d="M629 112h-65v380h-379v64h379v386h65v-386h386v-64h-386v-380z" />
    <glyph glyph-name="comma" unicode="," horiz-adv-x="480" 
d="M229 218h80l-85 -456h-61z" />
    <glyph glyph-name="hyphen" unicode="-" horiz-adv-x="830" 
d="M677 556v-64h-524v64h524z" />
    <glyph glyph-name="period" unicode="." horiz-adv-x="516" 
d="M258 109c32 0 60 -28 60 -60s-28 -60 -60 -60s-60 28 -60 60s28 60 60 60z" />
    <glyph glyph-name="slash" unicode="/" horiz-adv-x="973" 
d="M945 1540l-849 -1740h-77l849 1740h77z" />
    <glyph glyph-name="zero" unicode="0" horiz-adv-x="1415" 
d="M707 1411c309 0 563 -266 563 -710c0 -445 -254 -712 -563 -712s-562 267 -562 712c0 444 253 710 562 710zM707 1342c-267 0 -487 -236 -487 -641c0 -406 220 -643 487 -643c268 0 488 237 488 643c0 405 -220 641 -488 641z" />
    <glyph glyph-name="one" unicode="1" horiz-adv-x="868" 
d="M637 1410v-1410h-72v1306l-492 -213v75z" />
    <glyph glyph-name="two" unicode="2" horiz-adv-x="1081" 
d="M147 1140l-53 42c65 107 183 229 404 229c276 0 424 -185 424 -412c0 -171 -92 -299 -189 -400l-508 -531h755v-68h-862v56l560 585c95 99 170 212 170 358c0 188 -122 343 -352 343c-184 0 -284 -98 -349 -202z" />
    <glyph glyph-name="three" unicode="3" horiz-adv-x="1077" 
d="M479 1411c264 0 444 -154 444 -365c0 -175 -96 -288 -239 -338c158 -49 270 -168 270 -337c0 -259 -227 -382 -463 -382c-179 0 -317 62 -418 163l47 49c93 -90 218 -144 369 -144c203 0 390 99 390 314c0 188 -173 302 -385 302h-204v70h204c200 0 355 103 355 303
c0 173 -156 297 -375 297c-151 0 -269 -73 -342 -170l-52 44c82 111 216 194 399 194z" />
    <glyph glyph-name="four" unicode="4" horiz-adv-x="1152" 
d="M823 799v-408h271v-68h-271v-323h-72v323h-693v56l523 1020h81l-518 -1008h607v408h72z" />
    <glyph glyph-name="five" unicode="5" horiz-adv-x="1144" 
d="M959 1400v-68h-660l-21 -514h235c333 0 501 -171 501 -401c0 -265 -195 -428 -463 -428c-190 0 -343 70 -457 211l49 46c101 -124 244 -188 408 -188c239 0 389 146 389 353c0 196 -141 339 -447 339h-284l24 650h726z" />
    <glyph glyph-name="six" unicode="6" horiz-adv-x="1144" 
d="M684 1400l-356 -580c72 37 154 57 241 57c278 0 481 -191 481 -444c0 -254 -203 -444 -481 -444c-279 0 -482 191 -482 444c0 90 26 171 75 252l434 715h88zM569 810c-237 0 -408 -160 -408 -377s172 -377 408 -377s407 160 407 377s-171 377 -407 377z" />
    <glyph glyph-name="seven" unicode="7" horiz-adv-x="1093" 
d="M1021 1400v-56l-668 -1344h-83l665 1332h-848v68h934z" />
    <glyph glyph-name="eight" unicode="8" horiz-adv-x="1249" 
d="M625 1411c255 0 467 -130 467 -365c0 -178 -113 -288 -263 -337c168 -48 297 -159 297 -341c0 -247 -226 -379 -501 -379s-502 132 -502 379c0 182 129 293 297 341c-150 49 -263 159 -263 337c0 235 212 365 468 365zM625 676c-235 0 -426 -108 -426 -308
c0 -206 191 -312 426 -312c233 0 425 106 425 312c0 200 -191 308 -425 308zM625 1343c-215 0 -393 -103 -393 -298c0 -202 178 -306 393 -306c214 0 392 104 392 306c0 195 -178 298 -392 298z" />
    <glyph glyph-name="nine" unicode="9" horiz-adv-x="1144" 
d="M460 0l356 580c-71 -37 -154 -57 -241 -57c-279 0 -481 191 -481 444s202 444 481 444s482 -191 482 -444c0 -90 -26 -171 -75 -251l-435 -716h-87zM575 590c237 0 407 160 408 377c0 216 -171 377 -408 377s-407 -161 -407 -377s170 -377 407 -377z" />
    <glyph glyph-name="colon" unicode=":" horiz-adv-x="516" 
d="M258 944c32 0 60 -28 60 -60s-28 -60 -60 -60s-60 28 -60 60s28 60 60 60zM258 111c32 0 60 -27 60 -60c0 -32 -28 -60 -60 -60s-60 28 -60 60c0 33 28 60 60 60z" />
    <glyph glyph-name="semicolon" unicode=";" horiz-adv-x="480" 
d="M243 944c32 0 59 -28 59 -60s-27 -60 -59 -60s-60 28 -60 60s28 60 60 60zM229 218h80l-85 -456h-61z" />
    <glyph glyph-name="less" unicode="&#x3c;" horiz-adv-x="1200" 
d="M975 202v-75l-750 363v70l750 362v-74l-680 -323z" />
    <glyph glyph-name="equal" unicode="=" horiz-adv-x="1200" 
d="M1015 391v-64h-830v64h830zM1015 721v-64h-830v64h830z" />
    <glyph glyph-name="greater" unicode="&#x3e;" horiz-adv-x="1200" 
d="M225 847v75l750 -363v-70l-750 -362v74l680 323z" />
    <glyph glyph-name="question" unicode="?" horiz-adv-x="829" 
d="M297 423h-64v303h31c248 0 405 122 405 311c0 185 -166 303 -396 303c-36 0 -77 -2 -108 -6l-6 71c34 5 80 8 117 8c274 0 470 -148 470 -374c0 -220 -170 -363 -445 -379zM265 109c32 0 60 -28 60 -60s-28 -60 -60 -60s-60 28 -60 60s28 60 60 60z" />
    <glyph glyph-name="at" unicode="@" horiz-adv-x="1983" 
d="M1367 884v-512c0 -149 57 -208 141 -208c134 0 228 145 228 363c0 431 -327 713 -744 713s-745 -323 -745 -740c0 -423 328 -749 745 -749c169 0 325 54 453 147l33 -46c-138 -101 -305 -158 -486 -158c-455 0 -809 355 -809 806c0 445 354 798 809 798
c454 0 808 -312 808 -771c0 -236 -115 -421 -295 -421c-110 0 -180 65 -196 179c-64 -107 -180 -179 -330 -179c-222 0 -392 169 -392 394s170 394 392 394c148 0 263 -72 327 -179v169h61zM979 836c-190 0 -329 -145 -329 -336s139 -336 329 -336s330 143 330 336
s-140 336 -330 336z" />
    <glyph glyph-name="A" unicode="A" horiz-adv-x="1386" 
d="M738 1400l604 -1400h-80l-186 433h-768l-186 -433h-78l604 1400h90zM692 1324l-354 -820h707z" />
    <glyph glyph-name="B" unicode="B" horiz-adv-x="1397" 
d="M218 1400h540c287 0 482 -103 482 -359c0 -163 -94 -271 -240 -322c168 -51 267 -166 267 -343c0 -263 -193 -376 -490 -376h-559v1400zM774 681h-482v-611h482c251 0 416 84 416 306c0 223 -164 305 -416 305zM756 1330h-464v-578h464c241 0 406 75 406 289
c0 213 -166 289 -406 289z" />
    <glyph glyph-name="C" unicode="C" horiz-adv-x="1526" 
d="M841 1411c236 0 449 -109 559 -285l-62 -42c-101 158 -288 256 -497 256c-352 0 -632 -257 -632 -640s280 -640 632 -640c209 0 395 97 497 255l61 -44c-114 -174 -323 -282 -558 -282c-399 0 -710 289 -710 711s311 711 710 711z" />
    <glyph glyph-name="D" unicode="D" horiz-adv-x="1609" 
d="M218 1400h489c481 0 772 -266 772 -700s-291 -700 -772 -700h-489v1400zM707 1329h-415v-1258h415c445 0 695 241 695 629c0 389 -250 629 -695 629z" />
    <glyph glyph-name="E" unicode="E" horiz-adv-x="1330" 
d="M1155 70v-70h-937v1400h933v-70h-859v-590h837v-70h-837v-600h863z" />
    <glyph glyph-name="F" unicode="F" horiz-adv-x="1279" 
d="M1121 740v-70h-829v-670h-74v1400h930v-71h-856v-589h829z" />
    <glyph glyph-name="G" unicode="G" horiz-adv-x="1635" 
d="M841 1411c219 0 414 -93 542 -245l-55 -52c-115 140 -291 226 -487 226c-352 0 -632 -257 -632 -640s280 -640 629 -640s576 235 587 596h-522v70h602v-23c0 -416 -261 -714 -667 -714c-379 0 -707 276 -707 711c0 422 312 711 710 711z" />
    <glyph glyph-name="H" unicode="H" horiz-adv-x="1554" 
d="M292 1400v-660h968v660h75v-1400h-75v670h-968v-670h-74v1400h74z" />
    <glyph glyph-name="I" unicode="I" horiz-adv-x="511" 
d="M292 1400v-1400h-74v1400h74z" />
    <glyph glyph-name="J" unicode="J" horiz-adv-x="1152" 
d="M944 1400v-895c0 -332 -209 -516 -484 -516c-195 0 -328 87 -408 173l49 52c75 -81 195 -153 359 -153c237 0 409 157 409 450v889h75z" />
    <glyph glyph-name="K" unicode="K" horiz-adv-x="1340" 
d="M1194 0l-696 669h-206v-669h-74v1400h74v-661h207l658 661h97l-696 -692l738 -708h-102z" />
    <glyph glyph-name="L" unicode="L" horiz-adv-x="1193" 
d="M1149 71v-71h-931v1400h74v-1329h857z" />
    <glyph glyph-name="M" unicode="M" horiz-adv-x="1847" 
d="M1628 1400v-1400h-75v1309l-591 -1129h-78l-592 1126v-1306h-74v1400h109l596 -1133l596 1133h109z" />
    <glyph glyph-name="N" unicode="N" horiz-adv-x="1558" 
d="M1339 1400v-1400h-67l-979 1271l-1 -1271h-74v1400h67l979 -1271v1271h75z" />
    <glyph glyph-name="O" unicode="O" horiz-adv-x="1681" 
d="M841 1411c399 0 710 -289 710 -711s-311 -711 -710 -711s-710 289 -710 711s311 711 710 711zM841 1340c-353 0 -632 -257 -632 -640s279 -640 632 -640c352 0 632 257 632 640s-280 640 -632 640z" />
    <glyph glyph-name="P" unicode="P" horiz-adv-x="1334" 
d="M727 579h-435v-579h-74v1400h509c303 0 494 -148 494 -410s-191 -411 -494 -411zM726 1329h-434v-679h434c257 0 418 117 418 340c0 222 -161 339 -418 339z" />
    <glyph glyph-name="Q" unicode="Q" horiz-adv-x="1681" 
d="M841 1411c399 0 710 -289 710 -711c0 -181 -57 -337 -155 -456l199 -244h-88l-159 191c-127 -129 -307 -202 -507 -202c-399 0 -710 289 -710 711s311 711 710 711zM841 1340c-353 0 -632 -257 -632 -640s279 -640 632 -640c182 0 345 69 460 189l-368 448h89l325 -394
c79 106 126 241 126 397c0 383 -280 640 -632 640z" />
    <glyph glyph-name="R" unicode="R" horiz-adv-x="1327" 
d="M218 1400h514c304 0 478 -139 478 -382c0 -239 -180 -383 -477 -383h-94l563 -635h-93l-558 635h-259v-635h-74v1400zM734 1330h-442v-627h442c255 0 399 114 399 315c0 200 -145 312 -399 312z" />
    <glyph glyph-name="S" unicode="S" horiz-adv-x="1340" 
d="M1166 1255l-38 -60c-105 77 -256 145 -460 145c-242 0 -424 -115 -424 -312c0 -149 101 -252 366 -280l179 -19c260 -28 420 -127 420 -346c0 -267 -244 -394 -546 -394c-218 0 -417 83 -532 170l41 59c100 -75 282 -158 491 -158c262 0 469 101 469 317
c0 172 -126 255 -372 281l-183 19c-279 30 -410 152 -410 347c0 247 220 387 502 387c223 0 386 -73 497 -156z" />
    <glyph glyph-name="T" unicode="T" horiz-adv-x="1218" 
d="M1174 1400v-71h-528v-1329h-74v1329h-528v71h1130z" />
    <glyph glyph-name="U" unicode="U" horiz-adv-x="1500" 
d="M1303 1400v-858c0 -367 -248 -553 -553 -553c-307 0 -554 186 -554 553v858h75v-853c0 -326 210 -486 479 -486c268 0 478 160 478 486v853h75z" />
    <glyph glyph-name="V" unicode="V" horiz-adv-x="1373" 
d="M1329 1400l-597 -1400h-90l-598 1400h80l563 -1323l565 1323h77z" />
    <glyph glyph-name="W" unicode="W" horiz-adv-x="2217" 
d="M2147 1400l-492 -1400h-89l-457 1302l-457 -1302h-89l-493 1400h79l459 -1316l461 1316h82l461 -1316l459 1316h76z" />
    <glyph glyph-name="X" unicode="X" horiz-adv-x="1381" 
d="M1272 1400l-534 -682l563 -718h-90l-521 662l-521 -662h-89l563 718l-534 682h91l491 -625l493 625h88z" />
    <glyph glyph-name="Y" unicode="Y" horiz-adv-x="1232" 
d="M1219 1400l-565 -781v-619h-74v619l-567 781h90l514 -710l515 710h87z" />
    <glyph glyph-name="Z" unicode="Z" horiz-adv-x="1343" 
d="M1207 1400v-56l-977 -1273h982v-71h-1081v58l976 1271h-955v71h1055z" />
    <glyph glyph-name="bracketleft" unicode="[" horiz-adv-x="721" 
d="M633 -198v-65h-415v1663h415v-65h-344v-1533h344z" />
    <glyph glyph-name="backslash" unicode="\" horiz-adv-x="973" 
d="M877 -200l-849 1740h77l849 -1740h-77z" />
    <glyph glyph-name="bracketright" unicode="]" horiz-adv-x="721" 
d="M88 1335v65h415v-1663h-415v65h344v1533h-344z" />
    <glyph glyph-name="asciicircum" unicode="^" horiz-adv-x="1200" 
d="M284 665h-74l355 735h70l355 -735h-75l-316 663z" />
    <glyph glyph-name="underscore" unicode="_" horiz-adv-x="933" 
d="M938 -167v-64h-943v64h943z" />
    <glyph glyph-name="grave" unicode="`" horiz-adv-x="860" 
d="M591 1069h-71l-251 300h89z" />
    <glyph glyph-name="a" unicode="a" horiz-adv-x="1243" 
d="M1053 933v-933h-69v218c-77 -137 -220 -229 -398 -229c-268 0 -473 203 -473 477s205 478 473 478c178 0 321 -92 398 -230v219h69zM586 878c-233 0 -402 -179 -402 -412c0 -232 170 -411 402 -411c231 0 402 177 402 411c0 235 -171 412 -402 412z" />
    <glyph glyph-name="b" unicode="b" horiz-adv-x="1243" 
d="M657 944c268 0 474 -204 474 -478s-206 -477 -474 -477c-178 0 -320 92 -397 228v-217h-70v1440h70v-725c77 137 219 229 397 229zM657 878c-231 0 -402 -177 -402 -412c0 -234 171 -411 402 -411c233 0 402 179 402 411c0 233 -170 412 -402 412z" />
    <glyph glyph-name="c" unicode="c" horiz-adv-x="1021" 
d="M585 944c137 0 258 -53 341 -143l-45 -47c-77 77 -179 124 -298 124c-227 0 -399 -175 -399 -412c0 -236 172 -411 399 -411c119 0 224 48 299 124l44 -47c-84 -90 -204 -143 -341 -143c-273 0 -472 205 -472 477c0 273 199 478 472 478z" />
    <glyph glyph-name="d" unicode="d" horiz-adv-x="1243" 
d="M586 944c178 0 321 -92 398 -230v726h69v-1440h-69v218c-77 -137 -220 -229 -398 -229c-268 0 -473 203 -473 477s205 478 473 478zM586 878c-233 0 -402 -179 -402 -412c0 -232 170 -411 402 -411c231 0 402 177 402 411c0 235 -171 412 -402 412z" />
    <glyph glyph-name="e" unicode="e" horiz-adv-x="1123" 
d="M574 944c244 0 432 -197 437 -471c0 -11 -1 -21 -1 -31h-824c10 -236 177 -387 396 -387c148 0 252 60 338 150l42 -48c-121 -133 -252 -168 -384 -168c-270 0 -465 197 -465 477c0 277 202 478 461 478zM573 878c-210 0 -369 -157 -387 -372h751
c-13 216 -167 372 -364 372z" />
    <glyph glyph-name="f" unicode="f" horiz-adv-x="890" 
d="M817 933v-64h-441v-869h-69v869h-250v64h250v162c0 214 83 356 306 356c100 0 186 -30 248 -70l-26 -58c-54 34 -134 62 -218 62c-176 0 -241 -109 -241 -290v-162h441z" />
    <glyph glyph-name="g" unicode="g" horiz-adv-x="1238" 
d="M585 944c175 0 316 -89 394 -222v211h69v-870c0 -319 -226 -472 -483 -472c-161 0 -305 57 -395 147l35 53c85 -82 212 -136 360 -136c217 0 414 127 414 405v150c-78 -132 -219 -221 -394 -221c-267 0 -472 203 -472 477s205 478 472 478zM585 878
c-233 0 -401 -179 -401 -412c0 -232 170 -411 401 -411s403 177 403 411c0 235 -172 412 -403 412z" />
    <glyph glyph-name="h" unicode="h" horiz-adv-x="1192" 
d="M260 1440v-685c67 112 188 189 348 189c251 0 406 -154 406 -397v-547h-69v547c0 197 -120 331 -343 331c-202 0 -342 -148 -342 -338v-540h-70v1440h70z" />
    <glyph glyph-name="i" unicode="i" horiz-adv-x="450" 
d="M260 933v-933h-70v933h70zM225 1327c29 0 52 -23 52 -52s-23 -51 -52 -51s-51 22 -51 51s22 52 51 52z" />
    <glyph glyph-name="j" unicode="j" horiz-adv-x="451" 
d="M261 933v-1139c0 -131 -61 -203 -176 -203c-48 0 -94 16 -124 34l19 60c25 -16 61 -28 99 -28c76 0 113 46 113 140v1136h69zM226 1327c29 0 52 -23 52 -52s-23 -51 -52 -51s-51 22 -51 51s22 52 51 52z" />
    <glyph glyph-name="k" unicode="k" horiz-adv-x="1023" 
d="M260 1440v-918h173l435 411h89l-470 -441l480 -492h-89l-446 458h-172v-458h-70v1440h70z" />
    <glyph glyph-name="l" unicode="l" horiz-adv-x="450" 
d="M260 1440v-1440h-70v1440h70z" />
    <glyph glyph-name="m" unicode="m" horiz-adv-x="1947" 
d="M1357 944c256 0 412 -154 412 -397v-547h-70v547c0 197 -120 331 -342 331c-202 0 -343 -148 -343 -338v-540h-69v547c0 197 -120 331 -343 331c-202 0 -342 -148 -342 -338v-540h-70v933h69v-179c66 113 188 190 349 190c187 0 320 -86 376 -230c62 137 197 230 373 230
z" />
    <glyph glyph-name="n" unicode="n" horiz-adv-x="1192" 
d="M608 944c251 0 406 -154 406 -397v-547h-69v547c0 197 -120 331 -343 331c-202 0 -342 -148 -342 -338v-540h-70v933h69v-179c66 113 188 190 349 190z" />
    <glyph glyph-name="o" unicode="o" horiz-adv-x="1178" 
d="M588 944c272 0 478 -205 478 -478c0 -272 -206 -477 -478 -477c-270 0 -475 205 -475 477c0 273 205 478 475 478zM588 878c-230 0 -404 -175 -404 -412c0 -236 174 -411 404 -411c231 0 407 175 407 411c0 237 -176 412 -407 412z" />
    <glyph glyph-name="p" unicode="p" horiz-adv-x="1243" 
d="M657 944c268 0 474 -204 474 -478s-206 -477 -474 -477c-178 0 -320 92 -397 228v-617h-70v1333h70v-218c77 137 219 229 397 229zM657 878c-231 0 -402 -177 -402 -412c0 -234 171 -411 402 -411c233 0 402 179 402 411c0 233 -170 412 -402 412z" />
    <glyph glyph-name="q" unicode="q" horiz-adv-x="1243" 
d="M586 944c178 0 321 -92 398 -230v219h69v-1333h-69v618c-77 -137 -220 -229 -398 -229c-268 0 -473 203 -473 477s205 478 473 478zM586 878c-233 0 -402 -179 -402 -412c0 -232 170 -411 402 -411c231 0 402 177 402 411c0 235 -171 412 -402 412z" />
    <glyph glyph-name="r" unicode="r" horiz-adv-x="793" 
d="M556 944c65 0 130 -13 180 -40l-19 -64c-46 26 -107 39 -167 39c-180 0 -291 -153 -291 -343v-536h-69v933h69v-164c58 104 158 175 297 175z" />
    <glyph glyph-name="s" unicode="s" horiz-adv-x="961" 
d="M841 836l-33 -56c-67 49 -191 99 -329 99c-163 0 -284 -71 -284 -194c0 -94 69 -157 241 -175l131 -14c190 -20 299 -97 299 -239c0 -176 -165 -268 -393 -268c-154 0 -282 46 -378 118l35 55c78 -60 178 -108 344 -108c183 0 321 62 321 199c0 102 -81 162 -242 178
l-132 13c-214 22 -298 114 -298 238c0 165 149 261 355 261c150 0 283 -48 363 -107z" />
    <glyph glyph-name="t" unicode="t" horiz-adv-x="903" 
d="M819 933v-64h-463v-557c0 -174 91 -257 234 -257c90 0 169 30 224 79l35 -51c-63 -57 -153 -94 -264 -94c-186 0 -299 106 -299 322v558h-229v64h229v315h70v-315h463z" />
    <glyph glyph-name="u" unicode="u" horiz-adv-x="1180" 
d="M1002 933v-552c0 -249 -177 -392 -412 -392s-411 143 -411 392v552h69v-546c0 -209 139 -332 342 -332c204 0 342 123 342 332v546h70z" />
    <glyph glyph-name="v" unicode="v" horiz-adv-x="1016" 
d="M977 933l-430 -937h-78l-430 937h76l393 -864l395 864h74z" />
    <glyph glyph-name="w" unicode="w" horiz-adv-x="1749" 
d="M914 933l343 -863l361 863h73l-394 -933h-81l-342 861l-342 -861h-80l-393 933h74l360 -863l343 863h78z" />
    <glyph glyph-name="x" unicode="x" horiz-adv-x="986" 
d="M932 933l-393 -455l409 -478h-86l-372 426l-370 -426h-82l408 477l-392 456h86l354 -408l355 408h83z" />
    <glyph glyph-name="y" unicode="y" horiz-adv-x="996" 
d="M977 933l-790 -1335h-78l369 618l-451 717h79l411 -648l383 648h77z" />
    <glyph glyph-name="z" unicode="z" horiz-adv-x="1078" 
d="M937 933v-52l-711 -817h719v-64h-812v51l714 818h-693v64h783z" />
    <glyph glyph-name="braceleft" unicode="{" horiz-adv-x="820" 
d="M732 1335h-74c-139 0 -237 -82 -225 -279l10 -168c12 -186 -70 -287 -201 -319c131 -32 213 -133 201 -319l-10 -168c-12 -197 86 -279 225 -279h74v-65h-74c-188 0 -313 113 -297 351l11 168c12 198 -92 280 -241 280v64c149 0 253 82 241 280l-11 168
c-16 238 109 351 297 351h74v-65z" />
    <glyph glyph-name="bar" unicode="|" horiz-adv-x="682" 
d="M375 1400v-1665h-70v1665h70z" />
    <glyph glyph-name="braceright" unicode="}" horiz-adv-x="820" 
d="M88 -197h74c139 0 237 82 225 279l-10 168c-12 186 70 287 201 319c-131 32 -213 133 -201 319l10 168c12 197 -86 279 -225 279h-74v65h74c188 0 313 -113 297 -351l-11 -168c-12 -198 92 -280 241 -280v-64c-149 0 -253 -82 -241 -280l11 -168
c16 -238 -109 -351 -297 -351h-74v65z" />
    <glyph glyph-name="asciitilde" unicode="~" horiz-adv-x="1200" 
d="M981 604l40 -45c-65 -73 -134 -112 -242 -112c-175 0 -208 98 -365 98c-86 0 -142 -33 -199 -96l-39 45c64 73 133 112 242 112c175 0 207 -98 365 -98c86 0 141 33 198 96z" />
    <glyph glyph-name="uni00A0" unicode="&#xa0;" horiz-adv-x="526" 
 />
    <glyph glyph-name="exclamdown" unicode="&#xa1;" horiz-adv-x="516" 
d="M223 -467v977h70v-977h-70zM258 822c-32 0 -60 27 -60 60c0 32 28 60 60 60s60 -28 60 -60c0 -33 -28 -60 -60 -60z" />
    <glyph glyph-name="cent" unicode="&#xa2;" horiz-adv-x="1400" 
d="M708 1400h65v-223c135 -1 257 -54 341 -143l-42 -45c-78 76 -180 122 -299 124v-826c119 1 224 49 301 124l40 -45c-84 -89 -206 -142 -341 -143v-223h-65v226c-247 28 -421 222 -421 474s174 446 421 473v227zM356 700c0 -217 148 -382 352 -409v818
c-204 -27 -352 -193 -352 -409z" />
    <glyph glyph-name="sterling" unicode="&#xa3;" horiz-adv-x="1400" 
d="M1202 68v-68h-1004v68h195v600h-195v64h195v212c0 308 194 467 430 467c148 0 273 -62 355 -186l-53 -45c-69 108 -175 162 -302 162c-201 0 -358 -132 -358 -402v-208h566v-64h-566v-600h737z" />
    <glyph glyph-name="currency" unicode="&#xa4;" horiz-adv-x="1400" 
d="M251 1108l42 43l143 -144c72 62 165 99 268 99c101 0 194 -37 265 -99l143 144l41 -43l-142 -142c61 -71 99 -164 99 -266c0 -103 -38 -196 -100 -268l143 -142l-41 -42l-143 143c-71 -62 -164 -98 -265 -98c-103 0 -197 37 -268 99l-143 -144l-41 42l143 143
c-62 71 -99 164 -99 267c0 102 37 194 98 265zM704 351c192 0 347 154 347 349c0 194 -155 348 -347 348c-195 0 -349 -154 -349 -348c0 -195 154 -349 349 -349z" />
    <glyph glyph-name="yen" unicode="&#xa5;" horiz-adv-x="1400" 
d="M1164 408v-63h-426v-345h-72v345h-426v63h426v248h-426v63h402l-510 681h86l484 -645l482 645h85l-508 -681h403v-63h-426v-248h426z" />
    <glyph glyph-name="brokenbar" unicode="&#xa6;" horiz-adv-x="682" 
d="M375 1400v-694h-70v694h70zM375 429v-694h-70v694h70z" />
    <glyph glyph-name="section" unicode="&#xa7;" horiz-adv-x="1312" 
d="M1113 1260l-35 -56c-92 74 -243 141 -416 141c-220 0 -384 -95 -384 -257c0 -134 121 -213 335 -233l160 -15c203 -19 382 -111 382 -293c0 -120 -69 -207 -176 -260c93 -48 156 -123 156 -231c0 -227 -221 -334 -490 -334c-212 0 -383 81 -488 162l38 56
c92 -72 247 -152 450 -152c235 0 419 82 419 263c0 141 -148 213 -338 232l-166 17c-225 22 -373 120 -373 293c0 115 67 203 173 256c-96 50 -153 128 -153 235c0 206 201 327 455 327c191 0 351 -71 451 -151zM581 790c-56 5 -108 16 -153 31
c-106 -42 -170 -120 -170 -224c0 -134 120 -212 336 -233l161 -16c55 -6 109 -16 157 -33c106 42 173 117 173 227c0 140 -151 216 -342 233z" />
    <glyph glyph-name="dieresis" unicode="&#xa8;" horiz-adv-x="866" 
d="M226 1268c29 0 52 -22 52 -51s-23 -52 -52 -52s-51 23 -51 52s22 51 51 51zM640 1268c29 0 52 -22 52 -51s-23 -52 -52 -52s-51 23 -51 52s22 51 51 51z" />
    <glyph glyph-name="copyright" unicode="&#xa9;" horiz-adv-x="1892" 
d="M947 1490c434 0 789 -353 789 -787s-355 -787 -789 -787c-436 0 -790 353 -790 787s354 787 790 787zM947 1428c-402 0 -726 -324 -726 -725s324 -725 726 -725c400 0 725 324 725 725s-325 725 -725 725zM1303 954l-52 -36c-59 91 -163 146 -282 146
c-196 0 -353 -146 -353 -361c0 -220 159 -360 353 -360c119 0 224 55 283 145l49 -39c-69 -103 -192 -168 -332 -168c-234 0 -419 172 -419 422s185 422 419 422c140 0 266 -65 334 -171z" />
    <glyph glyph-name="ordfeminine" unicode="&#xaa;" horiz-adv-x="777" 
d="M371 1305c158 0 271 -75 271 -260v-390h-58v103c-57 -60 -143 -111 -257 -111c-145 0 -236 77 -236 186c0 110 91 186 268 186h224v19c0 154 -88 213 -218 213c-92 0 -159 -35 -208 -76l-29 43c58 49 138 87 243 87zM332 699c108 0 197 53 252 118v154h-217
c-149 0 -215 -57 -215 -136s70 -136 180 -136z" />
    <glyph glyph-name="guillemotleft" unicode="&#xab;" horiz-adv-x="968" 
d="M588 524l195 -357h-76l-195 357l195 357h76zM230 524l195 -357h-76l-195 357l195 357h76z" />
    <glyph glyph-name="logicalnot" unicode="&#xac;" horiz-adv-x="1200" 
d="M1015 172h-65v320h-765v64h830v-384z" />
    <glyph glyph-name="uni00AD" unicode="&#xad;" horiz-adv-x="830" 
d="M677 556v-64h-524v64h524z" />
    <glyph glyph-name="registered" unicode="&#xae;" horiz-adv-x="817" 
d="M411 1426c195 0 354 -158 354 -354c0 -193 -159 -351 -354 -351c-200 0 -359 158 -359 351c0 196 159 354 359 354zM411 765c169 0 305 138 305 307c0 173 -135 310 -305 310c-173 0 -311 -137 -311 -310c0 -169 138 -307 311 -307zM432 1253c80 0 131 -38 131 -104
c0 -60 -48 -101 -123 -103l124 -147h-49l-121 147h-66v-147h-41v354h145zM432 1218h-104v-139h104c55 0 90 25 90 70s-35 69 -90 69z" />
    <glyph glyph-name="macron" unicode="&#xaf;" horiz-adv-x="860" 
d="M146 1187v58h569v-58h-569z" />
    <glyph glyph-name="degree" unicode="&#xb0;" horiz-adv-x="734" 
d="M368 784c-174 0 -316 140 -316 314c0 173 142 313 316 313c173 0 314 -140 314 -313c0 -174 -141 -314 -314 -314zM368 842c139 0 254 113 254 256c0 142 -115 255 -254 255c-141 0 -255 -113 -255 -255c0 -143 114 -256 255 -256z" />
    <glyph glyph-name="plusminus" unicode="&#xb1;" horiz-adv-x="1200" 
d="M629 305h-65v353h-379v64h379v378h65v-378h386v-64h-386v-353zM1015 169v-64h-830v64h830z" />
    <glyph glyph-name="twosuperior" unicode="&#xb2;" horiz-adv-x="628" 
d="M108 1245l-39 36c38 59 104 123 226 123c148 0 231 -97 231 -220c0 -90 -46 -156 -105 -217l-251 -257h385v-55h-469v46l293 300c49 50 86 106 86 179c0 92 -61 168 -175 168c-93 0 -147 -50 -182 -103z" />
    <glyph glyph-name="threesuperior" unicode="&#xb3;" horiz-adv-x="625" 
d="M275 1404c144 0 244 -80 244 -194c0 -95 -57 -156 -142 -180c93 -23 157 -87 157 -178c0 -138 -124 -203 -253 -203c-98 0 -173 33 -228 88l34 40c49 -47 113 -75 191 -75c102 0 196 48 196 154c0 92 -88 148 -194 148h-106v53h106c101 0 178 51 178 149
c0 85 -76 145 -186 145c-80 0 -141 -37 -180 -87l-37 38c47 59 120 102 220 102z" />
    <glyph glyph-name="acute" unicode="&#xb4;" horiz-adv-x="860" 
d="M340 1069h-71l233 300h89z" />
    <glyph glyph-name="mu" unicode="&#xb5;" horiz-adv-x="1193" 
d="M248 -400h-69v1333h69v-547c0 -197 120 -331 343 -331c202 0 342 148 342 338v540h70v-933h-69v179c-66 -113 -188 -190 -349 -190c-152 0 -269 56 -337 155v-544z" />
    <glyph glyph-name="paragraph" unicode="&#xb6;" horiz-adv-x="1048" 
d="M522 0v804h-9c-219 0 -355 109 -355 298c0 190 136 298 355 298h66v-1400h-57zM686 0v1400h57v-1400h-57z" />
    <glyph glyph-name="periodcentered" unicode="&#xb7;" horiz-adv-x="793" 
d="M397 584c32 0 60 -28 60 -60s-28 -60 -60 -60s-60 28 -60 60s28 60 60 60z" />
    <glyph glyph-name="cedilla" unicode="&#xb8;" horiz-adv-x="954" 
d="M565 3l-103 -328h-73l107 330z" />
    <glyph glyph-name="onesuperior" unicode="&#xb9;" horiz-adv-x="531" 
d="M362 1404v-749h-59v667l-250 -105v58z" />
    <glyph glyph-name="ordmasculine" unicode="&#xba;" horiz-adv-x="841" 
d="M420 1305c188 0 329 -141 329 -328c0 -188 -141 -330 -329 -330c-187 0 -329 142 -329 330c0 187 142 328 329 328zM420 1251c-153 0 -269 -117 -269 -274c0 -158 116 -274 269 -274s270 116 270 274c0 157 -117 274 -270 274z" />
    <glyph glyph-name="guillemotright" unicode="&#xbb;" horiz-adv-x="968" 
d="M380 524l-195 357h76l195 -357l-195 -357h-76zM738 524l-195 357h76l195 -357l-195 -357h-76z" />
    <glyph glyph-name="onequarter" unicode="&#xbc;" horiz-adv-x="1527" 
d="M1224 1400l-883 -1400h-70l883 1400h70zM1349 434v-216h136v-54h-136v-164h-59v164h-366v43l271 536h64l-266 -525h297v216h59zM362 1404v-749h-59v667l-250 -105v58z" />
    <glyph glyph-name="onehalf" unicode="&#xbd;" horiz-adv-x="1575" 
d="M1224 1400l-883 -1400h-70l883 1400h70zM1056 590l-39 36c38 59 104 123 226 123c148 0 231 -97 231 -220c0 -90 -46 -156 -105 -217l-251 -257h385v-55h-469v46l293 300c49 50 86 106 86 179c0 92 -61 168 -175 168c-93 0 -147 -50 -182 -103zM362 1404v-749h-59v667
l-250 -105v58z" />
    <glyph glyph-name="threequarters" unicode="&#xbe;" horiz-adv-x="1605" 
d="M1302 1400l-883 -1400h-70l883 1400h70zM1427 434v-216h136v-54h-136v-164h-59v164h-366v43l271 536h64l-266 -525h297v216h59zM275 1404c144 0 244 -80 244 -194c0 -95 -57 -156 -142 -180c93 -23 157 -87 157 -178c0 -138 -124 -203 -253 -203c-98 0 -173 33 -228 88
l34 40c49 -47 113 -75 191 -75c102 0 196 48 196 154c0 92 -88 148 -194 148h-106v53h106c101 0 178 51 178 149c0 85 -76 145 -186 145c-80 0 -141 -37 -180 -87l-37 38c47 59 120 102 220 102z" />
    <glyph glyph-name="questiondown" unicode="&#xbf;" horiz-adv-x="829" 
d="M532 510h64v-303h-31c-248 0 -405 -122 -405 -311c0 -185 166 -303 396 -303c36 0 77 2 108 6l6 -71c-34 -5 -80 -8 -117 -8c-274 0 -470 148 -470 374c0 219 169 362 444 378zM564 824c-32 0 -60 28 -60 60s28 60 60 60s60 -28 60 -60s-28 -60 -60 -60z" />
    <glyph glyph-name="Agrave" unicode="&#xc0;" horiz-adv-x="1386" 
d="M738 1400l604 -1400h-80l-186 433h-768l-186 -433h-78l604 1400h90zM692 1324l-354 -820h707zM737 1485l-251 300h88l234 -300h-71z" />
    <glyph glyph-name="Aacute" unicode="&#xc1;" horiz-adv-x="1386" 
d="M738 1400l604 -1400h-80l-186 433h-768l-186 -433h-78l604 1400h90zM692 1324l-354 -820h707zM645 1485h-71l233 300h89z" />
    <glyph glyph-name="Acircumflex" unicode="&#xc2;" horiz-adv-x="1386" 
d="M738 1400l604 -1400h-80l-186 433h-768l-186 -433h-78l604 1400h90zM692 1324l-354 -820h707zM1002 1499h-77l-232 224l-232 -224h-77l266 273h86z" />
    <glyph glyph-name="Atilde" unicode="&#xc3;" horiz-adv-x="1386" 
d="M738 1400l604 -1400h-80l-186 433h-768l-186 -433h-78l604 1400h90zM692 1324l-354 -820h707zM410 1571l-43 40c51 72 106 109 192 109c133 0 158 -94 267 -94c64 0 106 30 149 88l43 -40c-51 -71 -106 -109 -192 -109c-133 0 -157 95 -267 95c-64 0 -106 -30 -149 -89z
" />
    <glyph glyph-name="Adieresis" unicode="&#xc4;" horiz-adv-x="1386" 
d="M738 1400l604 -1400h-80l-186 433h-768l-186 -433h-78l604 1400h90zM692 1324l-354 -820h707zM486 1684c29 0 52 -22 52 -51s-23 -52 -52 -52s-51 23 -51 52s22 51 51 51zM900 1684c29 0 52 -22 52 -51s-23 -52 -52 -52s-51 23 -51 52s22 51 51 51z" />
    <glyph glyph-name="Aring" unicode="&#xc5;" horiz-adv-x="1386" 
d="M738 1400l604 -1400h-80l-186 433h-768l-186 -433h-78l604 1400h90zM692 1324l-354 -820h707zM693 1474c-110 0 -200 89 -200 198s90 199 200 199c109 0 199 -90 199 -199s-90 -198 -199 -198zM693 1528c79 0 143 63 143 144s-64 144 -143 144c-80 0 -144 -63 -144 -144
s64 -144 144 -144z" />
    <glyph glyph-name="AE" unicode="&#xc6;" horiz-adv-x="2240" 
d="M2065 70v-70h-937v422h-680l-323 -422h-90l1073 1400h953v-70h-859v-590h837v-70h-837v-600h863zM502 493h626v818z" />
    <glyph glyph-name="Ccedilla" unicode="&#xc7;" horiz-adv-x="1526" 
d="M841 1411c236 0 449 -109 559 -285l-62 -42c-101 158 -288 256 -497 256c-352 0 -632 -257 -632 -640s280 -640 632 -640c209 0 395 97 497 255l61 -44c-107 -163 -296 -268 -512 -280l-99 -316h-76l102 315c-386 12 -683 297 -683 710c0 422 311 711 710 711z" />
    <glyph glyph-name="Egrave" unicode="&#xc8;" horiz-adv-x="1330" 
d="M1155 70v-70h-937v1400h933v-70h-859v-590h837v-70h-837v-600h863zM721 1485l-251 300h88l234 -300h-71z" />
    <glyph glyph-name="Eacute" unicode="&#xc9;" horiz-adv-x="1330" 
d="M1155 70v-70h-937v1400h933v-70h-859v-590h837v-70h-837v-600h863zM629 1485h-71l233 300h89z" />
    <glyph glyph-name="Ecircumflex" unicode="&#xca;" horiz-adv-x="1330" 
d="M1155 70v-70h-937v1400h933v-70h-859v-590h837v-70h-837v-600h863zM986 1499h-77l-232 224l-232 -224h-77l266 273h86z" />
    <glyph glyph-name="Edieresis" unicode="&#xcb;" horiz-adv-x="1330" 
d="M1155 70v-70h-937v1400h933v-70h-859v-590h837v-70h-837v-600h863zM470 1684c29 0 52 -22 52 -51s-23 -52 -52 -52s-51 23 -51 52s22 51 51 51zM884 1684c29 0 52 -22 52 -51s-23 -52 -52 -52s-51 23 -51 52s22 51 51 51z" />
    <glyph glyph-name="Igrave" unicode="&#xcc;" horiz-adv-x="511" 
d="M292 1400v-1400h-74v1400h74zM299 1485l-251 300h88l234 -300h-71z" />
    <glyph glyph-name="Iacute" unicode="&#xcd;" horiz-adv-x="511" 
d="M292 1400v-1400h-74v1400h74zM207 1485h-71l233 300h89z" />
    <glyph glyph-name="Icircumflex" unicode="&#xce;" horiz-adv-x="511" 
d="M292 1400v-1400h-74v1400h74zM564 1499h-77l-232 224l-232 -224h-77l266 273h86z" />
    <glyph glyph-name="Idieresis" unicode="&#xcf;" horiz-adv-x="511" 
d="M292 1400v-1400h-74v1400h74zM48 1684c29 0 52 -22 52 -51s-23 -52 -52 -52s-51 23 -51 52s22 51 51 51zM462 1684c29 0 52 -22 52 -51s-23 -52 -52 -52s-51 23 -51 52s22 51 51 51z" />
    <glyph glyph-name="Eth" unicode="&#xd0;" horiz-adv-x="1810" 
d="M419 1400h489c481 0 772 -266 772 -700s-291 -700 -772 -700h-489v670h-288v70h288v660zM935 740v-70h-442v-599h415c445 0 695 241 695 629c0 389 -250 629 -695 629h-415v-589h442z" />
    <glyph glyph-name="Ntilde" unicode="&#xd1;" horiz-adv-x="1558" 
d="M1339 1400v-1400h-67l-979 1271l-1 -1271h-74v1400h67l979 -1271v1271h75zM495 1571l-43 40c51 72 106 109 192 109c133 0 158 -94 267 -94c64 0 106 30 149 88l43 -40c-51 -71 -106 -109 -192 -109c-133 0 -157 95 -267 95c-64 0 -106 -30 -149 -89z" />
    <glyph glyph-name="Ograve" unicode="&#xd2;" horiz-adv-x="1681" 
d="M841 1411c399 0 710 -289 710 -711s-311 -711 -710 -711s-710 289 -710 711s311 711 710 711zM841 1340c-353 0 -632 -257 -632 -640s279 -640 632 -640c352 0 632 257 632 640s-280 640 -632 640zM885 1485l-251 300h88l234 -300h-71z" />
    <glyph glyph-name="Oacute" unicode="&#xd3;" horiz-adv-x="1681" 
d="M841 1411c399 0 710 -289 710 -711s-311 -711 -710 -711s-710 289 -710 711s311 711 710 711zM841 1340c-353 0 -632 -257 -632 -640s279 -640 632 -640c352 0 632 257 632 640s-280 640 -632 640zM793 1485h-71l233 300h89z" />
    <glyph glyph-name="Ocircumflex" unicode="&#xd4;" horiz-adv-x="1681" 
d="M841 1411c399 0 710 -289 710 -711s-311 -711 -710 -711s-710 289 -710 711s311 711 710 711zM841 1340c-353 0 -632 -257 -632 -640s279 -640 632 -640c352 0 632 257 632 640s-280 640 -632 640zM1150 1499h-77l-232 224l-232 -224h-77l266 273h86z" />
    <glyph glyph-name="Otilde" unicode="&#xd5;" horiz-adv-x="1681" 
d="M841 1411c399 0 710 -289 710 -711s-311 -711 -710 -711s-710 289 -710 711s311 711 710 711zM841 1340c-353 0 -632 -257 -632 -640s279 -640 632 -640c352 0 632 257 632 640s-280 640 -632 640zM558 1571l-43 40c51 72 106 109 192 109c133 0 158 -94 267 -94
c64 0 106 30 149 88l43 -40c-51 -71 -106 -109 -192 -109c-133 0 -157 95 -267 95c-64 0 -106 -30 -149 -89z" />
    <glyph glyph-name="Odieresis" unicode="&#xd6;" horiz-adv-x="1681" 
d="M841 1411c399 0 710 -289 710 -711s-311 -711 -710 -711s-710 289 -710 711s311 711 710 711zM841 1340c-353 0 -632 -257 -632 -640s279 -640 632 -640c352 0 632 257 632 640s-280 640 -632 640zM634 1684c29 0 52 -22 52 -51s-23 -52 -52 -52s-51 23 -51 52
s22 51 51 51zM1048 1684c29 0 52 -22 52 -51s-23 -52 -52 -52s-51 23 -51 52s22 51 51 51z" />
    <glyph glyph-name="multiply" unicode="&#xd7;" horiz-adv-x="1200" 
d="M294 175l-45 45l303 303l-303 304l46 46l303 -304l308 308l46 -45l-308 -308l308 -308l-46 -46l-309 307z" />
    <glyph glyph-name="Oslash" unicode="&#xd8;" horiz-adv-x="1681" 
d="M841 1411c188 0 357 -65 483 -178l177 177l50 -49l-177 -177c110 -123 177 -289 177 -484c0 -422 -311 -711 -710 -711c-189 0 -358 65 -484 178l-177 -177l-50 49l177 177c-110 123 -176 289 -176 484c0 422 311 711 710 711zM1473 700c0 173 -57 321 -153 430
l-910 -910c112 -102 263 -160 431 -160c352 0 632 257 632 640zM841 1340c-353 0 -632 -257 -632 -640c0 -173 57 -321 152 -430l910 910c-113 102 -263 160 -430 160z" />
    <glyph glyph-name="Ugrave" unicode="&#xd9;" horiz-adv-x="1500" 
d="M1303 1400v-858c0 -367 -248 -553 -553 -553c-307 0 -554 186 -554 553v858h75v-853c0 -326 210 -486 479 -486c268 0 478 160 478 486v853h75zM794 1485l-251 300h88l234 -300h-71z" />
    <glyph glyph-name="Uacute" unicode="&#xda;" horiz-adv-x="1500" 
d="M1303 1400v-858c0 -367 -248 -553 -553 -553c-307 0 -554 186 -554 553v858h75v-853c0 -326 210 -486 479 -486c268 0 478 160 478 486v853h75zM702 1485h-71l233 300h89z" />
    <glyph glyph-name="Ucircumflex" unicode="&#xdb;" horiz-adv-x="1500" 
d="M1303 1400v-858c0 -367 -248 -553 -553 -553c-307 0 -554 186 -554 553v858h75v-853c0 -326 210 -486 479 -486c268 0 478 160 478 486v853h75zM1059 1499h-77l-232 224l-232 -224h-77l266 273h86z" />
    <glyph glyph-name="Udieresis" unicode="&#xdc;" horiz-adv-x="1500" 
d="M1303 1400v-858c0 -367 -248 -553 -553 -553c-307 0 -554 186 -554 553v858h75v-853c0 -326 210 -486 479 -486c268 0 478 160 478 486v853h75zM543 1684c29 0 52 -22 52 -51s-23 -52 -52 -52s-51 23 -51 52s22 51 51 51zM957 1684c29 0 52 -22 52 -51s-23 -52 -52 -52
s-51 23 -51 52s22 51 51 51z" />
    <glyph glyph-name="Yacute" unicode="&#xdd;" horiz-adv-x="1232" 
d="M1219 1400l-565 -781v-619h-74v619l-567 781h90l514 -710l515 710h87zM570 1485h-71l233 300h89z" />
    <glyph glyph-name="Thorn" unicode="&#xde;" horiz-adv-x="1334" 
d="M292 1400v-275h435c303 0 494 -148 494 -410s-191 -410 -494 -410h-435v-305h-74v1400h74zM726 1055h-434v-680h434c258 0 418 117 418 340s-160 340 -418 340z" />
    <glyph glyph-name="germandbls" unicode="&#xdf;" horiz-adv-x="1205" 
d="M180 0v1018c0 264 169 433 436 433c244 0 437 -142 437 -380c0 -173 -100 -292 -239 -333c164 -37 279 -175 279 -356c0 -248 -183 -393 -398 -393c-114 0 -192 25 -257 60l20 61c59 -32 130 -56 228 -56c187 0 335 117 335 328c0 193 -150 319 -360 319h-91v64h70
c185 0 342 106 342 306s-162 314 -368 314c-214 0 -364 -133 -364 -371v-1014h-70z" />
    <glyph glyph-name="agrave" unicode="&#xe0;" horiz-adv-x="1243" 
d="M1053 933v-933h-69v218c-77 -137 -220 -229 -398 -229c-268 0 -473 203 -473 477s205 478 473 478c178 0 321 -92 398 -230v219h69zM586 878c-233 0 -402 -179 -402 -412c0 -232 170 -411 402 -411c231 0 402 177 402 411c0 235 -171 412 -402 412zM621 1069l-251 300h88
l234 -300h-71z" />
    <glyph glyph-name="aacute" unicode="&#xe1;" horiz-adv-x="1243" 
d="M1053 933v-933h-69v218c-77 -137 -220 -229 -398 -229c-268 0 -473 203 -473 477s205 478 473 478c178 0 321 -92 398 -230v219h69zM586 878c-233 0 -402 -179 -402 -412c0 -232 170 -411 402 -411c231 0 402 177 402 411c0 235 -171 412 -402 412zM568 1069h-71l233 300
h89z" />
    <glyph glyph-name="acircumflex" unicode="&#xe2;" horiz-adv-x="1243" 
d="M1053 933v-933h-69v218c-77 -137 -220 -229 -398 -229c-268 0 -473 203 -473 477s205 478 473 478c178 0 321 -92 398 -230v219h69zM586 878c-233 0 -402 -179 -402 -412c0 -232 170 -411 402 -411c231 0 402 177 402 411c0 235 -171 412 -402 412zM909 1083h-77
l-232 224l-232 -224h-77l266 273h86z" />
    <glyph glyph-name="atilde" unicode="&#xe3;" horiz-adv-x="1243" 
d="M1053 933v-933h-69v218c-77 -137 -220 -229 -398 -229c-268 0 -473 203 -473 477s205 478 473 478c178 0 321 -92 398 -230v219h69zM586 878c-233 0 -402 -179 -402 -412c0 -232 170 -411 402 -411c231 0 402 177 402 411c0 235 -171 412 -402 412zM332 1155l-43 40
c51 72 106 109 192 109c133 0 158 -94 267 -94c64 0 106 30 149 88l43 -40c-51 -71 -106 -109 -192 -109c-133 0 -157 95 -267 95c-64 0 -106 -30 -149 -89z" />
    <glyph glyph-name="adieresis" unicode="&#xe4;" horiz-adv-x="1243" 
d="M1053 933v-933h-69v218c-77 -137 -220 -229 -398 -229c-268 0 -473 203 -473 477s205 478 473 478c178 0 321 -92 398 -230v219h69zM586 878c-233 0 -402 -179 -402 -412c0 -232 170 -411 402 -411c231 0 402 177 402 411c0 235 -171 412 -402 412zM393 1268
c29 0 52 -22 52 -51s-23 -52 -52 -52s-51 23 -51 52s22 51 51 51zM807 1268c29 0 52 -22 52 -51s-23 -52 -52 -52s-51 23 -51 52s22 51 51 51z" />
    <glyph glyph-name="aring" unicode="&#xe5;" horiz-adv-x="1243" 
d="M1053 933v-933h-69v218c-77 -137 -220 -229 -398 -229c-268 0 -473 203 -473 477s205 478 473 478c178 0 321 -92 398 -230v219h69zM586 878c-233 0 -402 -179 -402 -412c0 -232 170 -411 402 -411c231 0 402 177 402 411c0 235 -171 412 -402 412zM600 1058
c-110 0 -200 89 -200 198s90 199 200 199c109 0 199 -90 199 -199s-90 -198 -199 -198zM600 1112c79 0 143 63 143 144s-64 144 -143 144c-80 0 -144 -63 -144 -144s64 -144 144 -144z" />
    <glyph glyph-name="ae" unicode="&#xe6;" horiz-adv-x="1843" 
d="M1294 944c244 0 433 -197 437 -471c0 -11 0 -21 -1 -31h-823c10 -236 175 -387 393 -387c148 0 257 62 340 150l42 -48c-120 -133 -254 -168 -386 -168c-175 0 -316 81 -396 216c-92 -128 -251 -216 -429 -216c-222 0 -358 103 -358 259c0 158 130 258 383 258h340v51
c0 231 -134 320 -328 320c-134 0 -231 -49 -302 -105l-37 52c87 71 200 120 344 120c193 0 335 -77 376 -262c68 157 224 262 405 262zM1293 878c-210 0 -368 -157 -386 -372h750c-12 215 -167 372 -364 372zM471 55c158 0 309 81 399 212c-22 53 -34 111 -37 175h-326
c-224 0 -320 -76 -320 -194c0 -116 109 -193 284 -193z" />
    <glyph glyph-name="ccedilla" unicode="&#xe7;" horiz-adv-x="1021" 
d="M585 944c137 0 258 -53 341 -143l-45 -47c-77 77 -179 124 -298 124c-227 0 -399 -175 -399 -412c0 -236 172 -411 399 -411c119 0 224 48 299 124l44 -47c-77 -83 -185 -134 -308 -142l-99 -315h-73l102 315c-253 17 -435 216 -435 476c0 273 199 478 472 478z" />
    <glyph glyph-name="egrave" unicode="&#xe8;" horiz-adv-x="1123" 
d="M574 944c244 0 432 -197 437 -471c0 -11 -1 -21 -1 -31h-824c10 -236 177 -387 396 -387c148 0 252 60 338 150l42 -48c-121 -133 -252 -168 -384 -168c-270 0 -465 197 -465 477c0 277 202 478 461 478zM573 878c-210 0 -369 -157 -387 -372h751
c-13 216 -167 372 -364 372zM595 1069l-251 300h88l234 -300h-71z" />
    <glyph glyph-name="eacute" unicode="&#xe9;" horiz-adv-x="1123" 
d="M574 944c244 0 432 -197 437 -471c0 -11 -1 -21 -1 -31h-824c10 -236 177 -387 396 -387c148 0 252 60 338 150l42 -48c-121 -133 -252 -168 -384 -168c-270 0 -465 197 -465 477c0 277 202 478 461 478zM573 878c-210 0 -369 -157 -387 -372h751
c-13 216 -167 372 -364 372zM542 1069h-71l233 300h89z" />
    <glyph glyph-name="ecircumflex" unicode="&#xea;" horiz-adv-x="1123" 
d="M574 944c244 0 432 -197 437 -471c0 -11 -1 -21 -1 -31h-824c10 -236 177 -387 396 -387c148 0 252 60 338 150l42 -48c-121 -133 -252 -168 -384 -168c-270 0 -465 197 -465 477c0 277 202 478 461 478zM573 878c-210 0 -369 -157 -387 -372h751
c-13 216 -167 372 -364 372zM883 1083h-77l-232 224l-232 -224h-77l266 273h86z" />
    <glyph glyph-name="edieresis" unicode="&#xeb;" horiz-adv-x="1123" 
d="M574 944c244 0 432 -197 437 -471c0 -11 -1 -21 -1 -31h-824c10 -236 177 -387 396 -387c148 0 252 60 338 150l42 -48c-121 -133 -252 -168 -384 -168c-270 0 -465 197 -465 477c0 277 202 478 461 478zM573 878c-210 0 -369 -157 -387 -372h751
c-13 216 -167 372 -364 372zM367 1268c29 0 52 -22 52 -51s-23 -52 -52 -52s-51 23 -51 52s22 51 51 51zM781 1268c29 0 52 -22 52 -51s-23 -52 -52 -52s-51 23 -51 52s22 51 51 51z" />
    <glyph glyph-name="igrave" unicode="&#xec;" horiz-adv-x="450" 
d="M260 933v-933h-70v933h70zM246 1069l-251 300h88l234 -300h-71z" />
    <glyph glyph-name="iacute" unicode="&#xed;" horiz-adv-x="450" 
d="M260 933v-933h-70v933h70zM193 1069h-71l233 300h89z" />
    <glyph glyph-name="icircumflex" unicode="&#xee;" horiz-adv-x="450" 
d="M260 933v-933h-70v933h70zM534 1083h-77l-232 224l-232 -224h-77l266 273h86z" />
    <glyph glyph-name="idieresis" unicode="&#xef;" horiz-adv-x="450" 
d="M260 933v-933h-70v933h70zM18 1268c29 0 52 -22 52 -51s-23 -52 -52 -52s-51 23 -51 52s22 51 51 51zM432 1268c29 0 52 -22 52 -51s-23 -52 -52 -52s-51 23 -51 52s22 51 51 51z" />
    <glyph glyph-name="eth" unicode="&#xf0;" horiz-adv-x="1178" 
d="M894 1418l31 -51l-252 -143c208 -189 393 -459 393 -758c0 -271 -207 -477 -478 -477c-270 0 -475 206 -475 477c0 272 205 478 475 478c128 0 242 -47 325 -126c-67 134 -171 262 -300 372l-269 -153l-31 51l250 142c-78 61 -165 115 -257 160l31 57
c104 -49 200 -111 287 -181zM588 878c-230 0 -404 -174 -404 -412c0 -237 174 -411 404 -411c231 0 407 174 407 411c0 238 -176 412 -407 412z" />
    <glyph glyph-name="ntilde" unicode="&#xf1;" horiz-adv-x="1192" 
d="M608 944c251 0 406 -154 406 -397v-547h-69v547c0 197 -120 331 -343 331c-202 0 -342 -148 -342 -338v-540h-70v933h69v-179c66 113 188 190 349 190zM342 1155l-43 40c51 72 106 109 192 109c133 0 158 -94 267 -94c64 0 106 30 149 88l43 -40
c-51 -71 -106 -109 -192 -109c-133 0 -157 95 -267 95c-64 0 -106 -30 -149 -89z" />
    <glyph glyph-name="ograve" unicode="&#xf2;" horiz-adv-x="1178" 
d="M588 944c272 0 478 -205 478 -478c0 -272 -206 -477 -478 -477c-270 0 -475 205 -475 477c0 273 205 478 475 478zM588 878c-230 0 -404 -175 -404 -412c0 -236 174 -411 404 -411c231 0 407 175 407 411c0 237 -176 412 -407 412zM610 1069l-251 300h88l234 -300h-71z
" />
    <glyph glyph-name="oacute" unicode="&#xf3;" horiz-adv-x="1178" 
d="M588 944c272 0 478 -205 478 -478c0 -272 -206 -477 -478 -477c-270 0 -475 205 -475 477c0 273 205 478 475 478zM588 878c-230 0 -404 -175 -404 -412c0 -236 174 -411 404 -411c231 0 407 175 407 411c0 237 -176 412 -407 412zM557 1069h-71l233 300h89z" />
    <glyph glyph-name="ocircumflex" unicode="&#xf4;" horiz-adv-x="1178" 
d="M588 944c272 0 478 -205 478 -478c0 -272 -206 -477 -478 -477c-270 0 -475 205 -475 477c0 273 205 478 475 478zM588 878c-230 0 -404 -175 -404 -412c0 -236 174 -411 404 -411c231 0 407 175 407 411c0 237 -176 412 -407 412zM898 1083h-77l-232 224l-232 -224h-77
l266 273h86z" />
    <glyph glyph-name="otilde" unicode="&#xf5;" horiz-adv-x="1178" 
d="M588 944c272 0 478 -205 478 -478c0 -272 -206 -477 -478 -477c-270 0 -475 205 -475 477c0 273 205 478 475 478zM588 878c-230 0 -404 -175 -404 -412c0 -236 174 -411 404 -411c231 0 407 175 407 411c0 237 -176 412 -407 412zM321 1155l-43 40
c51 72 106 109 192 109c133 0 158 -94 267 -94c64 0 106 30 149 88l43 -40c-51 -71 -106 -109 -192 -109c-133 0 -157 95 -267 95c-64 0 -106 -30 -149 -89z" />
    <glyph glyph-name="odieresis" unicode="&#xf6;" horiz-adv-x="1178" 
d="M588 944c272 0 478 -205 478 -478c0 -272 -206 -477 -478 -477c-270 0 -475 205 -475 477c0 273 205 478 475 478zM588 878c-230 0 -404 -175 -404 -412c0 -236 174 -411 404 -411c231 0 407 175 407 411c0 237 -176 412 -407 412zM382 1268c29 0 52 -22 52 -51
s-23 -52 -52 -52s-51 23 -51 52s22 51 51 51zM796 1268c29 0 52 -22 52 -51s-23 -52 -52 -52s-51 23 -51 52s22 51 51 51z" />
    <glyph glyph-name="divide" unicode="&#xf7;" horiz-adv-x="1200" 
d="M1015 556v-64h-830v64h830zM600 874c27 0 51 -23 51 -51c0 -27 -24 -51 -51 -51s-51 24 -51 51c0 28 24 51 51 51zM600 275c27 0 51 -23 51 -50s-24 -51 -51 -51s-51 24 -51 51s24 50 51 50z" />
    <glyph glyph-name="oslash" unicode="&#xf8;" horiz-adv-x="1178" 
d="M588 944c125 0 236 -44 319 -117l123 123l44 -42l-124 -124c73 -83 116 -194 116 -318c0 -272 -206 -477 -478 -477c-124 0 -234 43 -317 116l-123 -123l-43 43l123 123c-72 83 -115 193 -115 318c0 273 205 478 475 478zM588 878c-230 0 -404 -175 -404 -412
c0 -105 34 -198 93 -269l582 582c-71 62 -166 99 -271 99zM995 466c0 105 -35 198 -94 269l-582 -582c71 -62 164 -98 269 -98c231 0 407 175 407 411z" />
    <glyph glyph-name="ugrave" unicode="&#xf9;" horiz-adv-x="1180" 
d="M1002 933v-552c0 -249 -177 -392 -412 -392s-411 143 -411 392v552h69v-546c0 -209 139 -332 342 -332c204 0 342 123 342 332v546h70zM611 1069l-251 300h88l234 -300h-71z" />
    <glyph glyph-name="uacute" unicode="&#xfa;" horiz-adv-x="1180" 
d="M1002 933v-552c0 -249 -177 -392 -412 -392s-411 143 -411 392v552h69v-546c0 -209 139 -332 342 -332c204 0 342 123 342 332v546h70zM558 1069h-71l233 300h89z" />
    <glyph glyph-name="ucircumflex" unicode="&#xfb;" horiz-adv-x="1180" 
d="M1002 933v-552c0 -249 -177 -392 -412 -392s-411 143 -411 392v552h69v-546c0 -209 139 -332 342 -332c204 0 342 123 342 332v546h70zM899 1083h-77l-232 224l-232 -224h-77l266 273h86z" />
    <glyph glyph-name="udieresis" unicode="&#xfc;" horiz-adv-x="1180" 
d="M1002 933v-552c0 -249 -177 -392 -412 -392s-411 143 -411 392v552h69v-546c0 -209 139 -332 342 -332c204 0 342 123 342 332v546h70zM383 1268c29 0 52 -22 52 -51s-23 -52 -52 -52s-51 23 -51 52s22 51 51 51zM797 1268c29 0 52 -22 52 -51s-23 -52 -52 -52
s-51 23 -51 52s22 51 51 51z" />
    <glyph glyph-name="yacute" unicode="&#xfd;" horiz-adv-x="996" 
d="M977 933l-790 -1335h-78l369 618l-451 717h79l411 -648l383 648h77zM471 1069h-71l233 300h89z" />
    <glyph glyph-name="thorn" unicode="&#xfe;" horiz-adv-x="1243" 
d="M657 944c268 0 474 -204 474 -478s-206 -477 -474 -477c-178 0 -320 92 -397 228v-617h-70v1840h70v-725c77 137 219 229 397 229zM657 878c-230 0 -402 -177 -402 -412c0 -234 172 -411 402 -411c232 0 402 179 402 411c0 233 -171 412 -402 412z" />
    <glyph glyph-name="ydieresis" unicode="&#xff;" horiz-adv-x="996" 
d="M977 933l-790 -1335h-78l369 618l-451 717h79l411 -648l383 648h77zM296 1268c29 0 52 -22 52 -51s-23 -52 -52 -52s-51 23 -51 52s22 51 51 51zM710 1268c29 0 52 -22 52 -51s-23 -52 -52 -52s-51 23 -51 52s22 51 51 51z" />
    <glyph glyph-name="Amacron" unicode="&#x100;" horiz-adv-x="1386" 
d="M738 1400l604 -1400h-80l-186 433h-768l-186 -433h-78l604 1400h90zM692 1324l-354 -820h707zM409 1603v58h569v-58h-569z" />
    <glyph glyph-name="amacron" unicode="&#x101;" horiz-adv-x="1243" 
d="M1053 933v-933h-69v218c-77 -137 -220 -229 -398 -229c-268 0 -473 203 -473 477s205 478 473 478c178 0 321 -92 398 -230v219h69zM586 878c-233 0 -402 -179 -402 -412c0 -232 170 -411 402 -411c231 0 402 177 402 411c0 235 -171 412 -402 412zM316 1187v58h569v-58
h-569z" />
    <glyph glyph-name="Abreve" unicode="&#x102;" horiz-adv-x="1386" 
d="M738 1400l604 -1400h-80l-186 433h-768l-186 -433h-78l604 1400h90zM692 1324l-354 -820h707zM388 1759l57 17c36 -141 125 -214 248 -214s212 73 248 214l57 -17c-42 -167 -154 -257 -305 -257s-263 90 -305 257z" />
    <glyph glyph-name="abreve" unicode="&#x103;" horiz-adv-x="1243" 
d="M1053 933v-933h-69v218c-77 -137 -220 -229 -398 -229c-268 0 -473 203 -473 477s205 478 473 478c178 0 321 -92 398 -230v219h69zM586 878c-233 0 -402 -179 -402 -412c0 -232 170 -411 402 -411c231 0 402 177 402 411c0 235 -171 412 -402 412zM295 1343l57 17
c36 -141 125 -214 248 -214s212 73 248 214l57 -17c-42 -167 -154 -257 -305 -257s-263 90 -305 257z" />
    <glyph glyph-name="Aogonek" unicode="&#x104;" horiz-adv-x="1386" 
d="M1316 -282l38 -44c-48 -56 -108 -83 -174 -83c-106 0 -183 63 -183 162c0 116 99 203 255 270l-176 410h-768l-186 -433h-78l604 1404h90l604 -1404c-188 -72 -279 -146 -279 -240c0 -67 50 -109 123 -109c50 0 94 24 130 67zM692 1328l-354 -824h707z" />
    <glyph glyph-name="aogonek" unicode="&#x105;" horiz-adv-x="1243" 
d="M1046 -282l38 -44c-48 -56 -108 -83 -174 -83c-106 0 -183 63 -183 162c0 117 99 202 257 277v188c-77 -137 -220 -229 -398 -229c-268 0 -473 203 -473 477s205 478 473 478c178 0 321 -92 398 -230v219h69v-933c-169 -76 -260 -146 -260 -240c0 -67 50 -109 123 -109
c50 0 94 24 130 67zM586 878c-233 0 -402 -179 -402 -412c0 -232 170 -411 402 -411c231 0 402 177 402 411c0 235 -171 412 -402 412z" />
    <glyph glyph-name="Cacute" unicode="&#x106;" horiz-adv-x="1526" 
d="M841 1411c236 0 449 -109 559 -285l-62 -42c-101 158 -288 256 -497 256c-352 0 -632 -257 -632 -640s280 -640 632 -640c209 0 395 97 497 255l61 -44c-114 -174 -323 -282 -558 -282c-399 0 -710 289 -710 711s311 711 710 711zM788 1485h-71l233 300h89z" />
    <glyph glyph-name="cacute" unicode="&#x107;" horiz-adv-x="1021" 
d="M585 944c137 0 258 -53 341 -143l-45 -47c-77 77 -179 124 -298 124c-227 0 -399 -175 -399 -412c0 -236 172 -411 399 -411c119 0 224 48 299 124l44 -47c-84 -90 -204 -143 -341 -143c-273 0 -472 205 -472 477c0 273 199 478 472 478zM549 1069h-71l233 300h89z" />
    <glyph glyph-name="Ccircumflex" unicode="&#x108;" horiz-adv-x="1526" 
d="M841 1411c236 0 449 -109 559 -285l-62 -42c-101 158 -288 256 -497 256c-352 0 -632 -257 -632 -640s280 -640 632 -640c209 0 395 97 497 255l61 -44c-114 -174 -323 -282 -558 -282c-399 0 -710 289 -710 711s311 711 710 711zM1145 1499h-77l-232 224l-232 -224h-77
l266 273h86z" />
    <glyph glyph-name="ccircumflex" unicode="&#x109;" horiz-adv-x="1021" 
d="M585 944c137 0 258 -53 341 -143l-45 -47c-77 77 -179 124 -298 124c-227 0 -399 -175 -399 -412c0 -236 172 -411 399 -411c119 0 224 48 299 124l44 -47c-84 -90 -204 -143 -341 -143c-273 0 -472 205 -472 477c0 273 199 478 472 478zM890 1083h-77l-232 224
l-232 -224h-77l266 273h86z" />
    <glyph glyph-name="Cdotaccent" unicode="&#x10a;" horiz-adv-x="1526" 
d="M841 1411c236 0 449 -109 559 -285l-62 -42c-101 158 -288 256 -497 256c-352 0 -632 -257 -632 -640s280 -640 632 -640c209 0 395 97 497 255l61 -44c-114 -174 -323 -282 -558 -282c-399 0 -710 289 -710 711s311 711 710 711zM830 1687c30 0 53 -24 53 -53
s-23 -52 -53 -52c-29 0 -52 23 -52 52s23 53 52 53z" />
    <glyph glyph-name="cdotaccent" unicode="&#x10b;" horiz-adv-x="1021" 
d="M585 944c137 0 258 -53 341 -143l-45 -47c-77 77 -179 124 -298 124c-227 0 -399 -175 -399 -412c0 -236 172 -411 399 -411c119 0 224 48 299 124l44 -47c-84 -90 -204 -143 -341 -143c-273 0 -472 205 -472 477c0 273 199 478 472 478zM581 1327c29 0 52 -23 52 -52
s-23 -51 -52 -51s-51 22 -51 51s22 52 51 52z" />
    <glyph glyph-name="Ccaron" unicode="&#x10c;" horiz-adv-x="1526" 
d="M841 1411c236 0 449 -109 559 -285l-62 -42c-101 158 -288 256 -497 256c-352 0 -632 -257 -632 -640s280 -640 632 -640c209 0 395 97 497 255l61 -44c-114 -174 -323 -282 -558 -282c-399 0 -710 289 -710 711s311 711 710 711zM527 1768h77l232 -223l232 223h77
l-266 -273h-86z" />
    <glyph glyph-name="ccaron" unicode="&#x10d;" horiz-adv-x="1021" 
d="M585 944c137 0 258 -53 341 -143l-45 -47c-77 77 -179 124 -298 124c-227 0 -399 -175 -399 -412c0 -236 172 -411 399 -411c119 0 224 48 299 124l44 -47c-84 -90 -204 -143 -341 -143c-273 0 -472 205 -472 477c0 273 199 478 472 478zM272 1352h77l232 -223l232 223
h77l-266 -273h-86z" />
    <glyph glyph-name="Dcaron" unicode="&#x10e;" horiz-adv-x="1609" 
d="M218 1400h489c481 0 772 -266 772 -700s-291 -700 -772 -700h-489v1400zM707 1329h-415v-1258h415c445 0 695 241 695 629c0 389 -250 629 -695 629zM425 1768h77l232 -223l232 223h77l-266 -273h-86z" />
    <glyph glyph-name="dcaron" unicode="&#x10f;" horiz-adv-x="1265" 
d="M586 944c178 0 321 -92 398 -230v726h69v-1440h-69v218c-77 -137 -220 -229 -398 -229c-268 0 -473 203 -473 477s205 478 473 478zM586 878c-233 0 -402 -179 -402 -412c0 -232 170 -411 402 -411c231 0 402 177 402 411c0 235 -171 412 -402 412zM1244 1051h-60l16 389
h71z" />
    <glyph glyph-name="Dcroat" unicode="&#x110;" horiz-adv-x="1810" 
d="M419 1400h489c481 0 772 -266 772 -700s-291 -700 -772 -700h-489v670h-288v70h288v660zM935 740v-70h-442v-599h415c445 0 695 241 695 629c0 389 -250 629 -695 629h-415v-589h442z" />
    <glyph glyph-name="dcroat" unicode="&#x111;" horiz-adv-x="1243" 
d="M1233 1202v-64h-180v-1138h-69v218c-77 -137 -220 -229 -398 -229c-268 0 -473 203 -473 477s205 478 473 478c178 0 321 -92 398 -230v424h-453v64h453v238h69v-238h180zM586 878c-233 0 -402 -179 -402 -412c0 -232 170 -411 402 -411c231 0 402 177 402 411
c0 235 -171 412 -402 412z" />
    <glyph glyph-name="Emacron" unicode="&#x112;" horiz-adv-x="1330" 
d="M1155 70v-70h-937v1400h933v-70h-859v-590h837v-70h-837v-600h863zM393 1603v58h569v-58h-569z" />
    <glyph glyph-name="emacron" unicode="&#x113;" horiz-adv-x="1123" 
d="M574 944c244 0 432 -197 437 -471c0 -11 -1 -21 -1 -31h-824c10 -236 177 -387 396 -387c148 0 252 60 338 150l42 -48c-121 -133 -252 -168 -384 -168c-270 0 -465 197 -465 477c0 277 202 478 461 478zM573 878c-210 0 -369 -157 -387 -372h751
c-13 216 -167 372 -364 372zM290 1187v58h569v-58h-569z" />
    <glyph glyph-name="Ebreve" unicode="&#x114;" horiz-adv-x="1330" 
d="M1155 70v-70h-937v1400h933v-70h-859v-590h837v-70h-837v-600h863zM372 1759l57 17c36 -141 125 -214 248 -214s212 73 248 214l57 -17c-42 -167 -154 -257 -305 -257s-263 90 -305 257z" />
    <glyph glyph-name="ebreve" unicode="&#x115;" horiz-adv-x="1123" 
d="M574 944c244 0 432 -197 437 -471c0 -11 -1 -21 -1 -31h-824c10 -236 177 -387 396 -387c148 0 252 60 338 150l42 -48c-121 -133 -252 -168 -384 -168c-270 0 -465 197 -465 477c0 277 202 478 461 478zM573 878c-210 0 -369 -157 -387 -372h751
c-13 216 -167 372 -364 372zM269 1343l57 17c36 -141 125 -214 248 -214s212 73 248 214l57 -17c-42 -167 -154 -257 -305 -257s-263 90 -305 257z" />
    <glyph glyph-name="Edotaccent" unicode="&#x116;" horiz-adv-x="1330" 
d="M1155 70v-70h-937v1400h933v-70h-859v-590h837v-70h-837v-600h863zM671 1687c30 0 53 -24 53 -53s-23 -52 -53 -52c-29 0 -52 23 -52 52s23 53 52 53z" />
    <glyph glyph-name="edotaccent" unicode="&#x117;" horiz-adv-x="1123" 
d="M574 944c244 0 432 -197 437 -471c0 -11 -1 -21 -1 -31h-824c10 -236 177 -387 396 -387c148 0 252 60 338 150l42 -48c-121 -133 -252 -168 -384 -168c-270 0 -465 197 -465 477c0 277 202 478 461 478zM573 878c-210 0 -369 -157 -387 -372h751
c-13 216 -167 372 -364 372zM574 1327c29 0 52 -23 52 -52s-23 -51 -52 -51s-51 22 -51 51s22 52 51 52z" />
    <glyph glyph-name="Eogonek" unicode="&#x118;" horiz-adv-x="1330" 
d="M1155 70v-70h-184c-105 -61 -168 -122 -168 -212c0 -81 65 -137 158 -137c63 0 121 25 166 71l39 -45c-56 -56 -129 -86 -209 -86c-131 0 -222 80 -222 192c0 94 50 160 133 217h-650v1400h933v-70h-859v-590h837v-70h-837v-600h863z" />
    <glyph glyph-name="eogonek" unicode="&#x119;" horiz-adv-x="1123" 
d="M901 -278l39 -45c-56 -56 -129 -86 -209 -86c-131 0 -222 80 -222 192c0 89 49 153 124 208c-18 -1 -37 -2 -55 -2c-270 0 -465 197 -465 477c0 277 202 478 461 478c244 0 432 -197 437 -471c0 -11 0 -19 -1 -31h-824c10 -236 177 -387 396 -387c148 0 252 60 338 150
l42 -48c-50 -55 -98 -90 -154 -119c-129 -67 -231 -141 -231 -250c0 -81 65 -137 158 -137c63 0 121 25 166 71zM573 878c-210 0 -369 -157 -387 -372h751c-13 216 -167 372 -364 372z" />
    <glyph glyph-name="Ecaron" unicode="&#x11a;" horiz-adv-x="1330" 
d="M1155 70v-70h-937v1400h933v-70h-859v-590h837v-70h-837v-600h863zM368 1768h77l232 -223l232 223h77l-266 -273h-86z" />
    <glyph glyph-name="ecaron" unicode="&#x11b;" horiz-adv-x="1123" 
d="M574 944c244 0 432 -197 437 -471c0 -11 -1 -21 -1 -31h-824c10 -236 177 -387 396 -387c148 0 252 60 338 150l42 -48c-121 -133 -252 -168 -384 -168c-270 0 -465 197 -465 477c0 277 202 478 461 478zM573 878c-210 0 -369 -157 -387 -372h751
c-13 216 -167 372 -364 372zM265 1352h77l232 -223l232 223h77l-266 -273h-86z" />
    <glyph glyph-name="Gcircumflex" unicode="&#x11c;" horiz-adv-x="1635" 
d="M841 1411c219 0 414 -93 542 -245l-55 -52c-115 140 -291 226 -487 226c-352 0 -632 -257 -632 -640s280 -640 629 -640s576 235 587 596h-522v70h602v-23c0 -416 -261 -714 -667 -714c-379 0 -707 276 -707 711c0 422 312 711 710 711zM1133 1499h-77l-232 224
l-232 -224h-77l266 273h86z" />
    <glyph glyph-name="gcircumflex" unicode="&#x11d;" horiz-adv-x="1238" 
d="M585 944c175 0 316 -89 394 -222v211h69v-870c0 -319 -226 -472 -483 -472c-161 0 -305 57 -395 147l35 53c85 -82 212 -136 360 -136c217 0 414 127 414 405v150c-78 -132 -219 -221 -394 -221c-267 0 -472 203 -472 477s205 478 472 478zM585 878
c-233 0 -401 -179 -401 -412c0 -232 170 -411 401 -411s403 177 403 411c0 235 -172 412 -403 412zM905 1083h-77l-232 224l-232 -224h-77l266 273h86z" />
    <glyph glyph-name="Gbreve" unicode="&#x11e;" horiz-adv-x="1635" 
d="M841 1411c219 0 414 -93 542 -245l-55 -52c-115 140 -291 226 -487 226c-352 0 -632 -257 -632 -640s280 -640 629 -640s576 235 587 596h-522v70h602v-23c0 -416 -261 -714 -667 -714c-379 0 -707 276 -707 711c0 422 312 711 710 711zM519 1759l57 17
c36 -141 125 -214 248 -214s212 73 248 214l57 -17c-42 -167 -154 -257 -305 -257s-263 90 -305 257z" />
    <glyph glyph-name="gbreve" unicode="&#x11f;" horiz-adv-x="1238" 
d="M585 944c175 0 316 -89 394 -222v211h69v-870c0 -319 -226 -472 -483 -472c-161 0 -305 57 -395 147l35 53c85 -82 212 -136 360 -136c217 0 414 127 414 405v150c-78 -132 -219 -221 -394 -221c-267 0 -472 203 -472 477s205 478 472 478zM585 878
c-233 0 -401 -179 -401 -412c0 -232 170 -411 401 -411s403 177 403 411c0 235 -172 412 -403 412zM291 1343l57 17c36 -141 125 -214 248 -214s212 73 248 214l57 -17c-42 -167 -154 -257 -305 -257s-263 90 -305 257z" />
    <glyph glyph-name="Gdotaccent" unicode="&#x120;" horiz-adv-x="1635" 
d="M841 1411c219 0 414 -93 542 -245l-55 -52c-115 140 -291 226 -487 226c-352 0 -632 -257 -632 -640s280 -640 629 -640s576 235 587 596h-522v70h602v-23c0 -416 -261 -714 -667 -714c-379 0 -707 276 -707 711c0 422 312 711 710 711zM818 1687c30 0 53 -24 53 -53
s-23 -52 -53 -52c-29 0 -52 23 -52 52s23 53 52 53z" />
    <glyph glyph-name="gdotaccent" unicode="&#x121;" horiz-adv-x="1238" 
d="M585 944c175 0 316 -89 394 -222v211h69v-870c0 -319 -226 -472 -483 -472c-161 0 -305 57 -395 147l35 53c85 -82 212 -136 360 -136c217 0 414 127 414 405v150c-78 -132 -219 -221 -394 -221c-267 0 -472 203 -472 477s205 478 472 478zM585 878
c-233 0 -401 -179 -401 -412c0 -232 170 -411 401 -411s403 177 403 411c0 235 -172 412 -403 412zM596 1327c29 0 52 -23 52 -52s-23 -51 -52 -51s-51 22 -51 51s22 52 51 52z" />
    <glyph glyph-name="Gcommaaccent" unicode="&#x122;" horiz-adv-x="1635" 
d="M841 1411c219 0 414 -93 542 -245l-55 -52c-115 140 -291 226 -487 226c-352 0 -632 -257 -632 -640s280 -640 629 -640s576 235 587 596h-522v70h602v-23c0 -416 -261 -714 -667 -714c-379 0 -707 276 -707 711c0 422 312 711 710 711zM805 -89h75l-61 -327h-62z" />
    <glyph glyph-name="gcommaaccent" unicode="&#x123;" horiz-adv-x="1238" 
d="M585 944c175 0 316 -89 394 -222v211h69v-870c0 -319 -226 -472 -483 -472c-161 0 -305 57 -395 147l35 53c85 -82 212 -136 360 -136c217 0 414 127 414 405v150c-78 -132 -219 -221 -394 -221c-267 0 -472 203 -472 477s205 478 472 478zM585 878
c-233 0 -401 -179 -401 -412c0 -232 170 -411 401 -411s403 177 403 411c0 235 -172 412 -403 412zM625 1069h-76l61 328h62z" />
    <glyph glyph-name="Hcircumflex" unicode="&#x124;" horiz-adv-x="1554" 
d="M292 1400v-660h968v660h75v-1400h-75v670h-968v-670h-74v1400h74zM1085 1499h-77l-232 224l-232 -224h-77l266 273h86z" />
    <glyph glyph-name="hcircumflex" unicode="&#x125;" horiz-adv-x="1192" 
d="M260 1440v-685c67 112 188 189 348 189c251 0 406 -154 406 -397v-547h-69v547c0 197 -120 331 -343 331c-202 0 -342 -148 -342 -338v-540h-70v1440h70zM912 1550h-77l-232 224l-232 -224h-77l266 273h86z" />
    <glyph glyph-name="Hbar" unicode="&#x126;" horiz-adv-x="1624" 
d="M1558 1101v-64h-189v-1037h-75v670h-968v-670h-74v1037h-187v64h187v299h74v-299h968v299h75v-299h189zM326 740h968v297h-968v-297z" />
    <glyph glyph-name="hbar" unicode="&#x127;" horiz-adv-x="1192" 
d="M702 1202v-64h-442v-383c67 112 188 189 348 189c251 0 406 -154 406 -397v-547h-69v547c0 197 -120 331 -343 331c-202 0 -342 -148 -342 -338v-540h-70v1138h-190v64h190v238h70v-238h442z" />
    <glyph glyph-name="Itilde" unicode="&#x128;" horiz-adv-x="511" 
d="M292 1400v-1400h-74v1400h74zM-28 1571l-43 40c51 72 106 109 192 109c133 0 158 -94 267 -94c64 0 106 30 149 88l43 -40c-51 -71 -106 -109 -192 -109c-133 0 -157 95 -267 95c-64 0 -106 -30 -149 -89z" />
    <glyph glyph-name="itilde" unicode="&#x129;" horiz-adv-x="450" 
d="M260 933v-933h-70v933h70zM-43 1155l-43 40c51 72 106 109 192 109c133 0 158 -94 267 -94c64 0 106 30 149 88l43 -40c-51 -71 -106 -109 -192 -109c-133 0 -157 95 -267 95c-64 0 -106 -30 -149 -89z" />
    <glyph glyph-name="Imacron" unicode="&#x12a;" horiz-adv-x="511" 
d="M292 1400v-1400h-74v1400h74zM-29 1603v58h569v-58h-569z" />
    <glyph glyph-name="imacron" unicode="&#x12b;" horiz-adv-x="450" 
d="M260 933v-933h-70v933h70zM-59 1187v58h569v-58h-569z" />
    <glyph glyph-name="Ibreve" unicode="&#x12c;" horiz-adv-x="511" 
d="M292 1400v-1400h-74v1400h74zM-50 1759l57 17c36 -141 125 -214 248 -214s212 73 248 214l57 -17c-42 -167 -154 -257 -305 -257s-263 90 -305 257z" />
    <glyph glyph-name="ibreve" unicode="&#x12d;" horiz-adv-x="450" 
d="M260 933v-933h-70v933h70zM-80 1343l57 17c36 -141 125 -214 248 -214s212 73 248 214l57 -17c-42 -167 -154 -257 -305 -257s-263 90 -305 257z" />
    <glyph glyph-name="Iogonek" unicode="&#x12e;" horiz-adv-x="511" 
d="M387 -282l39 -44c-49 -56 -108 -83 -174 -83c-106 0 -184 65 -184 168c0 87 62 167 150 246v1395h74v-1400c-91 -82 -158 -164 -158 -237c0 -69 51 -112 123 -112c51 0 94 24 130 67z" />
    <glyph glyph-name="iogonek" unicode="&#x12f;" horiz-adv-x="450" 
d="M260 933v-933h-1c-91 -82 -158 -164 -158 -237c0 -69 51 -112 123 -112c51 0 94 24 130 67l39 -44c-49 -56 -108 -83 -174 -83c-106 0 -184 65 -184 168c0 89 65 170 155 250v924h70zM225 1327c29 0 52 -23 52 -52s-23 -51 -52 -51s-51 22 -51 51s22 52 51 52z" />
    <glyph glyph-name="Idotaccent" unicode="&#x130;" horiz-adv-x="511" 
d="M292 1400v-1400h-74v1400h74zM249 1687c30 0 53 -24 53 -53s-23 -52 -53 -52c-29 0 -52 23 -52 52s23 53 52 53z" />
    <glyph glyph-name="dotlessi" unicode="&#x131;" horiz-adv-x="450" 
d="M260 933v-933h-70v933h70z" />
    <glyph glyph-name="IJ" unicode="&#x132;" horiz-adv-x="1663" 
d="M292 1400v-1400h-74v1400h74zM1455 1400v-895c0 -332 -209 -516 -484 -516c-195 0 -328 87 -408 173l49 52c75 -81 195 -153 359 -153c237 0 409 157 409 450v889h75z" />
    <glyph glyph-name="ij" unicode="&#x133;" horiz-adv-x="901" 
d="M711 933v-1139c0 -131 -61 -203 -176 -203c-48 0 -94 16 -124 34l19 60c25 -16 61 -28 99 -28c76 0 113 46 113 140v1136h69zM676 1327c29 0 52 -23 52 -52s-23 -51 -52 -51s-51 22 -51 51s22 52 51 52zM260 933v-933h-70v933h70zM225 1327c29 0 52 -23 52 -52
s-23 -51 -52 -51s-51 22 -51 51s22 52 51 52z" />
    <glyph glyph-name="Jcircumflex" unicode="&#x134;" horiz-adv-x="1152" 
d="M944 1400v-895c0 -332 -209 -516 -484 -516c-195 0 -328 87 -408 173l49 52c75 -81 195 -153 359 -153c237 0 409 157 409 450v889h75zM1216 1499h-77l-232 224l-232 -224h-77l266 273h86z" />
    <glyph glyph-name="jcircumflex" unicode="&#x135;" horiz-adv-x="451" 
d="M261 933v-1139c0 -131 -61 -203 -176 -203c-48 0 -94 16 -124 34l19 60c25 -16 61 -28 99 -28c76 0 113 46 113 140v1136h69zM535 1083h-77l-232 224l-232 -224h-77l266 273h86z" />
    <glyph glyph-name="Kcommaaccent" unicode="&#x136;" horiz-adv-x="1340" 
d="M1194 0l-696 669h-206v-669h-74v1400h74v-661h207l658 661h97l-696 -692l738 -708h-102zM654 -89h75l-61 -327h-62z" />
    <glyph glyph-name="kcommaaccent" unicode="&#x137;" horiz-adv-x="1023" 
d="M260 1440v-918h173l435 411h89l-470 -441l480 -492h-89l-446 458h-172v-458h-70v1440h70zM529 -89h75l-61 -327h-62z" />
    <glyph glyph-name="kgreenlandic" unicode="&#x138;" horiz-adv-x="1001" 
d="M260 933v-411h165l422 411h89l-457 -441l466 -492h-88l-433 458h-164v-458h-70v933h70z" />
    <glyph glyph-name="Lacute" unicode="&#x139;" horiz-adv-x="1193" 
d="M1149 71v-71h-931v1400h74v-1329h857zM207 1485h-71l233 300h89z" />
    <glyph glyph-name="lacute" unicode="&#x13a;" horiz-adv-x="450" 
d="M260 1440v-1440h-70v1440h70zM137 1547h-71l233 300h89z" />
    <glyph glyph-name="Lcommaaccent" unicode="&#x13b;" horiz-adv-x="1193" 
d="M1149 71v-71h-931v1400h74v-1329h857zM654 -89h75l-61 -327h-62z" />
    <glyph glyph-name="lcommaaccent" unicode="&#x13c;" horiz-adv-x="450" 
d="M260 1440v-1440h-70v1440h70zM208 -89h75l-61 -327h-62z" />
    <glyph glyph-name="Lcaron" unicode="&#x13d;" horiz-adv-x="1193" 
d="M1149 71v-71h-931v1400h74v-1329h857zM647 1011h-60l16 389h71z" />
    <glyph glyph-name="lcaron" unicode="&#x13e;" horiz-adv-x="468" 
d="M260 1440v-1440h-70v1440h70zM440 1051h-60l16 389h71z" />
    <glyph glyph-name="Ldot" unicode="&#x13f;" horiz-adv-x="1193" 
d="M1149 71v-71h-931v1400h74v-1329h857zM832 758c30 0 53 -24 53 -53s-23 -52 -53 -52c-29 0 -52 23 -52 52s23 53 52 53z" />
    <glyph glyph-name="ldot" unicode="&#x140;" horiz-adv-x="511" 
d="M260 1440v-1440h-70v1440h70zM476 782c29 0 52 -23 52 -52s-23 -51 -52 -51s-51 22 -51 51s22 52 51 52z" />
    <glyph glyph-name="Lslash" unicode="&#x141;" horiz-adv-x="1352" 
d="M1308 71v-71h-931v563l-246 -139v81l246 139v756h74v-714l561 319v-81l-561 -319v-534h857z" />
    <glyph glyph-name="lslash" unicode="&#x142;" horiz-adv-x="641" 
d="M356 1440v-620l228 173v-74l-228 -173v-746h-70v693l-229 -174v74l229 174v673h70z" />
    <glyph glyph-name="Nacute" unicode="&#x143;" horiz-adv-x="1558" 
d="M1339 1400v-1400h-67l-979 1271l-1 -1271h-74v1400h67l979 -1271v1271h75zM730 1485h-71l233 300h89z" />
    <glyph glyph-name="nacute" unicode="&#x144;" horiz-adv-x="1192" 
d="M608 944c251 0 406 -154 406 -397v-547h-69v547c0 197 -120 331 -343 331c-202 0 -342 -148 -342 -338v-540h-70v933h69v-179c66 113 188 190 349 190zM578 1069h-71l233 300h89z" />
    <glyph glyph-name="Ncommaaccent" unicode="&#x145;" horiz-adv-x="1558" 
d="M1339 1400v-1400h-67l-979 1271l-1 -1271h-74v1400h67l979 -1271v1271h75zM762 -89h75l-61 -327h-62z" />
    <glyph glyph-name="ncommaaccent" unicode="&#x146;" horiz-adv-x="1192" 
d="M608 944c251 0 406 -154 406 -397v-547h-69v547c0 197 -120 331 -343 331c-202 0 -342 -148 -342 -338v-540h-70v933h69v-179c66 113 188 190 349 190zM582 -89h75l-61 -327h-62z" />
    <glyph glyph-name="Ncaron" unicode="&#x147;" horiz-adv-x="1558" 
d="M1339 1400v-1400h-67l-979 1271l-1 -1271h-74v1400h67l979 -1271v1271h75zM469 1768h77l232 -223l232 223h77l-266 -273h-86z" />
    <glyph glyph-name="ncaron" unicode="&#x148;" horiz-adv-x="1192" 
d="M608 944c251 0 406 -154 406 -397v-547h-69v547c0 197 -120 331 -343 331c-202 0 -342 -148 -342 -338v-540h-70v933h69v-179c66 113 188 190 349 190zM301 1352h77l232 -223l232 223h77l-266 -273h-86z" />
    <glyph glyph-name="napostrophe" unicode="&#x149;" horiz-adv-x="1476" 
d="M229 1440h80l-85 -456h-61zM892 944c251 0 406 -154 406 -397v-547h-69v547c0 197 -120 331 -343 331c-202 0 -342 -148 -342 -338v-540h-70v933h69v-179c66 113 188 190 349 190z" />
    <glyph glyph-name="Eng" unicode="&#x14a;" horiz-adv-x="1558" 
d="M1339 1400v-1442c0 -205 -87 -367 -317 -367c-101 0 -188 29 -249 66l28 65c53 -33 131 -59 213 -59c183 0 250 126 250 298v49l-971 1261l-1 -1271h-74v1400h67l979 -1271v1271h75z" />
    <glyph glyph-name="eng" unicode="&#x14b;" horiz-adv-x="1192" 
d="M608 944c251 0 406 -154 406 -397v-662c0 -131 -60 -203 -176 -203c-48 0 -94 16 -124 34l19 60c25 -16 59 -28 99 -28c76 0 113 46 113 140v659c0 197 -120 331 -343 331c-202 0 -342 -148 -342 -338v-540h-70v933h69v-179c66 113 188 190 349 190z" />
    <glyph glyph-name="Omacron" unicode="&#x14c;" horiz-adv-x="1681" 
d="M841 1411c399 0 710 -289 710 -711s-311 -711 -710 -711s-710 289 -710 711s311 711 710 711zM841 1340c-353 0 -632 -257 -632 -640s279 -640 632 -640c352 0 632 257 632 640s-280 640 -632 640zM557 1603v58h569v-58h-569z" />
    <glyph glyph-name="omacron" unicode="&#x14d;" horiz-adv-x="1178" 
d="M588 944c272 0 478 -205 478 -478c0 -272 -206 -477 -478 -477c-270 0 -475 205 -475 477c0 273 205 478 475 478zM588 878c-230 0 -404 -175 -404 -412c0 -236 174 -411 404 -411c231 0 407 175 407 411c0 237 -176 412 -407 412zM305 1187v58h569v-58h-569z" />
    <glyph glyph-name="Obreve" unicode="&#x14e;" horiz-adv-x="1681" 
d="M841 1411c399 0 710 -289 710 -711s-311 -711 -710 -711s-710 289 -710 711s311 711 710 711zM841 1340c-353 0 -632 -257 -632 -640s279 -640 632 -640c352 0 632 257 632 640s-280 640 -632 640zM536 1759l57 17c36 -141 125 -214 248 -214s212 73 248 214l57 -17
c-42 -167 -154 -257 -305 -257s-263 90 -305 257z" />
    <glyph glyph-name="obreve" unicode="&#x14f;" horiz-adv-x="1178" 
d="M588 944c272 0 478 -205 478 -478c0 -272 -206 -477 -478 -477c-270 0 -475 205 -475 477c0 273 205 478 475 478zM588 878c-230 0 -404 -175 -404 -412c0 -236 174 -411 404 -411c231 0 407 175 407 411c0 237 -176 412 -407 412zM284 1343l57 17
c36 -141 125 -214 248 -214s212 73 248 214l57 -17c-42 -167 -154 -257 -305 -257s-263 90 -305 257z" />
    <glyph glyph-name="Ohungarumlaut" unicode="&#x150;" horiz-adv-x="1681" 
d="M841 1411c399 0 710 -289 710 -711s-311 -711 -710 -711s-710 289 -710 711s311 711 710 711zM841 1340c-353 0 -632 -257 -632 -640s279 -640 632 -640c352 0 632 257 632 640s-280 640 -632 640zM1015 1485h-72l236 300h82zM674 1485h-72l229 300h80z" />
    <glyph glyph-name="ohungarumlaut" unicode="&#x151;" horiz-adv-x="1178" 
d="M588 944c272 0 478 -205 478 -478c0 -272 -206 -477 -478 -477c-270 0 -475 205 -475 477c0 273 205 478 475 478zM588 878c-230 0 -404 -175 -404 -412c0 -236 174 -411 404 -411c231 0 407 175 407 411c0 237 -176 412 -407 412zM775 1069h-72l236 300h82zM434 1069
h-72l229 300h80z" />
    <glyph glyph-name="OE" unicode="&#x152;" horiz-adv-x="2262" 
d="M2087 70v-70h-1184c-481 0 -772 265 -772 700s291 700 772 700h1180v-70h-859v-590h837v-70h-837v-600h863zM209 700c0 -389 250 -629 694 -629h247v1258h-247c-444 0 -694 -241 -694 -629z" />
    <glyph glyph-name="oe" unicode="&#x153;" horiz-adv-x="2002" 
d="M1456 944c242 0 430 -197 434 -471c0 -11 0 -21 -1 -31h-823c10 -236 175 -387 393 -387c148 0 257 62 340 150l42 -48c-120 -133 -253 -168 -386 -168c-202 0 -359 110 -426 284c-70 -171 -235 -284 -441 -284c-270 0 -475 205 -475 477c0 273 205 478 475 478
c207 0 372 -115 442 -288c68 174 230 288 426 288zM588 878c-229 0 -404 -175 -404 -412c0 -236 175 -411 404 -411c230 0 407 175 407 411c0 237 -177 412 -407 412zM1452 878c-210 0 -368 -157 -386 -372h750c-12 215 -167 372 -364 372z" />
    <glyph glyph-name="Racute" unicode="&#x154;" horiz-adv-x="1327" 
d="M218 1400h514c304 0 478 -139 478 -382c0 -239 -180 -383 -477 -383h-94l563 -635h-93l-558 635h-259v-635h-74v1400zM734 1330h-442v-627h442c255 0 399 114 399 315c0 200 -145 312 -399 312zM609 1485h-71l233 300h89z" />
    <glyph glyph-name="racute" unicode="&#x155;" horiz-adv-x="793" 
d="M556 944c65 0 130 -13 180 -40l-19 -64c-46 26 -107 39 -167 39c-180 0 -291 -153 -291 -343v-536h-69v933h69v-164c58 104 158 175 297 175zM424 1069h-71l233 300h89z" />
    <glyph glyph-name="Rcommaaccent" unicode="&#x156;" horiz-adv-x="1327" 
d="M218 1400h514c304 0 478 -139 478 -382c0 -239 -180 -383 -477 -383h-94l563 -635h-93l-558 635h-259v-635h-74v1400zM734 1330h-442v-627h442c255 0 399 114 399 315c0 200 -145 312 -399 312zM638 -89h75l-61 -327h-62z" />
    <glyph glyph-name="rcommaaccent" unicode="&#x157;" horiz-adv-x="793" 
d="M556 944c65 0 130 -13 180 -40l-19 -64c-46 26 -107 39 -167 39c-180 0 -291 -153 -291 -343v-536h-69v933h69v-164c58 104 158 175 297 175zM208 -89h75l-61 -327h-62z" />
    <glyph glyph-name="Rcaron" unicode="&#x158;" horiz-adv-x="1327" 
d="M218 1400h514c304 0 478 -139 478 -382c0 -239 -180 -383 -477 -383h-94l563 -635h-93l-558 635h-259v-635h-74v1400zM734 1330h-442v-627h442c255 0 399 114 399 315c0 200 -145 312 -399 312zM348 1768h77l232 -223l232 223h77l-266 -273h-86z" />
    <glyph glyph-name="rcaron" unicode="&#x159;" horiz-adv-x="793" 
d="M556 944c65 0 130 -13 180 -40l-19 -64c-46 26 -107 39 -167 39c-180 0 -291 -153 -291 -343v-536h-69v933h69v-164c58 104 158 175 297 175zM147 1352h77l232 -223l232 223h77l-266 -273h-86z" />
    <glyph glyph-name="Sacute" unicode="&#x15a;" horiz-adv-x="1340" 
d="M1166 1255l-38 -60c-105 77 -256 145 -460 145c-242 0 -424 -115 -424 -312c0 -149 101 -252 366 -280l179 -19c260 -28 420 -127 420 -346c0 -267 -244 -394 -546 -394c-218 0 -417 83 -532 170l41 59c100 -75 282 -158 491 -158c262 0 469 101 469 317
c0 172 -126 255 -372 281l-183 19c-279 30 -410 152 -410 347c0 247 220 387 502 387c223 0 386 -73 497 -156zM644 1485h-71l233 300h89z" />
    <glyph glyph-name="sacute" unicode="&#x15b;" horiz-adv-x="961" 
d="M841 836l-33 -56c-67 49 -191 99 -329 99c-163 0 -284 -71 -284 -194c0 -94 69 -157 241 -175l131 -14c190 -20 299 -97 299 -239c0 -176 -165 -268 -393 -268c-154 0 -282 46 -378 118l35 55c78 -60 178 -108 344 -108c183 0 321 62 321 199c0 102 -81 162 -242 178
l-132 13c-214 22 -298 114 -298 238c0 165 149 261 355 261c150 0 283 -48 363 -107zM459 1069h-71l233 300h89z" />
    <glyph glyph-name="Scircumflex" unicode="&#x15c;" horiz-adv-x="1340" 
d="M1166 1255l-38 -60c-105 77 -256 145 -460 145c-242 0 -424 -115 -424 -312c0 -149 101 -252 366 -280l179 -19c260 -28 420 -127 420 -346c0 -267 -244 -394 -546 -394c-218 0 -417 83 -532 170l41 59c100 -75 282 -158 491 -158c262 0 469 101 469 317
c0 172 -126 255 -372 281l-183 19c-279 30 -410 152 -410 347c0 247 220 387 502 387c223 0 386 -73 497 -156zM1001 1499h-77l-232 224l-232 -224h-77l266 273h86z" />
    <glyph glyph-name="scircumflex" unicode="&#x15d;" horiz-adv-x="961" 
d="M841 836l-33 -56c-67 49 -191 99 -329 99c-163 0 -284 -71 -284 -194c0 -94 69 -157 241 -175l131 -14c190 -20 299 -97 299 -239c0 -176 -165 -268 -393 -268c-154 0 -282 46 -378 118l35 55c78 -60 178 -108 344 -108c183 0 321 62 321 199c0 102 -81 162 -242 178
l-132 13c-214 22 -298 114 -298 238c0 165 149 261 355 261c150 0 283 -48 363 -107zM800 1083h-77l-232 224l-232 -224h-77l266 273h86z" />
    <glyph glyph-name="Scedilla" unicode="&#x15e;" horiz-adv-x="1340" 
d="M1166 1255l-38 -60c-105 77 -256 145 -460 145c-242 0 -424 -115 -424 -312c0 -149 101 -252 366 -280l179 -19c260 -28 420 -127 420 -346c0 -246 -207 -373 -475 -391l-99 -317h-76l102 314c-217 1 -416 83 -530 170l41 59c100 -75 282 -158 491 -158
c262 0 469 101 469 317c0 172 -126 255 -372 281l-183 19c-279 30 -410 152 -410 347c0 247 220 387 502 387c223 0 386 -73 497 -156z" />
    <glyph glyph-name="scedilla" unicode="&#x15f;" horiz-adv-x="961" 
d="M841 836l-33 -56c-67 49 -191 99 -329 99c-163 0 -284 -71 -284 -194c0 -94 69 -157 241 -175l131 -14c190 -20 299 -97 299 -239c0 -158 -133 -249 -326 -265l-99 -317h-73l102 314c-153 1 -280 46 -375 118l35 55c78 -60 178 -108 344 -108c183 0 321 62 321 199
c0 102 -81 162 -242 178l-132 13c-214 22 -298 114 -298 238c0 165 149 261 355 261c150 0 283 -48 363 -107z" />
    <glyph glyph-name="Scaron" unicode="&#x160;" horiz-adv-x="1340" 
d="M1166 1255l-38 -60c-105 77 -256 145 -460 145c-242 0 -424 -115 -424 -312c0 -149 101 -252 366 -280l179 -19c260 -28 420 -127 420 -346c0 -267 -244 -394 -546 -394c-218 0 -417 83 -532 170l41 59c100 -75 282 -158 491 -158c262 0 469 101 469 317
c0 172 -126 255 -372 281l-183 19c-279 30 -410 152 -410 347c0 247 220 387 502 387c223 0 386 -73 497 -156zM383 1768h77l232 -223l232 223h77l-266 -273h-86z" />
    <glyph glyph-name="scaron" unicode="&#x161;" horiz-adv-x="961" 
d="M841 836l-33 -56c-67 49 -191 99 -329 99c-163 0 -284 -71 -284 -194c0 -94 69 -157 241 -175l131 -14c190 -20 299 -97 299 -239c0 -176 -165 -268 -393 -268c-154 0 -282 46 -378 118l35 55c78 -60 178 -108 344 -108c183 0 321 62 321 199c0 102 -81 162 -242 178
l-132 13c-214 22 -298 114 -298 238c0 165 149 261 355 261c150 0 283 -48 363 -107zM182 1352h77l232 -223l232 223h77l-266 -273h-86z" />
    <glyph glyph-name="Tcommaaccent" unicode="&#x162;" horiz-adv-x="1218" 
d="M1174 1400v-71h-528v-1329h-2l-102 -325h-76l106 327v1327h-528v71h1130z" />
    <glyph glyph-name="tcommaaccent" unicode="&#x163;" horiz-adv-x="903" 
d="M819 933v-64h-463v-557c0 -174 91 -257 234 -257c90 0 169 30 224 79l35 -51c-58 -53 -139 -88 -237 -93l-99 -315h-73l102 316c-160 15 -256 121 -256 320v558h-229v64h229v315h70v-315h463z" />
    <glyph glyph-name="Tcaron" unicode="&#x164;" horiz-adv-x="1218" 
d="M1174 1400v-71h-528v-1329h-74v1329h-528v71h1130zM300 1768h77l232 -223l232 223h77l-266 -273h-86z" />
    <glyph glyph-name="tcaron" unicode="&#x165;" horiz-adv-x="903" 
d="M819 933v-64h-463v-557c0 -174 91 -257 234 -257c90 0 169 30 224 79l35 -51c-63 -57 -153 -94 -264 -94c-186 0 -299 106 -299 322v558h-229v64h229v315h70v-315h463zM584 1051h-60l16 389h71z" />
    <glyph glyph-name="Tbar" unicode="&#x166;" horiz-adv-x="1218" 
d="M1011 740v-70h-365v-670h-74v670h-365v70h365v589h-528v71h1130v-71h-528v-589h365z" />
    <glyph glyph-name="tbar" unicode="&#x167;" horiz-adv-x="903" 
d="M819 933v-64h-463v-305h347v-64h-347v-188c0 -174 91 -257 234 -257c90 0 169 30 224 79l35 -51c-63 -57 -153 -94 -264 -94c-186 0 -299 106 -299 322v189h-218v64h218v305h-229v64h229v315h70v-315h463z" />
    <glyph glyph-name="Utilde" unicode="&#x168;" horiz-adv-x="1500" 
d="M1303 1400v-858c0 -367 -248 -553 -553 -553c-307 0 -554 186 -554 553v858h75v-853c0 -326 210 -486 479 -486c268 0 478 160 478 486v853h75zM467 1571l-43 40c51 72 106 109 192 109c133 0 158 -94 267 -94c64 0 106 30 149 88l43 -40c-51 -71 -106 -109 -192 -109
c-133 0 -157 95 -267 95c-64 0 -106 -30 -149 -89z" />
    <glyph glyph-name="utilde" unicode="&#x169;" horiz-adv-x="1180" 
d="M1002 933v-552c0 -249 -177 -392 -412 -392s-411 143 -411 392v552h69v-546c0 -209 139 -332 342 -332c204 0 342 123 342 332v546h70zM322 1155l-43 40c51 72 106 109 192 109c133 0 158 -94 267 -94c64 0 106 30 149 88l43 -40c-51 -71 -106 -109 -192 -109
c-133 0 -157 95 -267 95c-64 0 -106 -30 -149 -89z" />
    <glyph glyph-name="Umacron" unicode="&#x16a;" horiz-adv-x="1500" 
d="M1303 1400v-858c0 -367 -248 -553 -553 -553c-307 0 -554 186 -554 553v858h75v-853c0 -326 210 -486 479 -486c268 0 478 160 478 486v853h75zM466 1603v58h569v-58h-569z" />
    <glyph glyph-name="umacron" unicode="&#x16b;" horiz-adv-x="1180" 
d="M1002 933v-552c0 -249 -177 -392 -412 -392s-411 143 -411 392v552h69v-546c0 -209 139 -332 342 -332c204 0 342 123 342 332v546h70zM306 1187v58h569v-58h-569z" />
    <glyph glyph-name="Ubreve" unicode="&#x16c;" horiz-adv-x="1500" 
d="M1303 1400v-858c0 -367 -248 -553 -553 -553c-307 0 -554 186 -554 553v858h75v-853c0 -326 210 -486 479 -486c268 0 478 160 478 486v853h75zM445 1759l57 17c36 -141 125 -214 248 -214s212 73 248 214l57 -17c-42 -167 -154 -257 -305 -257s-263 90 -305 257z" />
    <glyph glyph-name="ubreve" unicode="&#x16d;" horiz-adv-x="1180" 
d="M1002 933v-552c0 -249 -177 -392 -412 -392s-411 143 -411 392v552h69v-546c0 -209 139 -332 342 -332c204 0 342 123 342 332v546h70zM285 1343l57 17c36 -141 125 -214 248 -214s212 73 248 214l57 -17c-42 -167 -154 -257 -305 -257s-263 90 -305 257z" />
    <glyph glyph-name="Uring" unicode="&#x16e;" horiz-adv-x="1500" 
d="M1303 1400v-858c0 -367 -248 -553 -553 -553c-307 0 -554 186 -554 553v858h75v-853c0 -326 210 -486 479 -486c268 0 478 160 478 486v853h75zM750 1474c-110 0 -200 89 -200 198s90 199 200 199c109 0 199 -90 199 -199s-90 -198 -199 -198zM750 1528
c79 0 143 63 143 144s-64 144 -143 144c-80 0 -144 -63 -144 -144s64 -144 144 -144z" />
    <glyph glyph-name="uring" unicode="&#x16f;" horiz-adv-x="1180" 
d="M1002 933v-552c0 -249 -177 -392 -412 -392s-411 143 -411 392v552h69v-546c0 -209 139 -332 342 -332c204 0 342 123 342 332v546h70zM590 1058c-110 0 -200 89 -200 198s90 199 200 199c109 0 199 -90 199 -199s-90 -198 -199 -198zM590 1112c79 0 143 63 143 144
s-64 144 -143 144c-80 0 -144 -63 -144 -144s64 -144 144 -144z" />
    <glyph glyph-name="Uhungarumlaut" unicode="&#x170;" horiz-adv-x="1500" 
d="M1303 1400v-858c0 -367 -248 -553 -553 -553c-307 0 -554 186 -554 553v858h75v-853c0 -326 210 -486 479 -486c268 0 478 160 478 486v853h75zM924 1485h-72l236 300h82zM583 1485h-72l229 300h80z" />
    <glyph glyph-name="uhungarumlaut" unicode="&#x171;" horiz-adv-x="1180" 
d="M1002 933v-552c0 -249 -177 -392 -412 -392s-411 143 -411 392v552h69v-546c0 -209 139 -332 342 -332c204 0 342 123 342 332v546h70zM776 1069h-72l236 300h82zM435 1069h-72l229 300h80z" />
    <glyph glyph-name="Uogonek" unicode="&#x172;" horiz-adv-x="1500" 
d="M1111 -278l39 -45c-56 -56 -129 -86 -209 -86c-131 0 -222 81 -222 195c0 90 47 154 121 209c-30 -4 -60 -6 -90 -6c-307 0 -554 186 -554 553v858h75v-853c0 -326 210 -486 479 -486c268 0 478 160 478 486v853h75v-858c0 -247 -110 -406 -273 -492
c-139 -74 -243 -146 -243 -258c0 -85 65 -141 159 -141c62 0 120 25 165 71z" />
    <glyph glyph-name="uogonek" unicode="&#x173;" horiz-adv-x="1180" 
d="M910 -278l39 -45c-56 -56 -129 -86 -209 -86c-131 0 -222 81 -222 195c0 88 45 151 116 205c-14 -1 -29 -2 -44 -2c-235 0 -411 143 -411 392v552h69v-546c0 -209 139 -332 342 -332c204 0 342 123 342 332v546h70v-552c0 -169 -79 -283 -202 -348
c-124 -66 -214 -137 -214 -241c0 -85 65 -141 159 -141c62 0 120 25 165 71z" />
    <glyph glyph-name="Wcircumflex" unicode="&#x174;" horiz-adv-x="2217" 
d="M2147 1400l-492 -1400h-89l-457 1302l-457 -1302h-89l-493 1400h79l459 -1316l461 1316h82l461 -1316l459 1316h76zM1418 1499h-77l-232 224l-232 -224h-77l266 273h86z" />
    <glyph glyph-name="wcircumflex" unicode="&#x175;" horiz-adv-x="1749" 
d="M914 933l343 -863l361 863h73l-394 -933h-81l-342 861l-342 -861h-80l-393 933h74l360 -863l343 863h78zM1184 1083h-77l-232 224l-232 -224h-77l266 273h86z" />
    <glyph glyph-name="Ycircumflex" unicode="&#x176;" horiz-adv-x="1232" 
d="M1219 1400l-565 -781v-619h-74v619l-567 781h90l514 -710l515 710h87zM927 1499h-77l-232 224l-232 -224h-77l266 273h86z" />
    <glyph glyph-name="ycircumflex" unicode="&#x177;" horiz-adv-x="996" 
d="M977 933l-790 -1335h-78l369 618l-451 717h79l411 -648l383 648h77zM812 1083h-77l-232 224l-232 -224h-77l266 273h86z" />
    <glyph glyph-name="Ydieresis" unicode="&#x178;" horiz-adv-x="1232" 
d="M1219 1400l-565 -781v-619h-74v619l-567 781h90l514 -710l515 710h87zM411 1684c29 0 52 -22 52 -51s-23 -52 -52 -52s-51 23 -51 52s22 51 51 51zM825 1684c29 0 52 -22 52 -51s-23 -52 -52 -52s-51 23 -51 52s22 51 51 51z" />
    <glyph glyph-name="Zacute" unicode="&#x179;" horiz-adv-x="1343" 
d="M1207 1400v-56l-977 -1273h982v-71h-1081v58l976 1271h-955v71h1055zM631 1485h-71l233 300h89z" />
    <glyph glyph-name="zacute" unicode="&#x17a;" horiz-adv-x="1078" 
d="M937 933v-52l-711 -817h719v-64h-812v51l714 818h-693v64h783zM514 1069h-71l233 300h89z" />
    <glyph glyph-name="Zdotaccent" unicode="&#x17b;" horiz-adv-x="1343" 
d="M1207 1400v-56l-977 -1273h982v-71h-1081v58l976 1271h-955v71h1055zM673 1687c30 0 53 -24 53 -53s-23 -52 -53 -52c-29 0 -52 23 -52 52s23 53 52 53z" />
    <glyph glyph-name="zdotaccent" unicode="&#x17c;" horiz-adv-x="1078" 
d="M937 933v-52l-711 -817h719v-64h-812v51l714 818h-693v64h783zM546 1327c29 0 52 -23 52 -52s-23 -51 -52 -51s-51 22 -51 51s22 52 51 52z" />
    <glyph glyph-name="Zcaron" unicode="&#x17d;" horiz-adv-x="1343" 
d="M1207 1400v-56l-977 -1273h982v-71h-1081v58l976 1271h-955v71h1055zM370 1768h77l232 -223l232 223h77l-266 -273h-86z" />
    <glyph glyph-name="zcaron" unicode="&#x17e;" horiz-adv-x="1078" 
d="M937 933v-52l-711 -817h719v-64h-812v51l714 818h-693v64h783zM237 1352h77l232 -223l232 223h77l-266 -273h-86z" />
    <glyph glyph-name="longs" unicode="&#x17f;" horiz-adv-x="660" 
d="M487 1451c100 0 186 -30 248 -70l-26 -58c-54 34 -134 62 -218 62c-175 0 -241 -109 -241 -290v-1095h-70v1095c0 214 83 356 307 356z" />
    <glyph glyph-name="uni018F" unicode="&#x18f;" horiz-adv-x="1628" 
d="M796 1411c391 0 702 -291 702 -711s-303 -711 -684 -711c-394 0 -683 288 -683 707c0 13 0 27 1 41h1289c-18 358 -290 602 -625 602c-206 0 -380 -90 -502 -236l-53 51c135 158 328 257 555 257zM814 61c327 0 591 245 607 606h-1209c6 -359 262 -606 602 -606z" />
    <glyph glyph-name="florin" unicode="&#x192;" horiz-adv-x="1400" 
d="M1076 757v-64h-340l-39 -398c-18 -181 -105 -306 -266 -306c-86 0 -160 30 -214 68l26 56c46 -34 113 -60 183 -60c120 0 188 97 202 242l39 398h-293v64h300l34 348c17 181 106 306 266 306c86 0 160 -30 213 -68l-25 -56c-46 34 -114 60 -184 60
c-119 0 -188 -97 -202 -242l-34 -348h334z" />
    <glyph glyph-name="uni01B5" unicode="&#x1b5;" horiz-adv-x="1343" 
d="M1072 737v-69h-384l-458 -597h982v-71h-1081v58l471 612h-330v69h381l454 590h-955v71h1055v-56l-466 -607h331z" />
    <glyph glyph-name="uni01B6" unicode="&#x1b6;" horiz-adv-x="1078" 
d="M854 502v-55h-295l-333 -383h719v-64h-812v51l348 398h-243v55h290l320 365h-694v64h784v-52l-330 -379h246z" />
    <glyph glyph-name="uni01CD" unicode="&#x1cd;" horiz-adv-x="1386" 
d="M738 1400l604 -1400h-80l-186 433h-768l-186 -433h-78l604 1400h90zM692 1324l-354 -820h707zM384 1768h77l232 -223l232 223h77l-266 -273h-86z" />
    <glyph glyph-name="uni01CE" unicode="&#x1ce;" horiz-adv-x="1243" 
d="M1053 933v-933h-69v218c-77 -137 -220 -229 -398 -229c-268 0 -473 203 -473 477s205 478 473 478c178 0 321 -92 398 -230v219h69zM586 878c-233 0 -402 -179 -402 -412c0 -232 170 -411 402 -411c231 0 402 177 402 411c0 235 -171 412 -402 412zM291 1352h77l232 -223
l232 223h77l-266 -273h-86z" />
    <glyph glyph-name="uni01CF" unicode="&#x1cf;" horiz-adv-x="511" 
d="M292 1400v-1400h-74v1400h74zM-54 1768h77l232 -223l232 223h77l-266 -273h-86z" />
    <glyph glyph-name="uni01D0" unicode="&#x1d0;" horiz-adv-x="450" 
d="M260 933v-933h-70v933h70zM-84 1352h77l232 -223l232 223h77l-266 -273h-86z" />
    <glyph glyph-name="uni01D1" unicode="&#x1d1;" horiz-adv-x="1681" 
d="M841 1411c399 0 710 -289 710 -711s-311 -711 -710 -711s-710 289 -710 711s311 711 710 711zM841 1340c-353 0 -632 -257 -632 -640s279 -640 632 -640c352 0 632 257 632 640s-280 640 -632 640zM532 1768h77l232 -223l232 223h77l-266 -273h-86z" />
    <glyph glyph-name="uni01D2" unicode="&#x1d2;" horiz-adv-x="1178" 
d="M588 944c272 0 478 -205 478 -478c0 -272 -206 -477 -478 -477c-270 0 -475 205 -475 477c0 273 205 478 475 478zM588 878c-230 0 -404 -175 -404 -412c0 -236 174 -411 404 -411c231 0 407 175 407 411c0 237 -176 412 -407 412zM280 1352h77l232 -223l232 223h77
l-266 -273h-86z" />
    <glyph glyph-name="uni01D3" unicode="&#x1d3;" horiz-adv-x="1500" 
d="M1303 1400v-858c0 -367 -248 -553 -553 -553c-307 0 -554 186 -554 553v858h75v-853c0 -326 210 -486 479 -486c268 0 478 160 478 486v853h75zM441 1768h77l232 -223l232 223h77l-266 -273h-86z" />
    <glyph glyph-name="uni01D4" unicode="&#x1d4;" horiz-adv-x="1180" 
d="M1002 933v-552c0 -249 -177 -392 -412 -392s-411 143 -411 392v552h69v-546c0 -209 139 -332 342 -332c204 0 342 123 342 332v546h70zM281 1352h77l232 -223l232 223h77l-266 -273h-86z" />
    <glyph glyph-name="uni01D5" unicode="&#x1d5;" horiz-adv-x="1500" 
d="M1303 1400v-858c0 -367 -248 -553 -553 -553c-307 0 -554 186 -554 553v858h75v-853c0 -326 210 -486 479 -486c268 0 478 160 478 486v853h75zM466 1933v58h569v-58h-569zM543 1684c29 0 52 -22 52 -51s-23 -52 -52 -52s-51 23 -51 52s22 51 51 51zM957 1684
c29 0 52 -22 52 -51s-23 -52 -52 -52s-51 23 -51 52s22 51 51 51z" />
    <glyph glyph-name="uni01D6" unicode="&#x1d6;" horiz-adv-x="1180" 
d="M1002 933v-552c0 -249 -177 -392 -412 -392s-411 143 -411 392v552h69v-546c0 -209 139 -332 342 -332c204 0 342 123 342 332v546h70zM383 1268c29 0 52 -22 52 -51s-23 -52 -52 -52s-51 23 -51 52s22 51 51 51zM797 1268c29 0 52 -22 52 -51s-23 -52 -52 -52
s-51 23 -51 52s22 51 51 51zM306 1502v58h569v-58h-569z" />
    <glyph glyph-name="uni01D7" unicode="&#x1d7;" horiz-adv-x="1500" 
d="M1303 1400v-858c0 -367 -248 -553 -553 -553c-307 0 -554 186 -554 553v858h75v-853c0 -326 210 -486 479 -486c268 0 478 160 478 486v853h75zM702 1900h-71l233 300h89zM543 1684c29 0 52 -22 52 -51s-23 -52 -52 -52s-51 23 -51 52s22 51 51 51zM957 1684
c29 0 52 -22 52 -51s-23 -52 -52 -52s-51 23 -51 52s22 51 51 51z" />
    <glyph glyph-name="uni01D8" unicode="&#x1d8;" horiz-adv-x="1180" 
d="M1002 933v-552c0 -249 -177 -392 -412 -392s-411 143 -411 392v552h69v-546c0 -209 139 -332 342 -332c204 0 342 123 342 332v546h70zM383 1268c29 0 52 -22 52 -51s-23 -52 -52 -52s-51 23 -51 52s22 51 51 51zM797 1268c29 0 52 -22 52 -51s-23 -52 -52 -52
s-51 23 -51 52s22 51 51 51zM542 1469h-71l233 300h89z" />
    <glyph glyph-name="uni01D9" unicode="&#x1d9;" horiz-adv-x="1500" 
d="M1303 1400v-858c0 -367 -248 -553 -553 -553c-307 0 -554 186 -554 553v858h75v-853c0 -326 210 -486 479 -486c268 0 478 160 478 486v853h75zM441 2183h77l232 -223l232 223h77l-266 -273h-86zM543 1684c29 0 52 -22 52 -51s-23 -52 -52 -52s-51 23 -51 52s22 51 51 51
zM957 1684c29 0 52 -22 52 -51s-23 -52 -52 -52s-51 23 -51 52s22 51 51 51z" />
    <glyph glyph-name="uni01DA" unicode="&#x1da;" horiz-adv-x="1180" 
d="M1002 933v-552c0 -249 -177 -392 -412 -392s-411 143 -411 392v552h69v-546c0 -209 139 -332 342 -332c204 0 342 123 342 332v546h70zM383 1268c29 0 52 -22 52 -51s-23 -52 -52 -52s-51 23 -51 52s22 51 51 51zM797 1268c29 0 52 -22 52 -51s-23 -52 -52 -52
s-51 23 -51 52s22 51 51 51zM281 1752h77l232 -223l232 223h77l-266 -273h-86z" />
    <glyph glyph-name="uni01DB" unicode="&#x1db;" horiz-adv-x="1500" 
d="M1303 1400v-858c0 -367 -248 -553 -553 -553c-307 0 -554 186 -554 553v858h75v-853c0 -326 210 -486 479 -486c268 0 478 160 478 486v853h75zM794 1900l-251 300h88l234 -300h-71zM543 1684c29 0 52 -22 52 -51s-23 -52 -52 -52s-51 23 -51 52s22 51 51 51zM957 1684
c29 0 52 -22 52 -51s-23 -52 -52 -52s-51 23 -51 52s22 51 51 51z" />
    <glyph glyph-name="uni01DC" unicode="&#x1dc;" horiz-adv-x="1180" 
d="M1002 933v-552c0 -249 -177 -392 -412 -392s-411 143 -411 392v552h69v-546c0 -209 139 -332 342 -332c204 0 342 123 342 332v546h70zM383 1268c29 0 52 -22 52 -51s-23 -52 -52 -52s-51 23 -51 52s22 51 51 51zM797 1268c29 0 52 -22 52 -51s-23 -52 -52 -52
s-51 23 -51 52s22 51 51 51zM634 1469l-251 300h88l234 -300h-71z" />
    <glyph glyph-name="uni01E2" unicode="&#x1e2;" horiz-adv-x="2240" 
d="M2065 70v-70h-937v422h-680l-323 -422h-90l1073 1400h953v-70h-859v-590h837v-70h-837v-600h863zM502 493h626v818zM1218 1603v58h569v-58h-569z" />
    <glyph glyph-name="uni01E3" unicode="&#x1e3;" horiz-adv-x="1843" 
d="M1294 944c244 0 433 -197 437 -471c0 -11 0 -21 -1 -31h-823c10 -236 175 -387 393 -387c148 0 257 62 340 150l42 -48c-120 -133 -254 -168 -386 -168c-175 0 -316 81 -396 216c-92 -128 -251 -216 -429 -216c-222 0 -358 103 -358 259c0 158 130 258 383 258h340v51
c0 231 -134 320 -328 320c-134 0 -231 -49 -302 -105l-37 52c87 71 200 120 344 120c193 0 335 -77 376 -262c68 157 224 262 405 262zM1293 878c-210 0 -368 -157 -386 -372h750c-12 215 -167 372 -364 372zM471 55c158 0 309 81 399 212c-22 53 -34 111 -37 175h-326
c-224 0 -320 -76 -320 -194c0 -116 109 -193 284 -193zM622 1187v58h569v-58h-569z" />
    <glyph glyph-name="Gcaron" unicode="&#x1e6;" horiz-adv-x="1635" 
d="M841 1411c219 0 414 -93 542 -245l-55 -52c-115 140 -291 226 -487 226c-352 0 -632 -257 -632 -640s280 -640 629 -640s576 235 587 596h-522v70h602v-23c0 -416 -261 -714 -667 -714c-379 0 -707 276 -707 711c0 422 312 711 710 711zM515 1768h77l232 -223l232 223h77
l-266 -273h-86z" />
    <glyph glyph-name="gcaron" unicode="&#x1e7;" horiz-adv-x="1238" 
d="M585 944c175 0 316 -89 394 -222v211h69v-870c0 -319 -226 -472 -483 -472c-161 0 -305 57 -395 147l35 53c85 -82 212 -136 360 -136c217 0 414 127 414 405v150c-78 -132 -219 -221 -394 -221c-267 0 -472 203 -472 477s205 478 472 478zM585 878
c-233 0 -401 -179 -401 -412c0 -232 170 -411 401 -411s403 177 403 411c0 235 -172 412 -403 412zM287 1352h77l232 -223l232 223h77l-266 -273h-86z" />
    <glyph glyph-name="Aringacute" unicode="&#x1fa;" horiz-adv-x="1386" 
d="M122 0h-78l590 1371c-82 25 -142 101 -142 190c0 109 90 199 200 199c109 0 199 -90 199 -199c0 -89 -59 -164 -140 -189l591 -1372h-80l-186 433h-768zM692 1328l-354 -824h707zM692 1417c79 0 143 63 143 144s-64 144 -143 144c-80 0 -144 -63 -144 -144
s64 -144 144 -144zM644 1809h-71l233 300h89z" />
    <glyph glyph-name="aringacute" unicode="&#x1fb;" horiz-adv-x="1243" 
d="M1053 933v-933h-69v218c-77 -137 -220 -229 -398 -229c-268 0 -473 203 -473 477s205 478 473 478c178 0 321 -92 398 -230v219h69zM586 878c-233 0 -402 -179 -402 -412c0 -232 170 -411 402 -411c231 0 402 177 402 411c0 235 -171 412 -402 412zM570 1032
c-110 0 -200 89 -200 198s90 199 200 199c109 0 199 -90 199 -199s-90 -198 -199 -198zM570 1086c79 0 143 63 143 144s-64 144 -143 144c-80 0 -144 -63 -144 -144s64 -144 144 -144zM522 1491h-71l233 300h89z" />
    <glyph glyph-name="AEacute" unicode="&#x1fc;" horiz-adv-x="2240" 
d="M2065 70v-70h-937v422h-680l-323 -422h-90l1073 1400h953v-70h-859v-590h837v-70h-837v-600h863zM502 493h626v818zM1454 1485h-71l233 300h89z" />
    <glyph glyph-name="aeacute" unicode="&#x1fd;" horiz-adv-x="1843" 
d="M1294 944c244 0 433 -197 437 -471c0 -11 0 -21 -1 -31h-823c10 -236 175 -387 393 -387c148 0 257 62 340 150l42 -48c-120 -133 -254 -168 -386 -168c-175 0 -316 81 -396 216c-92 -128 -251 -216 -429 -216c-222 0 -358 103 -358 259c0 158 130 258 383 258h340v51
c0 231 -134 320 -328 320c-134 0 -231 -49 -302 -105l-37 52c87 71 200 120 344 120c193 0 335 -77 376 -262c68 157 224 262 405 262zM1293 878c-210 0 -368 -157 -386 -372h750c-12 215 -167 372 -364 372zM471 55c158 0 309 81 399 212c-22 53 -34 111 -37 175h-326
c-224 0 -320 -76 -320 -194c0 -116 109 -193 284 -193zM874 1069h-71l233 300h89z" />
    <glyph glyph-name="Oslashacute" unicode="&#x1fe;" horiz-adv-x="1681" 
d="M841 1411c188 0 357 -65 483 -178l177 177l50 -49l-177 -177c110 -123 177 -289 177 -484c0 -422 -311 -711 -710 -711c-189 0 -358 65 -484 178l-177 -177l-50 49l177 177c-110 123 -176 289 -176 484c0 422 311 711 710 711zM1473 700c0 173 -57 321 -153 430
l-910 -910c112 -102 263 -160 431 -160c352 0 632 257 632 640zM841 1340c-353 0 -632 -257 -632 -640c0 -173 57 -321 152 -430l910 910c-113 102 -263 160 -430 160zM793 1485h-71l233 300h89z" />
    <glyph glyph-name="oslashacute" unicode="&#x1ff;" horiz-adv-x="1178" 
d="M588 944c125 0 236 -44 319 -117l123 123l44 -42l-124 -124c73 -83 116 -194 116 -318c0 -272 -206 -477 -478 -477c-124 0 -234 43 -317 116l-123 -123l-43 43l123 123c-72 83 -115 193 -115 318c0 273 205 478 475 478zM588 878c-230 0 -404 -175 -404 -412
c0 -105 34 -198 93 -269l582 582c-71 62 -166 99 -271 99zM995 466c0 105 -35 198 -94 269l-582 -582c71 -62 164 -98 269 -98c231 0 407 175 407 411zM556 1069h-71l233 300h89z" />
    <glyph glyph-name="Scommaaccent" unicode="&#x218;" horiz-adv-x="1340" 
d="M1166 1255l-38 -60c-105 77 -256 145 -460 145c-242 0 -424 -115 -424 -312c0 -149 101 -252 366 -280l179 -19c260 -28 420 -127 420 -346c0 -267 -244 -394 -546 -394c-218 0 -417 83 -532 170l41 59c100 -75 282 -158 491 -158c262 0 469 101 469 317
c0 172 -126 255 -372 281l-183 19c-279 30 -410 152 -410 347c0 247 220 387 502 387c223 0 386 -73 497 -156zM688 -89h75l-61 -327h-62z" />
    <glyph glyph-name="scommaaccent" unicode="&#x219;" horiz-adv-x="961" 
d="M841 836l-33 -56c-67 49 -191 99 -329 99c-163 0 -284 -71 -284 -194c0 -94 69 -157 241 -175l131 -14c190 -20 299 -97 299 -239c0 -176 -165 -268 -393 -268c-154 0 -282 46 -378 118l35 55c78 -60 178 -108 344 -108c183 0 321 62 321 199c0 102 -81 162 -242 178
l-132 13c-214 22 -298 114 -298 238c0 165 149 261 355 261c150 0 283 -48 363 -107zM466 -89h75l-61 -327h-62z" />
    <glyph glyph-name="uni021A" unicode="&#x21a;" horiz-adv-x="1218" 
d="M1174 1400v-71h-528v-1329h-74v1329h-528v71h1130zM595 -89h75l-61 -327h-62z" />
    <glyph glyph-name="uni021B" unicode="&#x21b;" horiz-adv-x="903" 
d="M819 933v-64h-463v-557c0 -174 91 -257 234 -257c90 0 169 30 224 79l35 -51c-63 -57 -153 -94 -264 -94c-186 0 -299 106 -299 322v558h-229v64h229v315h70v-315h463zM538 -89h75l-61 -327h-62z" />
    <glyph glyph-name="uni0232" unicode="&#x232;" horiz-adv-x="1232" 
d="M1219 1400l-565 -781v-619h-74v619l-567 781h90l514 -710l515 710h87zM334 1603v58h569v-58h-569z" />
    <glyph glyph-name="uni0233" unicode="&#x233;" horiz-adv-x="996" 
d="M977 933l-790 -1335h-78l369 618l-451 717h79l411 -648l383 648h77zM219 1187v58h569v-58h-569z" />
    <glyph glyph-name="uni0237" unicode="&#x237;" horiz-adv-x="451" 
d="M261 933v-1139c0 -131 -61 -203 -176 -203c-48 0 -94 16 -124 34l19 60c25 -16 61 -28 99 -28c76 0 113 46 113 140v1136h69z" />
    <glyph glyph-name="uni0259" unicode="&#x259;" horiz-adv-x="1123" 
d="M549 -11c-244 0 -432 197 -437 471c0 11 0 19 1 31h824c-10 236 -177 387 -396 387c-150 0 -256 -61 -342 -153l-38 51c121 133 252 168 384 168c270 0 465 -197 465 -477c0 -277 -202 -478 -461 -478zM550 55c210 0 369 157 387 372h-751c13 -216 167 -372 364 -372z
" />
    <glyph glyph-name="uni02BB" unicode="&#x2bb;" horiz-adv-x="480" 
d="M251 984h-80l85 456h61z" />
    <glyph glyph-name="afii57929" unicode="&#x2bc;" horiz-adv-x="480" 
d="M229 1440h80l-85 -456h-61z" />
    <glyph glyph-name="uni02BE" unicode="&#x2be;" horiz-adv-x="522" 
d="M154 815v64c137 0 248 112 248 252c0 141 -111 253 -248 253v64c174 0 316 -141 316 -317c0 -174 -142 -316 -316 -316z" />
    <glyph glyph-name="uni02BF" unicode="&#x2bf;" horiz-adv-x="522" 
d="M368 1448v-64c-137 0 -248 -112 -248 -252c0 -141 111 -253 248 -253v-64c-174 0 -316 141 -316 317c0 174 142 316 316 316z" />
    <glyph glyph-name="circumflex" unicode="&#x2c6;" horiz-adv-x="860" 
d="M739 1083h-77l-232 223l-232 -223h-77l266 273h87z" />
    <glyph glyph-name="caron" unicode="&#x2c7;" horiz-adv-x="860" 
d="M121 1352h77l232 -223l232 223h77l-266 -273h-87z" />
    <glyph glyph-name="breve" unicode="&#x2d8;" horiz-adv-x="860" 
d="M125 1343l57 17c36 -141 125 -214 248 -214s212 73 248 214l57 -17c-42 -166 -154 -257 -305 -257s-263 91 -305 257z" />
    <glyph glyph-name="dotaccent" unicode="&#x2d9;" horiz-adv-x="483" 
d="M241 1327c29 0 52 -23 52 -52s-23 -51 -52 -51s-51 22 -51 51s22 52 51 52z" />
    <glyph glyph-name="ring" unicode="&#x2da;" horiz-adv-x="860" 
d="M430 1058c-110 0 -200 89 -200 198s90 199 200 199c109 0 200 -90 200 -199s-91 -198 -200 -198zM430 1112c80 0 143 63 143 144s-63 144 -143 144s-143 -63 -143 -144s63 -144 143 -144z" />
    <glyph glyph-name="ogonek" unicode="&#x2db;" horiz-adv-x="1062" 
d="M836 -278l39 -45c-56 -56 -129 -86 -209 -86c-130 0 -220 77 -220 191c0 134 123 207 278 286l32 -41c-144 -73 -244 -134 -244 -239c0 -82 64 -137 158 -137c65 0 121 25 166 71z" />
    <glyph glyph-name="tilde" unicode="&#x2dc;" horiz-adv-x="860" 
d="M147 1155l-43 40c51 72 106 109 192 109c133 0 158 -94 267 -94c64 0 106 30 149 88l43 -40c-51 -71 -106 -109 -192 -109c-133 0 -157 95 -267 95c-64 0 -106 -30 -149 -89z" />
    <glyph glyph-name="hungarumlaut" unicode="&#x2dd;" horiz-adv-x="860" 
d="M519 1069h-71l233 300h89zM161 1069h-71l233 300h89z" />
    <glyph glyph-name="gravecomb" unicode="&#x300;" 
d="M-568 1069l-251 300h88l234 -300h-71z" />
    <glyph glyph-name="acutecomb" unicode="&#x301;" 
d="M-621 1069h-71l233 300h89z" />
    <glyph glyph-name="uni0302" unicode="&#x302;" 
d="M-280 1083h-77l-232 224l-232 -224h-77l266 273h86z" />
    <glyph glyph-name="tildecomb" unicode="&#x303;" 
d="M-857 1155l-43 40c51 72 106 109 192 109c133 0 158 -94 267 -94c64 0 106 30 149 88l43 -40c-51 -71 -106 -109 -192 -109c-133 0 -157 95 -267 95c-64 0 -106 -30 -149 -89z" />
    <glyph glyph-name="uni0304" unicode="&#x304;" 
d="M-873 1187v58h569v-58h-569z" />
    <glyph glyph-name="uni0306" unicode="&#x306;" 
d="M-894 1343l57 17c36 -141 125 -214 248 -214s212 73 248 214l57 -17c-42 -167 -154 -257 -305 -257s-263 90 -305 257z" />
    <glyph glyph-name="uni0307" unicode="&#x307;" 
d="M-589 1327c29 0 52 -23 52 -52s-23 -51 -52 -51s-51 22 -51 51s22 52 51 52z" />
    <glyph glyph-name="uni0308" unicode="&#x308;" 
d="M-796 1268c29 0 52 -22 52 -51s-23 -52 -52 -52s-51 23 -51 52s22 51 51 51zM-382 1268c29 0 52 -22 52 -51s-23 -52 -52 -52s-51 23 -51 52s22 51 51 51z" />
    <glyph glyph-name="uni030A" unicode="&#x30a;" 
d="M-589 1058c-110 0 -200 89 -200 198s90 199 200 199c109 0 199 -90 199 -199s-90 -198 -199 -198zM-589 1112c79 0 143 63 143 144s-64 144 -143 144c-80 0 -144 -63 -144 -144s64 -144 144 -144z" />
    <glyph glyph-name="uni030B" unicode="&#x30b;" 
d="M-403 1069h-72l236 300h82zM-744 1069h-72l229 300h80z" />
    <glyph glyph-name="uni030C" unicode="&#x30c;" 
d="M-898 1352h77l232 -223l232 223h77l-266 -273h-86z" />
    <glyph glyph-name="uni0312" unicode="&#x312;" 
d="M-560 1069h-76l61 328h62z" />
    <glyph glyph-name="dotbelowcomb" unicode="&#x323;" 
d="M-588 -205c29 0 52 -23 52 -52s-23 -51 -52 -51s-51 22 -51 51s22 52 51 52z" />
    <glyph glyph-name="uni0326" unicode="&#x326;" 
d="M-605 -89h75l-61 -327h-62z" />
    <glyph glyph-name="uni0327" unicode="&#x327;" 
d="M-500 3l-103 -328h-73l107 330z" />
    <glyph glyph-name="uni0328" unicode="&#x328;" 
d="M-411 -278l39 -45c-56 -56 -129 -86 -209 -86c-131 0 -222 81 -222 195c0 145 123 221 282 305l31 -38c-140 -80 -245 -147 -245 -261c0 -85 65 -141 159 -141c62 0 120 25 165 71z" />
    <glyph glyph-name="uni032E" unicode="&#x32e;" 
d="M-893 -141l57 17c36 -141 125 -214 248 -214s212 73 248 214l57 -17c-42 -167 -154 -257 -305 -257s-263 90 -305 257z" />
    <glyph glyph-name="uni0331" unicode="&#x331;" 
d="M-872 -289v58h569v-58h-569z" />
    <glyph glyph-name="uni0335" unicode="&#x335;" 
d="M-238 556v-64h-702v64h702z" />
    <glyph glyph-name="uni0336" unicode="&#x336;" 
d="M158 556v-64h-1493v64h1493z" />
    <glyph glyph-name="uni0394" unicode="&#x394;" horiz-adv-x="1429" 
d="M758 1404l583 -1346v-58h-1254v58l583 1346h88zM714 1324l-543 -1253h1085z" />
    <glyph glyph-name="uni03A9" unicode="&#x3a9;" horiz-adv-x="1717" 
d="M87 71h439c-223 104 -378 328 -378 618c0 428 312 722 710 722c399 0 710 -294 710 -722c0 -290 -154 -514 -378 -618h439v-71h-570v60c252 81 431 311 431 626c0 392 -279 654 -632 654c-352 0 -632 -262 -632 -654c0 -315 180 -545 432 -626v-60h-571v71z" />
    <glyph glyph-name="uni03BC" unicode="&#x3bc;" horiz-adv-x="1193" 
d="M248 -400h-69v1333h69v-547c0 -197 120 -331 343 -331c202 0 342 148 342 338v540h70v-933h-69v179c-66 -113 -188 -190 -349 -190c-152 0 -269 56 -337 155v-544z" />
    <glyph glyph-name="pi" unicode="&#x3c0;" horiz-adv-x="1192" 
d="M1014 933v-933h-70v869h-684v-869h-70v933h824z" />
    <glyph glyph-name="uni1E0C" unicode="&#x1e0c;" horiz-adv-x="1609" 
d="M218 1400h489c481 0 772 -266 772 -700s-291 -700 -772 -700h-489v1400zM707 1329h-415v-1258h415c445 0 695 241 695 629c0 389 -250 629 -695 629zM752 -205c29 0 52 -23 52 -52s-23 -51 -52 -51s-51 22 -51 51s22 52 51 52z" />
    <glyph glyph-name="uni1E0D" unicode="&#x1e0d;" horiz-adv-x="1243" 
d="M586 944c178 0 321 -92 398 -230v726h69v-1440h-69v218c-77 -137 -220 -229 -398 -229c-268 0 -473 203 -473 477s205 478 473 478zM586 878c-233 0 -402 -179 -402 -412c0 -232 170 -411 402 -411c231 0 402 177 402 411c0 235 -171 412 -402 412zM604 -205
c29 0 52 -23 52 -52s-23 -51 -52 -51s-51 22 -51 51s22 52 51 52z" />
    <glyph glyph-name="uni1E0E" unicode="&#x1e0e;" horiz-adv-x="1609" 
d="M218 1400h489c481 0 772 -266 772 -700s-291 -700 -772 -700h-489v1400zM707 1329h-415v-1258h415c445 0 695 241 695 629c0 389 -250 629 -695 629zM468 -289v58h569v-58h-569z" />
    <glyph glyph-name="uni1E0F" unicode="&#x1e0f;" horiz-adv-x="1243" 
d="M586 944c178 0 321 -92 398 -230v726h69v-1440h-69v218c-77 -137 -220 -229 -398 -229c-268 0 -473 203 -473 477s205 478 473 478zM586 878c-233 0 -402 -179 -402 -412c0 -232 170 -411 402 -411c231 0 402 177 402 411c0 235 -171 412 -402 412zM319 -289v58h569v-58
h-569z" />
    <glyph glyph-name="uni1E24" unicode="&#x1e24;" horiz-adv-x="1554" 
d="M292 1400v-660h968v660h75v-1400h-75v670h-968v-670h-74v1400h74zM776 -205c29 0 52 -23 52 -52s-23 -51 -52 -51s-51 22 -51 51s22 52 51 52z" />
    <glyph glyph-name="uni1E25" unicode="&#x1e25;" horiz-adv-x="1192" 
d="M260 1440v-685c67 112 188 189 348 189c251 0 406 -154 406 -397v-547h-69v547c0 197 -120 331 -343 331c-202 0 -342 -148 -342 -338v-540h-70v1440h70zM603 -205c29 0 52 -23 52 -52s-23 -51 -52 -51s-51 22 -51 51s22 52 51 52z" />
    <glyph glyph-name="uni1E28" unicode="&#x1e28;" horiz-adv-x="1554" 
d="M292 1400v-660h968v660h75v-1400h-75v670h-968v-670h-2l-102 -325h-76l106 325v1400h74z" />
    <glyph glyph-name="uni1E29" unicode="&#x1e29;" horiz-adv-x="1192" 
d="M260 1440v-685c67 112 188 189 348 189c251 0 406 -154 406 -397v-547h-69v547c0 197 -120 331 -343 331c-202 0 -342 -148 -342 -338v-540h-1l-103 -325h-73l107 325v1440h70z" />
    <glyph glyph-name="uni1E2A" unicode="&#x1e2a;" horiz-adv-x="1554" 
d="M292 1400v-660h968v660h75v-1400h-75v670h-968v-670h-74v1400h74zM471 -141l57 17c36 -141 125 -214 248 -214s212 73 248 214l57 -17c-42 -167 -154 -257 -305 -257s-263 90 -305 257z" />
    <glyph glyph-name="uni1E2B" unicode="&#x1e2b;" horiz-adv-x="1192" 
d="M260 1440v-685c67 112 188 189 348 189c251 0 406 -154 406 -397v-547h-69v547c0 197 -120 331 -343 331c-202 0 -342 -148 -342 -338v-540h-70v1440h70zM297 -141l57 17c36 -141 125 -214 248 -214s212 73 248 214l57 -17c-42 -167 -154 -257 -305 -257
s-263 90 -305 257z" />
    <glyph glyph-name="uni1E32" unicode="&#x1e32;" horiz-adv-x="1340" 
d="M1194 0l-696 669h-206v-669h-74v1400h74v-661h207l658 661h97l-696 -692l738 -708h-102zM668 -205c29 0 52 -23 52 -52s-23 -51 -52 -51s-51 22 -51 51s22 52 51 52z" />
    <glyph glyph-name="uni1E33" unicode="&#x1e33;" horiz-adv-x="1023" 
d="M260 1440v-918h173l435 411h89l-470 -441l480 -492h-89l-446 458h-172v-458h-70v1440h70zM547 -205c29 0 52 -23 52 -52s-23 -51 -52 -51s-51 22 -51 51s22 52 51 52z" />
    <glyph glyph-name="uni1E36" unicode="&#x1e36;" horiz-adv-x="1193" 
d="M1149 71v-71h-931v1400h74v-1329h857zM668 -205c29 0 52 -23 52 -52s-23 -51 -52 -51s-51 22 -51 51s22 52 51 52z" />
    <glyph glyph-name="uni1E37" unicode="&#x1e37;" horiz-adv-x="450" 
d="M260 1440v-1440h-70v1440h70zM226 -205c29 0 52 -23 52 -52s-23 -51 -52 -51s-51 22 -51 51s22 52 51 52z" />
    <glyph glyph-name="uni1E38" unicode="&#x1e38;" horiz-adv-x="1193" 
d="M1149 71v-71h-931v1400h74v-1329h857zM668 -205c29 0 52 -23 52 -52s-23 -51 -52 -51s-51 22 -51 51s22 52 51 52zM-29 1603v58h569v-58h-569z" />
    <glyph glyph-name="uni1E39" unicode="&#x1e39;" horiz-adv-x="450" 
d="M260 1440v-1440h-70v1440h70zM-82 1613v58h569v-58h-569zM226 -205c29 0 52 -23 52 -52s-23 -51 -52 -51s-51 22 -51 51s22 52 51 52z" />
    <glyph glyph-name="uni1E3A" unicode="&#x1e3a;" horiz-adv-x="1193" 
d="M1149 71v-71h-931v1400h74v-1329h857zM384 -289v58h569v-58h-569z" />
    <glyph glyph-name="uni1E3B" unicode="&#x1e3b;" horiz-adv-x="450" 
d="M260 1440v-1440h-70v1440h70zM-59 -289v58h569v-58h-569z" />
    <glyph glyph-name="uni1E40" unicode="&#x1e40;" horiz-adv-x="1847" 
d="M1628 1400v-1400h-75v1309l-591 -1129h-78l-592 1126v-1306h-74v1400h109l596 -1133l596 1133h109zM917 1687c30 0 53 -24 53 -53s-23 -52 -53 -52c-29 0 -52 23 -52 52s23 53 52 53z" />
    <glyph glyph-name="uni1E41" unicode="&#x1e41;" horiz-adv-x="1947" 
d="M1357 944c256 0 412 -154 412 -397v-547h-70v547c0 197 -120 331 -342 331c-202 0 -343 -148 -343 -338v-540h-69v547c0 197 -120 331 -343 331c-202 0 -342 -148 -342 -338v-540h-70v933h69v-179c66 113 188 190 349 190c187 0 320 -86 376 -230c62 137 197 230 373 230
zM979 1352c29 0 52 -23 52 -52s-23 -51 -52 -51s-51 22 -51 51s22 52 51 52z" />
    <glyph glyph-name="uni1E42" unicode="&#x1e42;" horiz-adv-x="1847" 
d="M1628 1400v-1400h-75v1309l-591 -1129h-78l-592 1126v-1306h-74v1400h109l596 -1133l596 1133h109zM923 -205c29 0 52 -23 52 -52s-23 -51 -52 -51s-51 22 -51 51s22 52 51 52z" />
    <glyph glyph-name="uni1E43" unicode="&#x1e43;" horiz-adv-x="1947" 
d="M1357 944c256 0 412 -154 412 -397v-547h-70v547c0 197 -120 331 -342 331c-202 0 -343 -148 -343 -338v-540h-69v547c0 197 -120 331 -343 331c-202 0 -342 -148 -342 -338v-540h-70v933h69v-179c66 113 188 190 349 190c187 0 320 -86 376 -230c62 137 197 230 373 230
zM980 -205c29 0 52 -23 52 -52s-23 -51 -52 -51s-51 22 -51 51s22 52 51 52z" />
    <glyph glyph-name="uni1E44" unicode="&#x1e44;" horiz-adv-x="1558" 
d="M1339 1400v-1400h-67l-979 1271l-1 -1271h-74v1400h67l979 -1271v1271h75zM772 1687c30 0 53 -24 53 -53s-23 -52 -53 -52c-29 0 -52 23 -52 52s23 53 52 53z" />
    <glyph glyph-name="uni1E45" unicode="&#x1e45;" horiz-adv-x="1192" 
d="M608 944c251 0 406 -154 406 -397v-547h-69v547c0 197 -120 331 -343 331c-202 0 -342 -148 -342 -338v-540h-70v933h69v-179c66 113 188 190 349 190zM610 1327c29 0 52 -23 52 -52s-23 -51 -52 -51s-51 22 -51 51s22 52 51 52z" />
    <glyph glyph-name="uni1E46" unicode="&#x1e46;" horiz-adv-x="1558" 
d="M1339 1400v-1400h-67l-979 1271l-1 -1271h-74v1400h67l979 -1271v1271h75zM776 -205c29 0 52 -23 52 -52s-23 -51 -52 -51s-51 22 -51 51s22 52 51 52z" />
    <glyph glyph-name="uni1E47" unicode="&#x1e47;" horiz-adv-x="1192" 
d="M608 944c251 0 406 -154 406 -397v-547h-69v547c0 197 -120 331 -343 331c-202 0 -342 -148 -342 -338v-540h-70v933h69v-179c66 113 188 190 349 190zM600 -205c29 0 52 -23 52 -52s-23 -51 -52 -51s-51 22 -51 51s22 52 51 52z" />
    <glyph glyph-name="uni1E48" unicode="&#x1e48;" horiz-adv-x="1558" 
d="M1339 1400v-1400h-67l-979 1271l-1 -1271h-74v1400h67l979 -1271v1271h75zM492 -289v58h569v-58h-569z" />
    <glyph glyph-name="uni1E49" unicode="&#x1e49;" horiz-adv-x="1192" 
d="M608 944c251 0 406 -154 406 -397v-547h-69v547c0 197 -120 331 -343 331c-202 0 -342 -148 -342 -338v-540h-70v933h69v-179c66 113 188 190 349 190zM315 -289v58h569v-58h-569z" />
    <glyph glyph-name="uni1E58" unicode="&#x1e58;" horiz-adv-x="1327" 
d="M218 1400h514c304 0 478 -139 478 -382c0 -239 -180 -383 -477 -383h-94l563 -635h-93l-558 635h-259v-635h-74v1400zM734 1330h-442v-627h442c255 0 399 114 399 315c0 200 -145 312 -399 312zM651 1687c30 0 53 -24 53 -53s-23 -52 -53 -52c-29 0 -52 23 -52 52
s23 53 52 53z" />
    <glyph glyph-name="uni1E59" unicode="&#x1e59;" horiz-adv-x="793" 
d="M556 944c65 0 130 -13 180 -40l-19 -64c-46 26 -107 39 -167 39c-180 0 -291 -153 -291 -343v-536h-69v933h69v-164c58 104 158 175 297 175zM456 1327c29 0 52 -23 52 -52s-23 -51 -52 -51s-51 22 -51 51s22 52 51 52z" />
    <glyph glyph-name="uni1E5A" unicode="&#x1e5a;" horiz-adv-x="1327" 
d="M218 1400h514c304 0 478 -139 478 -382c0 -239 -180 -383 -477 -383h-94l563 -635h-93l-558 635h-259v-635h-74v1400zM734 1330h-442v-627h442c255 0 399 114 399 315c0 200 -145 312 -399 312zM652 -205c29 0 52 -23 52 -52s-23 -51 -52 -51s-51 22 -51 51s22 52 51 52z
" />
    <glyph glyph-name="uni1E5B" unicode="&#x1e5b;" horiz-adv-x="793" 
d="M556 944c65 0 130 -13 180 -40l-19 -64c-46 26 -107 39 -167 39c-180 0 -291 -153 -291 -343v-536h-69v933h69v-164c58 104 158 175 297 175zM226 -205c29 0 52 -23 52 -52s-23 -51 -52 -51s-51 22 -51 51s22 52 51 52z" />
    <glyph glyph-name="uni1E5C" unicode="&#x1e5c;" horiz-adv-x="1327" 
d="M218 1400h514c304 0 478 -139 478 -382c0 -239 -180 -383 -477 -383h-94l563 -635h-93l-558 635h-259v-635h-74v1400zM734 1330h-442v-627h442c255 0 399 114 399 315c0 200 -145 312 -399 312zM652 -205c29 0 52 -23 52 -52s-23 -51 -52 -51s-51 22 -51 51s22 52 51 52z
M373 1603v58h569v-58h-569z" />
    <glyph glyph-name="uni1E5D" unicode="&#x1e5d;" horiz-adv-x="793" 
d="M556 944c65 0 130 -13 180 -40l-19 -64c-46 26 -107 39 -167 39c-180 0 -291 -153 -291 -343v-536h-69v933h69v-164c58 104 158 175 297 175zM172 1187v58h569v-58h-569zM226 -205c29 0 52 -23 52 -52s-23 -51 -52 -51s-51 22 -51 51s22 52 51 52z" />
    <glyph glyph-name="uni1E5E" unicode="&#x1e5e;" horiz-adv-x="1327" 
d="M218 1400h514c304 0 478 -139 478 -382c0 -239 -180 -383 -477 -383h-94l563 -635h-93l-558 635h-259v-635h-74v1400zM734 1330h-442v-627h442c255 0 399 114 399 315c0 200 -145 312 -399 312zM368 -289v58h569v-58h-569z" />
    <glyph glyph-name="uni1E5F" unicode="&#x1e5f;" horiz-adv-x="793" 
d="M556 944c65 0 130 -13 180 -40l-19 -64c-46 26 -107 39 -167 39c-180 0 -291 -153 -291 -343v-536h-69v933h69v-164c58 104 158 175 297 175zM-59 -289v58h569v-58h-569z" />
    <glyph glyph-name="uni1E62" unicode="&#x1e62;" horiz-adv-x="1340" 
d="M1166 1255l-38 -60c-105 77 -256 145 -460 145c-242 0 -424 -115 -424 -312c0 -149 101 -252 366 -280l179 -19c260 -28 420 -127 420 -346c0 -267 -244 -394 -546 -394c-218 0 -417 83 -532 170l41 59c100 -75 282 -158 491 -158c262 0 469 101 469 317
c0 172 -126 255 -372 281l-183 19c-279 30 -410 152 -410 347c0 247 220 387 502 387c223 0 386 -73 497 -156zM702 -205c29 0 52 -23 52 -52s-23 -51 -52 -51s-51 22 -51 51s22 52 51 52z" />
    <glyph glyph-name="uni1E63" unicode="&#x1e63;" horiz-adv-x="961" 
d="M841 836l-33 -56c-67 49 -191 99 -329 99c-163 0 -284 -71 -284 -194c0 -94 69 -157 241 -175l131 -14c190 -20 299 -97 299 -239c0 -176 -165 -268 -393 -268c-154 0 -282 46 -378 118l35 55c78 -60 178 -108 344 -108c183 0 321 62 321 199c0 102 -81 162 -242 178
l-132 13c-214 22 -298 114 -298 238c0 165 149 261 355 261c150 0 283 -48 363 -107zM484 -205c29 0 52 -23 52 -52s-23 -51 -52 -51s-51 22 -51 51s22 52 51 52z" />
    <glyph glyph-name="uni1E6C" unicode="&#x1e6c;" horiz-adv-x="1218" 
d="M1174 1400v-71h-528v-1329h-74v1329h-528v71h1130zM609 -205c29 0 52 -23 52 -52s-23 -51 -52 -51s-51 22 -51 51s22 52 51 52z" />
    <glyph glyph-name="uni1E6D" unicode="&#x1e6d;" horiz-adv-x="903" 
d="M819 933v-64h-463v-557c0 -174 91 -257 234 -257c90 0 169 30 224 79l35 -51c-63 -57 -153 -94 -264 -94c-186 0 -299 106 -299 322v558h-229v64h229v315h70v-315h463zM556 -205c29 0 52 -23 52 -52s-23 -51 -52 -51s-51 22 -51 51s22 52 51 52z" />
    <glyph glyph-name="uni1E6E" unicode="&#x1e6e;" horiz-adv-x="1218" 
d="M1174 1400v-71h-528v-1329h-74v1329h-528v71h1130zM325 -289v58h569v-58h-569z" />
    <glyph glyph-name="uni1E6F" unicode="&#x1e6f;" horiz-adv-x="903" 
d="M819 933v-64h-463v-557c0 -174 91 -257 234 -257c90 0 169 30 224 79l35 -51c-63 -57 -153 -94 -264 -94c-186 0 -299 106 -299 322v558h-229v64h229v315h70v-315h463zM271 -289v58h569v-58h-569z" />
    <glyph glyph-name="Wgrave" unicode="&#x1e80;" horiz-adv-x="2217" 
d="M2147 1400l-492 -1400h-89l-457 1302l-457 -1302h-89l-493 1400h79l459 -1316l461 1316h82l461 -1316l459 1316h76zM1153 1485l-251 300h88l234 -300h-71z" />
    <glyph glyph-name="wgrave" unicode="&#x1e81;" horiz-adv-x="1749" 
d="M914 933l343 -863l361 863h73l-394 -933h-81l-342 861l-342 -861h-80l-393 933h74l360 -863l343 863h78zM896 1069l-251 300h88l234 -300h-71z" />
    <glyph glyph-name="Wacute" unicode="&#x1e82;" horiz-adv-x="2217" 
d="M2147 1400l-492 -1400h-89l-457 1302l-457 -1302h-89l-493 1400h79l459 -1316l461 1316h82l461 -1316l459 1316h76zM1061 1485h-71l233 300h89z" />
    <glyph glyph-name="wacute" unicode="&#x1e83;" horiz-adv-x="1749" 
d="M914 933l343 -863l361 863h73l-394 -933h-81l-342 861l-342 -861h-80l-393 933h74l360 -863l343 863h78zM843 1069h-71l233 300h89z" />
    <glyph glyph-name="Wdieresis" unicode="&#x1e84;" horiz-adv-x="2217" 
d="M2147 1400l-492 -1400h-89l-457 1302l-457 -1302h-89l-493 1400h79l459 -1316l461 1316h82l461 -1316l459 1316h76zM902 1684c29 0 52 -22 52 -51s-23 -52 -52 -52s-51 23 -51 52s22 51 51 51zM1316 1684c29 0 52 -22 52 -51s-23 -52 -52 -52s-51 23 -51 52s22 51 51 51z
" />
    <glyph glyph-name="wdieresis" unicode="&#x1e85;" horiz-adv-x="1749" 
d="M914 933l343 -863l361 863h73l-394 -933h-81l-342 861l-342 -861h-80l-393 933h74l360 -863l343 863h78zM668 1268c29 0 52 -22 52 -51s-23 -52 -52 -52s-51 23 -51 52s22 51 51 51zM1082 1268c29 0 52 -22 52 -51s-23 -52 -52 -52s-51 23 -51 52s22 51 51 51z" />
    <glyph glyph-name="uni1E88" unicode="&#x1e88;" horiz-adv-x="2217" 
d="M2147 1400l-492 -1400h-89l-457 1302l-457 -1302h-89l-493 1400h79l459 -1316l461 1316h82l461 -1316l459 1316h76zM1110 -205c29 0 52 -23 52 -52s-23 -51 -52 -51s-51 22 -51 51s22 52 51 52z" />
    <glyph glyph-name="uni1E89" unicode="&#x1e89;" horiz-adv-x="1749" 
d="M914 933l343 -863l361 863h73l-394 -933h-81l-342 861l-342 -861h-80l-393 933h74l360 -863l343 863h78zM875 -205c29 0 52 -23 52 -52s-23 -51 -52 -51s-51 22 -51 51s22 52 51 52z" />
    <glyph glyph-name="uni1E92" unicode="&#x1e92;" horiz-adv-x="1343" 
d="M1207 1400v-56l-977 -1273h982v-71h-1081v58l976 1271h-955v71h1055zM672 -205c29 0 52 -23 52 -52s-23 -51 -52 -51s-51 22 -51 51s22 52 51 52z" />
    <glyph glyph-name="uni1E93" unicode="&#x1e93;" horiz-adv-x="1078" 
d="M937 933v-52l-711 -817h719v-64h-812v51l714 818h-693v64h783zM541 -205c29 0 52 -23 52 -52s-23 -51 -52 -51s-51 22 -51 51s22 52 51 52z" />
    <glyph glyph-name="uni1E94" unicode="&#x1e94;" horiz-adv-x="1343" 
d="M1207 1400v-56l-977 -1273h982v-71h-1081v58l976 1271h-955v71h1055zM388 -289v58h569v-58h-569z" />
    <glyph glyph-name="uni1E95" unicode="&#x1e95;" horiz-adv-x="1078" 
d="M937 933v-52l-711 -817h719v-64h-812v51l714 818h-693v64h783zM256 -289v58h569v-58h-569z" />
    <glyph glyph-name="uni1E96" unicode="&#x1e96;" horiz-adv-x="1192" 
d="M260 1440v-685c67 112 188 189 348 189c251 0 406 -154 406 -397v-547h-69v547c0 197 -120 331 -343 331c-202 0 -342 -148 -342 -338v-540h-70v1440h70zM318 -289v58h569v-58h-569z" />
    <glyph glyph-name="uni1E9E" unicode="&#x1e9e;" horiz-adv-x="1464" 
d="M764 670v56l407 437c-76 97 -197 176 -432 176c-275 0 -467 -147 -467 -413v-926h-75v930c0 296 213 481 543 481c287 0 436 -105 532 -238l-407 -437c268 -15 469 -158 469 -377c0 -229 -219 -370 -486 -370c-150 0 -244 28 -322 62l20 70c69 -32 160 -60 292 -60
c241 0 418 112 418 298c0 189 -181 311 -447 311h-45z" />
    <glyph glyph-name="Ygrave" unicode="&#x1ef2;" horiz-adv-x="1232" 
d="M1219 1400l-565 -781v-619h-74v619l-567 781h90l514 -710l515 710h87zM662 1485l-251 300h88l234 -300h-71z" />
    <glyph glyph-name="ygrave" unicode="&#x1ef3;" horiz-adv-x="996" 
d="M977 933l-790 -1335h-78l369 618l-451 717h79l411 -648l383 648h77zM524 1069l-251 300h88l234 -300h-71z" />
    <glyph glyph-name="uni1EF4" unicode="&#x1ef4;" horiz-adv-x="1232" 
d="M1219 1400l-565 -781v-619h-74v619l-567 781h90l514 -710l515 710h87zM617 -205c29 0 52 -23 52 -52s-23 -51 -52 -51s-51 22 -51 51s22 52 51 52z" />
    <glyph glyph-name="uni1EF5" unicode="&#x1ef5;" horiz-adv-x="996" 
d="M977 933l-790 -1335h-78l369 618l-451 717h79l411 -648l383 648h77zM698 -205c29 0 52 -23 52 -52s-23 -51 -52 -51s-51 22 -51 51s22 52 51 52z" />
    <glyph glyph-name="uni2007" unicode="&#x2007;" horiz-adv-x="1415" 
 />
    <glyph glyph-name="uni2008" unicode="&#x2008;" horiz-adv-x="516" 
 />
    <glyph glyph-name="uni2009" unicode="&#x2009;" horiz-adv-x="175" 
 />
    <glyph glyph-name="uni200B" unicode="&#x200b;" horiz-adv-x="0" 
 />
    <glyph glyph-name="uniFEFF" unicode="&#xfeff;" horiz-adv-x="0" 
 />
    <glyph glyph-name="uni2010" unicode="&#x2010;" horiz-adv-x="830" 
d="M677 556v-64h-524v64h524z" />
    <glyph glyph-name="uni2011" unicode="&#x2011;" horiz-adv-x="830" 
d="M677 556v-64h-524v64h524z" />
    <glyph glyph-name="figuredash" unicode="&#x2012;" horiz-adv-x="1200" 
d="M1075 556v-64h-950v64h950z" />
    <glyph glyph-name="endash" unicode="&#x2013;" horiz-adv-x="1212" 
d="M1081 556v-64h-950v64h950z" />
    <glyph glyph-name="emdash" unicode="&#x2014;" horiz-adv-x="1631" 
d="M1566 556v-64h-1500v64h1500z" />
    <glyph glyph-name="quoteleft" unicode="&#x2018;" horiz-adv-x="480" 
d="M251 984h-80l85 456h61z" />
    <glyph glyph-name="quoteright" unicode="&#x2019;" horiz-adv-x="480" 
d="M229 1440h80l-85 -456h-61z" />
    <glyph glyph-name="quotesinglbase" unicode="&#x201a;" horiz-adv-x="480" 
d="M229 218h80l-85 -456h-61z" />
    <glyph glyph-name="quotedblleft" unicode="&#x201c;" horiz-adv-x="788" 
d="M251 984h-80l85 456h61zM559 984h-80l85 456h61z" />
    <glyph glyph-name="quotedblright" unicode="&#x201d;" horiz-adv-x="787" 
d="M536 1440h80l-85 -456h-61zM229 1440h80l-85 -456h-61z" />
    <glyph glyph-name="quotedblbase" unicode="&#x201e;" horiz-adv-x="787" 
d="M536 218h80l-85 -456h-61zM229 218h80l-85 -456h-61z" />
    <glyph glyph-name="dagger" unicode="&#x2020;" horiz-adv-x="678" 
d="M369 734h-59v448h-200v58h200v200h59v-200h200v-58h-200v-448z" />
    <glyph glyph-name="daggerdbl" unicode="&#x2021;" horiz-adv-x="678" 
d="M369 1440v-188h200v-58h-200v-214h200v-57h-200v-189h-59v189h-200v57h200v214h-200v58h200v188h59z" />
    <glyph glyph-name="bullet" unicode="&#x2022;" horiz-adv-x="885" 
d="M443 670c79 0 146 -64 146 -146c0 -80 -67 -146 -146 -146c-82 0 -146 66 -146 146c0 82 64 146 146 146z" />
    <glyph glyph-name="uni2023" unicode="&#x2023;" horiz-adv-x="962" 
d="M756 524l-453 -263v526z" />
    <glyph glyph-name="ellipsis" unicode="&#x2026;" horiz-adv-x="1307" 
d="M258 111c32 0 60 -27 60 -60c0 -32 -28 -60 -60 -60s-60 28 -60 60c0 33 28 60 60 60zM654 111c32 0 59 -27 59 -60c0 -32 -27 -60 -59 -60s-60 28 -60 60c0 33 28 60 60 60zM1049 111c32 0 60 -27 60 -60c0 -32 -28 -60 -60 -60s-60 28 -60 60c0 33 28 60 60 60z" />
    <glyph glyph-name="perthousand" unicode="&#x2030;" horiz-adv-x="2700" 
d="M444 1411c196 0 345 -148 345 -342c0 -195 -149 -342 -345 -342c-191 0 -339 147 -339 342c0 194 148 342 339 342zM444 1349c-155 0 -274 -119 -274 -280c0 -162 119 -280 274 -280c160 0 279 118 279 280c0 161 -119 280 -279 280zM1417 1400l-883 -1400h-73l883 1400
h73zM1429 673c196 0 345 -149 345 -342c0 -195 -149 -342 -345 -342c-192 0 -340 147 -340 342c0 194 148 342 340 342zM1429 611c-155 0 -274 -118 -274 -280s119 -280 274 -280c159 0 279 118 279 280s-120 280 -279 280zM2251 673c196 0 345 -148 345 -342
c0 -195 -149 -342 -345 -342c-191 0 -340 147 -340 342c0 194 149 342 340 342zM2251 611c-155 0 -274 -118 -274 -280s119 -280 274 -280c160 0 279 118 279 280s-119 280 -279 280z" />
    <glyph glyph-name="minute" unicode="&#x2032;" horiz-adv-x="527" 
d="M290 1400h66l-126 -596h-67z" />
    <glyph glyph-name="second" unicode="&#x2033;" horiz-adv-x="804" 
d="M567 1400h66l-126 -596h-67zM290 1400h66l-126 -596h-67z" />
    <glyph glyph-name="uni2034" unicode="&#x2034;" horiz-adv-x="1027" 
d="M540 1400h66l-126 -596h-67zM790 1400h66l-126 -596h-67zM290 1400h66l-126 -596h-67z" />
    <glyph glyph-name="guilsinglleft" unicode="&#x2039;" horiz-adv-x="610" 
d="M230 524l195 -357h-76l-195 357l195 357h76z" />
    <glyph glyph-name="guilsinglright" unicode="&#x203a;" horiz-adv-x="610" 
d="M380 524l-195 357h76l195 -357l-195 -357h-76z" />
    <glyph glyph-name="fraction" unicode="&#x2044;" horiz-adv-x="401" 
d="M677 1400l-883 -1400h-70l883 1400h70z" />
    <glyph glyph-name="uni2070" unicode="&#x2070;" horiz-adv-x="821" 
d="M410 1404c168 0 305 -141 305 -377c0 -237 -137 -378 -305 -378s-304 141 -304 378c0 236 136 377 304 377zM410 1348c-134 0 -244 -117 -244 -321s110 -322 244 -322c135 0 244 118 244 322s-109 321 -244 321z" />
    <glyph glyph-name="uni2071" unicode="&#x2071;" horiz-adv-x="344" 
d="M201 1298v-643h-58v643h58zM172 1560c23 0 41 -18 41 -42c0 -23 -18 -41 -41 -41s-41 18 -41 41c0 24 18 42 41 42z" />
    <glyph glyph-name="uni2074" unicode="&#x2074;" horiz-adv-x="645" 
d="M467 1089v-216h136v-54h-136v-164h-59v164h-366v43l271 536h64l-266 -525h297v216h59z" />
    <glyph glyph-name="uni2075" unicode="&#x2075;" horiz-adv-x="664" 
d="M539 1398v-54h-345l-10 -249h114c179 0 272 -89 272 -215c0 -142 -106 -232 -253 -232c-103 0 -187 39 -248 109l36 39c52 -60 127 -93 211 -93c119 0 194 70 194 173c0 97 -70 166 -223 166h-157l13 356h396z" />
    <glyph glyph-name="uni2076" unicode="&#x2076;" horiz-adv-x="657" 
d="M405 1398l-191 -303c33 19 74 30 121 30c150 0 255 -103 255 -237c0 -137 -111 -239 -263 -239c-151 0 -263 102 -263 238c0 50 17 97 45 143l226 368h70zM327 1074c-117 0 -201 -79 -202 -187c0 -107 85 -186 202 -186s202 79 202 186c0 108 -85 187 -202 187z" />
    <glyph glyph-name="uni2077" unicode="&#x2077;" horiz-adv-x="622" 
d="M570 1398v-46l-346 -697h-69l346 688h-437v55h506z" />
    <glyph glyph-name="uni2078" unicode="&#x2078;" horiz-adv-x="726" 
d="M363 1404c139 0 254 -69 254 -194c0 -96 -66 -154 -150 -179c94 -23 168 -82 168 -182c0 -131 -123 -201 -272 -201c-150 0 -273 70 -273 201c0 100 74 159 168 182c-84 25 -149 83 -149 179c0 125 115 194 254 194zM363 1007c-116 0 -210 -53 -210 -152
c0 -103 94 -156 210 -156c115 0 210 53 210 156c0 99 -95 152 -210 152zM363 1353c-105 0 -192 -51 -192 -148c0 -98 87 -149 192 -149s192 51 192 149c0 97 -87 148 -192 148z" />
    <glyph glyph-name="uni2079" unicode="&#x2079;" horiz-adv-x="657" 
d="M254 655l191 303c-33 -19 -74 -30 -121 -30c-150 0 -255 103 -255 238c0 137 111 238 263 238c151 0 263 -101 263 -237c0 -51 -16 -98 -44 -143l-227 -369h-70zM332 979c117 0 201 79 202 187c0 107 -85 186 -202 186s-202 -78 -202 -186s85 -187 202 -187z" />
    <glyph glyph-name="uni207F" unicode="&#x207f;" horiz-adv-x="848" 
d="M438 1305c169 0 275 -104 275 -270v-380h-58v375c0 132 -80 221 -227 221c-130 0 -227 -94 -227 -226v-370h-58v643h57v-127c44 80 127 134 238 134z" />
    <glyph glyph-name="uni2080" unicode="&#x2080;" horiz-adv-x="821" 
d="M410 397c168 0 305 -141 305 -377c0 -237 -137 -378 -305 -378s-304 141 -304 378c0 236 136 377 304 377zM410 341c-134 0 -244 -117 -244 -321s110 -322 244 -322c135 0 244 118 244 322s-109 321 -244 321z" />
    <glyph glyph-name="uni2081" unicode="&#x2081;" horiz-adv-x="531" 
d="M362 397v-749h-59v667l-250 -105v58z" />
    <glyph glyph-name="uni2082" unicode="&#x2082;" horiz-adv-x="628" 
d="M108 238l-39 36c38 59 104 123 226 123c148 0 231 -97 231 -220c0 -90 -46 -156 -105 -217l-251 -257h385v-55h-469v46l293 300c49 50 86 106 86 179c0 92 -61 168 -175 168c-93 0 -147 -50 -182 -103z" />
    <glyph glyph-name="uni2083" unicode="&#x2083;" horiz-adv-x="625" 
d="M275 397c144 0 244 -80 244 -194c0 -95 -57 -156 -142 -180c93 -23 157 -87 157 -178c0 -138 -124 -203 -253 -203c-98 0 -173 33 -228 88l34 40c49 -47 113 -75 191 -75c102 0 196 48 196 154c0 92 -88 148 -194 148h-106v53h106c101 0 178 51 178 149
c0 85 -76 145 -186 145c-80 0 -141 -37 -180 -87l-37 38c47 59 120 102 220 102z" />
    <glyph glyph-name="uni2084" unicode="&#x2084;" horiz-adv-x="645" 
d="M467 82v-216h136v-54h-136v-164h-59v164h-366v43l271 536h64l-266 -525h297v216h59z" />
    <glyph glyph-name="uni2085" unicode="&#x2085;" horiz-adv-x="664" 
d="M539 391v-54h-345l-10 -249h114c179 0 272 -89 272 -215c0 -142 -106 -232 -253 -232c-103 0 -187 39 -248 109l36 39c52 -60 127 -93 211 -93c119 0 194 70 194 173c0 97 -70 166 -223 166h-157l13 356h396z" />
    <glyph glyph-name="uni2086" unicode="&#x2086;" horiz-adv-x="657" 
d="M405 391l-191 -303c33 19 74 30 121 30c150 0 255 -103 255 -237c0 -137 -111 -239 -263 -239c-151 0 -263 102 -263 238c0 50 17 97 45 143l226 368h70zM327 67c-117 0 -201 -79 -202 -187c0 -107 85 -186 202 -186s202 79 202 186c0 108 -85 187 -202 187z" />
    <glyph glyph-name="uni2087" unicode="&#x2087;" horiz-adv-x="622" 
d="M570 391v-46l-346 -697h-69l346 688h-437v55h506z" />
    <glyph glyph-name="uni2088" unicode="&#x2088;" horiz-adv-x="726" 
d="M363 397c139 0 254 -69 254 -194c0 -96 -66 -154 -150 -179c94 -23 168 -82 168 -182c0 -131 -123 -201 -272 -201c-150 0 -273 70 -273 201c0 100 74 159 168 182c-84 25 -149 83 -149 179c0 125 115 194 254 194zM363 0c-116 0 -210 -53 -210 -152
c0 -103 94 -156 210 -156c115 0 210 53 210 156c0 99 -95 152 -210 152zM363 346c-105 0 -192 -51 -192 -148c0 -98 87 -149 192 -149s192 51 192 149c0 97 -87 148 -192 148z" />
    <glyph glyph-name="uni2089" unicode="&#x2089;" horiz-adv-x="657" 
d="M254 -352l191 303c-33 -19 -74 -30 -121 -30c-150 0 -255 103 -255 238c0 137 111 238 263 238c151 0 263 -101 263 -237c0 -51 -16 -98 -44 -143l-227 -369h-70zM332 -28c117 0 201 79 202 187c0 107 -85 186 -202 186s-202 -78 -202 -186s85 -187 202 -187z" />
    <glyph glyph-name="Euro" unicode="&#x20ac;" horiz-adv-x="1400" 
d="M1048 576v-63h-724c53 -281 231 -457 510 -457c202 0 352 96 434 246l48 -47c-94 -164 -261 -266 -482 -266c-321 0 -527 204 -584 524h-169v63h160c-4 40 -6 81 -6 124s2 84 6 124h-160v63h169c57 320 263 524 584 524c221 0 389 -102 483 -264l-49 -49
c-83 150 -232 246 -435 246c-279 0 -456 -176 -509 -457h724v-63h-733c-5 -40 -7 -81 -7 -124s2 -85 7 -124h733z" />
    <glyph glyph-name="uni20BA" unicode="&#x20ba;" horiz-adv-x="1400" 
d="M988 770v-66l-566 -275v-363h290c220 0 370 88 499 318l61 -34c-142 -255 -312 -354 -566 -354h-356v398l-207 -100v66l207 100v247l-207 -100v66l207 100v627h72v-592l566 275v-66l-566 -275v-247z" />
    <glyph glyph-name="uni2100" unicode="&#x2100;" horiz-adv-x="1789" 
d="M448 1411c158 0 271 -75 271 -260v-390h-58v103c-57 -60 -143 -111 -257 -111c-145 0 -236 77 -236 186c0 110 91 186 268 186h224v19c0 154 -88 213 -218 213c-92 0 -159 -35 -208 -76l-29 43c58 49 138 87 243 87zM409 805c108 0 197 53 252 118v154h-217
c-149 0 -215 -57 -215 -136s70 -136 180 -136zM1428 1400l-883 -1400h-70l883 1400h70zM1383 648c97 0 181 -38 239 -103l-41 -36c-52 53 -119 85 -199 85c-151 0 -266 -117 -266 -274c0 -159 115 -274 266 -274c79 0 149 32 199 84l41 -37c-58 -64 -142 -103 -239 -103
c-189 0 -327 142 -327 330s138 328 327 328z" />
    <glyph glyph-name="uni2101" unicode="&#x2101;" horiz-adv-x="1789" 
d="M447 1411c158 0 271 -75 271 -260v-390h-58v103c-57 -60 -143 -111 -257 -111c-145 0 -236 77 -236 186c0 110 91 186 268 186h224v19c0 154 -88 213 -218 213c-92 0 -159 -35 -208 -76l-29 43c58 49 138 87 243 87zM408 805c108 0 197 53 252 118v154h-217
c-149 0 -215 -57 -215 -136s70 -136 180 -136zM1427 1400l-883 -1400h-70l883 1400h70zM1605 575l-23 -46c-49 33 -134 67 -228 67c-108 0 -187 -47 -187 -128c0 -62 49 -106 165 -117l82 -8c131 -13 209 -66 209 -166c0 -123 -114 -187 -272 -187c-110 0 -199 31 -263 79
l26 46c55 -41 126 -74 237 -74c122 0 212 41 212 132c0 68 -54 107 -164 118l-83 8c-149 14 -209 79 -209 166c0 115 102 182 246 182c104 0 192 -32 252 -72z" />
    <glyph glyph-name="afii61248" unicode="&#x2105;" horiz-adv-x="1789" 
d="M463 1411c97 0 181 -38 239 -103l-41 -36c-52 53 -119 85 -199 85c-151 0 -266 -117 -266 -274c0 -159 115 -274 266 -274c79 0 149 32 199 84l41 -37c-58 -64 -142 -103 -239 -103c-189 0 -327 142 -327 330s138 328 327 328zM1368 1400l-883 -1400h-70l883 1400h70z
M1324 648c188 0 329 -141 329 -328c0 -188 -141 -330 -329 -330c-187 0 -329 142 -329 330c0 187 142 328 329 328zM1324 594c-153 0 -269 -117 -269 -274c0 -158 116 -274 269 -274s270 116 270 274c0 157 -117 274 -270 274z" />
    <glyph glyph-name="uni2106" unicode="&#x2106;" horiz-adv-x="1789" 
d="M462 1411c97 0 181 -38 239 -103l-41 -36c-52 53 -119 85 -199 85c-151 0 -266 -117 -266 -274c0 -159 115 -274 266 -274c79 0 149 32 199 84l41 -37c-58 -64 -142 -103 -239 -103c-189 0 -327 142 -327 330s138 328 327 328zM1367 1400l-883 -1400h-70l883 1400h70z
M1654 641v-379c0 -173 -122 -272 -285 -272c-164 0 -285 99 -285 272v379h58v-375c0 -138 92 -220 227 -220s227 82 227 220v375h58z" />
    <glyph glyph-name="afii61289" unicode="&#x2113;" horiz-adv-x="1091" 
d="M200 394l-26 61c60 26 118 56 173 88l1 558c0 206 104 350 265 350c154 0 260 -115 260 -282c0 -269 -196 -496 -456 -659v-199c0 -174 84 -257 217 -257c87 0 159 32 211 82l30 -55c-59 -55 -142 -92 -246 -92c-176 0 -282 106 -282 321v158c-48 -27 -97 -52 -147 -74z
M417 1101v-514c227 151 385 352 385 582c0 132 -73 217 -189 217c-117 0 -196 -111 -196 -285z" />
    <glyph glyph-name="afii61352" unicode="&#x2116;" horiz-adv-x="2390" 
d="M2288 570v-63h-632v63h632zM1972 1409c186 0 326 -140 326 -326c0 -185 -140 -324 -326 -324c-185 0 -325 139 -325 324c0 186 140 326 325 326zM1971 1354c-150 0 -265 -114 -265 -271c0 -156 115 -270 265 -270c152 0 268 114 268 270c0 157 -116 271 -268 271z
M1339 1400v-1400h-67l-979 1271l-1 -1271h-74v1400h67l979 -1271v1271h75z" />
    <glyph glyph-name="uni2117" unicode="&#x2117;" horiz-adv-x="1892" 
d="M947 1490c434 0 789 -353 789 -787s-355 -787 -789 -787c-436 0 -790 353 -790 787s354 787 790 787zM947 1428c-402 0 -726 -324 -726 -725s324 -725 726 -725c400 0 725 324 725 725s-325 725 -725 725zM1009 1117c190 0 309 -91 309 -250c0 -156 -119 -248 -308 -248
h-254v-334h-63v832h316zM1008 1059h-252v-383h252c151 0 246 67 246 191c0 125 -95 192 -246 192z" />
    <glyph glyph-name="uni2120" unicode="&#x2120;" horiz-adv-x="1304" 
d="M538 1350l-23 -43c-42 25 -101 50 -180 50c-89 0 -155 -35 -155 -97c0 -51 43 -81 141 -90l63 -5c108 -10 173 -51 173 -131c0 -106 -104 -153 -227 -153c-89 0 -170 28 -220 60l26 42c41 -26 111 -54 194 -54c96 0 171 31 171 99c0 57 -48 81 -143 89l-65 6
c-115 10 -170 58 -170 132c0 93 91 150 210 150c92 0 156 -26 205 -55zM1216 887h-51v440l-193 -380h-51l-194 380v-440h-51v513h71l199 -392l199 392h71v-513z" />
    <glyph glyph-name="trademark" unicode="&#x2122;" horiz-adv-x="1243" 
d="M1155 888h-52v440l-192 -379h-52l-193 379v-440h-52v513h71l200 -391l199 391h71v-513zM327 888h-52v464h-187v48h425v-48h-186v-464z" />
    <glyph glyph-name="Omega" unicode="&#x2126;" horiz-adv-x="1717" 
d="M87 71h439c-223 104 -378 328 -378 618c0 428 312 722 710 722c399 0 710 -294 710 -722c0 -290 -154 -514 -378 -618h439v-71h-570v60c252 81 431 311 431 626c0 392 -279 654 -632 654c-352 0 -632 -262 -632 -654c0 -315 180 -545 432 -626v-60h-571v71z" />
    <glyph glyph-name="estimated" unicode="&#x212e;" horiz-adv-x="2000" 
d="M420 685v-365c0 -91 21 -158 92 -217c132 -108 302 -168 488 -168c266 0 501 123 636 331l25 -18c-142 -216 -386 -344 -661 -344c-434 0 -790 319 -790 796s356 796 790 796s790 -319 790 -796v-15h-1370zM420 715h1164v361c0 91 -21 158 -91 217
c-132 110 -305 172 -493 172c-186 0 -356 -60 -488 -168c-71 -59 -92 -126 -92 -217v-365z" />
    <glyph glyph-name="uni214D" unicode="&#x214d;" horiz-adv-x="1789" 
d="M463 1400l307 -729h-63l-87 210h-384l-86 -210h-62l306 729h69zM1676 656l-26 -49c-52 37 -130 73 -238 73c-117 0 -207 -53 -207 -147c0 -74 57 -120 189 -135l87 -9c141 -16 220 -72 220 -183c0 -147 -133 -212 -291 -212c-119 0 -222 41 -284 85l29 48
c53 -36 143 -79 256 -79c127 0 228 46 228 151c0 84 -64 121 -189 135l-88 9c-155 17 -219 83 -219 185c0 129 114 206 267 206c121 0 205 -36 266 -78zM428 1345l-169 -410h339zM1438 1400l-883 -1400h-70l883 1400h70z" />
    <glyph glyph-name="uni2150" unicode="&#x2150;" horiz-adv-x="1593" 
d="M1224 1400l-883 -1400h-70l883 1400h70zM1541 743v-46l-346 -697h-69l346 688h-437v55h506zM362 1404v-749h-59v667l-250 -105v58z" />
    <glyph glyph-name="uni2151" unicode="&#x2151;" horiz-adv-x="1605" 
d="M1224 1400l-883 -1400h-70l883 1400h70zM1202 0l191 303c-33 -19 -74 -30 -121 -30c-150 0 -255 103 -255 238c0 137 111 238 263 238c151 0 263 -101 263 -237c0 -51 -16 -98 -44 -143l-227 -369h-70zM1280 324c117 0 201 79 202 187c0 107 -85 186 -202 186
s-202 -78 -202 -186s85 -187 202 -187zM362 1404v-749h-59v667l-250 -105v58z" />
    <glyph glyph-name="uni2152" unicode="&#x2152;" horiz-adv-x="2319" 
d="M1224 1400l-883 -1400h-70l883 1400h70zM1330 749v-749h-59v667l-250 -105v58zM1908 749c168 0 305 -141 305 -377c0 -237 -137 -378 -305 -378s-304 141 -304 378c0 236 136 377 304 377zM1908 693c-134 0 -244 -117 -244 -321s110 -322 244 -322c135 0 244 118 244 322
s-109 321 -244 321zM362 1404v-749h-59v667l-250 -105v58z" />
    <glyph glyph-name="onethird" unicode="&#x2153;" horiz-adv-x="1572" 
d="M1224 1400l-883 -1400h-70l883 1400h70zM1223 749c144 0 244 -80 244 -194c0 -95 -57 -156 -142 -180c93 -23 157 -87 157 -178c0 -138 -124 -203 -253 -203c-98 0 -173 33 -228 88l34 40c49 -47 113 -75 191 -75c102 0 196 48 196 154c0 92 -88 148 -194 148h-106v53
h106c101 0 178 51 178 149c0 85 -76 145 -186 145c-80 0 -141 -37 -180 -87l-37 38c47 59 120 102 220 102zM362 1404v-749h-59v667l-250 -105v58z" />
    <glyph glyph-name="twothirds" unicode="&#x2154;" horiz-adv-x="1683" 
d="M1335 1400l-883 -1400h-70l883 1400h70zM1334 749c144 0 244 -80 244 -194c0 -95 -57 -156 -142 -180c93 -23 157 -87 157 -178c0 -138 -124 -203 -253 -203c-98 0 -173 33 -228 88l34 40c49 -47 113 -75 191 -75c102 0 196 48 196 154c0 92 -88 148 -194 148h-106v53
h106c101 0 178 51 178 149c0 85 -76 145 -186 145c-80 0 -141 -37 -180 -87l-37 38c47 59 120 102 220 102zM108 1245l-39 36c38 59 104 123 226 123c148 0 231 -97 231 -220c0 -90 -46 -156 -105 -217l-251 -257h385v-55h-469v46l293 300c49 50 86 106 86 179
c0 92 -61 168 -175 168c-93 0 -147 -50 -182 -103z" />
    <glyph glyph-name="uni2155" unicode="&#x2155;" horiz-adv-x="1612" 
d="M1224 1400l-883 -1400h-70l883 1400h70zM1487 743v-54h-345l-10 -249h114c179 0 272 -89 272 -215c0 -142 -106 -232 -253 -232c-103 0 -187 39 -248 109l36 39c52 -60 127 -93 211 -93c119 0 194 70 194 173c0 97 -70 166 -223 166h-157l13 356h396zM362 1404v-749h-59
v667l-250 -105v58z" />
    <glyph glyph-name="uni2156" unicode="&#x2156;" horiz-adv-x="1723" 
d="M1335 1400l-883 -1400h-70l883 1400h70zM1598 743v-54h-345l-10 -249h114c179 0 272 -89 272 -215c0 -142 -106 -232 -253 -232c-103 0 -187 39 -248 109l36 39c52 -60 127 -93 211 -93c119 0 194 70 194 173c0 97 -70 166 -223 166h-157l13 356h396zM108 1245l-39 36
c38 59 104 123 226 123c148 0 231 -97 231 -220c0 -90 -46 -156 -105 -217l-251 -257h385v-55h-469v46l293 300c49 50 86 106 86 179c0 92 -61 168 -175 168c-93 0 -147 -50 -182 -103z" />
    <glyph glyph-name="uni2157" unicode="&#x2157;" horiz-adv-x="1690" 
d="M1302 1400l-883 -1400h-70l883 1400h70zM1565 743v-54h-345l-10 -249h114c179 0 272 -89 272 -215c0 -142 -106 -232 -253 -232c-103 0 -187 39 -248 109l36 39c52 -60 127 -93 211 -93c119 0 194 70 194 173c0 97 -70 166 -223 166h-157l13 356h396zM275 1404
c144 0 244 -80 244 -194c0 -95 -57 -156 -142 -180c93 -23 157 -87 157 -178c0 -138 -124 -203 -253 -203c-98 0 -173 33 -228 88l34 40c49 -47 113 -75 191 -75c102 0 196 48 196 154c0 92 -88 148 -194 148h-106v53h106c101 0 178 51 178 149c0 85 -76 145 -186 145
c-80 0 -141 -37 -180 -87l-37 38c47 59 120 102 220 102z" />
    <glyph glyph-name="uni2158" unicode="&#x2158;" horiz-adv-x="1710" 
d="M1322 1400l-883 -1400h-70l883 1400h70zM1585 743v-54h-345l-10 -249h114c179 0 272 -89 272 -215c0 -142 -106 -232 -253 -232c-103 0 -187 39 -248 109l36 39c52 -60 127 -93 211 -93c119 0 194 70 194 173c0 97 -70 166 -223 166h-157l13 356h396zM467 1089v-216h136
v-54h-136v-164h-59v164h-366v43l271 536h64l-266 -525h297v216h59z" />
    <glyph glyph-name="uni2159" unicode="&#x2159;" horiz-adv-x="1529" 
d="M1224 1400l-883 -1400h-70l883 1400h70zM1277 743l-191 -303c33 19 74 30 121 30c150 0 255 -103 255 -237c0 -137 -111 -239 -263 -239c-151 0 -263 102 -263 238c0 50 17 97 45 143l226 368h70zM1199 419c-117 0 -201 -79 -202 -187c0 -107 85 -186 202 -186
s202 79 202 186c0 108 -85 187 -202 187zM362 1404v-749h-59v667l-250 -105v58z" />
    <glyph glyph-name="uni215A" unicode="&#x215a;" horiz-adv-x="1643" 
d="M1338 1400l-883 -1400h-70l883 1400h70zM1391 743l-191 -303c33 19 74 30 121 30c150 0 255 -103 255 -237c0 -137 -111 -239 -263 -239c-151 0 -263 102 -263 238c0 50 17 97 45 143l226 368h70zM1313 419c-117 0 -201 -79 -202 -187c0 -107 85 -186 202 -186
s202 79 202 186c0 108 -85 187 -202 187zM539 1398v-54h-345l-10 -249h114c179 0 272 -89 272 -215c0 -142 -106 -232 -253 -232c-103 0 -187 39 -248 109l36 39c52 -60 127 -93 211 -93c119 0 194 70 194 173c0 97 -70 166 -223 166h-157l13 356h396z" />
    <glyph glyph-name="oneeighth" unicode="&#x215b;" horiz-adv-x="1650" 
d="M1224 1400l-883 -1400h-70l883 1400h70zM1288 749c139 0 254 -69 254 -194c0 -96 -66 -154 -150 -179c94 -23 168 -82 168 -182c0 -131 -123 -201 -272 -201c-150 0 -273 70 -273 201c0 100 74 159 168 182c-84 25 -149 83 -149 179c0 125 115 194 254 194zM1288 352
c-116 0 -210 -53 -210 -152c0 -103 94 -156 210 -156c115 0 210 53 210 156c0 99 -95 152 -210 152zM1288 698c-105 0 -192 -51 -192 -148c0 -98 87 -149 192 -149s192 51 192 149c0 97 -87 148 -192 148zM362 1404v-749h-59v667l-250 -105v58z" />
    <glyph glyph-name="threeeighths" unicode="&#x215c;" horiz-adv-x="1728" 
d="M1302 1400l-883 -1400h-70l883 1400h70zM1366 749c139 0 254 -69 254 -194c0 -96 -66 -154 -150 -179c94 -23 168 -82 168 -182c0 -131 -123 -201 -272 -201c-150 0 -273 70 -273 201c0 100 74 159 168 182c-84 25 -149 83 -149 179c0 125 115 194 254 194zM1366 352
c-116 0 -210 -53 -210 -152c0 -103 94 -156 210 -156c115 0 210 53 210 156c0 99 -95 152 -210 152zM1366 698c-105 0 -192 -51 -192 -148c0 -98 87 -149 192 -149s192 51 192 149c0 97 -87 148 -192 148zM275 1404c144 0 244 -80 244 -194c0 -95 -57 -156 -142 -180
c93 -23 157 -87 157 -178c0 -138 -124 -203 -253 -203c-98 0 -173 33 -228 88l34 40c49 -47 113 -75 191 -75c102 0 196 48 196 154c0 92 -88 148 -194 148h-106v53h106c101 0 178 51 178 149c0 85 -76 145 -186 145c-80 0 -141 -37 -180 -87l-37 38c47 59 120 102 220 102z
" />
    <glyph glyph-name="fiveeighths" unicode="&#x215d;" horiz-adv-x="1765" 
d="M1338 1400l-883 -1400h-70l883 1400h70zM1402 749c139 0 254 -69 254 -194c0 -96 -66 -154 -150 -179c94 -23 168 -82 168 -182c0 -131 -123 -201 -272 -201c-150 0 -273 70 -273 201c0 100 74 159 168 182c-84 25 -149 83 -149 179c0 125 115 194 254 194zM1402 352
c-116 0 -210 -53 -210 -152c0 -103 94 -156 210 -156c115 0 210 53 210 156c0 99 -95 152 -210 152zM1402 698c-105 0 -192 -51 -192 -148c0 -98 87 -149 192 -149s192 51 192 149c0 97 -87 148 -192 148zM539 1398v-54h-345l-10 -249h114c179 0 272 -89 272 -215
c0 -142 -106 -232 -253 -232c-103 0 -187 39 -248 109l36 39c52 -60 127 -93 211 -93c119 0 194 70 194 173c0 97 -70 166 -223 166h-157l13 356h396z" />
    <glyph glyph-name="seveneighths" unicode="&#x215e;" horiz-adv-x="1609" 
d="M1182 1400l-883 -1400h-70l883 1400h70zM1246 749c139 0 254 -69 254 -194c0 -96 -66 -154 -150 -179c94 -23 168 -82 168 -182c0 -131 -123 -201 -272 -201c-150 0 -273 70 -273 201c0 100 74 159 168 182c-84 25 -149 83 -149 179c0 125 115 194 254 194zM1246 352
c-116 0 -210 -53 -210 -152c0 -103 94 -156 210 -156c115 0 210 53 210 156c0 99 -95 152 -210 152zM1246 698c-105 0 -192 -51 -192 -148c0 -98 87 -149 192 -149s192 51 192 149c0 97 -87 148 -192 148zM570 1398v-46l-346 -697h-69l346 688h-437v55h506z" />
    <glyph glyph-name="uni215F" unicode="&#x215f;" horiz-adv-x="948" 
d="M1224 1400l-883 -1400h-70l883 1400h70zM362 1404v-749h-59v667l-250 -105v58z" />
    <glyph glyph-name="uni2189" unicode="&#x2189;" horiz-adv-x="1800" 
d="M1452 1400l-883 -1400h-70l883 1400h70zM1450 749c144 0 244 -80 244 -194c0 -95 -57 -156 -142 -180c93 -23 157 -87 157 -178c0 -138 -124 -203 -253 -203c-98 0 -173 33 -228 88l34 40c49 -47 113 -75 191 -75c102 0 196 48 196 154c0 92 -88 148 -194 148h-106v53
h106c101 0 178 51 178 149c0 85 -76 145 -186 145c-80 0 -141 -37 -180 -87l-37 38c47 59 120 102 220 102zM410 1404c168 0 305 -141 305 -377c0 -237 -137 -378 -305 -378s-304 141 -304 378c0 236 136 377 304 377zM410 1348c-134 0 -244 -117 -244 -321
s110 -322 244 -322c135 0 244 118 244 322s-109 321 -244 321z" />
    <glyph glyph-name="arrowleft" unicode="&#x2190;" horiz-adv-x="2000" 
d="M1737 606h-1271c-27 0 -48 0 -89 2c31 -24 61 -56 86 -80l443 -442l-46 -45l-596 597l596 596l46 -45l-443 -442c-25 -24 -55 -55 -86 -80c41 2 62 2 89 2h1271v-63z" />
    <glyph glyph-name="arrowup" unicode="&#x2191;" horiz-adv-x="2000" 
d="M969 -33v1271c0 27 0 48 2 88c-24 -30 -55 -61 -79 -85l-443 -443l-45 46l597 596l596 -596l-45 -46l-442 443c-24 24 -55 55 -80 85c3 -40 3 -61 3 -88v-1271h-64z" />
    <glyph glyph-name="arrowright" unicode="&#x2192;" horiz-adv-x="2000" 
d="M264 669h1271c27 0 48 0 88 -3c-30 25 -61 56 -85 80l-443 442l46 46l596 -597l-596 -597l-46 46l443 442c24 24 55 55 85 79c-40 -2 -61 -2 -88 -2h-1271v64z" />
    <glyph glyph-name="arrowdown" unicode="&#x2193;" horiz-adv-x="2000" 
d="M1032 1436v-1271c0 -27 0 -48 -3 -88c25 30 56 61 80 85l442 443l46 -46l-597 -596l-597 596l46 46l442 -443c24 -24 55 -55 80 -85c-3 40 -3 61 -3 88v1271h64z" />
    <glyph glyph-name="uni2196" unicode="&#x2196;" horiz-adv-x="2000" 
d="M1487 98l-899 899c-19 19 -33 34 -60 64c3 -39 4 -83 4 -117v-625h-64v843l844 1v-65h-626c-35 0 -78 1 -117 5c31 -28 45 -42 64 -61l899 -899z" />
    <glyph glyph-name="uni2197" unicode="&#x2197;" horiz-adv-x="2000" 
d="M457 139l899 899c19 19 33 34 64 61c-39 -4 -83 -5 -117 -5h-625v64h843l1 -844h-65v626c0 35 0 78 5 117c-28 -31 -42 -45 -61 -64l-899 -899z" />
    <glyph glyph-name="uni2198" unicode="&#x2198;" horiz-adv-x="2000" 
d="M502 1181l899 -899c19 -19 34 -34 61 -64c-4 39 -5 82 -5 117v625h65l-1 -843l-844 -1v64h626c35 0 78 0 117 -4c-31 27 -46 41 -64 60l-899 900z" />
    <glyph glyph-name="uni2199" unicode="&#x2199;" horiz-adv-x="2000" 
d="M1533 1131l-899 -899c-19 -19 -33 -34 -64 -61c39 4 83 4 117 4h625v-64l-843 1v843h64v-625c0 -35 0 -78 -4 -117c27 30 42 44 60 63l899 900z" />
    <glyph glyph-name="partialdiff" unicode="&#x2202;" horiz-adv-x="1168" 
d="M276 1390l31 57c354 -173 729 -553 729 -981c0 -271 -207 -477 -478 -477c-270 0 -475 206 -475 477c0 272 205 478 475 478c128 0 242 -47 325 -126c-114 228 -335 441 -607 572zM558 878c-230 0 -404 -174 -404 -412c0 -237 174 -411 404 -411c231 0 407 174 407 411
c0 238 -176 412 -407 412z" />
    <glyph glyph-name="Delta" unicode="&#x2206;" horiz-adv-x="1429" 
d="M758 1404l583 -1346v-58h-1254v58l583 1346h88zM714 1324l-543 -1253h1085z" />
    <glyph glyph-name="product" unicode="&#x220f;" horiz-adv-x="1440" 
d="M1221 1400v-1665h-75v1594h-854v-1594h-74v1665h1003z" />
    <glyph glyph-name="summation" unicode="&#x2211;" horiz-adv-x="1321" 
d="M1188 1400v-71h-946l621 -728v-42l-624 -753h951v-71h-1059v58l653 785l-652 764v58h1056z" />
    <glyph glyph-name="minus" unicode="&#x2212;" horiz-adv-x="1200" 
d="M1015 556v-64h-830v64h830z" />
    <glyph glyph-name="uni2219" unicode="&#x2219;" horiz-adv-x="1200" 
d="M600 670c79 0 146 -64 146 -146c0 -80 -67 -146 -146 -146c-82 0 -146 66 -146 146c0 82 64 146 146 146z" />
    <glyph glyph-name="radical" unicode="&#x221a;" horiz-adv-x="1201" 
d="M1157 1440l-604 -1705h-91l-423 1000h82l386 -912l574 1617h76z" />
    <glyph glyph-name="infinity" unicode="&#x221e;" horiz-adv-x="1566" 
d="M58 520c0 212 147 342 318 342c149 0 255 -118 406 -295c152 177 259 295 408 295c171 0 318 -130 318 -342c0 -211 -147 -342 -318 -342c-149 0 -256 118 -408 295c-151 -177 -257 -295 -406 -295c-171 0 -318 131 -318 342zM1441 520c0 176 -114 278 -251 278
c-120 0 -210 -99 -364 -278c154 -179 244 -278 364 -278c137 0 251 102 251 278zM125 520c0 -176 113 -278 251 -278c120 0 209 99 363 277v1c-154 179 -243 278 -363 278c-138 0 -251 -102 -251 -278z" />
    <glyph glyph-name="integral" unicode="&#x222b;" horiz-adv-x="696" 
d="M673 1399l-18 -63c-27 6 -53 9 -82 9c-161 0 -220 -99 -220 -269v-1017c0 -200 -77 -335 -285 -335c-37 0 -72 4 -105 12l18 63c27 -6 54 -9 82 -9c162 0 220 99 220 269v1017c0 200 78 335 285 335c37 0 73 -4 105 -12z" />
    <glyph glyph-name="congruent" unicode="&#x2245;" horiz-adv-x="1200" 
d="M1015 391v-64h-830v64h830zM1015 721v-64h-830v64h830zM981 1095l40 -45c-65 -73 -134 -112 -242 -112c-175 0 -208 98 -365 98c-86 0 -142 -33 -199 -96l-39 45c64 73 133 112 242 112c175 0 207 -98 365 -98c86 0 141 33 198 96z" />
    <glyph glyph-name="approxequal" unicode="&#x2248;" horiz-adv-x="1200" 
d="M981 768l40 -45c-65 -73 -134 -112 -242 -112c-175 0 -208 98 -365 98c-86 0 -142 -33 -199 -96l-39 45c64 73 133 112 242 112c175 0 207 -98 365 -98c86 0 141 33 198 96zM981 442l40 -45c-65 -73 -134 -112 -242 -112c-175 0 -208 98 -365 98c-86 0 -142 -33 -199 -96
l-39 45c64 73 133 112 242 112c175 0 207 -98 365 -98c86 0 141 33 198 96z" />
    <glyph glyph-name="uni2259" unicode="&#x2259;" horiz-adv-x="1200" 
d="M1015 391v-64h-830v64h830zM1015 721v-64h-830v64h830zM909 908h-77l-232 224l-232 -224h-77l266 273h86z" />
    <glyph glyph-name="notequal" unicode="&#x2260;" horiz-adv-x="1200" 
d="M1015 391v-64h-477l-132 -271h-68l132 271h-285v64h316l129 266h-445v64h476l133 271h68l-132 -271h285v-64h-316l-130 -266h446z" />
    <glyph glyph-name="lessequal" unicode="&#x2264;" horiz-adv-x="1200" 
d="M975 1077v-74l-678 -309l678 -308v-74l-750 347v71zM225 105v64h750v-64h-750z" />
    <glyph glyph-name="greaterequal" unicode="&#x2265;" horiz-adv-x="1200" 
d="M225 1003v74l750 -347v-71l-750 -347v74l678 308zM975 169v-64h-750v64h750z" />
    <glyph glyph-name="dotmath" unicode="&#x22c5;" horiz-adv-x="1200" 
d="M600 584c32 0 60 -28 60 -60s-28 -60 -60 -60s-60 28 -60 60s28 60 60 60z" />
    <glyph glyph-name="uni2300" unicode="&#x2205;" horiz-adv-x="1394" 
d="M1131 999l44 -46l-136 -136c70 -80 112 -184 112 -297c0 -250 -204 -454 -454 -454c-114 0 -218 42 -298 111l-136 -136l-45 46l135 135c-69 80 -111 184 -111 298c0 249 204 455 455 455c113 0 217 -43 297 -113zM306 520c0 -98 36 -187 95 -255l551 551
c-69 59 -158 95 -255 95c-216 0 -391 -175 -391 -391zM697 130c215 0 390 174 390 390c0 97 -36 186 -94 254l-551 -551c69 -58 158 -93 255 -93z" />
    <glyph glyph-name="uni2300" unicode="&#x2300;" horiz-adv-x="1394" 
d="M1131 999l44 -46l-136 -136c70 -80 112 -184 112 -297c0 -250 -204 -454 -454 -454c-114 0 -218 42 -298 111l-136 -136l-45 46l135 135c-69 80 -111 184 -111 298c0 249 204 455 455 455c113 0 217 -43 297 -113zM306 520c0 -98 36 -187 95 -255l551 551
c-69 59 -158 95 -255 95c-216 0 -391 -175 -391 -391zM697 130c215 0 390 174 390 390c0 97 -36 186 -94 254l-551 -551c69 -58 158 -93 255 -93z" />
    <glyph glyph-name="uni2460" unicode="&#x2460;" horiz-adv-x="2050" 
d="M1025 1567c480 0 868 -388 868 -866s-388 -868 -868 -868s-868 390 -868 868s388 866 868 866zM1025 1501c-442 0 -800 -357 -800 -800s358 -802 800 -802s801 359 801 802s-359 800 -801 800zM1116 1137v-839h-63v752l-302 -128v63z" />
    <glyph glyph-name="uni2461" unicode="&#x2461;" horiz-adv-x="2050" 
d="M1025 1567c480 0 868 -388 868 -866s-388 -868 -868 -868s-868 390 -868 868s388 866 868 866zM1025 1501c-442 0 -800 -357 -800 -800s358 -802 800 -802s801 359 801 802s-359 800 -801 800zM805 961l-42 38c42 67 118 139 252 139c168 0 261 -110 261 -248
c0 -102 -55 -177 -120 -242l-286 -291h438v-59h-528v49l333 337c56 56 98 120 98 202c0 105 -70 191 -201 191c-105 0 -166 -55 -205 -116z" />
    <glyph glyph-name="uni2462" unicode="&#x2462;" horiz-adv-x="2050" 
d="M1025 1567c480 0 868 -388 868 -866s-388 -868 -868 -868s-868 390 -868 868s388 866 868 866zM1025 1501c-442 0 -800 -357 -800 -800s358 -802 800 -802s801 359 801 802s-359 800 -801 800zM1006 1138c171 0 287 -92 287 -218c0 -107 -67 -176 -165 -202
c107 -26 183 -98 183 -200c0 -155 -144 -228 -298 -228c-105 0 -198 39 -259 99l37 41c55 -52 134 -84 219 -84c124 0 237 57 237 175c0 105 -102 171 -228 171h-126v55h126c119 0 210 57 210 169c0 96 -92 165 -226 165c-89 0 -163 -44 -207 -97l-40 40
c53 64 141 114 250 114z" />
    <glyph glyph-name="uni2463" unicode="&#x2463;" horiz-adv-x="2050" 
d="M1025 1567c480 0 868 -388 868 -866s-388 -868 -868 -868s-868 390 -868 868s388 866 868 866zM1025 1501c-442 0 -800 -357 -800 -800s358 -802 800 -802s801 359 801 802s-359 800 -801 800zM1170 782v-241h155v-58h-155v-185h-63v185h-415v45l306 602h69l-300 -589
h340v241h63z" />
    <glyph glyph-name="uni2464" unicode="&#x2464;" horiz-adv-x="2050" 
d="M1025 1567c480 0 868 -388 868 -866s-388 -868 -868 -868s-868 390 -868 868s388 866 868 866zM1025 1501c-442 0 -800 -357 -800 -800s358 -802 800 -802s801 359 801 802s-359 800 -801 800zM1277 1130v-58h-389l-13 -283h126c206 0 312 -93 312 -249
c0 -151 -118 -250 -286 -250c-116 0 -210 43 -278 121l35 45c58 -68 144 -108 243 -108c136 0 221 76 221 188c0 125 -83 197 -263 197h-166l13 397h445z" />
    <glyph glyph-name="uni2465" unicode="&#x2465;" horiz-adv-x="2050" 
d="M1025 1567c480 0 868 -388 868 -866s-388 -868 -868 -868s-868 390 -868 868s388 866 868 866zM1025 1501c-442 0 -800 -357 -800 -800s358 -802 800 -802s801 359 801 802s-359 800 -801 800zM1107 1130l-216 -342c40 22 88 35 141 35c168 0 286 -114 286 -265
c0 -153 -124 -268 -294 -268s-296 115 -296 267c0 55 18 108 48 157l257 416h74zM1024 769c-133 0 -231 -90 -231 -211s97 -211 231 -211c133 0 230 90 230 211c0 120 -97 211 -230 211z" />
    <glyph glyph-name="uni2466" unicode="&#x2466;" horiz-adv-x="2050" 
d="M1025 1567c480 0 868 -388 868 -866s-388 -868 -868 -868s-868 390 -868 868s388 866 868 866zM1025 1501c-442 0 -800 -357 -800 -800s358 -802 800 -802s801 359 801 802s-359 800 -801 800zM1340 1130v-49l-393 -783h-74l393 774h-497v58h571z" />
    <glyph glyph-name="uni2467" unicode="&#x2467;" horiz-adv-x="2050" 
d="M1025 1567c480 0 868 -388 868 -866s-388 -868 -868 -868s-868 390 -868 868s388 866 868 866zM1025 1501c-442 0 -800 -357 -800 -800s358 -802 800 -802s801 359 801 802s-359 800 -801 800zM1025 1138c157 0 285 -77 285 -217c0 -109 -76 -175 -174 -202
c109 -26 195 -92 195 -204c0 -146 -138 -225 -306 -225s-306 79 -306 225c0 112 86 179 195 204c-98 27 -174 93 -174 202c0 140 129 217 285 217zM1025 695c-130 0 -238 -61 -238 -174c0 -115 108 -175 238 -175c131 0 239 60 239 175c0 113 -108 174 -239 174zM1025 1082
c-121 0 -219 -57 -219 -166c0 -112 98 -170 219 -170c122 0 220 58 220 170c0 109 -99 166 -220 166z" />
    <glyph glyph-name="uni2468" unicode="&#x2468;" horiz-adv-x="2050" 
d="M1025 1567c480 0 868 -388 868 -866s-388 -868 -868 -868s-868 390 -868 868s388 866 868 866zM1025 1501c-442 0 -800 -357 -800 -800s358 -802 800 -802s801 359 801 802s-359 800 -801 800zM956 298l216 342c-40 -22 -88 -35 -139 -35c-168 0 -287 114 -287 265
c0 153 124 268 295 268c170 0 295 -114 295 -267c0 -56 -17 -108 -48 -157l-256 -416h-76zM1041 659c133 0 230 91 230 212c0 120 -97 210 -230 210c-134 0 -230 -90 -230 -210c0 -121 96 -212 230 -212z" />
    <glyph glyph-name="uni24EA" unicode="&#x24ea;" horiz-adv-x="2050" 
d="M1025 1567c480 0 868 -388 868 -866s-388 -868 -868 -868s-868 390 -868 868s388 866 868 866zM1025 1501c-442 0 -800 -357 -800 -800s358 -802 800 -802s801 359 801 802s-359 800 -801 800zM1026 1138c195 0 354 -159 354 -423c0 -265 -159 -425 -354 -425
c-196 0 -355 160 -355 425c0 264 159 423 355 423zM1026 1077c-160 0 -291 -133 -291 -363s131 -363 291 -363c159 0 290 133 290 363s-131 363 -290 363z" />
    <glyph glyph-name="uni24FF" unicode="&#x24ff;" horiz-adv-x="2050" 
d="M1026 1138c-196 0 -355 -159 -355 -423c0 -265 159 -425 355 -425c195 0 354 160 354 425c0 264 -159 423 -354 423zM1026 1077c159 0 290 -133 290 -363s-131 -363 -290 -363c-160 0 -291 133 -291 363s131 363 291 363zM1025 1558c475 0 860 -383 860 -857
s-385 -859 -860 -859s-860 385 -860 859s385 857 860 857z" />
    <glyph glyph-name="filledbox" unicode="&#x25a0;" horiz-adv-x="1800" 
d="M200 1400h1400v-1400h-1400v1400z" />
    <glyph glyph-name="H22073" unicode="&#x25a1;" horiz-adv-x="1800" 
d="M200 1400h1400v-1400h-1400v1400zM265 1335v-1270h1270v1270h-1270z" />
    <glyph glyph-name="uni25AE" unicode="&#x258c;" horiz-adv-x="1800" 
d="M200 1400h700v-1400h-700v1400z" />
    <glyph glyph-name="uni25AE" unicode="&#x25ae;" horiz-adv-x="1800" 
d="M200 1400h700v-1400h-700v1400z" />
    <glyph glyph-name="triagup" unicode="&#x25b2;" horiz-adv-x="1800" 
d="M900 1420l820 -1420h-1640z" />
    <glyph glyph-name="uni25B3" unicode="&#x25b3;" horiz-adv-x="1800" 
d="M900 1420l820 -1420h-1640zM900 1290l-708 -1225h1416z" />
    <glyph glyph-name="uni25B4" unicode="&#x25b4;" horiz-adv-x="1200" 
d="M601 864l262 -453h-525z" />
    <glyph glyph-name="uni25B8" unicode="&#x25b8;" horiz-adv-x="1200" 
d="M887 637l-453 -263v526z" />
    <glyph glyph-name="triagdn" unicode="&#x25bc;" horiz-adv-x="1800" 
d="M900 -20l-820 1420h1640z" />
    <glyph glyph-name="uni25BD" unicode="&#x25bd;" horiz-adv-x="1800" 
d="M900 -20l-820 1420h1640zM900 110l708 1225h-1416z" />
    <glyph glyph-name="uni25BE" unicode="&#x25be;" horiz-adv-x="1200" 
d="M599 411l-262 453h525z" />
    <glyph glyph-name="uni25C2" unicode="&#x25c2;" horiz-adv-x="1200" 
d="M313 637l453 263v-526z" />
    <glyph glyph-name="uni25C6" unicode="&#x25c6;" horiz-adv-x="1800" 
d="M900 1438l738 -738l-738 -738l-738 738z" />
    <glyph glyph-name="uni25C7" unicode="&#x25c7;" horiz-adv-x="1800" 
d="M900 1438l738 -738l-738 -738l-738 738zM900 1347l-646 -647l646 -646l647 646z" />
    <glyph glyph-name="lozenge" unicode="&#x25ca;" horiz-adv-x="1553" 
d="M1443 700l-626 -700h-82l-626 700l626 700h82zM1351 700l-576 637l-574 -637l576 -637z" />
    <glyph glyph-name="circle" unicode="&#x25cb;" horiz-adv-x="1800" 
d="M900 -39c-409 0 -739 331 -739 739s330 739 739 739c408 0 739 -331 739 -739s-331 -739 -739 -739zM900 26c372 0 674 302 674 674s-302 674 -674 674c-373 0 -674 -302 -674 -674s301 -674 674 -674z" />
    <glyph glyph-name="H18533" unicode="&#x25cf;" horiz-adv-x="1800" 
d="M900 -39c-409 0 -739 331 -739 739s330 739 739 739c408 0 739 -331 739 -739s-331 -739 -739 -739z" />
    <glyph glyph-name="uni25D0" unicode="&#x25d0;" horiz-adv-x="1800" 
d="M900 -39c-409 0 -739 331 -739 739s330 739 739 739c408 0 739 -331 739 -739s-331 -739 -739 -739zM900 1374v-1348c372 0 674 302 674 674s-302 674 -674 674z" />
    <glyph glyph-name="uni25D6" unicode="&#x25d6;" horiz-adv-x="1800" 
d="M900 1439v-1478c-409 0 -739 331 -739 739s330 739 739 739z" />
    <glyph glyph-name="uni25E7" unicode="&#x25e7;" horiz-adv-x="1800" 
d="M200 1400h1400v-1400h-1400v1400zM900 1335v-1270h635v1270h-635z" />
    <glyph glyph-name="uni2610" unicode="&#x2610;" horiz-adv-x="2200" 
d="M253 1547h1694v-1694h-1694v1694zM308 1492v-1584h1584v1584h-1584z" />
    <glyph glyph-name="uni2611" unicode="&#x2611;" horiz-adv-x="2200" 
d="M253 1547h1694v-1694h-1694v1694zM308 1492v-1584h1584v1584h-1584zM1635 1225l45 -32l-725 -1036l-399 522l42 34l355 -466z" />
    <glyph glyph-name="uni2612" unicode="&#x2612;" horiz-adv-x="2200" 
d="M1947 1547v-1694h-1694v1694h1694zM1892 1492h-1584v-1584h1584v1584zM601 235l460 460l-465 465l39 39l465 -465l465 465l39 -39l-465 -465l460 -460l-39 -39l-460 460l-460 -460z" />
    <glyph glyph-name="heart" unicode="&#x2665;" horiz-adv-x="1800" 
d="M1152 1144c148 0 256 -113 256 -262c0 -219 -236 -474 -508 -665c-272 191 -508 446 -508 665c0 149 108 262 256 262c129 0 246 -88 252 -191c5 103 122 191 252 191z" />
    <glyph glyph-name="uni2713" unicode="&#x2713;" horiz-adv-x="2200" 
d="M1669 1250l51 -38l-806 -1087l-434 473l47 43l382 -416z" />
    <glyph glyph-name="uni2715" unicode="&#x2573;" horiz-adv-x="2075" 
d="M1087 700l980 -980l-49 -50l-980 981l-981 -981l-49 50l980 980l-980 980l49 50l981 -980l980 980l49 -50z" />
    <glyph glyph-name="uni2715" unicode="&#x2715;" horiz-adv-x="2075" 
d="M1087 700l980 -980l-49 -50l-980 981l-981 -981l-49 50l980 980l-980 980l49 50l981 -980l980 980l49 -50z" />
    <glyph glyph-name="uni2717" unicode="&#x2717;" horiz-adv-x="2200" 
d="M1146 700l485 -485l-45 -46l-485 486l-486 -486l-45 46l485 485l-485 485l45 46l486 -485l485 485l45 -46z" />
    <glyph glyph-name="uni278A" unicode="&#x2776;" horiz-adv-x="2050" 
d="M1116 1137l-365 -152v-63l302 128v-752h63v839zM1025 1558c475 0 860 -383 860 -857s-385 -859 -860 -859s-860 385 -860 859s385 857 860 857z" />
    <glyph glyph-name="uni278A" unicode="&#x278a;" horiz-adv-x="2050" 
d="M1116 1137l-365 -152v-63l302 128v-752h63v839zM1025 1558c475 0 860 -383 860 -857s-385 -859 -860 -859s-860 385 -860 859s385 857 860 857z" />
    <glyph glyph-name="uni278B" unicode="&#x2777;" horiz-adv-x="2050" 
d="M763 999l42 -38c39 61 100 116 205 116c131 0 201 -86 201 -191c0 -82 -42 -146 -98 -202l-333 -337v-49h528v59h-438l286 291c65 65 120 140 120 242c0 138 -93 248 -261 248c-134 0 -210 -72 -252 -139zM1025 1558c475 0 860 -383 860 -857s-385 -859 -860 -859
s-860 385 -860 859s385 857 860 857z" />
    <glyph glyph-name="uni278B" unicode="&#x278b;" horiz-adv-x="2050" 
d="M763 999l42 -38c39 61 100 116 205 116c131 0 201 -86 201 -191c0 -82 -42 -146 -98 -202l-333 -337v-49h528v59h-438l286 291c65 65 120 140 120 242c0 138 -93 248 -261 248c-134 0 -210 -72 -252 -139zM1025 1558c475 0 860 -383 860 -857s-385 -859 -860 -859
s-860 385 -860 859s385 857 860 857z" />
    <glyph glyph-name="uni278C" unicode="&#x2778;" horiz-adv-x="2050" 
d="M1025 1558c475 0 860 -383 860 -857s-385 -859 -860 -859s-860 385 -860 859s385 857 860 857zM1006 1138c-109 0 -197 -50 -250 -114l40 -40c44 53 118 97 207 97c134 0 226 -69 226 -165c0 -112 -91 -169 -210 -169h-126v-55h126c126 0 228 -66 228 -171
c0 -118 -113 -175 -237 -175c-85 0 -164 32 -219 84l-37 -41c61 -60 154 -99 259 -99c154 0 298 73 298 228c0 102 -76 174 -183 200c98 26 165 95 165 202c0 126 -116 218 -287 218z" />
    <glyph glyph-name="uni278C" unicode="&#x278c;" horiz-adv-x="2050" 
d="M1025 1558c475 0 860 -383 860 -857s-385 -859 -860 -859s-860 385 -860 859s385 857 860 857zM1006 1138c-109 0 -197 -50 -250 -114l40 -40c44 53 118 97 207 97c134 0 226 -69 226 -165c0 -112 -91 -169 -210 -169h-126v-55h126c126 0 228 -66 228 -171
c0 -118 -113 -175 -237 -175c-85 0 -164 32 -219 84l-37 -41c61 -60 154 -99 259 -99c154 0 298 73 298 228c0 102 -76 174 -183 200c98 26 165 95 165 202c0 126 -116 218 -287 218z" />
    <glyph glyph-name="uni278D" unicode="&#x2779;" horiz-adv-x="2050" 
d="M1025 1558c475 0 860 -383 860 -857s-385 -859 -860 -859s-860 385 -860 859s385 857 860 857zM1170 782h-63v-241h-340l300 589h-69l-306 -602v-45h415v-185h63v185h155v58h-155v241z" />
    <glyph glyph-name="uni278D" unicode="&#x278d;" horiz-adv-x="2050" 
d="M1025 1558c475 0 860 -383 860 -857s-385 -859 -860 -859s-860 385 -860 859s385 857 860 857zM1170 782h-63v-241h-340l300 589h-69l-306 -602v-45h415v-185h63v185h155v58h-155v241z" />
    <glyph glyph-name="uni278E" unicode="&#x277a;" horiz-adv-x="2050" 
d="M1277 1130h-445l-13 -397h166c180 0 263 -72 263 -197c0 -112 -85 -188 -221 -188c-99 0 -185 40 -243 108l-35 -45c68 -78 162 -121 278 -121c168 0 286 99 286 250c0 156 -106 249 -312 249h-126l13 283h389v58zM1025 1558c475 0 860 -383 860 -857
s-385 -859 -860 -859s-860 385 -860 859s385 857 860 857z" />
    <glyph glyph-name="uni278E" unicode="&#x278e;" horiz-adv-x="2050" 
d="M1277 1130h-445l-13 -397h166c180 0 263 -72 263 -197c0 -112 -85 -188 -221 -188c-99 0 -185 40 -243 108l-35 -45c68 -78 162 -121 278 -121c168 0 286 99 286 250c0 156 -106 249 -312 249h-126l13 283h389v58zM1025 1558c475 0 860 -383 860 -857
s-385 -859 -860 -859s-860 385 -860 859s385 857 860 857z" />
    <glyph glyph-name="uni278F" unicode="&#x277b;" horiz-adv-x="2050" 
d="M1025 1558c475 0 860 -383 860 -857s-385 -859 -860 -859s-860 385 -860 859s385 857 860 857zM1107 1130h-74l-257 -416c-30 -49 -48 -102 -48 -157c0 -152 126 -267 296 -267s294 115 294 268c0 151 -118 265 -286 265c-53 0 -101 -13 -141 -35zM1024 769
c133 0 230 -91 230 -211c0 -121 -97 -211 -230 -211c-134 0 -231 90 -231 211s98 211 231 211z" />
    <glyph glyph-name="uni278F" unicode="&#x278f;" horiz-adv-x="2050" 
d="M1025 1558c475 0 860 -383 860 -857s-385 -859 -860 -859s-860 385 -860 859s385 857 860 857zM1107 1130h-74l-257 -416c-30 -49 -48 -102 -48 -157c0 -152 126 -267 296 -267s294 115 294 268c0 151 -118 265 -286 265c-53 0 -101 -13 -141 -35zM1024 769
c133 0 230 -91 230 -211c0 -121 -97 -211 -230 -211c-134 0 -231 90 -231 211s98 211 231 211z" />
    <glyph glyph-name="uni2790" unicode="&#x277c;" horiz-adv-x="2050" 
d="M1340 1130h-571v-58h497l-393 -774h74l393 783v49zM1025 1558c475 0 860 -383 860 -857s-385 -859 -860 -859s-860 385 -860 859s385 857 860 857z" />
    <glyph glyph-name="uni2790" unicode="&#x2790;" horiz-adv-x="2050" 
d="M1340 1130h-571v-58h497l-393 -774h74l393 783v49zM1025 1558c475 0 860 -383 860 -857s-385 -859 -860 -859s-860 385 -860 859s385 857 860 857z" />
    <glyph glyph-name="uni2791" unicode="&#x277d;" horiz-adv-x="2050" 
d="M1025 1558c475 0 860 -383 860 -857s-385 -859 -860 -859s-860 385 -860 859s385 857 860 857zM1025 1136c-156 0 -284 -76 -284 -216c0 -108 76 -174 173 -201c-108 -25 -194 -91 -194 -203c0 -145 138 -224 305 -224c168 0 305 79 305 224c0 111 -86 178 -194 203
c97 27 174 93 174 201c0 140 -129 216 -285 216zM1025 695c130 0 238 -61 238 -173c0 -115 -108 -174 -238 -174s-238 59 -238 174c0 112 108 173 238 173zM1025 1081c120 0 219 -58 219 -166c0 -111 -98 -169 -219 -169c-120 0 -219 58 -219 169c0 108 99 166 219 166z" />
    <glyph glyph-name="uni2791" unicode="&#x2791;" horiz-adv-x="2050" 
d="M1025 1558c475 0 860 -383 860 -857s-385 -859 -860 -859s-860 385 -860 859s385 857 860 857zM1025 1136c-156 0 -284 -76 -284 -216c0 -108 76 -174 173 -201c-108 -25 -194 -91 -194 -203c0 -145 138 -224 305 -224c168 0 305 79 305 224c0 111 -86 178 -194 203
c97 27 174 93 174 201c0 140 -129 216 -285 216zM1025 695c130 0 238 -61 238 -173c0 -115 -108 -174 -238 -174s-238 59 -238 174c0 112 108 173 238 173zM1025 1081c120 0 219 -58 219 -166c0 -111 -98 -169 -219 -169c-120 0 -219 58 -219 169c0 108 99 166 219 166z" />
    <glyph glyph-name="uni2792" unicode="&#x277e;" horiz-adv-x="2050" 
d="M1025 1558c475 0 860 -383 860 -857s-385 -859 -860 -859s-860 385 -860 859s385 857 860 857zM956 298h76l256 416c31 49 48 101 48 157c0 153 -125 267 -295 267c-171 0 -295 -115 -295 -268c0 -151 119 -265 287 -265c51 0 99 13 139 35zM1041 659
c-134 0 -230 91 -230 212c0 120 96 210 230 210c133 0 230 -90 230 -210c0 -121 -97 -212 -230 -212z" />
    <glyph glyph-name="uni2792" unicode="&#x2792;" horiz-adv-x="2050" 
d="M1025 1558c475 0 860 -383 860 -857s-385 -859 -860 -859s-860 385 -860 859s385 857 860 857zM956 298h76l256 416c31 49 48 101 48 157c0 153 -125 267 -295 267c-171 0 -295 -115 -295 -268c0 -151 119 -265 287 -265c51 0 99 13 139 35zM1041 659
c-134 0 -230 91 -230 212c0 120 96 210 230 210c133 0 230 -90 230 -210c0 -121 -97 -212 -230 -212z" />
    <glyph glyph-name="uni2B51" unicode="&#x2b51;" horiz-adv-x="1800" 
d="M1046 845h469l-379 -277l145 -447l-380 276l-379 -276l144 447l-380 277h471l144 447z" />
    <glyph glyph-name="uni2B52" unicode="&#x2b52;" horiz-adv-x="1800" 
d="M1046 845h469l-379 -277l145 -447l-380 276l-379 -276l144 447l-380 277h471l144 447zM1012 799l-111 346l-112 -346h-364l294 -213l-112 -347l293 214l294 -214l-111 347l293 213h-364z" />
    <glyph glyph-name="uni2E17" unicode="&#x2e17;" horiz-adv-x="946" 
d="M747 840v-62l-548 -200v62zM747 518v-62l-548 -200v62z" />
    <glyph glyph-name="uni2E38" unicode="&#x2e38;" horiz-adv-x="678" 
d="M309 1440h59v-448h200v-58h-200v-200h-59v200h-200v58h200v448z" />
    <glyph glyph-name="uniEA00" unicode="&#xea00;" horiz-adv-x="1800" 
d="M1046 845h469l-379 -277l145 -447l-380 276l-379 -276l144 447l-380 277h471l144 447zM1013 799l-112 346v-692l294 -214l-112 347l293 213h-363z" />
    <glyph glyph-name="uniEA01" unicode="&#xea01;" horiz-adv-x="1800" 
d="M901 397l-379 -276l144 447l-380 277h471l144 447v-895z" />
    <glyph glyph-name="uniFB00" unicode="&#xfb00;" horiz-adv-x="1746" 
d="M817 933v-64h-441v-869h-69v869h-250v64h250v162c0 214 83 356 306 356c100 0 186 -30 248 -70l-26 -58c-54 34 -134 62 -218 62c-176 0 -241 -109 -241 -290v-162h441zM1673 933v-64h-441v-869h-69v869h-250v64h250v162c0 214 83 356 306 356c100 0 186 -30 248 -70
l-26 -58c-54 34 -134 62 -218 62c-176 0 -241 -109 -241 -290v-162h441z" />
    <glyph glyph-name="fi" unicode="&#xfb01;" horiz-adv-x="1340" 
d="M817 933v-64h-441v-869h-69v869h-250v64h250v162c0 214 83 356 306 356c100 0 186 -30 248 -70l-26 -58c-54 34 -134 62 -218 62c-176 0 -241 -109 -241 -290v-162h441zM1150 933v-933h-70v933h70zM1115 1327c29 0 52 -23 52 -52s-23 -51 -52 -51s-51 22 -51 51
s22 52 51 52z" />
    <glyph glyph-name="fl" unicode="&#xfb02;" horiz-adv-x="1340" 
d="M817 933v-64h-441v-869h-69v869h-250v64h250v162c0 214 83 356 306 356c100 0 186 -30 248 -70l-26 -58c-54 34 -134 62 -218 62c-176 0 -241 -109 -241 -290v-162h441zM1150 1440v-1440h-70v1440h70z" />
    <glyph glyph-name="uniFB03" unicode="&#xfb03;" horiz-adv-x="2196" 
d="M817 933v-64h-441v-869h-69v869h-250v64h250v162c0 214 83 356 306 356c100 0 186 -30 248 -70l-26 -58c-54 34 -134 62 -218 62c-176 0 -241 -109 -241 -290v-162h441zM1673 933v-64h-441v-869h-69v869h-250v64h250v162c0 214 83 356 306 356c100 0 186 -30 248 -70
l-26 -58c-54 34 -134 62 -218 62c-176 0 -241 -109 -241 -290v-162h441zM2006 933v-933h-70v933h70zM1971 1327c29 0 52 -23 52 -52s-23 -51 -52 -51s-51 22 -51 51s22 52 51 52z" />
    <glyph glyph-name="uniFB04" unicode="&#xfb04;" horiz-adv-x="2196" 
d="M817 933v-64h-441v-869h-69v869h-250v64h250v162c0 214 83 356 306 356c100 0 186 -30 248 -70l-26 -58c-54 34 -134 62 -218 62c-176 0 -241 -109 -241 -290v-162h441zM1673 933v-64h-441v-869h-69v869h-250v64h250v162c0 214 83 356 306 356c100 0 186 -30 248 -70
l-26 -58c-54 34 -134 62 -218 62c-176 0 -241 -109 -241 -290v-162h441zM2006 1440v-1440h-70v1440h70z" />
    <glyph glyph-name="uniFB05" unicode="&#xfb05;" horiz-adv-x="1468" 
d="M1385 933v-64h-464v-557c0 -174 91 -257 235 -257c90 0 169 29 224 79l34 -51c-63 -57 -152 -94 -263 -94c-186 0 -299 106 -299 322v558h-228v64h228v123c0 207 -123 329 -301 329c-179 0 -302 -122 -302 -329v-1056h-69v1060c0 249 161 391 371 391s370 -142 370 -391
v-127h464z" />
    <glyph glyph-name="uniFB06" unicode="&#xfb06;" horiz-adv-x="1864" 
d="M841 836l-33 -56c-67 49 -191 99 -329 99c-163 0 -284 -71 -284 -194c0 -94 69 -157 241 -175l131 -14c190 -20 299 -97 299 -239c0 -176 -165 -268 -393 -268c-154 0 -282 46 -378 118l35 55c78 -60 178 -108 344 -108c183 0 321 62 321 199c0 102 -81 162 -242 178
l-132 13c-214 22 -298 114 -298 238c0 165 149 261 355 261c150 0 283 -48 363 -107zM1780 933v-64h-463v-557c0 -174 91 -257 234 -257c90 0 169 30 224 79l35 -51c-63 -57 -153 -94 -264 -94c-186 0 -299 106 -299 322v558h-229v64h229v315h70v-315h463z" />
    <glyph glyph-name="uni030C.alt001" 
d="M-572 1051h-60l16 389h71z" />
    <glyph glyph-name="uni0328.alt001" 
d="M-448 -282l39 -44c-49 -56 -108 -83 -174 -83c-106 0 -184 65 -184 168c0 100 82 190 190 281l34 -40c-91 -82 -158 -164 -158 -237c0 -69 51 -112 123 -112c51 0 94 24 130 67z" />
    <glyph glyph-name="uni0328.alt002" 
d="M-577 54l26 -45c-114 -64 -184 -127 -184 -221c0 -81 65 -137 158 -137c63 0 121 25 166 71l39 -45c-56 -56 -129 -86 -209 -86c-131 0 -222 80 -222 192c0 125 88 200 226 271z" />
    <glyph glyph-name="uni0328.alt003" 
d="M-447 -282l38 -44c-48 -56 -108 -83 -174 -83c-106 0 -183 63 -183 162c0 127 118 217 301 297l25 -50c-169 -76 -260 -146 -260 -240c0 -67 50 -109 123 -109c50 0 94 24 130 67z" />
    <glyph glyph-name="uni0328.alt004" 
d="M-411 -278l39 -45c-56 -56 -129 -86 -209 -86c-131 0 -222 80 -222 192c0 143 128 221 282 302l33 -38c-142 -79 -247 -146 -247 -259c0 -81 65 -137 158 -137c63 0 121 25 166 71z" />
    <glyph glyph-name="i.latn_TRK" horiz-adv-x="450" 
d="M260 933v-933h-70v933h70zM225 1327c29 0 52 -23 52 -52s-23 -51 -52 -51s-51 22 -51 51s22 52 51 52z" />
    <glyph glyph-name="j.latn_NLD" horiz-adv-x="451" 
d="M261 933v-1139c0 -131 -61 -203 -176 -203c-48 0 -94 16 -124 34l19 60c25 -16 61 -28 99 -28c76 0 113 46 113 140v1136h69zM194 1069h-71l233 300h89z" />
    <glyph glyph-name="Ldot.latn_CAT" horiz-adv-x="1193" 
d="M1149 71v-71h-931v1400h74v-1329h857zM832 758c30 0 53 -24 53 -53s-23 -52 -53 -52c-29 0 -52 23 -52 52s23 53 52 53z" />
    <glyph glyph-name="ldot.latn_CAT" horiz-adv-x="511" 
d="M260 1440v-1440h-70v1440h70zM476 782c29 0 52 -23 52 -52s-23 -51 -52 -51s-51 22 -51 51s22 52 51 52z" />
    <glyph glyph-name="zero.numr" horiz-adv-x="821" 
d="M410 1404c168 0 305 -141 305 -377c0 -237 -137 -378 -305 -378s-304 141 -304 378c0 236 136 377 304 377zM410 1348c-134 0 -244 -117 -244 -321s110 -322 244 -322c135 0 244 118 244 322s-109 321 -244 321z" />
    <glyph glyph-name="one.numr" horiz-adv-x="531" 
d="M362 1404v-749h-59v667l-250 -105v58z" />
    <glyph glyph-name="two.numr" horiz-adv-x="628" 
d="M108 1245l-39 36c38 59 104 123 226 123c148 0 231 -97 231 -220c0 -90 -46 -156 -105 -217l-251 -257h385v-55h-469v46l293 300c49 50 86 106 86 179c0 92 -61 168 -175 168c-93 0 -147 -50 -182 -103z" />
    <glyph glyph-name="three.numr" horiz-adv-x="625" 
d="M275 1404c144 0 244 -80 244 -194c0 -95 -57 -156 -142 -180c93 -23 157 -87 157 -178c0 -138 -124 -203 -253 -203c-98 0 -173 33 -228 88l34 40c49 -47 113 -75 191 -75c102 0 196 48 196 154c0 92 -88 148 -194 148h-106v53h106c101 0 178 51 178 149
c0 85 -76 145 -186 145c-80 0 -141 -37 -180 -87l-37 38c47 59 120 102 220 102z" />
    <glyph glyph-name="four.numr" horiz-adv-x="645" 
d="M467 1089v-216h136v-54h-136v-164h-59v164h-366v43l271 536h64l-266 -525h297v216h59z" />
    <glyph glyph-name="five.numr" horiz-adv-x="664" 
d="M539 1398v-54h-345l-10 -249h114c179 0 272 -89 272 -215c0 -142 -106 -232 -253 -232c-103 0 -187 39 -248 109l36 39c52 -60 127 -93 211 -93c119 0 194 70 194 173c0 97 -70 166 -223 166h-157l13 356h396z" />
    <glyph glyph-name="six.numr" horiz-adv-x="657" 
d="M405 1398l-191 -303c33 19 74 30 121 30c150 0 255 -103 255 -237c0 -137 -111 -239 -263 -239c-151 0 -263 102 -263 238c0 50 17 97 45 143l226 368h70zM327 1074c-117 0 -201 -79 -202 -187c0 -107 85 -186 202 -186s202 79 202 186c0 108 -85 187 -202 187z" />
    <glyph glyph-name="seven.numr" horiz-adv-x="622" 
d="M570 1398v-46l-346 -697h-69l346 688h-437v55h506z" />
    <glyph glyph-name="eight.numr" horiz-adv-x="726" 
d="M363 1404c139 0 254 -69 254 -194c0 -96 -66 -154 -150 -179c94 -23 168 -82 168 -182c0 -131 -123 -201 -272 -201c-150 0 -273 70 -273 201c0 100 74 159 168 182c-84 25 -149 83 -149 179c0 125 115 194 254 194zM363 1007c-116 0 -210 -53 -210 -152
c0 -103 94 -156 210 -156c115 0 210 53 210 156c0 99 -95 152 -210 152zM363 1353c-105 0 -192 -51 -192 -148c0 -98 87 -149 192 -149s192 51 192 149c0 97 -87 148 -192 148z" />
    <glyph glyph-name="nine.numr" horiz-adv-x="657" 
d="M254 655l191 303c-33 -19 -74 -30 -121 -30c-150 0 -255 103 -255 238c0 137 111 238 263 238c151 0 263 -101 263 -237c0 -51 -16 -98 -44 -143l-227 -369h-70zM332 979c117 0 201 79 202 187c0 107 -85 186 -202 186s-202 -78 -202 -186s85 -187 202 -187z" />
    <glyph glyph-name="zero.dnom" horiz-adv-x="821" 
d="M410 749c168 0 305 -141 305 -377c0 -237 -137 -378 -305 -378s-304 141 -304 378c0 236 136 377 304 377zM410 693c-134 0 -244 -117 -244 -321s110 -322 244 -322c135 0 244 118 244 322s-109 321 -244 321z" />
    <glyph glyph-name="one.dnom" horiz-adv-x="531" 
d="M362 749v-749h-59v667l-250 -105v58z" />
    <glyph glyph-name="two.dnom" horiz-adv-x="629" 
d="M108 590l-39 36c38 59 104 123 226 123c148 0 231 -97 231 -220c0 -90 -46 -156 -105 -217l-251 -257h385v-55h-469v46l293 300c49 50 86 106 86 179c0 92 -61 168 -175 168c-93 0 -147 -50 -182 -103z" />
    <glyph glyph-name="three.dnom" horiz-adv-x="624" 
d="M275 749c144 0 244 -80 244 -194c0 -95 -57 -156 -142 -180c93 -23 157 -87 157 -178c0 -138 -124 -203 -253 -203c-98 0 -173 33 -228 88l34 40c49 -47 113 -75 191 -75c102 0 196 48 196 154c0 92 -88 148 -194 148h-106v53h106c101 0 178 51 178 149
c0 85 -76 145 -186 145c-80 0 -141 -37 -180 -87l-37 38c47 59 120 102 220 102z" />
    <glyph glyph-name="four.dnom" horiz-adv-x="645" 
d="M467 434v-216h136v-54h-136v-164h-59v164h-366v43l271 536h64l-266 -525h297v216h59z" />
    <glyph glyph-name="five.dnom" horiz-adv-x="665" 
d="M539 743v-54h-345l-10 -249h114c179 0 272 -89 272 -215c0 -142 -106 -232 -253 -232c-103 0 -187 39 -248 109l36 39c52 -60 127 -93 211 -93c119 0 194 70 194 173c0 97 -70 166 -223 166h-157l13 356h396z" />
    <glyph glyph-name="six.dnom" horiz-adv-x="659" 
d="M405 743l-191 -303c33 19 74 30 121 30c150 0 255 -103 255 -237c0 -137 -111 -239 -263 -239c-151 0 -263 102 -263 238c0 50 17 97 45 143l226 368h70zM327 419c-117 0 -201 -79 -202 -187c0 -107 85 -186 202 -186s202 79 202 186c0 108 -85 187 -202 187z" />
    <glyph glyph-name="seven.dnom" horiz-adv-x="623" 
d="M570 743v-46l-346 -697h-69l346 688h-437v55h506z" />
    <glyph glyph-name="eight.dnom" horiz-adv-x="725" 
d="M363 749c139 0 254 -69 254 -194c0 -96 -66 -154 -150 -179c94 -23 168 -82 168 -182c0 -131 -123 -201 -272 -201c-150 0 -273 70 -273 201c0 100 74 159 168 182c-84 25 -149 83 -149 179c0 125 115 194 254 194zM363 352c-116 0 -210 -53 -210 -152
c0 -103 94 -156 210 -156c115 0 210 53 210 156c0 99 -95 152 -210 152zM363 698c-105 0 -192 -51 -192 -148c0 -98 87 -149 192 -149s192 51 192 149c0 97 -87 148 -192 148z" />
    <glyph glyph-name="nine.dnom" horiz-adv-x="659" 
d="M254 0l191 303c-33 -19 -74 -30 -121 -30c-150 0 -255 103 -255 238c0 137 111 238 263 238c151 0 263 -101 263 -237c0 -51 -16 -98 -44 -143l-227 -369h-70zM332 324c117 0 201 79 202 187c0 107 -85 186 -202 186s-202 -78 -202 -186s85 -187 202 -187z" />
    <glyph glyph-name="space.frac" horiz-adv-x="105" 
 />
    <glyph glyph-name="b.ordn" horiz-adv-x="884" 
d="M470 1305c183 0 323 -141 323 -328c0 -189 -140 -330 -323 -330c-124 0 -219 65 -270 159v-151h-57v988h58v-495c51 92 146 157 269 157zM465 1251c-153 0 -267 -118 -267 -274c0 -157 114 -274 267 -274c155 0 268 118 268 274c0 155 -114 274 -268 274z" />
    <glyph glyph-name="c.ordn" horiz-adv-x="749" 
d="M418 1305c97 0 181 -38 239 -103l-41 -36c-52 53 -119 85 -199 85c-151 0 -266 -117 -266 -274c0 -159 115 -274 266 -274c79 0 149 32 199 84l41 -37c-58 -64 -142 -103 -239 -103c-189 0 -327 142 -327 330s138 328 327 328z" />
    <glyph glyph-name="d.ordn" horiz-adv-x="885" 
d="M414 1305c123 0 217 -64 269 -156v494h59v-988h-58v150c-52 -93 -147 -158 -270 -158c-183 0 -323 141 -323 330c0 187 140 328 323 328zM419 1251c-155 0 -268 -119 -268 -274c0 -156 114 -274 268 -274c153 0 267 117 267 274c0 156 -114 274 -267 274z" />
    <glyph glyph-name="e.ordn" horiz-adv-x="805" 
d="M411 1305c168 0 300 -135 302 -325c0 -7 0 -16 -1 -22h-560c8 -157 117 -257 264 -257c101 0 172 40 229 102l35 -40c-82 -90 -174 -116 -267 -116c-187 0 -322 136 -322 329c0 190 139 329 320 329zM410 1252c-140 0 -244 -103 -257 -246h499c-9 143 -111 246 -242 246z
" />
    <glyph glyph-name="h.ordn" horiz-adv-x="848" 
d="M201 1643v-470c44 79 127 132 237 132c169 0 275 -104 275 -270v-380h-58v375c0 132 -80 221 -227 221c-133 0 -227 -98 -227 -226v-370h-58v988h58z" />
    <glyph glyph-name="l.ordn" horiz-adv-x="344" 
d="M201 1643v-988h-58v988h58z" />
    <glyph glyph-name="m.ordn" horiz-adv-x="1361" 
d="M946 1305c173 0 279 -104 279 -270v-380h-58v375c0 132 -80 221 -227 221c-133 0 -227 -98 -227 -226v-370h-58v375c0 132 -80 221 -227 221c-130 0 -227 -94 -227 -226v-370h-58v643h57v-127c44 80 127 134 238 134c125 0 216 -58 255 -156c42 94 133 156 253 156z" />
    <glyph glyph-name="r.ordn" horiz-adv-x="577" 
d="M403 1306c44 0 86 -9 119 -26l-12 -56c-32 18 -73 26 -115 26c-117 0 -194 -96 -194 -228v-367h-58v643h57v-116c38 75 107 124 203 124z" />
    <glyph glyph-name="s.ordn" horiz-adv-x="694" 
d="M597 1233l-23 -46c-49 33 -134 67 -228 67c-108 0 -187 -47 -187 -128c0 -62 49 -106 165 -117l82 -8c131 -13 209 -66 209 -166c0 -123 -114 -187 -272 -187c-110 0 -199 31 -263 79l26 46c55 -41 126 -74 237 -74c122 0 212 41 212 132c0 68 -54 107 -164 118l-83 8
c-149 14 -209 79 -209 166c0 115 102 182 246 182c104 0 192 -32 252 -72z" />
    <glyph glyph-name="t.ordn" horiz-adv-x="657" 
d="M582 1298v-53h-313v-370c0 -117 61 -172 158 -172c62 0 116 21 154 55l24 -45c-45 -40 -107 -66 -186 -66c-131 0 -208 76 -208 224v374h-156v53h156v215h58v-215h313z" />
    <glyph glyph-name="u.ordn" horiz-adv-x="856" 
d="M713 1298v-379c0 -173 -122 -272 -285 -272c-164 0 -285 99 -285 272v379h58v-375c0 -138 92 -220 227 -220s227 82 227 220v375h58z" />
    <glyph glyph-name="egrave.ordn" horiz-adv-x="805" 
d="M411 1305c168 0 300 -135 302 -325c0 -7 0 -16 -1 -22h-560c8 -157 117 -257 264 -257c101 0 172 40 229 102l35 -40c-82 -90 -174 -116 -267 -116c-187 0 -322 136 -322 329c0 190 139 329 320 329zM410 1252c-140 0 -244 -103 -257 -246h499c-9 143 -111 246 -242 246z
M422 1389l-175 208h72l160 -208h-57z" />
    <glyph glyph-name="zero.osf" horiz-adv-x="1322" 
d="M661 1029c292 0 531 -206 531 -518c0 -317 -239 -522 -531 -522s-530 212 -530 522c0 312 238 518 530 518zM661 963c-254 0 -459 -178 -459 -452c0 -272 205 -456 459 -456s460 177 460 456c0 274 -206 452 -460 452z" />
    <glyph glyph-name="one.osf" horiz-adv-x="749" 
d="M541 1032v-1032h-71v936l-398 -141v70z" />
    <glyph glyph-name="two.osf" horiz-adv-x="1040" 
d="M136 784l-51 43c65 83 185 202 400 202c250 0 396 -159 396 -344c0 -159 -98 -289 -301 -410l-344 -207h713v-68h-842v58l433 266c203 125 267 239 267 358c0 146 -110 278 -324 278c-183 0 -283 -96 -347 -176z" />
    <glyph glyph-name="three.osf" horiz-adv-x="1053" 
d="M470 1029c262 0 442 -154 442 -365c0 -178 -101 -291 -248 -338c161 -48 278 -167 278 -338c0 -259 -225 -381 -460 -381c-178 0 -317 62 -416 163l46 48c92 -90 217 -144 369 -144c204 0 388 100 388 314c0 189 -173 304 -384 304h-202v67h202c199 0 353 104 353 305
c0 175 -154 298 -372 298c-152 0 -268 -73 -340 -170l-54 42c81 112 216 195 398 195z" />
    <glyph glyph-name="four.osf" horiz-adv-x="1133" 
d="M789 457v-390h292v-67h-292v-383h-70v383h-667v56l491 961h76l-484 -950h584v390h70z" />
    <glyph glyph-name="five.osf" horiz-adv-x="1121" 
d="M949 1017v-67h-660l-21 -515h222c343 0 514 -163 514 -417c0 -256 -197 -412 -462 -412c-190 0 -343 70 -457 212l50 44c101 -125 242 -188 407 -188c241 0 388 141 388 338c0 223 -142 356 -460 356h-270l23 649h726z" />
    <glyph glyph-name="six.osf" horiz-adv-x="1126" 
d="M675 1400l-355 -580c71 36 154 56 241 56c278 0 480 -190 480 -444c0 -252 -202 -443 -480 -443s-482 191 -482 443c0 91 26 172 75 252l435 716h86zM561 810c-237 0 -408 -160 -409 -378c0 -217 171 -377 409 -377c237 0 407 160 407 377c0 218 -170 378 -407 378z" />
    <glyph glyph-name="seven.osf" horiz-adv-x="1090" 
d="M1012 1017v-55l-669 -1345h-81l666 1333h-849v67h933z" />
    <glyph glyph-name="eight.osf" horiz-adv-x="1183" 
d="M592 1411c245 0 447 -140 447 -366c0 -173 -111 -286 -257 -336c163 -49 290 -164 290 -341c0 -237 -216 -380 -480 -380s-481 143 -481 380c0 177 127 292 291 341c-146 50 -257 163 -257 336c0 226 202 366 447 366zM592 675c-224 0 -407 -116 -407 -307
c0 -197 183 -313 407 -313s406 116 406 313c0 191 -182 307 -406 307zM592 1344c-205 0 -373 -113 -373 -298c0 -193 168 -307 373 -307s373 114 373 307c0 185 -168 298 -373 298z" />
    <glyph glyph-name="nine.osf" horiz-adv-x="1126" 
d="M451 -382l356 580c-72 -37 -154 -56 -241 -56c-278 0 -481 190 -481 444c0 252 202 443 480 443c279 0 482 -191 482 -444c0 -90 -27 -171 -75 -251l-434 -716h-87zM565 208c237 0 409 160 409 377c0 218 -171 377 -409 377c-237 0 -407 -160 -407 -377
s170 -377 407 -377z" />
    <glyph glyph-name="zero.tf" horiz-adv-x="1200" 
d="M601 1411c288 0 507 -240 507 -710c0 -480 -219 -712 -507 -712s-509 232 -509 712c0 479 221 710 509 710zM601 1342c-248 0 -435 -206 -435 -641c0 -436 187 -643 435 -643c247 0 433 207 433 643c0 426 -186 641 -433 641z" />
    <glyph glyph-name="one.tf" horiz-adv-x="1200" 
d="M182 68h439v1244l-449 -161v74l520 185v-1342h407v-68h-917v68z" />
    <glyph glyph-name="two.tf" horiz-adv-x="1200" 
d="M213 1140l-53 42c65 107 183 229 404 229c276 0 424 -185 424 -412c0 -171 -92 -299 -189 -400l-508 -531h755v-68h-862v56l560 585c95 99 170 212 170 358c0 188 -122 343 -352 343c-184 0 -284 -98 -349 -202z" />
    <glyph glyph-name="three.tf" horiz-adv-x="1200" 
d="M553 1411c264 0 444 -154 444 -365c0 -175 -96 -288 -239 -338c158 -49 270 -168 270 -337c0 -259 -227 -382 -463 -382c-179 0 -317 62 -418 163l47 49c93 -90 218 -144 369 -144c203 0 390 99 390 314c0 188 -173 302 -385 302h-204v70h204c200 0 355 103 355 303
c0 173 -156 297 -375 297c-151 0 -269 -73 -342 -170l-52 44c82 111 216 194 399 194z" />
    <glyph glyph-name="four.tf" horiz-adv-x="1200" 
d="M860 799v-408h271v-68h-271v-323h-72v323h-693v56l523 1020h81l-518 -1008h607v408h72z" />
    <glyph glyph-name="five.tf" horiz-adv-x="1200" 
d="M989 1400v-68h-660l-21 -514h235c333 0 501 -171 501 -401c0 -265 -195 -428 -463 -428c-190 0 -343 70 -457 211l49 46c101 -124 244 -188 408 -188c239 0 389 146 389 353c0 196 -141 339 -447 339h-284l24 650h726z" />
    <glyph glyph-name="six.tf" horiz-adv-x="1200" 
d="M714 1400l-356 -580c72 37 154 57 241 57c278 0 481 -191 481 -444c0 -254 -203 -444 -481 -444c-279 0 -482 191 -482 444c0 90 26 171 75 252l434 715h88zM599 810c-237 0 -408 -160 -408 -377s172 -377 408 -377s407 160 407 377s-171 377 -407 377z" />
    <glyph glyph-name="seven.tf" horiz-adv-x="1200" 
d="M1074 1400v-56l-668 -1344h-83l665 1332h-848v68h934z" />
    <glyph glyph-name="eight.tf" horiz-adv-x="1200" 
d="M600 1411c255 0 467 -130 467 -365c0 -178 -113 -288 -263 -337c168 -48 297 -159 297 -341c0 -247 -226 -379 -501 -379s-502 132 -502 379c0 182 129 293 297 341c-150 49 -263 159 -263 337c0 235 212 365 468 365zM600 676c-235 0 -426 -108 -426 -308
c0 -206 191 -312 426 -312c233 0 425 106 425 312c0 200 -191 308 -425 308zM600 1343c-215 0 -393 -103 -393 -298c0 -202 178 -306 393 -306c214 0 392 104 392 306c0 195 -178 298 -392 298z" />
    <glyph glyph-name="nine.tf" horiz-adv-x="1200" 
d="M486 0l356 580c-71 -37 -154 -57 -241 -57c-279 0 -481 191 -481 444s202 444 481 444s482 -191 482 -444c0 -90 -26 -171 -75 -251l-435 -716h-87zM601 590c237 0 407 160 408 377c0 216 -171 377 -408 377s-407 -161 -407 -377s170 -377 407 -377z" />
    <glyph glyph-name="uni2007.tf" horiz-adv-x="1200" 
 />
    <glyph glyph-name="zero.tosf" horiz-adv-x="1200" 
d="M600 1029c279 0 507 -199 507 -518c0 -325 -228 -523 -507 -523c-280 0 -508 206 -508 523c0 319 228 518 508 518zM600 964c-240 0 -437 -171 -437 -453c0 -280 197 -458 437 -458s436 170 436 458c0 282 -196 453 -436 453z" />
    <glyph glyph-name="one.tosf" horiz-adv-x="1200" 
d="M209 68h419v873l-429 -122v70l500 143v-964h390v-68h-880v68z" />
    <glyph glyph-name="two.tosf" horiz-adv-x="1200" 
d="M243 784l-51 43c65 83 185 202 400 202c250 0 396 -159 396 -344c0 -159 -98 -289 -301 -410l-344 -207h713v-68h-842v58l433 266c203 125 267 239 267 358c0 146 -110 278 -324 278c-183 0 -283 -96 -347 -176z" />
    <glyph glyph-name="three.tosf" horiz-adv-x="1200" 
d="M566 1029c262 0 442 -154 442 -365c0 -178 -101 -291 -248 -338c161 -48 278 -167 278 -338c0 -259 -225 -381 -460 -381c-178 0 -317 62 -416 163l46 48c92 -90 217 -144 369 -144c204 0 388 100 388 314c0 189 -173 304 -384 304h-202v67h202c199 0 353 104 353 305
c0 175 -154 298 -372 298c-152 0 -268 -73 -340 -170l-54 42c81 112 216 195 398 195z" />
    <glyph glyph-name="four.tosf" horiz-adv-x="1200" 
d="M845 457v-390h292v-67h-292v-383h-70v383h-667v56l491 961h76l-484 -950h584v390h70z" />
    <glyph glyph-name="five.tosf" horiz-adv-x="1200" 
d="M988 1017v-67h-660l-21 -515h222c343 0 514 -163 514 -417c0 -256 -197 -412 -462 -412c-190 0 -343 70 -457 212l50 44c101 -125 242 -188 407 -188c241 0 388 141 388 338c0 223 -142 356 -460 356h-270l23 649h726z" />
    <glyph glyph-name="six.tosf" horiz-adv-x="1200" 
d="M720 1400l-355 -580c71 36 154 56 241 56c278 0 480 -190 480 -444c0 -252 -202 -443 -480 -443s-482 191 -482 443c0 91 26 172 75 252l435 716h86zM606 810c-237 0 -408 -160 -409 -378c0 -217 171 -377 409 -377c237 0 407 160 407 377c0 218 -170 378 -407 378z" />
    <glyph glyph-name="seven.tosf" horiz-adv-x="1200" 
d="M1091 1017v-55l-669 -1345h-81l666 1333h-849v67h933z" />
    <glyph glyph-name="eight.tosf" horiz-adv-x="1200" 
d="M612 1411c245 0 447 -140 447 -366c0 -173 -111 -286 -257 -336c163 -49 290 -164 290 -341c0 -237 -216 -380 -480 -380s-481 143 -481 380c0 177 127 292 291 341c-146 50 -257 163 -257 336c0 226 202 366 447 366zM612 675c-224 0 -407 -116 -407 -307
c0 -197 183 -313 407 -313s406 116 406 313c0 191 -182 307 -406 307zM612 1344c-205 0 -373 -113 -373 -298c0 -193 168 -307 373 -307s373 114 373 307c0 185 -168 298 -373 298z" />
    <glyph glyph-name="nine.tosf" horiz-adv-x="1200" 
d="M480 -382l356 580c-72 -37 -154 -56 -241 -56c-278 0 -481 190 -481 444c0 252 202 443 480 443c279 0 482 -191 482 -444c0 -90 -27 -171 -75 -251l-434 -716h-87zM594 208c237 0 409 160 409 377c0 218 -171 377 -409 377c-237 0 -407 -160 -407 -377
s170 -377 407 -377z" />
    <glyph glyph-name="uni2007.tosf" horiz-adv-x="1200" 
 />
    <glyph glyph-name="exclam.sc" horiz-adv-x="516" 
d="M293 1020v-700h-70v700h70zM258 98c29 0 53 -24 53 -53s-24 -54 -53 -54s-54 25 -54 54s25 53 54 53z" />
    <glyph glyph-name="numbersign.sc" horiz-adv-x="1165" 
d="M231 746h175l62 274h60l-61 -274h331l62 274h60l-62 -274h179l-12 -56h-179l-80 -356h179l-12 -57h-179l-62 -277h-60l62 277h-331l-62 -277h-61l62 277h-174l12 57h174l80 356h-175zM454 690l-79 -356h331l80 356h-332z" />
    <glyph glyph-name="dollar.sc" horiz-adv-x="1200" 
d="M572 1158h57v-139c146 -7 265 -54 345 -107l-32 -53c-72 48 -182 93 -313 99v-416l62 -7c193 -22 306 -107 306 -251c0 -184 -165 -274 -368 -283v-140h-57v139c-143 6 -290 60 -372 115l35 53c70 -48 204 -102 337 -107v423l-43 5c-210 23 -303 120 -303 253
c0 169 150 270 346 277v139zM659 476l-30 3v-417c171 7 300 76 300 218c0 108 -90 176 -270 196zM293 745c0 -99 74 -175 268 -196l11 -1v410c-161 -6 -278 -83 -279 -213z" />
    <glyph glyph-name="percent.sc" horiz-adv-x="1447" 
d="M356 1030c146 0 256 -107 256 -250c0 -144 -110 -252 -256 -252c-143 0 -253 108 -253 252c0 143 110 250 253 250zM356 977c-111 0 -196 -84 -196 -197c0 -115 85 -198 196 -198c114 0 199 83 199 198c0 113 -85 197 -199 197zM1088 1020l-662 -1020h-67l662 1020h67z
M1087 493c146 0 257 -108 257 -251c0 -144 -111 -251 -257 -251c-142 0 -253 107 -253 251c0 143 111 251 253 251zM1087 440c-111 0 -195 -84 -195 -198c0 -115 84 -198 195 -198c114 0 199 83 199 198c0 114 -85 198 -199 198z" />
    <glyph glyph-name="ampersand.sc" horiz-adv-x="1056" 
d="M1023 0h-88l-200 188c-84 -106 -180 -197 -336 -197c-170 0 -284 96 -284 239c0 153 117 241 235 320c-114 107 -169 169 -169 265c0 116 100 214 238 214s237 -94 237 -208c0 -127 -102 -203 -211 -276l284 -268l189 256l49 -32l-195 -265zM403 49c128 0 207 76 287 178
l-298 284c-109 -73 -210 -150 -210 -277c0 -110 91 -185 221 -185zM246 812c0 -74 45 -123 157 -228c100 67 189 133 189 235c0 82 -71 152 -173 152c-101 0 -173 -72 -173 -159z" />
    <glyph glyph-name="parenleft.sc" horiz-adv-x="615" 
d="M509 1130l20 -59c-198 -67 -332 -295 -332 -561c0 -265 134 -493 332 -561l-20 -58c-222 72 -381 323 -381 619c0 297 159 548 381 620z" />
    <glyph glyph-name="parenright.sc" horiz-adv-x="615" 
d="M106 -109l-20 59c198 67 332 295 332 561c0 265 -134 493 -332 561l20 58c222 -72 381 -323 381 -619c0 -297 -159 -548 -381 -620z" />
    <glyph glyph-name="asterisk.sc" horiz-adv-x="672" 
d="M123 886l189 -63v197h51v-196l187 62l15 -49l-188 -60l118 -157l-42 -30l-116 158l-116 -158l-41 30l117 157l-190 60z" />
    <glyph glyph-name="slash.sc" horiz-adv-x="768" 
d="M682 1020l-521 -1020h-75l521 1020h75z" />
    <glyph glyph-name="zero.sc" horiz-adv-x="1137" 
d="M568 1029c239 0 434 -195 434 -519s-195 -519 -434 -519c-238 0 -433 195 -433 519s195 519 433 519zM568 965c-199 0 -363 -167 -363 -455s164 -455 363 -455c200 0 364 167 364 455s-164 455 -364 455z" />
    <glyph glyph-name="one.sc" horiz-adv-x="726" 
d="M510 1028v-1028h-67v934l-375 -160v68z" />
    <glyph glyph-name="two.sc" horiz-adv-x="845" 
d="M136 821l-48 39c50 81 141 169 304 169c206 0 318 -134 318 -302c0 -124 -67 -215 -144 -294l-360 -370h544v-63h-643v52l411 419c69 70 122 151 122 253c0 131 -87 241 -251 241c-131 0 -206 -69 -253 -144z" />
    <glyph glyph-name="three.sc" horiz-adv-x="862" 
d="M375 1029c207 0 349 -113 349 -269c0 -125 -71 -208 -176 -245c117 -37 199 -123 199 -243c0 -191 -177 -281 -363 -281c-129 0 -242 47 -316 120l41 45c67 -64 166 -104 273 -104c154 0 295 70 295 220c0 131 -128 213 -286 213h-155v62h155c149 0 264 73 264 213
c0 120 -116 208 -284 208c-110 0 -201 -55 -255 -121l-45 42c63 79 171 140 304 140z" />
    <glyph glyph-name="four.sc" horiz-adv-x="879" 
d="M630 588v-295h195v-63h-195v-230h-66v230h-510v49l381 741h74l-375 -727h430v295h66z" />
    <glyph glyph-name="five.sc" horiz-adv-x="897" 
d="M733 1020v-62h-483l-14 -358h157c253 0 382 -116 382 -305c0 -186 -145 -304 -347 -304c-141 0 -256 52 -340 151l41 45c73 -86 178 -134 299 -134c171 0 278 98 278 237c0 157 -104 249 -330 249h-203l17 481h543z" />
    <glyph glyph-name="six.sc" horiz-adv-x="886" 
d="M536 1020l-253 -408c47 19 100 30 157 30c206 0 358 -138 358 -325s-151 -326 -358 -326s-359 139 -359 325c0 67 21 129 58 190l317 514h80zM440 582c-167 0 -290 -113 -290 -265s122 -265 290 -265s289 113 289 265s-121 265 -289 265z" />
    <glyph glyph-name="seven.sc" horiz-adv-x="857" 
d="M776 1020v-52l-487 -968h-78l487 957h-617v63h695z" />
    <glyph glyph-name="eight.sc" horiz-adv-x="975" 
d="M488 1028c190 0 347 -95 347 -268c0 -128 -78 -206 -183 -244c118 -36 208 -117 208 -247c0 -181 -168 -279 -372 -279c-205 0 -373 98 -373 279c0 130 89 211 208 248c-105 37 -183 116 -183 243c0 173 158 268 348 268zM488 488c-165 0 -302 -76 -302 -217
c0 -146 137 -220 302 -220s300 74 300 220c0 141 -135 217 -300 217zM488 967c-152 0 -277 -72 -277 -209c0 -142 124 -214 277 -214c152 0 277 72 277 214c0 137 -125 209 -277 209z" />
    <glyph glyph-name="nine.sc" horiz-adv-x="885" 
d="M349 0l253 408c-48 -20 -101 -30 -157 -30c-206 0 -357 138 -357 325s150 326 357 326s359 -139 359 -325c0 -67 -20 -129 -57 -190l-317 -514h-81zM445 438c167 0 290 113 290 265s-122 265 -290 265s-288 -113 -288 -265s120 -265 288 -265z" />
    <glyph glyph-name="question.sc" horiz-adv-x="753" 
d="M316 317h-61v224h27c185 0 301 82 301 213c0 128 -124 210 -295 210c-29 0 -59 -2 -83 -4l-5 65c27 3 62 5 94 5c209 0 360 -108 360 -271c0 -159 -128 -262 -334 -276zM286 98c28 0 53 -24 53 -53s-25 -54 -53 -54c-29 0 -54 25 -54 54s25 53 54 53z" />
    <glyph glyph-name="at.sc" horiz-adv-x="1469" 
d="M1002 795v-363c0 -98 41 -139 97 -139c95 0 159 97 159 243c0 316 -232 507 -523 507c-295 0 -523 -226 -523 -521c0 -297 228 -526 523 -526c118 0 226 36 315 101l32 -40c-98 -73 -219 -112 -347 -112c-327 0 -581 254 -581 577c0 320 254 573 581 573
c324 0 580 -218 580 -559c0 -166 -85 -295 -218 -295c-78 0 -129 43 -144 117c-46 -69 -123 -117 -227 -117c-159 0 -280 122 -280 281c0 160 120 282 279 282c100 0 177 -49 224 -118v109h53zM726 752c-128 0 -224 -99 -224 -230s96 -229 224 -229c130 0 224 97 224 229
s-94 230 -224 230z" />
    <glyph glyph-name="bracketleft.sc" horiz-adv-x="600" 
d="M514 -37v-59h-300v1213h300v-59h-234v-1095h234z" />
    <glyph glyph-name="backslash.sc" horiz-adv-x="768" 
d="M607 0l-521 1020h75l521 -1020h-75z" />
    <glyph glyph-name="bracketright.sc" horiz-adv-x="600" 
d="M86 1058v59h300v-1213h-300v59h234v1095h-234z" />
    <glyph glyph-name="a.sc" horiz-adv-x="1103" 
d="M591 1020l476 -1020h-74l-143 307h-599l-142 -307h-73l476 1020h79zM550 952l-270 -581h541z" />
    <glyph glyph-name="b.sc" horiz-adv-x="1175" 
d="M214 1020h431c229 0 382 -78 382 -265c0 -111 -66 -192 -170 -232c116 -40 190 -125 190 -246c0 -193 -152 -277 -387 -277h-446v1020zM657 490h-374v-428h374c192 0 319 60 319 215s-126 213 -319 213zM643 958h-360v-406h360c185 0 312 55 312 203s-127 203 -312 203z
" />
    <glyph glyph-name="c.sc" horiz-adv-x="1184" 
d="M647 1029c174 0 331 -79 414 -213l-58 -36c-72 114 -207 183 -356 183c-249 0 -447 -183 -447 -453c0 -272 200 -453 447 -453c150 0 284 68 356 183l56 -40c-84 -130 -238 -209 -412 -209c-291 0 -519 212 -519 519s228 519 519 519z" />
    <glyph glyph-name="d.sc" horiz-adv-x="1267" 
d="M214 1020h388c320 0 537 -202 537 -510s-217 -510 -537 -510h-388v1020zM601 955h-318v-890h318c286 0 467 178 467 445c0 268 -181 445 -467 445z" />
    <glyph glyph-name="e.sc" horiz-adv-x="1128" 
d="M956 64v-64h-742v1020h740v-64h-671v-411h653v-64h-653v-417h673z" />
    <glyph glyph-name="f.sc" horiz-adv-x="1075" 
d="M930 543v-64h-647v-479h-69v1020h732v-64h-663v-413h647z" />
    <glyph glyph-name="g.sc" horiz-adv-x="1260" 
d="M647 1029c160 0 301 -67 394 -176l-50 -48c-82 98 -206 159 -345 159c-248 0 -446 -184 -446 -454c0 -272 199 -455 445 -455c236 0 405 156 415 417h-374v59h445c1 -8 1 -17 1 -25c-1 -313 -207 -515 -487 -515c-279 0 -517 205 -517 519c0 308 229 519 519 519z" />
    <glyph glyph-name="h.sc" horiz-adv-x="1307" 
d="M283 1020v-475h741v475h69v-1020h-69v481h-741v-481h-69v1020h69z" />
    <glyph glyph-name="i.sc" horiz-adv-x="497" 
d="M283 1020v-1020h-69v1020h69z" />
    <glyph glyph-name="j.sc" horiz-adv-x="960" 
d="M756 1020v-650c0 -244 -164 -379 -383 -379c-153 0 -259 61 -322 122l43 50c57 -56 150 -106 277 -106c183 0 316 111 316 319v644h69z" />
    <glyph glyph-name="k.sc" horiz-adv-x="1110" 
d="M283 1020v-475h169l500 475h89l-539 -505l570 -515h-92l-530 481h-167v-481h-69v1020h69z" />
    <glyph glyph-name="l.sc" horiz-adv-x="994" 
d="M951 65v-65h-737v1020h69v-955h668z" />
    <glyph glyph-name="m.sc" horiz-adv-x="1539" 
d="M1325 1020v-1020h-69v927l-451 -799h-70l-452 797v-925h-69v1020h96l460 -812l459 812h96z" />
    <glyph glyph-name="n.sc" horiz-adv-x="1308" 
d="M1094 1020v-1020h-63l-748 901v-901h-69v1020h62l750 -903v903h68z" />
    <glyph glyph-name="o.sc" horiz-adv-x="1296" 
d="M648 1029c292 0 520 -212 520 -519s-228 -519 -520 -519s-520 212 -520 519s228 519 520 519zM648 963c-250 0 -447 -182 -447 -453s197 -453 447 -453s447 182 447 453s-197 453 -447 453z" />
    <glyph glyph-name="p.sc" horiz-adv-x="1123" 
d="M621 413h-338v-413h-69v1020h406c240 0 392 -111 392 -304c0 -192 -152 -303 -391 -303zM619 956h-336v-479h336c197 0 322 84 322 239c0 156 -125 240 -322 240z" />
    <glyph glyph-name="q.sc" horiz-adv-x="1296" 
d="M648 1029c292 0 520 -212 520 -519c0 -128 -41 -239 -110 -326l149 -184h-81l-112 135c-92 -90 -221 -144 -366 -144c-292 0 -520 212 -520 519s228 519 520 519zM786 514l227 -276c51 73 82 166 82 272c0 271 -197 453 -447 453s-447 -182 -447 -453s197 -453 447 -453
c128 0 242 47 323 130l-268 327h83z" />
    <glyph glyph-name="r.sc" horiz-adv-x="1116" 
d="M624 1020c230 0 376 -100 376 -284c0 -179 -150 -281 -376 -281h-62l437 -455h-88l-432 455h-196v-455h-69v1020h410zM622 956h-339v-440h339c188 0 307 76 307 220c0 145 -120 220 -307 220z" />
    <glyph glyph-name="s.sc" horiz-adv-x="1114" 
d="M951 916l-34 -56c-81 55 -214 105 -363 105c-186 0 -325 -79 -326 -217c0 -104 78 -175 287 -196l137 -14c207 -21 333 -99 333 -255c0 -201 -196 -292 -434 -292c-159 0 -332 60 -423 122l36 56c80 -53 237 -114 387 -114c201 0 361 69 361 222c0 119 -98 177 -288 196
l-140 14c-226 23 -328 115 -328 256c0 181 174 286 398 286c169 0 307 -53 397 -113z" />
    <glyph glyph-name="t.sc" horiz-adv-x="978" 
d="M935 1020v-65h-412v-955h-69v955h-411v65h892z" />
    <glyph glyph-name="u.sc" horiz-adv-x="1255" 
d="M1062 1020v-624c0 -268 -191 -405 -435 -405c-243 0 -434 137 -434 405v624h69v-620c0 -230 160 -343 365 -343s366 113 366 343v620h69z" />
    <glyph glyph-name="v.sc" horiz-adv-x="1091" 
d="M1055 1020l-469 -1020h-81l-469 1020h74l436 -952l436 952h73z" />
    <glyph glyph-name="w.sc" horiz-adv-x="1745" 
d="M1687 1020l-381 -1020h-81l-353 930l-352 -930h-81l-381 1020h72l350 -946l356 946h74l356 -947l350 947h71z" />
    <glyph glyph-name="x.sc" horiz-adv-x="1093" 
d="M1008 1020l-416 -497l438 -523h-83l-401 476l-402 -476h-81l438 523l-416 497h82l380 -451l380 451h81z" />
    <glyph glyph-name="y.sc" horiz-adv-x="983" 
d="M972 1020l-445 -578v-442h-69v441l-447 579h82l399 -509l399 509h81z" />
    <glyph glyph-name="z.sc" horiz-adv-x="1114" 
d="M981 1020v-54l-761 -902h765v-64h-857v54l760 902h-743v64h836z" />
    <glyph glyph-name="braceleft.sc" horiz-adv-x="667" 
d="M581 1059h-56c-100 0 -168 -58 -160 -197l7 -120c8 -132 -48 -206 -145 -231c97 -26 153 -100 145 -232l-7 -119c-9 -141 60 -198 160 -198h56v-58h-59c-143 0 -233 84 -223 260l7 120c9 140 -66 198 -175 198v57c109 0 184 58 175 199l-7 119c-10 175 80 260 223 260h59
v-58z" />
    <glyph glyph-name="braceright.sc" horiz-adv-x="667" 
d="M142 1059h-56v58h59c143 0 233 -85 223 -260l-7 -119c-9 -141 66 -199 175 -199v-57c-109 0 -184 -58 -175 -198l7 -120c10 -176 -80 -260 -223 -260h-59v58h56c100 0 169 57 160 198l-7 119c-8 132 48 206 145 232c-97 25 -153 99 -145 231l7 120
c8 139 -60 197 -160 197z" />
    <glyph glyph-name="exclamdown.sc" horiz-adv-x="516" 
d="M223 0v700h70v-700h-70zM258 922c-29 0 -53 24 -53 53s24 54 53 54s54 -25 54 -54s-25 -53 -54 -53z" />
    <glyph glyph-name="cent.sc" horiz-adv-x="1200" 
d="M608 1019h57v-160c104 -2 196 -43 260 -109l-43 -40c-56 55 -130 87 -217 90v-581c87 2 163 36 218 90l42 -40c-64 -67 -156 -107 -260 -109v-160h-57v163c-188 21 -320 162 -320 347c0 184 132 325 320 346v163zM352 510c0 -153 107 -268 256 -288v575
c-149 -20 -256 -135 -256 -287z" />
    <glyph glyph-name="sterling.sc" horiz-adv-x="1200" 
d="M966 63v-63h-744v63h141v419h-141v56h141v149c0 226 146 342 325 342c109 0 204 -45 265 -135l-50 -42c-50 75 -125 113 -215 113c-144 0 -258 -92 -258 -281v-146h413v-56h-413v-419h536z" />
    <glyph glyph-name="currency.sc" horiz-adv-x="1200" 
d="M260 807l38 39l106 -106c53 44 121 71 197 71c74 0 143 -26 196 -70l105 105l38 -39l-105 -104c44 -53 71 -120 71 -193c0 -74 -27 -142 -71 -194l105 -105l-38 -38l-105 105c-53 -44 -122 -70 -196 -70c-76 0 -144 26 -197 70l-106 -105l-38 38l106 105
c-45 53 -71 120 -71 194c0 73 26 140 71 193zM601 261c140 0 252 110 252 249c0 138 -112 248 -252 248c-142 0 -253 -110 -253 -248c0 -139 111 -249 253 -249z" />
    <glyph glyph-name="yen.sc" horiz-adv-x="1200" 
d="M946 301v-57h-311v-244h-67v244h-309v57h309v174h-309v58h282l-367 487h79l348 -460l348 460h78l-366 -487h285v-58h-311v-174h311z" />
    <glyph glyph-name="section.sc" horiz-adv-x="1026" 
d="M863 921l-30 -53c-70 52 -184 101 -317 101c-162 0 -285 -65 -285 -178c0 -94 95 -150 255 -164l117 -10c160 -14 294 -85 294 -216c0 -90 -53 -152 -133 -190c72 -35 119 -90 119 -168c0 -173 -171 -251 -377 -251c-158 0 -297 58 -378 117l33 52
c71 -50 196 -109 345 -109c173 0 309 58 309 184c0 98 -112 148 -254 162l-123 12c-177 18 -289 90 -289 217c0 83 50 149 129 187c-72 37 -113 94 -113 172c0 152 151 243 350 243c149 0 270 -51 348 -108zM453 568c-41 4 -78 11 -111 21c-78 -30 -126 -83 -126 -156
c0 -95 94 -149 255 -164l120 -11c39 -4 77 -12 112 -22c77 28 126 81 126 157c0 100 -110 153 -254 165z" />
    </font>
</defs>
</svg>
